<svg xmlns="http://www.w3.org/2000/svg" width="800.418" height="440.048" viewBox="0 0 800.418 440.048" xmlns:xlink="http://www.w3.org/1999/xlink" role="img" artist="Katerina Limpitsouni" source="https://undraw.co/"><g transform="translate(-560 -320)"><path d="M1028.793,687.166H230.949a1.287,1.287,0,1,1,0-2.573h797.844a1.287,1.287,0,1,1,0,2.573Z" transform="translate(330.338 68.211)" fill="#f2f2f2"/><path d="M369.349,520.9a131.885,131.885,0,0,1,10.915-41.624q2.464-5.5,5.423-10.764a.8.8,0,0,0-1.387-.811,133.708,133.708,0,0,0-14.878,41.046q-1.117,6.034-1.679,12.153C367.647,521.93,369.254,521.923,369.349,520.9Z" transform="translate(280.127 224.126)" fill="#3f3d56"/><path d="M370.269,519.746a85.561,85.561,0,0,1,7.081-27q1.6-3.57,3.518-6.983a.521.521,0,0,0-.9-.526,86.742,86.742,0,0,0-9.652,26.628q-.725,3.915-1.089,7.884C369.165,520.414,370.208,520.41,370.269,519.746Z" transform="translate(286.141 225.551)" fill="#3f3d56"/><circle cx="6.6" cy="6.6" r="6.6" transform="translate(662.934 699.781)" fill="#FDCE04"/><path d="M369.988,519.095a85.56,85.56,0,0,1-11.025-25.647q-.936-3.8-1.521-7.67a.521.521,0,0,0-1.033.139,86.742,86.742,0,0,0,8.768,26.933q1.836,3.532,3.99,6.887c.362.564,1.181-.08.822-.641Z" transform="translate(279.213 225.579)" fill="#3f3d56"/><circle cx="6.6" cy="6.6" r="6.6" transform="translate(629.013 699.318)" fill="#FDCE04"/><path d="M350.224,523.31V510.342a4.869,4.869,0,0,1,4.863-4.863h30.258a4.868,4.868,0,0,1,4.863,4.863V523.31a4.868,4.868,0,0,1-4.863,4.863H355.087a4.868,4.868,0,0,1-4.863-4.863Z" transform="translate(278.714 227.203)" fill="#ccc"/><g transform="translate(999.362 494.882)"><rect width="93.308" height="7.595" rx="3.5" transform="translate(0 59.673)" fill="#ccc"/><path d="M662.347,530.776H565.785a7.06,7.06,0,0,1-7.052-7.052V470.56a7.06,7.06,0,0,1,7.052-7.052h96.563a7.06,7.06,0,0,1,7.052,7.052v53.164a7.06,7.06,0,0,1-7.052,7.052Z" transform="translate(-515.333 -463.508)" fill="#ccc"/><ellipse cx="6.51" cy="6.51" rx="6.51" ry="6.51" transform="translate(92.223 27.124)" fill="#fff"/></g><path d="M803.228,524.508H326.518a7.785,7.785,0,0,0,0,15.571h13.774V709.563a7.785,7.785,0,1,0,15.571,0V555.039l87.282,158.2a7.785,7.785,0,0,0,13.485-7.785L365.39,540.079H782.267v.1L691.083,705.452a7.785,7.785,0,1,0,13.484,7.785l77.7-140.831V709.563a7.786,7.786,0,1,0,15.571,0V544.184l2.265-4.105h3.125a7.785,7.785,0,1,0,0-15.571Z" transform="translate(376.675 36.445)" fill="#d6d6e3"/><g transform="translate(741.666 359.926)"><path d="M514.616,98.226S484.5,89.742,475.59,130.889s-3.25,35.962-3.25,35.962L539.575,159S559.791,110.739,514.616,98.226Z" transform="translate(-366.786 -97.502)" fill="#090814"/><path d="M458.156,258.012s45.438,2.1,37.569,19.939q-.834,1.891-1.554,3.543a319,319,0,0,1-19.38,37.513l-27.927,46.271L436.7,359.632l28.6-74.338-25.7-2.1Z" transform="translate(-272.161 -81.597)" fill="#ed9da0"/><path d="M508.491,169.563s-4.2,22.032-7.869,25.179,27.8,7.869,27.8,7.869S523.7,187.4,529.473,179.53,508.491,169.563,508.491,169.563Z" transform="translate(-376.368 -123.112)" fill="#ed9da0"/><path d="M600.543,274.981l-14.688,32S574.839,318,562.773,362.061s-14.688,42.491-14.688,42.491l11.926,3.972,48.925-88.953,24.13-30.425-7.339-16.259Z" transform="translate(-534.351 -79.677)" fill="#ed9da0"/><path d="M491.029,243.541l-21.107,39.284s-38.687,77.252-33.741,76.94c5.56-.351,18.468,6.191,23.26,12.481,2.315,3.036,29.673-54.423,41.551-71L526.7,281.31s72.981,12.284,73.071,8.289c.044-1.957-17.292,33.735-12.325,31.655,5.659-2.371,16.427,10.681,22.3,8.294,2.422-.985,15.2-32.736,22.131-49.735a9.2,9.2,0,0,0-4.257-11.642c-5.205-2.71-77.527-19.221-77.527-19.221l1.265-6.46L546.11,232Z" transform="translate(-407.002 -84.956)" fill="#090814"/><ellipse cx="20.458" cy="20.458" rx="20.458" ry="20.458" transform="matrix(-0.16, -0.987, 0.987, -0.16, 130.584, 62.974)" fill="#ed9da0"/><path d="M479.84,256.65c-1.129,3.387,6.186,5.336,16.385,3.431,8.823-1.647,18.48-3.6,26.1-5.188,8.157-1.7,13.985-2.97,13.985-2.97s2.1,13.115,8.92,11.541c5.871-1.355,23.432-62.681,28.18-79.63a5.9,5.9,0,0,0-2.607-6.626l-24.114-14.725s-16.618-5.708-22.677-5.871-16.551-1.737-16.551-1.737-12.065,1.049-14.164,9.967-10.854,61.792-11.016,74.489C482.1,253.263,483.227,246.488,479.84,256.65Z" transform="translate(-397.723 -94.914)" fill="#FDCE04"/><path d="M0,0S8.484,22.482,29.269,31.814l3.394-19.941Z" transform="translate(130.95 12.636) rotate(-19)" fill="#090814"/><ellipse cx="2.885" cy="5.508" rx="2.885" ry="5.508" transform="translate(124.683 26.13)" fill="#ed9da0"/><path d="M484.385,300.763a10.315,10.315,0,0,1,2.258-15.655l18.244-92.165,20.952,8.017-24.523,88.071a10.371,10.371,0,0,1-16.937,11.73Z" transform="translate(-352.227 -89.999)" fill="#ed9da0"/><path d="M482.313,211.125l23.006,4.052a4.629,4.629,0,0,0,5.425-4.428l.635-23.281a12.846,12.846,0,0,0-25.315-4.382l-7.339,22.023a4.629,4.629,0,0,0,3.588,6.016Z" transform="translate(-334.271 -92.648)" fill="#FDCE04"/><path d="M535.482,299.43a10.316,10.316,0,0,1-2.882-15.552l-12.272-93.152,22.416.874,5.014,91.288a10.371,10.371,0,0,1-12.277,16.543Z" transform="translate(-420.963 -90.285)" fill="#ed9da0"/><path d="M528.641,209.938l23.091-3.539a4.629,4.629,0,0,0,3.719-5.935l-6.864-22.255a12.845,12.845,0,0,0-25.383,3.967l.113,23.213a4.629,4.629,0,0,0,5.326,4.548Z" transform="translate(-428.668 -93.304)" fill="#FDCE04"/><path d="M8.073,41.055s-10.3,1.527-7.631-7.631L5.784,15.112S-1.083-3.583,9.6.614s17.55,30.141,17.55,30.141,4.579,19.84,0,19.84-19.076,3.049-17.55,0S8.073,41.055,8.073,41.055Z" transform="translate(194.514 317.089) rotate(158)" fill="#090814"/><path d="M612.673,411.731s12-3.085,14.741,1.714,2.057,20.568,2.057,20.91-4.115,3.776-5.491,3.776-9.936,15.426-21.6,9.936S612.673,411.731,612.673,411.731Z" transform="translate(-598.97 -89.053)" fill="#090814"/></g><g transform="translate(1177.085 320)"><path d="M402.219,445.911s-13.584,28.3-4.528,29.433,11.32-25.471,11.32-25.471Z" transform="translate(-394.578 -232.742)" fill="#ed9da0"/><path d="M351.5,206.8h0a16.719,16.719,0,0,0-12.3,13.841l-8.075,57.477L319.8,323.961s-5.661,5.093-3.393,7.925-2.83,14.716-2.83,14.716l14.154,4.528s1.7-11.886,4.528-12.453c2.487-.5,30.329-74.873,37.04-92.891.925-2.484,1.449-3.9,1.449-3.9S369.614,203.966,351.5,206.8Z" transform="translate(-310.466 -128.905)" fill="#d6d6e3"/><path d="M185.733,724.945,174.691,745.9l18.4,5.364,3.919-18.95Z" transform="translate(-126.585 -330.651)" fill="#ed9da0"/><path d="M317.415,792.282l-19.45,9.951s-30.439,7.257-10.62,13.289,28.74,1.744,28.74,1.744,25.926,1.348,25.508-5.885-5.405-17.4-5.405-17.4S318.836,798.508,317.415,792.282Z" transform="translate(-268.517 -379.447)" fill="#090814"/><path d="M294.64,435.214l-8.49,102.731s-.283,61.413-9.339,73.3-9.339,17.83-9.339,17.83l-18.679-9.619s9.619-16.031,7.641-18.488a13.686,13.686,0,0,1-2.547-5.285l5.094-63.394-9.619-110.373Z" transform="translate(-195.304 -222.328)" fill="#090814"/><path d="M267.578,787.911" transform="translate(-181.26 -381.165)" fill="none" stroke="#3f3d56" stroke-miterlimit="10" stroke-width="1"/><path d="M113.155,723.209l7.924,20.943,22.64-8.49-14.154-14.716Z" transform="translate(-37.026 -328.916)" fill="#ed9da0"/><path d="M249.106,443.741l-4.528,94.524s22.074,62.827,41.319,73.016c0,0,0,12.453,4.528,14.716a11.369,11.369,0,0,1,5.66,6.793l24.9-6.226-11.32-18.113-24.9-60.563s-3.962-1.7-5.094-7.358-3.4-5.66,2.268-6.792,5.66-6.792,5.66-6.792l18.679-86.034Z" transform="translate(-221.654 -230.572)" fill="#090814"/><path d="M312.737,146.411s1.7,28.867,3.962,31.7-23.773,2.268-23.773,2.268,1.7-24.339,0-26.6S312.737,146.411,312.737,146.411Z" transform="translate(-244.815 -102.764)" fill="#ed9da0"/><circle cx="22.64" cy="22.64" r="22.64" transform="translate(25.187 19.592)" fill="#ed9da0"/><path d="M282.113,186.634s-21.505-2.268-29.433,4.528a58.239,58.239,0,0,1-8.106,5.8,16.626,16.626,0,0,0-8.067,13.763L232.3,339.458s63.96-5.66,75.846,0c0,0,.566-13.018,1.7-14.716.825-1.238,2.252-50.6,2.965-77.271a58.716,58.716,0,0,0-14.858-40.977c-3.431-3.8-7.263-6.98-11.311-8.537C286.638,197.954,287.77,187.2,282.113,186.634Z" transform="translate(-206.547 -120.063)" fill="#d6d6e3"/><path d="M348.322,268.411,314.078,361.05S347.19,298.41,348.322,268.411Z" transform="translate(-288.324 -155.71)" opacity="0.1"/><path d="M42.759,41.183c-1.915-.114-3.784.533-5.686.782A14.391,14.391,0,0,1,21.691,31.235a8.232,8.232,0,0,0-.787-2.563c-1.047-1.709-3.431-2.033-5.4-1.642s-3.832,1.313-5.831,1.418a8.928,8.928,0,0,1-7.705-4.361A14.788,14.788,0,0,1,.082,15.154L1.564,16.71a7.526,7.526,0,0,0,.671-4.091,4.747,4.747,0,0,1,4.5,1.15c1.307.139.321-2.424,1.291-3.309a2.245,2.245,0,0,1,1.58-.3c2.779.027,5.028-2.1,7.218-3.811A30.673,30.673,0,0,1,29.774.446,17.04,17.04,0,0,1,39.226.9,20.191,20.191,0,0,1,45.61,5.432c4.66,4.481,8.787,9.746,10.725,15.913a26.788,26.788,0,0,1,.128,15.534c-.782,2.637-3.135,11.666-6.582,11.876C45.549,49.026,48.149,41.507,42.759,41.183Z" transform="translate(35.824 0) rotate(20.972)" fill="#090814"/><path d="M239.765,780.645s-7.484-4.637-8.419-2.782-4.677,9.738-4.677,9.738l-4.209,11.593s-25.728,16.231-3.742,17.159,27.6-11.593,27.6-11.593S271.1,794.094,267.36,787.6s-16.838-13.226-16.838-13.226S243.974,785.746,239.765,780.645Z" transform="translate(-153.81 -376.354)" fill="#090814"/></g><path d="M554.668,602.33a6.519,6.519,0,0,0-9.219,9.219l9.219,9.219,9.219-9.219a6.519,6.519,0,0,0-9.219-9.219Z" transform="matrix(0.839, 0.545, -0.545, 0.839, 537.609, -129.14)" fill="#FDCE04"/></g></svg>