<?xml version="1.0" encoding="UTF-8"?><svg id="Layer_1" xmlns="http://www.w3.org/2000/svg" xmlns:xlink="http://www.w3.org/1999/xlink" viewBox="0 0 1440 810"><defs><style>.cls-1{fill:none;}.cls-2{fill:url(#linear-gradient);}.cls-3{letter-spacing:-.04em;}.cls-4{letter-spacing:-.04em;}.cls-5{clip-path:url(#clippath);}.cls-6,.cls-7,.cls-8,.cls-9{fill:#53284f;}.cls-7{stroke-width:14px;}.cls-7,.cls-8,.cls-10,.cls-9{stroke-linejoin:round;}.cls-7,.cls-8,.cls-9{stroke:#53284f;}.cls-11{letter-spacing:0em;}.cls-8{font-size:167.43px;letter-spacing:-.04em;}.cls-8,.cls-9{font-family:OhnoBlazeface-72PointItalic, 'Ohno Blazeface';font-style:italic;stroke-width:23px;}.cls-12{fill:url(#linear-gradient-8);}.cls-13{fill:url(#linear-gradient-9);}.cls-14{fill:url(#linear-gradient-3);}.cls-15{fill:url(#linear-gradient-4);}.cls-16{fill:url(#linear-gradient-2);}.cls-17{fill:url(#linear-gradient-6);}.cls-18{fill:url(#linear-gradient-7);}.cls-19{fill:url(#linear-gradient-5);}.cls-20{letter-spacing:0em;}.cls-21{opacity:.65;}.cls-22{letter-spacing:0em;}.cls-10{fill:#faf394;stroke:#faf394;stroke-width:2px;}.cls-23{fill:url(#linear-gradient-59);}.cls-24{fill:url(#linear-gradient-57);}.cls-25{fill:url(#linear-gradient-58);}.cls-26{fill:url(#linear-gradient-55);}.cls-27{fill:url(#linear-gradient-56);}.cls-28{fill:url(#linear-gradient-53);}.cls-29{fill:url(#linear-gradient-54);}.cls-30{fill:url(#linear-gradient-51);}.cls-31{fill:url(#linear-gradient-52);}.cls-32{fill:url(#linear-gradient-50);}.cls-33{fill:url(#linear-gradient-77);}.cls-34{fill:url(#linear-gradient-78);}.cls-35{fill:url(#linear-gradient-79);}.cls-36{fill:url(#linear-gradient-74);}.cls-37{fill:url(#linear-gradient-75);}.cls-38{fill:url(#linear-gradient-76);}.cls-39{fill:url(#linear-gradient-70);}.cls-40{fill:url(#linear-gradient-71);}.cls-41{fill:url(#linear-gradient-72);}.cls-42{fill:url(#linear-gradient-73);}.cls-43{fill:url(#linear-gradient-68);}.cls-44{fill:url(#linear-gradient-67);}.cls-45{fill:url(#linear-gradient-69);}.cls-46{fill:url(#linear-gradient-64);}.cls-47{fill:url(#linear-gradient-63);}.cls-48{fill:url(#linear-gradient-66);}.cls-49{fill:url(#linear-gradient-65);}.cls-50{fill:url(#linear-gradient-60);}.cls-51{fill:url(#linear-gradient-62);}.cls-52{fill:url(#linear-gradient-61);}.cls-53{fill:url(#linear-gradient-81);}.cls-54{fill:url(#linear-gradient-80);}.cls-55{fill:url(#linear-gradient-87);}.cls-56{fill:url(#linear-gradient-86);}.cls-57{fill:url(#linear-gradient-85);}.cls-58{fill:url(#linear-gradient-84);}.cls-59{fill:url(#linear-gradient-83);}.cls-60{fill:url(#linear-gradient-82);}.cls-61{fill:url(#linear-gradient-41);}.cls-62{fill:url(#linear-gradient-40);}.cls-63{fill:url(#linear-gradient-43);}.cls-64{fill:url(#linear-gradient-42);}.cls-65{fill:url(#linear-gradient-45);}.cls-66{fill:url(#linear-gradient-46);}.cls-67{fill:url(#linear-gradient-44);}.cls-68{fill:url(#linear-gradient-49);}.cls-69{fill:url(#linear-gradient-47);}.cls-70{fill:url(#linear-gradient-48);}.cls-71{fill:url(#linear-gradient-14);}.cls-72{fill:url(#linear-gradient-18);}.cls-73{fill:url(#linear-gradient-22);}.cls-74{fill:url(#linear-gradient-20);}.cls-75{fill:url(#linear-gradient-21);}.cls-76{fill:url(#linear-gradient-23);}.cls-77{fill:url(#linear-gradient-15);}.cls-78{fill:url(#linear-gradient-19);}.cls-79{fill:url(#linear-gradient-16);}.cls-80{fill:url(#linear-gradient-17);}.cls-81{fill:url(#linear-gradient-13);}.cls-82{fill:url(#linear-gradient-12);}.cls-83{fill:url(#linear-gradient-10);}.cls-84{fill:url(#linear-gradient-11);}.cls-85{fill:url(#linear-gradient-27);}.cls-86{fill:url(#linear-gradient-24);}.cls-87{fill:url(#linear-gradient-26);}.cls-88{fill:url(#linear-gradient-38);}.cls-89{fill:url(#linear-gradient-35);}.cls-90{fill:url(#linear-gradient-37);}.cls-91{fill:url(#linear-gradient-34);}.cls-92{fill:url(#linear-gradient-39);}.cls-93{fill:url(#linear-gradient-36);}.cls-94{fill:url(#linear-gradient-25);}.cls-95{fill:url(#linear-gradient-28);}.cls-96{fill:url(#linear-gradient-29);}.cls-97{fill:url(#linear-gradient-33);}.cls-98{fill:url(#linear-gradient-30);}.cls-99{fill:url(#linear-gradient-32);}.cls-100{fill:url(#linear-gradient-31);}.cls-9{font-size:276.42px;}</style><clipPath id="clippath"><rect class="cls-1" width="1440" height="810" transform="translate(1440 810) rotate(180)"/></clipPath><linearGradient id="linear-gradient" x1="4015.25" y1="2167.99" x2="4015.25" y2="580.99" gradientTransform="translate(2088.02 -3179.79) rotate(90)" gradientUnits="userSpaceOnUse"><stop offset="0" stop-color="#faf292"/><stop offset=".16" stop-color="#eedf85"/><stop offset=".49" stop-color="#cfaf63"/><stop offset=".94" stop-color="#9d622d"/><stop offset=".98" stop-color="#995c29"/></linearGradient><linearGradient id="linear-gradient-2" x1="4057.53" y1="2167.99" x2="4057.53" y2="580.99" xlink:href="#linear-gradient"/><linearGradient id="linear-gradient-3" x1="4037.43" y1="2167.99" x2="4037.43" y2="580.99" xlink:href="#linear-gradient"/><linearGradient id="linear-gradient-4" x1="3943.01" y1="2168" x2="3943.01" y2="580.99" xlink:href="#linear-gradient"/><linearGradient id="linear-gradient-5" x1="4057.96" y1="2168" x2="4057.96" y2="580.99" xlink:href="#linear-gradient"/><linearGradient id="linear-gradient-6" x1="3965.41" y1="2168" x2="3965.41" y2="580.99" xlink:href="#linear-gradient"/><linearGradient id="linear-gradient-7" x1="3931.8" y1="2167.99" x2="3931.8" y2="580.99" xlink:href="#linear-gradient"/><linearGradient id="linear-gradient-8" x1="3954.78" y1="2167.99" x2="3954.78" y2="580.99" xlink:href="#linear-gradient"/><linearGradient id="linear-gradient-9" x1="3954.44" y1="2167.99" x2="3954.44" y2="580.99" xlink:href="#linear-gradient"/><linearGradient id="linear-gradient-10" x1="3920.66" y1="2167.99" x2="3920.66" y2="580.99" xlink:href="#linear-gradient"/><linearGradient id="linear-gradient-11" x1="3584.4" y1="2167.99" x2="3584.4" y2="580.99" xlink:href="#linear-gradient"/><linearGradient id="linear-gradient-12" x1="3584.42" y1="2167.99" x2="3584.42" y2="580.99" xlink:href="#linear-gradient"/><linearGradient id="linear-gradient-13" x1="3584.39" y1="2167.99" x2="3584.39" y2="580.99" xlink:href="#linear-gradient"/><linearGradient id="linear-gradient-14" x1="3584.39" y1="2167.99" x2="3584.39" y2="580.99" xlink:href="#linear-gradient"/><linearGradient id="linear-gradient-15" x1="3584.38" y1="2167.99" x2="3584.38" y2="580.99" xlink:href="#linear-gradient"/><linearGradient id="linear-gradient-16" x1="3584.41" y1="2167.99" x2="3584.41" y2="580.99" xlink:href="#linear-gradient"/><linearGradient id="linear-gradient-17" x1="3584.39" y1="2167.99" x2="3584.39" y2="580.99" xlink:href="#linear-gradient"/><linearGradient id="linear-gradient-18" x1="3931.86" y1="2167.99" x2="3931.86" y2="580.99" xlink:href="#linear-gradient"/><linearGradient id="linear-gradient-19" x1="4037.81" y1="2168" x2="4037.81" y2="580.99" xlink:href="#linear-gradient"/><linearGradient id="linear-gradient-20" x1="4015.45" y1="2168" x2="4015.45" y2="580.99" xlink:href="#linear-gradient"/><linearGradient id="linear-gradient-21" x1="3965.21" y1="2167.99" x2="3965.21" y2="580.99" xlink:href="#linear-gradient"/><linearGradient id="linear-gradient-22" x1="3943.21" y1="2167.99" x2="3943.21" y2="580.99" xlink:href="#linear-gradient"/><linearGradient id="linear-gradient-23" x1="3584.39" y1="1316.44" x2="3584.39" y2="580.99" xlink:href="#linear-gradient"/><linearGradient id="linear-gradient-24" x1="3584.39" y1="1229.99" x2="3584.39" y2="580.99" xlink:href="#linear-gradient"/><linearGradient id="linear-gradient-25" x1="3584.39" y1="1141.85" x2="3584.39" y2="580.99" xlink:href="#linear-gradient"/><linearGradient id="linear-gradient-26" x1="3584.39" y1="1053.24" x2="3584.39" y2="580.99" xlink:href="#linear-gradient"/><linearGradient id="linear-gradient-27" x1="3246.07" y1="1576.64" x2="3246.07" y2="1166.49" xlink:href="#linear-gradient"/><linearGradient id="linear-gradient-28" x1="3584.39" y1="963.91" x2="3584.39" y2="580.99" xlink:href="#linear-gradient"/><linearGradient id="linear-gradient-29" x1="3584.39" y1="874.35" x2="3584.39" y2="580.99" xlink:href="#linear-gradient"/><linearGradient id="linear-gradient-30" x1="3234.82" y1="1323.84" x2="3234.82" y2="1133.16" xlink:href="#linear-gradient"/><linearGradient id="linear-gradient-31" x1="3234.8" y1="1614.61" x2="3234.8" y2="1419.51" xlink:href="#linear-gradient"/><linearGradient id="linear-gradient-32" x1="3584.39" y1="785.43" x2="3584.39" y2="580.99" xlink:href="#linear-gradient"/><linearGradient id="linear-gradient-33" x1="3223.84" y1="1273.19" x2="3223.84" y2="1090.11" xlink:href="#linear-gradient"/><linearGradient id="linear-gradient-34" x1="3223.49" y1="1654.81" x2="3223.49" y2="1464.53" xlink:href="#linear-gradient"/><linearGradient id="linear-gradient-35" x1="3212.46" y1="1692.8" x2="3212.46" y2="1515.18" xlink:href="#linear-gradient"/><linearGradient id="linear-gradient-36" x1="3212" y1="1228.17" x2="3212" y2="1050.88" xlink:href="#linear-gradient"/><linearGradient id="linear-gradient-37" x1="3201.1" y1="1177.52" x2="3201.1" y2="1016.77" xlink:href="#linear-gradient"/><linearGradient id="linear-gradient-38" x1="3201.18" y1="1729.97" x2="3201.18" y2="1565.83" xlink:href="#linear-gradient"/><linearGradient id="linear-gradient-39" x1="3151.45" y1="2049.81" x2="3151.45" y2="1900.05" xlink:href="#linear-gradient"/><linearGradient id="linear-gradient-40" x1="3151.44" y1="843.22" x2="3151.44" y2="693.54" xlink:href="#linear-gradient"/><linearGradient id="linear-gradient-41" x1="3129.16" y1="2100.46" x2="3129.16" y2="1975.15" xlink:href="#linear-gradient"/><linearGradient id="linear-gradient-42" x1="3129.32" y1="768.26" x2="3129.32" y2="642.89" xlink:href="#linear-gradient"/><linearGradient id="linear-gradient-43" x1="3109.31" y1="695.71" x2="3109.31" y2="592.24" xlink:href="#linear-gradient"/><linearGradient id="linear-gradient-44" x1="3109.53" y1="2151.11" x2="3109.53" y2="2047.32" xlink:href="#linear-gradient"/><linearGradient id="linear-gradient-45" x1="3865.09" y1="1538.63" x2="3865.09" y2="1204.78" xlink:href="#linear-gradient"/><linearGradient id="linear-gradient-46" x1="3303.74" y1="1538.57" x2="3303.74" y2="1204.69" xlink:href="#linear-gradient"/><linearGradient id="linear-gradient-47" x1="3799.14" y1="1499.58" x2="3799.14" y2="1243.61" xlink:href="#linear-gradient"/><linearGradient id="linear-gradient-48" x1="3369.35" y1="1499.42" x2="3369.35" y2="1243.92" xlink:href="#linear-gradient"/><linearGradient id="linear-gradient-49" x1="3241.03" y1="975.65" x2="3241.03" y2="934.71" xlink:href="#linear-gradient"/><linearGradient id="linear-gradient-50" x1="3927.96" y1="975.66" x2="3927.96" y2="934.62" xlink:href="#linear-gradient"/><linearGradient id="linear-gradient-51" x1="3928.27" y1="1808.66" x2="3928.27" y2="1767.94" xlink:href="#linear-gradient"/><linearGradient id="linear-gradient-52" x1="3240.45" y1="1808.55" x2="3240.45" y2="1767.69" xlink:href="#linear-gradient"/><linearGradient id="linear-gradient-53" x1="3644.86" y1="1463.64" x2="3644.86" y2="1279.6" xlink:href="#linear-gradient"/><linearGradient id="linear-gradient-54" x1="3524.05" y1="1463.75" x2="3524.05" y2="1279.73" xlink:href="#linear-gradient"/><linearGradient id="linear-gradient-55" x1="3948.98" y1="1763.97" x2="3948.98" y2="1728.94" xlink:href="#linear-gradient"/><linearGradient id="linear-gradient-56" x1="3219.82" y1="1763.88" x2="3219.82" y2="1729.03" xlink:href="#linear-gradient"/><linearGradient id="linear-gradient-57" x1="3219.84" y1="1014.35" x2="3219.84" y2="979.44" xlink:href="#linear-gradient"/><linearGradient id="linear-gradient-58" x1="3948.96" y1="1014.33" x2="3948.96" y2="979.47" xlink:href="#linear-gradient"/><linearGradient id="linear-gradient-59" x1="3226.36" y1="1852.81" x2="3226.36" y2="1816.87" xlink:href="#linear-gradient"/><linearGradient id="linear-gradient-60" x1="3942.25" y1="1852.78" x2="3942.25" y2="1817.35" xlink:href="#linear-gradient"/><linearGradient id="linear-gradient-61" x1="3226.51" y1="925.96" x2="3226.51" y2="890.58" xlink:href="#linear-gradient"/><linearGradient id="linear-gradient-62" x1="3941.75" y1="926.38" x2="3941.75" y2="890.47" xlink:href="#linear-gradient"/><linearGradient id="linear-gradient-63" x1="3447.78" y1="1445.79" x2="3447.78" y2="1297.23" xlink:href="#linear-gradient"/><linearGradient id="linear-gradient-64" x1="3720.99" y1="1446.2" x2="3720.99" y2="1299.51" xlink:href="#linear-gradient"/><linearGradient id="linear-gradient-65" x1="3197.57" y1="874.12" x2="3197.57" y2="846.03" xlink:href="#linear-gradient"/><linearGradient id="linear-gradient-66" x1="3971.03" y1="874.24" x2="3971.03" y2="845.67" xlink:href="#linear-gradient"/><linearGradient id="linear-gradient-67" x1="3197.93" y1="1897.9" x2="3197.93" y2="1869.21" xlink:href="#linear-gradient"/><linearGradient id="linear-gradient-68" x1="3970.9" y1="1897.45" x2="3970.9" y2="1869.19" xlink:href="#linear-gradient"/><linearGradient id="linear-gradient-69" x1="3987.74" y1="1719.2" x2="3987.74" y2="1695.35" xlink:href="#linear-gradient"/><linearGradient id="linear-gradient-70" x1="3181.07" y1="1048.34" x2="3181.07" y2="1024.78" xlink:href="#linear-gradient"/><linearGradient id="linear-gradient-71" x1="3987.75" y1="1048.25" x2="3987.75" y2="1024.38" xlink:href="#linear-gradient"/><linearGradient id="linear-gradient-72" x1="3180.7" y1="1718.84" x2="3180.7" y2="1695.1" xlink:href="#linear-gradient"/><linearGradient id="linear-gradient-73" x1="3784.59" y1="1413.31" x2="3784.59" y2="1330.14" xlink:href="#linear-gradient"/><linearGradient id="linear-gradient-74" x1="3384.15" y1="1413.18" x2="3384.15" y2="1330.2" xlink:href="#linear-gradient"/><linearGradient id="linear-gradient-75" x1="726.38" y1="520.88" x2="874.25" y2="520.88" gradientUnits="userSpaceOnUse"><stop offset="0" stop-color="#faf292"/><stop offset=".16" stop-color="#eedf85"/><stop offset=".5" stop-color="#cfaf63"/><stop offset=".96" stop-color="#9d622d"/><stop offset="1" stop-color="#995c29"/></linearGradient><linearGradient id="linear-gradient-76" x1="833.87" y1="523.48" x2="946.42" y2="523.48" gradientTransform="matrix(1, 0, 0, 1, 0, 0)" xlink:href="#linear-gradient"/><linearGradient id="linear-gradient-77" x1="912.56" y1="523.73" x2="1031.61" y2="523.73" gradientTransform="matrix(1, 0, 0, 1, 0, 0)" xlink:href="#linear-gradient"/><linearGradient id="linear-gradient-78" x1="1011.18" y1="511.93" x2="1140.02" y2="511.93" gradientTransform="matrix(1, 0, 0, 1, 0, 0)" xlink:href="#linear-gradient"/><linearGradient id="linear-gradient-79" x1="406.86" y1="211.76" x2="460.45" y2="211.76" gradientUnits="userSpaceOnUse"><stop offset="0" stop-color="#faf292"/><stop offset=".41" stop-color="#f8f090"/><stop offset=".55" stop-color="#f4e98b"/><stop offset=".66" stop-color="#ecdd83"/><stop offset=".74" stop-color="#e1cc77"/><stop offset=".81" stop-color="#d3b668"/><stop offset=".88" stop-color="#c29b55"/><stop offset=".93" stop-color="#ad7b3f"/><stop offset=".98" stop-color="#995c29"/></linearGradient><linearGradient id="linear-gradient-80" x1="457.96" y1="212.39" x2="517.02" y2="212.39" gradientUnits="userSpaceOnUse"><stop offset="0" stop-color="#faf292"/><stop offset=".41" stop-color="#f8f090"/><stop offset=".56" stop-color="#f4e98b"/><stop offset=".67" stop-color="#ecdd83"/><stop offset=".76" stop-color="#e1cc77"/><stop offset=".83" stop-color="#d3b668"/><stop offset=".9" stop-color="#c29b55"/><stop offset=".95" stop-color="#ad7b3f"/><stop offset="1" stop-color="#995c29"/></linearGradient><linearGradient id="linear-gradient-81" x1="513.22" x2="561.3" xlink:href="#linear-gradient-79"/><linearGradient id="linear-gradient-82" x1="559.59" y1="212.38" x2="615.91" y2="212.38" xlink:href="#linear-gradient-79"/><linearGradient id="linear-gradient-83" x1="305.92" y1="355.9" x2="576.56" y2="355.9" gradientUnits="userSpaceOnUse"><stop offset="0" stop-color="#faf292"/><stop offset=".2" stop-color="#f7ee8f"/><stop offset=".36" stop-color="#f1e488"/><stop offset=".51" stop-color="#e6d37c"/><stop offset=".65" stop-color="#d6bb6b"/><stop offset=".79" stop-color="#c29c56"/><stop offset=".92" stop-color="#aa763b"/><stop offset="1" stop-color="#995c29"/></linearGradient><linearGradient id="linear-gradient-84" x1="543.09" y1="347.75" x2="634.92" y2="347.75" gradientUnits="userSpaceOnUse"><stop offset="0" stop-color="#faf292"/><stop offset=".19" stop-color="#f7ee8f"/><stop offset=".35" stop-color="#f1e488"/><stop offset=".5" stop-color="#e6d37c"/><stop offset=".64" stop-color="#d6bb6b"/><stop offset=".77" stop-color="#c29c56"/><stop offset=".9" stop-color="#aa763b"/><stop offset=".98" stop-color="#995c29"/></linearGradient><linearGradient id="linear-gradient-85" x1="630.71" y1="367.23" x2="811.17" y2="367.23" gradientUnits="userSpaceOnUse"><stop offset="0" stop-color="#faf292"/><stop offset=".2" stop-color="#f7ee8f"/><stop offset=".36" stop-color="#f1e488"/><stop offset=".51" stop-color="#e6d37c"/><stop offset=".65" stop-color="#d6bb6b"/><stop offset=".79" stop-color="#c29c56"/><stop offset=".92" stop-color="#aa763b"/><stop offset="1" stop-color="#995c29"/></linearGradient><linearGradient id="linear-gradient-86" x1="794.62" y1="367.24" x2="959.34" y2="367.24" xlink:href="#linear-gradient-84"/><linearGradient id="linear-gradient-87" x1="946.93" x2="1154.05" xlink:href="#linear-gradient-84"/></defs><rect class="cls-6" width="1440" height="810"/><g class="cls-21"><g class="cls-5"><g><path class="cls-2" d="M51.12,963.43c46.83-85.77,92.06-168.62,137.28-251.46-2.72-1.49-5.45-2.99-8.17-4.48-47.21,85.42-94.42,170.84-141.45,255.94h12.34Z"/><path class="cls-16" d="M-49.85,963.43c31.05-57.42,60.7-112.24,90.33-167.04-2.65-1.45-5.3-2.89-7.95-4.33-30.89,55.65-61.81,111.36-95.12,171.38h12.74Z"/><path class="cls-14" d="M.45,963.43c38.68-70.83,75.88-138.96,113.07-207.07-2.78-1.51-5.55-3.01-8.33-4.52-39.14,70.77-78.27,141.54-117,211.59H.45Z"/><path class="cls-15" d="M609.11,963.43h11.61c-59.77-134.1-119.13-267.27-178.49-400.44-2.94,1.31-5.88,2.62-8.82,3.93,58.38,131.74,116.76,263.49,175.7,396.5Z"/><path class="cls-19" d="M1482.83,963.43h19.62c-6.04-4.92-12.53-9.57-16.13-15.88-25.55-44.75-49.89-90.2-74.93-135.25-3.83-6.89-9.16-12.95-13.79-19.39l-5.45,4.18c29.9,54.85,59.81,109.71,90.69,166.34Z"/><path class="cls-17" d="M511.58,963.43h11.55c-53.12-119.5-105.59-237.56-158.07-355.62-2.95,1.31-5.89,2.62-8.84,3.93,51.47,116.52,102.94,233.05,155.35,351.7Z"/><path class="cls-18" d="M472.16,544.49c61.7,139.21,123.41,278.43,185.69,418.94h11.53c-63.07-141.64-125.68-282.24-188.29-422.84-2.98,1.3-5.95,2.6-8.93,3.9Z"/><path class="cls-12" d="M560.24,963.43h11.75c-56.26-126.27-112.09-251.58-167.92-376.89-2.93,1.31-5.85,2.62-8.78,3.93,54.84,124,109.69,248.01,164.95,372.96Z"/><path class="cls-13" d="M872.39,963.43c55.92-126.42,110.61-250.05,165.29-373.67-2.96-1.3-5.92-2.6-8.88-3.9-56.13,126.14-112.26,252.28-168.01,377.57h11.61Z"/><path class="cls-83" d="M510.93,522.26c65.05,146.67,130.1,293.35,195.66,441.17h19.48c66.03-148.9,130.72-294.77,195.41-440.64-3.01-1.31-6.02-2.62-9.03-3.93-64.55,145.02-129.11,290.05-196.16,440.69-67.45-151.61-131.89-296.44-196.32-441.26-3.01,1.32-6.03,2.64-9.04,3.97Z"/><path class="cls-84" d="M308.36,404.6C180.15,330.93,56.62,259.95-67.03,188.9v11.95c118.4,67.9,234.62,134.56,355.15,203.69-119.87,68.82-236.2,135.61-355.15,203.9v11.87c122.96-70.65,246.58-141.69,375.38-215.7Z"/><path class="cls-82" d="M219.25,404.62C121.14,348.19,26.88,293.97-67.03,239.96v12.03c88.49,50.72,175.05,100.34,266.13,152.55-90.72,52.08-177.36,101.82-266.13,152.78v11.97c92.08-52.96,186.7-107.39,286.28-164.67Z"/><path class="cls-81" d="M130.17,404.62C61.86,365.23-2.46,328.14-67.03,290.91v12.21c58.21,33.36,115.4,66.12,177.1,101.48-61.58,35.3-118.18,67.75-177.1,101.53v12.16c63.93-36.85,128.31-73.96,197.2-113.67Z"/><path class="cls-71" d="M397.34,404.62C240.21,314.38,86.72,226.24-67.03,137.93v11.85c148.07,84.94,293.97,168.64,444.16,254.79-149.84,85.99-295.81,169.76-444.16,254.9v11.8c152.06-87.31,305.87-175.64,464.36-266.65Z"/><path class="cls-77" d="M-67.03-3.25C170.59,132.93,405.5,267.55,644.59,404.57c-238.94,136.98-473.93,271.69-711.61,407.95v11.75c242.47-139.03,485.45-278.35,731.91-419.67C418.12,263.1,175,123.7-67.03-15.08V-3.25Z"/><path class="cls-79" d="M486.34,404.59C299.73,297.43,116.82,192.4-67.03,86.83v11.9C110.46,200.54,285.79,301.11,466.16,404.58c-180.42,103.52-355.52,203.99-533.19,305.93v11.9c182.68-104.92,366.03-210.23,553.37-317.83Z"/><path class="cls-80" d="M575.57,404.6C359.36,280.54,146.67,158.51-67.03,35.89v11.82c207.4,118.92,412.42,236.48,622.33,356.84-208.62,119.67-413.71,237.31-622.33,356.98v11.77c212.36-121.84,425.53-244.16,642.6-368.7Z"/><path class="cls-72" d="M774.78,963.43c62.95-142,124.32-280.41,185.68-418.81-2.98-1.31-5.96-2.61-8.94-3.92-63.02,141.55-126.03,283.09-188.19,422.73h11.45Z"/><path class="cls-78" d="M1432.18,963.43h12.34c-39.26-71-77.92-140.91-116.57-210.82l-8.25,4.68c37.16,68.1,74.34,136.22,112.49,206.14Z"/><path class="cls-74" d="M1381.71,963.43h12.31c-47.43-85.67-94.47-170.61-141.49-255.55-2.72,1.53-5.45,3.05-8.17,4.58,45.44,83.02,90.88,166.06,137.35,250.97Z"/><path class="cls-75" d="M921.12,963.43c52.59-119.1,104.03-235.62,155.48-352.13-2.96-1.3-5.91-2.6-8.87-3.91-52.92,119.16-105.85,238.31-158.13,356.03h11.53Z"/><path class="cls-73" d="M823.68,963.43c59.26-133.97,117.28-265.11,175.28-396.24-2.95-1.26-5.9-2.53-8.85-3.79-59.3,133.22-118.6,266.45-178.05,400.04h11.62Z"/><path class="cls-76" d="M1507.03-6.23c-123.67,70.36-247.43,140.58-370.99,211.13-105.71,60.36-211.21,121.08-316.77,181.7-8.58,4.93-16.91,10.28-30.02,18.27,23.57,13.66,42.61,24.8,61.75,35.77,213.61,122.51,427.23,245,640.88,367.44,4.85,2.78,10.09,4.9,15.14,7.33,0,3.75,0,7.5,0,11.26-94.53-53.58-189.18-106.93-283.55-160.78-142.44-81.28-284.69-162.87-426.97-244.43-7.79-4.46-15.07-9.81-24.93-16.28,6.79-5.39,10.61-9.29,15.16-11.9C1024.16,257.23,1261.64,121.29,1499.15-14.6c2.39-1.37,5.24-1.94,7.88-2.88V-6.23Z"/><path class="cls-86" d="M1507.03,44.42c-174.65,99.86-349.29,199.71-523.93,299.57-33.13,18.95-66.24,37.94-106.1,60.76,213.6,122.05,421.82,241.03,630.03,360.01v11.26c-120.29-68.49-240.63-136.9-360.86-205.5-85.32-48.68-170.5-97.59-255.7-146.48-9.4-5.39-18.52-11.28-32.45-19.81,45.51-26.23,86.46-49.91,127.48-73.44,169.58-97.3,339.17-194.57,508.8-291.78,4.04-2.31,8.48-3.91,12.73-5.85v11.26Z"/><path class="cls-94" d="M1507.03,95.07c-178.18,101.96-356.36,203.92-540.89,309.52,184.53,105.6,362.71,207.56,540.89,309.52v11.26c-165.11-94.36-330.23-188.71-495.32-283.12-19.99-11.43-39.81-23.15-65.54-38.12,190.66-108.89,375.76-214.6,560.86-320.32v11.26Z"/><path class="cls-87" d="M1507.03,145.72c-148.3,85.01-296.6,170.03-451.51,258.83,154.11,88.37,302.81,173.64,451.51,258.91v11.26c-155.22-88.77-310.43-177.54-472.25-270.09,161.02-92.12,316.64-181.15,472.25-270.17v11.26Z"/><path class="cls-85" d="M724.78-158.17c65.58,148.31,131.16,296.62,196.74,444.93-2.94,1.32-5.88,2.65-8.81,3.97C848.17,145.75,783.63,.78,716.36-150.33,649.37,.17,584.78,145.3,520.18,290.42c-2.93-1.29-5.87-2.58-8.8-3.86,65.51-148.24,131.01-296.49,196.52-444.73h16.88Z"/><path class="cls-95" d="M1507.03,196.37c-118.77,68.29-237.53,136.57-362.14,208.22,124.61,71.65,243.38,139.94,362.14,208.22v11.26c-125.47-71.9-250.94-143.81-382.92-219.44,131.21-75.22,257.07-147.37,382.92-219.51,0,3.75,0,7.5,0,11.26Z"/><path class="cls-96" d="M1507.03,247.02c-88.82,51.32-177.63,102.65-269.33,155.63,7.08,6.18,10.59,10.4,15.06,12.97,78.65,45.33,157.37,90.53,236.24,135.46,5.32,3.03,11.98,3.69,18.02,5.45,0,5.63,0,11.26,0,16.88-95.96-55.23-191.92-110.45-293.36-168.83,101.44-58.38,197.4-113.6,293.36-168.83v11.26Z"/><path class="cls-98" d="M775.43-158.17c29.65,68.51,59.1,137.1,89.01,205.5,28.84,65.93,58.2,131.64,87.17,197.51,2.99,6.79,4.92,14.05,1.18,23.39-2.49-4.44-5.35-8.72-7.41-13.36-59.27-133.2-118.48-266.42-177.58-399.7-1.85-4.17-2.45-8.88-3.63-13.34h11.26Z"/><path class="cls-100" d="M668.5-158.17c-26.94,62.52-53.51,125.19-80.9,187.51-32.74,74.47-66.15,148.65-99.35,222.92-2.44,5.46-5.57,10.62-8.38,15.93-2.15-.86-4.3-1.71-6.46-2.57,2.91-7.8,5.44-15.78,8.8-23.39,57.08-129.12,114.28-258.19,171.34-387.32,1.81-4.1,2.49-8.71,3.69-13.08h11.26Z"/><path class="cls-99" d="M1507.03,517.15c-18.92-9.2-38.35-17.5-56.67-27.78-47.57-26.69-94.66-54.25-147.77-84.81,53.15-30.56,100.24-58.09,147.81-84.76,18.31-10.26,37.72-18.56,56.63-27.75,0,3.75,0,7.5,0,11.26-26.24,13.54-52.81,26.48-78.64,40.77-33.34,18.45-66.09,37.98-103.87,59.8,16.94,10.39,29.7,18.93,43.1,26.29,46.35,25.47,92.92,50.53,139.41,75.74,0,3.75,0,7.5,0,11.26Z"/><path class="cls-97" d="M826.08-158.17c3.16,10.5,5.25,21.47,9.64,31.43,50.98,115.61,102.33,231.06,153.47,346.6,3.4,7.68,5.84,15.78,8.72,23.69-2.45,.91-4.9,1.82-7.35,2.72-16.99-37.88-34.07-75.71-50.96-113.64-38.83-87.2-77.67-174.39-116.16-261.73-4.04-9.17-5.8-19.36-8.61-29.07h11.26Z"/><path class="cls-91" d="M623.48-158.17c-56.21,125.53-112.41,251.06-168.66,376.58-4.09,9.13-8.48,18.12-12.73,27.17-2.96-1.3-5.92-2.6-8.88-3.9,59.67-133.28,119.35-266.56,179.02-399.85h11.26Z"/><path class="cls-89" d="M572.83-158.17c-56.2,127.23-112.41,254.46-168.61,381.69-3-1.31-6-2.62-9-3.94,55.45-125.92,110.91-251.84,166.36-377.76,3.75,0,7.5,0,11.26,0Z"/><path class="cls-93" d="M871.1-158.17c55.35,125.58,110.69,251.15,166.04,376.73-2.99,1.35-5.98,2.69-8.97,4.04-56.11-126.92-112.22-253.84-168.33-380.77h11.26Z"/><path class="cls-90" d="M921.75-158.17c9.79,24.19,18.98,48.64,29.48,72.51,38.44,87.38,77.35,174.54,115.96,261.84,3.19,7.21,5.4,14.85,3.12,24.6-3.25-4.78-7.31-9.19-9.62-14.38-49.02-110.31-97.87-220.69-146.62-331.12-1.85-4.19-2.42-8.96-3.58-13.45,3.75,0,7.5,0,11.26,0Z"/><path class="cls-88" d="M522.18-158.17c-30.75,71.2-61.33,142.48-92.3,213.59-21.18,48.63-42.92,97.03-64.4,145.53-2.48-.79-4.96-1.58-7.44-2.37,2.83-8.36,5.02-16.99,8.58-25.03,46.2-104.48,92.62-208.85,138.83-313.32,2.57-5.81,3.69-12.25,5.48-18.4h11.26Z"/><path class="cls-92" d="M49.46-158.17C95.63-73.2,141.8,11.77,187.97,96.74c-2.82,1.58-5.64,3.16-8.47,4.75C132.4,14.93,85.3-71.62,38.2-158.17h11.26Z"/><path class="cls-62" d="M1394.47-158.17c-47.03,86.55-94.06,173.09-141.08,259.64-2.86-1.55-5.73-3.1-8.59-4.66,46.14-85,92.28-169.99,138.42-254.99,3.75,0,7.5,0,11.26,0Z"/><path class="cls-61" d="M-1.19-158.17C36.83-88.06,74.85-17.94,112.87,52.17c-2.82,1.58-5.63,3.16-8.45,4.74C65.47-14.78,26.51-86.48-12.44-158.17H-1.19Z"/><path class="cls-64" d="M1445.12-158.17c-38.94,71.8-77.88,143.6-116.82,215.4-2.85-1.53-5.7-3.07-8.55-4.6,38.04-70.27,76.07-140.53,114.11-210.8h11.26Z"/><path class="cls-63" d="M1495.77-158.17c-31.72,58.46-63.44,116.92-95.17,175.38-2.77-1.49-5.53-2.98-8.3-4.47,30.74-56.97,61.47-113.94,92.21-170.91,3.75,0,7.5,0,11.26,0Z"/><path class="cls-67" d="M-51.84-158.17C-20.99-101.08,9.85-43.99,40.69,13.11c-2.75,1.52-5.49,3.03-8.24,4.55C.6-40.95-31.25-99.56-63.09-158.17h11.26Z"/><path class="cls-65" d="M716.32,875.38c-57.7-130.01-112.32-253.06-166.94-376.11,3.01-1.35,6.02-2.7,9.03-4.05,51.77,116.28,103.54,232.55,157.87,354.59,54.18-121.57,106.06-237.99,157.95-354.41,3,1.36,5.99,2.73,8.99,4.09-54.68,123.14-109.37,246.28-166.92,375.88Z"/><path class="cls-66" d="M549.45,309.71c54.66-123.11,109.32-246.21,166.85-375.79,57.39,129.18,112.21,252.57,167.03,375.96-3.02,1.36-6.04,2.73-9.07,4.09-51.75-116.24-103.51-232.48-157.87-354.58-54.19,121.57-106.07,237.98-157.96,354.39-2.99-1.36-5.99-2.72-8.98-4.07Z"/><path class="cls-69" d="M597.36,473.31c38.94,87.24,77.87,174.49,118.98,266.59,41.33-92.55,80.32-179.88,119.32-267.22,2.92,1.31,5.83,2.63,8.75,3.94-41.86,94.59-83.72,189.17-128.06,289.37-44.39-100.24-86.14-194.55-127.9-288.86,2.97-1.28,5.95-2.56,8.92-3.83Z"/><path class="cls-70" d="M716.31,69.31c-41.09,92.09-80.05,179.38-119,266.67-2.91-1.29-5.81-2.58-8.72-3.88,41.7-94.39,83.4-188.77,127.66-288.96,44.27,99.87,86.06,194.13,127.85,288.39-2.92,1.37-5.84,2.74-8.76,4.1-38.93-87.1-77.85-174.2-119.03-266.33Z"/><path class="cls-68" d="M1112.36,171.32c10.42-73.84,20.84-147.68,31.26-221.53,3.23,.47,6.46,.94,9.69,1.4-10.49,73.83-20.98,147.67-31.47,221.5-3.16-.46-6.32-.92-9.48-1.37Z"/><path class="cls-32" d="M1143.69,859.57c-10.44-73.8-20.89-147.6-31.33-221.4,3.15-.47,6.29-.94,9.44-1.4,10.53,73.79,21.07,147.58,31.6,221.37-3.24,.48-6.47,.96-9.71,1.44Z"/><path class="cls-30" d="M279.36,858.28c10.4-73.66,20.81-147.31,31.21-220.97,3.17,.45,6.34,.9,9.51,1.35-10.35,73.66-20.7,147.33-31.05,220.99-3.22-.46-6.45-.91-9.67-1.37Z"/><path class="cls-31" d="M310.42,171.6c-10.31-73.51-20.63-147.01-30.94-220.52,3.19-.45,6.37-.9,9.56-1.35,10.43,73.85,20.86,147.71,31.29,221.56-3.3,.1-6.6,.21-9.91,.31Z"/><path class="cls-28" d="M808.42,458.87c-61.28,16.48-122.63,16.56-184.05,0,61.35,0,122.7,0,184.05,0Z"/><path class="cls-29" d="M624.27,350.31c61.85-16.43,123-15.84,184.01,0h-184.01Z"/><path class="cls-26" d="M359.08,678.36c-8.49,60.88-16.97,121.75-25.46,182.63-3.19-.43-6.38-.85-9.57-1.28,8.43-60.78,16.87-121.56,25.3-182.34,3.24,.33,6.49,.66,9.73,.98Z"/><path class="cls-27" d="M349.29,131.71c-8.38-60.71-16.77-121.42-25.15-182.14,3.21-.41,6.41-.82,9.62-1.23,8.41,60.81,16.82,121.62,25.24,182.42-3.23,.31-6.46,.63-9.7,.94Z"/><path class="cls-24" d="M1073.67,130.79c8.43-60.81,16.86-121.62,25.28-182.42,3.21,.42,6.41,.84,9.62,1.26-8.4,60.7-16.8,121.41-25.2,182.11-3.23-.32-6.47-.63-9.7-.95Z"/><path class="cls-25" d="M1083.38,677.47c8.39,60.71,16.78,121.42,25.16,182.13-3.21,.41-6.41,.83-9.62,1.24-8.42-60.81-16.83-121.63-25.25-182.44,3.23-.31,6.47-.63,9.7-.94Z"/><path class="cls-23" d="M261.58,142.86c-8.79-63.73-17.58-127.47-26.37-191.2,3.07-.46,6.14-.91,9.2-1.37,8.91,63.83,17.82,127.66,26.73,191.5-3.19,.36-6.38,.71-9.57,1.07Z"/><path class="cls-50" d="M235.24,857.69c8.76-63.76,17.52-127.52,26.27-191.28,3.05,.4,6.1,.81,9.15,1.21-8.58,63.63-17.16,127.26-25.74,190.88-3.23-.27-6.45-.54-9.68-.82Z"/><path class="cls-52" d="M1197.44-48.69c-8.74,63.78-17.49,127.57-26.23,191.35-3.05-.4-6.09-.8-9.14-1.19,8.55-63.56,17.11-127.12,25.66-190.68,3.24,.18,6.48,.35,9.71,.53Z"/><path class="cls-51" d="M1187.88,858.4c-8.75-63.85-17.49-127.7-26.24-191.56,3.06-.44,6.12-.88,9.18-1.32,8.91,64.09,17.82,128.18,26.73,192.28-3.22,.2-6.45,.4-9.67,.6Z"/><path class="cls-47" d="M642.22,287.93c24.54-15.83,49.09-31.66,74.16-47.83,25.71,16.57,50.06,32.27,74.41,47.96-1.66,2.61-3.33,5.21-4.99,7.82-23.06-14.45-46.12-28.9-69.49-43.55-23.74,14.92-46.31,29.12-68.89,43.32-1.73-2.57-3.46-5.14-5.19-7.72Z"/><path class="cls-46" d="M788.51,520.9c-3.54,2.85-6.86,6.03-10.66,8.49-20.25,13.13-40.63,26.09-61.68,39.57-25.37-16.32-49.86-32.07-74.35-47.82,1.61-2.57,3.23-5.15,4.84-7.72,23.08,14.33,46.17,28.66,69.42,43.09,24-14.63,47.11-28.73,70.22-42.82,.74,2.4,1.48,4.8,2.22,7.2Z"/><path class="cls-49" d="M1213.9,83.19c6.2-43.78,12.4-87.55,18.6-131.33,3.16,.44,6.32,.87,9.48,1.31-6,43.51-12.01,87.02-18.01,130.53-3.36-.17-6.72-.34-10.07-.51Z"/><path class="cls-48" d="M1232.88,857.94c-6.37-43.98-12.74-87.95-19.1-131.93,3.23-.49,6.46-.98,9.68-1.47,6.3,43.98,12.59,87.96,18.89,131.94-3.15,.49-6.31,.97-9.46,1.46Z"/><path class="cls-44" d="M199.97-48.47c6.28,43.94,12.55,87.87,18.83,131.81-3.1,.47-6.21,.95-9.31,1.42-6.46-43.91-12.92-87.81-19.38-131.72,3.29-.5,6.57-1.01,9.86-1.51Z"/><path class="cls-43" d="M218.83,726.78c-6.28,43.56-12.55,87.13-18.83,130.69-3.14-.44-6.29-.87-9.43-1.31,6.1-43.81,12.2-87.61,18.31-131.42,3.32,.68,6.63,1.35,9.95,2.03Z"/><path class="cls-45" d="M368.82,861.46c4.97-36.05,9.95-72.1,14.92-108.15,2.98,.38,5.95,.77,8.93,1.15-4.82,36.04-9.63,72.08-14.45,108.12-3.13-.38-6.27-.75-9.4-1.13Z"/><path class="cls-39" d="M1039.68,54.7c4.93-35.94,9.86-71.88,14.79-107.82,2.92,.35,5.85,.7,8.77,1.06-4.64,35.91-9.28,71.82-13.92,107.73-3.22-.32-6.43-.65-9.65-.97Z"/><path class="cls-40" d="M1054.71,862.71c-4.98-36.09-9.97-72.18-14.95-108.27,3.06-.41,6.12-.82,9.18-1.23,4.89,36.1,9.79,72.2,14.68,108.31-2.97,.4-5.95,.8-8.92,1.2Z"/><path class="cls-41" d="M383.32,55.6c-4.71-36.09-9.42-72.18-14.14-108.28,2.92-.36,5.84-.73,8.75-1.09,4.99,36.17,9.99,72.34,14.98,108.51-3.2,.29-6.4,.57-9.6,.86Z"/><path class="cls-42" d="M678.76,587.36c12.48,7.04,24.97,14.08,37.73,21.28,12.87-7.36,25.25-14.44,37.63-21.51,1.25,1.97,2.51,3.94,3.76,5.91-13.45,9.54-26.9,19.08-41.48,29.42-14.99-10.31-28.34-19.5-41.69-28.68,1.35-2.14,2.71-4.28,4.06-6.42Z"/><path class="cls-36" d="M674.83,215.24c13.36-9.15,26.72-18.3,41.65-28.53,14.56,10.4,27.95,19.95,41.34,29.51-1.25,1.93-2.51,3.87-3.76,5.8-12.39-7.08-24.79-14.16-37.61-21.49-12.81,7.23-25.29,14.28-37.78,21.33-1.28-2.2-2.56-4.41-3.83-6.61Z"/></g></g></g><g><g><text class="cls-9" transform="translate(305.92 442.56)"><tspan class="cls-4" x="0" y="0">B</tspan><tspan class="cls-22" x="231.91" y="0">l</tspan><tspan class="cls-3" x="323.4" y="0">a</tspan><tspan class="cls-20" x="486.21" y="0">c</tspan><tspan class="cls-11" x="638.52" y="0">k</tspan></text><text class="cls-8" transform="translate(726.38 569.36)"><tspan x="0" y="0">Grad</tspan></text><g><g><path class="cls-7" d="M793.43,246.63c-32.75,4.74-34.45,6.72-34.25,39.81-4.74-32.75-6.72-34.45-39.81-34.25,32.75-4.74,34.45-6.72,34.25-39.81,4.74,32.75,6.72,34.45,39.81,34.25Z"/><path class="cls-7" d="M1056.05,771.15c-2.7,.34-5.47,.62-8.31,.83-31.02,2.31-68.59-3.16-111.65-16.26-88.49-26.93-190.33-83.04-286.78-158-96.44-74.96-175.96-159.8-223.89-238.91-23.33-38.5-37.9-73.55-43.32-104.19-5.62-31.82-1.08-57.47,13.52-76.24,22.32-28.72,66.36-38.64,127.37-28.69,59.48,9.7,130.75,37.41,206.08,80.14l-.61,1.07c-75.21-42.66-146.33-70.33-205.68-80-60.54-9.87-104.17-.1-126.2,28.23-14.37,18.49-18.84,43.82-13.28,75.28,5.39,30.49,19.91,65.4,43.16,103.76,47.86,78.98,127.26,163.7,223.59,238.57,198.71,154.44,408.32,218.39,467.26,142.56,26.57-34.18,18.89-92.74-21.62-164.89l1.07-.6c40.77,72.61,48.41,131.65,21.52,166.25-13.31,17.12-34.22,27.56-62.24,31.09Z"/></g><g><path class="cls-7" d="M459.32,659.48h-1.51c-4.8-69.59-8.45-73.24-78.04-78.04v-1.51c69.59-4.8,73.24-8.45,78.04-78.04h1.51c4.8,69.59,8.45,73.24,78.04,78.04v1.51c-69.59,4.8-73.24,8.45-78.04,78.04Zm-69.1-78.8c29.1,2.27,44.62,5.07,53.94,14.4,9.33,9.33,12.13,24.85,14.4,53.94,2.27-29.1,5.07-44.62,14.4-53.94,9.33-9.33,24.85-12.13,53.94-14.4-29.1-2.27-44.62-5.07-53.94-14.4-9.33-9.33-12.13-24.84-14.4-53.94-2.27,29.1-5.07,44.62-14.4,53.94-9.33,9.33-24.85,12.13-53.94,14.4Z"/><path class="cls-7" d="M813.42,295.13h-1.6c-7.88-114.15-13.86-120.13-128.01-128.01v-1.6c114.15-7.88,120.13-13.86,128.01-128.01h1.6c7.88,114.15,13.86,120.13,128.01,128.01v1.6c-114.15,7.88-120.13,13.86-128.01,128.01Zm-118.31-128.81c51.19,3.79,77.91,8.1,93.66,23.86,15.75,15.75,20.06,42.47,23.86,93.66,3.79-51.19,8.1-77.91,23.86-93.66,15.75-15.75,42.47-20.06,93.66-23.86-51.19-3.79-77.91-8.1-93.66-23.86-15.75-15.75-20.06-42.47-23.86-93.66-3.79,51.19-8.1,77.91-23.86,93.66-15.75,15.75-42.47,20.06-93.66,23.86Z"/><path class="cls-7" d="M696.69,687.87c-26.89,1.86-28.39,3.36-30.25,30.25-1.86-26.89-3.36-28.39-30.25-30.25,26.89-1.86,28.39-3.36,30.25-30.25,1.86,26.89,3.36,28.39,30.25,30.25Z"/></g></g><g><path class="cls-7" d="M438.48,192.98c-.06-5.26-4.7-7.76-9.2-7.95-4.32-.13-8.58,1.82-8.58,5.45s2.57,5.95,5.57,7.01c-1,5.45-5.07,8.01-9.08,8.01-4.44,0-8.89-3.19-8.83-9.01,.13-8.26,10.58-13.21,21.1-13.21s21.1,5.01,21.1,16.72c0,19.97-38.56,21.16-40.07,31.49,22.04,0,31.68-.31,37.69-6.64,.44,4.44,1.06,10.83,2.07,15.4h-43.38c0-27.48,31.68-26.61,31.61-47.27Z"/><path class="cls-7" d="M478.87,241.07c-33.73-5.9-23.89-63.15,9.86-57.38,33.74,5.84,23.88,63.22-9.86,57.38Zm-3.6-3.04c13.94,2.41,30.86-49.11,16.92-51.52-13.94-2.41-30.86,49.11-16.92,51.52Z"/><path class="cls-7" d="M544.83,192.98c-.06-5.26-4.7-7.76-9.2-7.95-4.32-.13-8.58,1.82-8.58,5.45s2.57,5.95,5.57,7.01c-1,5.45-5.07,8.01-9.08,8.01-4.44,0-8.89-3.19-8.83-9.01,.13-8.26,10.58-13.21,21.1-13.21s21.1,5.01,21.1,16.72c0,19.97-38.56,21.16-40.07,31.49,22.04,0,31.68-.31,37.69-6.64,.44,4.44,1.06,10.83,2.07,15.4h-43.38c0-27.48,31.68-26.61,31.61-47.27Z"/><path class="cls-7" d="M590.2,184.52h10.83v36h7.32v2.88h-7.32c0,9.7,1.63,12.83,4.76,16.84h-23.16c3.13-4.01,4.76-7.14,4.76-16.84h-26.48l-1.31-2.25,30.61-36.62Zm-2.82,36v-29.17l-24.42,29.17h24.42Z"/></g></g><g><g><path class="cls-37" d="M779.12,535.7c6.2,0,11.22-4.52,11.22-10.72,0-3.01-1.17-4.02-5.02-4.02-1.84,0-5.69,.67-6.87,.67-1,0-1.17-.84-1.17-1.34,0-.67,.5-1.34,1.51-1.34,8.54,0,23.44,1,35.33,1,10.72,0,26.29-.84,30.31-.84,.5,0,1,.33,1,1s-.33,1-1,1c-1,0-2.34-.17-3.18-.17-5.19,0-8.87,2.18-8.04,27.63,.67,20.09-14.73,31.81-59.1,31.81-30.81,0-38.34-4.69-38.34-13.06s10.72-12.06,33.65-14.57c23.94-2.68,24.61-2.85,24.61-19.42,0-1.67-1-2.18-2.01-2.18s-1.34,.5-2.01,2.34c-3.18,8.54-10.55,15.91-32.82,15.91s-30.81-10.88-30.81-29.47c0-37.67,21.43-58.6,70.99-58.6,27.96,0,43.2,9.88,43.2,28.3,0,15.57-12.22,25.12-31.48,25.12-14.57,0-23.44-6.19-23.44-20.09s10.55-22.94,26.29-22.94c11.05,0,13.56,4.02,17.92,4.02,1.51,0,2.18-.67,2.18-1.34,0-4.19-11.72-7.37-23.44-7.37-27.63,0-36.84,17.92-36.84,58.27,0,6.86,.84,10.38,7.37,10.38Zm-.5,35.83c0,3.52,.67,6.86,3.85,6.86,7.37,0,10.88-15.07,10.88-25.78,0-1.17-.33-2.01-1.51-2.01-5.86,0-13.23,8.71-13.23,20.93Z"/><path class="cls-38" d="M882.26,569.36c-5.53,0-25.79-7.2-40.02-7.2-3.35,0-6.2,1.51-6.2,5.02,0,.67,.17,1.34,.17,2.01,0,1-.5,1.34-1.17,1.34-1,0-1.17-.67-1.17-1.34,0-23.61,8.71-54.25,8.71-72.33,0-2.51-1-3.01-2.01-3.01-2.51,0-3.68,3.68-3.68,8.71,0,2.18,.17,3.85,.17,4.35,0,1-.67,1.51-1.17,1.51-.67,0-1.17-.33-1.17-1.67,0-21.77,9.21-29.64,25.45-29.64,12.06,0,19.09,4.86,19.09,17.75,0,11.22-2.68,25.79-2.68,30.81,0,2.01,.5,3.01,1.67,3.01s2.18-.84,2.68-6.87c2.34-31.31,9.88-45.37,23.27-45.37,7.87,0,13.56,5.19,13.56,21.93,0,23.11-3.85,42.86-16.07,42.86-9.38,0-12.22-9.04-14.23-15.57-.84-2.85-1.34-3.85-2.85-3.85-1.17,0-2.01,.84-2.01,3.35,0,23.11,2.01,39.01,2.01,42.19,0,1.34-1,2.01-2.34,2.01Z"/><path class="cls-33" d="M953.92,476.43c22.1,0,30.47,9.54,51.24,9.54,3.35,0,6.2-1.51,6.2-5.02,0-.67-.17-1.34-.17-2.01,0-1,.5-1.34,1.17-1.34,1,0,1.17,.67,1.17,1.34,0,15.4-7.54,54.58-7.54,72.83,0,2.34,.67,3.18,1.84,3.18,2.34,0,3.85-2.68,3.85-8.71,0-2.18-.17-3.85-.17-4.35,0-1,.33-1.51,1.17-1.51,.67,0,1.17,.33,1.17,1.67,0,21.26-9.04,28.97-25.12,28.97-13.23,0-20.93-4.86-20.93-17.75,0-10.55,2.01-17.25,2.01-21.26,0-1.67-1-2.18-2.01-2.18s-1.84,.5-2.01,2.34c-3.01,26.12-9.21,38.85-28.3,38.85s-24.95-11.05-24.95-31.48c0-41.69,14.57-63.12,41.36-63.12Zm12.06,2.85c-6.53,0-13.39,30.98-13.39,61.28,0,7.2,.84,9.88,4.69,9.88,3.52,0,5.02-5.19,6.53-15.74,2.01-14.73,6.2-43.2,6.2-48.56,0-4.19-1-6.87-4.02-6.87Z"/><path class="cls-34" d="M1069.95,467.56c-1.84,0-2.68,1.34-2.68,3.85v1.34c0,.84-.5,1.34-1.17,1.34s-1.17-.33-1.17-1.51c0-11.05,9.21-19.76,25.79-19.76,18.92,0,23.11,8.2,23.11,23.11,0,24.78-9.21,60.78-9.21,75.85,0,2.34,.67,3.18,1.84,3.18,2.34,0,3.85-2.68,3.85-8.71,0-2.18-.17-3.85-.17-4.35,0-1,.33-1.51,1.17-1.51,.67,0,1.17,.33,1.17,1.67,0,21.26-9.04,28.97-25.12,28.97-13.23,0-20.93-4.86-20.93-17.75,0-10.55,2.01-17.25,2.01-21.26,0-1.67-1-2.18-2.01-2.18s-1.84,.5-2.01,2.34c-3.01,26.12-9.21,38.85-28.3,38.85s-24.95-11.05-24.95-31.48c0-41.69,14.57-62.29,41.36-62.29,10.88,0,16.24,2.51,18.58,2.51,1,0,1.34-.5,1.51-1.51,.33-1.67,.33-4.69,.33-5.86,0-3.85-1.17-4.86-3.01-4.86Zm-5.36,12.56c-6.53,0-13.39,30.14-13.39,60.44,0,7.2,.84,9.88,4.69,9.88,3.52,0,5.02-5.19,6.53-15.74,2.01-14.73,6.2-43.2,6.2-48.56,0-4.19-1-6.03-4.02-6.03Z"/></g><g><g><path class="cls-10" d="M793.43,246.63c-32.75,4.74-34.45,6.72-34.25,39.81-4.74-32.75-6.72-34.45-39.81-34.25,32.75-4.74,34.45-6.72,34.25-39.81,4.74,32.75,6.72,34.45,39.81,34.25Z"/><path class="cls-10" d="M1056.05,771.15c-2.7,.34-5.47,.62-8.31,.83-31.02,2.31-68.59-3.16-111.65-16.26-88.49-26.93-190.33-83.04-286.78-158-96.44-74.96-175.96-159.8-223.89-238.91-23.33-38.5-37.9-73.55-43.32-104.19-5.62-31.82-1.08-57.47,13.52-76.24,22.32-28.72,66.36-38.64,127.37-28.69,59.48,9.7,130.75,37.41,206.08,80.14l-.61,1.07c-75.21-42.66-146.33-70.33-205.68-80-60.54-9.87-104.17-.1-126.2,28.23-14.37,18.49-18.84,43.82-13.28,75.28,5.39,30.49,19.91,65.4,43.16,103.76,47.86,78.98,127.26,163.7,223.59,238.57,198.71,154.44,408.32,218.39,467.26,142.56,26.57-34.18,18.89-92.74-21.62-164.89l1.07-.6c40.77,72.61,48.41,131.65,21.52,166.25-13.31,17.12-34.22,27.56-62.24,31.09Z"/></g><g><path class="cls-10" d="M459.32,659.48h-1.51c-4.8-69.59-8.45-73.24-78.04-78.04v-1.51c69.59-4.8,73.24-8.45,78.04-78.04h1.51c4.8,69.59,8.45,73.24,78.04,78.04v1.51c-69.59,4.8-73.24,8.45-78.04,78.04Zm-69.1-78.8c29.1,2.27,44.62,5.07,53.94,14.4,9.33,9.33,12.13,24.85,14.4,53.94,2.27-29.1,5.07-44.62,14.4-53.94,9.33-9.33,24.85-12.13,53.94-14.4-29.1-2.27-44.62-5.07-53.94-14.4-9.33-9.33-12.13-24.84-14.4-53.94-2.27,29.1-5.07,44.62-14.4,53.94-9.33,9.33-24.85,12.13-53.94,14.4Z"/><path class="cls-10" d="M813.42,295.13h-1.6c-7.88-114.15-13.86-120.13-128.01-128.01v-1.6c114.15-7.88,120.13-13.86,128.01-128.01h1.6c7.88,114.15,13.86,120.13,128.01,128.01v1.6c-114.15,7.88-120.13,13.86-128.01,128.01Zm-118.31-128.81c51.19,3.79,77.91,8.1,93.66,23.86,15.75,15.75,20.06,42.47,23.86,93.66,3.79-51.19,8.1-77.91,23.86-93.66,15.75-15.75,42.47-20.06,93.66-23.86-51.19-3.79-77.91-8.1-93.66-23.86-15.75-15.75-20.06-42.47-23.86-93.66-3.79,51.19-8.1,77.91-23.86,93.66-15.75,15.75-42.47,20.06-93.66,23.86Z"/><path class="cls-10" d="M696.69,687.87c-26.89,1.86-28.39,3.36-30.25,30.25-1.86-26.89-3.36-28.39-30.25-30.25,26.89-1.86,28.39-3.36,30.25-30.25,1.86,26.89,3.36,28.39,30.25,30.25Z"/></g></g><g><path class="cls-35" d="M438.48,192.98c-.06-5.26-4.7-7.76-9.2-7.95-4.32-.13-8.58,1.82-8.58,5.45s2.57,5.95,5.57,7.01c-1,5.45-5.07,8.01-9.08,8.01-4.44,0-8.89-3.19-8.83-9.01,.13-8.26,10.58-13.21,21.1-13.21s21.1,5.01,21.1,16.72c0,19.97-38.56,21.16-40.07,31.49,22.04,0,31.68-.31,37.69-6.64,.44,4.44,1.06,10.83,2.07,15.4h-43.38c0-27.48,31.68-26.61,31.61-47.27Z"/><path class="cls-54" d="M478.87,241.07c-33.73-5.9-23.89-63.15,9.86-57.38,33.74,5.84,23.88,63.22-9.86,57.38Zm-3.6-3.04c13.94,2.41,30.86-49.11,16.92-51.52-13.94-2.41-30.86,49.11-16.92,51.52Z"/><path class="cls-53" d="M544.83,192.98c-.06-5.26-4.7-7.76-9.2-7.95-4.32-.13-8.58,1.82-8.58,5.45s2.57,5.95,5.57,7.01c-1,5.45-5.07,8.01-9.08,8.01-4.44,0-8.89-3.19-8.83-9.01,.13-8.26,10.58-13.21,21.1-13.21s21.1,5.01,21.1,16.72c0,19.97-38.56,21.16-40.07,31.49,22.04,0,31.68-.31,37.69-6.64,.44,4.44,1.06,10.83,2.07,15.4h-43.38c0-27.48,31.68-26.61,31.61-47.27Z"/><path class="cls-60" d="M590.2,184.52h10.83v36h7.32v2.88h-7.32c0,9.7,1.63,12.83,4.76,16.84h-23.16c3.13-4.01,4.76-7.14,4.76-16.84h-26.48l-1.31-2.25,30.61-36.62Zm-2.82,36v-29.17l-24.42,29.17h24.42Z"/></g><g><path class="cls-59" d="M447.72,339.46c.55,6.36,5.25,8.57,9.12,8.57,6.36,0,17.41,3.32,17.41-45.06,0-25.43-3.87-33.72-22.11-33.72-59.98,0-85.41,54.18-85.41,85.13,0,7.74,.83,9.12,3.04,9.12,3.59,0,5.8-8.85,6.63-25.43,0-3.59-.28-6.36,0-7.46,0-1.38,.83-2.21,1.94-2.21s1.93,.55,1.93,2.49c-1.66,43.4-17.69,59.15-44.23,59.15-21.56,0-30.13-14.1-30.13-34.55,0-58.88,48.65-89,143.18-89,63.02,0,98.4,7.46,98.4,40.63,0,26.54-18.24,38.14-75.74,39.8-1.93,0-3.59,1.11-3.59,3.04,0,1.66,1.38,2.49,2.76,2.49,58.05,2.49,74.08,11.33,74.08,39.53,0,34.55-19.9,52.24-60.81,52.24-53.35,0-41.19-36.76-41.19-45.88,0-1.66-.55-2.49-1.66-2.49s-1.94,.83-2.21,2.21c-6.63,39.25-31.23,47.27-60.81,47.27-31.79,0-45.33-13.27-45.33-27.64,0-18.24,14.1-27.92,37.59-27.92,4.7,0,6.36-3.04,6.91-8.57,7.19-76.57,26.54-106.42,81.27-106.42,1.38,0,1.93,.55,1.93,1.38,0,1.11-.83,1.66-1.66,1.66-1.11,0-2.21-.28-3.59-.28-2.76,0-3.32,5.8-4.42,14.93-3.32,24.6-3.87,39.25-3.32,46.99Zm-76.01,53.62c-9.4,0-16.58,12.44-16.58,30.13,0,4.7,1.93,7.74,5.25,7.74,9.4,0,13.82-21.28,13.82-34,0-2.49-.55-3.87-2.49-3.87Zm82.65-41.46c-4.42,0-6.91,1.38-8.02,4.15-3.59,7.46-4.7,27.64-4.7,32.34,0,3.59,.83,4.98,2.76,6.08,4.98,2.49,9.95,3.32,15.48,3.32,7.19,0,12.16-7.19,12.72-22.39,.83-18.24-6.08-23.5-18.24-23.5Z"/><path class="cls-58" d="M614.96,418.79c3.87,0,5.53-4.98,5.53-14.37,0-3.59-.28-6.36-.28-7.46,0-1.38,.83-2.21,1.94-2.21s1.93,.55,1.93,2.49c0,35.38-15.76,48.1-43.12,48.1-31.23,0-37.87-14.65-37.87-41.46,0-42.84,15.76-93.98,15.76-121.34,0-4.7-1.66-5.8-3.87-5.8-4.15,0-5.8,4.98-5.8,14.37,0,3.59,.28,6.36,.28,7.46,0,1.38-.83,2.21-1.94,2.21s-1.93-.55-1.93-2.49c0-35.38,15.2-48.1,45.33-48.1,28.47,0,35.38,13.54,35.38,38.15,0,45.33-15.2,94.81-15.2,124.94,0,4.42,1.66,5.53,3.87,5.53Z"/><path class="cls-57" d="M698.98,289.15c36.49,0,50.31,15.76,84.58,15.76,5.53,0,10.23-2.49,10.23-8.29,0-1.11-.28-2.21-.28-3.32,0-1.66,.83-2.21,1.93-2.21,1.66,0,1.94,1.11,1.94,2.21,0,25.43-12.44,90.11-12.44,120.24,0,3.87,1.11,5.25,3.04,5.25,3.87,0,6.36-4.42,6.36-14.37,0-3.59-.28-6.36-.28-7.19,0-1.66,.55-2.49,1.93-2.49,1.11,0,1.94,.55,1.94,2.76,0,35.1-14.93,47.82-41.46,47.82-21.84,0-34.55-8.02-34.55-29.3,0-17.41,3.32-28.47,3.32-35.1,0-2.76-1.66-3.59-3.32-3.59s-3.04,.83-3.32,3.87c-4.98,43.12-15.2,64.13-46.71,64.13s-41.19-18.24-41.19-51.96c0-68.83,24.05-104.21,68.27-104.21Zm19.9,4.7c-10.78,0-22.11,51.14-22.11,101.17,0,11.89,1.38,16.31,7.74,16.31,5.8,0,8.29-8.57,10.78-25.98,3.32-24.32,10.23-71.31,10.23-80.16,0-6.91-1.66-11.33-6.63-11.33Z"/><path class="cls-56" d="M902.15,400.82c25.71,0,32.34-6.08,32.34-14.65,0-3.59-1.66-8.02-1.38-9.4,0-1.38,.55-2.76,2.21-2.76,1.94,0,2.49,1.66,2.49,4.15,0,40.36-18.24,68.55-67.72,68.55-45.05,0-75.46-18.52-75.46-68,0-57.77,25.71-90.94,86.79-90.94,47.82,0,61.36,16.03,61.36,48.92,0,22.11-11.89,42.84-38.15,42.84-22.94,0-31.51-12.99-31.51-30.41,0-21.28,10.5-36.76,27.36-44.23,7.46-3.32,9.67-5.8,9.67-8.57,0-2.49-1.93-4.7-11.06-4.7-20.45,0-39.53,21.28-39.53,66.06,0,34.55,14.93,43.12,42.57,43.12Z"/><path class="cls-55" d="M1035.38,375.67c-2.49,.28-3.04,1.66-3.04,2.76,0,1.66,1.11,2.49,3.04,2.49,12.44,0,26.54-7.74,48.1-7.74,12.99,0,22.39,6.91,22.39,18.24,0,7.46-2.76,16.31-2.76,21.84,0,4.42,1.38,5.53,3.87,5.53,3.59,0,5.25-4.98,5.25-14.37,0-3.59-.28-6.36-.28-7.46,0-1.38,.83-2.21,1.94-2.21s1.93,.55,1.93,2.49c0,35.38-15.2,48.1-41.74,48.1-30.96,0-37.32-9.95-37.32-24.88,0-10.23,3.32-19.62,3.32-27.09,0-6.91-3.87-10.23-10.78-10.23-5.25,0-6.36,3.59-6.63,7.46-1.93,18.52-3.59,35.38-3.59,48.65-.28,2.21-1.66,3.32-3.87,3.32-7.46,0-35.1-11.89-54.45-11.89-5.53,0-10.23,2.49-10.23,8.29,0,1.11,.28,2.21,.28,3.32,0,1.66-.83,2.21-1.93,2.21-1.66,0-1.94-.55-1.94-1.38,0-40.91,18.52-119.96,18.52-159.77,0-5.25-1.38-6.63-3.59-6.63-4.15,0-6.08,4.42-6.08,12.71,0,3.59,.28,6.36,.28,7.46,0,1.38-.83,2.21-1.93,2.21s-1.94-.55-1.94-2.49c0-34,15.2-46.44,41.74-46.44,30.13,0,36.49,13.82,36.21,37.32,0,20.45-13.82,54.45-13.82,67.17,0,2.76,1.66,3.59,3.32,3.59s3.04-.83,3.32-3.87c4.98-43.95,16.86-65.23,57.49-65.23,28.19,0,36.49,11.61,36.49,34-1.11,30.41-15.2,42.01-81.54,52.52Zm-10.23-9.12c0,6.91,.55,8.29,3.32,8.29,9.12,0,19.35-19.63,19.35-40.63,0-5.8-1.38-9.95-6.08-9.95-10.23,0-16.58,28.19-16.58,42.29Z"/></g></g></g></svg>