<?xml version="1.0" encoding="UTF-8"?><svg id="Layer_1" xmlns="http://www.w3.org/2000/svg" xmlns:xlink="http://www.w3.org/1999/xlink" viewBox="0 0 800 600"><defs><style>.cls-1{fill:none;}.cls-2{fill:url(#linear-gradient);}.cls-3{letter-spacing:-.04em;}.cls-4{font-size:203.82px;}.cls-4,.cls-5,.cls-6,.cls-7{fill:#53284f;}.cls-4,.cls-6,.cls-7{stroke:#53284f;}.cls-4,.cls-6,.cls-7,.cls-8{stroke-linejoin:round;}.cls-4,.cls-7{font-family:OhnoBlazeface-72PointItalic, 'Ohno Blazeface';font-style:italic;stroke-width:23px;}.cls-9{clip-path:url(#clippath);}.cls-6{stroke-width:14px;}.cls-7{font-size:123.46px;letter-spacing:-.04em;}.cls-10{fill:url(#linear-gradient-8);}.cls-11{fill:url(#linear-gradient-9);}.cls-12{fill:url(#linear-gradient-3);}.cls-13{fill:url(#linear-gradient-4);}.cls-14{fill:url(#linear-gradient-2);}.cls-15{fill:url(#linear-gradient-6);}.cls-16{fill:url(#linear-gradient-7);}.cls-17{fill:url(#linear-gradient-5);}.cls-18{letter-spacing:0em;}.cls-19{opacity:.64;}.cls-20{fill:url(#linear-gradient-59);}.cls-21{fill:url(#linear-gradient-57);}.cls-22{fill:url(#linear-gradient-58);}.cls-23{fill:url(#linear-gradient-55);}.cls-24{fill:url(#linear-gradient-56);}.cls-25{fill:url(#linear-gradient-53);}.cls-26{fill:url(#linear-gradient-54);}.cls-27{fill:url(#linear-gradient-51);}.cls-28{fill:url(#linear-gradient-52);}.cls-29{fill:url(#linear-gradient-50);}.cls-30{fill:url(#linear-gradient-77);}.cls-31{fill:url(#linear-gradient-78);}.cls-32{fill:url(#linear-gradient-79);}.cls-33{fill:url(#linear-gradient-74);}.cls-34{fill:url(#linear-gradient-75);}.cls-35{fill:url(#linear-gradient-76);}.cls-36{fill:url(#linear-gradient-70);}.cls-37{fill:url(#linear-gradient-71);}.cls-38{fill:url(#linear-gradient-72);}.cls-39{fill:url(#linear-gradient-73);}.cls-40{fill:url(#linear-gradient-68);}.cls-41{fill:url(#linear-gradient-67);}.cls-42{fill:url(#linear-gradient-69);}.cls-43{fill:url(#linear-gradient-64);}.cls-44{fill:url(#linear-gradient-63);}.cls-45{fill:url(#linear-gradient-66);}.cls-46{fill:url(#linear-gradient-65);}.cls-47{fill:url(#linear-gradient-60);}.cls-48{fill:url(#linear-gradient-62);}.cls-49{fill:url(#linear-gradient-61);}.cls-50{fill:url(#linear-gradient-91);}.cls-51{fill:url(#linear-gradient-90);}.cls-52{fill:url(#linear-gradient-81);}.cls-53{fill:url(#linear-gradient-80);}.cls-54{fill:url(#linear-gradient-88);}.cls-55{fill:url(#linear-gradient-89);}.cls-56{fill:url(#linear-gradient-87);}.cls-57{fill:url(#linear-gradient-86);}.cls-58{fill:url(#linear-gradient-85);}.cls-59{fill:url(#linear-gradient-84);}.cls-60{fill:url(#linear-gradient-83);}.cls-61{fill:url(#linear-gradient-82);}.cls-62{fill:url(#linear-gradient-41);}.cls-63{fill:url(#linear-gradient-40);}.cls-64{fill:url(#linear-gradient-43);}.cls-65{fill:url(#linear-gradient-42);}.cls-66{fill:url(#linear-gradient-45);}.cls-67{fill:url(#linear-gradient-46);}.cls-68{fill:url(#linear-gradient-44);}.cls-69{fill:url(#linear-gradient-49);}.cls-70{fill:url(#linear-gradient-47);}.cls-71{fill:url(#linear-gradient-48);}.cls-72{fill:url(#linear-gradient-14);}.cls-73{fill:url(#linear-gradient-18);}.cls-74{fill:url(#linear-gradient-22);}.cls-75{fill:url(#linear-gradient-20);}.cls-76{fill:url(#linear-gradient-21);}.cls-77{fill:url(#linear-gradient-23);}.cls-78{fill:url(#linear-gradient-15);}.cls-79{fill:url(#linear-gradient-19);}.cls-80{fill:url(#linear-gradient-16);}.cls-81{fill:url(#linear-gradient-17);}.cls-82{fill:url(#linear-gradient-13);}.cls-83{fill:url(#linear-gradient-12);}.cls-84{fill:url(#linear-gradient-10);}.cls-85{fill:url(#linear-gradient-11);}.cls-86{fill:url(#linear-gradient-27);}.cls-87{fill:url(#linear-gradient-24);}.cls-88{fill:url(#linear-gradient-26);}.cls-89{fill:url(#linear-gradient-38);}.cls-90{fill:url(#linear-gradient-35);}.cls-91{fill:url(#linear-gradient-37);}.cls-92{fill:url(#linear-gradient-34);}.cls-93{fill:url(#linear-gradient-39);}.cls-94{fill:url(#linear-gradient-36);}.cls-95{fill:url(#linear-gradient-25);}.cls-96{fill:url(#linear-gradient-28);}.cls-97{fill:url(#linear-gradient-29);}.cls-98{fill:url(#linear-gradient-33);}.cls-99{fill:url(#linear-gradient-30);}.cls-100{fill:url(#linear-gradient-32);}.cls-101{fill:url(#linear-gradient-31);}.cls-8{fill:#faf394;stroke:#faf394;}</style><clipPath id="clippath"><rect class="cls-1" width="800" height="600" transform="translate(800 600) rotate(180)"/></clipPath><linearGradient id="linear-gradient" x1="4530.26" y1="658.43" x2="4530.26" y2="-257.78" gradientTransform="translate(596.59 -3980.37) rotate(90)" gradientUnits="userSpaceOnUse"><stop offset="0" stop-color="#faf292"/><stop offset=".16" stop-color="#eedf85"/><stop offset=".49" stop-color="#cfaf63"/><stop offset=".94" stop-color="#9d622d"/><stop offset=".98" stop-color="#995c29"/></linearGradient><linearGradient id="linear-gradient-2" x1="4554.67" y1="658.43" x2="4554.67" y2="-257.78" xlink:href="#linear-gradient"/><linearGradient id="linear-gradient-3" x1="4543.06" y1="658.43" x2="4543.06" y2="-257.78" xlink:href="#linear-gradient"/><linearGradient id="linear-gradient-4" x1="4488.54" y1="658.43" x2="4488.54" y2="-257.78" xlink:href="#linear-gradient"/><linearGradient id="linear-gradient-5" x1="4554.91" y1="658.44" x2="4554.91" y2="-257.78" xlink:href="#linear-gradient"/><linearGradient id="linear-gradient-6" x1="4501.48" y1="658.43" x2="4501.48" y2="-257.78" xlink:href="#linear-gradient"/><linearGradient id="linear-gradient-7" x1="4482.08" y1="658.43" x2="4482.08" y2="-257.78" xlink:href="#linear-gradient"/><linearGradient id="linear-gradient-8" x1="4495.34" y1="658.43" x2="4495.34" y2="-257.78" xlink:href="#linear-gradient"/><linearGradient id="linear-gradient-9" x1="4495.14" y1="658.43" x2="4495.14" y2="-257.78" xlink:href="#linear-gradient"/><linearGradient id="linear-gradient-10" x1="4475.64" y1="658.43" x2="4475.64" y2="-257.78" xlink:href="#linear-gradient"/><linearGradient id="linear-gradient-11" x1="4281.51" y1="658.43" x2="4281.51" y2="-257.78" xlink:href="#linear-gradient"/><linearGradient id="linear-gradient-12" x1="4281.52" y1="658.43" x2="4281.52" y2="-257.78" xlink:href="#linear-gradient"/><linearGradient id="linear-gradient-13" x1="4281.51" y1="658.43" x2="4281.51" y2="-257.78" xlink:href="#linear-gradient"/><linearGradient id="linear-gradient-14" x1="4281.51" y1="658.43" x2="4281.51" y2="-257.78" xlink:href="#linear-gradient"/><linearGradient id="linear-gradient-15" x1="4281.51" y1="658.43" x2="4281.51" y2="-257.78" xlink:href="#linear-gradient"/><linearGradient id="linear-gradient-16" x1="4281.52" y1="658.43" x2="4281.52" y2="-257.78" xlink:href="#linear-gradient"/><linearGradient id="linear-gradient-17" x1="4281.51" y1="658.43" x2="4281.51" y2="-257.78" xlink:href="#linear-gradient"/><linearGradient id="linear-gradient-18" x1="4482.11" y1="658.43" x2="4482.11" y2="-257.78" xlink:href="#linear-gradient"/><linearGradient id="linear-gradient-19" x1="4543.28" y1="658.44" x2="4543.28" y2="-257.78" xlink:href="#linear-gradient"/><linearGradient id="linear-gradient-20" x1="4530.37" y1="658.43" x2="4530.37" y2="-257.78" xlink:href="#linear-gradient"/><linearGradient id="linear-gradient-21" x1="4501.36" y1="658.43" x2="4501.36" y2="-257.78" xlink:href="#linear-gradient"/><linearGradient id="linear-gradient-22" x1="4488.66" y1="658.43" x2="4488.66" y2="-257.78" xlink:href="#linear-gradient"/><linearGradient id="linear-gradient-23" x1="4281.51" y1="166.81" x2="4281.51" y2="-257.78" xlink:href="#linear-gradient"/><linearGradient id="linear-gradient-24" x1="4281.51" y1="116.91" x2="4281.51" y2="-257.78" xlink:href="#linear-gradient"/><linearGradient id="linear-gradient-25" x1="4281.51" y1="66.02" x2="4281.51" y2="-257.78" xlink:href="#linear-gradient"/><linearGradient id="linear-gradient-26" x1="4281.51" y1="14.86" x2="4281.51" y2="-257.78" xlink:href="#linear-gradient"/><linearGradient id="linear-gradient-27" x1="4086.19" y1="317.03" x2="4086.19" y2="80.24" xlink:href="#linear-gradient"/><linearGradient id="linear-gradient-28" x1="4281.51" y1="-36.71" x2="4281.51" y2="-257.78" xlink:href="#linear-gradient"/><linearGradient id="linear-gradient-29" x1="4281.51" y1="-88.42" x2="4281.51" y2="-257.78" xlink:href="#linear-gradient"/><linearGradient id="linear-gradient-30" x1="4079.69" y1="171.09" x2="4079.69" y2="61" xlink:href="#linear-gradient"/><linearGradient id="linear-gradient-31" x1="4079.68" y1="338.95" x2="4079.68" y2="226.32" xlink:href="#linear-gradient"/><linearGradient id="linear-gradient-32" x1="4281.51" y1="-139.75" x2="4281.51" y2="-257.78" xlink:href="#linear-gradient"/><linearGradient id="linear-gradient-33" x1="4073.35" y1="141.84" x2="4073.35" y2="36.15" xlink:href="#linear-gradient"/><linearGradient id="linear-gradient-34" x1="4073.15" y1="362.16" x2="4073.15" y2="252.31" xlink:href="#linear-gradient"/><linearGradient id="linear-gradient-35" x1="4066.79" y1="384.09" x2="4066.79" y2="281.55" xlink:href="#linear-gradient"/><linearGradient id="linear-gradient-36" x1="4066.52" y1="115.85" x2="4066.52" y2="13.5" xlink:href="#linear-gradient"/><linearGradient id="linear-gradient-37" x1="4060.22" y1="86.61" x2="4060.22" y2="-6.19" xlink:href="#linear-gradient"/><linearGradient id="linear-gradient-38" x1="4060.27" y1="405.55" x2="4060.27" y2="310.79" xlink:href="#linear-gradient"/><linearGradient id="linear-gradient-39" x1="4031.56" y1="590.2" x2="4031.56" y2="503.74" xlink:href="#linear-gradient"/><linearGradient id="linear-gradient-40" x1="4031.56" y1="-106.39" x2="4031.56" y2="-192.8" xlink:href="#linear-gradient"/><linearGradient id="linear-gradient-41" x1="4018.69" y1="619.44" x2="4018.69" y2="547.1" xlink:href="#linear-gradient"/><linearGradient id="linear-gradient-42" x1="4018.79" y1="-149.67" x2="4018.79" y2="-222.04" xlink:href="#linear-gradient"/><linearGradient id="linear-gradient-43" x1="4007.23" y1="-191.55" x2="4007.23" y2="-251.28" xlink:href="#linear-gradient"/><linearGradient id="linear-gradient-44" x1="4007.36" y1="648.69" x2="4007.36" y2="588.77" xlink:href="#linear-gradient"/><linearGradient id="linear-gradient-45" x1="4443.56" y1="295.09" x2="4443.56" y2="102.35" xlink:href="#linear-gradient"/><linearGradient id="linear-gradient-46" x1="4119.48" y1="295.05" x2="4119.48" y2="102.3" xlink:href="#linear-gradient"/><linearGradient id="linear-gradient-47" x1="4405.49" y1="272.55" x2="4405.49" y2="124.77" xlink:href="#linear-gradient"/><linearGradient id="linear-gradient-48" x1="4157.36" y1="272.45" x2="4157.36" y2="124.94" xlink:href="#linear-gradient"/><linearGradient id="linear-gradient-49" x1="4563.31" y1="539.88" x2="4563.31" y2="352.46" xlink:href="#linear-gradient"/><linearGradient id="linear-gradient-50" x1="4563.28" y1="45.12" x2="4563.28" y2="-142.47" xlink:href="#linear-gradient"/><linearGradient id="linear-gradient-51" x1="3999.77" y1="539.91" x2="3999.77" y2="352.52" xlink:href="#linear-gradient"/><linearGradient id="linear-gradient-52" x1="3999.68" y1="44.77" x2="3999.68" y2="-142.47" xlink:href="#linear-gradient"/><linearGradient id="linear-gradient-53" x1="4083.28" y1="-29.93" x2="4083.28" y2="-53.57" xlink:href="#linear-gradient"/><linearGradient id="linear-gradient-54" x1="4479.86" y1="-29.93" x2="4479.86" y2="-53.62" xlink:href="#linear-gradient"/><linearGradient id="linear-gradient-55" x1="4480.04" y1="450.98" x2="4480.04" y2="427.47" xlink:href="#linear-gradient"/><linearGradient id="linear-gradient-56" x1="4082.95" y1="450.92" x2="4082.95" y2="427.33" xlink:href="#linear-gradient"/><linearGradient id="linear-gradient-57" x1="4316.42" y1="251.79" x2="4316.42" y2="145.54" xlink:href="#linear-gradient"/><linearGradient id="linear-gradient-58" x1="4246.67" y1="251.86" x2="4246.67" y2="145.62" xlink:href="#linear-gradient"/><linearGradient id="linear-gradient-59" x1="4491.99" y1="425.18" x2="4491.99" y2="404.95" xlink:href="#linear-gradient"/><linearGradient id="linear-gradient-60" x1="4071.04" y1="425.13" x2="4071.04" y2="405.01" xlink:href="#linear-gradient"/><linearGradient id="linear-gradient-61" x1="4071.05" y1="-7.59" x2="4071.05" y2="-27.74" xlink:href="#linear-gradient"/><linearGradient id="linear-gradient-62" x1="4491.98" y1="-7.6" x2="4491.98" y2="-27.73" xlink:href="#linear-gradient"/><linearGradient id="linear-gradient-63" x1="4074.81" y1="476.47" x2="4074.81" y2="455.72" xlink:href="#linear-gradient"/><linearGradient id="linear-gradient-64" x1="4488.11" y1="476.45" x2="4488.11" y2="456" xlink:href="#linear-gradient"/><linearGradient id="linear-gradient-65" x1="4074.9" y1="-58.62" x2="4074.9" y2="-79.05" xlink:href="#linear-gradient"/><linearGradient id="linear-gradient-66" x1="4487.82" y1="-58.38" x2="4487.82" y2="-79.11" xlink:href="#linear-gradient"/><linearGradient id="linear-gradient-67" x1="4202.64" y1="241.49" x2="4202.64" y2="155.72" xlink:href="#linear-gradient"/><linearGradient id="linear-gradient-68" x1="4360.37" y1="241.72" x2="4360.37" y2="157.04" xlink:href="#linear-gradient"/><linearGradient id="linear-gradient-69" x1="4058.19" y1="-88.55" x2="4058.19" y2="-104.76" xlink:href="#linear-gradient"/><linearGradient id="linear-gradient-70" x1="4504.73" y1="-88.48" x2="4504.73" y2="-104.97" xlink:href="#linear-gradient"/><linearGradient id="linear-gradient-71" x1="4058.4" y1="502.5" x2="4058.4" y2="485.94" xlink:href="#linear-gradient"/><linearGradient id="linear-gradient-72" x1="4504.65" y1="502.24" x2="4504.65" y2="485.93" xlink:href="#linear-gradient"/><linearGradient id="linear-gradient-73" x1="4514.37" y1="399.33" x2="4514.37" y2="385.56" xlink:href="#linear-gradient"/><linearGradient id="linear-gradient-74" x1="4048.66" y1="12.03" x2="4048.66" y2="-1.57" xlink:href="#linear-gradient"/><linearGradient id="linear-gradient-75" x1="4514.38" y1="11.98" x2="4514.38" y2="-1.8" xlink:href="#linear-gradient"/><linearGradient id="linear-gradient-76" x1="4048.45" y1="399.12" x2="4048.45" y2="385.42" xlink:href="#linear-gradient"/><linearGradient id="linear-gradient-77" x1="4397.09" y1="222.74" x2="4397.09" y2="174.72" xlink:href="#linear-gradient"/><linearGradient id="linear-gradient-78" x1="4165.91" y1="222.66" x2="4165.91" y2="174.76" xlink:href="#linear-gradient"/><linearGradient id="linear-gradient-79" x1="404.7" y1="385.45" x2="513.74" y2="385.45" gradientUnits="userSpaceOnUse"><stop offset="0" stop-color="#faf292"/><stop offset=".16" stop-color="#eedf85"/><stop offset=".5" stop-color="#cfaf63"/><stop offset=".96" stop-color="#9d622d"/><stop offset="1" stop-color="#995c29"/></linearGradient><linearGradient id="linear-gradient-80" x1="483.97" y1="387.36" x2="566.96" y2="387.36" gradientTransform="matrix(1, 0, 0, 1, 0, 0)" xlink:href="#linear-gradient"/><linearGradient id="linear-gradient-81" x1="541.99" y1="387.55" x2="629.77" y2="387.55" gradientTransform="matrix(1, 0, 0, 1, 0, 0)" xlink:href="#linear-gradient"/><linearGradient id="linear-gradient-82" x1="614.71" y1="378.85" x2="709.72" y2="378.85" gradientTransform="matrix(1, 0, 0, 1, 0, 0)" xlink:href="#linear-gradient"/><linearGradient id="linear-gradient-83" x1="169.1" y1="157.51" x2="208.61" y2="157.51" gradientUnits="userSpaceOnUse"><stop offset="0" stop-color="#faf292"/><stop offset=".41" stop-color="#f8f090"/><stop offset=".55" stop-color="#f4e98b"/><stop offset=".66" stop-color="#ecdd83"/><stop offset=".74" stop-color="#e1cc77"/><stop offset=".81" stop-color="#d3b668"/><stop offset=".88" stop-color="#c29b55"/><stop offset=".93" stop-color="#ad7b3f"/><stop offset=".98" stop-color="#995c29"/></linearGradient><linearGradient id="linear-gradient-84" x1="206.78" y1="157.97" x2="250.32" y2="157.97" gradientUnits="userSpaceOnUse"><stop offset="0" stop-color="#faf292"/><stop offset=".41" stop-color="#f8f090"/><stop offset=".56" stop-color="#f4e98b"/><stop offset=".67" stop-color="#ecdd83"/><stop offset=".76" stop-color="#e1cc77"/><stop offset=".83" stop-color="#d3b668"/><stop offset=".9" stop-color="#c29b55"/><stop offset=".95" stop-color="#ad7b3f"/><stop offset="1" stop-color="#995c29"/></linearGradient><linearGradient id="linear-gradient-85" x1="247.52" x2="282.98" xlink:href="#linear-gradient-83"/><linearGradient id="linear-gradient-86" x1="281.72" y1="157.97" x2="323.25" y2="157.97" xlink:href="#linear-gradient-83"/><linearGradient id="linear-gradient-87" x1="94.67" y1="263.8" x2="294.23" y2="263.8" gradientUnits="userSpaceOnUse"><stop offset="0" stop-color="#faf292"/><stop offset=".2" stop-color="#f7ee8f"/><stop offset=".36" stop-color="#f1e488"/><stop offset=".51" stop-color="#e6d37c"/><stop offset=".65" stop-color="#d6bb6b"/><stop offset=".79" stop-color="#c29c56"/><stop offset=".92" stop-color="#aa763b"/><stop offset="1" stop-color="#995c29"/></linearGradient><linearGradient id="linear-gradient-88" x1="269.55" y1="257.78" x2="337.26" y2="257.78" gradientUnits="userSpaceOnUse"><stop offset="0" stop-color="#faf292"/><stop offset=".19" stop-color="#f7ee8f"/><stop offset=".35" stop-color="#f1e488"/><stop offset=".5" stop-color="#e6d37c"/><stop offset=".64" stop-color="#d6bb6b"/><stop offset=".77" stop-color="#c29c56"/><stop offset=".9" stop-color="#aa763b"/><stop offset=".98" stop-color="#995c29"/></linearGradient><linearGradient id="linear-gradient-89" x1="334.16" y1="272.15" x2="467.23" y2="272.15" gradientUnits="userSpaceOnUse"><stop offset="0" stop-color="#faf292"/><stop offset=".2" stop-color="#f7ee8f"/><stop offset=".36" stop-color="#f1e488"/><stop offset=".51" stop-color="#e6d37c"/><stop offset=".65" stop-color="#d6bb6b"/><stop offset=".79" stop-color="#c29c56"/><stop offset=".92" stop-color="#aa763b"/><stop offset="1" stop-color="#995c29"/></linearGradient><linearGradient id="linear-gradient-90" x1="455.03" y1="272.15" x2="576.48" y2="272.15" xlink:href="#linear-gradient-88"/><linearGradient id="linear-gradient-91" x1="567.33" x2="720.06" xlink:href="#linear-gradient-88"/></defs><rect class="cls-5" width="800" height="600"/><g class="cls-19"><g class="cls-9"><g><path class="cls-2" d="M13.84,623.76c27.03-49.52,53.15-97.35,79.26-145.17-1.57-.86-3.15-1.72-4.72-2.59-27.26,49.32-54.51,98.63-81.66,147.76h7.13Z"/><path class="cls-14" d="M-44.45,623.76c17.93-33.15,35.04-64.8,52.15-96.44-1.53-.83-3.06-1.67-4.59-2.5-17.83,32.13-35.68,64.29-54.92,98.94h7.35Z"/><path class="cls-12" d="M-15.41,623.76c22.33-40.89,43.81-80.23,65.28-119.55-1.6-.87-3.21-1.74-4.81-2.61C22.47,542.47-.12,583.32-22.49,623.76h7.08Z"/><path class="cls-13" d="M335.98,623.76h6.71c-34.51-77.42-68.78-154.3-103.05-231.18-1.7,.76-3.39,1.51-5.09,2.27,33.7,76.06,67.41,152.12,101.43,228.91Z"/><path class="cls-17" d="M840.4,623.76h11.33c-3.49-2.84-7.23-5.53-9.31-9.17-14.75-25.84-28.8-52.08-43.26-78.08-2.21-3.98-5.29-7.48-7.96-11.2l-3.15,2.41c17.26,31.66,34.53,63.34,52.35,96.03Z"/><path class="cls-15" d="M279.67,623.76h6.67c-30.67-68.99-60.96-137.15-91.26-205.31-1.7,.76-3.4,1.51-5.1,2.27,29.71,67.27,59.43,134.55,89.69,203.04Z"/><path class="cls-16" d="M256.92,381.9c35.62,80.37,71.25,160.75,107.2,241.86h6.66c-36.41-81.77-72.56-162.95-108.7-244.12-1.72,.75-3.44,1.5-5.16,2.25Z"/><path class="cls-10" d="M307.77,623.76h6.78c-32.48-72.9-64.71-145.24-96.95-217.58-1.69,.76-3.38,1.51-5.07,2.27,31.66,71.59,63.33,143.18,95.23,215.32Z"/><path class="cls-11" d="M487.98,623.76c32.28-72.99,63.85-144.36,95.42-215.73-1.71-.75-3.42-1.5-5.13-2.25-32.41,72.82-64.81,145.65-97,217.98h6.7Z"/><path class="cls-84" d="M279.3,369.07c37.55,84.68,75.11,169.36,112.96,254.7h11.24c38.12-85.96,75.47-170.18,112.81-254.39-1.74-.76-3.48-1.51-5.21-2.27-37.27,83.73-74.54,167.45-113.25,254.42-38.94-87.53-76.14-171.14-113.34-254.75-1.74,.76-3.48,1.53-5.22,2.29Z"/><path class="cls-85" d="M162.35,301.14C88.33,258.61,17.02,217.63-54.37,176.61v6.9c68.35,39.2,135.45,77.69,205.04,117.6-69.2,39.73-136.36,78.29-205.04,117.72v6.85c70.98-40.79,142.36-81.8,216.72-124.53Z"/><path class="cls-83" d="M110.91,301.15C54.26,268.57-.15,237.27-54.37,206.09v6.94c51.09,29.28,101.06,57.93,153.64,88.07-52.38,30.07-102.39,58.78-153.64,88.2v6.91c53.16-30.58,107.78-62,165.28-95.07Z"/><path class="cls-82" d="M59.48,301.15c-39.44-22.74-76.57-44.15-113.85-65.64v7.05c33.61,19.26,66.62,38.18,102.25,58.59-35.55,20.38-68.23,39.11-102.25,58.61v7.02c36.91-21.28,74.08-42.7,113.85-65.62Z"/><path class="cls-72" d="M213.72,301.15C123.01,249.05,34.4,198.16-54.37,147.19v6.84C31.11,203.06,115.35,251.38,202.06,301.12,115.55,350.76,31.28,399.13-54.37,448.28v6.81c87.79-50.41,176.59-101.4,268.09-153.94Z"/><path class="cls-78" d="M-54.37,65.68C82.81,144.3,218.43,222.02,356.46,301.12,218.52,380.2,82.85,457.97-54.37,536.64v6.78c139.98-80.27,280.26-160.7,422.55-242.28C225.72,219.45,85.36,138.97-54.37,58.85v6.83Z"/><path class="cls-80" d="M265.1,301.13C157.37,239.27,51.77,178.63-54.37,117.68v6.87c102.47,58.78,203.69,116.84,307.82,176.58-104.16,59.76-205.25,117.77-307.82,176.62v6.87c105.46-60.57,211.32-121.37,319.47-183.49Z"/><path class="cls-81" d="M316.62,301.14C191.79,229.52,69,159.06-54.37,88.27v6.82c119.73,68.65,238.1,136.52,359.29,206.01-120.44,69.09-238.84,137.01-359.29,206.09v6.8c122.6-70.34,245.67-140.96,370.99-212.86Z"/><path class="cls-73" d="M431.63,623.76c36.34-81.98,71.77-161.88,107.2-241.79-1.72-.75-3.44-1.51-5.16-2.26-36.38,81.72-72.76,163.44-108.65,244.05h6.61Z"/><path class="cls-79" d="M811.16,623.76h7.12c-22.66-40.99-44.98-81.35-67.3-121.71l-4.76,2.7c21.46,39.32,42.92,78.65,64.94,119.01Z"/><path class="cls-75" d="M782.02,623.76h7.11c-27.38-49.46-54.54-98.5-81.69-147.53-1.57,.88-3.15,1.76-4.72,2.64,26.23,47.93,52.47,95.87,79.3,144.89Z"/><path class="cls-76" d="M516.11,623.76c30.36-68.76,60.06-136.03,89.76-203.29-1.71-.75-3.41-1.5-5.12-2.25-30.55,68.79-61.11,137.58-91.29,205.54h6.66Z"/><path class="cls-74" d="M459.86,623.76c34.21-77.34,67.71-153.05,101.2-228.76-1.7-.73-3.41-1.46-5.11-2.19-34.23,76.91-68.47,153.83-102.79,230.95h6.71Z"/><path class="cls-77" d="M854.37,63.96c-71.4,40.62-142.84,81.16-214.18,121.89-61.03,34.85-121.93,69.9-182.88,104.9-4.95,2.84-9.76,5.93-17.33,10.55,13.61,7.89,24.6,14.31,35.65,20.65,123.32,70.73,246.65,141.45,369.99,212.13,2.8,1.61,5.82,2.83,8.74,4.23,0,2.17,0,4.33,0,6.5-54.57-30.93-109.22-61.74-163.7-92.82-82.23-46.92-164.36-94.03-246.5-141.11-4.5-2.58-8.7-5.66-14.39-9.4,3.92-3.11,6.12-5.36,8.75-6.87,137.07-78.54,274.17-157.02,411.29-235.48,1.38-.79,3.03-1.12,4.55-1.66v6.5Z"/><path class="cls-87" d="M854.37,93.2c-100.83,57.65-201.65,115.3-302.48,172.95-19.13,10.94-38.24,21.9-61.25,35.08,123.32,70.46,243.52,139.15,363.73,207.84,0,2.17,0,4.33,0,6.5-69.45-39.54-138.92-79.03-208.33-118.64-49.26-28.1-98.43-56.34-147.62-84.56-5.43-3.11-10.69-6.51-18.73-11.44,26.28-15.14,49.91-28.81,73.6-42.4,97.9-56.17,195.81-112.33,293.74-168.45,2.33-1.34,4.89-2.26,7.35-3.37,0,2.17,0,4.33,0,6.5Z"/><path class="cls-95" d="M854.37,122.44c-102.87,58.87-205.73,117.73-312.27,178.69,106.53,60.96,209.4,119.83,312.27,178.69,0,2.17,0,4.33,0,6.5-95.32-54.48-190.65-108.95-285.96-163.45-11.54-6.6-22.98-13.36-37.84-22.01,110.07-62.87,216.94-123.9,323.8-184.93v6.5Z"/><path class="cls-88" d="M854.37,151.68c-85.62,49.08-171.23,98.16-260.67,149.43,88.97,51.02,174.82,100.25,260.67,149.48v6.5c-89.61-51.25-179.22-102.5-272.64-155.93,92.96-53.18,182.8-104.58,272.64-155.98v6.5Z"/><path class="cls-86" d="M402.76-23.76c37.86,85.62,75.72,171.25,113.58,256.87-1.7,.76-3.39,1.53-5.09,2.29-37.26-83.7-74.52-167.4-113.36-254.64-38.67,86.89-75.97,170.67-113.26,254.46-1.69-.74-3.39-1.49-5.08-2.23,37.82-85.58,75.64-171.17,113.45-256.75h9.75Z"/><path class="cls-96" d="M854.37,180.92c-68.57,39.42-137.13,78.85-209.07,120.21,71.94,41.36,140.51,80.79,209.07,120.21,0,2.17,0,4.33,0,6.5-72.44-41.51-144.88-83.02-221.07-126.69,75.75-43.42,148.41-85.08,221.07-126.73v6.5Z"/><path class="cls-97" d="M854.37,210.16c-51.28,29.63-102.55,59.26-155.49,89.85,4.09,3.57,6.12,6,8.7,7.49,45.41,26.17,90.85,52.27,136.39,78.21,3.07,1.75,6.92,2.13,10.4,3.15,0,3.25,0,6.5,0,9.75-55.4-31.88-110.8-63.77-169.36-97.47,58.56-33.7,113.96-65.59,169.36-97.47v6.5Z"/><path class="cls-99" d="M432-23.76c17.12,39.55,34.12,79.15,51.39,118.64,16.65,38.07,33.6,76,50.33,114.03,1.73,3.92,2.84,8.11,.68,13.5-1.44-2.57-3.09-5.04-4.28-7.71-34.22-76.9-68.4-153.81-102.52-230.75-1.07-2.4-1.41-5.13-2.1-7.7h6.5Z"/><path class="cls-101" d="M370.27-23.76c-15.55,36.09-30.89,72.28-46.71,108.25-18.9,43-38.19,85.82-57.36,128.69-1.41,3.15-3.21,6.13-4.84,9.19-1.24-.49-2.49-.99-3.73-1.48,1.68-4.51,3.14-9.11,5.08-13.5,32.95-74.55,65.97-149.06,98.92-223.61,1.05-2.37,1.44-5.03,2.13-7.55,2.17,0,4.33,0,6.5,0Z"/><path class="cls-100" d="M854.37,366.11c-10.92-5.31-22.14-10.1-32.72-16.04-27.46-15.41-54.65-31.32-85.31-48.97,30.68-17.64,57.87-33.54,85.34-48.94,10.57-5.93,21.78-10.72,32.69-16.02,0,2.17,0,4.33,0,6.5-15.15,7.82-30.49,15.29-45.4,23.53-19.25,10.65-38.15,21.92-59.97,34.52,9.78,6,17.14,10.93,24.88,15.18,26.76,14.7,53.65,29.17,80.48,43.73,0,2.17,0,4.33,0,6.5Z"/><path class="cls-98" d="M461.24-23.76c1.82,6.06,3.03,12.4,5.56,18.15,29.43,66.75,59.08,133.39,88.6,200.1,1.96,4.43,3.37,9.11,5.03,13.68-1.41,.52-2.83,1.05-4.24,1.57-9.81-21.87-19.67-43.71-29.42-65.61-22.42-50.34-44.84-100.68-67.06-151.1-2.33-5.3-3.35-11.18-4.97-16.78h6.5Z"/><path class="cls-92" d="M344.28-23.76c-32.45,72.47-64.9,144.94-97.37,217.41-2.36,5.27-4.9,10.46-7.35,15.69-1.71-.75-3.42-1.5-5.13-2.25,34.45-76.95,68.9-153.89,103.35-230.84,2.17,0,4.33,0,6.5,0Z"/><path class="cls-90" d="M315.04-23.76c-32.45,73.45-64.9,146.91-97.34,220.36-1.73-.76-3.46-1.51-5.2-2.27,32.01-72.7,64.03-145.39,96.04-218.09,2.17,0,4.33,0,6.5,0Z"/><path class="cls-94" d="M487.23-23.76c31.95,72.5,63.9,144.99,95.86,217.49-1.73,.78-3.45,1.56-5.18,2.33-32.39-73.27-64.79-146.55-97.18-219.82h6.5Z"/><path class="cls-91" d="M516.47-23.76c5.65,13.96,10.96,28.08,17.02,41.86,22.19,50.44,44.66,100.77,66.95,151.17,1.84,4.16,3.12,8.57,1.8,14.2-1.87-2.76-4.22-5.31-5.55-8.3-28.3-63.68-56.5-127.41-84.65-191.16-1.07-2.42-1.39-5.17-2.07-7.77,2.17,0,4.33,0,6.5,0Z"/><path class="cls-89" d="M285.8-23.76c-17.75,41.11-35.41,82.26-53.29,123.31-12.23,28.08-24.78,56.02-37.18,84.02-1.43-.46-2.86-.91-4.29-1.37,1.63-4.82,2.9-9.81,4.95-14.45,26.67-60.32,53.47-120.57,80.15-180.89,1.48-3.35,2.13-7.07,3.17-10.62h6.5Z"/><path class="cls-93" d="M12.88-23.76C39.54,25.29,66.19,74.35,92.85,123.4c-1.63,.91-3.26,1.83-4.89,2.74C60.77,76.17,33.58,26.2,6.38-23.76h6.5Z"/><path class="cls-63" d="M789.39-23.76c-27.15,49.97-54.3,99.93-81.45,149.9-1.65-.9-3.31-1.79-4.96-2.69,26.64-49.07,53.28-98.14,79.91-147.21h6.5Z"/><path class="cls-62" d="M-16.36-23.76C5.59,16.72,27.54,57.19,49.49,97.67c-1.63,.91-3.25,1.82-4.88,2.74C22.12,59.02-.37,17.63-22.86-23.76h6.5Z"/><path class="cls-65" d="M818.63-23.76c-22.48,41.45-44.96,82.9-67.44,124.35-1.65-.89-3.29-1.77-4.94-2.66,21.96-40.57,43.92-81.13,65.88-121.7,2.17,0,4.33,0,6.5,0Z"/><path class="cls-64" d="M847.87-23.76c-18.31,33.75-36.63,67.5-54.94,101.25-1.6-.86-3.2-1.72-4.79-2.58,17.75-32.89,35.49-65.78,53.24-98.67h6.5Z"/><path class="cls-68" d="M-45.6-23.76C-27.79,9.2-9.99,42.16,7.82,75.12c-1.59,.88-3.17,1.75-4.76,2.63C-15.32,43.91-33.71,10.07-52.1-23.76h6.5Z"/><path class="cls-66" d="M397.88,572.93c-33.31-75.06-64.84-146.1-96.38-217.14,1.74-.78,3.48-1.56,5.22-2.34,29.89,67.13,59.77,134.26,91.14,204.72,31.28-70.18,61.23-137.4,91.19-204.61,1.73,.79,3.46,1.57,5.19,2.36-31.57,71.09-63.14,142.18-96.36,217.01Z"/><path class="cls-67" d="M301.54,246.36c31.56-71.07,63.11-142.14,96.33-216.95,33.13,74.58,64.78,145.81,96.43,217.05-1.74,.79-3.49,1.58-5.23,2.36-29.88-67.11-59.76-134.22-91.14-204.71-31.28,70.19-61.24,137.39-91.19,204.6-1.73-.78-3.46-1.57-5.19-2.35Z"/><path class="cls-70" d="M329.2,340.81c22.48,50.37,44.96,100.74,68.69,153.91,23.86-53.43,46.37-103.85,68.89-154.27,1.68,.76,3.37,1.52,5.05,2.28-24.17,54.61-48.33,109.21-73.93,167.06-25.62-57.87-49.73-112.32-73.84-166.76,1.72-.74,3.43-1.48,5.15-2.21Z"/><path class="cls-71" d="M397.87,107.57c-23.72,53.17-46.21,103.56-68.7,153.96-1.68-.75-3.36-1.49-5.03-2.24,24.07-54.49,48.15-108.98,73.7-166.82,25.56,57.66,49.68,112.08,73.81,166.5-1.69,.79-3.37,1.58-5.06,2.37-22.47-50.29-44.95-100.57-68.72-153.76Z"/><path class="cls-69" d="M244.13,588.6c-62.47-1.82-124.94-3.64-187.42-5.46,.05-1.96,.1-3.91,.16-5.87,62.33,1.82,124.66,3.64,186.99,5.46,.09,1.95,.18,3.91,.27,5.86Z"/><path class="cls-29" d="M739.06,583.15c-62.47,1.82-124.94,3.64-187.41,5.45-.06-1.91-.12-3.81-.18-5.72,62.47-1.89,124.94-3.78,187.4-5.67l.19,5.94Z"/><path class="cls-27" d="M56.68,19.06c62.4-1.79,124.8-3.58,187.2-5.37l.18,5.66c-62.38,1.92-124.77,3.83-187.15,5.75l-.23-6.05Z"/><path class="cls-28" d="M551.95,13.69c62.37,1.79,124.74,3.58,187.11,5.37-.04,1.95-.08,3.9-.12,5.85-62.37-1.79-124.75-3.59-187.12-5.38,.04-1.95,.08-3.9,.13-5.84Z"/><path class="cls-25" d="M626.52,166.46c6.01-42.63,12.03-85.26,18.04-127.89,1.86,.27,3.73,.54,5.59,.81-6.06,42.63-12.11,85.25-18.17,127.88-1.82-.26-3.65-.53-5.47-.79Z"/><path class="cls-26" d="M644.61,563.8c-6.03-42.61-12.06-85.21-18.09-127.82,1.82-.27,3.63-.54,5.45-.81,6.08,42.6,12.16,85.2,18.24,127.8-1.87,.28-3.74,.55-5.6,.83Z"/><path class="cls-23" d="M145.61,563.06c6.01-42.52,12.01-85.05,18.02-127.57,1.83,.26,3.66,.52,5.49,.78-5.98,42.53-11.95,85.06-17.93,127.58-1.86-.26-3.72-.53-5.58-.79Z"/><path class="cls-24" d="M163.54,166.62c-5.95-42.44-11.91-84.87-17.86-127.31,1.84-.26,3.68-.52,5.52-.78,6.02,42.64,12.04,85.27,18.07,127.91-1.91,.06-3.81,.12-5.72,.18Z"/><path class="cls-21" d="M451.05,332.47c-35.38,9.51-70.8,9.56-106.25,0,35.42,0,70.84,0,106.25,0Z"/><path class="cls-22" d="M344.73,269.8c35.71-9.49,71.01-9.15,106.24,0-35.41,0-70.82,0-106.24,0Z"/><path class="cls-20" d="M191.63,459.19c-4.9,35.14-9.8,70.29-14.7,105.43-1.84-.25-3.68-.49-5.53-.74,4.87-35.09,9.74-70.18,14.61-105.27,1.87,.19,3.74,.38,5.62,.57Z"/><path class="cls-47" d="M185.98,143.59c-4.84-35.05-9.68-70.1-14.52-105.15,1.85-.24,3.7-.47,5.55-.71,4.86,35.11,9.71,70.21,14.57,105.32-1.87,.18-3.73,.36-5.6,.54Z"/><path class="cls-49" d="M604.18,143.06c4.87-35.11,9.73-70.21,14.6-105.32,1.85,.24,3.7,.48,5.55,.73-4.85,35.05-9.7,70.09-14.55,105.14l-5.6-.55Z"/><path class="cls-48" d="M609.79,458.67c4.84,35.05,9.69,70.1,14.53,105.15-1.85,.24-3.7,.48-5.55,.72-4.86-35.11-9.72-70.22-14.57-105.33,1.87-.18,3.73-.36,5.6-.54Z"/><path class="cls-44" d="M135.34,150.03c-5.07-36.79-10.15-73.59-15.22-110.38,1.77-.26,3.54-.53,5.31-.79,5.14,36.85,10.29,73.7,15.43,110.55-1.84,.21-3.68,.41-5.52,.62Z"/><path class="cls-43" d="M120.14,562.71c5.06-36.81,10.11-73.62,15.17-110.43,1.76,.23,3.52,.47,5.28,.7-4.95,36.73-9.91,73.47-14.86,110.2l-5.59-.47Z"/><path class="cls-46" d="M675.63,39.44c-5.05,36.82-10.1,73.65-15.15,110.47-1.76-.23-3.52-.46-5.28-.69,4.94-36.7,9.88-73.39,14.81-110.09,1.87,.1,3.74,.2,5.61,.3Z"/><path class="cls-45" d="M670.11,563.12c-5.05-36.86-10.1-73.73-15.15-110.59,1.77-.25,3.53-.51,5.3-.76,5.14,37,10.29,74,15.43,111.01-1.86,.11-3.72,.23-5.58,.34Z"/><path class="cls-41" d="M355.1,233.78c14.17-9.14,28.34-18.28,42.81-27.61,14.84,9.57,28.9,18.63,42.96,27.69-.96,1.5-1.92,3.01-2.88,4.51-13.31-8.34-26.63-16.69-40.12-25.14-13.7,8.62-26.74,16.81-39.77,25.01-1-1.48-2-2.97-2.99-4.45Z"/><path class="cls-40" d="M439.55,368.28c-2.04,1.65-3.96,3.48-6.15,4.9-11.69,7.58-23.45,15.06-35.61,22.84-14.65-9.42-28.79-18.51-42.92-27.6,.93-1.49,1.86-2.97,2.79-4.46,13.33,8.27,26.65,16.55,40.08,24.88,13.85-8.45,27.2-16.58,40.54-24.72,.43,1.39,.85,2.77,1.28,4.16Z"/><path class="cls-42" d="M685.14,115.58c3.58-25.27,7.16-50.55,10.74-75.82,1.83,.25,3.65,.5,5.48,.75-3.47,25.12-6.93,50.24-10.4,75.36-1.94-.1-3.88-.2-5.82-.29Z"/><path class="cls-36" d="M696.1,562.86c-3.68-25.39-7.35-50.78-11.03-76.17,1.86-.28,3.73-.57,5.59-.85,3.63,25.39,7.27,50.78,10.9,76.17-1.82,.28-3.64,.56-5.46,.84Z"/><path class="cls-37" d="M99.78,39.57c3.62,25.36,7.25,50.73,10.87,76.09-1.79,.27-3.58,.55-5.37,.82-3.73-25.35-7.46-50.7-11.19-76.04,1.9-.29,3.79-.58,5.69-.87Z"/><path class="cls-38" d="M110.66,487.14c-3.62,25.15-7.25,50.3-10.87,75.45-1.81-.25-3.63-.5-5.44-.75,3.52-25.29,7.05-50.58,10.57-75.87,1.91,.39,3.83,.78,5.74,1.17Z"/><path class="cls-39" d="M197.26,564.89c2.87-20.81,5.74-41.62,8.61-62.44,1.72,.22,3.44,.44,5.16,.67-2.78,20.81-5.56,41.61-8.34,62.42-1.81-.22-3.62-.43-5.43-.65Z"/><path class="cls-33" d="M584.56,99.13c2.85-20.75,5.69-41.5,8.54-62.24,1.69,.2,3.37,.41,5.06,.61-2.68,20.73-5.36,41.46-8.03,62.2l-5.57-.56Z"/><path class="cls-34" d="M593.24,565.62c-2.88-20.84-5.75-41.67-8.63-62.51,1.77-.24,3.53-.48,5.3-.71,2.83,20.84,5.65,41.68,8.48,62.53-1.72,.23-3.43,.46-5.15,.69Z"/><path class="cls-35" d="M205.63,99.65c-2.72-20.84-5.44-41.67-8.16-62.51,1.68-.21,3.37-.42,5.05-.63,2.88,20.88,5.77,41.76,8.65,62.64l-5.54,.49Z"/><path class="cls-30" d="M376.19,406.65c7.21,4.07,14.41,8.13,21.78,12.29,7.43-4.25,14.58-8.34,21.72-12.42l2.17,3.41c-7.76,5.51-15.53,11.02-23.95,16.99-8.65-5.95-16.36-11.26-24.07-16.56,.78-1.24,1.56-2.47,2.34-3.71Z"/><path class="cls-31" d="M373.92,191.82c7.71-5.28,15.42-10.57,24.04-16.47,8.41,6,16.14,11.52,23.86,17.03-.72,1.12-1.45,2.23-2.17,3.35-7.16-4.09-14.31-8.18-21.71-12.41-7.39,4.17-14.6,8.24-21.81,12.31-.74-1.27-1.48-2.55-2.21-3.82Z"/></g></g></g><g><g><text class="cls-4" transform="translate(94.67 327.69)"><tspan class="cls-3" x="0" y="0">B</tspan><tspan x="171.01" y="0">l</tspan><tspan class="cls-3" x="238.47" y="0">a</tspan><tspan class="cls-18" x="358.53" y="0">c</tspan><tspan x="470.83" y="0">k</tspan></text><text class="cls-7" transform="translate(404.7 421.19)"><tspan x="0" y="0">Grad</tspan></text><g><g><path class="cls-6" d="M454.15,183.22c-24.15,3.5-25.4,4.96-25.26,29.36-3.5-24.15-4.96-25.4-29.36-25.26,24.15-3.5,25.4-4.96,25.26-29.36,3.5,24.15,4.96,25.4,29.36,25.26Z"/><path class="cls-6" d="M647.8,569.99c-1.99,.25-4.04,.45-6.13,.61-22.88,1.71-50.58-2.33-82.33-11.99-65.25-19.86-140.35-61.23-211.46-116.5-71.12-55.27-129.75-117.84-165.09-176.17-17.2-28.39-27.95-54.23-31.94-76.83-4.15-23.46-.79-42.38,9.97-56.22,16.46-21.17,48.93-28.49,93.92-21.16,43.86,7.15,96.41,27.59,151.96,59.1l-.45,.79c-55.46-31.46-107.9-51.86-151.66-58.99-44.64-7.28-76.82-.08-93.06,20.82-10.6,13.63-13.89,32.31-9.79,55.51,3.97,22.48,14.68,48.22,31.82,76.51,35.29,58.24,93.84,120.71,164.88,175.92,146.52,113.88,301.09,161.04,344.55,105.12,19.59-25.2,13.93-68.39-15.94-121.59l.79-.44c30.06,53.54,35.7,97.08,15.87,122.59-9.81,12.63-25.24,20.32-45.9,22.92Z"/></g><g><path class="cls-6" d="M207.78,487.65h-1.11c-3.54-51.32-6.23-54.01-57.55-57.55v-1.11c51.32-3.54,54.01-6.23,57.55-57.55h1.11c3.54,51.32,6.23,54.01,57.55,57.55v1.11c-51.32,3.54-54.01,6.23-57.55,57.55Zm-50.95-58.1c21.46,1.67,32.9,3.74,39.78,10.62,6.88,6.88,8.95,18.32,10.62,39.78,1.67-21.46,3.74-32.9,10.62-39.78,6.88-6.88,18.32-8.95,39.78-10.62-21.46-1.67-32.9-3.74-39.78-10.62-6.88-6.88-8.95-18.32-10.62-39.78-1.67,21.46-3.74,32.9-10.62,39.78-6.88,6.88-18.32,8.95-39.78,10.62Z"/><path class="cls-6" d="M468.88,218.99h-1.18c-5.81-84.17-10.22-88.58-94.4-94.4v-1.18c84.17-5.81,88.58-10.22,94.4-94.4h1.18c5.81,84.17,10.22,88.58,94.4,94.4v1.18c-84.17,5.81-88.58,10.22-94.4,94.4Zm-87.24-94.98c37.74,2.8,57.45,5.98,69.06,17.59,11.62,11.62,14.79,31.32,17.59,69.06,2.8-37.74,5.98-57.45,17.59-69.06,11.62-11.62,31.32-14.79,69.06-17.59-37.74-2.8-57.45-5.98-69.06-17.59-11.62-11.62-14.79-31.32-17.59-69.06-2.8,37.74-5.98,57.45-17.59,69.06-11.62,11.62-31.32,14.79-69.06,17.59Z"/><path class="cls-6" d="M382.81,508.58c-19.82,1.37-20.93,2.48-22.3,22.3-1.37-19.83-2.48-20.93-22.3-22.3,19.82-1.37,20.93-2.48,22.3-22.3,1.37,19.83,2.48,20.93,22.3,22.3Z"/></g></g><g><path class="cls-6" d="M192.41,143.66c-.05-3.88-3.46-5.72-6.79-5.86-3.19-.09-6.32,1.34-6.32,4.02s1.89,4.39,4.11,5.17c-.74,4.02-3.74,5.91-6.69,5.91-3.28,0-6.56-2.35-6.51-6.65,.09-6.09,7.8-9.74,15.56-9.74s15.56,3.69,15.56,12.33c0,14.73-28.44,15.6-29.54,23.22,16.25,0,23.36-.23,27.79-4.89,.32,3.28,.78,7.99,1.52,11.36h-31.99c0-20.27,23.36-19.62,23.31-34.85Z"/><path class="cls-6" d="M222.2,179.12c-24.87-4.35-17.62-46.57,7.27-42.31,24.88,4.3,17.61,46.61-7.27,42.31Zm-2.66-2.24c10.28,1.78,22.75-36.21,12.47-37.99-10.28-1.78-22.75,36.21-12.47,37.99Z"/><path class="cls-6" d="M270.83,143.66c-.05-3.88-3.46-5.72-6.79-5.86-3.19-.09-6.32,1.34-6.32,4.02s1.89,4.39,4.11,5.17c-.74,4.02-3.74,5.91-6.69,5.91-3.28,0-6.56-2.35-6.51-6.65,.09-6.09,7.8-9.74,15.56-9.74s15.56,3.69,15.56,12.33c0,14.73-28.44,15.6-29.54,23.22,16.25,0,23.36-.23,27.79-4.89,.32,3.28,.78,7.99,1.52,11.36h-31.99c0-20.27,23.36-19.62,23.31-34.85Z"/><path class="cls-6" d="M304.29,137.42h7.99v26.54h5.4v2.12h-5.4c0,7.16,1.2,9.46,3.51,12.42h-17.08c2.31-2.95,3.51-5.26,3.51-12.42h-19.53l-.97-1.66,22.57-27.01Zm-2.08,26.54v-21.51l-18,21.51h18Z"/></g></g><g><g><path class="cls-32" d="M443.59,396.38c4.57,0,8.27-3.33,8.27-7.9,0-2.22-.86-2.96-3.7-2.96-1.36,0-4.2,.49-5.06,.49-.74,0-.86-.62-.86-.99,0-.49,.37-.99,1.11-.99,6.3,0,17.29,.74,26.05,.74,7.9,0,19.38-.62,22.35-.62,.37,0,.74,.25,.74,.74s-.25,.74-.74,.74c-.74,0-1.73-.12-2.35-.12-3.83,0-6.54,1.61-5.93,20.37,.49,14.82-10.86,23.46-43.58,23.46-22.72,0-28.27-3.46-28.27-9.63s7.9-8.89,24.82-10.74c17.66-1.98,18.15-2.1,18.15-14.32,0-1.23-.74-1.61-1.48-1.61s-.99,.37-1.48,1.73c-2.35,6.3-7.78,11.73-24.2,11.73s-22.72-8.02-22.72-21.73c0-27.78,15.8-43.21,52.35-43.21,20.62,0,31.85,7.28,31.85,20.86,0,11.48-9.01,18.52-23.21,18.52-10.74,0-17.28-4.57-17.28-14.82s7.78-16.91,19.38-16.91c8.15,0,10,2.96,13.21,2.96,1.11,0,1.6-.49,1.6-.99,0-3.09-8.64-5.43-17.28-5.43-20.37,0-27.16,13.21-27.16,42.97,0,5.06,.62,7.65,5.43,7.65Zm-.37,26.42c0,2.59,.49,5.06,2.84,5.06,5.43,0,8.03-11.11,8.03-19.01,0-.86-.25-1.48-1.11-1.48-4.32,0-9.75,6.42-9.75,15.43Z"/><path class="cls-53" d="M519.65,421.19c-4.07,0-19.01-5.31-29.51-5.31-2.47,0-4.57,1.11-4.57,3.7,0,.49,.12,.99,.12,1.48,0,.74-.37,.99-.86,.99-.74,0-.86-.49-.86-.99,0-17.41,6.42-40,6.42-53.34,0-1.85-.74-2.22-1.48-2.22-1.85,0-2.72,2.72-2.72,6.42,0,1.61,.12,2.84,.12,3.21,0,.74-.49,1.11-.86,1.11-.49,0-.86-.25-.86-1.23,0-16.05,6.79-21.85,18.77-21.85,8.89,0,14.08,3.58,14.08,13.09,0,8.27-1.98,19.01-1.98,22.72,0,1.48,.37,2.22,1.23,2.22s1.61-.62,1.98-5.06c1.73-23.09,7.28-33.46,17.16-33.46,5.8,0,10,3.83,10,16.17,0,17.04-2.84,31.61-11.85,31.61-6.91,0-9.01-6.67-10.49-11.48-.62-2.1-.99-2.84-2.1-2.84-.86,0-1.48,.62-1.48,2.47,0,17.04,1.48,28.77,1.48,31.11,0,.99-.74,1.48-1.73,1.48Z"/><path class="cls-52" d="M572.49,352.67c16.3,0,22.47,7.04,37.78,7.04,2.47,0,4.57-1.11,4.57-3.7,0-.49-.12-.99-.12-1.48,0-.74,.37-.99,.86-.99,.74,0,.86,.49,.86,.99,0,11.36-5.56,40.25-5.56,53.71,0,1.73,.49,2.35,1.36,2.35,1.73,0,2.84-1.98,2.84-6.42,0-1.6-.12-2.84-.12-3.21,0-.74,.25-1.11,.86-1.11,.49,0,.86,.25,.86,1.23,0,15.68-6.67,21.36-18.52,21.36-9.75,0-15.43-3.58-15.43-13.09,0-7.78,1.48-12.72,1.48-15.68,0-1.23-.74-1.61-1.48-1.61s-1.36,.37-1.48,1.73c-2.22,19.26-6.79,28.64-20.86,28.64s-18.4-8.15-18.4-23.21c0-30.74,10.74-46.55,30.5-46.55Zm8.89,2.1c-4.82,0-9.88,22.84-9.88,45.19,0,5.31,.62,7.28,3.46,7.28,2.59,0,3.7-3.83,4.82-11.61,1.48-10.86,4.57-31.85,4.57-35.8,0-3.09-.74-5.06-2.96-5.06Z"/><path class="cls-61" d="M658.05,346.13c-1.36,0-1.98,.99-1.98,2.84v.99c0,.62-.37,.99-.86,.99s-.86-.25-.86-1.11c0-8.15,6.79-14.57,19.01-14.57,13.95,0,17.04,6.05,17.04,17.04,0,18.27-6.79,44.82-6.79,55.93,0,1.73,.49,2.35,1.36,2.35,1.73,0,2.84-1.98,2.84-6.42,0-1.6-.12-2.84-.12-3.21,0-.74,.25-1.11,.86-1.11,.49,0,.86,.25,.86,1.23,0,15.68-6.67,21.36-18.52,21.36-9.75,0-15.43-3.58-15.43-13.09,0-7.78,1.48-12.72,1.48-15.68,0-1.23-.74-1.61-1.48-1.61s-1.36,.37-1.48,1.73c-2.22,19.26-6.79,28.64-20.86,28.64s-18.4-8.15-18.4-23.21c0-30.74,10.74-45.93,30.5-45.93,8.03,0,11.98,1.85,13.7,1.85,.74,0,.99-.37,1.11-1.11,.25-1.23,.25-3.46,.25-4.32,0-2.84-.86-3.58-2.22-3.58Zm-3.95,9.26c-4.82,0-9.88,22.22-9.88,44.57,0,5.31,.62,7.28,3.46,7.28,2.59,0,3.7-3.83,4.82-11.61,1.48-10.86,4.57-31.85,4.57-35.8,0-3.09-.74-4.45-2.96-4.45Z"/></g><g><g><path class="cls-8" d="M454.15,183.22c-24.15,3.5-25.4,4.96-25.26,29.36-3.5-24.15-4.96-25.4-29.36-25.26,24.15-3.5,25.4-4.96,25.26-29.36,3.5,24.15,4.96,25.4,29.36,25.26Z"/><path class="cls-8" d="M647.8,569.99c-1.99,.25-4.04,.45-6.13,.61-22.88,1.71-50.58-2.33-82.33-11.99-65.25-19.86-140.35-61.23-211.46-116.5-71.12-55.27-129.75-117.84-165.09-176.17-17.2-28.39-27.95-54.23-31.94-76.83-4.15-23.46-.79-42.38,9.97-56.22,16.46-21.17,48.93-28.49,93.92-21.16,43.86,7.15,96.41,27.59,151.96,59.1l-.45,.79c-55.46-31.46-107.9-51.86-151.66-58.99-44.64-7.28-76.82-.08-93.06,20.82-10.6,13.63-13.89,32.31-9.79,55.51,3.97,22.48,14.68,48.22,31.82,76.51,35.29,58.24,93.84,120.71,164.88,175.92,146.52,113.88,301.09,161.04,344.55,105.12,19.59-25.2,13.93-68.39-15.94-121.59l.79-.44c30.06,53.54,35.7,97.08,15.87,122.59-9.81,12.63-25.24,20.32-45.9,22.92Z"/></g><g><path class="cls-8" d="M207.78,487.65h-1.11c-3.54-51.32-6.23-54.01-57.55-57.55v-1.11c51.32-3.54,54.01-6.23,57.55-57.55h1.11c3.54,51.32,6.23,54.01,57.55,57.55v1.11c-51.32,3.54-54.01,6.23-57.55,57.55Zm-50.95-58.1c21.46,1.67,32.9,3.74,39.78,10.62,6.88,6.88,8.95,18.32,10.62,39.78,1.67-21.46,3.74-32.9,10.62-39.78,6.88-6.88,18.32-8.95,39.78-10.62-21.46-1.67-32.9-3.74-39.78-10.62-6.88-6.88-8.95-18.32-10.62-39.78-1.67,21.46-3.74,32.9-10.62,39.78-6.88,6.88-18.32,8.95-39.78,10.62Z"/><path class="cls-8" d="M468.88,218.99h-1.18c-5.81-84.17-10.22-88.58-94.4-94.4v-1.18c84.17-5.81,88.58-10.22,94.4-94.4h1.18c5.81,84.17,10.22,88.58,94.4,94.4v1.18c-84.17,5.81-88.58,10.22-94.4,94.4Zm-87.24-94.98c37.74,2.8,57.45,5.98,69.06,17.59,11.62,11.62,14.79,31.32,17.59,69.06,2.8-37.74,5.98-57.45,17.59-69.06,11.62-11.62,31.32-14.79,69.06-17.59-37.74-2.8-57.45-5.98-69.06-17.59-11.62-11.62-14.79-31.32-17.59-69.06-2.8,37.74-5.98,57.45-17.59,69.06-11.62,11.62-31.32,14.79-69.06,17.59Z"/><path class="cls-8" d="M382.81,508.58c-19.82,1.37-20.93,2.48-22.3,22.3-1.37-19.83-2.48-20.93-22.3-22.3,19.82-1.37,20.93-2.48,22.3-22.3,1.37,19.83,2.48,20.93,22.3,22.3Z"/></g></g><g><path class="cls-60" d="M192.41,143.66c-.05-3.88-3.46-5.72-6.79-5.86-3.19-.09-6.32,1.34-6.32,4.02s1.89,4.39,4.11,5.17c-.74,4.02-3.74,5.91-6.69,5.91-3.28,0-6.56-2.35-6.51-6.65,.09-6.09,7.8-9.74,15.56-9.74s15.56,3.69,15.56,12.33c0,14.73-28.44,15.6-29.54,23.22,16.25,0,23.36-.23,27.79-4.89,.32,3.28,.78,7.99,1.52,11.36h-31.99c0-20.27,23.36-19.62,23.31-34.85Z"/><path class="cls-59" d="M222.2,179.12c-24.87-4.35-17.62-46.57,7.27-42.31,24.88,4.3,17.61,46.61-7.27,42.31Zm-2.66-2.24c10.28,1.78,22.75-36.21,12.47-37.99-10.28-1.78-22.75,36.21-12.47,37.99Z"/><path class="cls-58" d="M270.83,143.66c-.05-3.88-3.46-5.72-6.79-5.86-3.19-.09-6.32,1.34-6.32,4.02s1.89,4.39,4.11,5.17c-.74,4.02-3.74,5.91-6.69,5.91-3.28,0-6.56-2.35-6.51-6.65,.09-6.09,7.8-9.74,15.56-9.74s15.56,3.69,15.56,12.33c0,14.73-28.44,15.6-29.54,23.22,16.25,0,23.36-.23,27.79-4.89,.32,3.28,.78,7.99,1.52,11.36h-31.99c0-20.27,23.36-19.62,23.31-34.85Z"/><path class="cls-57" d="M304.29,137.42h7.99v26.54h5.4v2.12h-5.4c0,7.16,1.2,9.46,3.51,12.42h-17.08c2.31-2.95,3.51-5.26,3.51-12.42h-19.53l-.97-1.66,22.57-27.01Zm-2.08,26.54v-21.51l-18,21.51h18Z"/></g><g><path class="cls-56" d="M199.23,251.67c.41,4.69,3.87,6.32,6.73,6.32,4.69,0,12.84,2.45,12.84-33.22,0-18.75-2.85-24.87-16.31-24.87-44.23,0-62.98,39.95-62.98,62.78,0,5.71,.61,6.73,2.24,6.73,2.65,0,4.28-6.52,4.89-18.75,0-2.65-.2-4.69,0-5.5,0-1.02,.61-1.63,1.43-1.63s1.43,.41,1.43,1.83c-1.22,32-13.04,43.62-32.61,43.62-15.9,0-22.22-10.39-22.22-25.48,0-43.41,35.87-65.63,105.58-65.63,46.47,0,72.56,5.5,72.56,29.96,0,19.57-13.45,28.13-55.85,29.35-1.43,0-2.65,.82-2.65,2.24,0,1.22,1.02,1.83,2.04,1.83,42.8,1.83,54.62,8.36,54.62,29.15,0,25.48-14.68,38.52-44.84,38.52-39.34,0-30.37-27.11-30.37-33.83,0-1.22-.41-1.83-1.22-1.83s-1.43,.61-1.63,1.63c-4.89,28.94-23.03,34.85-44.84,34.85-23.44,0-33.43-9.78-33.43-20.38,0-13.45,10.4-20.59,27.72-20.59,3.47,0,4.69-2.24,5.1-6.32,5.3-56.46,19.57-78.47,59.92-78.47,1.02,0,1.43,.41,1.43,1.02,0,.82-.61,1.22-1.22,1.22-.82,0-1.63-.2-2.65-.2-2.04,0-2.45,4.28-3.26,11.01-2.45,18.14-2.85,28.94-2.45,34.65Zm-56.05,39.54c-6.93,0-12.23,9.17-12.23,22.22,0,3.47,1.43,5.71,3.87,5.71,6.93,0,10.19-15.69,10.19-25.07,0-1.83-.41-2.85-1.83-2.85Zm60.94-30.57c-3.26,0-5.1,1.02-5.91,3.06-2.65,5.5-3.47,20.38-3.47,23.85,0,2.65,.61,3.67,2.04,4.48,3.67,1.83,7.34,2.45,11.41,2.45,5.3,0,8.97-5.3,9.38-16.51,.61-13.45-4.48-17.32-13.45-17.32Z"/><path class="cls-54" d="M322.54,310.17c2.85,0,4.08-3.67,4.08-10.6,0-2.65-.2-4.69-.2-5.5,0-1.02,.61-1.63,1.43-1.63s1.43,.41,1.43,1.83c0,26.09-11.62,35.47-31.8,35.47-23.03,0-27.92-10.8-27.92-30.57,0-31.59,11.62-69.3,11.62-89.48,0-3.47-1.22-4.28-2.85-4.28-3.06,0-4.28,3.67-4.28,10.6,0,2.65,.2,4.69,.2,5.5,0,1.02-.61,1.63-1.43,1.63s-1.43-.41-1.43-1.83c0-26.09,11.21-35.47,33.43-35.47,20.99,0,26.09,9.99,26.09,28.13,0,33.43-11.21,69.91-11.21,92.13,0,3.26,1.22,4.08,2.85,4.08Z"/><path class="cls-55" d="M384.5,214.57c26.9,0,37.1,11.62,62.37,11.62,4.08,0,7.54-1.83,7.54-6.12,0-.82-.2-1.63-.2-2.45,0-1.22,.61-1.63,1.43-1.63,1.22,0,1.43,.82,1.43,1.63,0,18.75-9.17,66.45-9.17,88.66,0,2.85,.82,3.87,2.24,3.87,2.85,0,4.69-3.26,4.69-10.6,0-2.65-.2-4.69-.2-5.3,0-1.22,.41-1.83,1.43-1.83,.82,0,1.43,.41,1.43,2.04,0,25.89-11.01,35.26-30.57,35.26-16.1,0-25.48-5.91-25.48-21.61,0-12.84,2.45-20.99,2.45-25.88,0-2.04-1.22-2.65-2.45-2.65s-2.24,.61-2.45,2.85c-3.67,31.8-11.21,47.29-34.45,47.29s-30.37-13.45-30.37-38.32c0-50.75,17.73-76.84,50.34-76.84Zm14.67,3.47c-7.95,0-16.31,37.71-16.31,74.6,0,8.76,1.02,12.03,5.71,12.03,4.28,0,6.11-6.32,7.95-19.16,2.45-17.94,7.54-52.59,7.54-59.11,0-5.1-1.22-8.36-4.89-8.36Z"/><path class="cls-51" d="M534.31,296.92c18.96,0,23.85-4.48,23.85-10.8,0-2.65-1.22-5.91-1.02-6.93,0-1.02,.41-2.04,1.63-2.04,1.43,0,1.83,1.22,1.83,3.06,0,29.76-13.45,50.55-49.94,50.55-33.22,0-55.64-13.66-55.64-50.14,0-42.6,18.96-67.06,64-67.06,35.26,0,45.25,11.82,45.25,36.08,0,16.31-8.76,31.59-28.13,31.59-16.92,0-23.24-9.58-23.24-22.42,0-15.69,7.75-27.11,20.18-32.61,5.5-2.45,7.13-4.28,7.13-6.32,0-1.83-1.43-3.47-8.15-3.47-15.08,0-29.15,15.69-29.15,48.71,0,25.48,11.01,31.8,31.39,31.8Z"/><path class="cls-50" d="M632.56,278.37c-1.83,.2-2.24,1.22-2.24,2.04,0,1.22,.82,1.83,2.24,1.83,9.17,0,19.57-5.71,35.47-5.71,9.58,0,16.51,5.1,16.51,13.45,0,5.5-2.04,12.03-2.04,16.1,0,3.26,1.02,4.08,2.85,4.08,2.65,0,3.87-3.67,3.87-10.6,0-2.65-.2-4.69-.2-5.5,0-1.02,.61-1.63,1.43-1.63s1.43,.41,1.43,1.83c0,26.09-11.21,35.47-30.78,35.47-22.83,0-27.52-7.34-27.52-18.34,0-7.54,2.45-14.47,2.45-19.97,0-5.1-2.85-7.54-7.95-7.54-3.87,0-4.69,2.65-4.89,5.5-1.43,13.66-2.65,26.09-2.65,35.87-.2,1.63-1.22,2.45-2.85,2.45-5.5,0-25.89-8.76-40.15-8.76-4.08,0-7.54,1.83-7.54,6.11,0,.82,.2,1.63,.2,2.45,0,1.22-.61,1.63-1.43,1.63-1.22,0-1.43-.41-1.43-1.02,0-30.17,13.66-88.46,13.66-117.81,0-3.87-1.02-4.89-2.65-4.89-3.06,0-4.48,3.26-4.48,9.38,0,2.65,.2,4.69,.2,5.5,0,1.02-.61,1.63-1.43,1.63s-1.43-.41-1.43-1.83c0-25.07,11.21-34.24,30.78-34.24,22.22,0,26.91,10.19,26.7,27.52,0,15.08-10.19,40.15-10.19,49.53,0,2.04,1.22,2.65,2.45,2.65s2.24-.61,2.45-2.85c3.67-32.41,12.43-48.1,42.4-48.1,20.79,0,26.9,8.56,26.9,25.07-.82,22.42-11.21,30.98-60.13,38.73Zm-7.54-6.73c0,5.1,.41,6.12,2.45,6.12,6.73,0,14.27-14.47,14.27-29.96,0-4.28-1.02-7.34-4.48-7.34-7.54,0-12.23,20.79-12.23,31.18Z"/></g></g></g></svg>