<?xml version="1.0" encoding="UTF-8"?>
<svg id="Layer_1" xmlns="http://www.w3.org/2000/svg" viewBox="0 0 3456 1728">
  <defs>
    <style>
      .cls-1, .cls-2, .cls-3, .cls-4, .cls-5, .cls-6, .cls-7, .cls-8, .cls-9, .cls-10, .cls-11, .cls-12, .cls-13, .cls-14, .cls-15, .cls-16 {
        stroke-width: 16px;
      }

      .cls-1, .cls-2, .cls-3, .cls-5, .cls-6, .cls-8, .cls-9, .cls-10, .cls-12, .cls-15, .cls-16 {
        fill: none;
      }

      .cls-1, .cls-3, .cls-4, .cls-5, .cls-6, .cls-7, .cls-10, .cls-11, .cls-12, .cls-13, .cls-14, .cls-15, .cls-17 {
        stroke-miterlimit: 10;
      }

      .cls-1, .cls-4, .cls-6, .cls-9, .cls-11 {
        stroke: #ee335c;
      }

      .cls-2, .cls-6, .cls-8, .cls-9, .cls-10, .cls-12, .cls-16 {
        stroke-linecap: round;
      }

      .cls-2, .cls-8, .cls-9, .cls-16 {
        stroke-linejoin: round;
      }

      .cls-2, .cls-15, .cls-17 {
        stroke: #231f20;
      }

      .cls-3, .cls-8, .cls-10, .cls-13, .cls-14 {
        stroke: #fff;
      }

      .cls-18 {
        fill: #00aeef;
      }

      .cls-5, .cls-7, .cls-12, .cls-16 {
        stroke: #00aeef;
      }

      .cls-19, .cls-13 {
        fill: #fff;
      }

      .cls-7, .cls-11, .cls-14, .cls-17 {
        fill: #231f20;
      }

      .cls-20 {
        fill: #ee335c;
      }
    </style>
  </defs>
  <rect class="cls-17" x="0" y="0" width="3456" height="1728"/>
  <g>
    <circle class="cls-14" cx="325.41" cy="249.34" r="102.42"/>
    <circle class="cls-19" cx="356.18" cy="248.53" r="57"/>
    <g>
      <ellipse class="cls-15" cx="364.64" cy="229.28" rx="18.09" ry="19.25" transform="translate(-24.76 45.17) rotate(-6.86)"/>
      <ellipse class="cls-15" cx="369.24" cy="267.51" rx="18.09" ry="19.25" transform="translate(-29.3 46) rotate(-6.86)"/>
    </g>
    <path class="cls-8" d="M268.32,299.26c-11.67-13.34-18.75-30.8-18.75-49.92,0-41.88,33.95-75.84,75.84-75.84"/>
  </g>
  <g>
    <circle class="cls-14" cx="3111.39" cy="1425.2" r="102.42"/>
    <circle class="cls-19" cx="3134.74" cy="1445.25" r="57"/>
    <g>
      <ellipse class="cls-15" cx="3153.94" cy="1436.65" rx="19.25" ry="18.09" transform="translate(159.23 3181.08) rotate(-54.71)"/>
      <ellipse class="cls-15" cx="3131.69" cy="1468.09" rx="19.25" ry="18.09" transform="translate(124.18 3176.2) rotate(-54.71)"/>
    </g>
    <path class="cls-8" d="M3035.56,1423.9c.3-17.72,6.77-35.42,19.6-49.59,28.11-31.05,76.06-33.45,107.12-5.34"/>
  </g>
  <g>
    <circle class="cls-11" cx="1482.38" cy="880.03" r="102.42"/>
    <circle class="cls-19" cx="1509.63" cy="865.72" r="57"/>
    <g>
      <path class="cls-2" d="M1512.55,864.13c6.88-7.25,6.2-19.06-1.51-26.38-7.71-7.32-19.54-7.38-26.42-.13-6.88,7.25-6.2,19.06,1.51,26.38"/>
      <path class="cls-2" d="M1514.05,890.51c7.71,7.32,19.54,7.38,26.42.13,6.88-7.25,6.2-19.06-1.51-26.38s-19.54-7.38-26.42-.13"/>
    </g>
    <path class="cls-9" d="M1453.21,950.04c-16.36-6.81-30.43-19.36-38.87-36.51-18.5-37.58-3.03-83.04,34.54-101.54"/>
  </g>
  <g>
    <circle class="cls-11" cx="3309.09" cy="1077.91" r="102.42"/>
    <circle class="cls-19" cx="3336.34" cy="1063.6" r="57"/>
    <g>
      <path class="cls-2" d="M3339.26,1062.01c6.88-7.25,6.2-19.06-1.51-26.38-7.71-7.32-19.54-7.38-26.42-.13-6.88,7.25-6.2,19.06,1.51,26.38"/>
      <path class="cls-2" d="M3340.76,1088.39c7.71,7.32,19.54,7.38,26.42.13,6.88-7.25,6.2-19.06-1.51-26.38s-19.54-7.38-26.42-.13"/>
    </g>
    <path class="cls-9" d="M3279.92,1147.92c-16.36-6.81-30.43-19.36-38.87-36.51-18.5-37.58-3.03-83.04,34.54-101.54"/>
  </g>
  <g>
    <path class="cls-8" d="M826.62,446.2c-43.66,9.41-67.93-7.63-100.34-36.02l229.78-88.94c-4.85,42.82-11.25,72.58-49.87,95.01"/>
    <path class="cls-20" d="M710.07,387.97c-11.01-12.22-15.98-21.93-22.27-38.18l-17.87-46.15c-27.71-71.58,7.86-152.05,79.43-179.76,35.78-13.85,73.79-11.88,106.33,2.48,32.53,14.38,59.58,41.17,73.43,76.95l17.87,46.15c6.26,16.16,9.15,27.59,9.27,43.94l-246.18,94.56Z"/>
    <polygon class="cls-8" points="927.75 506.08 871.67 527.79 847.06 441.6 833.9 395.52 866.62 382.86 887.92 425.79 927.75 506.08"/>
  </g>
  <g>
    <path class="cls-8" d="M2667.24,1567.33c-44.66.35-64.97-21.25-90.94-55.62l243.05-40.48c-13.43,40.94-25.74,68.78-68.1,82.92"/>
    <path class="cls-20" d="M2564.93,1486.67c-8.3-14.2-11.2-24.71-14.07-41.9l-8.13-48.82c-12.61-75.71,38.54-147.3,114.25-159.91,37.85-6.3,74.67,3.33,103.61,24,28.93,20.68,49.99,52.4,56.29,90.25l8.13,48.82c2.85,17.1,3.36,28.87.16,44.91l-260.24,42.65Z"/>
    <polygon class="cls-8" points="2754.12 1646.48 2694.8 1656.36 2688.19 1566.98 2684.65 1519.18 2719.26 1513.42 2731.41 1559.78 2754.12 1646.48"/>
  </g>
  <g>
    <path class="cls-8" d="M155.75,1526.51c-37.53-24.22-42.64-53.43-45.48-96.42l225.37,99.59c-33.7,26.85-59.28,43.36-102.44,31.92"/>
    <path class="cls-18" d="M114.51,1402.92c.85-16.42,4.2-26.81,11.25-42.75l20-45.27c31.02-70.2,113.07-101.96,183.28-70.94,35.1,15.51,60.58,43.78,73.43,76.94,12.83,33.17,13.02,71.24-2.49,106.33l-20,45.27c-7,15.85-13.04,25.98-24.52,37.63l-240.94-107.21Z"/>
    <polygon class="cls-8" points="184.92 1640.36 129.91 1616.06 173.45 1537.71 196.73 1495.82 228.82 1510.01 213.53 1555.42 184.92 1640.36"/>
  </g>
  <g>
    <path class="cls-8" d="M2436.22,368.75c-40.79-18.2-50.31-46.28-59.7-88.32l237.96,63.93c-29.2,31.69-51.94,51.92-96.35,47.22"/>
    <path class="cls-18" d="M2376.56,252.93c-1.67-16.36.05-27.13,4.57-43.96l12.84-47.79c19.91-74.12,96.14-118.06,170.26-98.15,37.06,9.96,66.57,33.99,84.33,64.8,17.76,30.81,23.76,68.41,13.81,105.46l-12.84,47.79c-4.5,16.74-8.91,27.67-18.47,40.94l-254.51-69.08Z"/>
    <polygon class="cls-8" points="2482.47 476.8 2424.39 461.19 2455.43 377.11 2472.03 332.15 2505.92 341.26 2497.75 388.48 2482.47 476.8"/>
  </g>
  <g>
    <path class="cls-9" d="M808.07,1511.16c33.17,19.58,52.42,41.85,46.98,58.22-4.67,14.05-26.51,20.7-56.82,19.67-22.61-.78-49.92-5.82-78.34-15.26-28.41-9.44-53.31-21.75-71.89-34.65-24.9-17.31-38.42-35.71-33.75-49.76,5.44-16.37,34.22-22.7,72.55-18.52"/>
    <path class="cls-6" d="M855.05,1569.37l-23.07,69.43c-8.15,24.52-68.66,26.5-135.15,4.41-66.49-22.09-113.79-59.89-105.64-84.41l23.07-69.43"/>
    <path class="cls-10" d="M689.3,1531.65l22.7-68.32c1.87-5.63,4.81-10.6,8.52-14.78,10.9-12.25,28.44-17.53,44.98-12.03,11.09,3.69,19.64,11.51,24.49,21.19,2.39,4.77,3.88,9.97,4.35,15.36.48,5.57-.14,11.31-2.01,16.94l-22.7,68.32"/>
    <path class="cls-8" d="M801.47,1531.81c9.89,8.95,14.69,17.83,12.31,25-2.38,7.16-11.54,11.41-24.82,12.66"/>
    <path class="cls-8" d="M667.15,1528.99c-9.89-8.95-14.69-17.83-12.31-25s11.54-11.41,24.82-12.66"/>
  </g>
  <g>
    <path class="cls-9" d="M3149.32,650.94c33.17,19.58,52.42,41.85,46.98,58.22-4.67,14.05-26.51,20.7-56.82,19.67-22.61-.78-49.92-5.82-78.34-15.26-28.41-9.44-53.31-21.75-71.89-34.65-24.9-17.31-38.42-35.71-33.75-49.76,5.44-16.37,34.22-22.7,72.55-18.52"/>
    <path class="cls-6" d="M3196.3,709.15l-23.07,69.43c-8.15,24.52-68.66,26.5-135.15,4.41-66.49-22.09-113.79-59.89-105.64-84.41l23.07-69.43"/>
    <path class="cls-10" d="M3030.55,671.44l22.7-68.32c1.87-5.63,4.81-10.6,8.52-14.78,10.9-12.25,28.44-17.53,44.98-12.03,11.09,3.69,19.64,11.51,24.49,21.19,2.39,4.77,3.88,9.97,4.35,15.36.48,5.57-.14,11.31-2.01,16.94l-22.7,68.32"/>
    <path class="cls-8" d="M3142.72,671.59c9.89,8.95,14.69,17.83,12.31,25-2.38,7.16-11.54,11.41-24.82,12.66"/>
    <path class="cls-8" d="M3008.39,668.78c-9.89-8.95-14.69-17.83-12.31-25s11.54-11.41,24.82-12.66"/>
  </g>
  <g>
    <path class="cls-16" d="M1298.85,535.81c38.48-1.66,66.76,6.53,71.12,23.21,3.74,14.32-10.95,31.8-36.92,47.46-19.38,11.67-45.03,22.33-74,29.9-28.97,7.57-56.55,10.82-79.16,10.12-30.31-.95-51.68-9.01-55.42-23.33-4.36-16.69,16.32-37.69,50.73-55.07"/>
    <path class="cls-12" d="M1369.97,559.02l18.5,70.79c6.53,25-43.12,59.64-110.92,77.35-67.78,17.71-128.05,11.79-134.58-13.21l-18.5-70.78"/>
    <path class="cls-10" d="M1210.43,617.72l-18.2-69.65c-1.5-5.74-1.75-11.51-.91-17.03,2.46-16.21,14.29-30.19,31.15-34.6,11.31-2.96,22.74-1.05,32.08,4.42,4.6,2.69,8.69,6.25,12.02,10.51,3.44,4.4,6.04,9.56,7.54,15.3l18.2,69.65"/>
    <path class="cls-8" d="M1304.57,556.72c13.17,2.11,22.03,6.95,23.94,14.25,1.91,7.3-3.45,15.86-13.91,24.14"/>
    <path class="cls-8" d="M1190.41,627.57c-13.17-2.11-22.03-6.95-23.94-14.25-1.91-7.3,3.45-15.86,13.91-24.14"/>
  </g>
  <g>
    <path class="cls-16" d="M1937.73,950.76c32.52,20.63,51.04,43.52,45.08,59.7-5.12,13.89-27.16,19.84-57.42,17.83-22.57-1.5-49.71-7.42-77.8-17.77-28.09-10.35-52.59-23.45-70.74-36.95-24.33-18.11-37.25-36.93-32.14-50.82,5.96-16.19,34.94-21.59,73.1-16.18"/>
    <path class="cls-12" d="M1982.82,1010.45l-25.29,68.66c-8.93,24.25-69.47,24.28-135.23.07-65.74-24.21-111.81-63.52-102.88-87.76l25.29-68.65"/>
    <path class="cls-10" d="M1818.37,967.43l24.88-67.55c2.05-5.56,5.15-10.44,8.99-14.49,11.29-11.89,28.99-16.61,45.34-10.58,10.97,4.04,19.26,12.14,23.79,21.97,2.23,4.84,3.56,10.09,3.85,15.5.3,5.58-.51,11.3-2.56,16.87l-24.88,67.55"/>
    <path class="cls-8" d="M1930.48,971.19c9.6,9.26,14.11,18.29,11.5,25.38-2.61,7.08-11.9,11.04-25.21,11.86"/>
    <path class="cls-8" d="M1796.31,964.06c-9.6-9.26-14.11-18.29-11.5-25.38,2.61-7.08,11.9-11.04,25.21-11.86"/>
  </g>
  <g>
    <path class="cls-1" d="M1444.18,1482.89c10.62,28.41-3.8,60.04-32.22,70.66-28.4,10.62-60.04-3.8-70.65-32.21s3.8-60.04,32.21-70.65c28.41-10.62,60.05,3.8,70.66,32.2Z"/>
    <path class="cls-5" d="M1665.61,1304.19h-.02c-.68-.39-1.42-.65-2.2-.79h-.03c-1.33-.26-2.75-.16-4.11.35l-425.02,158.86c-4,1.5-6.03,5.95-4.53,9.95l29.51,78.95c6.58,17.6,17.87,32.06,31.92,42.49,4.69,3.49,9.7,6.53,14.94,9.08,22.34,10.89,48.93,12.93,74.04,3.55l263.48-98.48c48.6-18.17,73.28-72.29,55.11-120.9l-29.51-78.95c-.68-1.82-1.98-3.24-3.58-4.1ZM1411.96,1553.55c-28.4,10.62-60.04-3.8-70.65-32.21s3.8-60.04,32.21-70.65c28.41-10.62,60.05,3.8,70.66,32.2s-3.8,60.04-32.22,70.66Z"/>
    <path class="cls-1" d="M1444.18,1482.89c10.62,28.41-3.8,60.04-32.22,70.66-28.4,10.62-60.04-3.8-70.65-32.21s3.8-60.04,32.21-70.65c28.41-10.62,60.05,3.8,70.66,32.2Z"/>
    <path class="cls-11" d="M1444.18,1482.89c10.62,28.41-3.8,60.04-32.22,70.66-28.4,10.62-60.04-3.8-70.65-32.21s3.8-60.04,32.21-70.65c28.41-10.62,60.05,3.8,70.66,32.2Z"/>
    <path class="cls-8" d="M1420.53,1491.73c5.74,15.35-2.05,32.44-17.4,38.17-15.35,5.74-32.44-2.05-38.17-17.4s2.05-32.44,17.4-38.17"/>
    <g>
      <path class="cls-20" d="M1565.8,1393.92c.83,0,1.65.18,2.43.54,1.93.88,2.76,2.45,3.08,3.3.32.86.72,2.58-.16,4.51-1.16,2.55-3.63,3.46-5.38,3.46-.83,0-1.65-.18-2.43-.54-1.93-.88-2.76-2.45-3.08-3.3-.32-.86-.72-2.58.16-4.51,1.16-2.55,3.63-3.46,5.39-3.46M1565.8,1377.92c-8.32,0-16.27,4.76-19.94,12.82-5.02,11-.16,24,10.84,29.01,2.94,1.34,6.03,1.98,9.07,1.98,8.32,0,16.27-4.76,19.94-12.82,5.02-11,.16-24-10.84-29.01-2.94-1.34-6.03-1.98-9.07-1.98h0Z"/>
      <path class="cls-20" d="M1611.14,1414.59c.83,0,1.65.18,2.43.54,1.93.88,2.76,2.45,3.08,3.3.32.85.72,2.58-.16,4.51-1.16,2.55-3.62,3.46-5.38,3.46-.83,0-1.65-.18-2.43-.54-1.93-.88-2.76-2.45-3.08-3.3s-.72-2.58.16-4.51c1.16-2.55,3.62-3.46,5.38-3.46M1611.14,1398.59c-8.31,0-16.26,4.76-19.93,12.82-5.02,11-.16,23.99,10.84,29,2.95,1.34,6.03,1.98,9.07,1.98,8.31,0,16.26-4.76,19.93-12.82,5.02-11,.16-23.99-10.84-29-2.95-1.34-6.03-1.98-9.07-1.98h0Z"/>
      <path class="cls-20" d="M1546.03,1437.29c.83,0,1.65.18,2.43.54,2.96,1.35,4.27,4.85,2.92,7.81-1.16,2.55-3.62,3.46-5.38,3.46-.83,0-1.65-.18-2.43-.54-2.96-1.35-4.27-4.85-2.92-7.81,1.16-2.55,3.62-3.45,5.38-3.46M1546.03,1421.29c-8.31,0-16.26,4.76-19.93,12.82-5.02,11-.16,23.99,10.84,29,2.95,1.34,6.03,1.98,9.07,1.98,8.31,0,16.26-4.76,19.93-12.82,5.02-11,.16-23.99-10.84-29-2.95-1.34-6.03-1.98-9.07-1.98h0Z"/>
      <path class="cls-20" d="M1590.48,1459.93c.83,0,1.65.18,2.43.54,1.93.88,2.76,2.45,3.08,3.3.32.85.72,2.58-.16,4.51-1.16,2.55-3.63,3.46-5.38,3.46-.83,0-1.65-.18-2.43-.54-2.96-1.35-4.27-4.85-2.92-7.81,1.16-2.55,3.63-3.46,5.39-3.46M1590.47,1443.93c-8.32,0-16.27,4.76-19.94,12.82-5.02,11-.16,23.99,10.84,29,2.94,1.34,6.03,1.98,9.07,1.98,8.32,0,16.27-4.76,19.94-12.82,5.02-11,.16-23.99-10.84-29-2.94-1.34-6.03-1.98-9.07-1.98h0Z"/>
    </g>
    <line class="cls-5" x1="1665.61" y1="1304.19" x2="1663.39" y2="1303.39"/>
    <path class="cls-5" d="M1326.95,1610.36c1.22,1.52-51.47-11.47-77.84-28.15-18.85-10.46-34.22-27.44-42.36-49.22l-29.51-78.95c-1.49-4,.53-8.45,4.53-9.94l425.02-158.86c1.7-.63,3.47-.64,5.07-.11l.61.22,50.89,18.05c-1.33-.25-2.75-.15-4.11.36l-425.02,158.86c-4,1.5-6.03,5.95-4.53,9.95l29.51,78.95"/>
    <line class="cls-5" x1="1229.77" y1="1466.95" x2="1177.2" y2="1448.75"/>
  </g>
  <g>
    <path class="cls-1" d="M3146.39,237.96c10.62,28.41-3.8,60.04-32.22,70.66-28.4,10.62-60.04-3.8-70.65-32.21s3.8-60.04,32.21-70.65c28.41-10.62,60.05,3.8,70.66,32.2Z"/>
    <path class="cls-5" d="M3367.82,59.26h-.02c-.68-.39-1.42-.65-2.2-.79h-.03c-1.33-.26-2.75-.16-4.11.35l-425.02,158.86c-4,1.5-6.03,5.95-4.53,9.95l29.51,78.95c6.58,17.6,17.87,32.06,31.92,42.49,4.69,3.49,9.7,6.53,14.94,9.08,22.34,10.89,48.93,12.93,74.04,3.55l263.48-98.48c48.6-18.17,73.28-72.29,55.11-120.9l-29.51-78.95c-.68-1.82-1.98-3.24-3.58-4.1ZM3114.17,308.62c-28.4,10.62-60.04-3.8-70.65-32.21s3.8-60.04,32.21-70.65c28.41-10.62,60.05,3.8,70.66,32.2s-3.8,60.04-32.22,70.66Z"/>
    <path class="cls-1" d="M3146.39,237.96c10.62,28.41-3.8,60.04-32.22,70.66-28.4,10.62-60.04-3.8-70.65-32.21s3.8-60.04,32.21-70.65c28.41-10.62,60.05,3.8,70.66,32.2Z"/>
    <path class="cls-11" d="M3146.39,237.96c10.62,28.41-3.8,60.04-32.22,70.66-28.4,10.62-60.04-3.8-70.65-32.21s3.8-60.04,32.21-70.65c28.41-10.62,60.05,3.8,70.66,32.2Z"/>
    <path class="cls-8" d="M3122.74,246.8c5.74,15.35-2.05,32.44-17.4,38.17-15.35,5.74-32.44-2.05-38.17-17.4s2.05-32.44,17.4-38.17"/>
    <g>
      <path class="cls-20" d="M3268.01,148.99c.83,0,1.65.18,2.43.54,1.93.88,2.76,2.45,3.08,3.3.32.86.72,2.58-.16,4.51-1.16,2.55-3.63,3.46-5.38,3.46-.83,0-1.65-.18-2.43-.54-1.93-.88-2.76-2.45-3.08-3.3-.32-.86-.72-2.58.16-4.51,1.16-2.55,3.63-3.46,5.39-3.46M3268.01,132.99c-8.32,0-16.27,4.76-19.94,12.82-5.02,11-.16,24,10.84,29.01,2.94,1.34,6.03,1.98,9.07,1.98,8.32,0,16.27-4.76,19.94-12.82,5.02-11,.16-24-10.84-29.01-2.94-1.34-6.03-1.98-9.07-1.98h0Z"/>
      <path class="cls-20" d="M3313.35,169.67c.83,0,1.65.18,2.43.54,1.93.88,2.76,2.45,3.08,3.3.32.85.72,2.58-.16,4.51-1.16,2.55-3.62,3.46-5.38,3.46-.83,0-1.65-.18-2.43-.54-1.93-.88-2.76-2.45-3.08-3.3s-.72-2.58.16-4.51c1.16-2.55,3.62-3.46,5.38-3.46M3313.35,153.67c-8.31,0-16.26,4.76-19.93,12.82-5.02,11-.16,23.99,10.84,29,2.95,1.34,6.03,1.98,9.07,1.98,8.31,0,16.26-4.76,19.93-12.82,5.02-11,.16-23.99-10.84-29-2.95-1.34-6.03-1.98-9.07-1.98h0Z"/>
      <path class="cls-20" d="M3248.24,192.37c.83,0,1.65.18,2.43.54,2.96,1.35,4.27,4.85,2.92,7.81-1.16,2.55-3.62,3.46-5.38,3.46-.83,0-1.65-.18-2.43-.54-2.96-1.35-4.27-4.85-2.92-7.81,1.16-2.55,3.62-3.45,5.38-3.46M3248.24,176.37c-8.31,0-16.26,4.76-19.93,12.82-5.02,11-.16,23.99,10.84,29,2.95,1.34,6.03,1.98,9.07,1.98,8.31,0,16.26-4.76,19.93-12.82,5.02-11,.16-23.99-10.84-29-2.95-1.34-6.03-1.98-9.07-1.98h0Z"/>
      <path class="cls-20" d="M3292.69,215c.83,0,1.65.18,2.43.54,1.93.88,2.76,2.45,3.08,3.3.32.85.72,2.58-.16,4.51-1.16,2.55-3.63,3.46-5.38,3.46-.83,0-1.65-.18-2.43-.54-2.96-1.35-4.27-4.85-2.92-7.81,1.16-2.55,3.63-3.46,5.39-3.46M3292.69,199c-8.32,0-16.27,4.76-19.94,12.82-5.02,11-.16,23.99,10.84,29,2.94,1.34,6.03,1.98,9.07,1.98,8.32,0,16.27-4.76,19.94-12.82,5.02-11,.16-23.99-10.84-29-2.94-1.34-6.03-1.98-9.07-1.98h0Z"/>
    </g>
    <line class="cls-5" x1="3367.82" y1="59.26" x2="3365.6" y2="58.47"/>
    <path class="cls-5" d="M3029.16,365.43c1.22,1.52-51.47-11.47-77.84-28.15-18.85-10.46-34.22-27.44-42.36-49.22l-29.51-78.95c-1.49-4,.53-8.45,4.53-9.94l425.02-158.86c1.7-.63,3.47-.64,5.07-.11l.61.22,50.89,18.05c-1.33-.25-2.75-.15-4.11.36l-425.02,158.86c-4,1.5-6.03,5.95-4.53,9.95l29.51,78.95"/>
    <line class="cls-5" x1="2931.99" y1="222.03" x2="2879.41" y2="203.82"/>
  </g>
  <g>
    <path class="cls-5" d="M284.02,624.01c-10.62,28.41,3.8,60.04,32.22,70.66,28.4,10.62,60.04-3.8,70.65-32.21s-3.8-60.04-32.21-70.65c-28.41-10.62-60.05,3.8-70.66,32.2Z"/>
    <path class="cls-1" d="M59.01,449.4l-29.51,78.95c-18.17,48.6,6.51,102.73,55.11,120.9l263.48,98.48c25.11,9.39,51.7,7.34,74.04-3.55,5.24-2.55,10.25-5.58,14.94-9.08,14.05-10.42,25.34-24.89,31.92-42.49l29.51-78.95c1.49-4-.53-8.45-4.53-9.95L68.95,444.86c-1.36-.51-2.78-.61-4.11-.36h-.03c-.78.16-1.52.42-2.2.79h-.02c-1.6.86-2.9,2.29-3.58,4.11ZM284.02,624.01c10.62-28.4,42.25-42.82,70.66-32.2,28.4,10.62,42.82,42.25,32.21,70.65s-42.25,42.82-70.65,32.21c-28.41-10.62-42.83-42.25-32.22-70.66Z"/>
    <path class="cls-5" d="M284.02,624.01c-10.62,28.41,3.8,60.04,32.22,70.66,28.4,10.62,60.04-3.8,70.65-32.21s-3.8-60.04-32.21-70.65c-28.41-10.62-60.05,3.8-70.66,32.2Z"/>
    <path class="cls-7" d="M284.02,624.01c-10.62,28.41,3.8,60.04,32.22,70.66,28.4,10.62,60.04-3.8,70.65-32.21s-3.8-60.04-32.21-70.65c-28.41-10.62-60.05,3.8-70.66,32.2Z"/>
    <path class="cls-8" d="M307.67,632.85c-5.74,15.35,2.05,32.44,17.4,38.17,15.35,5.74,32.44-2.05,38.17-17.4,5.74-15.35-2.05-32.44-17.4-38.17"/>
    <g>
      <path class="cls-18" d="M162.4,535.04c1.76,0,4.22.91,5.38,3.46,1.35,2.96.04,6.47-2.92,7.82-.78.36-1.6.54-2.43.54-1.76,0-4.22-.91-5.38-3.46-1.35-2.96-.04-6.47,2.92-7.82.78-.36,1.6-.54,2.43-.54M162.4,519.04c-3.04,0-6.12.64-9.07,1.98-11,5.02-15.86,18.01-10.84,29.01,3.67,8.06,11.63,12.82,19.94,12.82,3.04,0,6.12-.64,9.07-1.98,11-5.02,15.86-18.01,10.84-29.01-3.67-8.06-11.63-12.82-19.94-12.82h0Z"/>
      <path class="cls-18" d="M117.06,555.71c1.75,0,4.21.9,5.38,3.46.88,1.93.48,3.65.16,4.51-.32.85-1.14,2.42-3.08,3.3-.78.36-1.6.54-2.43.54-1.75,0-4.21-.9-5.38-3.46-1.35-2.96-.04-6.46,2.92-7.81.78-.36,1.6-.54,2.43-.54M117.06,539.71c-3.04,0-6.12.64-9.07,1.98-11,5.02-15.86,18-10.84,29,3.67,8.06,11.62,12.82,19.93,12.82,3.04,0,6.12-.64,9.07-1.98,11-5.02,15.86-18,10.84-29-3.67-8.06-11.62-12.82-19.93-12.82h0Z"/>
      <path class="cls-18" d="M182.17,578.41c1.75,0,4.21.9,5.38,3.46,1.35,2.96.04,6.46-2.92,7.81-.78.36-1.6.54-2.43.54-1.75,0-4.21-.9-5.38-3.46-1.35-2.96-.04-6.46,2.92-7.81.78-.36,1.6-.54,2.43-.54M182.17,562.41c-3.04,0-6.12.64-9.07,1.98-11,5.02-15.86,18-10.84,29,3.67,8.06,11.62,12.82,19.93,12.82,3.04,0,6.12-.64,9.07-1.98,11-5.02,15.86-18,10.84-29-3.67-8.06-11.62-12.82-19.93-12.82h0Z"/>
      <path class="cls-18" d="M137.72,601.04c1.76,0,4.22.91,5.38,3.46,1.35,2.96.04,6.46-2.92,7.81-.78.36-1.6.54-2.43.54-1.76,0-4.22-.91-5.38-3.46-1.35-2.96-.04-6.46,2.92-7.81.78-.36,1.6-.54,2.43-.54M137.72,585.04c-3.04,0-6.12.64-9.07,1.98-11,5.02-15.86,18-10.84,29,3.67,8.06,11.63,12.82,19.94,12.82,3.04,0,6.12-.64,9.07-1.98,11-5.02,15.86-18,10.84-29-3.67-8.06-11.63-12.82-19.94-12.82h0Z"/>
    </g>
    <line class="cls-1" x1="64.81" y1="444.51" x2="62.59" y2="445.31"/>
    <path class="cls-1" d="M401.25,751.47c-1.22,1.52,51.47-11.47,77.84-28.15,18.85-10.46,34.22-27.44,42.36-49.22l29.51-78.95c1.49-4-.53-8.45-4.53-9.94L121.42,426.35c-1.7-.63-3.47-.64-5.07-.11l-.61.22-50.89,18.05c1.33-.25,2.75-.15,4.11.36l425.02,158.86c4,1.5,6.03,5.95,4.53,9.95l-29.51,78.95"/>
    <line class="cls-1" x1="498.42" y1="608.07" x2="551" y2="589.86"/>
  </g>
  <g>
    <path class="cls-5" d="M2466.93,711.29c-10.62,28.41,3.8,60.04,32.22,70.66,28.4,10.62,60.04-3.8,70.65-32.21,10.62-28.4-3.8-60.04-32.21-70.65-28.41-10.62-60.05,3.8-70.66,32.2Z"/>
    <path class="cls-1" d="M2241.93,536.68l-29.51,78.95c-18.17,48.6,6.51,102.73,55.11,120.9l263.48,98.48c25.11,9.39,51.7,7.34,74.04-3.55,5.24-2.55,10.25-5.58,14.94-9.08,14.05-10.42,25.34-24.89,31.92-42.49l29.51-78.95c1.49-4-.53-8.45-4.53-9.95l-425.02-158.86c-1.36-.51-2.78-.61-4.11-.36h-.03c-.78.16-1.52.42-2.2.79h-.02c-1.6.86-2.9,2.29-3.58,4.11ZM2466.93,711.29c10.62-28.4,42.25-42.82,70.66-32.2,28.4,10.62,42.82,42.25,32.21,70.65-10.62,28.41-42.25,42.82-70.65,32.21-28.41-10.62-42.83-42.25-32.22-70.66Z"/>
    <path class="cls-5" d="M2466.93,711.29c-10.62,28.41,3.8,60.04,32.22,70.66,28.4,10.62,60.04-3.8,70.65-32.21,10.62-28.4-3.8-60.04-32.21-70.65-28.41-10.62-60.05,3.8-70.66,32.2Z"/>
    <path class="cls-7" d="M2466.93,711.29c-10.62,28.41,3.8,60.04,32.22,70.66,28.4,10.62,60.04-3.8,70.65-32.21,10.62-28.4-3.8-60.04-32.21-70.65-28.41-10.62-60.05,3.8-70.66,32.2Z"/>
    <path class="cls-8" d="M2490.58,720.13c-5.74,15.35,2.05,32.44,17.4,38.17,15.35,5.74,32.44-2.05,38.17-17.4,5.74-15.35-2.05-32.44-17.4-38.17"/>
    <g>
      <path class="cls-18" d="M2345.31,622.32c1.76,0,4.22.91,5.38,3.46,1.35,2.96.04,6.47-2.92,7.82-.78.36-1.6.54-2.43.54-1.76,0-4.22-.91-5.38-3.46-1.35-2.96-.04-6.47,2.92-7.82.78-.36,1.6-.54,2.43-.54M2345.31,606.32c-3.04,0-6.12.64-9.07,1.98-11,5.02-15.86,18.01-10.84,29.01,3.67,8.06,11.63,12.82,19.94,12.82,3.04,0,6.12-.64,9.07-1.98,11-5.02,15.86-18.01,10.84-29.01-3.67-8.06-11.63-12.82-19.94-12.82h0Z"/>
      <path class="cls-18" d="M2299.97,642.99c1.75,0,4.21.9,5.38,3.46.88,1.93.48,3.65.16,4.51-.32.85-1.14,2.42-3.08,3.3-.78.36-1.6.54-2.43.54-1.75,0-4.21-.9-5.38-3.46-1.35-2.96-.04-6.46,2.92-7.81.78-.36,1.6-.54,2.43-.54M2299.97,626.99c-3.04,0-6.12.64-9.07,1.98-11,5.02-15.86,18-10.84,29,3.67,8.06,11.62,12.82,19.93,12.82,3.04,0,6.12-.64,9.07-1.98,11-5.02,15.86-18,10.84-29-3.67-8.06-11.62-12.82-19.93-12.82h0Z"/>
      <path class="cls-18" d="M2365.08,665.69c1.75,0,4.21.9,5.38,3.46,1.35,2.96.04,6.46-2.92,7.81-.78.36-1.6.54-2.43.54-1.75,0-4.21-.9-5.38-3.46-1.35-2.96-.04-6.46,2.92-7.81.78-.36,1.6-.54,2.43-.54M2365.08,649.69c-3.04,0-6.12.64-9.07,1.98-11,5.02-15.86,18-10.84,29,3.67,8.06,11.62,12.82,19.93,12.82,3.04,0,6.12-.64,9.07-1.98,11-5.02,15.86-18,10.84-29-3.67-8.06-11.62-12.82-19.93-12.82h0Z"/>
      <path class="cls-18" d="M2320.64,688.33c1.76,0,4.22.91,5.38,3.46,1.35,2.96.04,6.46-2.92,7.81-.78.36-1.6.54-2.43.54-1.76,0-4.22-.91-5.38-3.46-1.35-2.96-.04-6.46,2.92-7.81.78-.36,1.6-.54,2.43-.54M2320.64,672.33c-3.04,0-6.12.64-9.07,1.98-11,5.02-15.86,18-10.84,29,3.67,8.06,11.63,12.82,19.94,12.82,3.04,0,6.12-.64,9.07-1.98,11-5.02,15.86-18,10.84-29-3.67-8.06-11.63-12.82-19.94-12.82h0Z"/>
    </g>
    <line class="cls-1" x1="2247.72" y1="531.79" x2="2245.5" y2="532.59"/>
    <path class="cls-1" d="M2584.16,838.75c-1.22,1.52,51.47-11.47,77.84-28.15,18.85-10.46,34.22-27.44,42.36-49.22l29.51-78.95c1.49-4-.53-8.45-4.53-9.94l-425.02-158.86c-1.7-.63-3.47-.64-5.07-.11l-.61.22-50.89,18.05c1.33-.25,2.75-.15,4.11.36l425.02,158.86c4,1.5,6.03,5.95,4.53,9.95l-29.51,78.95"/>
    <line class="cls-1" x1="2681.34" y1="695.35" x2="2733.91" y2="677.15"/>
  </g>
  <g>
    <path class="cls-10" d="M1595.52,95.04c3.95,16.2-39.01,40.58-95.96,54.47-56.94,13.88-106.31,12-110.26-4.19-3.95-16.21,39.01-40.6,95.96-54.48,56.95-13.89,106.31-12,110.26,4.2Z"/>
    <path class="cls-10" d="M1388.87,144.29c.81,12.78,2.78,25.89,6,39.12,20.71,84.93,85.24,142.15,144.11,127.79,58.89-14.36,89.83-94.85,69.12-179.78-3.21-13.17-7.47-25.67-12.6-37.34M1499.56,149.51c-56.94,13.88-106.31,12-110.26-4.19-3.95-16.21,39.01-40.6,95.96-54.48,56.95-13.89,106.31-12,110.26,4.2,3.95,16.2-39.01,40.58-95.96,54.47Z"/>
    <path class="cls-10" d="M1595.52,95.04c3.95,16.2-39.01,40.58-95.96,54.47-56.94,13.88-106.31,12-110.26-4.19-3.95-16.21,39.01-40.6,95.96-54.48,56.95-13.89,106.31-12,110.26,4.2Z"/>
    <path class="cls-10" d="M1514.35,392.6c-18.61,7.53-21.67,13.55-20.77,20.03.1.69.23,1.38.41,2.09"/>
    <path class="cls-10" d="M1626.58,382.39c-.17-.7-.38-1.38-.64-2.04-2.36-6.03-8.86-10.34-27.69-8.83"/>
    <g>
      <path class="cls-10" d="M1523.44,314.49s23.28,64.64,8.62,88.75"/>
      <path class="cls-10" d="M1554.3,306.97s9.09,68.1,33.2,82.76"/>
    </g>
    <path class="cls-10" d="M1626.58,382.39l7.34,30.09c2.54,10.41-25.08,26.09-61.7,35.02-36.62,8.93-68.36,7.72-70.9-2.69l-7.34-30.09c1.5,6.14,13.15,9.08,29.97,8.64,11.7-.32,25.9-2.28,40.93-5.94,15.03-3.66,28.54-8.46,39.07-13.56,15.14-7.35,24.13-15.32,22.63-21.46Z"/>
    <path class="cls-10" d="M1627.65,111.16c18.24-7.63,39.6-14.66,47.22,9.11,2.29,7.66,2.45,16.54,2.26,24.72-.83,22.13-3.37,46.13-14.73,66.41-8.44,15.18-21.53,26.87-34.55,38.14"/>
    <path class="cls-10" d="M1369.04,174.21c-19.7,1.62-41.9,5.21-37.73,29.82,1.49,7.85,5.44,15.81,9.38,22.99,10.93,19.27,24.22,39.4,43.65,52.18,14.48,9.6,31.48,13.94,48.23,17.96"/>
    <path class="cls-4" d="M1536.27,246.89c.63.37,1.52.49,2.3.53,8.8.03,16.11,1.16,16.18,11.29.09,13.6-31.79,14.63-43.82,17.82-3.98.81-7.88-1.19-9.77-5.11-4.16-9.57,1.65-13.21,9.05-17.33,1.04-.68,1.62-1.73,1.51-2.99-1.1-10.94-4.38-22.15-7.1-35.68-.26-1.41-.73-2.94-2.24-3.25-5.16-.43-11.16.45-14.51-2.79-2.44-2.16-2.94-5.83-2.36-8.95,1.15-7.5,6.61-12.64,12.56-17,2.29-1.54,5.32-4.13,7.7-4.67,23.89-2.71,18.16,51.9,30.34,68.05l.14.08Z"/>
  </g>
  <g>
    <path class="cls-10" d="M2472.34,974.81c-5.16,15.85-54.52,14.02-110.26-4.11-55.74-18.13-96.75-45.68-91.59-61.53,5.16-15.86,54.53-14.02,110.27,4.1,55.75,18.13,96.75,45.68,91.59,61.54Z"/>
    <path class="cls-10" d="M2270.65,908.06c-6.03,11.29-11.25,23.49-15.46,36.43-27.03,83.13-2.22,165.73,55.41,184.47,57.64,18.74,126.28-33.46,153.31-116.59,4.19-12.89,7.14-25.76,8.91-38.39M2362.07,970.7c-55.74-18.13-96.75-45.68-91.59-61.53,5.16-15.86,54.53-14.02,110.27,4.1,55.75,18.13,96.75,45.68,91.59,61.54-5.16,15.85-54.52,14.02-110.26-4.11Z"/>
    <path class="cls-10" d="M2472.34,974.81c-5.16,15.85-54.52,14.02-110.26-4.11-55.74-18.13-96.75-45.68-91.59-61.53,5.16-15.86,54.53-14.02,110.27,4.1,55.75,18.13,96.75,45.68,91.59,61.54Z"/>
    <path class="cls-10" d="M2246.85,1185.25c-19.79-3.37-25.55.13-28.19,6.12-.28.63-.53,1.3-.75,1.99"/>
    <path class="cls-10" d="M2347.7,1235.58c.22-.68.4-1.37.53-2.07,1.17-6.37-2.1-13.45-18.91-22.07"/>
    <g>
      <path class="cls-10" d="M2295.65,1123.59s-14.18,67.23-39.32,80.03"/>
      <path class="cls-10" d="M2325.86,1133.42s-28.07,62.71-15.27,87.85"/>
    </g>
    <path class="cls-10" d="M2347.7,1235.58l-9.58,29.45c-3.32,10.19-35.05,9.01-70.9-2.64-35.84-11.66-62.21-29.37-58.89-39.56l9.58-29.45c-1.95,6.01,6.41,14.64,20.95,23.1,10.12,5.88,23.23,11.68,37.94,16.46,14.71,4.78,28.72,7.81,40.36,9,16.74,1.71,28.58-.35,30.53-6.36Z"/>
    <path class="cls-10" d="M2491.19,1005.41c19.52,3.1,41.39,8.35,35.38,32.58-2.08,7.72-6.61,15.36-11.08,22.22-12.34,18.39-27.12,37.47-47.45,48.75-15.16,8.48-32.44,11.54-49.44,14.28"/>
    <path class="cls-10" d="M2238.06,923.1c-17.61-8.98-38.38-17.59-47.77,5.53-2.86,7.46-3.69,16.31-4.11,24.48-.83,22.13-.11,46.25,9.7,67.33,7.27,15.77,19.45,28.41,31.58,40.63"/>
    <path class="cls-4" d="M2342.1,1072.83c.34.65,1.03,1.22,1.68,1.66,7.47,4.65,13.09,9.46,7.83,18.11-7.07,11.62-34.73-4.27-46.64-7.88-3.81-1.41-6.08-5.16-5.63-9.48,1.49-10.33,8.35-10.37,16.81-9.98,1.24-.03,2.29-.62,2.86-1.75,4.81-9.88,7.92-21.15,12.72-34.09.52-1.33.92-2.88-.19-3.94-4.17-3.08-9.73-5.48-10.88-10-.94-3.12.56-6.5,2.7-8.86,4.93-5.78,12.27-7.28,19.62-7.86,2.76-.1,6.7-.72,9,.08,21.75,10.26-11.83,53.7-9.96,73.84l.07.15Z"/>
  </g>
  <circle class="cls-8" cx="153.68" cy="808.71" r="38.58"/>
  <circle class="cls-8" cx="1256.75" cy="103.93" r="38.58"/>
  <circle class="cls-8" cx="2902.1" cy="1237.81" r="38.58"/>
  <circle class="cls-8" cx="2330.58" cy="66.77" r="38.58"/>
  <circle class="cls-8" cx="1758.18" cy="1207.74" r="38.58"/>
  <circle class="cls-8" cx="1034.25" cy="1326.05" r="38.58"/>
  <circle class="cls-8" cx="2084.51" cy="821.41" r="38.58"/>
  <circle class="cls-8" cx="2684.65" cy="497.59" r="38.58"/>
  <g>
    <line class="cls-8" x1="87.73" y1="1095.28" x2="159.78" y2="1112.67"/>
    <line class="cls-8" x1="132.45" y1="1067.95" x2="115.06" y2="1140"/>
  </g>
  <g>
    <line class="cls-8" x1="2827.49" y1="94.1" x2="2899.54" y2="111.49"/>
    <line class="cls-8" x1="2872.21" y1="66.77" x2="2854.82" y2="138.82"/>
  </g>
  <g>
    <line class="cls-8" x1="1534.88" y1="1626.57" x2="1606.92" y2="1643.96"/>
    <line class="cls-8" x1="1579.6" y1="1599.24" x2="1562.2" y2="1671.29"/>
  </g>
  <g>
    <line class="cls-8" x1="3335.91" y1="850.04" x2="3407.96" y2="867.43"/>
    <line class="cls-8" x1="3380.63" y1="822.71" x2="3363.24" y2="894.76"/>
  </g>
  <g>
    <line class="cls-8" x1="2340.5" y1="1416.5" x2="2412.55" y2="1433.9"/>
    <line class="cls-8" x1="2385.22" y1="1389.18" x2="2367.83" y2="1461.22"/>
  </g>
  <g>
    <line class="cls-8" x1="1055.71" y1="268" x2="1127.76" y2="285.39"/>
    <line class="cls-8" x1="1100.43" y1="240.67" x2="1083.04" y2="312.72"/>
  </g>
  <g>
    <line class="cls-8" x1="1858.45" y1="716.09" x2="1930.5" y2="733.48"/>
    <line class="cls-8" x1="1903.17" y1="688.76" x2="1885.78" y2="760.81"/>
  </g>
  <g>
    <line class="cls-8" x1="720.99" y1="1071.73" x2="793.04" y2="1089.12"/>
    <line class="cls-8" x1="765.71" y1="1044.4" x2="748.32" y2="1116.45"/>
  </g>
  <g>
    <line class="cls-8" x1="495.66" y1="376.32" x2="567.7" y2="393.72"/>
    <line class="cls-8" x1="540.38" y1="349" x2="522.98" y2="421.04"/>
  </g>
  <rect class="cls-8" x="520.39" y="93.84" width="72.61" height="72.61" transform="translate(-.24 259.26) rotate(-26.21)"/>
  <rect class="cls-8" x="3095.38" y="1157.06" width="72.61" height="72.61" transform="translate(-205.06 1505.91) rotate(-26.21)"/>
  <rect class="cls-8" x="404.34" y="1562.94" width="72.61" height="72.61" transform="translate(-661.04 359.07) rotate(-26.21)"/>
  <rect class="cls-8" x="1384.44" y="1064.29" width="72.61" height="72.61" transform="translate(-340.02 740.68) rotate(-26.21)"/>
  <rect class="cls-8" x="714.83" y="539.61" width="72.61" height="72.61" transform="translate(-177.13 390.98) rotate(-26.21)"/>
  <rect class="cls-8" x="2147.39" y="340.5" width="72.61" height="72.61" transform="translate(58.12 1003.24) rotate(-26.21)"/>
  <rect class="cls-8" x="1268.27" y="353.42" width="72.61" height="72.61" transform="translate(260.84 -484.58) rotate(23.32)"/>
  <polygon class="cls-8" points="1027.25 1594.31 960.2 1644.26 1036.98 1677.35 1027.25 1594.31"/>
  <polygon class="cls-8" points="465.03 1133.12 451.38 1215.61 529.64 1186.18 465.03 1133.12"/>
  <polygon class="cls-8" points="3323.25 1599.8 3247.3 1634.76 3315.55 1683.06 3323.25 1599.8"/>
  <polygon class="cls-8" points="2212.57 1592.06 2198.93 1674.55 2277.19 1645.12 2212.57 1592.06"/>
  <polygon class="cls-8" points="1563.54 586.7 1496.49 636.65 1573.27 669.74 1563.54 586.7"/>
  <polygon class="cls-8" points="143.72 78.65 76.67 128.6 153.45 161.7 143.72 78.65"/>
  <polygon class="cls-8" points="3335.24 553.59 3268.19 603.54 3344.97 636.64 3335.24 553.59"/>
  <g>
    <path class="cls-8" d="M590.32,919.7l-17.62,78.46-10.02,44.62c-35.65,9.16-81.6,18.12-132.02,25.26-50.43,7.14-97.06,11.27-133.85,12.37l-22.01-40.09-38.7-70.49,94.26,38.65,20.8-108.24,65.13,66.3,42.21-81.49,51.99,97.94,79.83-63.29Z"/>
    <ellipse class="cls-12" cx="607.54" cy="884.48" rx="16.24" ry="10.64" transform="translate(-464.51 838.44) rotate(-53.06)"/>
    <ellipse class="cls-12" cx="338.95" cy="861.16" rx="10.64" ry="16.24" transform="translate(-247.7 145.39) rotate(-17.85)"/>
    <ellipse class="cls-1" cx="464.05" cy="843.45" rx="16.24" ry="10.64" transform="translate(-397.28 1273.41) rotate(-87.71)"/>
    <ellipse class="cls-1" cx="209.62" cy="940.81" rx="10.64" ry="16.24" transform="translate(-535.38 329.23) rotate(-38.06)"/>
  </g>
  <g>
    <path class="cls-8" d="M3028.36,948.36l-17.62,78.46-10.02,44.62c-35.65,9.16-81.6,18.12-132.02,25.26-50.43,7.14-97.06,11.27-133.85,12.37l-22.01-40.09-38.7-70.49,94.26,38.65,20.8-108.24,65.13,66.3,42.21-81.49,51.99,97.94,79.83-63.29Z"/>
    <ellipse class="cls-12" cx="3045.59" cy="913.14" rx="16.24" ry="10.64" transform="translate(485.28 2798.42) rotate(-53.06)"/>
    <ellipse class="cls-12" cx="2777" cy="889.82" rx="10.64" ry="16.24" transform="translate(-139.07 894.26) rotate(-17.85)"/>
    <ellipse class="cls-1" cx="2902.1" cy="872.11" rx="16.24" ry="10.64" transform="translate(1914.65 3737.02) rotate(-87.71)"/>
    <ellipse class="cls-1" cx="2647.67" cy="969.47" rx="10.64" ry="16.24" transform="translate(-34.74 1838.21) rotate(-38.06)"/>
  </g>
  <g>
    <path class="cls-3" d="M945.06,671.72l-17.45,14.52-71.85,3.64-9.42-17.3c-61.94,21.08-106.5,79.75-106.5,148.82,0,86.81,70.37,157.17,157.17,157.17s157.17-70.37,157.17-157.17c0-70.04-45.82-129.37-109.11-149.68ZM964.58,821.41l-33.32-58.1,30.2-38.53,54.68,30.2-2.61,57.28-48.95,9.15Z"/>
    <polygon class="cls-3" points="961.45 724.78 931.26 763.31 859.4 765.91 825.56 729.46 855.75 689.89 927.61 686.25 961.45 724.78"/>
    <polyline class="cls-3" points="931.26 763.31 859.4 765.91 827.64 829.04 859.4 888.8 935.94 884.63 964.58 821.41"/>
    <polygon class="cls-3" points="1035.91 864.84 1003.63 921.6 951.04 929.93 935.94 884.63 964.58 821.41 1013.52 812.25 1035.91 864.84"/>
    <line class="cls-3" x1="899.75" y1="964.82" x2="899.75" y2="978.55"/>
    <line class="cls-3" x1="844.3" y1="929.93" x2="782.08" y2="928.62"/>
    <line class="cls-3" x1="751.13" y1="880.03" x2="770.88" y2="819.02"/>
    <path class="cls-13" d="M945.06,671.72l-17.45,14.52-71.85,3.64-9.42-17.3c15.89-5.41,32.94-8.35,50.66-8.35,16.76,0,32.91,2.62,48.06,7.48Z"/>
    <polygon class="cls-13" points="825.55 729.46 859.4 765.91 827.64 829.04 770.88 819.02 774.53 757.71 825.55 729.46"/>
    <polygon class="cls-13" points="1016.13 754.98 1013.52 812.25 964.58 821.41 931.26 763.31 961.45 724.78 1016.13 754.98"/>
    <polygon class="cls-13" points="859.4 888.79 844.3 929.93 899.75 964.82 951.04 929.93 935.94 884.63 859.4 888.79"/>
    <line class="cls-3" x1="1016.13" y1="754.98" x2="1034.25" y2="744.78"/>
    <line class="cls-3" x1="774.53" y1="757.71" x2="757.02" y2="749.88"/>
  </g>
  <g>
    <path class="cls-3" d="M2078.53,1284.67l-17.45,14.52-71.85,3.64-9.42-17.3c-61.94,21.08-106.5,79.75-106.5,148.82,0,86.81,70.37,157.17,157.17,157.17s157.17-70.37,157.17-157.17c0-70.04-45.82-129.37-109.11-149.68ZM2098.04,1434.35l-33.32-58.1,30.2-38.53,54.68,30.2-2.61,57.28-48.95,9.15Z"/>
    <polygon class="cls-3" points="2094.92 1337.73 2064.72 1376.25 1992.87 1378.86 1959.03 1342.41 1989.22 1302.83 2061.08 1299.19 2094.92 1337.73"/>
    <polyline class="cls-3" points="2064.72 1376.25 1992.87 1378.86 1961.11 1441.98 1992.87 1501.74 2069.41 1497.58 2098.04 1434.35"/>
    <polygon class="cls-3" points="2169.38 1477.79 2137.09 1534.55 2084.51 1542.88 2069.41 1497.58 2098.04 1434.35 2146.99 1425.2 2169.38 1477.79"/>
    <line class="cls-3" x1="2033.22" y1="1577.76" x2="2033.22" y2="1591.5"/>
    <line class="cls-3" x1="1977.77" y1="1542.87" x2="1915.55" y2="1541.57"/>
    <line class="cls-3" x1="1884.6" y1="1492.98" x2="1904.35" y2="1431.97"/>
    <path class="cls-13" d="M2078.53,1284.67l-17.45,14.52-71.85,3.64-9.42-17.3c15.89-5.41,32.94-8.35,50.66-8.35,16.76,0,32.91,2.62,48.06,7.48Z"/>
    <polygon class="cls-13" points="1959.02 1342.41 1992.87 1378.86 1961.1 1441.98 1904.35 1431.97 1907.99 1370.66 1959.02 1342.41"/>
    <polygon class="cls-13" points="2149.6 1367.92 2146.99 1425.2 2098.04 1434.35 2064.72 1376.25 2094.92 1337.73 2149.6 1367.92"/>
    <polygon class="cls-13" points="1992.87 1501.74 1977.77 1542.87 2033.22 1577.76 2084.51 1542.87 2069.41 1497.57 1992.87 1501.74"/>
    <line class="cls-3" x1="2149.6" y1="1367.92" x2="2167.72" y2="1357.73"/>
    <line class="cls-3" x1="1907.99" y1="1370.66" x2="1890.48" y2="1362.83"/>
  </g>
  <g>
    <polygon class="cls-8" points="1232.05 861.23 945.17 1147.73 1336.72 1252.92 1232.05 861.23"/>
    <circle class="cls-11" cx="1031.08" cy="1125.48" r="22.68"/>
    <circle class="cls-5" cx="1091.73" cy="1141.77" r="22.68"/>
    <circle class="cls-11" cx="1152.39" cy="1158.07" r="22.68"/>
    <circle class="cls-5" cx="1213.04" cy="1174.36" r="22.68"/>
    <circle class="cls-5" cx="1076.37" cy="1077.91" r="22.68"/>
    <circle class="cls-11" cx="1137.03" cy="1094.21" r="22.68"/>
    <circle class="cls-11" cx="1197.68" cy="1110.51" r="22.68"/>
    <circle class="cls-5" cx="1121.67" cy="1030.35" r="22.68"/>
    <circle class="cls-8" cx="1182.32" cy="1046.65" r="22.68"/>
    <circle class="cls-11" cx="1166.44" cy="984.75" r="22.68"/>
    <circle class="cls-11" cx="1227.09" cy="1001.04" r="22.68"/>
    <circle class="cls-5" cx="1210.95" cy="940.1" r="22.68"/>
    <circle class="cls-5" cx="1242.98" cy="1062.94" r="22.68"/>
    <circle class="cls-5" cx="1258.34" cy="1126.8" r="22.68"/>
    <circle class="cls-11" cx="1273.7" cy="1190.66" r="22.68"/>
  </g>
  <g>
    <polygon class="cls-8" points="1793.91 227.68 1708.6 624.04 2094.52 499.74 1793.91 227.68"/>
    <circle class="cls-11" cx="1768.66" cy="558.7" r="22.68"/>
    <circle class="cls-5" cx="1828.44" cy="539.44" r="22.68"/>
    <circle class="cls-11" cx="1888.22" cy="520.19" r="22.68"/>
    <circle class="cls-5" cx="1948" cy="500.93" r="22.68"/>
    <circle class="cls-5" cx="1780.86" cy="494.16" r="22.68"/>
    <circle class="cls-11" cx="1840.64" cy="474.91" r="22.68"/>
    <circle class="cls-11" cx="1900.43" cy="455.65" r="22.68"/>
    <circle class="cls-5" cx="1793.07" cy="429.63" r="22.68"/>
    <circle class="cls-8" cx="1852.85" cy="410.37" r="22.68"/>
    <circle class="cls-11" cx="1805.89" cy="367.02" r="22.68"/>
    <circle class="cls-11" cx="1865.68" cy="347.77" r="22.68"/>
    <circle class="cls-5" cx="1819.02" cy="305.36" r="22.68"/>
    <circle class="cls-5" cx="1912.63" cy="391.12" r="22.68"/>
    <circle class="cls-5" cx="1960.21" cy="436.4" r="22.68"/>
    <circle class="cls-11" cx="2007.78" cy="481.68" r="22.68"/>
  </g>
  <g>
    <path class="cls-19" d="M564.47,1282.78c8.01,0,16.2,3.75,20.13,10.4,3,4.92,3.81,10.88,3.26,16.6-1.52,15.71-13.16,30.8-19.3,45.11-4.49,9.61-7.27,20.01-16.97,20.01-1.11,0-2.31-.14-3.61-.42-3.57-.79-7.46-2.59-11.28-4.43-5.26-2.58-10.6-4.8-16.14-6.83-22.33-7.74-57.11-21.04-41.19-49.31,4.89-8.55,13.85-14.11,23.16-14.11,2.82,0,5.67.51,8.44,1.6,5.79,2.08,11.55,5.75,17.09,5.75,2.61,0,5.17-.81,7.66-2.99l.12-.1c6.74-5.65,10.65-15.92,19.45-19.45,2.84-1.24,5.99-1.83,9.18-1.83M564.47,1266.78c-5.43,0-10.6,1.03-15.36,3.08-9.36,3.84-14.93,11.18-19,16.55-1.17,1.54-2.36,3.11-3.4,4.26-1.2-.46-2.72-1.13-3.86-1.64-1.87-.83-3.98-1.77-6.26-2.6-4.5-1.74-9.23-2.62-14.06-2.62-15.04,0-29.24,8.49-37.05,22.17-.02.03-.03.06-.05.09-8.26,14.67-6.61,26.69-3.77,34.19,8.47,22.36,37.7,32.55,53.52,38.04,5.35,1.97,10.09,3.97,14.47,6.12.04.02.08.04.12.06,4.62,2.22,9.56,4.48,14.76,5.63,2.4.53,4.78.8,7.06.8,6.04,0,14.74-1.88,21.81-10.83,3.58-4.52,5.86-9.77,7.87-14.4.61-1.41,1.19-2.74,1.78-4.01.07-.15.14-.31.21-.46,1.71-3.99,4.08-8.33,6.58-12.93,5.91-10.84,12.6-23.13,13.94-36.95.94-9.8-.95-18.91-5.47-26.38-6.67-11.2-19.63-18.16-33.85-18.16h0Z"/>
    <path class="cls-20" d="M552.55,1355.87c-.81,2.62-3.8,3.86-6.21,2.55-3.3-1.79-7.15-3.66-11.65-5.6-2.87-1.24-6.79-2.36-11.77-3.79-11.16-3.2-34.38-9.87-37.76-19.2-1.01-2.77.06-6.52,3.17-11.12,3.32-4.91,6.81-7.98,10.39-9.13,10.7-3.45,24.64,10.95,27.79,14.99h0c5.04,6.48,15.32,4.46,17.52-3.45h0c5.39-19.32,8.56-25.7,13.55-27.31,2.31-.74,5.67-.84,9.99-.3,4.55.57,7.43,2.65,8.81,6.36,2.29,6.2.6,18.26-11.74,31.85-4.7,5.18-8.76,13.29-12.1,24.14Z"/>
    <path class="cls-19" d="M712.61,1235.07c8.01,0,16.2,3.75,20.13,10.4,3,4.92,3.81,10.88,3.26,16.6-1.52,15.71-13.16,30.8-19.3,45.11-4.49,9.61-7.27,20.01-16.97,20.01-1.11,0-2.31-.14-3.61-.42-3.57-.79-7.46-2.59-11.28-4.43-5.26-2.58-10.6-4.8-16.14-6.83-22.33-7.74-57.11-21.04-41.19-49.31,4.89-8.55,13.85-14.11,23.16-14.11,2.82,0,5.67.51,8.44,1.6,5.79,2.08,11.55,5.75,17.09,5.75,2.61,0,5.17-.81,7.66-2.99l.12-.1c6.74-5.65,10.65-15.92,19.45-19.45,2.84-1.24,5.99-1.83,9.18-1.83M712.61,1219.07c-5.43,0-10.6,1.03-15.36,3.07-9.36,3.84-14.93,11.18-19,16.55-1.17,1.54-2.36,3.11-3.4,4.26-1.2-.46-2.72-1.13-3.86-1.64-1.87-.83-3.98-1.77-6.26-2.6-4.51-1.74-9.23-2.62-14.06-2.62-15.04,0-29.24,8.49-37.05,22.17-.02.03-.03.06-.05.09-8.26,14.67-6.61,26.69-3.77,34.19,8.47,22.37,37.7,32.55,53.52,38.04,5.35,1.97,10.09,3.97,14.47,6.12.04.02.08.04.12.06,4.81,2.31,9.56,4.48,14.76,5.63,2.4.53,4.78.8,7.06.8,6.04,0,14.74-1.88,21.81-10.83,3.58-4.52,5.86-9.77,7.87-14.4.61-1.41,1.19-2.74,1.78-4.01.07-.15.14-.31.21-.46,1.71-3.99,4.08-8.33,6.58-12.93,5.91-10.84,12.6-23.13,13.94-36.95.94-9.8-.95-18.91-5.47-26.38-6.67-11.2-19.63-18.16-33.85-18.16h0Z"/>
    <path class="cls-20" d="M700.68,1308.15c-.81,2.62-3.8,3.86-6.21,2.55-3.3-1.79-7.15-3.66-11.65-5.6-2.87-1.24-6.79-2.36-11.77-3.79-11.16-3.2-34.38-9.87-37.76-19.2-1.01-2.77.06-6.52,3.17-11.12,3.32-4.91,6.81-7.98,10.39-9.13,10.7-3.45,24.64,10.95,27.79,14.99h0c5.04,6.48,15.32,4.46,17.52-3.45h0c5.39-19.32,8.56-25.7,13.55-27.31,2.31-.74,5.67-.84,9.99-.3,4.55.57,7.43,2.65,8.81,6.36,2.29,6.2.6,18.26-11.74,31.85-4.7,5.18-8.76,13.29-12.1,24.14Z"/>
    <path class="cls-19" d="M863.39,1186.5c8.01,0,16.2,3.75,20.13,10.4,3,4.92,3.81,10.88,3.26,16.6-1.52,15.71-13.16,30.8-19.3,45.11-4.49,9.61-7.27,20.01-16.97,20.01-1.11,0-2.31-.14-3.61-.42-3.57-.79-7.46-2.59-11.28-4.43-5.26-2.58-10.6-4.8-16.14-6.83-22.33-7.74-57.11-21.04-41.19-49.31,4.89-8.55,13.85-14.11,23.16-14.11,2.82,0,5.67.51,8.44,1.6,5.79,2.08,11.55,5.75,17.09,5.75,2.61,0,5.17-.81,7.66-2.99l.12-.1c6.74-5.65,10.65-15.92,19.45-19.45,2.84-1.24,5.99-1.83,9.18-1.83M863.39,1170.5c-5.43,0-10.6,1.03-15.36,3.07-9.37,3.84-14.93,11.18-19,16.55-1.17,1.54-2.36,3.11-3.4,4.26-1.2-.46-2.72-1.13-3.86-1.64-1.87-.83-3.98-1.77-6.26-2.6-4.51-1.74-9.23-2.62-14.06-2.62-15.04,0-29.24,8.49-37.05,22.17-.02.03-.03.06-.05.09-8.26,14.67-6.61,26.69-3.77,34.19,8.47,22.37,37.71,32.55,53.52,38.04,5.35,1.97,10.09,3.97,14.47,6.12.04.02.08.04.12.06,4.62,2.22,9.56,4.48,14.76,5.63,2.4.53,4.78.8,7.06.8,6.04,0,14.74-1.88,21.81-10.83,3.58-4.52,5.86-9.77,7.87-14.4.61-1.41,1.19-2.74,1.78-4.01.07-.15.14-.31.21-.46,1.71-3.99,4.08-8.33,6.58-12.93,5.91-10.84,12.6-23.13,13.94-36.95.94-9.8-.95-18.91-5.47-26.38-6.67-11.21-19.63-18.16-33.85-18.16h0Z"/>
    <path class="cls-20" d="M857.95,1237.9c1.48-.48,2.74,1.16,1.89,2.47-3.15,4.91-5.96,11.34-8.38,19.21-.8,2.62-3.8,3.86-6.21,2.56-3.3-1.79-7.15-3.67-11.65-5.6-2.86-1.24-6.79-2.36-11.76-3.8-.02,0-.03,0-.05-.01-1.57-.45-1.61-2.67-.05-3.17l36.21-11.66Z"/>
  </g>
  <g>
    <path class="cls-19" d="M1846.73,82.43c6.18,0,12.24,2.16,16.89,6.74,5.7,5.29,10.35,12.91,17.8,12.91,1.21,0,2.49-.2,3.87-.65l.15-.04c8.31-2.52,15.85-10.25,25.16-10.25.12,0,.25,0,.37,0,.05,0,.1,0,.15,0,10.86,0,22.04,8.75,23.43,19.39.82,5.71-.77,11.5-3.52,16.55-7.58,13.85-24.2,23.15-35.48,33.9-6.55,5.86-12.23,12.68-19.06,12.68-2.36,0-4.85-.81-7.56-2.76-2.98-2.13-5.84-5.31-8.63-8.5-3.82-4.44-7.86-8.58-12.16-12.62-17.49-15.9-44.25-41.79-18.5-61.53,5.03-3.81,11.11-5.82,17.09-5.82M1846.73,66.43h0c-9.52,0-19.02,3.22-26.74,9.06-.03.02-.05.04-.08.06-13.36,10.24-16.57,21.95-16.9,29.96-1,23.89,21.88,44.75,34.26,56.01,4.15,3.91,7.72,7.62,10.9,11.32.03.03.06.07.09.1,3.51,4.01,7.03,7.88,11.36,10.98,5.32,3.81,11,5.75,16.88,5.75,11.94,0,20.02-7.64,26.51-13.77,1.12-1.06,2.17-2.05,3.21-2.98.12-.11.25-.23.37-.34,3.14-3,7.02-6.06,11.13-9.3,9.69-7.65,20.68-16.32,27.34-28.5,4.72-8.64,6.56-17.77,5.34-26.41-2.46-18.32-20.06-33.21-39.28-33.21h-.03c-.16,0-.33,0-.49,0-9.89,0-17.75,4.48-23.49,7.75-1.68.96-3.39,1.93-4.8,2.58-.93-.9-2.06-2.11-2.91-3.03-1.39-1.5-2.97-3.2-4.73-4.85-7.41-7.21-17.32-11.17-27.95-11.17h0Z"/>
    <path class="cls-20" d="M1880.44,155.59c-1.77,2.09-5.01,2.05-6.71-.09-2.33-2.94-5.14-6.18-8.51-9.72-2.15-2.26-5.32-4.84-9.33-8.11-9-7.33-27.73-22.59-27.18-32.49.16-2.95,2.62-5.97,7.29-8.98,4.98-3.21,9.4-4.66,13.14-4.32,11.2,1.04,18.36,19.75,19.66,24.71h0c2.09,7.94,12.33,10.12,17.47,3.71h0c12.55-15.65,17.97-20.27,23.2-19.79,2.41.22,5.54,1.45,9.31,3.65,3.96,2.32,5.79,5.36,5.6,9.31-.33,6.6-6.63,17.02-23.31,24.68-6.36,2.92-13.28,8.78-20.62,17.44Z"/>
    <path class="cls-19" d="M2001.69,96.77c6.18,0,12.24,2.16,16.89,6.74,5.7,5.29,10.35,12.91,17.8,12.91,1.21,0,2.49-.2,3.87-.65l.15-.04c8.31-2.52,15.85-10.25,25.16-10.25.12,0,.25,0,.37,0,.05,0,.1,0,.15,0,10.86,0,22.04,8.75,23.43,19.39.82,5.71-.77,11.5-3.52,16.55-7.58,13.85-24.2,23.15-35.48,33.9-6.55,5.86-12.23,12.68-19.06,12.68-2.36,0-4.85-.81-7.56-2.76-2.98-2.13-5.84-5.31-8.63-8.5-3.82-4.44-7.86-8.58-12.16-12.62-17.49-15.9-44.25-41.79-18.5-61.53,5.03-3.81,11.11-5.82,17.09-5.82M2001.69,80.77v16s0-16,0-16c-9.52,0-19.02,3.22-26.74,9.06-.03.02-.05.04-.08.06-13.36,10.24-16.57,21.95-16.9,29.96-1,23.89,21.88,44.75,34.26,56.01,4.15,3.91,7.72,7.62,10.9,11.32.03.03.06.07.09.1,3.51,4.01,7.03,7.87,11.36,10.98,5.32,3.81,11,5.75,16.88,5.75,11.94,0,20.02-7.64,26.51-13.77,1.12-1.06,2.17-2.05,3.21-2.98.12-.11.25-.23.37-.34,3.14-3,7.02-6.06,11.13-9.3,9.69-7.65,20.68-16.32,27.34-28.5,4.72-8.64,6.56-17.76,5.34-26.41-2.46-18.32-20.06-33.21-39.28-33.21h-.03c-.16,0-.33,0-.49,0-9.89,0-17.75,4.48-23.49,7.75-1.68.96-3.39,1.93-4.8,2.58-.93-.9-2.06-2.11-2.91-3.03-1.39-1.5-2.97-3.2-4.73-4.85-7.41-7.21-17.32-11.17-27.94-11.17h0Z"/>
    <path class="cls-20" d="M2035.4,169.93c-1.77,2.09-5.01,2.05-6.71-.09-2.33-2.94-5.14-6.18-8.51-9.72-2.15-2.26-5.32-4.84-9.33-8.11-9-7.33-27.73-22.59-27.18-32.49.16-2.95,2.62-5.97,7.29-8.98,4.98-3.21,9.4-4.66,13.14-4.32,11.2,1.04,18.36,19.75,19.66,24.71h0c2.09,7.94,12.33,10.12,17.47,3.71h0c12.55-15.65,17.97-20.27,23.2-19.79,2.41.22,5.54,1.45,9.31,3.65,3.96,2.32,5.79,5.36,5.6,9.31-.33,6.6-6.63,17.02-23.31,24.68-6.36,2.92-13.28,8.78-20.62,17.44Z"/>
    <path class="cls-19" d="M2159.43,111.37c6.18,0,12.24,2.16,16.89,6.74,5.7,5.29,10.35,12.91,17.8,12.91,1.21,0,2.49-.2,3.87-.65l.15-.04c8.31-2.52,15.85-10.25,25.16-10.25.12,0,.25,0,.37,0,.05,0,.1,0,.15,0,10.86,0,22.04,8.75,23.43,19.39.82,5.71-.77,11.5-3.52,16.55-7.58,13.85-24.2,23.15-35.48,33.9-6.55,5.86-12.23,12.68-19.06,12.68-2.36,0-4.85-.81-7.56-2.76-2.98-2.13-5.84-5.31-8.63-8.5-3.82-4.44-7.86-8.58-12.16-12.62-17.49-15.9-44.25-41.79-18.5-61.53,5.03-3.81,11.11-5.82,17.09-5.82M2159.43,95.37v16s0-16,0-16c-9.52,0-19.02,3.22-26.74,9.06-.03.02-.05.04-.08.06-13.36,10.24-16.57,21.95-16.9,29.96-1,23.9,21.88,44.75,34.27,56.01,4.15,3.91,7.71,7.61,10.9,11.31.03.03.06.07.09.1,3.37,3.85,7.03,7.88,11.36,10.98,5.32,3.81,11,5.75,16.88,5.75,11.94,0,20.02-7.64,26.51-13.77,1.12-1.06,2.17-2.05,3.21-2.98.12-.11.25-.23.37-.34,3.14-3,7.02-6.06,11.13-9.3,9.69-7.65,20.68-16.32,27.34-28.5,4.72-8.64,6.56-17.77,5.34-26.41-2.46-18.32-20.06-33.21-39.28-33.21h-.03c-.16,0-.33,0-.49,0-9.89,0-17.75,4.48-23.49,7.75-1.68.96-3.39,1.93-4.8,2.58-.93-.9-2.06-2.11-2.91-3.03-1.39-1.5-2.97-3.2-4.73-4.85-7.41-7.21-17.32-11.17-27.94-11.17h0Z"/>
    <path class="cls-20" d="M2207.63,167.14c1.55.14,2.06,2.14.77,3.02-4.83,3.28-9.93,8.08-15.25,14.37-1.77,2.1-5.01,2.06-6.72-.09-2.33-2.95-5.13-6.18-8.51-9.73-2.14-2.27-5.32-4.84-9.32-8.11-.01-.01-.02-.02-.04-.03-1.27-1.03-.43-3.09,1.2-2.94l37.88,3.5Z"/>
  </g>
</svg>