<svg width="415" height="529" viewBox="0 0 415 529" fill="none" xmlns="http://www.w3.org/2000/svg">
<path d="M357.205 424.942H75.8741C74.493 424.94 73.169 424.389 72.1924 423.41C71.2158 422.431 70.6664 421.103 70.6646 419.718V349.738C70.6664 348.353 71.2158 347.025 72.1924 346.046C73.169 345.067 74.493 344.516 75.8741 344.514H357.205C358.586 344.516 359.91 345.067 360.886 346.046C361.863 347.025 362.412 348.353 362.414 349.738V419.717C362.413 421.102 361.863 422.43 360.887 423.41C359.91 424.389 358.586 424.94 357.205 424.942ZM75.8741 346.599C75.0464 346.601 74.2531 346.932 73.6678 347.519C73.0825 348.105 72.7529 348.901 72.7511 349.731V419.71C72.7529 420.54 73.0825 421.336 73.6678 421.923C74.2531 422.51 75.0464 422.84 75.8741 422.842H357.205C358.033 422.84 358.826 422.51 359.411 421.923C359.997 421.336 360.326 420.54 360.328 419.71V349.738C360.326 348.908 359.997 348.112 359.411 347.525C358.826 346.938 358.033 346.608 357.205 346.606L75.8741 346.599Z" fill="#3F3D56"/>
<path d="M49.3184 509.404C61.0389 509.404 70.5402 499.877 70.5402 488.124C70.5402 476.371 61.0389 466.844 49.3184 466.844C37.598 466.844 28.0967 476.371 28.0967 488.124C28.0967 499.877 37.598 509.404 49.3184 509.404Z" fill="#E6E6E6"/>
<path d="M98.3319 474.671C97.3939 474.671 96.4943 475.045 95.831 475.71C95.1677 476.375 94.7952 477.277 94.7952 478.218C94.7952 479.158 95.1677 480.061 95.831 480.726C96.4943 481.391 97.3939 481.764 98.3319 481.764H265.077C265.541 481.765 266.001 481.675 266.431 481.497C266.86 481.32 267.251 481.059 267.58 480.731C267.909 480.402 268.17 480.012 268.349 479.582C268.527 479.152 268.62 478.691 268.621 478.225C268.621 477.759 268.531 477.298 268.354 476.867C268.177 476.437 267.917 476.045 267.59 475.715C267.262 475.385 266.872 475.123 266.444 474.944C266.015 474.765 265.555 474.672 265.091 474.671H98.3319Z" fill="#E6E6E6"/>
<path d="M98.3321 495.953C97.3941 495.952 96.4938 496.323 95.8292 496.987C95.1646 497.651 94.7902 498.552 94.7883 499.493C94.7865 500.434 95.1573 501.336 95.8193 502.003C96.4813 502.669 97.3801 503.045 98.3181 503.047H170.083C171.021 503.047 171.921 502.673 172.584 502.008C173.247 501.343 173.62 500.441 173.62 499.5C173.62 498.559 173.247 497.657 172.584 496.992C171.921 496.327 171.021 495.953 170.083 495.953H98.3321Z" fill="#E6E6E6"/>
<path d="M119.587 405.669C131.307 405.669 140.809 396.141 140.809 384.388C140.809 372.635 131.307 363.108 119.587 363.108C107.866 363.108 98.365 372.635 98.365 384.388C98.365 396.141 107.866 405.669 119.587 405.669Z" fill="#E6E6E6"/>
<path d="M168.6 370.936C167.662 370.936 166.763 371.309 166.099 371.975C165.436 372.64 165.063 373.542 165.063 374.482C165.063 375.423 165.436 376.325 166.099 376.99C166.763 377.655 167.662 378.029 168.6 378.029H335.345C336.283 378.029 337.183 377.655 337.846 376.99C338.509 376.325 338.882 375.423 338.882 374.482C338.882 373.542 338.509 372.64 337.846 371.975C337.183 371.309 336.283 370.936 335.345 370.936H168.6Z" fill="#E6E6E6"/>
<path d="M168.6 392.218C167.662 392.218 166.763 392.591 166.099 393.256C165.436 393.921 165.063 394.823 165.063 395.764C165.063 396.705 165.436 397.607 166.099 398.272C166.763 398.937 167.662 399.311 168.6 399.311H240.351C241.289 399.311 242.189 398.937 242.852 398.272C243.515 397.607 243.888 396.705 243.888 395.764C243.888 394.823 243.515 393.921 242.852 393.256C242.189 392.591 241.289 392.218 240.351 392.218H168.6Z" fill="#E6E6E6"/>
<path d="M302.552 251.723H21.2215C19.8404 251.722 18.5164 251.171 17.5398 250.191C16.5632 249.212 16.0138 247.884 16.012 246.499V5.25753C16.0138 3.87261 16.5632 2.54492 17.5398 1.56563C18.5164 0.586341 19.8404 0.0353819 21.2215 0.0335693H302.552C303.933 0.0353819 305.257 0.586341 306.234 1.56563C307.21 2.54492 307.76 3.87261 307.762 5.25753V246.498C307.76 247.883 307.211 249.211 306.234 250.191C305.257 251.17 303.933 251.721 302.552 251.722V251.723ZM21.2215 2.11904C20.3938 2.12085 19.6005 2.45137 19.0152 3.03828C18.4299 3.62518 18.1003 4.42067 18.0985 5.25068V246.498C18.1003 247.328 18.4299 248.124 19.0152 248.711C19.6005 249.298 20.3938 249.628 21.2215 249.63H302.552C303.38 249.629 304.173 249.298 304.759 248.711C305.344 248.124 305.674 247.329 305.675 246.498V5.25753C305.673 4.42753 305.344 3.63203 304.758 3.04513C304.173 2.45823 303.38 2.12771 302.552 2.1259L21.2215 2.11904Z" fill="#3F3D56"/>
<path d="M64.9344 63.7359C76.6549 63.7359 86.1562 54.2083 86.1562 42.4554C86.1562 30.7025 76.6549 21.1749 64.9344 21.1749C53.2139 21.1749 43.7126 30.7025 43.7126 42.4554C43.7126 54.2083 53.2139 63.7359 64.9344 63.7359Z" fill="#FFCE04"/>
<path d="M113.948 28.2683C113.01 28.2683 112.11 28.642 111.447 29.3071C110.783 29.9722 110.411 30.8743 110.411 31.8149C110.411 32.7555 110.783 33.6576 111.447 34.3227C112.11 34.9878 113.01 35.3615 113.948 35.3615H280.692C281.63 35.3615 282.53 34.9878 283.193 34.3227C283.857 33.6576 284.229 32.7555 284.229 31.8149C284.229 30.8743 283.857 29.9722 283.193 29.3071C282.53 28.642 281.63 28.2683 280.692 28.2683H113.948Z" fill="#CCCCCC"/>
<path d="M113.948 49.55C113.01 49.55 112.11 49.9237 111.447 50.5888C110.783 51.2539 110.411 52.156 110.411 53.0966C110.411 54.0372 110.783 54.9393 111.447 55.6044C112.11 56.2696 113.01 56.6432 113.948 56.6432H185.699C186.637 56.6432 187.536 56.2696 188.2 55.6044C188.863 54.9393 189.235 54.0372 189.235 53.0966C189.235 52.156 188.863 51.2539 188.2 50.5888C187.536 49.9237 186.637 49.55 185.699 49.55H113.948Z" fill="#CCCCCC"/>
<g filter="url(#filter0_d_282_1971)">
<path d="M369.393 220.428H88.0616C86.6804 220.426 85.3563 219.875 84.3796 218.896C83.403 217.917 82.8536 216.589 82.8521 215.204V91.3993C82.8536 90.0143 83.403 88.6864 84.3796 87.7071C85.3563 86.7277 86.6804 86.1768 88.0616 86.1753H369.393C370.774 86.1768 372.099 86.7277 373.075 87.7071C374.052 88.6864 374.601 90.0143 374.603 91.3993V215.204C374.601 216.589 374.052 217.917 373.075 218.896C372.099 219.875 370.774 220.426 369.393 220.428Z" fill="#FFCE04"/>
</g>
<path d="M145.355 129.327C144.417 129.327 143.517 129.701 142.854 130.366C142.191 131.031 141.818 131.933 141.818 132.874C141.818 133.814 142.191 134.716 142.854 135.381C143.517 136.046 144.417 136.42 145.355 136.42H312.101C313.039 136.42 313.938 136.046 314.602 135.381C315.265 134.716 315.638 133.814 315.638 132.874C315.638 131.933 315.265 131.031 314.602 130.366C313.938 129.701 313.039 129.327 312.101 129.327H145.355Z" fill="white"/>
<path d="M145.355 149.878C144.417 149.878 143.517 150.252 142.854 150.917C142.191 151.582 141.818 152.484 141.818 153.425C141.818 154.366 142.191 155.268 142.854 155.933C143.517 156.598 144.417 156.971 145.355 156.971H312.101C313.039 156.971 313.938 156.598 314.602 155.933C315.265 155.268 315.638 154.366 315.638 153.425C315.638 152.484 315.265 151.582 314.602 150.917C313.938 150.252 313.039 149.878 312.101 149.878H145.355Z" fill="white"/>
<path d="M145.355 170.182C144.417 170.182 143.517 170.555 142.854 171.22C142.191 171.885 141.818 172.788 141.818 173.728C141.818 174.669 142.191 175.571 142.854 176.236C143.517 176.901 144.417 177.275 145.355 177.275H217.106C218.044 177.275 218.944 176.901 219.607 176.236C220.27 175.571 220.643 174.669 220.643 173.728C220.643 172.788 220.27 171.885 219.607 171.22C218.944 170.555 218.044 170.182 217.106 170.182H145.355Z" fill="white"/>
<path d="M286.937 528.678H5.60678C4.22568 528.676 2.90163 528.125 1.92504 527.146C0.948449 526.166 0.399024 524.839 0.397217 523.454V453.473C0.398767 452.088 0.948095 450.761 1.92474 449.781C2.90139 448.802 4.2256 448.251 5.60678 448.25H286.937C288.318 448.251 289.643 448.802 290.619 449.782C291.596 450.761 292.145 452.089 292.147 453.473V523.453C292.145 524.838 291.596 526.166 290.619 527.145C289.643 528.124 288.318 528.675 286.937 528.677V528.678ZM5.60678 450.335C4.77907 450.337 3.98573 450.667 3.40044 451.254C2.81516 451.841 2.48558 452.637 2.48377 453.467V523.446C2.48558 524.276 2.81516 525.072 3.40044 525.658C3.98573 526.245 4.77907 526.576 5.60678 526.578H286.937C287.765 526.576 288.559 526.246 289.144 525.659C289.729 525.072 290.059 524.276 290.06 523.446V453.473C290.059 452.643 289.729 451.848 289.144 451.261C288.558 450.674 287.765 450.344 286.937 450.342L5.60678 450.335Z" fill="#3F3D56"/>
<defs>
<filter id="filter0_d_282_1971" x="42.8521" y="58.1753" width="371.751" height="214.252" filterUnits="userSpaceOnUse" color-interpolation-filters="sRGB">
<feFlood flood-opacity="0" result="BackgroundImageFix"/>
<feColorMatrix in="SourceAlpha" type="matrix" values="0 0 0 0 0 0 0 0 0 0 0 0 0 0 0 0 0 0 127 0" result="hardAlpha"/>
<feOffset dy="12"/>
<feGaussianBlur stdDeviation="20"/>
<feComposite in2="hardAlpha" operator="out"/>
<feColorMatrix type="matrix" values="0 0 0 0 1 0 0 0 0 0.930046 0 0 0 0 0.641667 0 0 0 1 0"/>
<feBlend mode="normal" in2="BackgroundImageFix" result="effect1_dropShadow_282_1971"/>
<feBlend mode="normal" in="SourceGraphic" in2="effect1_dropShadow_282_1971" result="shape"/>
</filter>
</defs>
</svg>
