<?xml version="1.0" encoding="UTF-8"?><svg id="Layer_1" xmlns="http://www.w3.org/2000/svg" viewBox="0 0 360 360"><defs><style>.cls-1{stroke:#f04a3a;stroke-linecap:round;stroke-linejoin:round;stroke-width:0px;}.cls-1,.cls-2{fill:#231f20;}.cls-3{fill:#fff;}.cls-4{fill:#e41e2d;}</style></defs><circle class="cls-3" cx="180.32" cy="180.31" r="137.79"/><g><path class="cls-2" d="M96.15,162.4c-.48-.07-.95,.17-1.25,.65-.11,.18-.2,.37-.26,.58l-.03-.05-17.55-2.55c-1.17-.17-2.23,.09-3.1,.76-.87,.67-1.41,1.73-1.62,3.14-.2,1.37,.03,2.53,.69,3.45,.66,.92,1.58,1.48,2.72,1.64l17.55,2.55s.03,0,.04,0c0,.38,.07,.68,.21,.9,.18,.34,.51,.57,.89,.62,.08,.01,.16,.02,.24,.01,.07,0,.13-.01,.2-.03,.3-.07,.56-.26,.79-.56,.2-.28,.34-.63,.4-1.06v-.14c0-.08,0-.16,0-.22v-.23c0-.27-.02-.51-.06-.73,.12-.2,.21-.36,.26-.52,.07-.21,.13-.48,.19-.83,.06-.4,.03-.76-.09-1.09-.04-.12-.09-.23-.15-.32,.09-.08,.17-.17,.24-.27,.21-.28,.34-.63,.4-1.06l.04-.58c-.01-.24-.04-.48-.09-.72,.21-.38,.36-.84,.44-1.37,.06-.39,.03-.76-.09-1.09-.26-.72-.79-.87-1-.9Zm-1.78,5.72c-.08,.08-.16,.16-.23,.26-.12,.18-.22,.38-.28,.6h-.03l-13.52-1.97,.26-1.82,13.53,1.97h.03c0,.38,.07,.69,.21,.9,.01,.02,.02,.04,.03,.06Zm-19.04-3.28c.15-.1,.32-.17,.49-.21,.09-.02,.19-.04,.29-.04,.14,0,.28,0,.44,.02l1.34,.2-.26,1.82-1.34-.2c-.17-.02-.35-.08-.53-.16-.16-.07-.3-.16-.41-.27-.11-.11-.21-.24-.27-.37-.04-.08-.04-.18-.03-.31,.03-.22,.12-.36,.3-.47Z"/><path class="cls-2" d="M97.35,149.27c-.97-.31-2.13-.48-3.44-.5-1.28-.03-3.21,.16-5.69,.54-.94,.14-1.77,.25-2.5,.35-.62,.08-1.17,.13-1.65,.16h-.19c-1.49,.08-2.76-.04-3.77-.36-.16-.05-.33-.13-.5-.24-.15-.09-.27-.21-.36-.34-.1-.13-.16-.26-.21-.41-.02-.08-.01-.18,.03-.31,.08-.24,.21-.41,.68-.52,.3-.06,.59-.04,1.01,.09l.31,.03c.38-.02,1.07-.23,1.42-1.34,.11-.34,.36-1.12-.13-1.67-.12-.13-.2-.21-.24-.25l-.09-.09-2.87-.96c-.44-.14-.92,0-1.3,.37-.25,.24-.44,.56-.56,.94-.13,.41-.16,.77-.1,1.09-.09,.13-.17,.26-.25,.39-.18,.3-.34,.67-.47,1.09-.44,1.36-.41,2.55,.07,3.53,.49,.99,1.31,1.68,2.45,2.05,1.03,.33,2.2,.51,3.46,.54,.33,0,.72,0,1.16-.03h0c.37-.02,.78-.06,1.22-.11,.93-.1,2.04-.25,3.3-.45,.78-.12,1.44-.22,2-.29,.57-.07,1.02-.14,1.31-.18,1.91-.21,3.53-.11,4.8,.3,.32,.1,.6,.29,.83,.55,.29,.34,.27,.56,.21,.75-.08,.25-.21,.42-.69,.52-.28,.05-.62,.03-1.02-.06h-.46c-.3,.06-.58,.22-.81,.49-.2,.23-.36,.51-.46,.82-.22,.68-.17,1.24,.13,1.68l.36,.35,2.84,.95c.14,.04,.28,.06,.42,.05,.05,0,.11-.01,.16-.02,.26-.05,.5-.19,.72-.4,.25-.24,.44-.56,.56-.94,.13-.4,.16-.76,.09-1.08,.31-.45,.56-.96,.74-1.52,.44-1.36,.41-2.55-.08-3.53-.49-.98-1.32-1.66-2.45-2.02Z"/><path class="cls-2" d="M104,140.74c-.42-.2-.92-.12-1.34,.2-.16,.13-.31,.28-.43,.46l-.03-.02-17.29-8.15-.03-.02c.1-.32,.13-.6,.07-.85-.09-.43-.33-.76-.69-.93-.42-.2-.91-.13-1.34,.2-.28,.21-.51,.5-.68,.86-.21,.45-.34,.89-.37,1.32-.31,.3-.57,.69-.79,1.15-.17,.36-.25,.72-.23,1.07,.04,.77,.5,1.06,.7,1.16,.44,.21,.96,.11,1.38-.25,.15-.13,.28-.27,.39-.43,.01,0,.03,0,.04,.01l17.3,8.15h.03c-.12,.39-.14,.71-.07,.97,.08,.38,.33,.69,.67,.85,.18,.08,.37,.12,.57,.11h.11c.23-.05,.44-.14,.65-.3,.28-.21,.51-.5,.69-.89l.04-.11c.03-.11,.09-.26,.16-.47,.09-.23,.14-.49,.15-.76,.18-.17,.35-.37,.53-.62l.12-.24s.02-.03,.08-.12l.07-.12c.17-.36,.25-.72,.23-1.07-.03-.76-.5-1.06-.7-1.16Zm-2.16,5.47h0Z"/><path class="cls-2" d="M111.65,127.96c-.41-.26-.93-.23-1.4,.08-.16,.11-.31,.23-.44,.38-.01,0-.03-.01-.04-.02l-14.94-9.55c-1-.64-2.06-.84-3.14-.58-1.07,.25-2,.99-2.77,2.2-.75,1.17-1.01,2.32-.79,3.43,.22,1.12,.83,2,1.8,2.61l14.94,9.56,.03,.02c-.16,.34-.22,.65-.18,.91,.03,.39,.23,.73,.56,.94,.21,.13,.46,.2,.71,.18h.1c.18-.03,.36-.1,.55-.2,.3-.17,.56-.43,.8-.8l.06-.12c.03-.08,.06-.15,.09-.21l.1-.2c.11-.25,.18-.48,.23-.69,.19-.13,.34-.24,.45-.36,.15-.16,.32-.38,.51-.68,.21-.34,.34-.68,.37-1.03,.01-.13,0-.25,0-.36,.11-.03,.22-.08,.33-.14,.3-.17,.57-.43,.8-.8l.27-.51c.09-.22,.16-.46,.22-.69,.35-.26,.68-.62,.96-1.07,.21-.34,.34-.68,.37-1.03,.06-.76-.36-1.12-.55-1.24Zm-19.77-4.52c-.15-.09-.29-.22-.42-.36-.12-.13-.2-.27-.26-.42-.06-.15-.09-.3-.09-.45,0-.08,.03-.18,.1-.29,.12-.19,.25-.28,.46-.31h.02c.4-.06,.79,.03,1.18,.29l1.14,.73-.99,1.55-1.14-.73Zm15.79,9c-.11,.04-.21,.08-.32,.15-.18,.11-.35,.25-.5,.43l-.03-.02-11.51-7.36,.99-1.55,11.51,7.36,.03,.02c-.16,.34-.22,.65-.18,.91,0,.02,0,.04,0,.06Zm-1.71,5.27h0Z"/><path class="cls-2" d="M120.98,117.01c-.37-.32-.88-.37-1.4-.13-.17,.08-.34,.19-.49,.31-.01,0-.02-.02-.03-.03l-13.38-11.65c-.87-.76-1.85-1.11-2.92-1.04l-.24,.02c-1.04,.13-2.02,.72-2.92,1.75-.56,.64-.94,1.31-1.12,1.99-.34,.12-.66,.29-.93,.51-.13,.09-.26,.21-.37,.34-.04,.04-.09,.09-.18,.17l-.07,.07c-.26,.3-.44,.63-.51,.97-.17,.74,.19,1.16,.36,1.31,.35,.3,.86,.37,1.34,.17,.19-.08,.37-.19,.54-.33l.03,.02,14.42,12.55,.03,.03c-.21,.31-.31,.61-.31,.87-.03,.39,.12,.75,.41,1.01,.17,.14,.45,.31,.87,.29h.09c.12-.02,.25-.06,.39-.11,.32-.12,.62-.34,.91-.67l.08-.11c.04-.07,.08-.14,.12-.19l.13-.18c.14-.23,.25-.45,.33-.65,.21-.1,.37-.19,.5-.29,.17-.13,.37-.33,.61-.6,.26-.3,.44-.63,.51-.96,.03-.12,.04-.24,.05-.36,.12-.02,.23-.05,.35-.09,.33-.13,.63-.34,.91-.67l.35-.47c.12-.21,.22-.43,.32-.65,.39-.21,.76-.51,1.11-.91,.26-.3,.44-.63,.51-.97,.17-.74-.19-1.16-.36-1.3Zm-18.9-9.59l.06,.38c.42,0,.79,.15,1.15,.46l13.38,11.65s.02,.02,.03,.03c-.21,.31-.31,.61-.31,.87,0,.02,0,.04,0,.07-.11,.02-.22,.05-.33,.1-.2,.08-.39,.2-.56,.35l-.02-.02-13.38-11.65c-.13-.11-.25-.25-.36-.42-.1-.14-.16-.29-.2-.45-.04-.15-.05-.31-.03-.46,.01-.08,.06-.17,.15-.27,.12-.14,.25-.21,.41-.23l.03-.38h0Zm11.98,18.41h0Z"/></g><g><path class="cls-2" d="M133.33,107.12c-.21,.02-.43,.07-.64,.16l-.02-.03-7.01-11.73,.79-.47c1.03-.61,1.76-1.43,2.18-2.42,.46-1.09,.34-2.24-.37-3.41-.34-.57-.76-1.02-1.25-1.33-.48-.3-.99-.5-1.53-.59-.53-.08-1.09-.06-1.65,.08-.53,.13-1.06,.35-1.57,.65l-1.16,.69c-.45,.27-.81,.57-1.08,.91-.21,.03-.39,.08-.53,.13-.21,.07-.45,.19-.74,.36-.34,.21-.61,.46-.79,.76-.4,.65-.18,1.16-.06,1.35,.14,.23,.48,.62,1.22,.58,.21-.02,.41-.06,.61-.14l.02,.03,9.81,16.41,.02,.03c-.29,.24-.49,.49-.57,.73-.15,.36-.12,.76,.08,1.08,.11,.19,.46,.62,1.22,.59h.01c.34-.02,.69-.13,1.05-.36l.11-.08c.06-.06,.12-.1,.17-.14l-.24-.3h0l.32,.24,.09-.07c.21-.18,.38-.35,.52-.52,.23-.03,.41-.07,.57-.12,.21-.07,.46-.2,.77-.38,.34-.2,.61-.46,.79-.76,.39-.65,.17-1.16,.06-1.35-.24-.4-.68-.61-1.22-.58Zm-10.47-16.29l.79-.47c.19-.11,.33-.13,.59-.06,.34,.08,.64,.33,.91,.78,.19,.32,.28,.64,.25,.95-.04,.44-.21,.6-.37,.7l-.76,.45-1.4-2.35h0Zm7.45,20.32h0Z"/><path class="cls-2" d="M149.78,99.27h-.18c-.13,.01-.26,.03-.39,.06,0-.02-.02-.03-.02-.04l-6.82-16.37c-.46-1.1-1.21-1.86-2.25-2.27-1.01-.4-2.22-.32-3.53,.23-1.28,.53-2.16,1.33-2.6,2.36-.45,1.05-.46,2.11-.01,3.18l6.82,16.37s0,.02,.01,.03c-.32,.19-.55,.41-.66,.64-.2,.33-.22,.73-.08,1.09,.08,.2,.36,.68,1.12,.75,.08,0,.15,0,.24,0h.07c.25-.02,.51-.08,.81-.21l.12-.07c.07-.05,.13-.09,.18-.12,.03-.02,.06-.03,.11-.06l.1-.05c.23-.14,.42-.29,.59-.44,.25,0,.44-.01,.57-.04,.22-.04,.49-.13,.82-.27,.37-.15,.67-.37,.89-.64,.08-.1,.15-.2,.2-.3,.11,.03,.23,.06,.35,.07,.34,.03,.7-.02,1.11-.2l.52-.27c.2-.13,.39-.28,.57-.44,.44-.02,.92-.12,1.4-.33,.37-.15,.67-.37,.89-.64,.49-.59,.34-1.13,.26-1.33-.09-.21-.39-.72-1.2-.74Zm-11.93-16.32l.04,.37c.1,0,.2,.02,.3,.07,.38,.19,.64,.48,.82,.92l.52,1.25-1.69,.71-.52-1.25c-.07-.16-.11-.34-.14-.54-.02-.17-.02-.34,.02-.49,.04-.16,.1-.3,.18-.42,.05-.07,.13-.13,.25-.18,.09-.04,.16-.06,.24-.06l-.02-.37h0Zm6.71,18.41c-.13,0-.27,.03-.4,.06v-.03l-5.27-12.61,1.69-.71,5.26,12.61s0,.02,.01,.03c-.32,.19-.55,.41-.66,.64-.01,.02-.02,.04-.03,.06-.11-.03-.22-.05-.34-.06-.06,0-.12,0-.18,0h-.07Zm.02,.39h0Zm-3.11,3.18h0Z"/><path class="cls-2" d="M162.48,93.04c-.32-.05-.67-.04-1.01,.05-.42,.11-.74,.26-.98,.47-.38,.33-.53,.81-.41,1.28,.09,.33,.08,.66-.02,1-.14,.42-.33,.53-.52,.58-.2,.05-.37,.03-.55-.09-.35-.24-.57-.57-.68-1.03l-4.1-15.83c-.04-.17-.06-.35-.06-.55,0-.17,.03-.34,.09-.49,.06-.15,.14-.28,.24-.39,.06-.06,.15-.11,.28-.14,.21-.06,.4-.11,.76,.26,.23,.23,.39,.52,.5,.94l.09,.19c.12,.2,.5,.67,1.29,.67h.13c.16-.01,.34-.04,.53-.09,.34-.09,1.14-.29,1.34-1.01,.05-.17,.08-.28,.09-.33l.05-.21-.74-2.85c-.05-.21-.26-.73-1.01-.91-.34-.08-.71-.07-1.09,.03-.41,.11-.74,.27-.98,.5-.1,0-.2,0-.3,0h-.28c-.32,.03-.68,.09-1.06,.19-1.38,.36-2.38,1.01-2.95,1.95-.58,.94-.72,2.01-.42,3.16l4.1,15.84c.3,1.15,.94,2.02,1.9,2.56,.58,.33,1.24,.49,1.98,.49,.1,0,.21,0,.31-.01,.39-.02,.81-.09,1.24-.2,1.39-.36,2.37-1.02,2.94-1.95,.57-.94,.7-2,.4-3.15-.06-.23-.28-.77-1.08-.9Z"/><path class="cls-2" d="M172.58,94.6c-.2-.06-.41-.09-.62-.09v-.04l-3.05-18.88v-.03c.32-.1,.56-.23,.74-.42,.39-.41,.42-.82,.38-1.1-.04-.22-.2-.74-.92-.99-.33-.11-.69-.14-1.09-.07-.49,.08-.93,.23-1.3,.43-.42-.08-.88-.08-1.4,0-.39,.06-.74,.2-1.01,.41-.61,.46-.59,1.02-.56,1.23,.04,.23,.21,.79,.99,.99,.18,.05,.36,.07,.58,.07,0,.01,0,.03,.01,.04l3.04,18.88v.03c-.37,.11-.65,.28-.82,.48-.27,.28-.39,.65-.33,1.04,.04,.22,.2,.75,.92,.99,.21,.07,.44,.11,.68,.11,.05,0,.1,0,.15,0,.08,0,.17-.01,.29-.04l.11-.03c.11-.04,.27-.08,.48-.13,.24-.06,.48-.16,.72-.3,.24,.05,.49,.08,.76,.09h.09l.25-.04h.27c.39-.08,.73-.21,1.01-.43,.61-.46,.59-1.02,.56-1.23-.04-.22-.2-.76-.92-.99Z"/><path class="cls-2" d="M186.85,74.79v-1.35c-.02-.22-.09-.77-.77-1.12-.31-.16-.67-.24-1.07-.24l-4.11,.04h-.12c-.11,.03-.27,.05-.49,.07-.24,.02-.5,.09-.75,.19-.23-.09-.49-.15-.77-.2h-.3s-.05-.01-.13-.03h-.28c-.34,.02-.65,.1-.92,.25-.67,.36-.74,.92-.74,1.14,0,.22,.08,.78,.76,1.11,.18,.09,.38,.15,.6,.18,0,.01,0,.03,0,.04l.18,19.12v.04c-.37,.05-.67,.17-.86,.35-.31,.24-.48,.59-.48,.98,0,.22,.08,.77,.76,1.12,.27,.14,.57,.22,.91,.23,.05,0,.11,0,.16,0,.52,0,.98-.08,1.38-.24,.22,.08,.44,.13,.65,.15l.7,.06h.15c.34-.03,.65-.11,.92-.26,.67-.36,.74-.92,.74-1.14,0-.22-.08-.78-.76-1.11-.2-.1-.41-.16-.63-.19v-.03l-.13-13.66h.92c.58-.01,.97-.12,1.26-.34,.35-.27,.55-.63,.54-1.03,0-.22-.08-.77-.76-1.12-.32-.16-.68-.24-1.07-.24h-.92l-.03-2.73h0l1.84-.03h0c0,.23,.08,.78,.76,1.13,.31,.16,.68,.24,1.07,.24h.15c.34-.03,.65-.11,.92-.26,.67-.36,.74-.91,.74-1.13Z"/><path class="cls-2" d="M194.76,73.23c-.29-.19-.64-.3-1.04-.34-.5-.04-.96,0-1.36,.1-.39-.18-.84-.3-1.36-.34h-.11c-.36-.02-.68,.03-.97,.15-.71,.3-.83,.84-.85,1.06-.02,.23,.01,.81,.72,1.2,.17,.09,.35,.17,.54,.22,0,.02,0,.03,0,.04l-1.67,19.05v.03c-.4,.02-.71,.11-.92,.26-.33,.2-.54,.54-.57,.92-.02,.22,0,.78,.64,1.19,.29,.19,.64,.3,1.08,.34h.14c.11-.01,.27-.01,.47-.01,.24,0,.5-.04,.77-.12,.22,.11,.47,.2,.77,.28l.27,.03s.07,.01,.16,.04l.23,.03c.09,0,.19,0,.28,0,.25-.02,.48-.07,.69-.16,.7-.3,.82-.84,.84-1.06,.02-.22,0-.79-.65-1.19-.18-.11-.37-.19-.58-.24v-.04l1.67-19.05v-.03c.35-.01,.61-.09,.83-.23,.51-.32,.62-.74,.63-.97,.02-.22,0-.77-.65-1.19Z"/><path class="cls-2" d="M208.31,75.65c-.28-.21-.62-.35-1.02-.42-.42-.07-.78-.05-1.09,.06-.14-.07-.28-.14-.42-.19-.33-.13-.71-.23-1.15-.3-1.41-.23-2.59-.03-3.48,.6-.91,.63-1.47,1.55-1.66,2.73l-2.62,16.15c-.19,1.18,.05,2.22,.71,3.11,.66,.88,1.7,1.44,3.12,1.67,.3,.05,.59,.08,.87,.09,.18,0,.36,0,.53,0,.8-.05,1.49-.28,2.07-.69,.9-.64,1.45-1.55,1.64-2.72,.04-.23,.05-.82-.63-1.26-.28-.18-.6-.3-.95-.36-.23-.04-.45-.05-.64-.04-1.08,.07-1.29,.84-1.33,1.08-.05,.34-.19,.64-.42,.91-.35,.39-.52,.35-.71,.32-.22-.04-.36-.12-.47-.3-.22-.36-.29-.74-.21-.34l2.62-16.15c.03-1.04,.08-1.22,.17-1.4,.07-.16,.16-.3,.28-.41,.11-.11,.24-.2,.37-.26,.08-.03,.18-.04,.31-.02,.25,.04,.44,.15,.59,.54,.12,.3,.15,.63,.08,1.09v.19c.07,.4,.34,1.11,1.56,1.31,.18,.03,.34,.05,.48,.05,.05,0,.13,0,.22,0,.39-.02,.71-.17,.93-.43,.11-.13,.18-.22,.21-.27l.07-.1,.52-2.98c.04-.22,.05-.77-.56-1.23Z"/></g><g><path class="cls-2" d="M216.83,101.19l.02-.03,8.1-17.32,.02-.03c.32,.1,.58,.13,.85,.07,.59-.12,.83-.49,.93-.69,.09-.2,.26-.73-.2-1.34-.21-.28-.5-.5-.86-.67-.46-.21-.9-.34-1.32-.37-.3-.3-.69-.57-1.15-.79-.36-.17-.73-.25-1.12-.22-.51,.04-.91,.29-1.1,.7-.1,.21-.27,.77,.26,1.38,.13,.14,.27,.27,.44,.39,0,.01,0,.03-.01,.04l-8.1,17.32s0,.02-.02,.03c-.27-.08-.53-.12-.76-.1-.08,0-.16,.02-.2,.03-.38,.08-.68,.32-.85,.68-.09,.2-.26,.73,.2,1.34,.21,.28,.5,.5,.89,.69l.11,.04c.11,.03,.26,.08,.47,.16,.23,.09,.49,.14,.76,.15,.17,.18,.37,.35,.62,.52l.23,.12s.06,.04,.13,.08l.12,.07c.26,.12,.51,.19,.77,.22,.1,.01,.2,.01,.31,0h.05c.73-.06,1.02-.51,1.11-.71,.09-.2,.26-.74-.21-1.33-.13-.16-.28-.31-.46-.43Zm-.47,2.08h0Z"/><path class="cls-2" d="M228.96,105.65c.51-.89,.91-1.99,1.2-3.26,.29-1.26,.51-3.17,.65-5.68,.06-.95,.12-1.79,.18-2.52,.06-.71,.13-1.32,.21-1.83,.24-1.47,.63-2.69,1.15-3.61,.08-.15,.2-.29,.34-.44,.12-.12,.25-.22,.4-.29,.14-.07,.29-.1,.44-.12,.08,0,.18,.02,.3,.09,.22,.13,.36,.29,.36,.72,0,.32-.08,.64-.29,1.02l-.07,.2c-.09,.4-.08,1.16,.99,1.77,.72,.41,1.22,.47,1.66,.22,.15-.09,.25-.14,.29-.18l.1-.07,1.54-2.61c.11-.19,.32-.7-.09-1.35-.19-.29-.46-.54-.8-.74-.36-.2-.68-.31-1.04-.32-.11-.12-.22-.23-.34-.33-.26-.24-.59-.47-.97-.69-1.24-.71-2.42-.93-3.47-.66-1.08,.27-1.92,.94-2.51,1.97-.54,.94-.96,2.04-1.25,3.27-.14,.61-.27,1.41-.36,2.36-.09,.93-.18,2.04-.25,3.32-.04,.79-.09,1.46-.13,2.02-.05,.58-.08,1.03-.09,1.32-.19,1.92-.63,3.47-1.29,4.63-.17,.3-.4,.53-.71,.7-.32,.17-.53,.19-.78,.05-.22-.13-.36-.29-.36-.72,0-.29,.08-.64,.29-1.08l.05-.17c.05-.27,.05-.68-.29-1.13-.18-.25-.42-.45-.71-.62-.61-.35-1.19-.43-1.67-.23l-.41,.28-1.52,2.59c-.11,.19-.31,.71,.09,1.34,.19,.29,.46,.55,.8,.75,.35,.2,.67,.3,1.03,.31,.38,.4,.83,.75,1.34,1.04,.76,.43,1.5,.69,2.2,.75,.22,.02,.43,.02,.64,0s.43-.05,.63-.11c1.06-.28,1.9-.95,2.49-1.98Z"/><path class="cls-2" d="M238.07,113.86c-.14-.32-.36-.61-.67-.86-.31-.25-.64-.41-1-.48l-.09-.02c-.61-.08-1.04,.24-1.18,.42h0l-1.43-1.15h0l12.02-14.88,.02-.02c.25,.16,.48,.25,.73,.28h.11c.58,.03,.9-.23,1.07-.44,.14-.17,.43-.65,.13-1.35-.14-.32-.36-.61-.7-.88l-.1-.06c-.1-.05-.24-.14-.42-.27-.2-.14-.44-.25-.7-.33-.13-.22-.28-.43-.48-.66l-.4-.37c-.31-.25-.64-.41-.99-.48l-.1-.02c-.48-.07-.91,.09-1.19,.43-.14,.18-.43,.66-.12,1.34,.09,.19,.2,.37,.35,.53l-.02,.03-12.02,14.87-.02,.03c-.24-.15-.48-.23-.71-.27-.03,0-.15-.02-.17-.01-.4-.02-.75,.15-.99,.45-.14,.17-.43,.65-.13,1.34,.14,.32,.36,.61,.67,.86,.39,.31,.79,.54,1.19,.68,.22,.37,.53,.72,.93,1.04l3.17,2.56c.31,.25,.64,.41,1,.48l.09,.02c.11,.02,.22,.02,.33,.01,.46-.04,.73-.29,.85-.44l.85-1.05c.14-.17,.43-.65,.13-1.35Zm-2.04,1.92h0Z"/><path class="cls-2" d="M245.97,124.71s.02-.02,.03-.03l13.32-11.71c.89-.79,1.37-1.75,1.43-2.86,.05-1.09-.4-2.19-1.35-3.27-.92-1.04-1.95-1.62-3.07-1.71-1.14-.09-2.15,.25-3.01,1.01l-13.32,11.71s-.02,.02-.03,.02c-.28-.24-.56-.38-.86-.43-.37-.06-.73,.04-1.02,.29-.16,.15-.53,.56-.35,1.3,.08,.34,.26,.66,.54,.99l.1,.09c.07,.05,.13,.1,.18,.14l.16,.16c.21,.17,.41,.31,.6,.42,.07,.22,.14,.39,.22,.53,.11,.19,.28,.42,.52,.68,.26,.3,.56,.51,.89,.64,.12,.05,.23,.08,.35,.09,0,.11,.02,.23,.05,.35,.08,.34,.25,.66,.55,.99l.42,.4c.19,.15,.39,.28,.6,.4,.15,.41,.41,.82,.76,1.22,.26,.3,.56,.51,.89,.64,.11,.04,.21,.07,.3,.09,.12,.02,.23,.03,.34,.02,.26-.02,.5-.12,.69-.28,.18-.15,.56-.59,.32-1.37-.06-.18-.14-.36-.24-.53Zm10.69-16.67l.03,.38c.15-.01,.29,0,.43,.04,.08,.02,.16,.08,.25,.18,.15,.17,.2,.32,.17,.53-.06,.42-.25,.76-.61,1.08l-1.02,.9-1.21-1.38,1.02-.89c.13-.11,.29-.22,.47-.31,.16-.08,.31-.12,.47-.14v-.38h0Zm-2.79,4.89l-10.26,9.02-.03,.02c-.28-.24-.56-.38-.86-.43h-.02c0-.12-.02-.23-.05-.35-.05-.21-.15-.41-.27-.6l.03-.02,10.26-9.02,1.21,1.38Z"/><path class="cls-2" d="M254.48,137.41c-.03-.19-.08-.38-.15-.56,.01-.01,.02-.02,.03-.03l15.02-9.44c1.01-.63,1.63-1.5,1.86-2.59,.23-1.07-.05-2.23-.81-3.44-.45-.72-.98-1.28-1.58-1.65-.01-.36-.09-.72-.22-1.04-.05-.16-.12-.31-.21-.45-.03-.04-.06-.11-.11-.22l-.05-.09c-.21-.34-.47-.6-.77-.77-.47-.27-.96-.28-1.36-.03-.19,.12-.62,.48-.55,1.23,.02,.21,.07,.41,.16,.61l-.03,.02-16.19,10.18s-.02,.01-.03,.02c-.24-.29-.5-.48-.77-.56l-.17-.05c-.3-.06-.61,0-.88,.16-.19,.12-.62,.47-.56,1.23,.03,.35,.15,.7,.38,1.07l.09,.11c.06,.06,.11,.12,.15,.16l.14,.18c.18,.2,.35,.37,.53,.51,.03,.23,.08,.41,.13,.57,.08,.21,.21,.45,.4,.75,.21,.34,.47,.6,.78,.77,.11,.06,.21,.11,.33,.14-.02,.11-.02,.24,0,.36,.03,.35,.15,.7,.38,1.06l.09,.11s.05,.05,.09,.11l.18,.25c.17,.17,.34,.34,.53,.49,.09,.43,.27,.88,.55,1.33,.21,.34,.47,.6,.78,.77,.16,.09,.31,.15,.47,.18,.12,.02,.23,.03,.34,.02,.19-.01,.37-.07,.53-.17,.2-.12,.65-.5,.53-1.3Zm-3.06-5.19l.03-.02,15.02-9.44c.14-.09,.31-.17,.51-.23,.17-.05,.33-.07,.49-.06,.16,0,.31,.05,.45,.11,.08,.03,.15,.11,.22,.22,.12,.19,.14,.35,.08,.55-.12,.41-.37,.71-.77,.97l-15.02,9.44s-.02,.01-.03,.02c-.24-.29-.5-.48-.77-.56h-.03c.01-.12,.01-.24,0-.36-.02-.21-.08-.42-.17-.63Z"/><path class="cls-2" d="M260.08,149.02c.52-.04,1.05-.19,1.57-.44l14.7-7.18c.59-.29,1.07-.67,1.43-1.14,.34-.45,.59-.95,.72-1.48,.13-.52,.15-1.08,.06-1.66-.09-.55-.26-1.09-.52-1.61l-.59-1.21c-.23-.47-.5-.85-.82-1.15-.02-.21-.04-.39-.08-.54-.06-.21-.16-.47-.3-.76-.17-.36-.41-.65-.69-.85-.43-.32-.93-.38-1.34-.18-.2,.1-.67,.41-.68,1.17,0,.21,.03,.42,.09,.62l-.03,.02-17.18,8.39-.03,.02c-.21-.31-.44-.52-.68-.62-.34-.18-.74-.18-1.09-.01-.2,.1-.66,.4-.68,1.17-.01,.35,.07,.71,.25,1.06,.23,.47,.5,.85,.81,1.15,.02,.24,.07,.46,.14,.65l.84,1.87c.63,1.29,1.47,2.13,2.5,2.5,.22,.08,.44,.14,.66,.18,.31,.06,.63,.07,.95,.05Zm-1-3.52c-.45-.05-.59-.23-.67-.4l-.4-.82h0l17.18-8.39h0l.4,.82c.09,.18,.09,.35,0,.59-.11,.33-.39,.61-.85,.84l-14.7,7.18c-.31,.15-.67,.2-.98,.18Z"/><path class="cls-2" d="M262.53,161.53c.09,0,.17-.02,.26-.05l1.29-.4c.21-.07,.72-.3,.85-1.05,.06-.34,.04-.71-.08-1.09-.12-.38-.31-.7-.55-.94-.38-.38-.86-.51-1.3-.38h0l-.55-1.75h0l13.04-4.08,.27,.87c.17,.54,.39,.9,.69,1.11,.36,.26,.76,.34,1.14,.22,.21-.07,.71-.3,.85-1.05,.07-.34,.04-.71-.08-1.09l-.27-.88,2.61-.82h0l.55,1.75h-.01c-.21,.07-.71,.3-.85,1.05-.06,.34-.04,.71,.08,1.09,.12,.38,.31,.7,.55,.95,.38,.37,.86,.51,1.3,.38l1.29-.4c.21-.07,.72-.3,.85-1.05,.06-.34,.04-.71-.08-1.09l-1.23-3.92-.05-.11c-.05-.1-.11-.25-.2-.45-.09-.23-.23-.45-.4-.66,.01-.25,0-.51-.03-.82l-.12-.54c-.12-.38-.31-.7-.55-.94-.38-.37-.88-.51-1.3-.38-.22,.07-.73,.3-.85,1.05-.03,.21-.04,.42,0,.63h-.03l-18.25,5.71s-.02,0-.04,0c-.16-.34-.36-.58-.58-.72-.31-.22-.7-.29-1.07-.17-.21,.07-.71,.3-.85,1.05-.06,.34-.04,.71,.09,1.13l.22,.54c.11,.21,.24,.42,.39,.61-.03,.44,.04,.92,.2,1.42l1.22,3.9c.12,.38,.3,.7,.55,.94,.21,.21,.45,.35,.7,.4,.11,.02,.23,.03,.34,.02Z"/><path class="cls-2" d="M286.96,165.89l-.2-1.33c-.08-.51-.22-.96-.43-1.33,.05-.23,.07-.46,.06-.67l-.04-.7c-.06-.4-.2-.74-.4-1.01-.3-.41-.71-.61-1.14-.58h-.09c-.22,.04-.76,.2-.99,.92-.07,.2-.1,.41-.1,.62h-.04l-18.94,2.9c-.11-.36-.27-.63-.46-.8-.26-.25-.59-.37-.94-.35h-.09c-.22,.04-.75,.2-1,.92-.11,.33-.14,.69-.07,1.12l.03,.13c.03,.08,.05,.15,.07,.22l.05,.22c.08,.26,.18,.48,.28,.68-.06,.22-.09,.41-.1,.57,0,.22,.01,.5,.06,.85,.06,.4,.2,.74,.4,1.01,.08,.1,.16,.19,.24,.27-.06,.1-.11,.21-.15,.32-.12,.33-.14,.7-.08,1.13l.13,.57c.08,.23,.18,.45,.29,.66-.09,.43-.1,.91-.02,1.43,.06,.39,.2,.74,.41,1.02,.22,.29,.48,.48,.78,.55,.12,.03,.24,.04,.36,.03h.09c.23-.05,.78-.21,1-.99,.05-.19,.08-.38,.08-.58,.02,0,.03,0,.04-.01l12.13-1.86c.91-.14,1.63-.46,2.15-.96,.15-.15,.29-.31,.42-.48,.18,.13,.37,.24,.56,.33,.65,.31,1.42,.4,2.27,.27,.65-.1,1.23-.32,1.71-.66,.46-.33,.84-.73,1.12-1.2,.28-.46,.47-.99,.55-1.56,.08-.54,.08-1.11-.01-1.7Zm-2.69,.41c.03,.2-.02,.36-.17,.57-.2,.29-.55,.47-1.06,.55-.52,.08-.89,.02-1.16-.21-.26-.21-.31-.38-.32-.49l-.14-.91,2.71-.41v-.07l.15,.97Zm-5.4,.82c.03,.2-.02,.37-.17,.57-.2,.29-.55,.47-1.07,.55l-12.17,1.86c-.11-.36-.27-.63-.46-.79-.02-.02-.03-.03-.05-.05,.06-.1,.1-.2,.14-.32,.06-.2,.1-.42,.1-.65h.03l13.51-2.07,.14,.9Zm-14.06,7.75h0Z"/></g><g><path class="cls-2" d="M77.06,199.56c.94-.04,2-.26,3.14-.66,1.13-.39,2.72-1.16,4.74-2.28,.77-.42,1.45-.78,2.05-1.09,.58-.31,1.1-.55,1.52-.73,1.26-.54,2.39-.83,3.43-.87,.13,0,.28,.02,.42,.05l.09,.02c.12,.03,.23,.08,.33,.15,.12,.08,.22,.17,.3,.28,.04,.06,.06,.14,.07,.26,0,.23-.05,.4-.36,.61-.24,.16-.53,.25-.93,.27l-.2,.04c-.36,.13-.96,.52-.91,1.67,.01,.33,.05,1.1,.66,1.42,.15,.08,.24,.13,.3,.15l.18,.08,2.7-.12c.21,0,.72-.1,1.04-.75,.14-.3,.2-.63,.19-1-.02-.39-.1-.72-.26-.98,.04-.14,.07-.27,.09-.41,.06-.32,.08-.69,.06-1.1-.06-1.32-.46-2.35-1.2-3.05-.74-.7-1.71-1.05-2.79-.99-1,.04-2.07,.26-3.17,.63-.54,.19-1.22,.48-2.02,.88-.77,.38-1.68,.87-2.7,1.43-.63,.35-1.18,.65-1.63,.88-.47,.25-.84,.44-1.07,.57-1.58,.79-3,1.21-4.28,1.27-.28,0-.57-.08-.82-.21-.39-.22-.4-.44-.4-.55,0-.23,.05-.41,.37-.61,.22-.15,.53-.24,.98-.3l.16-.04c.24-.09,.57-.31,.76-.79,.1-.27,.15-.56,.14-.87-.03-.66-.25-1.14-.66-1.43l-.51-.22-2.68,.12c-.21,0-.73,.1-1.04,.75-.14,.3-.2,.63-.19,1,.02,.38,.1,.71,.26,.97-.12,.48-.18,1-.15,1.54,.06,1.33,.46,2.35,1.2,3.04,.42,.4,.92,.68,1.47,.83,.35,.1,.72,.15,1.11,.15,.07,0,.14,0,.2,0Z"/><path class="cls-2" d="M96.25,207.31l.11,.36c-.21,.07-.65,.31-.78,.98-.06,.32-.03,.66,.08,1.02,.11,.36,.29,.65,.52,.88,.36,.35,.8,.48,1.23,.35l1.18-.38c.2-.06,.67-.29,.8-.99,.06-.32,.03-.66-.08-1.02l-.76-2.39c-.14-.45-.34-.83-.58-1.15,.02-.39-.05-.81-.19-1.25l-.76-2.39c-.11-.35-.29-.65-.52-.88-.36-.36-.82-.48-1.23-.35l-1.18,.38c-.2,.06-.67,.29-.8,1-.06,.32-.03,.66,.08,1.02,.11,.35,.29,.65,.52,.88,.35,.34,.79,.47,1.21,.35l.11,.34-16.72,5.35h-.01c-.15-.3-.33-.52-.54-.65-.29-.21-.68-.27-1.01-.16-.2,.06-.68,.29-.8,1-.06,.32-.03,.66,.1,1.05l.05,.12c.04,.07,.07,.13,.09,.18l.35-.16h0l-.31,.25,.04,.1c.11,.22,.23,.41,.35,.57-.02,.21-.03,.38,0,.53,.02,.2,.08,.46,.18,.77,.11,.35,.29,.65,.52,.88,.23,.22,.48,.36,.76,.39,.05,0,.09,0,.14,0,.11,0,.23-.02,.34-.05,.2-.07,.68-.29,.79-1,.03-.19,.03-.39,0-.59h0l16.73-5.34Z"/><path class="cls-2" d="M102.29,220.8h0c.18,.26,.36,.44,.58,.55,.37,.19,.76,.2,1.09,.04,.19-.09,.62-.38,.64-1.11,0-.32-.07-.66-.24-.99-.21-.43-.47-.78-.76-1.05-.02-.19-.04-.35-.08-.49-.05-.2-.15-.43-.28-.71-.17-.33-.38-.6-.65-.79-.09-.06-.18-.12-.27-.16,.02-.1,.03-.2,.04-.31,0-.33-.07-.66-.25-1.02l-.06-.09c-.06-.08-.14-.21-.24-.38-.12-.19-.27-.38-.46-.55-.02-.23-.07-.46-.15-.73l-.11-.24-.35,.14h0l.32-.25-.05-.12c-.17-.34-.38-.6-.65-.79-.41-.29-.87-.35-1.28-.16-.19,.1-.63,.39-.63,1.1,0,.19,.03,.37,.08,.56h0l-14.61,7.27c-.99,.49-1.65,1.24-1.96,2.22-.31,.97-.16,2.06,.42,3.25,.59,1.18,1.37,1.96,2.33,2.3,.28,.1,.57,.16,.85,.19,.12,.01,.23,.02,.35,.02,.58,0,1.17-.15,1.75-.43l14.61-7.26Zm-1.51-3.05h0l-14.61,7.27c-.23,.12-.48,.17-.75,.17-.05,0-.1,0-.13,0-.44-.04-.54-.24-.59-.34-.1-.21-.12-.39,.1-.72,.14-.23,.35-.41,.66-.56l14.61-7.26h0c.18,.26,.37,.44,.58,.55,.03,.02,.06,.03,.1,.04-.02,.1-.03,.2-.03,.3,0,.19,.03,.37,.08,.56Z"/><path class="cls-2" d="M108.13,232.43c.51-.34,.91-.74,1.18-1.21,.26-.45,.43-.94,.49-1.44,.06-.5,.01-1.01-.13-1.53-.14-.49-.36-.97-.66-1.42l-.68-1.04c-.26-.4-.55-.72-.88-.96-.04-.19-.08-.34-.14-.48-.08-.19-.2-.41-.37-.67-.2-.31-.45-.55-.74-.7-.44-.24-.91-.24-1.28,0-.18,.12-.58,.46-.5,1.17,.02,.18,.07,.37,.15,.54h0l-14.71,9.65h0c-.22-.25-.46-.41-.7-.48-.34-.12-.72-.07-1.02,.12-.17,.11-.57,.46-.5,1.17,.03,.33,.15,.65,.35,.96,.26,.4,.55,.72,.87,.95,.05,.21,.12,.41,.21,.58l.98,1.61c.73,1.11,1.6,1.78,2.59,2.01,.15,.03,.3,.06,.45,.07,.12,.01,.24,.02,.35,.02,.72,0,1.43-.22,2.1-.66l12.58-8.25Zm-1.19-3.69c-.06,.31-.28,.59-.67,.84l-12.58,8.25c-.26,.17-.54,.26-.88,.27-.38,0-.52-.14-.6-.27l-.45-.68,14.67-9.61,.45,.68c.1,.15,.12,.3,.07,.52Z"/><path class="cls-2" d="M102.78,249.44c-.24-.28-.52-.49-.82-.61-.45-.18-.94-.11-1.25,.14l-1.06-1.24,9.51-8.13,.53,.62c.34,.4,.66,.62,1,.7,.49,.11,.89-.08,1.07-.23,.16-.13,.51-.52,.35-1.23-.07-.32-.23-.62-.47-.9l-.53-.62,1.87-1.6,1.06,1.24c-.16,.15-.48,.53-.33,1.21,.07,.32,.23,.62,.47,.91,.24,.28,.52,.49,.82,.61,.45,.18,.96,.11,1.27-.16l.94-.81c.16-.13,.51-.52,.35-1.23-.07-.32-.23-.62-.47-.9l-2.46-2.88-.08-.08c-.08-.06-.19-.17-.33-.31-.16-.16-.35-.3-.58-.42-.08-.21-.18-.43-.33-.68l-.17-.21-.31,.22h0l.25-.32-.08-.11c-.24-.28-.52-.49-.82-.61-.45-.18-.95-.11-1.27,.16-.16,.14-.52,.54-.34,1.22,.04,.18,.12,.36,.21,.52h0l-13.36,11.44h0c-.26-.22-.52-.35-.78-.39l-.23-.02c-.27,0-.53,.1-.74,.28-.16,.14-.51,.53-.35,1.22,.07,.32,.23,.62,.5,.93l.38,.38c.17,.14,.36,.26,.54,.37,.14,.38,.37,.76,.68,1.13l2.44,2.85c.24,.28,.52,.49,.82,.61,.15,.06,.29,.09,.44,.11h.1c.35,0,.59-.14,.73-.26l.94-.81c.16-.14,.51-.52,.35-1.23-.07-.32-.23-.62-.47-.9Zm-1.56,2.81h0Z"/><path class="cls-2" d="M111.8,260.21h0l11.12-11.95c.75-.81,1.11-1.74,1.05-2.77-.05-1.02-.57-1.99-1.54-2.89-.57-.53-1.17-.9-1.79-1.1-.1-.32-.25-.61-.44-.87-.08-.12-.18-.24-.31-.36-.03-.03-.07-.08-.14-.16l-.07-.07c-.27-.25-.57-.42-.88-.51-.5-.14-.94-.03-1.24,.3-.15,.16-.46,.59-.21,1.26,.06,.17,.16,.34,.27,.49h0l-11.99,12.87h0c-.27-.18-.54-.28-.81-.3h-.1c-.32,0-.62,.13-.84,.36-.14,.15-.45,.58-.21,1.26,.11,.31,.3,.59,.6,.87l.1,.08c.06,.04,.12,.08,.17,.11l.22-.31-.14,.38,.08,.06c.2,.14,.4,.24,.58,.33,.08,.19,.16,.34,.25,.47,.12,.17,.3,.36,.54,.58,.27,.25,.57,.42,.89,.51,.11,.03,.21,.05,.3,.05,.01,.1,.04,.2,.07,.3,.11,.31,.3,.59,.6,.87l.42,.33c.19,.11,.38,.22,.58,.31,.18,.36,.45,.71,.81,1.05,.27,.25,.57,.43,.88,.51,.1,.03,.2,.04,.29,.05h.11c.33,0,.63-.12,.84-.35,.15-.16,.46-.61,.17-1.32-.07-.16-.16-.31-.26-.45Zm-3.67-3.44l11.12-11.94c.1-.11,.24-.22,.39-.32,.13-.08,.27-.14,.41-.17,.14-.03,.27-.03,.42,0,.07,.01,.14,.06,.23,.13,.14,.13,.2,.26,.19,.45-.01,.38-.16,.7-.45,1.02l-11.12,11.94h0c-.27-.18-.52-.27-.74-.29-.03,0-.05-.01-.08-.02-.02-.09-.04-.19-.08-.29-.07-.18-.17-.35-.29-.51h0Zm2.91,5.16h0Z"/><path class="cls-2" d="M133.31,251.55l-2.02-1.5c-.38-.28-.76-.48-1.14-.59-.21-.33-.51-.63-.88-.9l-2.02-1.5c-.3-.22-.61-.36-.95-.41h-.1c-.61-.06-.95,.25-1.08,.44l-.74,1c-.12,.17-.38,.63-.07,1.27,.14,.3,.36,.56,.66,.78,.3,.22,.61,.36,.95,.41h.1c.61,.07,.93-.23,1.07-.42l.29,.21-10.47,14.1h0c-.23-.12-.45-.18-.67-.2-.04,0-.08,0-.15,0-.37,0-.7,.17-.92,.47-.12,.17-.38,.63-.07,1.27,.14,.29,.36,.56,.69,.8l.12,.07c.07,.03,.12,.06,.25,.13l.11,.06c.22,.11,.42,.2,.62,.26,.1,.18,.2,.32,.3,.43,.14,.15,.33,.32,.6,.52,.3,.22,.61,.36,.95,.41h.1s.09,.02,.13,.02c.54,0,.83-.28,.95-.45,.13-.17,.39-.63,.06-1.27-.09-.17-.2-.33-.35-.48h0l10.47-14.1,.31,.23c-.13,.18-.36,.63-.06,1.25,.14,.3,.36,.56,.66,.78,.3,.22,.61,.36,.95,.41h.1s.09,.02,.13,.02c.53,0,.83-.28,.95-.45l.74-1c.12-.17,.38-.63,.07-1.27-.14-.3-.36-.56-.66-.78Zm-14.4,16.25h0Z"/><path class="cls-2" d="M143.79,279.7h0l4.37-10.42c.33-.79,.42-1.51,.28-2.16-.04-.18-.1-.36-.16-.53,.18-.08,.35-.17,.51-.27,.56-.36,1.01-.92,1.32-1.67,.24-.57,.34-1.13,.3-1.67-.04-.52-.17-1.02-.4-1.47-.23-.45-.56-.85-.97-1.19-.39-.33-.84-.6-1.35-.81l-1.15-.48c-.43-.18-.84-.28-1.25-.3-.16-.15-.32-.27-.5-.36l-.57-.3c-.34-.14-.71-.2-1-.17-.72,.06-.98,.52-1.07,.71-.08,.2-.22,.71,.24,1.25,.12,.14,.26,.27,.43,.37h0l-6.8,16.22h0c-.33-.07-.68-.06-.84,0-.36,.09-.64,.33-.78,.67-.08,.19-.22,.7,.24,1.25,.21,.25,.49,.45,.87,.61l.12,.03c.08,.02,.15,.03,.2,.05l.1-.37v.4l.1,.03c.24,.06,.46,.09,.66,.1,.14,.15,.27,.26,.4,.35,.17,.12,.4,.23,.7,.36,.34,.14,.66,.2,1.01,.17,.11,0,.21-.03,.3-.06,.05,.09,.11,.17,.17,.26,.21,.25,.48,.45,.86,.61l.51,.17c.21,.04,.43,.07,.65,.09,.29,.28,.67,.52,1.12,.7,.24,.1,.48,.16,.72,.18h.12c.06,0,.11,0,.17,0,.72-.06,.98-.52,1.06-.71,.09-.2,.23-.74-.3-1.29-.12-.13-.25-.24-.4-.33Zm3.18-16.37c-.24,.58-.52,.73-.7,.79-.11,.04-.21,.05-.35,.06-.06,0-.11-.02-.17-.04l-.75-.31,.95-2.27,.75,.32c.16,.07,.26,.18,.35,.39,.13,.29,.1,.64-.08,1.07Zm-7.81,14.42l4.85-11.56,.75,.31c.16,.07,.26,.18,.35,.39,.13,.29,.1,.64-.08,1.07l-4.37,10.41h0c-.17-.03-.33-.05-.49-.05-.14,0-.27,.02-.35,.05h-.04c-.05-.07-.1-.16-.17-.24-.13-.15-.28-.27-.45-.38h0Z"/><path class="cls-2" d="M160.71,266.94c.69-.18,.88-.67,.93-.87l.29-1.21c.05-.2,.1-.73-.44-1.2-.24-.22-.55-.37-.92-.46l-3.68-.87-.11-.02c-.1,0-.25-.03-.45-.06-.22-.03-.46-.03-.71,0-.19-.13-.4-.24-.66-.35l-.25-.07-.12,.36h0v-.41l-.11-.04c-.36-.09-.71-.09-1.02,0-.7,.18-.88,.67-.93,.87-.05,.21-.1,.74,.44,1.19,.14,.12,.3,.22,.48,.3h0l-4.07,17.12h0c-.35-.02-.64,.03-.83,.13-.33,.15-.57,.43-.66,.79-.05,.2-.1,.72,.44,1.2,.25,.22,.56,.37,.95,.46l.61,.08h.1c.16,0,.32,0,.48-.02,.34,.23,.74,.4,1.22,.51l3.65,.87c.17,.04,.34,.06,.5,.07h.04c.17,0,.33-.02,.48-.06,.69-.18,.88-.67,.93-.87l.29-1.21c.05-.2,.1-.72-.44-1.2-.24-.21-.55-.37-.92-.45-.36-.08-.71-.09-1.02,0-.67,.17-.87,.64-.93,.85l-1.58-.38,2.9-12.17,.79,.19c.53,.13,.9,.12,1.22-.02,.38-.17,.64-.46,.73-.82,.05-.2,.1-.72-.44-1.2-.24-.21-.55-.37-.92-.45l-.79-.19,.57-2.4,1.58,.38c-.05,.22-.08,.72,.44,1.17,.24,.22,.55,.37,.92,.46,.36,.09,.71,.09,1.02,0Zm-4.84,17.99h0Z"/><path class="cls-2" d="M170.91,265.1c-.26-.2-.58-.33-.94-.39-.42-.07-.73-.05-1.01,.05-.13-.06-.25-.12-.38-.17-.3-.12-.66-.22-1.06-.29-1.31-.22-2.4-.04-3.23,.53-.85,.58-1.37,1.43-1.56,2.52-.17,.99-.18,2.07-.05,3.23,.07,.58,.21,1.29,.43,2.16,.21,.84,.49,1.83,.83,2.94,.21,.69,.38,1.29,.52,1.78,.14,.51,.26,.92,.34,1.17,.44,1.71,.55,3.19,.35,4.39-.05,.3-.18,.57-.39,.82-.3,.33-.45,.31-.63,.27-.23-.04-.39-.13-.52-.49-.1-.25-.13-.57-.08-1.03v-.16c-.05-.25-.19-.62-.63-.91-.24-.16-.52-.26-.82-.32-.68-.11-1.17,0-1.54,.34l-.27,.38-.5,2.72c-.04,.2-.06,.73,.51,1.17,.26,.2,.58,.33,.94,.39,.41,.07,.72,.04,1-.05,.45,.22,.94,.38,1.48,.47,.24,.04,.47,.07,.69,.08,.12,0,.23,.01,.35,.01,.85,0,1.59-.21,2.19-.63,.84-.58,1.35-1.43,1.54-2.51,.16-.93,.16-2.01,.01-3.21-.15-1.2-.55-2.87-1.23-5.12-.25-.84-.46-1.58-.64-2.23-.17-.62-.31-1.18-.4-1.64-.26-1.35-.31-2.51-.14-3.47,.03-.15,.08-.32,.15-.48,.07-.14,.15-.26,.25-.37,.1-.1,.21-.18,.34-.23,.07-.03,.15-.03,.27-.01,.22,.04,.39,.13,.52,.48,.11,.28,.13,.57,.06,.98v.19c.06,.38,.31,1.05,1.45,1.24,.14,.02,.27,.04,.39,.05,.04,0,.09,0,.16,0,.53,0,.83-.22,.99-.4,.11-.13,.17-.21,.2-.25l.06-.09,.51-2.74c.04-.2,.06-.73-.52-1.17Z"/><path class="cls-2" d="M180.12,265.7c-.73-.66-1.72-1-2.93-1h-.25c-1.27,.05-2.26,.43-2.96,1.13-.73,.73-1.08,1.66-1.06,2.76l.29,15.04c.02,1.1,.42,2.02,1.17,2.72,.72,.67,1.72,1.01,2.98,1.01h.26c1.27-.05,2.26-.43,2.95-1.13,.71-.73,1.06-1.66,1.04-2.76l-.29-15.04c-.02-1.11-.42-2.02-1.19-2.72Zm-1.89,17.83c0,.31-.07,.6-.23,.87-.21,.35-.4,.38-.58,.39-.18,0-.31-.05-.43-.19-.25-.28-.38-.61-.39-1.04l-.29-15.04c0-.16,.02-.32,.06-.5,.04-.15,.1-.28,.18-.41,.08-.12,.18-.22,.29-.29,.05-.04,.13-.06,.24-.06h.04c.22,0,.39,.06,.58,.38,.16,.25,.23,.53,.24,.85l.29,15.04Z"/><path class="cls-2" d="M192.03,266.48h0c.31-.08,.54-.2,.71-.37,.3-.29,.45-.65,.4-1.02-.03-.21-.16-.71-.83-.97-.3-.11-.64-.15-1.01-.11-.48,.06-.89,.18-1.25,.36-.19-.05-.35-.08-.49-.09-.19-.01-.44,0-.76,.03-.37,.04-.69,.16-.96,.35-.09,.06-.17,.13-.24,.2-.08-.05-.18-.1-.28-.14-.22-.08-.46-.13-.71-.13-.1,0-.2,0-.34,.02l-.1,.02c-.1,.03-.24,.06-.44,.1-.22,.05-.44,.13-.66,.25-.22-.05-.45-.09-.68-.1h-.08l-.25,.02h-.23c-.37,.04-.69,.16-.96,.35-.59,.41-.6,.94-.57,1.15,.03,.21,.16,.73,.83,.96,.18,.06,.36,.1,.55,.11h0l1.97,16.2c.13,1.1,.62,1.97,1.44,2.59,.64,.49,1.46,.73,2.42,.73h.11c.21,0,.44-.02,.67-.05,1.31-.16,2.31-.64,2.94-1.43,.65-.8,.91-1.76,.78-2.86l-1.97-16.19Zm-3.37,.4h0l1.97,16.2c.04,.3,0,.6-.14,.89-.19,.4-.41,.43-.52,.44-.19,.02-.38,.03-.65-.33-.17-.21-.27-.47-.31-.81l-1.97-16.19h0c.31-.08,.54-.2,.71-.37,.03-.02,.05-.05,.07-.08,.08,.05,.18,.09,.27,.13,.18,.06,.36,.1,.55,.11Z"/><path class="cls-2" d="M208.58,281.07c-.17-.03-.34-.04-.52-.03h0l-2.63-10.99c-.2-.83-.55-1.47-1.05-1.91-.14-.12-.29-.23-.45-.33,.1-.17,.18-.34,.25-.52,.24-.62,.27-1.34,.08-2.13-.14-.59-.39-1.11-.74-1.53-.34-.4-.74-.72-1.19-.95-.45-.22-.95-.36-1.49-.39-.5-.03-1.03,.02-1.56,.14l-1.21,.29c-.46,.11-.86,.28-1.19,.5-.22-.03-.43-.03-.61,0l-.64,.09c-.36,.09-.67,.24-.91,.45-.54,.48-.49,1-.44,1.2,.05,.21,.24,.71,.93,.87,.18,.04,.37,.06,.56,.05h0l4.1,17.11h0c-.32,.13-.55,.29-.68,.49-.24,.28-.32,.64-.24,1.01,.05,.2,.24,.69,.94,.87,.15,.04,.31,.06,.47,.06h.02c.17,0,.35-.02,.56-.08l.13-.05c.07-.03,.13-.06,.18-.08l-.14-.36h0l.24,.32,.09-.03c.23-.1,.43-.2,.6-.31,.18,.03,.38,.05,.52,.05,.21,0,.46-.05,.78-.13,.36-.09,.67-.24,.92-.46,.08-.07,.15-.15,.21-.23,.09,.04,.19,.08,.3,.11,.31,.08,.63,.09,1.05-.02l.51-.17c.2-.09,.39-.2,.58-.31,.4,.05,.84,.02,1.32-.09,.36-.09,.67-.24,.92-.46,.38-.33,.53-.77,.43-1.2-.05-.21-.25-.72-1-.86Zm-5.25,1.51h0Zm-2.95-17.54c.27,.16,.46,.46,.57,.92,.11,.46,.08,.8-.1,1.05-.17,.24-.32,.3-.41,.32l-.79,.19-.57-2.4,.79-.19c.18-.04,.32-.01,.51,.11Zm2.94,17.16s-.1,0-.15,0h0l-2.92-12.2,.79-.19c.18-.04,.32-.01,.51,.11,.27,.16,.46,.46,.57,.91l2.63,10.98h0c-.32,.13-.55,.3-.69,.49l-.02,.03c-.09-.04-.18-.07-.29-.1-.14-.03-.28-.05-.43-.05h-.01Zm-2.96,2.84h0Z"/><path class="cls-2" d="M218.6,275.21h-.1c-.28,0-.56,.05-.83,.16-.38,.15-.66,.32-.86,.53-.32,.35-.41,.82-.25,1.25,.11,.29,.14,.59,.08,.9-.09,.44-.29,.52-.4,.56-.19,.07-.32,.06-.49-.02-.34-.18-.56-.45-.72-.85l-5.4-14.04c-.06-.15-.09-.31-.11-.49-.02-.15,0-.3,.03-.44,.04-.14,.09-.26,.17-.38,.04-.06,.11-.11,.22-.15,.19-.07,.28-.18,.69,.15,.23,.18,.4,.42,.55,.8l.1,.17c.25,.32,.63,.5,1.12,.5h0c.23,0,.48-.06,.75-.17,.31-.12,1.03-.39,1.14-1.08,.03-.16,.04-.26,.04-.31l.02-.21-.98-2.54c-.07-.19-.32-.66-1.04-.74-.32-.04-.67,0-1.01,.14-.36,.14-.65,.33-.84,.55-.14,0-.28,.02-.41,.04-.32,.05-.68,.15-1.06,.29-1.24,.48-2.08,1.18-2.51,2.11-.43,.93-.45,1.93-.06,2.96l5.4,14.04c.4,1.03,1.08,1.76,2.02,2.16,.43,.18,.89,.27,1.38,.27h.12c.55-.02,1.14-.15,1.77-.39,1.24-.48,2.08-1.18,2.5-2.11,.42-.93,.43-1.92,.04-2.95-.08-.21-.34-.69-1.11-.73Z"/><path class="cls-2" d="M232.69,270.89c-.12-.22-.43-.6-1.2-.6h0c-.3,.01-.61,.1-.91,.26-.33,.18-.59,.4-.77,.67-.39,.58-.23,1.05-.13,1.25l-1.43,.77-5.91-11.03,.72-.38c.47-.25,.75-.51,.9-.83,.17-.38,.17-.77,0-1.1-.12-.22-.43-.6-1.2-.6h0c-.3,.01-.61,.1-.91,.27l-.72,.38-1.16-2.17,1.43-.77c.11,.19,.42,.58,1.1,.58h.1c.3-.02,.6-.1,.91-.27,.33-.18,.58-.4,.77-.67,.4-.6,.22-1.09,.12-1.27l-.58-1.09c-.12-.23-.43-.61-1.2-.61h0c-.3,.01-.61,.1-.91,.26l-3.33,1.79-.1,.06c-.08,.06-.2,.15-.37,.25-.19,.12-.37,.28-.53,.48-.23,.03-.46,.08-.73,.17l-.23,.12,.15,.35h0l-.26-.31-.12,.05c-.33,.18-.59,.4-.77,.67-.4,.59-.22,1.09-.12,1.27,.12,.22,.42,.59,1.16,.59h0c.17,0,.35-.04,.51-.1h0l8.3,15.5h0c-.27,.21-.46,.43-.54,.66-.15,.34-.14,.7,.03,1.03,.1,.18,.4,.6,1.11,.6h.09c.3-.02,.61-.11,.94-.29l.45-.29c.17-.14,.33-.29,.48-.45,.4-.05,.82-.2,1.25-.43l3.31-1.77c.33-.17,.59-.4,.77-.68,.4-.6,.21-1.09,.12-1.27l-.59-1.1Zm-6.82,5.88h0Z"/><path class="cls-2" d="M248.47,255.97c-.29,.1-.56,.26-.81,.48-.44,.4-.67,.81-.69,1.22-.01,.31,.1,.6,.31,.84,.21,.23,.34,.49,.4,.8,.08,.44-.08,.59-.17,.66-.12,.11-.24,.15-.46,.16-.38-.04-.69-.21-.98-.53l-10.11-11.14c-.1-.12-.2-.26-.28-.42-.07-.14-.11-.28-.13-.42-.02-.14,0-.28,.03-.41,.02-.07,.07-.14,.15-.22,.21-.19,.37-.21,.7-.11,.28,.09,.53,.25,.8,.54l.16,.12c.56,.33,1.24,.2,1.87-.37,.24-.22,.81-.74,.67-1.42-.03-.16-.06-.26-.07-.31l-.03-.11-1.85-2.1c-.27-.31-.61-.37-.85-.37-.12,0-.25,.02-.39,.05-.32,.08-.62,.25-.89,.5-.29,.26-.49,.54-.59,.82-.13,.06-.25,.12-.37,.19-.29,.16-.57,.38-.88,.66-.98,.89-1.51,1.86-1.58,2.87-.07,1.03,.28,1.96,1.02,2.78l10.11,11.14c.74,.82,1.64,1.25,2.67,1.28h.1c.1,0,.21,0,.31-.01,.88-.08,1.75-.51,2.59-1.28,.98-.89,1.51-1.85,1.57-2.87,.06-1.02-.29-1.95-1.03-2.76-.31-.34-.78-.45-1.3-.28Z"/><path class="cls-2" d="M259.23,248.33c-.3-.28-.79-.37-1.26-.21-.31,.11-.59,.3-.84,.57-.25,.27-.43,.57-.51,.88-.18,.66,.12,1.07,.28,1.23l-1.11,1.19-9.15-8.54,.56-.6c.36-.39,.55-.73,.58-1.07,.06-.56-.19-.89-.35-1.04-.3-.29-.79-.38-1.26-.21-.31,.11-.59,.3-.85,.57l-.56,.59-1.8-1.68,1.11-1.19c.3,.27,.79,.36,1.24,.2,.31-.11,.59-.3,.85-.57,.25-.27,.42-.57,.51-.89,.19-.7-.15-1.1-.3-1.24l-.91-.85c-.3-.28-.8-.37-1.26-.21-.31,.11-.6,.3-.85,.57l-2.58,2.77-.07,.09c-.06,.08-.15,.2-.27,.36-.14,.18-.26,.38-.35,.62-.2,.1-.41,.23-.64,.4l-.19,.19,.26,.28h0l-.34-.21-.1,.09c-.25,.27-.42,.57-.51,.88-.19,.69,.15,1.1,.3,1.24,.32,.3,.79,.38,1.26,.21,.17-.07,.34-.16,.49-.27h0l12.85,12.01h0c-.19,.29-.3,.55-.3,.79-.04,.37,.09,.72,.36,.97,.15,.14,.4,.3,.77,.3h.09c.13-.01,.26-.04,.4-.09,.31-.11,.59-.3,.87-.6l.33-.42c.11-.19,.22-.38,.31-.58,.36-.18,.72-.45,1.05-.81l2.56-2.74c.25-.27,.43-.57,.51-.88,.19-.69-.14-1.1-.3-1.24l-.91-.85Zm-4.91,7.82h0Z"/><path class="cls-2" d="M269.21,237.04c-.37-.27-.87-.27-1.33,0-.15,.09-.29,.19-.41,.32h-.01l-13.26-9.51c-.9-.64-1.87-.87-2.88-.69-1,.18-1.9,.82-2.67,1.9-.45,.64-.74,1.28-.86,1.91-.3,.14-.57,.33-.8,.55-.12,.1-.22,.22-.32,.35-.03,.04-.07,.09-.15,.16l-.06,.08c-.22,.3-.35,.62-.39,.94-.1,.71,.29,1.07,.46,1.2,.36,.25,.84,.27,1.27,.04,.17-.09,.32-.2,.45-.33h0l14.29,10.25h0c-.16,.31-.22,.59-.2,.82,0,.37,.18,.69,.48,.91,.19,.13,.41,.21,.65,.21h.09c.18-.02,.35-.07,.53-.16,.29-.14,.55-.37,.79-.71l.06-.11c.03-.07,.07-.14,.09-.18l-.34-.18,.39,.1,.06-.1c.11-.22,.19-.42,.25-.62,.18-.1,.32-.21,.43-.31,.15-.14,.32-.34,.51-.61,.22-.3,.35-.62,.39-.94,.01-.11,.02-.21,.01-.31,.1-.03,.19-.06,.29-.11,.29-.14,.55-.37,.79-.71l.28-.46c.09-.2,.17-.41,.23-.61,.34-.22,.65-.54,.94-.93,.22-.3,.35-.62,.39-.94,.1-.71-.29-1.07-.45-1.19Zm-18.48-6.5c.12-.16,.24-.23,.44-.25,.04,0,.08,0,.12,0,.32,0,.62,.11,.93,.32l13.26,9.5h0c-.16,.31-.22,.59-.2,.82v.04c-.09,.03-.19,.07-.28,.11-.17,.09-.33,.21-.47,.35h0l-13.26-9.51c-.13-.09-.25-.21-.36-.35-.1-.12-.17-.25-.22-.39-.05-.13-.07-.27-.06-.41,0-.07,.04-.15,.1-.24Zm12.76,15.2h0Z"/><path class="cls-2" d="M275.31,226.58c-.39-.19-.86-.13-1.26,.17-.15,.12-.29,.26-.41,.42h0l-15.72-7.82,.17-.35c.38,.18,.84,.12,1.25-.17,.26-.19,.48-.45,.65-.79,.16-.33,.24-.67,.24-.99-.02-.71-.45-1.01-.64-1.1l-1.11-.55c-.39-.19-.85-.14-1.27,.15-.27,.19-.48,.46-.65,.79l-1.12,2.25c-.21,.42-.34,.84-.38,1.23-.28,.27-.53,.61-.73,1.02l-1.12,2.25c-.17,.33-.25,.67-.24,.99,.02,.72,.45,1.01,.64,1.1l1.11,.55c.39,.19,.86,.14,1.26-.15,.27-.19,.49-.46,.65-.79,.17-.33,.25-.67,.24-.99-.02-.69-.42-.99-.62-1.09l.16-.32,15.73,7.82h0c-.1,.33-.13,.61-.07,.83,.06,.36,.29,.67,.62,.83,.15,.08,.32,.12,.49,.12,.05,0,.1,0,.14,0,.22-.03,.42-.11,.63-.26,.26-.19,.48-.45,.66-.82l.04-.12c.02-.08,.04-.15,.06-.2l-.36-.12,.4,.03,.04-.1c.07-.24,.12-.45,.15-.65,.16-.13,.28-.25,.37-.37,.13-.16,.26-.39,.41-.68,.17-.33,.25-.67,.24-.99-.02-.72-.46-1.01-.65-1.11Z"/><path class="cls-2" d="M281.43,211.72l-1.18-.41c-.41-.14-.87-.02-1.23,.32-.24,.22-.42,.51-.54,.87-.12,.35-.16,.69-.11,1.02,.11,.68,.55,.93,.75,1l-.53,1.54-11.83-4.09,.27-.77c.17-.5,.21-.89,.1-1.22-.17-.53-.54-.73-.74-.8-.41-.14-.87-.03-1.24,.32-.24,.22-.42,.51-.54,.86l-.27,.77-2.33-.81,.53-1.54c.41,.13,.85,.01,1.21-.32,.24-.22,.42-.51,.54-.87,.12-.36,.16-.7,.11-1.01-.11-.71-.58-.95-.78-1.02l-1.17-.41c-.41-.14-.87-.03-1.24,.32-.24,.22-.42,.51-.54,.86l-1.23,3.57-.03,.11c-.02,.1-.05,.25-.1,.45-.06,.22-.08,.46-.07,.71-.15,.17-.28,.37-.42,.62l-.2,.47c-.12,.35-.16,.7-.11,1.01,.08,.5,.36,.87,.78,1.02,.41,.14,.88,.02,1.23-.32,.13-.13,.25-.28,.34-.45h0l16.62,5.75h0c-.06,.34-.05,.62,.04,.84,.11,.35,.37,.62,.72,.74,.12,.04,.23,.06,.36,.06,.05,0,.1,0,.15-.01,.26-.03,.5-.16,.72-.37,.24-.22,.42-.51,.55-.9l.13-.52c.03-.22,.05-.44,.05-.65,.26-.31,.47-.7,.63-1.16l1.23-3.55c.12-.35,.16-.69,.11-1.02-.08-.5-.36-.86-.78-1.01Z"/><path class="cls-2" d="M286.05,199.46c-.16-.7-.64-.9-.84-.96-.44-.12-.91,.05-1.24,.46-.11,.13-.2,.28-.27,.44h-.02l-10.9-2.94c-.82-.22-1.55-.22-2.18,0-.17,.06-.34,.14-.51,.23-.1-.16-.21-.32-.34-.47-.43-.51-1.05-.87-1.83-1.08-.59-.16-1.16-.19-1.7-.08-.52,.11-.99,.31-1.4,.59-.41,.29-.77,.66-1.05,1.12-.27,.43-.48,.91-.62,1.44l-.32,1.2c-.12,.46-.17,.89-.14,1.28-.13,.18-.22,.36-.29,.54l-.23,.61c-.1,.36-.11,.7-.04,1.02,.16,.7,.64,.9,.85,.96,.43,.11,.88-.04,1.2-.4,.13-.14,.23-.3,.31-.47h0l16.98,4.59h0c-.04,.34,0,.62,.1,.83,.13,.34,.41,.59,.78,.69,.09,.02,.19,.04,.28,.04h.09c.31-.03,.59-.18,.83-.44,.22-.24,.38-.54,.49-.94l.02-.12c0-.08,.01-.15,.02-.21l-.38-.05h0l.4-.05,.02-.1c.02-.24,.03-.46,.02-.67,.13-.16,.23-.31,.29-.44,.09-.18,.18-.42,.26-.75,.1-.36,.11-.7,.04-1.02-.02-.11-.06-.2-.1-.3,.08-.06,.16-.13,.23-.21,.22-.24,.38-.54,.49-.94l.1-.53c.01-.21,.01-.43,0-.65,.24-.33,.42-.73,.55-1.2,.1-.36,.11-.7,.04-1.02Zm-15.58,.74c.05-.17,.14-.28,.34-.4,.27-.17,.62-.18,1.08-.06l10.9,2.94h0c-.04,.34,0,.63,.1,.84v.03c-.06,.06-.14,.13-.21,.21-.13,.14-.23,.31-.32,.5h0l-12.1-3.27,.21-.78Zm-2.47-.67l-.21,.78-2.38-.64,.21-.79c.05-.17,.14-.29,.34-.4,.28-.17,.62-.18,1.08-.06,.61,.16,.79,.41,.88,.59,.13,.26,.11,.42,.09,.51Zm14.64,9.17h0Z"/></g><path class="cls-2" d="M204.01,197.82c.65,1.78,1.26,3.4,2.01,5.27,.64,1.6,1.21,2.88,2.25,4.22,0,0,1.25-7.71,.35-10.17-.19,1.15-.44,1.71-1.8,1.94-1.57,.27-2.34-.46-2.82-1.26Z"/><path class="cls-2" d="M197.38,202.08c.12-.37-.83-.27-1.77-.72-1.02-.5-1.65-1.55-2.23-2.49-1.29,6.55,6.16,9.01,8.71,8.34,0,0-5.37-3.17-4.72-5.13Z"/><path class="cls-2" d="M259.35,169.19c-2.71-19.43-12.36-37.18-27.19-49.99-14.69-12.69-33.42-19.68-52.73-19.68h0c-3.74,0-7.53,.26-11.25,.78-44.13,6.15-75.03,47.05-68.88,91.18,2.71,19.43,12.37,37.19,27.2,49.99,14.69,12.69,33.42,19.67,52.74,19.67,3.74,0,7.52-.26,11.25-.78,21.38-2.98,40.32-14.1,53.33-31.32,13.01-17.22,18.54-38.48,15.56-59.86Zm-36.01,25.03c-1.51-2.24-3.99-3.02-7.97-.72-.15-.8-.17-3.78-.96-4.21,7.55-2.63,8.93,4.93,8.93,4.93Zm-46.87-50.34c.03,.38,1.92,1.32,2.17,.55,.34-1.06,1.17-3.43,.51-3.67,2.74,1,1.58,2.81,2.52,3.3,.74,.39,2.02-.4,3.21-.97,1.78-.85,2.45-1.59,3.66-2.9-.25,.6-.61,1.17-1.12,1.69-1.4,1.42-1.91,2.34-3.7,3.21-7.06,3.46-9.34-1.56-9.5-1.92,0,0-.02,0-.03,0,.5-.98,1.12-2.52,.48-3.18,1.26,1.29,1.85,2.88,1.8,3.87Zm-5.38-7.21c.94,.19,2.2,.17,3.15-.19-1.04,1.57-1.49,3.38-1.56,4.29,0,0-2.6-3.06-3.17-5.24,.71-.05,.8,.98,1.57,1.14Zm-1.79-1.11c-.64,.89-.4,4.68-.45,4.5-1.18-1.05-1.87-3.4-2.21-5.46,.69,.58,1.88,1.04,2.65,.96Zm-1.65,11.91c.32,5.34-3.74,9.92-9.07,10.24-5.33,.32-9.92-3.74-10.24-9.07-.32-5.33,3.74-9.91,9.07-10.24s9.92,3.74,10.24,9.07Zm-11.35-27.89c.64,4.74-4.58,7.73-3.94,12.46,.12,.88,.91,1.4,1.79,1.36,1.95-.09-1.46-8.96,7.4-11.52,0,0-5.45,10.09-1.14,14.24,1.5,1.93-10.11-3.57-13.14,8.16-.07,.27-1.91-5.76,.15-9.08,1.02-1.65-5.16-1.18-7.77-6.87-1.99-4.33,1.42-9.52,2.93-11.52-.26,1.38-.65,13.55,4.79,9.9,7.7-5.17,.65-5.5-.99-9.85-1.37-3.65,1.28-6.48,5.16-8.92,0,0-3.25,4.62-1.5,6.73,2.21,2.67,5.76,1.33,6.24,4.88Zm49.33,134.19c-4.95,1.77-10.15,3.06-15.56,3.82-3.65,.51-7.28,.76-10.86,.76-38.3,0-71.7-28.22-77.14-67.23-5.28-37.88,17.61-73.19,52.68-84.78-16.52,7.35-29.9,26.69-26.25,46.44,4.18,22.61,25.88,37.63,48.57,34.18,16.05-2.44,42.46,2.26,49.51,32.15,5.57,23.64-20.29,34.41-20.94,34.68Zm28.1-65.33c-.46-.13-.77-.05-1.22-.2-.86-.29-1.29-.51-2.12-.83-.43-.17-.73-.33-1.12-.6-.79-.54-1.27-1.15-1.58-2.04,.94,.54,2.43,.18,3.02-1.41,.33,1.22,.9,1.88,1.75,2.88,.8,.93,2.17,2.27,2.13,2.29-.29,.1-.56,0-.85-.09Zm6.82-11.72c-.43,2.01-.84,3.34-2.38,4.68,.1-2.19,.31-4.29-.93-5.97h0c1.63,.2,2.58-.73,2.71-1.62,.06,.09,.12,.19,.18,.28,.54,.84,.63,1.63,.42,2.62Zm2.72-3.1c-.69-2.09-1.27-4.14-2.71-5.52,1.34-.02,1.82-2.3,1.56-3.5,.08,.06,.16,.12,.25,.19,.94,.69,1.37,1.53,1.55,2.69,.37,2.39,.47,4.01-.65,6.14Zm2.88-10c-.4,.95-.65,1.49-1.32,2.27-.24-1.62-.18-2.52-.93-3.95-.29-.54-.78-.84-1.2-1.26,1.44-.45,2.19-1.69,2.17-2.69,.2,.15,.39,.3,.62,.53,.3,.31,.38,.56,.56,.94,.4,.84,.61,1.37,.59,2.3-.01,.74-.21,1.16-.49,1.85Z"/><path class="cls-2" d="M168.67,128.15c-.26,.25-.6,1.25-.55,2.07,.01,.24,.07,.44,.15,.64,.45-.72,.74-1.43,.95-2.31-.1-.14-.36-.34-.54-.41Z"/><path class="cls-2" d="M168.33,127.89c-.14-.45-.41-1.01-.87-.86-.55,.17-.65,.74-.72,1.31-.07,.55-.19,.93-.02,1.47,.24,.76,.64,1.12,1.23,1.67-.22-1.44,.82-2.2,.39-3.58Z"/><path class="cls-2" d="M171.58,127.41c-1.09,.07-1.59,2.02-1.52,3.11,.07,1.12,.71,1.64,.87,2.75,1.33-1.5,1.94-2.61,2.33-4.3,.13-.75-1.08-1.6-1.67-1.56Z"/><path class="cls-2" d="M173.71,144.05v.03s.03-.06,.04-.09l-.04,.06Z"/><path class="cls-2" d="M173.75,143.99c.07-.12,.25-.41,.44-.8-.18,.04-.33,.35-.44,.8Z"/><path class="cls-1" d="M190.6,107.62c.2-.05,.41-.09,.62-.13"/><path class="cls-2" d="M169.3,135.55s.08,0,.12-.01c.04,0,.07,0,.1-.01-.01-.05-.03-.09-.04-.14-.07,.03-.13,.09-.18,.16Z"/><path class="cls-4" d="M278.09,81.91c-26.21-26.21-61.04-40.64-98.09-40.64s-71.89,14.43-98.09,40.64c-26.21,26.21-40.64,61.04-40.64,98.09s14.43,71.89,40.64,98.09c26.21,26.21,61.04,40.64,98.09,40.64s71.89-14.43,98.09-40.64c26.21-26.21,40.64-61.04,40.64-98.09s-14.43-71.89-40.64-98.09Zm18.38,28.3c.42,.82,.86,1.65,1.28,2.48,1.5,2.95,2.96,5.93,4.4,8.93,.4,.86,.79,1.72,1.18,2.58-1.19,.53-2.35,1.05-3.49,1.56-1.13,.5-2.23,1-3.32,1.48-1.07,.48-2.12,.95-3.16,1.41-1.02,.45-2.02,.9-3.01,1.34-1.18-2.63-2.4-5.23-3.65-7.8,1.08-.57,2.19-1.15,3.31-1.74,1.14-.6,2.31-1.21,3.5-1.84,.48,.97,.95,1.93,1.42,2.9-.74,.37-1.48,.73-2.21,1.1-.72,.36-1.43,.71-2.14,1.06,.36,.76,.72,1.53,1.08,2.3,1.15-.55,2.33-1.1,3.52-1.67,1.22-.58,2.46-1.17,3.73-1.77-1.24-2.61-2.52-5.2-3.81-7.77-1.03,.57-2.06,1.13-3.06,1.68-.99,.54-1.96,1.08-2.92,1.6-.95,.52-1.87,1.03-2.79,1.53-.9,.5-1.79,.98-2.66,1.46,.99,1.98,1.97,3.97,2.91,5.99,.94,2.02,1.84,4.06,2.73,6.12,1.13-.48,2.29-.97,3.46-1.47,1.19-.51,2.42-1.03,3.66-1.56,1.27-.54,2.56-1.09,3.88-1.65,1.34-.57,2.72-1.16,4.13-1.75,.37,.87,.73,1.75,1.08,2.63,.99,2.51,1.95,5.03,2.84,7.56,.89,2.53,1.71,5.08,2.52,7.63,.28,.89,.55,1.79,.83,2.69-1.73,.45-3.43,.9-5.08,1.33-1.61,.42-3.19,.84-4.73,1.24-1.5,.39-2.98,.78-4.42,1.16-1.41,.37-2.79,.73-4.14,1.09-.73-2.15-1.44-4.29-2.18-6.44-.74-2.15-1.5-4.29-2.29-6.43,.94-.35,1.89-.71,2.86-1.08,.98-.37,1.98-.75,3-1.13,1.03-.39,2.08-.78,3.15-1.19,1.08-.41,2.19-.82,3.31-1.25,1.06,2.86,2.07,5.74,3.04,8.62-1.39,.42-2.76,.84-4.09,1.25-1.31,.4-2.6,.79-3.85,1.18-.32-.97-.65-1.93-.99-2.89,.8-.27,1.62-.54,2.44-.81,.83-.28,1.68-.56,2.53-.84-.28-.81-.57-1.62-.86-2.43-1.23,.43-2.43,.86-3.61,1.27-1.16,.41-2.3,.81-3.42,1.21,.88,2.48,1.72,4.97,2.56,7.46,.96-.28,1.94-.56,2.93-.84,1-.29,2.03-.58,3.07-.88,1.06-.3,2.13-.61,3.21-.92,1.11-.32,2.23-.64,3.38-.97-.75-2.32-1.51-4.63-2.32-6.94-.81-2.3-1.68-4.6-2.57-6.89-1.35,.54-2.68,1.07-3.98,1.59-1.27,.51-2.52,1.01-3.75,1.49-1.2,.48-2.38,.95-3.54,1.41-1.14,.45-2.26,.9-3.35,1.34-.61-1.47-1.22-2.94-1.85-4.4-.63-1.46-1.27-2.91-1.94-4.34-.67-1.44-1.36-2.86-2.06-4.27-.7-1.41-1.41-2.81-2.12-4.21,1.21-.7,2.44-1.41,3.7-2.14,1.29-.74,2.61-1.51,3.96-2.29,1.38-.8,2.79-1.61,4.23-2.45,1.48-.86,2.99-1.73,4.54-2.63Zm-3.63,69.79c0,30.13-11.74,58.47-33.05,79.78-21.31,21.31-49.65,33.05-79.78,33.05s-58.47-11.74-79.78-33.05c-21.31-21.31-33.05-49.65-33.05-79.78s11.74-58.47,33.05-79.78c21.31-21.31,49.65-33.05,79.78-33.05s58.47,11.74,79.78,33.05c21.31,21.31,33.05,49.65,33.05,79.78Zm-38.03-101.02c.97-1.26,1.96-2.56,2.97-3.88,1.04-1.36,2.1-2.74,3.19-4.17,.71,.6,1.42,1.2,2.14,1.8,2.51,2.15,5,4.34,7.48,6.57,.7,.64,1.39,1.29,2.08,1.94-.89,.94-1.77,1.87-2.63,2.78-.85,.9-1.68,1.78-2.5,2.64-.8,.85-1.6,1.69-2.38,2.51-.77,.81-1.52,1.61-2.26,2.39-2.1-1.98-4.22-3.91-6.36-5.81,.78-.94,1.58-1.9,2.39-2.87,.82-.99,1.67-2,2.53-3.03,.81,.71,1.62,1.42,2.42,2.14-.54,.63-1.09,1.25-1.62,1.86-.53,.61-1.05,1.21-1.57,1.8,.63,.57,1.25,1.13,1.88,1.71,.86-.95,1.73-1.91,2.62-2.89,.91-1,1.83-2.02,2.77-3.06-2.15-1.94-4.31-3.84-6.5-5.72-.74,.92-1.47,1.83-2.18,2.72-.71,.88-1.4,1.75-2.08,2.6-.67,.84-1.34,1.67-1.99,2.48-.64,.8-1.27,1.59-1.9,2.37,1.67,1.45,3.34,2.92,4.98,4.42,1.64,1.5,3.26,3.05,4.86,4.61,.86-.88,1.74-1.77,2.64-2.68,.91-.93,1.84-1.87,2.78-2.84,.97-.98,1.95-1.99,2.96-3.01,1.02-1.04,2.07-2.11,3.14-3.2,.67,.66,1.35,1.34,2.01,2.01,1.87,1.94,3.73,3.9,5.52,5.9,1.79,2,3.53,4.04,5.25,6.08,.6,.72,1.19,1.44,1.8,2.17-1.43,1.08-2.82,2.14-4.18,3.17-1.33,1.01-2.63,1.99-3.9,2.96-1.24,.94-2.45,1.86-3.64,2.76-1.16,.88-2.3,1.74-3.41,2.59-1.5-1.7-2.98-3.42-4.48-5.12-1.5-1.7-3.03-3.39-4.58-5.07,.73-.69,1.48-1.38,2.23-2.09,.77-.72,1.55-1.45,2.34-2.19,.8-.75,1.62-1.52,2.45-2.3,.84-.79,1.7-1.6,2.58-2.42,2.07,2.24,4.11,4.51,6.11,6.8-1.12,.92-2.23,1.83-3.3,2.72-1.06,.87-2.09,1.73-3.11,2.56-.67-.77-1.34-1.53-2.02-2.3,.64-.55,1.29-1.11,1.95-1.68,.66-.57,1.34-1.15,2.02-1.75-.57-.64-1.15-1.28-1.72-1.92-.97,.87-1.92,1.72-2.85,2.56-.92,.82-1.82,1.63-2.7,2.42,1.76,1.96,3.49,3.93,5.21,5.91,.78-.62,1.58-1.26,2.39-1.9,.82-.65,1.65-1.31,2.5-1.99,.86-.68,1.73-1.38,2.62-2.08,.9-.72,1.82-1.45,2.75-2.19-1.58-1.86-3.16-3.7-4.8-5.52-1.63-1.82-3.32-3.61-5.01-5.38-1.04,1.02-2.07,2.01-3.07,2.99-.98,.96-1.95,1.89-2.89,2.82-.93,.9-1.84,1.79-2.73,2.66-.88,.85-1.74,1.69-2.59,2.52-1.12-1.13-2.26-2.25-3.39-3.36-1.14-1.11-2.29-2.2-3.46-3.27-1.17-1.07-2.35-2.12-3.54-3.16-1.18-1.04-2.38-2.06-3.57-3.08,.85-1.11,1.72-2.24,2.6-3.4,.91-1.18,1.83-2.39,2.78-3.63Zm-45.46-16.54c.39-1.44,.78-2.91,1.18-4.41,.41-1.54,.83-3.11,1.26-4.72,.44-1.65,.89-3.34,1.35-5.07,.88,.28,1.77,.56,2.66,.85,3.14,1.03,6.28,2.1,9.43,3.21,.89,.32,1.78,.66,2.66,.99-.47,1.21-.92,2.4-1.37,3.57-.44,1.15-.87,2.28-1.3,3.39-.42,1.09-.83,2.17-1.23,3.23-.4,1.04-.79,2.07-1.17,3.07-2.69-1.02-5.4-2-8.1-2.93,.36-1.17,.73-2.36,1.11-3.57,.38-1.23,.77-2.49,1.17-3.77,1.02,.35,2.04,.7,3.06,1.05-.26,.79-.53,1.57-.79,2.34-.26,.76-.51,1.52-.76,2.26,.79,.28,1.59,.57,2.39,.86,.43-1.2,.86-2.43,1.31-3.67,.45-1.27,.91-2.57,1.39-3.89-2.73-.97-5.46-1.9-8.19-2.8-.33,1.13-.66,2.25-.98,3.35-.32,1.08-.63,2.15-.93,3.2-.3,1.04-.6,2.05-.89,3.06-.29,.99-.57,1.96-.85,2.92,2.1,.7,4.2,1.42,6.29,2.18,2.09,.76,4.18,1.57,6.25,2.4,.46-1.14,.93-2.3,1.41-3.49,.48-1.21,.98-2.44,1.49-3.69,.52-1.28,1.04-2.58,1.58-3.91,.55-1.35,1.11-2.74,1.68-4.16,.88,.36,1.76,.72,2.63,1.09,2.47,1.07,4.93,2.18,7.35,3.34,2.42,1.16,4.8,2.38,7.17,3.61,.83,.44,1.65,.88,2.49,1.32-.91,1.55-1.79,3.06-2.65,4.53-.84,1.44-1.66,2.85-2.47,4.22-.78,1.34-1.55,2.66-2.3,3.94-.73,1.26-1.46,2.49-2.16,3.7-2.03-1-4.06-2.02-6.1-3.02-2.04-1-4.1-1.97-6.17-2.93,.41-.91,.83-1.84,1.26-2.79,.43-.96,.87-1.93,1.32-2.92,.45-1,.92-2.03,1.39-3.06,.48-1.06,.96-2.13,1.46-3.22,2.77,1.28,5.52,2.6,8.25,3.94-.68,1.28-1.35,2.55-2.01,3.78-.64,1.21-1.27,2.4-1.89,3.56-.91-.45-1.83-.9-2.74-1.35,.38-.76,.76-1.52,1.15-2.3,.39-.78,.79-1.58,1.2-2.39-.77-.38-1.55-.75-2.33-1.12-.56,1.17-1.12,2.33-1.66,3.45-.53,1.11-1.06,2.2-1.57,3.27,2.37,1.14,4.73,2.29,7.08,3.47,.49-.88,.98-1.76,1.48-2.67,.51-.91,1.02-1.85,1.55-2.79,.53-.96,1.07-1.93,1.62-2.92,.56-1.01,1.13-2.03,1.7-3.07-2.17-1.11-4.34-2.21-6.54-3.27-2.2-1.06-4.45-2.06-6.69-3.05-.58,1.34-1.14,2.65-1.69,3.94-.54,1.26-1.07,2.5-1.6,3.71-.51,1.19-1.01,2.36-1.51,3.5-.49,1.13-.96,2.23-1.43,3.32-1.47-.61-2.95-1.21-4.42-1.8-1.47-.59-2.96-1.16-4.45-1.7-1.49-.54-2.98-1.06-4.48-1.56-1.49-.5-2.98-.99-4.47-1.48,.36-1.35,.73-2.73,1.11-4.13Zm-46.29-17.11c3.3-.25,6.61-.47,9.93-.64,.95-.04,1.89-.07,2.84-.1,.03,1.3,.07,2.57,.1,3.82,.03,1.23,.07,2.44,.1,3.63,.03,1.17,.06,2.32,.09,3.46,.03,1.12,.06,2.21,.09,3.29-2.88,.09-5.75,.22-8.61,.39-.11-1.22-.22-2.46-.34-3.72-.12-1.28-.24-2.59-.36-3.93,1.07-.07,2.15-.14,3.23-.2,.06,.83,.11,1.65,.17,2.46,.06,.8,.11,1.6,.16,2.38,.84-.04,1.69-.08,2.53-.12-.07-1.28-.13-2.57-.2-3.9-.07-1.35-.14-2.72-.21-4.13-2.89,.15-5.77,.33-8.64,.55,.13,1.17,.26,2.33,.38,3.47,.12,1.12,.24,2.23,.36,3.31,.12,1.07,.23,2.13,.35,3.16,.11,1.02,.22,2.03,.33,3.02,2.21-.15,4.43-.3,6.65-.4,2.23-.1,4.46-.15,6.7-.18-.01-1.23-.02-2.48-.03-3.76-.01-1.3-.03-2.63-.04-3.98-.01-1.38-.02-2.78-.04-4.22-.01-1.46-.03-2.96-.04-4.48,.95,0,1.9,0,2.84,0,2.69,.05,5.39,.12,8.07,.27,2.68,.15,5.35,.36,8.01,.59,.93,.09,1.86,.18,2.81,.27-.25,1.78-.48,3.51-.71,5.2-.23,1.65-.45,3.27-.66,4.85-.21,1.54-.42,3.05-.62,4.52-.2,1.44-.39,2.86-.58,4.24-2.26-.15-4.52-.31-6.79-.45-2.26-.14-4.54-.26-6.82-.34,.03-1,.07-2.02,.1-3.06,.03-1.05,.07-2.12,.1-3.21,.03-1.1,.07-2.22,.11-3.36,.04-1.16,.08-2.34,.11-3.53,3.05,.12,6.09,.29,9.13,.49-.14,1.45-.28,2.87-.41,4.26-.13,1.37-.26,2.7-.39,4.01-1.02-.07-2.03-.13-3.05-.2,.06-.84,.12-1.7,.19-2.56,.06-.88,.13-1.76,.19-2.66-.86-.05-1.72-.1-2.58-.14-.07,1.3-.14,2.58-.21,3.83-.07,1.23-.13,2.44-.2,3.62,2.63,.14,5.25,.31,7.87,.49,.11-1,.23-2,.35-3.03,.12-1.04,.24-2.1,.36-3.17,.12-1.09,.25-2.2,.38-3.32,.13-1.15,.26-2.31,.4-3.49-2.43-.2-4.85-.38-7.3-.51-2.44-.13-4.9-.21-7.35-.26-.02,1.46-.04,2.89-.06,4.29-.02,1.37-.04,2.72-.05,4.04-.02,1.29-.03,2.57-.05,3.81-.02,1.23-.03,2.43-.05,3.61-1.59,0-3.19,0-4.77,.03-1.59,.02-3.18,.06-4.76,.13-1.58,.07-3.16,.16-4.73,.27-1.57,.11-3.14,.22-4.7,.34-.18-1.38-.37-2.8-.56-4.24-.19-1.48-.39-2.99-.6-4.53-.21-1.58-.42-3.2-.64-4.85-.22-1.69-.45-3.43-.69-5.2,.92-.08,1.85-.16,2.79-.24Zm-50.17,16.72c2.95-1.5,5.93-2.96,8.93-4.4,.86-.4,1.72-.79,2.58-1.18,.53,1.19,1.05,2.35,1.56,3.49,.5,1.13,1,2.23,1.48,3.32,.48,1.07,.95,2.12,1.41,3.16,.45,1.02,.9,2.02,1.34,3-2.63,1.18-5.23,2.4-7.8,3.65-.57-1.08-1.15-2.19-1.74-3.31-.6-1.14-1.21-2.31-1.84-3.5,.97-.48,1.93-.95,2.9-1.42,.37,.74,.74,1.48,1.1,2.21,.36,.72,.71,1.43,1.06,2.14,.76-.36,1.53-.72,2.3-1.08-.55-1.15-1.1-2.33-1.67-3.52-.58-1.22-1.17-2.46-1.77-3.73-2.61,1.24-5.2,2.52-7.77,3.81,.57,1.03,1.13,2.06,1.68,3.06,.54,.99,1.08,1.96,1.6,2.92,.52,.95,1.03,1.87,1.53,2.79,.5,.9,.98,1.79,1.46,2.66,1.98-.99,3.97-1.97,5.99-2.91,2.02-.94,4.06-1.84,6.12-2.73-.48-1.13-.97-2.29-1.47-3.46-.51-1.19-1.03-2.42-1.56-3.66-.54-1.27-1.09-2.56-1.65-3.88-.57-1.34-1.16-2.72-1.75-4.13,.87-.37,1.75-.73,2.63-1.08,2.51-.99,5.03-1.95,7.56-2.84,2.53-.89,5.08-1.71,7.62-2.52,.89-.28,1.79-.55,2.69-.83,.45,1.73,.9,3.43,1.33,5.08,.42,1.61,.84,3.19,1.24,4.73,.39,1.5,.78,2.98,1.16,4.42,.37,1.41,.73,2.79,1.09,4.14-2.15,.73-4.29,1.44-6.44,2.18-2.15,.74-4.29,1.5-6.43,2.29-.35-.94-.71-1.89-1.08-2.86-.37-.98-.75-1.98-1.13-3-.39-1.03-.78-2.08-1.19-3.15-.41-1.08-.82-2.19-1.25-3.31,2.86-1.06,5.74-2.07,8.62-3.04,.42,1.39,.84,2.76,1.25,4.09,.4,1.31,.79,2.6,1.18,3.85-.96,.32-1.93,.65-2.89,.99-.27-.8-.54-1.62-.81-2.44-.28-.83-.56-1.68-.84-2.53-.81,.28-1.62,.57-2.43,.86,.43,1.23,.86,2.43,1.27,3.61,.41,1.16,.81,2.3,1.21,3.42,2.48-.88,4.97-1.72,7.46-2.56-.28-.96-.56-1.94-.84-2.93-.29-1-.58-2.03-.88-3.07-.3-1.06-.61-2.13-.92-3.21-.32-1.11-.64-2.23-.97-3.38-2.32,.75-4.63,1.5-6.94,2.32-2.3,.81-4.6,1.68-6.89,2.57,.54,1.35,1.07,2.68,1.59,3.98,.51,1.27,1.01,2.52,1.49,3.75,.48,1.2,.95,2.38,1.41,3.54,.45,1.14,.9,2.26,1.34,3.35-1.47,.61-2.94,1.22-4.4,1.85-1.46,.63-2.91,1.27-4.34,1.94-1.44,.67-2.86,1.36-4.27,2.06-1.41,.7-2.81,1.41-4.21,2.12-.7-1.21-1.41-2.44-2.14-3.7-.74-1.29-1.51-2.61-2.29-3.95-.8-1.38-1.61-2.79-2.45-4.23-.86-1.48-1.73-2.99-2.63-4.54,.82-.42,1.65-.85,2.48-1.28Zm-39.95,34.65c2.15-2.51,4.34-5,6.57-7.48,.64-.7,1.29-1.39,1.94-2.08,.94,.9,1.87,1.77,2.78,2.63,.9,.85,1.78,1.68,2.64,2.5,.85,.8,1.69,1.6,2.51,2.38,.81,.77,1.61,1.52,2.39,2.26-1.98,2.1-3.91,4.22-5.81,6.36-.94-.78-1.9-1.58-2.87-2.39-.99-.82-2-1.67-3.03-2.53,.71-.81,1.42-1.62,2.14-2.42,.63,.54,1.25,1.09,1.86,1.62,.61,.53,1.21,1.05,1.8,1.57,.57-.63,1.13-1.25,1.71-1.88-.95-.86-1.91-1.73-2.89-2.62-1-.91-2.02-1.83-3.06-2.77-1.94,2.15-3.84,4.31-5.72,6.5,.92,.74,1.83,1.47,2.72,2.18,.88,.71,1.75,1.4,2.6,2.08,.84,.67,1.67,1.34,2.48,1.99,.8,.64,1.59,1.28,2.37,1.9,1.45-1.67,2.92-3.34,4.42-4.98,1.5-1.64,3.05-3.26,4.61-4.86-.88-.86-1.77-1.74-2.68-2.64-.93-.91-1.87-1.84-2.84-2.78-.98-.97-1.99-1.95-3.01-2.96-1.04-1.02-2.11-2.07-3.2-3.14,.66-.67,1.34-1.35,2.01-2.01,1.94-1.87,3.9-3.73,5.9-5.52,2-1.79,4.04-3.53,6.08-5.25,.72-.6,1.44-1.19,2.17-1.8,1.08,1.43,2.14,2.82,3.17,4.18,1.01,1.33,1.99,2.63,2.96,3.9,.94,1.24,1.86,2.45,2.76,3.64,.88,1.16,1.74,2.3,2.59,3.41-1.7,1.5-3.42,2.98-5.12,4.48-1.7,1.5-3.39,3.03-5.07,4.58-.69-.73-1.38-1.48-2.09-2.23-.72-.77-1.45-1.55-2.19-2.34-.75-.8-1.52-1.62-2.3-2.45-.79-.84-1.6-1.7-2.42-2.58,2.24-2.07,4.51-4.11,6.8-6.11,.92,1.12,1.83,2.22,2.72,3.3,.87,1.06,1.73,2.09,2.56,3.11-.77,.67-1.53,1.34-2.3,2.02-.55-.64-1.11-1.29-1.68-1.95-.57-.67-1.15-1.34-1.75-2.02-.64,.57-1.28,1.15-1.92,1.72,.87,.97,1.72,1.92,2.56,2.85,.82,.92,1.63,1.82,2.42,2.7,1.96-1.76,3.93-3.49,5.91-5.21-.62-.78-1.26-1.58-1.9-2.39-.65-.82-1.31-1.65-1.99-2.5-.68-.86-1.38-1.73-2.08-2.62-.72-.9-1.45-1.82-2.18-2.75-1.86,1.58-3.7,3.16-5.52,4.8-1.82,1.63-3.61,3.32-5.38,5.01,1.02,1.04,2.01,2.07,2.99,3.07,.96,.98,1.89,1.95,2.82,2.89,.9,.93,1.79,1.84,2.66,2.73,.85,.88,1.69,1.74,2.52,2.59-1.13,1.12-2.25,2.26-3.36,3.39-1.11,1.14-2.2,2.29-3.27,3.46-1.07,1.17-2.12,2.35-3.16,3.54-1.04,1.18-2.06,2.38-3.08,3.57-1.11-.85-2.24-1.72-3.4-2.6-1.18-.91-2.39-1.83-3.63-2.78-1.26-.97-2.56-1.96-3.88-2.97-1.36-1.04-2.74-2.1-4.17-3.19,.6-.71,1.2-1.42,1.8-2.14Zm-23.65,47.3c1.03-3.14,2.1-6.29,3.21-9.43,.32-.89,.66-1.78,.99-2.66,1.21,.47,2.4,.92,3.57,1.37,1.15,.44,2.28,.87,3.39,1.3,1.09,.42,2.17,.83,3.23,1.23,1.04,.4,2.07,.79,3.07,1.17-1.02,2.69-2,5.4-2.93,8.1-1.17-.36-2.36-.73-3.57-1.11-1.23-.38-2.49-.77-3.77-1.17,.35-1.02,.7-2.04,1.05-3.06,.79,.26,1.57,.53,2.34,.79,.76,.26,1.52,.51,2.26,.76,.28-.79,.57-1.59,.86-2.39-1.2-.43-2.43-.86-3.67-1.31-1.27-.45-2.57-.91-3.89-1.39-.97,2.73-1.9,5.46-2.8,8.19,1.13,.33,2.25,.66,3.35,.98,1.08,.32,2.15,.63,3.2,.93,1.04,.3,2.05,.6,3.06,.89,.99,.29,1.96,.57,2.92,.85,.7-2.1,1.42-4.2,2.18-6.29,.76-2.09,1.57-4.18,2.4-6.25-1.14-.46-2.3-.93-3.49-1.41-1.21-.48-2.44-.98-3.69-1.49-1.28-.52-2.58-1.04-3.91-1.58-1.35-.55-2.74-1.11-4.16-1.68,.36-.88,.72-1.76,1.09-2.63,1.07-2.47,2.18-4.93,3.34-7.35,1.16-2.42,2.38-4.8,3.61-7.17,.44-.83,.88-1.65,1.32-2.49,1.55,.91,3.06,1.79,4.53,2.65,1.44,.84,2.85,1.66,4.22,2.47,1.34,.78,2.66,1.55,3.94,2.3,1.26,.74,2.49,1.46,3.7,2.16-1,2.03-2.02,4.06-3.02,6.1-1,2.04-1.97,4.1-2.93,6.17-.92-.41-1.84-.83-2.79-1.26-.96-.43-1.93-.87-2.92-1.32-1-.45-2.03-.92-3.06-1.39-1.06-.48-2.13-.96-3.22-1.46,1.28-2.77,2.6-5.52,3.94-8.25,1.28,.68,2.55,1.35,3.78,2.01,1.21,.64,2.4,1.27,3.56,1.89-.45,.91-.9,1.83-1.35,2.74-.76-.38-1.52-.76-2.3-1.15-.78-.4-1.58-.79-2.39-1.2-.38,.77-.75,1.55-1.12,2.33,1.17,.56,2.33,1.12,3.45,1.66,1.11,.53,2.2,1.06,3.27,1.57,1.14-2.37,2.29-4.73,3.47-7.08-.88-.49-1.76-.98-2.67-1.48-.91-.51-1.85-1.02-2.79-1.55-.96-.53-1.93-1.07-2.92-1.62-1.01-.56-2.03-1.13-3.07-1.7-1.11,2.17-2.21,4.34-3.27,6.54-1.05,2.2-2.06,4.45-3.05,6.69,1.34,.58,2.65,1.14,3.94,1.69,1.26,.54,2.5,1.07,3.71,1.6,1.19,.51,2.36,1.01,3.5,1.51,1.13,.49,2.23,.96,3.32,1.43-.61,1.47-1.21,2.94-1.8,4.42-.59,1.47-1.16,2.96-1.7,4.45-.54,1.49-1.06,2.98-1.56,4.48-.5,1.49-.99,2.98-1.48,4.47-1.35-.36-2.73-.73-4.13-1.11-1.44-.39-2.91-.78-4.41-1.18-1.54-.41-3.11-.83-4.72-1.26-1.65-.44-3.34-.89-5.07-1.35,.28-.88,.56-1.77,.85-2.66Zm-3.75,52.75c-.25-3.3-.47-6.61-.64-9.93-.04-.95-.07-1.89-.1-2.84,1.3-.03,2.57-.07,3.82-.1,1.23-.03,2.44-.07,3.63-.1,1.17-.03,2.32-.06,3.46-.09,1.12-.03,2.21-.06,3.29-.09,.09,2.88,.22,5.75,.39,8.61-1.22,.11-2.46,.22-3.72,.34-1.28,.12-2.59,.24-3.93,.36-.07-1.07-.14-2.15-.2-3.23,.83-.06,1.65-.11,2.46-.17,.8-.06,1.6-.11,2.38-.16-.04-.84-.08-1.69-.12-2.53-1.28,.07-2.57,.13-3.9,.2-1.35,.07-2.72,.14-4.13,.21,.15,2.89,.33,5.77,.55,8.64,1.17-.13,2.33-.26,3.47-.38,1.12-.12,2.23-.24,3.31-.36,1.07-.12,2.13-.23,3.16-.35,1.02-.11,2.03-.22,3.02-.33-.15-2.21-.3-4.43-.4-6.65-.1-2.23-.15-4.46-.18-6.7-1.23,.01-2.48,.02-3.76,.03-1.3,.01-2.63,.03-3.98,.04-1.38,.01-2.78,.02-4.22,.04-1.46,.01-2.96,.03-4.48,.04,0-.95,0-1.9,0-2.84,.05-2.69,.12-5.39,.27-8.07,.15-2.68,.36-5.35,.59-8.01,.09-.93,.18-1.86,.27-2.81,1.78,.24,3.51,.48,5.2,.71,1.65,.23,3.27,.45,4.85,.66,1.54,.21,3.05,.42,4.52,.62,1.44,.2,2.86,.39,4.24,.58-.15,2.26-.31,4.52-.45,6.79-.14,2.26-.25,4.54-.34,6.82-1-.03-2.02-.07-3.06-.1-1.05-.03-2.12-.07-3.21-.1-1.1-.03-2.22-.07-3.36-.11-1.16-.04-2.34-.08-3.53-.11,.12-3.05,.29-6.09,.49-9.13,1.45,.14,2.87,.28,4.26,.41,1.37,.13,2.7,.26,4.01,.39-.07,1.02-.13,2.03-.2,3.05-.84-.06-1.7-.12-2.56-.19-.88-.07-1.76-.13-2.66-.19-.05,.86-.1,1.72-.14,2.58,1.3,.07,2.58,.14,3.83,.21,1.23,.07,2.44,.13,3.62,.2,.14-2.63,.31-5.25,.49-7.87-1-.11-2-.23-3.03-.35-1.04-.12-2.1-.24-3.17-.36-1.09-.12-2.2-.25-3.32-.38-1.14-.13-2.31-.26-3.49-.4-.2,2.43-.38,4.85-.51,7.3-.13,2.44-.21,4.9-.26,7.35,1.46,.02,2.89,.04,4.29,.06,1.37,.02,2.72,.04,4.04,.05,1.29,.02,2.57,.03,3.81,.05,1.23,.02,2.43,.03,3.61,.05,0,1.59,0,3.19,.03,4.77,.02,1.59,.06,3.18,.13,4.76,.07,1.58,.16,3.16,.27,4.73,.11,1.57,.22,3.14,.34,4.7-1.38,.18-2.8,.37-4.24,.56-1.48,.19-2.99,.4-4.53,.6-1.58,.21-3.2,.42-4.85,.64-1.69,.22-3.43,.45-5.2,.69-.08-.92-.16-1.85-.24-2.79Zm18,52.66c-.42-.82-.85-1.65-1.28-2.48-1.5-2.95-2.96-5.93-4.4-8.93-.4-.86-.79-1.72-1.18-2.58,1.19-.53,2.35-1.05,3.49-1.56,1.13-.5,2.23-1,3.32-1.48,1.07-.48,2.12-.95,3.16-1.41,1.02-.45,2.02-.9,3.01-1.34,1.18,2.63,2.4,5.23,3.65,7.8-1.08,.57-2.19,1.15-3.31,1.74-1.14,.6-2.31,1.21-3.5,1.84-.48-.97-.95-1.93-1.42-2.9,.74-.37,1.48-.73,2.21-1.1,.72-.36,1.43-.71,2.14-1.06-.36-.76-.72-1.53-1.08-2.3-1.15,.55-2.33,1.1-3.52,1.67-1.22,.58-2.46,1.17-3.73,1.77,1.24,2.61,2.52,5.2,3.81,7.77,1.03-.57,2.06-1.13,3.06-1.68,.99-.54,1.96-1.08,2.92-1.6,.95-.52,1.87-1.03,2.79-1.53,.9-.5,1.79-.98,2.66-1.46-.99-1.98-1.97-3.97-2.91-5.99-.94-2.02-1.84-4.06-2.73-6.12-1.13,.48-2.29,.97-3.46,1.47-1.19,.51-2.42,1.03-3.66,1.56-1.27,.54-2.56,1.09-3.88,1.65-1.34,.57-2.72,1.16-4.13,1.75-.37-.87-.73-1.75-1.08-2.63-.99-2.51-1.95-5.03-2.84-7.56-.89-2.53-1.71-5.08-2.52-7.63-.28-.89-.55-1.79-.83-2.69,1.73-.45,3.43-.9,5.08-1.33,1.61-.42,3.19-.84,4.73-1.24,1.5-.39,2.98-.78,4.42-1.16,1.41-.37,2.79-.73,4.14-1.09,.73,2.15,1.44,4.29,2.18,6.44,.74,2.15,1.5,4.29,2.29,6.43-.94,.35-1.89,.71-2.86,1.08-.98,.37-1.98,.75-3,1.13-1.03,.39-2.08,.78-3.15,1.19-1.08,.41-2.19,.82-3.31,1.25-1.06-2.86-2.07-5.74-3.04-8.62,1.39-.42,2.76-.84,4.09-1.25,1.31-.4,2.6-.79,3.85-1.18,.32,.97,.65,1.93,.99,2.89-.8,.27-1.62,.54-2.44,.81-.83,.27-1.68,.55-2.53,.84,.28,.81,.57,1.62,.86,2.43,1.23-.43,2.43-.86,3.61-1.27,1.16-.41,2.3-.81,3.42-1.2-.88-2.48-1.72-4.97-2.56-7.46-.96,.28-1.94,.56-2.93,.84-1,.29-2.03,.58-3.07,.88-1.06,.3-2.13,.61-3.21,.92-1.11,.32-2.23,.64-3.38,.97,.75,2.32,1.51,4.63,2.32,6.94,.81,2.3,1.68,4.6,2.57,6.89,1.35-.54,2.68-1.07,3.98-1.59,1.27-.51,2.52-1.01,3.75-1.49,1.2-.48,2.38-.95,3.54-1.41,1.14-.45,2.26-.9,3.35-1.34,.61,1.47,1.22,2.94,1.85,4.4,.63,1.46,1.27,2.91,1.94,4.34,.67,1.44,1.36,2.86,2.06,4.27,.7,1.41,1.41,2.81,2.12,4.21-1.21,.7-2.44,1.41-3.7,2.14-1.29,.74-2.61,1.51-3.96,2.29-1.38,.8-2.79,1.61-4.23,2.45-1.48,.86-2.99,1.73-4.54,2.63Zm41.67,31.23c-.97,1.26-1.96,2.56-2.97,3.88-1.04,1.36-2.1,2.74-3.19,4.17-.71-.6-1.42-1.2-2.14-1.8-2.51-2.15-5-4.34-7.48-6.57-.7-.64-1.39-1.29-2.08-1.94,.89-.94,1.77-1.87,2.63-2.78,.85-.9,1.68-1.78,2.5-2.64,.81-.85,1.6-1.69,2.38-2.51,.77-.81,1.52-1.61,2.26-2.39,2.1,1.98,4.22,3.91,6.36,5.81-.78,.94-1.58,1.9-2.39,2.87-.82,.99-1.67,2-2.53,3.03-.81-.71-1.62-1.42-2.42-2.14,.54-.63,1.09-1.25,1.62-1.86,.53-.61,1.05-1.21,1.57-1.8-.63-.57-1.25-1.13-1.88-1.71-.86,.95-1.73,1.91-2.62,2.89-.91,1-1.83,2.02-2.77,3.06,2.15,1.94,4.31,3.84,6.5,5.72,.74-.92,1.47-1.83,2.18-2.72,.71-.88,1.4-1.75,2.08-2.6,.67-.84,1.34-1.67,1.99-2.48,.64-.8,1.28-1.59,1.9-2.37-1.67-1.45-3.34-2.92-4.98-4.42-1.64-1.5-3.26-3.05-4.86-4.61-.86,.88-1.74,1.77-2.64,2.68-.91,.93-1.84,1.87-2.78,2.84-.97,.98-1.95,1.99-2.96,3.01-1.02,1.04-2.07,2.11-3.14,3.2-.67-.66-1.35-1.34-2.01-2.01-1.87-1.94-3.73-3.9-5.52-5.9-1.79-2-3.53-4.04-5.25-6.08-.6-.72-1.19-1.44-1.8-2.17,1.43-1.08,2.82-2.14,4.18-3.17,1.33-1.01,2.63-1.99,3.9-2.96,1.24-.94,2.45-1.86,3.64-2.76,1.16-.88,2.3-1.74,3.41-2.59,1.49,1.7,2.98,3.42,4.48,5.12,1.5,1.7,3.03,3.39,4.58,5.07-.73,.69-1.48,1.38-2.23,2.09-.77,.72-1.55,1.45-2.34,2.19-.8,.75-1.62,1.52-2.45,2.3-.84,.79-1.7,1.6-2.58,2.42-2.07-2.24-4.11-4.51-6.11-6.8,1.12-.92,2.23-1.83,3.3-2.72,1.06-.87,2.09-1.73,3.11-2.56,.67,.77,1.34,1.53,2.02,2.3-.64,.55-1.29,1.11-1.95,1.68-.66,.57-1.34,1.15-2.02,1.75,.57,.64,1.15,1.28,1.72,1.92,.97-.87,1.92-1.72,2.85-2.56,.92-.82,1.82-1.63,2.7-2.42-1.76-1.96-3.49-3.93-5.21-5.91-.78,.62-1.58,1.26-2.39,1.9-.82,.65-1.65,1.31-2.5,1.99-.86,.68-1.73,1.38-2.62,2.08-.9,.72-1.82,1.45-2.75,2.18,1.58,1.86,3.16,3.7,4.8,5.52,1.63,1.82,3.32,3.61,5.01,5.38,1.04-1.02,2.07-2.01,3.07-2.99,.98-.96,1.95-1.89,2.89-2.82,.93-.9,1.84-1.79,2.73-2.66,.88-.85,1.74-1.69,2.59-2.52,1.12,1.13,2.26,2.25,3.39,3.36,1.14,1.11,2.29,2.2,3.46,3.27,1.17,1.07,2.35,2.12,3.54,3.16,1.18,1.04,2.38,2.06,3.57,3.08-.85,1.11-1.72,2.24-2.6,3.4-.91,1.18-1.83,2.39-2.78,3.63Zm45.46,16.54c-.39,1.44-.78,2.91-1.18,4.41-.41,1.54-.83,3.11-1.26,4.72-.44,1.65-.89,3.34-1.35,5.07-.88-.28-1.77-.56-2.66-.85-3.14-1.03-6.29-2.1-9.43-3.21-.89-.32-1.78-.66-2.66-.99,.47-1.21,.92-2.4,1.37-3.57,.44-1.15,.87-2.28,1.3-3.39,.42-1.09,.83-2.17,1.23-3.23,.4-1.04,.79-2.07,1.17-3.08,2.69,1.02,5.4,2,8.1,2.93-.36,1.17-.73,2.36-1.11,3.57-.38,1.23-.77,2.49-1.17,3.77-1.02-.35-2.04-.7-3.06-1.05,.26-.79,.53-1.57,.79-2.34,.26-.76,.51-1.52,.76-2.26-.79-.28-1.59-.57-2.39-.86-.43,1.2-.86,2.43-1.31,3.67-.45,1.27-.92,2.57-1.39,3.89,2.73,.97,5.46,1.9,8.19,2.8,.33-1.13,.66-2.25,.98-3.35,.32-1.08,.63-2.15,.93-3.2,.3-1.04,.6-2.05,.89-3.06,.29-.99,.57-1.96,.85-2.92-2.1-.7-4.2-1.42-6.29-2.18-2.09-.76-4.18-1.57-6.25-2.4-.46,1.14-.93,2.3-1.41,3.49-.48,1.21-.98,2.44-1.49,3.69-.52,1.28-1.04,2.58-1.58,3.91-.55,1.35-1.11,2.74-1.68,4.16-.88-.36-1.76-.72-2.63-1.09-2.47-1.07-4.93-2.18-7.35-3.34-2.42-1.16-4.8-2.38-7.17-3.61-.83-.44-1.65-.88-2.49-1.32,.91-1.55,1.79-3.06,2.65-4.53,.84-1.44,1.66-2.85,2.47-4.22,.78-1.34,1.55-2.66,2.3-3.94,.74-1.26,1.46-2.49,2.16-3.7,2.03,1,4.06,2.02,6.1,3.02,2.04,1,4.1,1.97,6.17,2.93-.41,.92-.83,1.84-1.26,2.79-.43,.96-.87,1.93-1.32,2.92-.45,1-.92,2.03-1.39,3.06-.48,1.06-.96,2.13-1.46,3.22-2.77-1.28-5.52-2.6-8.25-3.94,.68-1.28,1.35-2.55,2.01-3.78,.64-1.21,1.27-2.4,1.89-3.56,.91,.45,1.83,.9,2.74,1.35-.38,.76-.76,1.52-1.15,2.3-.4,.78-.79,1.58-1.2,2.39,.77,.38,1.55,.75,2.33,1.12,.56-1.17,1.12-2.33,1.66-3.45,.53-1.11,1.06-2.2,1.57-3.27-2.37-1.14-4.73-2.29-7.08-3.46-.49,.88-.98,1.76-1.48,2.67-.51,.91-1.02,1.85-1.55,2.79-.53,.96-1.07,1.93-1.62,2.92-.56,1.01-1.13,2.03-1.7,3.07,2.17,1.11,4.34,2.21,6.54,3.27,2.2,1.05,4.45,2.06,6.69,3.05,.58-1.34,1.14-2.65,1.69-3.94,.54-1.26,1.07-2.5,1.6-3.71,.51-1.19,1.01-2.36,1.51-3.5,.49-1.13,.96-2.23,1.43-3.32,1.47,.61,2.94,1.21,4.42,1.8,1.47,.59,2.96,1.16,4.45,1.7,1.49,.54,2.98,1.06,4.48,1.56,1.49,.5,2.98,.99,4.47,1.48-.36,1.35-.73,2.73-1.11,4.13Zm46.29,17.11c-3.3,.25-6.61,.47-9.93,.64-.95,.04-1.89,.07-2.84,.1-.03-1.3-.07-2.57-.1-3.82-.03-1.23-.07-2.44-.1-3.63-.03-1.17-.06-2.32-.09-3.46-.03-1.12-.06-2.21-.09-3.29,2.88-.09,5.75-.22,8.61-.39,.11,1.22,.22,2.46,.34,3.72,.12,1.28,.24,2.59,.36,3.93-1.07,.07-2.15,.14-3.23,.2-.06-.83-.11-1.65-.17-2.46-.06-.8-.11-1.6-.16-2.38-.84,.04-1.69,.08-2.53,.12,.07,1.28,.13,2.57,.2,3.9,.07,1.35,.14,2.72,.21,4.13,2.89-.15,5.77-.33,8.64-.55-.13-1.17-.26-2.33-.38-3.47-.12-1.12-.24-2.23-.36-3.31-.12-1.07-.23-2.13-.35-3.16-.11-1.02-.22-2.03-.33-3.02-2.21,.15-4.43,.3-6.65,.4-2.23,.1-4.46,.15-6.7,.18,.01,1.23,.02,2.49,.03,3.76,.01,1.3,.03,2.63,.04,3.98,.01,1.38,.02,2.78,.04,4.22,.01,1.46,.03,2.96,.04,4.48-.95,0-1.9,0-2.84,0-2.69-.05-5.39-.12-8.07-.27-2.68-.15-5.35-.36-8.01-.59-.93-.09-1.86-.18-2.81-.27,.24-1.78,.48-3.51,.71-5.2,.23-1.65,.45-3.27,.66-4.85,.21-1.54,.42-3.05,.62-4.52,.2-1.44,.39-2.86,.58-4.24,2.26,.15,4.52,.31,6.79,.45,2.26,.14,4.54,.25,6.82,.34-.03,1-.07,2.02-.1,3.06-.03,1.05-.07,2.12-.1,3.21-.03,1.1-.07,2.22-.11,3.36-.04,1.16-.08,2.34-.11,3.53-3.05-.12-6.09-.29-9.13-.49,.14-1.45,.28-2.87,.41-4.26,.13-1.37,.26-2.7,.39-4.01,1.02,.07,2.03,.13,3.05,.2-.06,.84-.12,1.7-.19,2.57-.07,.88-.13,1.76-.19,2.66,.86,.05,1.72,.1,2.58,.14,.07-1.3,.14-2.58,.21-3.83,.07-1.23,.13-2.44,.2-3.62-2.63-.14-5.25-.31-7.87-.49-.11,1-.23,2-.35,3.03-.12,1.04-.24,2.1-.36,3.17-.12,1.09-.25,2.2-.38,3.32-.13,1.14-.26,2.31-.4,3.49,2.43,.2,4.85,.38,7.3,.51,2.44,.13,4.9,.21,7.35,.26,.02-1.46,.04-2.89,.06-4.29,.02-1.37,.04-2.72,.05-4.04,.02-1.29,.03-2.57,.05-3.81,.02-1.23,.03-2.43,.05-3.61,1.59,0,3.19,0,4.77-.03,1.59-.02,3.18-.06,4.76-.13,1.58-.07,3.16-.16,4.73-.27,1.57-.11,3.14-.22,4.7-.34,.18,1.38,.37,2.8,.56,4.24,.19,1.48,.39,2.99,.6,4.53,.21,1.58,.42,3.2,.64,4.85,.22,1.69,.45,3.43,.69,5.2-.92,.08-1.85,.16-2.79,.24Zm50.17-16.72c-2.95,1.5-5.93,2.96-8.93,4.4-.86,.4-1.72,.79-2.58,1.18-.53-1.19-1.05-2.35-1.56-3.49-.5-1.13-1-2.23-1.48-3.32-.48-1.07-.95-2.12-1.41-3.16-.46-1.02-.9-2.02-1.34-3,2.63-1.18,5.23-2.4,7.8-3.65,.57,1.08,1.15,2.19,1.74,3.31,.6,1.14,1.21,2.31,1.84,3.5-.97,.48-1.93,.95-2.9,1.42-.37-.74-.73-1.48-1.1-2.21-.36-.72-.71-1.43-1.06-2.14-.76,.36-1.53,.72-2.3,1.08,.55,1.15,1.1,2.33,1.67,3.52,.58,1.22,1.17,2.46,1.77,3.73,2.61-1.24,5.2-2.52,7.77-3.81-.57-1.03-1.13-2.06-1.68-3.06-.54-.99-1.08-1.96-1.6-2.92-.52-.95-1.03-1.87-1.53-2.79-.5-.9-.98-1.79-1.46-2.66-1.98,.99-3.97,1.97-5.99,2.91-2.02,.94-4.06,1.84-6.12,2.73,.48,1.13,.97,2.29,1.47,3.46,.51,1.19,1.03,2.42,1.56,3.66,.54,1.27,1.09,2.56,1.65,3.88,.57,1.34,1.16,2.72,1.75,4.13-.87,.37-1.75,.73-2.63,1.08-2.51,.99-5.03,1.95-7.56,2.84-2.53,.89-5.08,1.71-7.62,2.52-.89,.28-1.79,.55-2.69,.83-.45-1.73-.9-3.43-1.33-5.08-.42-1.61-.84-3.19-1.24-4.73-.39-1.5-.78-2.98-1.16-4.42-.37-1.41-.73-2.79-1.09-4.14,2.15-.73,4.29-1.44,6.44-2.18,2.15-.74,4.29-1.5,6.43-2.29,.35,.94,.71,1.89,1.08,2.86,.37,.98,.75,1.98,1.13,3,.39,1.03,.79,2.08,1.19,3.15,.41,1.08,.82,2.19,1.25,3.31-2.86,1.06-5.74,2.07-8.62,3.04-.42-1.39-.84-2.76-1.25-4.09-.4-1.31-.79-2.6-1.18-3.85,.97-.32,1.93-.65,2.89-.99,.27,.8,.54,1.62,.81,2.44,.28,.83,.56,1.68,.84,2.53,.81-.28,1.62-.57,2.43-.86-.43-1.23-.86-2.43-1.27-3.61-.41-1.16-.81-2.3-1.21-3.42-2.48,.88-4.97,1.72-7.46,2.56,.28,.96,.56,1.94,.84,2.93,.29,1,.58,2.03,.88,3.07,.3,1.06,.61,2.13,.92,3.21,.32,1.11,.64,2.23,.97,3.38,2.32-.75,4.63-1.51,6.94-2.32,2.3-.81,4.6-1.68,6.89-2.57-.54-1.35-1.07-2.68-1.59-3.98-.51-1.27-1.01-2.52-1.49-3.75-.48-1.2-.95-2.38-1.41-3.54-.45-1.14-.9-2.26-1.34-3.35,1.47-.61,2.94-1.22,4.4-1.85,1.46-.63,2.91-1.27,4.34-1.94,1.44-.67,2.86-1.36,4.27-2.06,1.41-.7,2.81-1.41,4.21-2.12,.7,1.21,1.41,2.44,2.14,3.7,.74,1.29,1.51,2.61,2.29,3.96,.8,1.38,1.61,2.79,2.45,4.23,.86,1.48,1.73,2.99,2.63,4.54-.82,.42-1.65,.86-2.48,1.28Zm39.95-34.65c-2.15,2.51-4.34,5-6.57,7.48-.64,.7-1.29,1.39-1.94,2.08-.94-.9-1.87-1.77-2.78-2.63-.9-.85-1.78-1.68-2.64-2.5-.85-.81-1.69-1.6-2.51-2.38-.81-.77-1.61-1.52-2.39-2.26,1.98-2.1,3.91-4.22,5.81-6.36,.94,.78,1.9,1.58,2.87,2.39,.99,.82,2,1.67,3.03,2.53-.71,.81-1.42,1.62-2.14,2.42-.63-.54-1.25-1.09-1.86-1.62-.61-.53-1.21-1.05-1.8-1.57-.57,.63-1.13,1.25-1.71,1.88,.95,.86,1.91,1.73,2.89,2.62,1,.91,2.02,1.83,3.06,2.77,1.94-2.15,3.84-4.31,5.72-6.5-.92-.74-1.83-1.47-2.72-2.18-.88-.71-1.75-1.4-2.6-2.08-.84-.67-1.67-1.34-2.48-1.99-.8-.64-1.59-1.27-2.37-1.9-1.45,1.67-2.92,3.34-4.42,4.98-1.5,1.64-3.05,3.26-4.61,4.86,.88,.86,1.77,1.74,2.68,2.64,.93,.91,1.87,1.84,2.84,2.78,.98,.97,1.99,1.95,3.01,2.96,1.04,1.02,2.11,2.07,3.2,3.14-.66,.67-1.34,1.35-2.01,2.01-1.94,1.87-3.9,3.73-5.9,5.52-2,1.79-4.04,3.53-6.08,5.25-.72,.6-1.44,1.19-2.17,1.8-1.08-1.43-2.14-2.82-3.17-4.18-1.01-1.33-1.99-2.63-2.96-3.9-.94-1.24-1.86-2.45-2.76-3.64-.88-1.16-1.74-2.3-2.59-3.41,1.7-1.5,3.42-2.98,5.12-4.48,1.7-1.5,3.39-3.03,5.07-4.58,.69,.73,1.38,1.48,2.09,2.23,.72,.77,1.45,1.55,2.19,2.34,.75,.8,1.52,1.62,2.3,2.45,.79,.84,1.6,1.7,2.42,2.58-2.24,2.07-4.51,4.11-6.8,6.11-.92-1.12-1.83-2.23-2.72-3.3-.87-1.06-1.73-2.09-2.56-3.11,.77-.67,1.53-1.34,2.3-2.02,.55,.64,1.11,1.29,1.68,1.95,.57,.66,1.15,1.34,1.75,2.02,.64-.57,1.28-1.15,1.92-1.72-.87-.97-1.72-1.92-2.56-2.85-.82-.92-1.63-1.82-2.42-2.7-1.96,1.76-3.93,3.49-5.91,5.21,.62,.78,1.26,1.58,1.9,2.39,.65,.82,1.31,1.65,1.99,2.5,.68,.86,1.38,1.73,2.08,2.62,.72,.9,1.45,1.82,2.18,2.75,1.86-1.58,3.7-3.16,5.52-4.8,1.82-1.63,3.61-3.32,5.38-5.01-1.02-1.04-2.01-2.07-2.99-3.07-.96-.98-1.89-1.95-2.82-2.89-.9-.93-1.79-1.84-2.66-2.73-.85-.88-1.69-1.74-2.52-2.59,1.13-1.12,2.25-2.26,3.36-3.39,1.11-1.14,2.2-2.29,3.27-3.46,1.07-1.17,2.12-2.35,3.16-3.54,1.04-1.18,2.06-2.38,3.08-3.57,1.11,.85,2.24,1.72,3.4,2.6,1.18,.91,2.39,1.83,3.63,2.78,1.26,.97,2.56,1.96,3.88,2.97,1.36,1.04,2.74,2.1,4.17,3.19-.6,.71-1.2,1.42-1.8,2.14Zm23.65-47.3c-1.03,3.14-2.1,6.29-3.21,9.43-.32,.89-.66,1.78-.99,2.66-1.21-.47-2.4-.92-3.57-1.37-1.15-.44-2.28-.87-3.39-1.3-1.09-.42-2.17-.83-3.23-1.23-1.04-.4-2.07-.79-3.07-1.17,1.02-2.69,2-5.4,2.93-8.1,1.17,.36,2.36,.73,3.57,1.11,1.23,.38,2.49,.77,3.77,1.17-.35,1.02-.7,2.04-1.05,3.06-.79-.26-1.57-.53-2.34-.79-.76-.26-1.52-.51-2.26-.76-.28,.79-.57,1.59-.86,2.39,1.2,.43,2.43,.86,3.67,1.31,1.27,.45,2.57,.91,3.89,1.39,.97-2.73,1.9-5.46,2.8-8.19-1.13-.33-2.25-.66-3.35-.98-1.08-.32-2.15-.63-3.2-.93-1.03-.3-2.05-.6-3.06-.89-.99-.29-1.96-.57-2.92-.85-.7,2.1-1.42,4.2-2.18,6.29-.76,2.09-1.57,4.18-2.4,6.25,1.14,.46,2.3,.93,3.49,1.41,1.21,.48,2.44,.98,3.69,1.49,1.28,.52,2.58,1.04,3.91,1.58,1.35,.55,2.74,1.11,4.16,1.68-.36,.88-.72,1.76-1.09,2.63-1.07,2.47-2.18,4.93-3.34,7.35-1.16,2.42-2.38,4.8-3.61,7.17-.44,.83-.88,1.65-1.32,2.49-1.55-.91-3.06-1.79-4.53-2.65-1.44-.84-2.85-1.66-4.22-2.47-1.34-.78-2.66-1.55-3.94-2.3-1.26-.74-2.49-1.46-3.7-2.16,1-2.03,2.02-4.06,3.02-6.1,1-2.04,1.97-4.1,2.93-6.17,.91,.41,1.84,.83,2.79,1.26,.96,.43,1.93,.87,2.92,1.32,1,.45,2.03,.92,3.06,1.39,1.06,.48,2.13,.96,3.22,1.46-1.28,2.77-2.6,5.52-3.94,8.25-1.28-.68-2.55-1.35-3.78-2.01-1.21-.64-2.4-1.27-3.56-1.89,.45-.91,.9-1.83,1.35-2.74,.76,.38,1.52,.76,2.3,1.15,.78,.4,1.58,.79,2.39,1.2,.38-.77,.75-1.55,1.12-2.33-1.17-.56-2.33-1.12-3.45-1.66-1.11-.53-2.2-1.06-3.27-1.57-1.14,2.37-2.29,4.73-3.46,7.08,.88,.49,1.76,.98,2.67,1.48,.91,.51,1.85,1.02,2.79,1.55,.96,.53,1.93,1.07,2.92,1.62,1.01,.56,2.03,1.13,3.07,1.7,1.11-2.17,2.21-4.34,3.27-6.54,1.06-2.2,2.06-4.44,3.05-6.69-1.34-.58-2.65-1.14-3.94-1.69-1.26-.54-2.5-1.07-3.71-1.6-1.19-.51-2.36-1.01-3.5-1.51-1.13-.49-2.23-.96-3.32-1.43,.61-1.47,1.21-2.94,1.8-4.42,.59-1.47,1.16-2.96,1.7-4.45,.54-1.49,1.06-2.98,1.56-4.48,.5-1.49,.99-2.98,1.48-4.47,1.35,.36,2.73,.73,4.13,1.11,1.44,.39,2.91,.78,4.41,1.18,1.54,.41,3.11,.83,4.72,1.26,1.65,.44,3.34,.89,5.07,1.35-.28,.88-.56,1.77-.85,2.66Zm4.28-26.31c-.15,2.68-.36,5.35-.59,8.01-.09,.93-.18,1.86-.27,2.81-1.78-.25-3.51-.48-5.2-.71-1.65-.23-3.27-.45-4.85-.66-1.54-.21-3.05-.42-4.52-.62-1.44-.2-2.86-.39-4.24-.58,.15-2.26,.31-4.52,.45-6.79,.14-2.26,.25-4.54,.34-6.82,1,.03,2.02,.07,3.06,.1,1.05,.03,2.12,.07,3.21,.1,1.1,.03,2.22,.07,3.36,.11,1.16,.04,2.34,.08,3.53,.11-.12,3.05-.29,6.09-.49,9.13-1.45-.14-2.87-.28-4.26-.41-1.37-.13-2.7-.26-4.01-.39,.07-1.02,.13-2.03,.2-3.05,.84,.06,1.7,.12,2.56,.19,.88,.07,1.76,.13,2.66,.19,.05-.86,.1-1.72,.14-2.58-1.3-.07-2.58-.14-3.83-.21-1.23-.07-2.44-.13-3.62-.2-.14,2.63-.31,5.25-.49,7.87,1,.11,2,.23,3.03,.35,1.04,.12,2.1,.24,3.17,.36,1.09,.12,2.2,.25,3.32,.38,1.15,.13,2.31,.26,3.49,.4,.2-2.43,.38-4.85,.51-7.3,.13-2.44,.21-4.9,.26-7.35-1.46-.02-2.89-.04-4.29-.06-1.37-.02-2.72-.04-4.04-.06-1.29-.02-2.57-.03-3.81-.05-1.23-.02-2.43-.03-3.61-.05,0-1.59,0-3.19-.03-4.77-.02-1.59-.06-3.18-.13-4.76-.07-1.58-.16-3.16-.27-4.73-.11-1.57-.22-3.14-.34-4.7,1.38-.18,2.8-.37,4.24-.56,1.48-.19,2.99-.4,4.53-.6,1.58-.21,3.2-.42,4.85-.64,1.69-.22,3.43-.45,5.2-.69,.08,.92,.16,1.85,.24,2.79,.25,3.3,.47,6.61,.64,9.93,.04,.95,.07,1.89,.1,2.84-1.3,.03-2.57,.07-3.82,.1-1.23,.03-2.44,.07-3.63,.1-1.17,.03-2.32,.06-3.46,.09-1.12,.03-2.21,.06-3.29,.09-.09-2.88-.22-5.75-.39-8.61,1.22-.11,2.46-.22,3.72-.34,1.28-.12,2.59-.24,3.93-.36,.07,1.07,.14,2.15,.2,3.23-.83,.06-1.65,.11-2.46,.17-.8,.06-1.6,.11-2.38,.16,.04,.84,.08,1.69,.12,2.53,1.28-.07,2.57-.13,3.9-.2,1.35-.07,2.72-.14,4.13-.21-.15-2.89-.33-5.77-.55-8.64-1.17,.13-2.33,.26-3.47,.38-1.12,.12-2.23,.24-3.31,.36-1.07,.12-2.13,.23-3.16,.35-1.02,.11-2.03,.22-3.02,.33,.15,2.21,.3,4.43,.4,6.65,.1,2.23,.15,4.46,.18,6.7,1.23-.01,2.49-.02,3.76-.03,1.3-.01,2.63-.03,3.98-.04,1.38-.01,2.78-.02,4.22-.04,1.46-.01,2.96-.03,4.48-.04,0,.95,0,1.9,0,2.84-.05,2.69-.12,5.39-.27,8.07Z"/><g><g><path class="cls-2" d="M141.7,208.29c-.37-.45-2.45,.84-2.75,1.37-1.62,2.83,1.49,6.57,2.15,7.42-.08-3.06,1.15-4.8,2.38-5.82-.32-1.36-.94-1.95-1.77-2.97Z"/><path class="cls-2" d="M154.24,215.07c-.21,.83-1.01,1.98-1.54,2.9,.36-.18,3.14-.99,4.33-3.7-.8-.42-2.03-1.83-2.78-1.37,.14,.64,.22,1.26-.01,2.17Z"/><path class="cls-2" d="M139.25,201.57c-1.74,1.03-4.87,2.26-4.64,7.68,2.42-2.65,4.39-3.91,5.77-4.12,.15-1.13-.43-2.82-1.13-3.56Z"/><path class="cls-4" d="M157.86,210.6c-6.17-6.71-8.91-14.77-6.58-23.73,.47-1.8-3.23-2.98-6.01-2.92-5.99,.12,2.29,16.4,2.03,16.61-.58-.77-1.4-1.03-2.84-.92-.63,.05-5.48,1.3-5.45,2,.03,.03,.05,.06,.08,.08,.63,.67,1.16,2.2,1.02,3.22-.02,.18-.07,.35-.14,.49,.3-.11,2.45-.85,4.58-1.06-1.46,1.66-3.82,2.85-3.82,3.85,0,.03,0,.06,0,.09,.11,.05,.43,.22,.53,.27,1.19,.6,1.47,1.63,1.8,3.01l.02,.08c.7-.08,5.07-4.16,7.33-3.81,1.36,.21,2.25,.76,3.06,1.83,.93,1.26,.64,2.22,.64,3.73,0-.19,.8-.21,1.02-.15,.51,.15,1.12,.75,1.67,1.06,.22,.12,.37,.17,.4,.05,.21-.77,1.35-3.01,.65-3.77Z"/></g><path class="cls-4" d="M221.21,144.26s14.02-2.17,12.69-8.78c.72,3.6-19.79,7.62-15.86-.56,2.4-4.98,11.53-4.78,13.23-1.77-4.38-7.75-19.28-1.64-17.18-5.6,1.24-2.34,14.27-2.31,15.32-.92-7.29-9.62-26.05,2.34-26.48-5.79,0,0,4.55,.24,13.16-1.99,4.64-1.2,13.02,1.91,13.02,1.91-10.14-7.93-13.81-2.79-18.93-2.48-7.12,.43,1.57-2.13-10.55,1.33-1.68,.48-6.55,.87-6.55,.87,0,0,11.32-5.84,12.76-6.7,2.24-1.35,4.45-4.31,4.45-4.31-2.61-1.6-7.26,4.28-10.28,5.83-1.78,.86-4.23,1.51-4.62,1.38,0,0,7.1-10.94,3.39-10.71-.9,.06-2.78,11.77-10.15,15.13-.07-1.19-6.04,.63-8.12,5.69,0,0-.36-16.68,10.1-19.19-10.28,2.29-17.05,16.77-16.62,19.74-.47-3.25-3.5-2.09-4.13-1.31-.48,.61-.68,1.78-.84,2.55,.12-.49-.09-3.51-.83-3.33-1.35,.33-3.88,2.91-2.64,4.34,.21,.49,.69,3.47,.58,4-.06,.32,.16,.67,.53,.98,.69,.58,1.88,1.04,2.65,.96,.05-.07,.11-.13,.18-.16,.01,.04,.03,.09,.04,.14,.71-.05,.8,.98,1.57,1.14,.94,.19,2.2,.17,3.15-.19,.17-.06,.34-.13,.49-.22,2.98-1.73,7.84-6.1,11.35-3.6,1.26,.89,2.4,1.1,2.69,2.72,.29,1.68,.37,3.35-.24,4.82-.25,.6-.61,1.17-1.12,1.69-1.4,1.42-1.91,2.34-3.7,3.21-7.06,3.46-9.34-1.56-9.5-1.92,0,0-.02,0-.03,0-.2,.39-.37,.69-.44,.8,0,.03-.02,.06-.02,.09-.31,1.32-.29,3.68,.43,4.34,1.2,1.1,.4,5.87-.77,7.64-3.29,4.97-7.26,5.47-6.79,5.57,1.41,.29,13.31-5.03,11.03-9.98,2.05,4.45,11.3-2.85,11.3-2.85,.57,.17,3.23,5.83,1.48,5.93,3.03-.17,4.72-10.45,4.72-10.45,.2,.11,2.44,11.48-2.17,13.26,6.43-2.49,8.67-13.29,8.67-13.28,.12,6.62,3.5,7.77,3.51,10.29,0,0,3.2-4.79,2.66-7.24-.02-.09,4.27-3.65,5.36-4.29,1.64-.96-8.64-2.52-8.64-2.52,0,0,.56-1.57,4.99-4.26,3.51-2.13-8.72-.99-8.72-.99,0,0,4.99-4.4,5.47-4.99,1.02-1.24-4.24-3.57-6.1-4.88-2.13-1.5-12.34,2.14-13.15,5.61,.76-4.56,8.02-10.01,13.74-7.47,2.26,1.01,6.79,4.76,10.02,4.96,1.23,.08-3.46,3.87-3.81,4.26,2.47-.36,10.72,1.58,7.89,3.05-2.96,1.54-4.22,2.35-4.8,2.93,1.55,.13,8.73,3.12,6.82,4.42-1.67,1.14-3.6,3.8-6.5,4.91,1.91,1.38,6.1,4.25,9.12,4.99,3.76,.93,14.76,.27,17.44-4.05,0,0-15.08,1.45-15.72-4.74Zm-53.28-12.8c-.59-.54-.98-.9-1.23-1.67-.17-.54-.05-.92,.02-1.47,.07-.56,.17-1.13,.72-1.31,.45-.15,.72,.41,.87,.86,.43,1.38-.61,2.14-.39,3.58Zm2.99,1.8c-.16-1.11-.8-1.63-.87-2.75-.07-1.09,.43-3.05,1.52-3.11,.59-.04,1.8,.81,1.67,1.56-.38,1.69-.99,2.8-2.33,4.3Zm18.38-2.98s10.72-4.65,10.85-3.24c.08,.93-.12,3.78-1.15,4.53-1.29,.95-6.77,1.15-9.39-.49-.25-.16-.4-.68-.31-.81Z"/><path class="cls-4" d="M242.7,157.76c-3.15,.43-7.58,1.04-8.61,4.32-.2,.63-2.4,3.49-2.4,3.49,.15,.61-1.11,8.37-4.79,11.13,0,0,1.47,1.41-.11,3.19-.58,.65,.21,2.98,.24,3.87,.03,.66,.36,1.13,.82,1.4,.94,.54,2.43,.18,3.02-1.41,.33-.9,.37-2.19-.14-3.94-.52-1.74,.53-2.18,1.13-3.33,.33-.64,.47-.91,1.09-1.19,1.61-.76,3.5,.03,4.96,.21h0c1.64,.2,2.58-.73,2.71-1.62,.08-.56-.16-1.11-.78-1.34-.41-.15-2.56-1.13-3.03-1.28-1.01-.32-1.73,.24-2.79,.2,2.46-1.27,3.69-3.97,6.27-3.15,.16,.05,.3,.07,.44,.07,1.34-.02,1.82-2.3,1.56-3.5-.08-.37-.24-.64-.46-.7-2.89-.78-4.96-.21-8.4,3.86,0,0,2.65-6.55,8.59-6.88,.34-.02,.66-.08,.95-.17,1.44-.45,2.19-1.69,2.17-2.69-.01-.69-1.68-.66-2.44-.56Z"/><path class="cls-4" d="M210.19,168.83c4.3,3.42,13.38,3.45,16.68,3.2,1.37-1.88,1.64-2.65,2.22-5.55-2.73,1.5-14.04,1.52-17.16-2.77,2.93,2.74,14.12,.86,17.6-1.67,.21-.67,.12-4.97-.05-6.01-.73,.12-5.53,.32-10.29-.7-3.34-.72-7.37-3.29-9.55-4.86l-1.63,4.09c2.05,5.21,1.16,9.05,.26,9.56,.05-1.81,.16-6.54-2.07-6.68-2.12-.13-3.94,1.53-4.83,3.47-.4,.87-.73,3.37-1.01,4.39-1.27-1.11-2.71-5.78-2.78-5.51-2.37,8.91-5.74,0-6.55,2.39-2.78,8.19-7.51-.14-7.63,0-5.98,6.74-10.25,.44-10.82,.89-5.23,6.88-6.86,3-7.35,2.66-5.78,6.15-6.57,15.08-6.36,18.01,.77,10.97,11.18,25.52,29.29,29.68,0,0-30.3-2.81-33.24-28.83-6.88,10.31,3.77,25.87,10.94,29.64,7.38,3.88,19.46,7.49,27.6,10.74,10.67,4.3,9.82,11.48,9.57,13.72-1.13,10.13-16.39,12.51-22.53,12.06,0,0-15.75-1.75-14.15-13.9,.44-3.34,2.49-5.42,5.94-5.78-.03,.3,0,.7-.34,1.85-.36,2.37,.75,6.49,1.88,7.84,1.11,1.33,4,1.81,4.94,1.56,0-.09-4.69-.84-2.79-3.83,.83-1.31,1.51-.35,2.84,.2,2.96,1.22,1.9,4.98,4.85,6.2,1.25,.51,2.31,.66,3.48,.07l.44-.6c-.67-.03-1.21,.09-1.87-.19-1.29-.53-2.61-1.71-2.07-3,.48-1.17,2.13-.68,3.3-.2,1.04,.43,1.42,1.17,2.46,1.6,2.5,1.03,4.45,.08,6.86-1.27l.61-.53c-1.14-.08-1.93,.18-3.01-.27-2.67-1.1,.02-3.6-2.64-4.7-1.25-.52-2.08-.17-3.32-.69-.5-.21-1.09-1.62-.88-2.12,.7-1.71,3-1.49,4.71-.79,.83,.34,1.21,.84,1.81,1.53-.07-2.08-1.88-3.65-3.94-4.16-3.54-.88-4.01,2.64-7.51,1.19-.46-.19-.65-.56-1.03-.82-1.82-1.73,2.31-3.24,5.75-2.11-.58-.97-2.58-1.65-3.63-2.08-2.46-1.01-7.76,1.22-9.48,3.25l-.06,.07c-1.35-.29-2.55-.39-3.39-.2-6.93,1.55-7.57,8.42-6.31,13.05,3.56,13.1,16.62,15.16,21.58,15.37,13.45,.56,27.7-9.1,29.03-20.2,2.64-22.14-24.9-31.16-37.29-35.41-4.97-1.7-7.01-5.62-7.09-8.36-.09-3.11,1.2-7.98,3.36-7.85,7.04,.41,12.79-12.28,12.79-12.28-.05,.18,1.15,10-6.33,13.45,1.48-.14,2.54-.41,5.7-.27,6.36,.29,8.11-13.28,8.11-13.28,1.21,.76,2.06,13.22-4.53,13.44,4.22,.48,7.01,1.18,7.01,1.18,1.3,0,2.75-3.09,3.22-4.73,.8,2.92,1.95,6.33,2.93,8.03-.03,1.81-1.15,4.18-2.96,4.14-1.65-.03-2.49-.83-4.14-.93-2.11-.13-2.5,2.91-2.2,4.55,.36,1.97,3.32,3.72,4.17,3.67,.99-.06-.5-4.91,.88-4.01,.94,.61,3.7,1.87,5.47-2.03-.03,1.97,1.1,3.88,3.15,3.63,1.88-.24,2.19-1.59,1.91-4.2,2.67,1,6.27-2.26,6.98-2.07,.95,.25,2.13-.24,2.15-1.22,.01-.48-1.9-3.58-3.02-3.6-1.09-.02-3.33,3.56-5.8,2.55-1.43-.58-2.4-2.38-3.05-4.58,2.48-.07,10.63-2.05,11.89-3.52-11.07-1.3-8.74-10.7-8.74-10.7,.85,4.87,7.18,8.2,12.64,7.56,.21-.29,2.29-1.9,3.43-4.78-4.14,.05-12.36-2.17-15-6.65Z"/></g></svg>