<?xml version="1.0" encoding="UTF-8"?><svg id="Layer_1" xmlns="http://www.w3.org/2000/svg" viewBox="0 0 360 360"><defs><style>.cls-1{fill:#fff;}.cls-2{fill:#a20234;}</style></defs><path class="cls-2" d="M194.69,325.83c44.22-2.33,82.9-27.05,101.47-41.05-28.63,31.72-70.07,51.67-116.16,51.67-65.48,0-121.55-40.23-144.87-97.32-5.37-27.73-8.94-91.12,19.3-128,28.38-33.98,60.38-34.42,81.19-21.24,32.57,20.62,31.24,57.48,15.88,67.98-16.8,11.48-26.36-7.41-26.24-7.65l3.7,42.06s6.03,2.78,14.28,1.98c-18.36,8.96-32.8,25.79-36.16,49.96-7.66,55.14,38.65,84.2,87.6,81.62ZM41.29,123.77c19.14-45.13,65.56-74.01,111.76-42.96,22.05,14.82,30.52,37.64,28.85,59.83,3.37-8.29,9.34-12.5,9.34-12.5l38.28,17.83c-.15-.23-21.29-1.39-19.74,18.9,1.41,18.56,32.67,38.13,66.81,20.24,21.82-11.44,37.44-39.36,22.2-80.93-16.85-40.55-68.43-68.33-96.57-79.03-7.26-1.03-14.67-1.58-22.22-1.58C93.6,23.56,23.56,93.6,23.56,180c0,20.65,4.01,40.35,11.27,58.4-4.49-20.28-12.34-70.32,6.46-114.62Zm138.4,30.11c-1.62,6.22-4.01,12.25-7.13,17.87-4.66,8.43-9.85,13.85-14.97,17.27,7.39-1.86,15.06-2.62,22.67-2.22,7.54,.39,13.55,1.88,18.36,4-4.38-4.39-8.23-9.33-11.44-14.64-5.15-8.56-7.22-15.98-7.51-22.28Zm114.7-67.42c29.51,39.14,31.32,93.78-18.68,118.27-22.7,11.12-45.52,7.97-63.52-3.17,5.46,7.67,5.62,15.44,5.62,15.44l-36.18,21.76c.27,0,13.06-16.87-4.63-26.93-16.17-9.21-49.88,5.76-54.14,44.07-2.72,24.49,11.7,53.05,54.68,63.66,43.1,8.72,95.05-18.59,119.62-35.93,24.43-27.6,39.26-63.88,39.26-103.63,0-78.31-57.54-143.18-132.65-154.64,22.04,7.6,64.02,25.84,90.61,61.11Z"/><path class="cls-1" d="M177.46,319.57c-42.98-10.61-57.4-39.18-54.68-63.66,4.26-38.31,37.97-53.28,54.14-44.07,17.69,10.07,4.9,26.93,4.63,26.93l36.18-21.76s-.16-7.77-5.62-15.44c18,11.14,40.83,14.29,63.52,3.17,49.99-24.48,48.19-79.12,18.68-118.27-25.31-33.57-64.55-51.71-87.28-59.93-.76-.13-1.51-.25-2.27-.38,28.62,11.38,77.61,38.69,93.95,78.01,15.24,41.57-.38,69.5-22.2,80.93-34.14,17.9-65.4-1.68-66.81-20.24-1.54-20.29,19.59-19.12,19.74-18.9l-38.28-17.83s-5.97,4.21-9.34,12.5c1.67-22.2-6.8-45.02-28.85-59.83-46.2-31.05-92.62-2.17-111.76,42.96-17.73,41.79-11.75,88.65-7.25,110.87,.17,.46,.35,.92,.53,1.38-5.02-29.11-7.38-89.34,19.86-124.91,28.38-33.98,60.38-34.42,81.19-21.24,32.57,20.62,31.24,57.48,15.88,67.98-16.8,11.48-26.36-7.41-26.24-7.65l3.7,42.06s6.03,2.78,14.28,1.98c-18.36,8.96-32.8,25.79-36.16,49.96-7.66,55.14,38.65,84.2,87.6,81.62,42.2-2.22,79.35-24.84,98.8-39.07,.5-.53,.99-1.06,1.48-1.59-25.37,17.37-75.57,42.87-117.42,34.4Zm-4.98-147.81c3.11-5.62,5.51-11.65,7.13-17.87,.29,6.29,2.35,13.72,7.51,22.28,3.2,5.32,7.05,10.25,11.44,14.64-4.82-2.12-10.82-3.61-18.36-4-7.61-.39-15.29,.37-22.67,2.22,5.12-3.42,10.31-8.84,14.97-17.27Z"/></svg>