<?xml version="1.0" encoding="UTF-8"?><svg id="Layer_1" xmlns="http://www.w3.org/2000/svg" viewBox="0 0 360 360"><defs><style>.cls-1{fill:#fff;}.cls-2{fill:#a20234;}</style></defs><g><path class="cls-2" d="M141.18,313.14l-1.62-.66c-.34-.14-.75-.01-.95,.3-1.45,2.22-4.15,3.3-8.25,3.3-4.68,0-9.71-2.37-9.71-7.58,0-5.69,5.23-7.7,9.71-7.7,3.84,0,6.91,1.24,8.01,3.22,.18,.33,.6,.48,.95,.36l1.53-.54c.24-.08,.42-.28,.49-.52,.07-.24,.02-.5-.13-.7-2.03-2.65-5.88-4.12-10.85-4.12-8.43,0-14.79,4.29-14.79,9.99s6.36,10.02,14.79,10.02c5.11,0,9.28-1.57,11.16-4.2,.14-.2,.18-.44,.11-.67-.06-.23-.24-.42-.46-.51Z"/><path class="cls-2" d="M149.27,283.66c0-2.59-2.11-3.64-5.25-4.41-.76-.23-1.42-.41-1.99-.57q-2.14-.6-2.14-1.46c0-.33,.53-1.29,2.88-1.29h4.05c.43,0,.78-.35,.78-.78v-.81c0-.43-.35-.78-.78-.78h-3.66c-4.4,0-7.35,1.72-7.35,4.29,0,2.85,1.72,3.35,4.67,4.2l.92,.27c3.63,.89,3.8,1.26,3.8,1.89,0,.24,0,.52-.27,.78-.27,.26-1.04,.69-3.08,.69h-4.98c-.43,0-.78,.35-.78,.78v.81c0,.43,.35,.78,.78,.78h5.34c6.74,0,7.08-3.65,7.08-4.38Z"/><path class="cls-2" d="M118.47,280.79c0-4.01-4.61-7.53-9.87-7.53-6.84,0-9.9,3.78-9.9,7.53,0,4.03,4.63,7.56,9.9,7.56,6.82,0,9.87-3.8,9.87-7.56Zm-4.38,0c0,3.94-2.96,5.33-5.48,5.33-3.35,0-5.51-2.09-5.51-5.33s2.16-5.31,5.51-5.31c2.73,0,5.48,1.64,5.48,5.31Z"/><path class="cls-2" d="M155.83,303.55h-8.34c-.57,0-1.05,0-1.49-.01-.3,0-.55,0-.77,0-.71,0-1.28,.03-1.67,.44-.38,.4-.36,.9-.33,1.55,.01,.22,.02,.48,.02,.8v9.3c0,.26-.01,.47-.02,.67-.03,.5-.05,.98,.31,1.37,.37,.39,.93,.42,1.62,.42,.2,0,.43,0,.69,0h.28c.45-.01,1-.02,1.66-.02h7.89c.43,0,.78-.35,.78-.78v-.66c0-.43-.35-.78-.78-.78h-8.04c0-.07,0-.15,0-.24v-3.96h6.42c.43,0,.78-.35,.78-.78v-.66c0-.43-.35-.78-.78-.78h-6.42v-3.27c0-.13,0-.25,0-.37h.36c.23,0,.5,.01,.81,.01h7.02c.43,0,.78-.35,.78-.78v-.66c0-.43-.35-.78-.78-.78Z"/><path class="cls-2" d="M92.07,281.78c2.85-.48,4.53-1.85,4.53-3.73,0-2.99-3.01-4.5-8.94-4.5h-4.77c-.43,0-.78,.35-.78,.78v12.92c0,.43,.35,.78,.78,.78h2.82c.43,0,.78-.35,.78-.78v-5.86l6.09,6.4c.15,.15,.35,.24,.57,.24h3.15c.32,0,.6-.19,.72-.48,.12-.29,.06-.62-.16-.85l-4.79-4.93Zm.14-4c0,.73,0,1.95-4.14,1.95h-1.35c-.08,0-.16,.01-.24,.04v-3.84h1.59c2.59,0,4.14,.69,4.14,1.86Z"/><path class="cls-2" d="M79.75,283.15l-1.62-.66c-.34-.13-.75-.01-.95,.3-1.45,2.22-4.15,3.3-8.25,3.3-4.68,0-9.71-2.37-9.71-7.58,0-5.69,5.23-7.7,9.71-7.7,3.84,0,6.91,1.24,8.01,3.23,.18,.33,.6,.48,.95,.36l1.53-.54c.24-.08,.42-.28,.49-.52,.07-.24,.02-.5-.13-.7-2.03-2.65-5.88-4.12-10.85-4.12-8.43,0-14.79,4.29-14.79,9.99s6.36,10.02,14.79,10.02c5.11,0,9.29-1.57,11.16-4.2,.14-.2,.18-.44,.11-.67-.07-.23-.23-.41-.46-.5Z"/><path class="cls-2" d="M125.2,282.04l.96,.28c3.63,.89,3.8,1.26,3.8,1.88,0,.25,0,.52-.27,.78-.27,.26-1.04,.69-3.08,.69h-4.98c-.43,0-.78,.35-.78,.78v.81c0,.43,.35,.78,.78,.78h5.34c6.74,0,7.08-3.65,7.08-4.38,0-2.59-2.11-3.64-5.25-4.41-.76-.23-1.42-.41-1.99-.57q-2.14-.6-2.14-1.46c0-.33,.53-1.29,2.88-1.29h4.05c.43,0,.78-.35,.78-.78v-.81c0-.43-.35-.78-.78-.78h-3.66c-4.4,0-7.35,1.72-7.35,4.29,0,2.85,1.72,3.35,4.63,4.19Z"/><path class="cls-2" d="M223.89,275.75h3.87v11.51c0,.43,.35,.78,.78,.78h2.82c.43,0,.78-.35,.78-.78v-11.51h3.62c.43,0,.78-.35,.78-.78v-.66c0-.43-.35-.78-.78-.78h-11.88c-.43,0-.78,.35-.78,.78v.66c0,.43,.35,.78,.78,.78Z"/><path class="cls-2" d="M180.22,288.53c5.11,0,9.29-1.57,11.16-4.2,.14-.2,.18-.44,.11-.67-.07-.23-.23-.42-.46-.51l-1.62-.66c-.34-.14-.75-.01-.95,.3-1.45,2.22-4.15,3.3-8.25,3.3-4.68,0-9.71-2.37-9.71-7.58,0-5.69,5.23-7.7,9.71-7.7,3.84,0,6.91,1.24,8.01,3.23,.18,.32,.58,.48,.95,.36l1.53-.54c.24-.08,.42-.28,.49-.51,.07-.24,.02-.5-.13-.7-2.03-2.65-5.88-4.12-10.85-4.12-8.43,0-14.79,4.29-14.79,9.99s6.36,10.02,14.79,10.02Z"/><path class="cls-2" d="M255.09,273.56h-1.14c-.43,0-.78,.35-.78,.78v8.76c0,1.8-1.45,2.88-3.86,2.88-2.22,0-3.78-1.17-3.78-2.84v-8.79c0-.43-.35-.78-.78-.78h-2.85c-.43,0-.78,.35-.78,.78v8.85c0,3.79,4.45,5.16,7.44,5.16,4.72,0,7.32-1.88,7.32-5.28v-8.73c0-.43-.35-.78-.78-.78Z"/><path class="cls-2" d="M271.25,281.78c2.85-.48,4.53-1.85,4.53-3.73,0-2.99-3.01-4.5-8.94-4.5h-4.77c-.43,0-.78,.35-.78,.78v12.92c0,.43,.35,.78,.78,.78h2.82c.43,0,.78-.35,.78-.78v-5.86l6.09,6.4c.15,.15,.35,.24,.57,.24h3.15c.32,0,.6-.19,.72-.48,.12-.29,.06-.62-.16-.85l-4.79-4.93Zm.14-4c0,.73,0,1.95-4.14,1.95h-1.35c-.08,0-.16,.01-.24,.04v-3.84h1.59c2.59,0,4.14,.69,4.14,1.86Z"/><path class="cls-2" d="M174.68,303.55h-1.14c-.43,0-.78,.35-.78,.78v7.92l-5.91-6.73-.51-.6c-.95-1.11-1.17-1.38-2.26-1.38h-.57c-.29,0-.54,0-.77,0h-.51c-.66,0-1.24,.03-1.66,.43-.44,.42-.48,1.04-.48,1.68v11.61c0,.43,.35,.78,.78,.78h1.14c.43,0,.78-.35,.78-.78v-10.61h0l9.07,10.08c.1,.12,.2,.24,.3,.36,.51,.62,1.05,1.26,1.93,1.26s1.38-.53,1.38-1.41v-12.6c0-.43-.35-.78-.78-.78Zm-10.8,.42h0Z"/><path class="cls-2" d="M305.07,285.82h-.96c-.29,0-.53,0-.74,0h-.25v-.04c0-.14,0-.29,0-.48v-16.61c0-.43-.35-.78-.78-.78h-2.82c-.43,0-.78,.35-.78,.78v16.97c0,.21,0,.39,0,.55-.02,.57-.03,1.06,.34,1.44,.39,.4,.99,.4,1.51,.4h.7c.25-.01,.53-.01,.86-.01h2.94c.43,0,.78-.35,.78-.78v-.66c0-.43-.35-.78-.78-.78Z"/><path class="cls-2" d="M289.59,276.44c-.24-.47-.43-.86-.59-1.18l-.05-.1c-.68-1.39-.94-1.92-2.19-1.92h-.31c-.3,.01-.73,.01-1.04,0h-.37c-1.44,0-1.68,.59-2.27,2.04l-4.83,11.68c-.1,.24-.07,.52,.07,.74,.15,.22,.39,.35,.65,.35h1.26c.31,0,.6-.19,.72-.48l1.36-3.18h7.07l1.67,3.24c.14,.26,.4,.42,.69,.42h2.88c.27,0,.53-.14,.67-.38,.14-.23,.15-.53,.03-.77l-5.43-10.46Zm-1.7,5.72h-4.93l2.1-5.12,.09-.21c.04,.08,.09,.17,.15,.27l2.59,5.06Z"/><path class="cls-2" d="M239.56,309.25c-.77-.23-1.42-.42-2-.57q-2.14-.6-2.14-1.46c0-.33,.53-1.29,2.88-1.29h4.05c.43,0,.78-.35,.78-.78v-.81c0-.43-.35-.78-.78-.78h-3.66c-4.4,0-7.35,1.72-7.35,4.29,0,2.85,1.72,3.35,4.63,4.19l.96,.28c3.63,.89,3.8,1.26,3.8,1.89,0,.24,0,.52-.27,.78-.27,.26-1.04,.69-3.09,.69h-4.98c-.43,0-.78,.35-.78,.78v.81c0,.43,.35,.78,.78,.78h5.34c6.74,0,7.08-3.65,7.08-4.38,0-2.59-2.11-3.64-5.25-4.41Z"/><path class="cls-2" d="M192.39,303.52h-11.87c-.43,0-.78,.35-.78,.78v.66c0,.43,.35,.78,.78,.78h3.87v11.51c0,.43,.35,.78,.78,.78h2.82c.43,0,.78-.35,.78-.78v-11.51h3.62c.43,0,.78-.35,.78-.78v-.66c0-.43-.35-.78-.78-.78Z"/><path class="cls-2" d="M208.09,283.06v-8.73c0-.43-.35-.78-.78-.78h-1.14c-.43,0-.78,.35-.78,.78v8.76c0,1.8-1.45,2.88-3.86,2.88-2.22,0-3.78-1.17-3.78-2.84v-8.79c0-.43-.35-.78-.78-.78h-2.85c-.43,0-.78,.35-.78,.78v8.85c0,3.79,4.45,5.16,7.44,5.16,4.72,0,7.32-1.88,7.32-5.28Z"/><path class="cls-2" d="M224.59,311.78c2.85-.48,4.53-1.85,4.53-3.73,0-2.99-3.01-4.5-8.94-4.5h-4.77c-.43,0-.78,.35-.78,.78v12.92c0,.43,.35,.78,.78,.78h2.82c.43,0,.78-.35,.78-.78v-5.86l6.09,6.4c.15,.15,.35,.24,.57,.24h3.15c.31,0,.6-.19,.72-.48,.12-.29,.06-.62-.16-.85l-4.79-4.93Zm.14-4c0,.73,0,1.95-4.13,1.95h-1.35c-.08,0-.16,.01-.24,.04v-3.84h1.59c2.59,0,4.13,.69,4.13,1.86Z"/><path class="cls-2" d="M219.92,288.05c.43,0,.78-.35,.78-.78v-.66c0-.43-.35-.78-.78-.78h-.96c-.29,0-.54,0-.74,0h-.25c0-.14,0-.32,0-.51v-16.61c0-.43-.35-.78-.78-.78h-2.82c-.43,0-.78,.35-.78,.78v16.97c0,.21,0,.39,0,.55-.02,.57-.03,1.06,.34,1.44,.39,.4,.99,.4,1.51,.4h4.49Z"/><path class="cls-2" d="M210.09,303.55h-8.34c-.57,0-1.05,0-1.49-.01-.3,0-.55,0-.77,0-.71,0-1.28,.03-1.67,.44-.39,.4-.36,.9-.33,1.54,.01,.22,.02,.49,.02,.81v9.3c0,.26-.01,.47-.02,.67-.03,.51-.06,.98,.31,1.37,.37,.39,.93,.42,1.62,.42,.2,0,.43,0,.69,0h.28c.45-.01,1-.02,1.66-.02h7.89c.43,0,.78-.35,.78-.78v-.66c0-.43-.35-.78-.78-.78h-8.04c0-.07,0-.15,0-.24v-3.96h6.41c.43,0,.78-.35,.78-.78v-.66c0-.43-.35-.78-.78-.78h-6.41v-3.27c0-.13,0-.25,0-.37h.36c.23,0,.49,.01,.81,.01h7.02c.43,0,.78-.35,.78-.78v-.66c0-.43-.35-.78-.78-.78Z"/></g><g><path class="cls-2" d="M189.53,237.82c28.68-1.51,53.77-17.54,65.82-26.63-18.57,20.58-45.45,33.51-75.35,33.51-42.47,0-78.84-26.1-93.97-63.13-3.48-17.99-5.8-59.11,12.52-83.03,18.41-22.04,39.16-22.33,52.66-13.78,21.13,13.38,20.27,37.28,10.3,44.1-10.9,7.45-17.1-4.8-17.02-4.96l2.4,27.28s3.91,1.81,9.26,1.29c-11.91,5.81-21.28,16.73-23.46,32.41-4.97,35.77,25.07,54.61,56.82,52.94ZM90.03,106.76c12.42-29.27,42.52-48.01,72.49-27.87,14.3,9.61,19.8,24.41,18.71,38.81,2.19-5.38,6.06-8.11,6.06-8.11l24.83,11.56c-.1-.15-13.81-.9-12.81,12.26,.92,12.04,21.19,24.73,43.34,13.13,14.15-7.42,24.29-25.53,14.4-52.5-10.93-26.3-44.39-44.32-62.64-51.27-4.71-.67-9.52-1.02-14.41-1.02-56.04,0-101.47,45.43-101.47,101.47,0,13.39,2.6,26.17,7.31,37.88-2.91-13.16-8-45.61,4.19-74.35Zm89.77,19.53c-1.05,4.03-2.6,7.94-4.62,11.59-3.03,5.47-6.39,8.98-9.71,11.2,4.79-1.2,9.77-1.7,14.71-1.44,4.89,.25,8.79,1.22,11.91,2.6-2.84-2.85-5.34-6.05-7.42-9.5-3.34-5.55-4.68-10.37-4.87-14.45Zm74.4-43.73c19.14,25.39,20.31,60.83-12.11,76.71-14.72,7.21-29.53,5.17-41.2-2.06,3.54,4.97,3.65,10.01,3.65,10.01l-23.47,14.12c.18,0,8.47-10.94-3-17.47-10.49-5.97-32.36,3.74-35.12,28.59-1.76,15.88,7.59,34.41,35.47,41.29,27.95,5.66,61.65-12.06,77.59-23.31,15.84-17.9,25.47-41.44,25.47-67.22,0-50.8-37.32-92.87-86.04-100.31,14.3,4.93,41.52,16.76,58.77,39.64Z"/><path class="cls-1" d="M178.35,233.76c-27.88-6.88-37.24-25.41-35.47-41.29,2.76-24.85,24.63-34.56,35.12-28.59,11.47,6.53,3.18,17.47,3,17.47l23.47-14.12s-.1-5.04-3.65-10.01c11.68,7.22,26.48,9.27,41.2,2.06,32.43-15.88,31.26-51.32,12.11-76.71-16.42-21.78-41.87-33.54-56.62-38.87-.49-.09-.98-.17-1.47-.24,18.56,7.38,50.34,25.1,60.94,50.6,9.89,26.96-.25,45.08-14.4,52.5-22.15,11.61-42.42-1.09-43.34-13.13-1-13.16,12.71-12.4,12.81-12.26l-24.83-11.56s-3.87,2.73-6.06,8.11c1.09-14.4-4.41-29.2-18.71-38.81-29.97-20.14-60.08-1.41-72.49,27.87-11.5,27.11-7.62,57.5-4.7,71.91,.11,.3,.23,.6,.34,.9-3.26-18.88-4.78-57.95,12.88-81.02,18.41-22.04,39.16-22.33,52.66-13.78,21.13,13.38,20.27,37.28,10.3,44.1-10.9,7.45-17.1-4.8-17.02-4.96l2.4,27.28s3.91,1.81,9.26,1.29c-11.91,5.81-21.28,16.73-23.46,32.41-4.97,35.77,25.07,54.61,56.82,52.94,27.38-1.44,51.47-16.11,64.08-25.34,.32-.34,.64-.68,.96-1.03-16.46,11.26-49.02,27.81-76.16,22.32Zm-3.23-95.88c2.02-3.65,3.57-7.56,4.62-11.59,.19,4.08,1.53,8.9,4.87,14.45,2.08,3.45,4.58,6.65,7.42,9.5-3.12-1.37-7.02-2.34-11.91-2.6-4.94-.25-9.92,.24-14.71,1.44,3.32-2.22,6.69-5.73,9.71-11.2Z"/></g></svg>