<?xml version="1.0" encoding="UTF-8"?><svg id="Layer_1" xmlns="http://www.w3.org/2000/svg" viewBox="0 0 360 360"><defs><style>.cls-1{fill:#c33;}.cls-2{fill:#231f20;}</style></defs><g><path class="cls-1" d="M121.64,151.13c-6.03,1.73-8.46-.21-11.8,2.1,.97,5.28,9.81,.36,11.8-2.1Z"/><path class="cls-1" d="M246.83,152.28c-3.34-2.31-5.77-.37-11.8-2.1,1.99,2.46,10.83,7.38,11.8,2.1Z"/><path class="cls-1" d="M266.51,190.82l12.94-14.11-13.78-13.29,7.95-17.42-17.21-8.38,2.17-19.02-18.96-2.65-3.81-18.76-18.85,3.34-9.42-16.67-16.9,9-14.11-12.94-13.29,13.78-17.42-7.95-8.38,17.21-19.02-2.18-2.65,18.96-18.76,3.81,3.34,18.85-16.67,9.42,9,16.9-12.94,14.11,13.78,13.29-7.95,17.41,17.21,8.38-2.18,19.02,18.96,2.65,3.81,18.76,18.85-3.33,9.42,16.66,16.9-9,14.11,12.94,13.29-13.78,17.41,7.95,8.38-17.21,19.02,2.17,2.65-18.96,18.76-3.81-3.33-18.85,16.66-9.42-9-16.89Zm-132.11,22.48c-2.1-2-6.03-6.84-6.03-6.84l.63,6.22c-6.31-2.88-10.16-9.14-10.16-9.14l.51,4.4c-18.48-15.2-35.21-37.71-9.99-36.57,4.95,.22,8.3-.39,8.13-2.16-9.27-1.51-17.48-14.14-23.24-6.01,3.05-9.18,5.76-11.68,14.12-12.61h1.14c3.22-3.92,9.38-4.54,14.32-4.53,2.14-.05,7.68,.88,10.04,.29-.73,.93-6.17,4.72-7.06,5.17,.54,.22,7.12,.51,10.48,.93-.65,1.35-5.16,2.95-6.06,2.96,.55,.77,2.31,1.82,4.25,2.89-.08,.29-.16,.59-.23,.88-3.41,13.2-3.58,21.35-3.19,28.9,.6,11.5,5.76,25.07,7.33,29.17-1.79-1.36-4.02-3.02-5.01-3.97Zm42.31-111.53c3.44,.04,6.76,3.27,7.97,7.41l-15.62-.06c1.32-4.07,4.35-7.39,7.65-7.35Zm-4.06,11.99c-.04,.13-.43,5,4.29,5,4.24,0,4.2-4.85,4.19-4.96h4.01c-.26,5.21-1.99,9.66-8.21,9.58-6.09-.08-8.48-4.22-8.56-9.64h4.27Zm33.16,99.27c-6.28,11.63-16.59,17.79-25.08,17.69-10.84-.14-22.46-6.14-27.19-13.94-5.58-9.2-8.42-30.08-7.92-35.49,1.67-14.5,.16-24.19,9.05-35.83,1.36-1.78,13.88-12.09,23.27-11.78,6.86,.23,21.01,5.81,24.54,12.26,3.8,6.93,5.01,10.48,7.08,17.97,2.19,7.73,3.32,35.98-3.76,49.11Zm33.37-44.75c-.18,1.76,3.18,2.38,8.13,2.16,25.22-1.14,8.49,21.37-9.99,36.57l.51-4.4s-3.85,6.26-10.16,9.14l.63-6.22s-2.42,2.65-4.75,5.35c-.91-.41-1.74-.76-2.44-1.03,.08-.75,3.95-11.23,3.91-25.45-.02-6.63-1.16-16.54-3.87-25.98-.08-.29-.18-.58-.26-.87,2.06-1.13,3.98-2.25,4.56-3.06-1.06-.02-5.04-1.89-6.51-2.67l-.06-.15c3.09-.46,10.42-.83,10.99-1.07-.89-.45-6.67-4.33-7.4-5.26,2.36,.59,8.23-.25,10.37-.2,4.94-.01,11.1,.6,14.32,4.53h1.14c8.37,.93,11.08,3.44,14.12,12.61-5.76-8.13-13.97,4.5-23.24,6.01Z"/></g><rect class="cls-2" x="148.32" y="53.38" width="24.98" height="3.27" transform="translate(99.85 213.67) rotate(-87.87)"/><rect x="280.75" y="118.18" width="24.98" height="3.27" transform="translate(-9.83 27.64) rotate(-5.31)"/><g><g><path class="cls-2" d="M48.52,194.52l1.12-.04c3.88-.13,6.23-.68,7.15-1.66,.71-.58,.92-1.86,1.17-3.9,.04-.3,.07-.6,.11-.88,.13-1.02,.44-2.04,.7-2.61,.31-.08,.97-.13,1.3-.16l.45-.04c.85-.07,1.39,.05,1.62,.16l.02,.03c.08,.16,.11,.24,.14,.92,.07,1.72-.09,2.77-.21,3.53-.08,.53-.15,.99-.12,1.49l.02,.27,.15,.22c.47,.68,1.45,.73,2.34,.72h.41c.6-.04,1.34-.14,1.82-.64l.22-.23,.04-.31c.08-.59-.02-2.01-.18-4.02-.04-.51-.08-.97-.1-1.3,0-.14-.01-.3-.02-.47v-.08c-.05-1.32-.12-3.14-1.18-4.08-.76-.71-2.63-.84-4.07-.83-.45,0-.91,.02-1.37,.06-.34,.03-.68,.05-1.02,.07-1.87,.12-3.35,.21-4.17,.96l-.07,.08c-.66,.75-.83,1.95-1.01,3.23-.08,.58-.16,1.18-.29,1.64-.11,.41-.21,.83-.3,1.24-.07,.33-.24,1.05-.35,1.31-.75,.32-1.41,.38-3.04,.52l-.63,.05c-.74,.07-1.44,.13-1.98,.13-.67,0-.91-.08-1.03-.18-.12-.34-.2-1.63-.23-2.07-.09-1.49,.1-2.59,.25-3.47,.1-.61,.2-1.14,.17-1.64l-.03-.46-.38-.27c-.47-.33-1.16-.47-2.44-.47-.49,.03-1.2,.12-1.67,.55-.46,.32-.83,1.02-.3,6,.04,.35,.07,.75,.11,1.22,.19,2.39,.36,3.89,1.14,4.56,.81,.8,1.86,.95,3.51,.94,.61,0,1.33-.03,2.21-.07Z"/><path class="cls-2" d="M65.12,207.18c.05,.22,.09,.46,.11,.6,.04,.22,.07,.41,.11,.57,.17,.7,.03,1.13-.09,1.5-.12,.38-.38,1.18,.31,1.79l.26,.17c.4,.17,.73,.25,1.07,.24,.26,0,.48-.05,.67-.1,.07-.02,.15-.04,.24-.05l.09-.02c.43-.08,1.08-.2,1.6-.89,.46-.67,.25-1.56-.3-3.92-.2-.85-.43-1.82-.67-2.95-.39-1.87-.57-3.24-.71-4.25-.17-1.3-.27-2.01-.63-2.54l-.07-.1-.22-.17c-.51-.32-1.11-.35-1.65-.27-.06,0-.12,.02-.18,.03-.55,.07-1.02,.15-1.66,.46l-.35,.17-.14,.36c-.29,.77,.06,1.38,.34,1.88,.18,.32,.37,.66,.49,1.14,.06,.22,.13,.46,.21,.7,.11,.35,.19,.63,.23,.81-3.05,.78-4.88,1.22-7.88,1.8-3.6,.69-6.63,1.08-9.58,1.46l-2.24,.29-.24,.3c-.73,.89-.55,1.78-.43,2.43l.07,.39c.1,.59,.22,1.32,1.03,1.94l.39,.3,.47-.13c2.67-.75,7.22-1.78,11.31-2.56,3.18-.59,4.97-.89,8.03-1.36Z"/><path class="cls-2" d="M64.7,231.83c1.21-.46,2.43-.91,3.57-1.33,3.95-1.45,6.04-2.23,6.81-2.94l.28-.26,.05-.71c.04-.43,.02-.6-.15-.98-.05-.1-.12-.26-.22-.54-.05-.14-.1-.27-.14-.39-.26-.74-.51-1.44-1.54-1.82l-.42-.15-.39,.22c-.19,.11-.43,.25-.71,.41-1.41,.83-4.04,2.38-8.47,4.19-3.62,1.48-7.53,2.5-8.79,2.59-.43-.42-.58-.82-.83-1.52l-.09-.25c-.3-.81-.47-1.31-.37-1.89,.84-.68,3.86-1.83,8.35-3.53,3.55-1.35,6.16-1.9,8.26-2.35,.56-.12,1.08-.23,1.57-.34l.5-.12,.18-.48c.36-.95,.15-1.79-.14-2.55l-.09-.24c-.31-.84-.38-.97-.9-1.48l-.49-.48-.53,.13c-.77,.19-5.94,1.93-10.13,3.66-1.28,.53-2.66,1.03-3.99,1.53-3.33,1.23-5.97,2.21-6.93,3.29l-.15,.17-.06,.22c-.5,1.8,.05,3.23,.64,4.74,.16,.41,.33,.84,.49,1.31l.04,.12c.66,1.91,1.48,4.01,2.77,4.95l.09,.06c.36,.21,.8,.31,1.34,.3,1.64-.01,4.26-1.05,7.58-2.35,.95-.37,1.96-.77,3.01-1.17Z"/><path class="cls-2" d="M81.55,239.31c-.43-1.52-.79-2.1-1.43-3.16-.21-.34-.45-.73-.74-1.24l-.27-.48c-1.04-1.82-1.84-3.13-2.72-3.49l-.49-.2-.43,.3c-.45,.31-1.01,.71-1.69,1.19-1.92,1.36-4.55,3.22-7.16,4.85-1.87,1.18-4.21,2.46-6.09,3.49-2.45,1.34-3.64,2-4.08,2.43l-.17,.17-.07,.22c-.3,.91,.43,2.36,2.75,6.25l.39,.65c1.31,2.19,1.88,2.71,2.92,3.67l.17,.16,.14,.09c.95,.51,2.04,.76,3.24,.75,3.58-.03,7.26-2.37,9.14-3.76,7.59-5.63,6.96-10.51,6.59-11.87Zm-4.09,1.9c-.26,1.27-1.14,3.33-5.66,6.51-2.69,1.89-4,2.57-5.94,2.59-.16,0-.33,0-.47,0-.74-.07-1.59-.89-2.75-2.67-.1-.15-.2-.31-.31-.46-.44-.64-.82-1.21-.93-1.89,1.97-1.38,7.9-5.08,11.14-7.1,1.11-.69,1.89-1.18,2.09-1.31,.48-.32,.68-.38,.92-.38,.1,.1,.2,.27,.37,.57,.1,.18,.22,.39,.37,.64,.92,1.5,1.12,1.89,1.16,3.49Z"/><path class="cls-2" d="M77.16,267.26c-.71-.57-1.67-1.35-2.38-2.33-.17-.23-.34-.44-.51-.65-.32-.39-.55-.67-.68-1.05l.39-.36c1.26-1.16,1.78-1.65,3.08-2.67,1.72-1.35,2.8-2.14,4.24-3.11,.19,.24,.37,.48,.56,.74,.2,.27,.4,.55,.64,.86,.2,.26,.41,.59,.61,.91,.55,.88,.99,1.57,1.73,1.67h.19c.68,0,1.08-.25,1.38-.44,.05-.04,.11-.07,.17-.11,.62-.34,.87-.79,1.11-1.23,.04-.08,.09-.16,.14-.25l.24-.4-.17-.44c-.2-.53-.68-.93-1.18-1.36-.35-.3-.71-.6-.96-.93-.24-.31-.83-1.08-1.16-1.65,.27-.26,.42-.39,.5-.45,.22-.07,.41-.2,.64-.39l.22-.18c.18-.15,.4-.34,.59-.46,.5,.58,1.43,1.89,1.81,2.42l.31,.44c.66,.89,.97,1.49,1.18,1.88,.32,.61,.63,1.19,1.71,1.33h.16c.65-.07,1.02-.41,1.27-.64,.04-.03,.08-.07,.12-.1,.06-.04,.12-.08,.18-.13,.31-.21,.77-.53,.93-1.13l.04-.15v-.16c-.05-.64-.61-1.37-2.32-3.45-.63-.76-1.33-1.62-1.86-2.34l-.32-.45c-1.22-1.7-2.16-2.92-3.07-3.19l-.51-.15-.4,.34c-.42,.36-.94,.82-1.56,1.36-1.77,1.55-4.19,3.68-6.61,5.56-1.74,1.37-3.93,2.88-5.69,4.1-2.3,1.59-3.42,2.37-3.81,2.85l-.15,.18-.05,.23c-.21,.97,.61,2.18,2.54,4.71,.21,.28,.42,.55,.61,.81,.27,.36,.54,.73,.84,1.14,1.63,2.25,2.4,3.24,3.39,3.23,.06,0,.12,0,.18-.01l.78-.33c.56-.26,.67-.32,.93-.59,.03-.03,.06-.07,.12-.12l.14-.13c.42-.38,.75-.74,.86-1.74l.05-.43-.29-.32c-.2-.22-.49-.45-.86-.75Z"/><path class="cls-2" d="M105.64,269.89l.29-.25,.04-.38c.1-.96-.23-1.55-1.35-2.44-.1-.08-.2-.17-.33-.27-.61-.51-1.23-1.05-1.95-1.04h-.39l-.29,.28c-.53,.53-.85,1.03-1.14,1.47-.16,.25-.32,.49-.5,.71-.19,.24-.4,.51-.6,.79,0-.15,.01-.31,.02-.46,.02-.38,.04-.76,.04-1.13,.01-.71,.08-1.36,.15-2.01,.06-.59,.13-1.2,.14-1.83,.09-.94-.24-1.53-1.35-2.41-.08-.06-.16-.13-.29-.24-.52-.43-1.1-.92-1.84-.92h-.43l-.28,.34c-.29,.34-.63,.75-1.03,1.23-1.48,1.77-3.72,4.45-5.95,6.8-2.66,2.8-4.97,4.99-7.2,7.11l-1.33,1.26-.02,.38c-.06,1.15,.6,1.77,1.08,2.22l.29,.28c.4,.4,.95,.94,1.97,.97h.49l.3-.37c1.59-2,4.56-5.48,7.64-8.72,1.27-1.34,2.32-2.45,3.44-3.58,0,.56,0,1.27-.02,2.12v.62c-.03,1.34-.05,2.4-.44,3.38-.16,.19-.3,.35-.44,.52-.19,.24-.37,.44-.62,.71-1.94,2.17-3.63,3.74-5.42,5.42l-.11,.1c-.55,.51-1.1,1.03-1.67,1.57l-.28,.26-.02,.38c-.06,1.15,.6,1.77,1.08,2.22l.29,.28c.42,.42,.95,.94,1.98,.97h.49l.3-.37c1.6-2.02,4.55-5.51,7.64-8.72,2.89-3.05,4.62-4.65,7.63-7.29Z"/><path class="cls-2" d="M117.52,276.8l-.16,.24h-.02l.11-.29c-.71-.48-1.52-1.01-2.44-1.66-1.56-1.1-2.63-1.98-3.42-2.63-1.01-.83-1.57-1.28-2.19-1.42l-.2-.05-.2,.04c-.77,.15-1.14,.62-1.42,.96l-.09,.11c-.35,.43-.65,.81-.9,1.47l-.14,.36,.15,.36c.31,.76,.99,.97,1.53,1.14,.34,.11,.72,.23,1.14,.5,.18,.12,.4,.24,.63,.37,.36,.2,.58,.34,.72,.44-1.69,2.64-2.73,4.21-4.54,6.69-2.15,2.95-4.1,5.3-5.99,7.58l.23,.19v.02l-.28-.14-1.4,1.7,.03,.38c.08,1.15,.81,1.68,1.34,2.07l.32,.24c.43,.33,.96,.74,1.84,.73,.08,0,.16,0,.24-.01l.48-.04,.25-.42c1.45-2.37,4.07-6.23,6.52-9.59,1.92-2.6,3.02-4.04,4.94-6.47,.19,.13,.4,.29,.49,.37,.17,.13,.33,.26,.46,.34,.6,.4,.79,.8,.96,1.16,.17,.36,.52,1.11,1.43,1.1l.33-.06c.79-.28,1.08-.64,1.38-1.1,.04-.06,.08-.12,.13-.19l.05-.07c.26-.35,.66-.88,.56-1.75-.12-.81-.88-1.31-2.89-2.66Z"/><path class="cls-2" d="M142.66,290.09c-.51-.96-2.22-1.67-4.98-2.76-.58-.23-1.14-.45-1.63-.66l-.51-.22c-1.55-.67-2.91-1.22-3.82-1.21-.16,0-.31,.02-.45,.06l-.51,.13-.17,.5c-.18,.54-.4,1.22-.65,2.01-.71,2.23-1.67,5.29-2.79,8.12-1.25,3.16-2.45,5.77-3.62,8.3-.35,.76-.69,1.5-1.03,2.23l-.16,.35,.12,.36c.37,1.09,1.22,1.42,1.83,1.65l.37,.15c.37,.15,.79,.33,1.32,.32,.29,0,.57-.06,.87-.17l.46-.17,.14-.47c.25-.83,.44-1.52,.61-2.16,.35-1.24,.62-2.22,1.12-3.65,.47-1.34,.82-2.23,1.3-3.46,.49-.08,.92-.17,1.44-.28,.31-.06,.6-.13,.89-.2-.26,1.87-.49,3.33-.94,5.48-.21,1.03-.41,1.86-.61,2.65-.24,.97-.49,1.97-.74,3.32l-.05,.27,.1,.25c.42,1.12,1.46,1.34,2.09,1.47,.12,.03,.25,.05,.38,.09l.19,.05c.25,.07,.54,.15,.91,.15,.24,0,.49-.04,.75-.12l.31-.09,.2-.26c.38-.51,.44-1.34,.53-3.8,.04-1.13,.09-2.4,.21-3.45,.3-2.8,.59-4.74,.95-7.2l.02-.12c1.68-.75,2.46-1.3,3.84-2.53,1.46-1.31,2.55-3.36,1.7-4.96Zm-4.57,1.48s-.01,.06-.03,.1c-.3,.85-1.76,2.29-2.65,2.62-2.06,.77-3.17,1.07-3.79,1.17,.16-.54,.46-1.27,.74-1.94,.14-.33,.27-.66,.4-.99,.13-.34,.25-.69,.36-1.04,.21-.65,.43-1.31,.71-1.62,.62,.06,1.31,.33,2.11,.65,1.28,.5,1.97,.91,2.14,1.04Z"/><path class="cls-2" d="M158.13,297.05c.45-.46,.52-.97,.56-1.27,0-.06,.02-.13,.03-.19,.01-.07,.03-.13,.05-.21,.1-.36,.25-.91-.01-1.46l-.18-.25c-.45-.47-1.34-.67-4.04-1.17-1-.19-2.04-.38-2.88-.59l-.53-.13c-.99-.25-2.19-.56-3.13-.62h-.76c-.19,.04-.36,.08-.52,.15l-.48,.21-.09,.52c-.09,.53-.19,1.18-.3,1.94l-.02,.13c-.36,2.32-.84,5.5-1.48,8.49-.45,2.16-1.15,4.73-1.72,6.8-.74,2.69-1.09,4.01-1.08,4.63v.23l.11,.21c.46,.88,1.87,1.28,4.97,1.98l.11,.02c.3,.07,.6,.14,.88,.2,.44,.1,.87,.21,1.29,.31l.08,.02c1.44,.36,2.68,.67,3.51,.66,.21,0,.87,0,1.29-.49l.39-.75c.26-.56,.31-.68,.33-1.03,0-.04,0-.1,.02-.18l.03-.19c.08-.56,.1-1.05-.46-1.89l-.24-.36-.43-.06c-.18-.02-.38-.03-.73-.03h-.92c-.8,.02-1.83,0-2.81-.25-.29-.07-.56-.12-.81-.17-.5-.09-.85-.16-1.19-.36l.07-.51c.22-1.7,.31-2.41,.64-4.03,.45-2.14,.76-3.44,1.25-5.11,.3,.06,.58,.13,.88,.21l.1,.02c.3,.07,.61,.15,.97,.23,.32,.07,.69,.19,1.05,.31,1.01,.33,1.82,.53,2.4,.16l.08-.06c.57-.46,.72-.94,.83-1.29,.02-.06,.04-.12,.06-.18,.26-.66,.16-1.17,.07-1.61-.02-.1-.04-.2-.06-.32l-.08-.46-.41-.23c-.5-.28-1.12-.28-1.78-.28-.46,0-.93,0-1.34-.09-.39-.09-1.33-.3-1.94-.52,.04-.37,.07-.57,.09-.67,.12-.19,.18-.41,.24-.71l.05-.27c.04-.23,.09-.52,.15-.74,.77,.12,2.21,.5,2.95,.69l.52,.13c1.08,.26,1.7,.52,2.11,.68,.4,.16,.72,.29,1.11,.29,.44,0,.78-.19,1.06-.37l.12-.11Z"/><path class="cls-2" d="M173.09,295.59l-.3-.11c-.56-.2-1.97-.4-3.9-.65l-.19-.02c-.46-.06-.87-.12-1.17-.16-.16-.02-.34-.06-.54-.09-.65-.11-1.47-.26-2.24-.25-.85,0-1.5,.19-1.99,.55-1.22,.85-1.75,4.16-1.89,5.16-.04,.32-.09,.63-.14,1.01-.27,1.85-.49,3.32,.07,4.28l.06,.09c.6,.81,1.73,1.22,2.95,1.66,.55,.2,1.11,.41,1.54,.63,.37,.2,.77,.38,1.15,.55,.28,.13,.98,.45,1.22,.62,.16,.8,.08,1.45-.13,3.08l-.08,.63c-.15,1.28-.31,2.6-.67,2.92-.04,0-.09,0-.17,0-.49,0-1.24-.11-1.91-.21-1.48-.22-2.52-.63-3.35-.97-.58-.23-1.07-.43-1.57-.5l-.46-.07-.34,.32c-.42,.39-.7,1.03-.97,2.29-.07,.49-.13,1.2,.19,1.75,.22,.52,.83,1.02,5.8,1.54,.34,.03,.73,.08,1.21,.15,.91,.12,2.04,.27,2.93,.26,.83,0,1.39-.15,1.76-.43,1.25-.82,1.49-2.21,2.06-5.56l.17-.97c.68-3.82,.63-6.24-.13-7.34-.42-.82-1.63-1.28-3.57-1.96-.29-.1-.57-.2-.84-.3-.97-.34-1.9-.85-2.4-1.22-.01-.32,.07-.94,.12-1.31l.06-.45c.12-.92,.35-1.36,.49-1.55h.04c.11-.04,.14-.04,.2-.04,.13,0,.37,.03,.72,.09,1.7,.29,2.69,.66,3.41,.94,.5,.19,.94,.36,1.43,.43l.27,.04,.25-.1c.8-.33,1.05-1.36,1.27-2.54,.09-.59,.15-1.34-.23-1.91l-.18-.27Z"/><path class="cls-2" d="M192.34,306.68c-.09-1.38-.11-2.72-.13-4.04-.06-3.66-.1-6.3-1.68-7.29-.56-.32-1.32-.46-2.42-.45-.94,0-1.96,.13-2.72,.22l-.53,.06c-.24,.03-.6,.04-1.01,.06-2.22,.09-3.98,.24-4.82,1.19l-.06,.09c-.89,1.41-.57,4.36-.16,8.1,.1,.9,.2,1.84,.29,2.78,.15,1.65,.2,3.4,.26,5.08,.09,3.18,.17,5.68,.87,6.84l.12,.19,.19,.12c1.2,.76,2.3,.86,3.23,.85,.47,0,.95-.04,1.49-.08,.44-.03,.9-.07,1.4-.09h.13c2.01-.08,4.27-.24,5.54-1.21l.08-.07c1.14-1.08,.86-3.55,.43-7.3-.17-1.53-.37-3.25-.49-5.08Zm-3.88,9.41c-.63,.38-1.13,.41-1.93,.45l-.26,.02c-.86,.05-1.51,.09-2.16-.28-.44-.9-.64-3.68-1-9.2l-.11-1.58c-.21-3-.36-5.22-.15-5.98,.43-.14,.95-.19,1.56-.24,.25-.02,.51-.04,.78-.08,.83-.1,1.4-.05,2.2,.03,.15,.53,.29,2.15,.44,3.99v.11c.09,.93,.18,2.04,.3,3.35,.5,5.44,.5,8.71,.33,9.42Z"/><path class="cls-2" d="M211.17,303.74c-.24-1.25-.46-2.5-.69-3.75-.74-4.14-1.15-6.34-1.72-7.21l-.21-.32-.69-.17c-.37-.1-.72-.09-.99-.02-.11,.03-.27,.07-.57,.12l-.41,.07c-.78,.13-1.51,.25-2.06,1.21l-.22,.38,.15,.42c.07,.21,.17,.47,.28,.78,.57,1.54,1.64,4.4,2.65,9.07,.88,4.04,1.16,8.06,1.03,9.1-.49,.36-.91,.43-1.65,.57l-.26,.05c-.79,.15-1.4,.23-1.92,.03-.53-.95-1.13-4.12-2.03-8.83-.71-3.73-.8-6.4-.88-8.54-.02-.58-.04-1.11-.07-1.6l-.03-.51-.44-.26c-.71-.42-1.39-.52-2.54-.31l-.25,.05c-.88,.16-1.02,.2-1.62,.62l-.56,.39,.04,.55c.05,.79,.87,6.18,1.84,10.61,.3,1.36,.56,2.8,.81,4.19,.64,3.5,1.14,6.26,2.04,7.4l.14,.18,.2,.1c.76,.36,1.51,.53,2.36,.52,.79,0,1.54-.16,2.41-.33,.43-.09,.88-.18,1.38-.26l.12-.02c1.44-.23,4.11-.67,5.36-1.87l.07-.07c1.12-1.34,.52-4.28-.47-9.14-.2-1-.42-2.06-.63-3.17Z"/><path class="cls-2" d="M231.05,305.46c-.72-.86-1.53-1.83-2.14-2.69-1.65-2.28-2.74-3.92-4.11-5.98l-.07-.1c.75-1.68,.95-2.62,1.16-4.45,.21-1.95-.35-4.2-2.06-4.82-.21-.08-.45-.11-.73-.11-1.12,0-2.99,.71-4.86,1.41-.56,.21-1.11,.42-1.61,.59l-.52,.18c-1.98,.67-3.42,1.21-3.95,2l-.29,.44,.21,.48c.23,.52,.52,1.17,.86,1.92,.97,2.13,2.3,5.05,3.37,7.91,1.19,3.19,2.04,5.94,2.86,8.6l.04,.15c.23,.75,.46,1.48,.69,2.2l.12,.37,.34,.19c.38,.21,.77,.32,1.17,.31,.49,0,.92-.17,1.3-.31l.37-.14c.56-.2,1.26-.44,1.74-1.35l.23-.43-.21-.44c-.37-.77-.68-1.39-.99-2.01-.58-1.16-1.03-2.07-1.62-3.48-.54-1.31-.89-2.21-1.35-3.44,.31-.39,.57-.74,.88-1.18,.19-.26,.36-.49,.52-.74,1.06,1.56,1.86,2.8,2.97,4.7,.53,.9,.93,1.65,1.33,2.39,.47,.88,.96,1.79,1.67,2.95l.14,.23,.24,.12c.31,.16,.64,.24,.98,.24,.63,0,1.14-.3,1.6-.57,.1-.06,.2-.11,.3-.17l.17-.09c.37-.18,.83-.41,1.26-1.09l.17-.28-.03-.33c-.06-.63-.57-1.29-2.16-3.19Zm-9.8-10.08c-1.08,2.06-1.7,3-2.03,3.42-.25-.51-.51-1.27-.76-1.95-.12-.34-.24-.68-.36-1-.13-.34-.27-.67-.42-1.01-.27-.62-.56-1.26-.56-1.68,.5-.37,1.2-.63,2.01-.93,1.2-.45,1.97-.63,2.3-.65,.01,.02,.02,.05,.04,.08,.34,.83,.22,2.88-.21,3.72Z"/><path class="cls-2" d="M247.75,297.57l-.17-.06h-.18c-.58,.03-1.06,.43-2.01,1.25-.69,.6-1.56,1.34-2.4,1.77-.17,.09-.34,.18-.49,.27-.55,.31-.99,.55-1.39,.56-.77-.78-2.22-3.66-4.37-7.92l-.72-1.41c-1.18-2.33-2.22-4.37-2.42-5.2,.43-.35,1.05-.66,1.81-1.03,.61-.3,1.71-.6,2.61-.84,.91-.25,1.69-.46,2.19-.71l.34-.17,.13-.36c.41-1.11-.05-1.99-.55-2.68l-.25,.15v-.02l.2-.22c-.18-.31-.52-.9-1.1-1.15-.16-.08-.35-.13-.55-.13-.33,0-.94,0-5.01,2.27-.2,.11-.5,.26-.91,.45-2,.95-3.57,1.77-3.97,2.98l-.02,.1c-.29,1.77,1.33,4.74,3.38,8.5,.28,.51,.56,1.03,.84,1.55,.71,1.31,1.39,2.74,2.08,4.16,1.47,3.06,2.63,5.48,3.78,6.3l.18,.13,.22,.04c.32,.05,.64,.08,.94,.08,1.37-.01,2.45-.57,3.72-1.22,.39-.2,.79-.41,1.24-.62,.21-.1,.47-.21,.78-.34,1.39-.59,3.29-1.39,4.04-2.7l.06-.11,.06-.27c.09-.78-.26-1.41-.58-1.96-.3-.52-.66-1.17-1.53-1.45Z"/><path class="cls-2" d="M265.47,287.25s-.07-.07-.13-.13l-.13-.14c-.38-.42-.74-.75-1.74-.86l-.43-.05-.32,.29c-.22,.2-.45,.49-.75,.86-.57,.71-1.35,1.67-2.33,2.38-.24,.17-.45,.35-.65,.51-.39,.32-.67,.55-1.05,.68l-.35-.38c-1.16-1.26-1.65-1.78-2.68-3.08-1.36-1.73-2.15-2.8-3.11-4.24,.25-.19,.49-.37,.75-.56l.09-.07c.24-.17,.49-.36,.76-.57,.26-.2,.59-.41,.91-.61,.88-.55,1.57-.99,1.67-1.73v-.11c.02-.74-.25-1.15-.46-1.48-.03-.05-.06-.1-.09-.14-.34-.63-.79-.87-1.19-1.09-.09-.05-.18-.1-.28-.16l-.4-.24-.44,.17c-.54,.2-.94,.68-1.37,1.19-.29,.35-.6,.71-.93,.96-.31,.24-1.08,.83-1.65,1.15-.26-.27-.39-.42-.45-.5-.07-.22-.2-.41-.39-.64l-.17-.21c-.15-.18-.35-.41-.47-.59,.58-.5,1.88-1.42,2.43-1.81l.43-.31c.9-.66,1.49-.97,1.88-1.18,.61-.32,1.19-.63,1.33-1.71v-.16c-.07-.65-.41-1.02-.63-1.26-.04-.04-.08-.09-.11-.13-.04-.06-.08-.12-.13-.18-.21-.31-.53-.77-1.13-.93l-.15-.04h-.16c-.65,.05-1.37,.61-3.48,2.34-.79,.65-1.61,1.33-2.32,1.84l-.45,.32c-1.7,1.22-2.92,2.16-3.19,3.07l-.15,.5,.34,.4c.33,.38,.74,.86,1.22,1.4l.14,.16c1.55,1.77,3.68,4.19,5.56,6.61,1.36,1.72,2.87,3.91,4.1,5.69,1.59,2.29,2.37,3.41,2.85,3.81l.18,.15,.23,.05c.1,.02,.21,.03,.32,.03,.97,0,2.3-.98,4.39-2.57l.81-.61c.38-.29,.77-.57,1.14-.84,2.18-1.59,3.38-2.47,3.22-3.57l-.33-.79c-.26-.56-.32-.67-.58-.92Z"/><path class="cls-2" d="M286.03,266.92c-.44-.34-.99-.76-1.81-.75-.05,0-.11,0-.17,0h-.11l-.23,.09c-.52,.25-.81,.8-1.37,1.93-.41,.82-.91,1.84-1.51,2.56-.12,.15-.23,.29-.35,.44-.41,.53-.69,.89-1.06,1.06-1.02-.42-3.47-2.5-7.12-5.58l-1.23-1.03c-1.99-1.68-3.73-3.14-4.24-3.83,.26-.49,.71-1.01,1.26-1.66,.44-.51,1.3-1.19,2.06-1.79,.74-.59,1.39-1.09,1.75-1.52l.25-.29-.02-.38c-.05-1.18-.82-1.81-1.55-2.25l-.17,.24h-.02l.11-.3c-.29-.22-.78-.59-1.39-.63h-.16c-.49,0-.96,0-4.18,4.14-.15,.19-.39,.46-.66,.77-1.47,1.66-2.59,3.03-2.49,4.3l.02,.11c.42,1.75,3.08,3.85,6.45,6.52,.45,.36,.91,.72,1.36,1.08,1.18,.95,2.38,2,3.54,3.02,2.55,2.24,4.57,4.01,5.94,4.32l.22,.05,.22-.05c1.82-.43,2.79-1.61,3.84-2.87,.28-.34,.57-.68,.9-1.05,.16-.18,.37-.39,.59-.63,1.05-1.08,2.48-2.56,2.66-4.05l.02-.2-.06-.19c-.23-.76-.79-1.19-1.3-1.58Z"/><path class="cls-2" d="M297.08,253.57c-.41-.46-.49-.56-.82-.72-.04-.02-.08-.04-.15-.09l-.17-.1c-.35-.22-.85-.53-1.91-.34l-.43,.07-.23,.37c-.15,.25-.3,.59-.49,1.04-.35,.84-.84,1.98-1.58,2.93-.18,.24-.34,.46-.49,.68-.29,.41-.49,.71-.81,.94l-.44-.27c-1.47-.89-2.08-1.26-3.43-2.23-1.78-1.28-2.83-2.1-4.16-3.22,.18-.25,.37-.49,.58-.77,.2-.25,.4-.52,.63-.82,.2-.27,.46-.56,.71-.84,.69-.77,1.24-1.38,1.13-2.12l-.02-.11c-.19-.71-.56-1.04-.87-1.31l-.11-.1c-.5-.51-1-.62-1.45-.72-.1-.02-.2-.04-.32-.08l-.45-.12-.37,.28c-.46,.34-.71,.91-.98,1.51-.19,.42-.38,.85-.63,1.18-.24,.32-.81,1.09-1.27,1.57-.32-.19-.49-.3-.57-.35-.13-.19-.31-.34-.55-.51l-.23-.15c-.2-.13-.44-.29-.61-.44,.42-.64,1.41-1.88,1.83-2.41l.33-.42c.68-.87,1.16-1.34,1.48-1.65,.5-.48,.97-.93,.81-2.01l-.05-.15c-.24-.6-.67-.87-.95-1.04-.05-.03-.09-.06-.14-.09-.06-.04-.11-.09-.17-.13-.28-.23-.71-.59-1.34-.58l-.3,.06c-.61,.22-1.15,.95-2.69,3.17-.59,.85-1.2,1.74-1.74,2.43l-.34,.43c-1.3,1.64-2.21,2.88-2.22,3.83v.53l.43,.29c.47,.31,1.06,.69,1.74,1.12,1.98,1.27,4.69,3.01,7.17,4.82,1.8,1.29,3.86,2.98,5.51,4.34,2.16,1.77,3.22,2.63,3.79,2.87l.22,.09,.23-.02c.99-.07,1.93-1.19,3.83-3.74,.21-.28,.41-.55,.61-.81,.26-.34,.52-.68,.78-1.01l.09-.12c1.66-2.13,2.58-3.3,2.11-4.32l-.53-.66Z"/><path class="cls-2" d="M307.03,235.33l-.45-.18c-2.39-.94-6.6-2.74-10.57-4.76-3.75-1.87-5.79-3.06-9.2-5.17l-.32-.2-.37,.07c-1.06,.21-1.48,.84-1.94,2-.04,.1-.09,.21-.16,.39-.32,.74-.65,1.5-.42,2.19l.12,.37,.34,.18c.67,.36,1.26,.52,1.74,.65,.29,.08,.56,.16,.83,.27,.28,.11,.6,.23,.94,.34-.16,.04-.33,.08-.49,.12-.35,.09-.71,.18-1.05,.28-.69,.2-1.33,.32-1.96,.45-.58,.11-1.19,.23-1.79,.4-.93,.19-1.39,.67-1.91,2-.04,.09-.08,.19-.14,.34-.27,.63-.57,1.34-.34,2.03l.14,.41,.4,.17c.36,.15,.79,.34,1.28,.54l.21,.09c2.13,.9,5.34,2.25,8.23,3.7,3.43,1.71,6.2,3.28,8.91,4.81l1.59,.9,.37-.09c1.12-.27,1.52-1.09,1.81-1.68l.18-.36c.28-.53,.62-1.18,.35-2.17l-.13-.47-.45-.18c-2.39-.93-6.58-2.77-10.57-4.76-1.66-.83-3.02-1.5-4.43-2.25,.53-.17,1.21-.37,2.03-.6l.59-.17c1.26-.37,2.35-.67,3.35-.57,.23,.1,.43,.18,.62,.26,.28,.12,.53,.22,.86,.39,2.65,1.22,4.65,2.38,6.81,3.63,.67,.39,1.36,.78,2.07,1.19l.33,.19,.38-.09c1.12-.28,1.51-1.09,1.81-1.68l.18-.36c.28-.53,.62-1.19,.35-2.17l-.13-.47Z"/><path class="cls-2" d="M312.76,218.5l-.48-.09c-2.73-.5-7.27-1.57-11.29-2.65-3.13-.87-4.87-1.38-7.81-2.29,.05-.22,.13-.47,.17-.61,.06-.2,.12-.39,.15-.54,.16-.71,.46-1.02,.74-1.31,.28-.29,.86-.89,.5-1.75l-.16-.26c-.55-.64-.99-.78-1.53-.9-.07-.01-.14-.03-.21-.05l-.09-.03c-.49-.14-1.17-.24-1.83,.1-.71,.4-.91,1.29-1.45,3.66-.19,.85-.41,1.82-.7,2.94-.47,1.85-.91,3.17-1.23,4.13-.41,1.24-.64,1.93-.55,2.57l.02,.12,.12,.25c.41,.67,.98,.85,1.36,.97,.06,.02,.11,.03,.18,.06,.53,.18,.99,.31,1.69,.31h.39l.28-.27c.59-.56,.55-1.27,.52-1.84-.02-.37-.05-.76,.06-1.24,.05-.22,.08-.47,.12-.72,.06-.41,.11-.67,.15-.83,3.07,.63,4.9,1.04,7.87,1.84,3.53,.95,6.43,1.93,9.26,2.88,.6,.2,1.19,.4,1.77,.59l.37,.12,.35-.16c1.04-.48,1.28-1.36,1.45-2l.11-.38c.17-.57,.38-1.28-.07-2.2l-.22-.44Z"/><path class="cls-2" d="M316.29,195.15c-.55-.2-.69-.26-1.09-.26h-.15c-.07,0-.12,0-.19-.01-.71-.06-1.19,.08-1.85,.59l-.34,.27-.03,.43c-.02,.3,.02,.69,.06,1.15,.08,.9,.19,2.14-.03,3.33-.05,.29-.08,.56-.11,.82-.06,.5-.1,.86-.28,1.22l-.51-.03c-1.72-.1-2.43-.14-4.08-.36-2.17-.3-3.49-.52-5.18-.89,.05-.31,.1-.61,.15-.94,.05-.32,.11-.65,.17-1.03,.05-.33,.14-.71,.23-1.07,.25-1.01,.44-1.8,0-2.41l-.07-.08c-.5-.54-.98-.65-1.34-.74-.06-.01-.13-.03-.19-.05-.57-.18-1.15-.09-1.62,.04-.09,.03-.2,.05-.31,.08l-.45,.11-.2,.42c-.24,.52-.2,1.14-.16,1.79,.03,.46,.06,.93,0,1.34-.06,.39-.2,1.35-.39,1.98-.38-.02-.57-.03-.67-.04-.2-.11-.43-.15-.73-.19l-.27-.03c-.24-.02-.53-.05-.75-.1,.07-.78,.38-2.4,.49-2.98l.1-.53c.19-1.09,.4-1.73,.54-2.15,.22-.66,.42-1.28-.23-2.15l-.11-.11c-.5-.42-1-.45-1.31-.47-.06,0-.12,0-.19-.02-.07,0-.14-.02-.21-.04-.4-.08-1.02-.13-1.46,.11l-.24,.19c-.43,.48-.57,1.38-.88,4.1-.12,1.02-.24,2.07-.39,2.92l-.1,.54c-.37,2.06-.6,3.58-.17,4.42l.24,.47,.52,.05c.54,.05,1.23,.11,2.08,.18,2.34,.19,5.54,.46,8.57,.89,2.17,.3,4.77,.82,6.9,1.24,2.53,.51,3.88,.77,4.54,.77,.06,0,.11,0,.15,0l.23-.02,.2-.12c.84-.52,1.14-1.95,1.63-5.1,.05-.34,.1-.68,.16-1,.08-.47,.16-.94,.24-1.4,.47-2.66,.73-4.12-.17-4.81l-.78-.33Z"/><path class="cls-2" d="M314.1,181.98c1-.09,2.03-.18,3.38-.38l.27-.04,.21-.17c.92-.76,.79-1.82,.7-2.5-.01-.11-.03-.22-.04-.34v-.19c-.04-.41-.07-.93-.52-1.58l-.19-.27-.31-.1c-.65-.21-1.6,.08-3.76,.74-1.08,.33-2.3,.7-3.33,.93-2.74,.62-4.66,.99-7.11,1.45l-.13,.02c-1.25-1.35-2.03-1.9-3.64-2.81-1.01-.56-2.12-.88-3.05-.87s-1.66,.31-2.19,.88c-.74,.8-.86,2.65-.99,5.59-.03,.62-.05,1.23-.09,1.77l-.04,.55c-.15,2.09-.22,3.62,.3,4.41l.29,.44h.53c.57-.01,1.28-.03,2.16-.05,1.15-.03,2.45-.06,3.85-.07,1.77-.02,3.31,0,4.69,.07,3.39,.15,6.26,.44,9.03,.72l.25,.02c.75,.08,1.48,.15,2.2,.22l.38,.04,.3-.24c.91-.71,.94-1.61,.96-2.27l.02-.4c.04-.6,.08-1.34-.56-2.13l-.31-.38-.49,.02c-.87,.04-1.58,.08-2.24,.12-1.25,.08-2.3,.14-3.83,.13-1.44-.01-2.38-.05-3.7-.1-.24-.44-.46-.82-.74-1.27-.16-.28-.31-.53-.48-.78,1.85-.37,3.31-.62,5.48-.89,1.03-.14,1.88-.21,2.71-.29Zm-17.11,.97c.06-1.37,.22-2.15,.29-2.37,.02,0,.05,0,.08,0,.88,0,2.76,.92,3.36,1.65,1.48,1.8,2.1,2.74,2.36,3.2-.08,0-.17,0-.27,0-.52,0-1.14-.03-1.82-.07-.36-.02-.71-.04-1.06-.06-.25-.01-.49-.01-.74-.01h-.7c-.52,.01-1.09,0-1.43-.14-.14-.61-.11-1.35-.08-2.21Z"/></g><g><path class="cls-2" d="M75.28,131.99c-.45-.64-1.15-.88-1.82-1.11-.66-.23-1.32-.45-2.2-.06l-.16,.11c-.39,.37-.49,1.03-.67,2.38-.14,1.06-.33,2.38-.73,3.44-.08,.2-.14,.4-.21,.59-.29,.84-.51,1.46-1,1.8-1.16,0-4.14-1.15-10.06-3.51l-1.69-.67c-3.25-1.28-5.65-2.23-6.32-2.83,.08-.73,.41-1.55,.82-2.57,.3-.75,1-1.82,1.63-2.77,.59-.89,1.09-1.66,1.32-2.22l.11-.27-.1-.27c-.34-.88-1.01-1.37-2.25-1.65-.03,0-.06-.02-.13-.04-.3-.1-.75-.25-1.22-.22-.15,.01-.26,.03-.33,.06-.5,.06-.99,.33-2.93,5.85-.09,.27-.25,.65-.45,1.1-.75,1.78-1.69,3.99-1.11,5.34,1.03,1.64,4.63,2.94,9.19,4.58l.16,.06c.57,.21,1.16,.42,1.74,.63,1.64,.6,3.33,1.31,4.97,2,3.35,1.41,6.25,2.62,7.78,2.52h.04l.25-.07,.11-.05c1.71-1.07,2.3-2.58,3-4.38,.18-.45,.36-.94,.59-1.45,.11-.26,.25-.56,.42-.9,.72-1.51,1.71-3.58,1.39-5.15l-.12-.27Z"/><path class="cls-2" d="M85.83,115.54l-.33-.17c-2.64-1.35-7.26-3.91-11.57-6.66-4.09-2.58-6.28-4.17-9.95-6.98l-.23-.17-.29,.03c-.96,.09-1.46,.54-2.16,1.91-.51,1.01-.92,1.9-.76,2.59l.07,.32,.28,.16c.33,.19,.72,.34,1.17,.53,.41,.17,.84,.34,1.25,.56,1.31,.69,2.46,1.35,2.97,1.67-.08,.52-.33,1.16-1.05,2.3-.52,.82-.92,1.38-1.55,2.01-.56-.37-1.01-.69-1.53-1.06l-.6-.43c-.53-.37-1.03-.76-1.52-1.15-.47-.37-.91-.71-1.32-.99l-.22-.15-.26,.03c-.96,.09-1.46,.52-2.14,1.86-.05,.1-.11,.21-.21,.38-.36,.66-.74,1.34-.58,2.01l.07,.32,.29,.16c.43,.24,.97,.53,1.62,.89,2.33,1.27,5.85,3.19,9.01,5.18,3.74,2.36,6.73,4.47,9.65,6.53l1.59,1.12,.29-.04c1.13-.16,1.59-.9,1.99-1.54l.25-.4c.36-.54,.76-1.16,.59-2.17l-.06-.36-1.11-.56c-2.79-1.42-6.56-3.3-10.33-6-.24-.16-.29-.19-.56-.35-.29-.17-.06-.03-.22-.15,.09-.39,.78-1.51,1.08-2l.07-.11c.12-.19,.24-.38,.35-.57,.58-.99,1.04-1.56,1.37-1.72,.77,.44,.5,.24,1.66,.97,3.13,1.94,5.48,3.6,7.97,5.37l1.89,1.33,.29-.04c1.13-.16,1.59-.9,1.99-1.54l.25-.4c.36-.54,.76-1.16,.59-2.17l-.06-.36Z"/><path class="cls-2" d="M80.24,99.48c-3.88-2.88-5.95-4.63-9.39-7.71l-.21-.19h-.29c-.94,.03-1.5,.43-2.27,1.7-.07,.12-.15,.24-.24,.37-.41,.63-.83,1.28-.73,1.96l.05,.32,.27,.18c.4,.26,.88,.58,1.43,.93l.12,.08c2.23,1.44,5.59,3.62,8.59,5.84,3.55,2.63,6.38,4.97,9.11,7.22l1.53,1.26,.37-.03c1.09-.1,1.58-.78,2.01-1.38l.28-.38c.4-.51,.85-1.1,.75-2.12l-.03-.37-.31-.19c-2.53-1.54-6.93-4.44-11.03-7.52Z"/><path class="cls-2" d="M103.6,92.84c-.49-.42-1.05-.89-2.01-.86l-.2,.05c-.5,.21-.84,.78-1.5,1.97-.52,.93-1.18,2.1-1.94,2.93-.14,.16-.28,.32-.41,.47-.57,.66-.98,1.15-1.59,1.31-1.08-.41-3.43-2.59-8.08-6.95l-1.33-1.24c-2.55-2.38-4.44-4.14-4.84-4.94,.34-.65,.95-1.29,1.7-2.09,.56-.59,1.6-1.33,2.52-1.97,.88-.62,1.63-1.15,2.05-1.59l.2-.21v-.29c0-.94-.44-1.65-1.48-2.36l-.11-.09c-.32-.27-.85-.71-1.4-.71h-.22c-.38,.02-.91,.06-4.64,4.37-.18,.21-.46,.5-.82,.86-1.35,1.38-3.04,3.09-2.99,4.57,.36,1.9,3.23,4.43,6.87,7.63,.5,.44,1.01,.89,1.52,1.34,1.29,1.15,2.6,2.42,3.9,3.69,2.75,2.68,4.93,4.8,6.39,5.21l.16,.04,.17-.03c1.99-.37,3.08-1.56,4.36-2.95,.34-.37,.7-.76,1.11-1.17,.2-.2,.45-.44,.73-.69,1.22-1.14,2.9-2.7,3.19-4.35v-.15l-.02-.08c-.19-.76-.74-1.24-1.29-1.7Z"/><path class="cls-2" d="M111.67,71.56l-.19-.25c-3.98-5.27-6.51-8.46-8.19-8.38-.19,0-.37,.06-.54,.15-.75,.4-5.76,3.72-6.57,4.46-.8,.71-.76,1.43-.7,2.24l.03,.15c.63,1.74,3.26,7.7,6.05,12.14,5.33,8.4,6.75,9.85,7.77,9.81h.1c.91-.14,2.78-1.1,3.77-2.49l.24-.34-.17-.38c-.2-.45-.63-.85-1.14-1.3-.28-.25-.62-.56-.92-.89-.3-.34-.7-.75-1.15-1.23-1.5-1.57-2.65-2.47-4.26-4.99-.05-.08-.09-.16-.14-.26,.47-.54,1.48-.92,2.43-1.22,1.22-.38,2.23-.43,2.91-.15,.38,.15,.65,.61,1.22,1.43l.25,.36c.7,.99,1.29,2.39,1.81,3.61,.82,1.92,1.36,3.19,2.42,3.14h.08c1.11-.29,2.29-1.1,2.99-2.09,.26-.37,1.06-1.49-7.08-12.15-.33-.43-.68-.89-1.03-1.36Zm-3.23,2.3c-.7,0-1.57,.26-2.76,.8-.29,.13-.55,.26-.8,.37-1.24,.59-1.96,.93-2.64,.62-.83-.96-.95-1.24-1.18-1.74-.08-.17-.16-.36-.28-.59-.47-.96-1.33-2.73-1.19-3.5,.36-.46,.71-.68,1.19-.99,.14-.09,.28-.18,.44-.28,.23-.15,.43-.31,.62-.45,.42-.32,.76-.58,1.25-.72,.61,.31,1.38,1.32,2.13,2.29,.26,.34,.53,.69,.79,1.02l.08,.1c.81,1.01,1.78,2.2,2.33,3.06Z"/><path class="cls-2" d="M130.62,63.01c-2.28-4.27-3.39-6.73-5.19-10.99l-.11-.27-.26-.12c-.25-.11-.55-.23-.94-.22-.5,.02-1.03,.24-1.84,.78-.11,.07-.25,.15-.42,.26-.73,.44-1.49,.9-1.68,1.55l-.09,.28,.13,.26c.37,.74,.78,1.25,1.15,1.7,.23,.28,.44,.54,.62,.84,.21,.33,.47,.69,.74,1.07,.17,.24,.38,.53,.57,.82-.49-.15-1.06-.37-1.62-.59-.4-.16-.8-.31-1.19-.45-.79-.28-1.48-.59-2.18-.91-.64-.29-1.25-.57-1.89-.79-.25-.11-.55-.23-.94-.22-.5,.02-1.03,.24-1.84,.78-.12,.08-.24,.15-.37,.23-.64,.39-1.3,.8-1.5,1.46l-.1,.31,.17,.28c.26,.43,.59,.96,.97,1.58,1.4,2.26,3.5,5.68,5.26,8.96,2.08,3.9,3.63,7.22,5.14,10.44l.83,1.77,.27,.11c.33,.13,.64,.19,.96,.17,.59-.02,1.07-.28,1.53-.53l.42-.22c.58-.3,1.24-.63,1.59-1.59l.13-.35-.2-.31c-1.61-2.47-4.33-6.98-6.75-11.52l-.05-.1c-1.17-2.19-2.04-3.83-2.99-5.73,1.01,.26,2.45,.78,3.16,1.04l.66,.23c1.45,.51,2.71,.95,3.69,1.81,.16,.26,.29,.48,.42,.69,.19,.31,.36,.58,.58,.98,1.66,2.89,2.76,5.31,3.96,7.92,.37,.82,.75,1.65,1.16,2.51l.12,.26,.27,.11c.3,.12,.61,.17,.92,.16,.58-.02,1.1-.26,1.56-.51l.42-.22c.58-.3,1.24-.63,1.59-1.59l.13-.35-.2-.31c-1.62-2.47-4.36-6.97-6.75-11.52Z"/><path class="cls-2" d="M151.44,54.19c-2.41-7.24-3.74-10.64-5.5-10.61h-.15c-.84,.16-6.65,1.7-7.65,2.14-.98,.42-1.17,1.11-1.38,1.9v.15c.03,1.85,.62,8.34,1.85,13.44,2.42,9.85,3.29,11.6,4.33,11.8,.17,.03,.37,.04,.61,.04,1.04-.02,2.66-.4,3.75-1.19l.34-.24-.04-.41c-.04-.49-.33-1-.66-1.6-.19-.35-.41-.74-.58-1.13-.17-.41-.41-.91-.7-1.53-.92-1.96-1.84-3.48-2.56-6.38-.02-.09-.04-.18-.05-.29,.54-.32,1.43-.37,2.08-.39,.21,0,.42,0,.61,0,1.28,.03,2.25,.3,2.81,.79,.31,.26,.54,1.08,.82,2.04l.12,.42c.34,1.16,.46,2.67,.56,4.01,.16,2.09,.27,3.46,1.37,3.77,1.16,.09,2.51-.3,3.5-1.02,.98-.72,.03-5.35-2.83-13.77-.2-.6-.42-1.25-.64-1.92Zm-3.69,1.45c-.67-.22-1.52-.26-2.87-.13-.31,.03-.61,.07-.88,.1-.55,.06-1.03,.12-1.42,.13-.61,.01-.97-.1-1.28-.38-.48-1.17-.51-1.48-.56-2.03-.02-.18-.04-.39-.07-.65-.14-1.06-.39-3.01-.01-3.7,.48-.32,.89-.42,1.45-.55,.16-.04,.33-.08,.5-.13,.27-.07,.51-.15,.74-.23,.49-.17,.9-.31,1.41-.28,.48,.49,.89,1.69,1.29,2.85,.14,.41,.28,.82,.43,1.22l.04,.1c.45,1.22,.99,2.68,1.25,3.67Z"/><path class="cls-2" d="M182.57,52.68c-.1-1.58-.13-3.11-.15-4.66-.06-3.93-.1-7.03-1.75-8.06-.55-.32-1.39-.47-2.56-.46-1.06,0-2.22,.15-3.08,.25l-.62,.07c-.29,.03-.7,.05-1.19,.07-1.93,.08-4.33,.18-5.3,1.3-.96,1.51-.59,4.84-.12,9.14,.11,1.02,.23,2.07,.33,3.13,.18,1.9,.24,3.92,.29,5.86,.11,3.59,.19,6.43,.95,7.67l.23,.24c1.29,.82,2.5,.93,3.5,.92,.53,0,1.09-.05,1.71-.09,.49-.04,1.02-.08,1.6-.1h.15c1.63-.07,4.66-.18,6.2-1.36,1.17-1.11,.87-3.72,.38-8.06-.2-1.76-.43-3.75-.56-5.86Zm-4.04,10.81c-.74,.45-1.32,.48-2.25,.54l-.3,.02c-.98,.06-1.73,.12-2.52-.34-.51-1.03-.74-4.23-1.16-10.6l-.12-1.82c-.24-3.47-.41-6.04-.16-6.9,.5-.17,1.12-.22,1.86-.29,.27-.02,.55-.05,.85-.08,.86-.1,1.63-.06,2.56,.04,.18,.58,.33,2.4,.52,4.63,.09,1.1,.2,2.4,.34,3.96,.58,6.28,.57,10.05,.37,10.85Z"/><path class="cls-2" d="M212.35,63.51c-.13-1.03-.12-1.9,.28-3.8l.13-.65-.64-.19c-1.3-.4-3.12,1.82-3.48,4.2-.08,.51-.07,.93-.07,1.28,0,.37,0,.55-.05,.65-.69,0-1.54-.1-2.37-.29l-.43-.09c-.97-.21-1.68-.36-2.18-.86-.13-.85,.32-2.86,1.12-6.45,.25-1.1,.53-2.37,.85-3.82,.91-4.18,2.33-8.24,3.01-10.2,.23-.65,.38-1.1,.44-1.3l.13-.49-.41-.29c-.12-.08-.2-.16-.29-.24-.43-.38-.76-.59-1.93-.79-1.29-.22-1.52-.16-2.05-.03l-.73,.16-.16,.27c-.38,.62-.69,2.48-1.23,5.99v.1c-.3,1.85-.63,3.94-1,5.92-.41,2.17-1.05,4.66-1.62,6.85-1.01,3.93-1.49,5.86-1.24,6.71l.06,.2,.16,.14c1.16,1.04,2.84,1.38,4.83,1.79,.62,.13,1.27,.26,1.93,.42,.2,.05,.43,.11,.72,.19,1.21,.32,2.87,.77,4.26,.73,.53-.01,.99-.1,1.45-.28l.17-.12c1.56-1.5,1.2-2.61,.82-3.79-.17-.53-.37-1.13-.46-1.92Z"/><path class="cls-2" d="M236,47.99c-.78-.35-6.47-2.28-7.55-2.46-1-.18-1.6,.29-2.19,.82l-.1,.12c-.99,1.56-4.09,7.3-5.88,12.23-3.44,9.54-3.68,11.48-2.92,12.22,.65,.62,2.54,1.5,4.27,1.46l.42-.02,.2-.37c.23-.43,.28-1.01,.33-1.69,.03-.4,.06-.85,.14-1.27,.08-.45,.17-1.01,.26-1.67,.32-2.14,.41-3.62,1.41-6.44,.03-.09,.07-.17,.12-.27,.72,.03,1.64,.62,2.45,1.17,1.05,.74,1.71,1.5,1.91,2.21,.12,.39-.15,.9-.45,1.85l-.13,.42c-.36,1.15-1.09,2.47-1.75,3.65-1.02,1.83-1.69,3.03-.94,3.9,.88,.69,2.22,1.12,3.41,1.09h.07c.45-.02,1.83-.08,5.26-13.04,.15-.58,.32-1.2,.49-1.84l.03-.1c2.05-7.56,2.83-11.2,1.16-11.96Zm-10.25,7.32c.25-1.24,.39-1.51,.65-2,.09-.16,.18-.34,.29-.58,.47-.96,1.34-2.73,2.04-3.09,.58,0,.97,.14,1.51,.34,.15,.06,.32,.11,.49,.17,.26,.09,.51,.15,.74,.21,.51,.13,.92,.24,1.33,.55,.13,.67-.19,1.9-.51,3.09-.11,.42-.22,.84-.32,1.25l-.03,.13c-.3,1.26-.66,2.76-.99,3.72-.44-.56-1.18-1.09-2.32-1.69-.28-.15-.54-.28-.79-.4-1.36-.69-1.94-1.01-2.11-1.7Z"/><path class="cls-2" d="M251.07,60.44c.29,.12,.69,.36,.95,.53,.21,.13,.39,.24,.55,.32,.83,.44,1.14,.94,1.38,1.35,.23,.38,.55,.91,1.31,.91h.01l.22-.04,.1-.03c.83-.4,1.05-.82,1.27-1.23,.04-.08,.09-.17,.15-.26l.05-.09c.26-.43,.57-.96,.39-1.8-.18-.69-.91-1.1-3.42-2.43-.87-.46-1.9-1-3.07-1.66-1.91-1.08-3.25-1.96-4.24-2.61-1.21-.8-1.87-1.23-2.59-1.32l-.23,.03c-.73,.22-1.03,.68-1.26,1.06l-.13,.2c-.33,.5-.6,.94-.8,1.66l-.07,.28,.14,.26c.37,.67,1,.8,1.63,.93,.44,.09,.9,.19,1.45,.46,.22,.11,.48,.22,.74,.34,.31,.13,.99,.43,1.22,.64-1.65,3.29-2.66,5.24-4.55,8.5-2.12,3.63-4.07,6.56-5.97,9.4l-1.36,2.05,.05,.29c.19,1.13,.94,1.56,1.59,1.94l.41,.24c.47,.29,.95,.59,1.67,.58,.16,0,.33-.02,.51-.05l.36-.07,.16-.33c1.37-2.88,3.92-7.61,6.33-11.75,1.97-3.33,3.04-5.08,5.07-8.28Z"/><path class="cls-2" d="M266.13,67.46l.19-.21v-.29c-.02-.96-.42-1.49-1.7-2.28-.12-.07-.24-.15-.37-.23-.7-.46-1.36-.83-1.97-.74l-.32,.05-.18,.27c-.22,.33-.48,.73-.76,1.17l-.23,.35c-1.45,2.23-3.64,5.61-5.87,8.61-2.64,3.56-4.98,6.38-7.24,9.12l-1.25,1.51,.02,.29c.07,1.14,.77,1.65,1.38,2.1l.38,.29c.47,.36,1,.77,1.87,.77,.08,0,.16,0,.24-.01l.37-.03,.19-.31c1.55-2.53,4.45-6.93,7.52-11.02,2.88-3.87,4.63-5.94,7.71-9.39Z"/><path class="cls-2" d="M283.35,84.19l.22-.19,.03-.29c.11-.95-.22-1.53-1.39-2.47-.11-.09-.24-.2-.38-.32-.63-.54-1.27-1.1-2-1.12h-.29l-.21,.21c-.59,.58-.95,1.13-1.26,1.62-.2,.3-.38,.59-.61,.86-.24,.3-.51,.66-.78,1.02-.17,.24-.39,.53-.61,.81-.01-.52,.02-1.14,.06-1.72,.03-.43,.05-.86,.06-1.28,.02-.84,.1-1.59,.19-2.36,.08-.7,.15-1.37,.17-2.04,.11-.95-.22-1.53-1.39-2.47-.08-.07-.17-.14-.26-.21l-.07-.06c-.53-.45-1.12-.96-1.86-.98h-.33l-.22,.25c-.33,.38-.74,.86-1.22,1.43-1.71,2.02-4.3,5.08-6.88,7.75-3.07,3.19-5.75,5.69-8.34,8.12l-1.42,1.33-.02,.29c-.07,1.14,.55,1.73,1.1,2.25l.34,.33c.46,.46,.98,.98,2,1.02h.37l.23-.27c1.84-2.3,5.3-6.28,8.86-9.98,1.68-1.74,3.04-3.16,4.61-4.7,.04,.62,.04,1.65-.01,3.33l-.02,.7c-.03,1.54-.06,2.87-.58,4.07-.21,.23-.37,.43-.53,.62-.23,.28-.44,.52-.75,.85-2.25,2.48-4.2,4.28-6.28,6.19-.67,.62-1.35,1.24-2.06,1.9l-.21,.2-.02,.29c-.07,1.14,.55,1.73,1.1,2.26l.34,.33c.46,.46,.98,.98,2.01,1.02h.37l.23-.27c1.85-2.3,5.28-6.3,8.86-9.98,3.35-3.48,5.35-5.31,8.84-8.33Z"/><path class="cls-2" d="M287.54,109.25c.49-.41,1.01-.84,1.55-1.29,6.02-5,8.76-7.53,7.83-9.11-.44-.73-3.98-5.59-4.76-6.36-.37-.38-.78-.58-1.31-.63-.32-.03-.65,0-.96,.03l-.15,.04c-1.71,.71-7.55,3.62-11.85,6.61-8.3,5.82-9.62,7.27-9.42,8.31,.18,.91,1.22,2.72,2.65,3.65l.35,.23,.37-.18c.44-.22,.82-.67,1.26-1.21,.25-.3,.53-.64,.83-.94,.32-.32,.72-.73,1.18-1.22,1.49-1.57,2.31-2.84,4.74-4.57,.08-.06,.16-.1,.25-.15,.56,.44,.99,1.43,1.34,2.37,.43,1.21,.53,2.21,.29,2.9-.13,.39-.56,.78-1.35,1.39l-.34,.26c-.96,.74-2.32,1.4-3.53,1.98-1.88,.91-3.13,1.51-3.01,2.64,.33,1.1,1.2,2.23,2.22,2.89,.13,.08,.27,.13,.43,.15,1.75,.17,9.15-5.91,11.37-7.78Zm5.08-9.85c-.28,.63-1.25,1.44-2.19,2.23-.33,.28-.67,.56-.98,.84l-.1,.08c-.97,.86-2.13,1.88-2.95,2.48-.04-.71-.34-1.57-.92-2.72-.14-.28-.28-.54-.41-.78-.71-1.35-1.01-1.95-.75-2.6,.92-.87,1.19-1.01,1.69-1.26,.16-.08,.35-.18,.57-.3,.99-.54,2.66-1.43,3.44-1.35,.48,.34,.71,.68,1.04,1.15,.09,.13,.19,.28,.3,.42,.16,.22,.33,.42,.48,.6,.34,.4,.61,.73,.77,1.22Z"/><path class="cls-2" d="M310.81,129.77l-.18-.6c-.08-.28-.17-.68-.28-1.15-.42-1.88-.95-4.23-2.21-4.99-1.63-.66-5.16,.36-8.94,1.48-1,.3-2.04,.6-3.09,.9-1.84,.51-3.81,.93-5.72,1.33-3.52,.74-6.29,1.32-7.39,2.29l-.19,.27c-.77,1.87-.36,3.43,.1,5.25l.02,.08c.12,.47,.25,.96,.36,1.5l.03,.15c.35,1.59,1,4.55,2.43,5.86,.22,.17,.5,.29,.82,.35,1.44,.31,3.85-.41,7.23-1.42,1.68-.5,3.59-1.07,5.62-1.58,1.56-.39,3.08-.69,4.56-.97,3.86-.75,6.9-1.35,7.62-3.15,.49-1.38-.25-3.81-.79-5.59Zm-3.83,3c-.54,.28-2.3,.75-4.46,1.33l-.23,.06c-1.02,.27-2.21,.59-3.61,.98-5.72,1.59-9.58,2.33-10.62,2.27-.57-.64-.7-1.2-.91-2.1l-.07-.3c-.28-1.15-.38-1.79-.11-2.54,.93-.68,4.03-1.48,10.23-3.02l1.83-.46c3.44-.87,5.78-1.45,6.71-1.36,.25,.46,.41,1.06,.62,1.79,.07,.26,.14,.52,.23,.81,.29,.94,.34,1.57,.41,2.53Z"/></g><path class="cls-2" d="M51.01,160.65c0-3.43,2.78-6.21,6.21-6.21s6.21,2.78,6.21,6.21-2.78,6.21-6.21,6.21-6.21-2.78-6.21-6.21h0Z"/><path class="cls-2" d="M294.34,161.43c0-3.43,2.78-6.21,6.21-6.21s6.21,2.78,6.21,6.21-2.78,6.21-6.21,6.21-6.21-2.78-6.21-6.21h0Z"/><g><path class="cls-2" d="M85.51,133.79c.28-.57,.57-1.14,.87-1.7-12.75,24.29-15.9,53.57-6.38,81.6,.04,.11,.08,.23,.12,.34-8.92-26.59-7.02-55.07,5.39-80.24Z"/><path class="cls-2" d="M280.08,146.53c-9.06-26.69-27.98-48.26-53.26-60.72-25.28-12.47-53.91-14.34-80.6-5.28-26.09,8.86-47.27,27.13-59.86,51.56-.29,.57-.58,1.13-.87,1.7-12.41,25.17-14.32,53.65-5.39,80.24,.04,.12,.08,.24,.12,.36,9.06,26.69,27.98,48.26,53.26,60.72,25.28,12.47,53.91,14.34,80.6,5.28,26.69-9.06,48.26-27.98,60.72-53.26,12.47-25.28,14.34-53.91,5.28-80.6Zm-4.6,61.15l-16.66,9.42,3.33,18.85-18.76,3.81-2.65,18.96-19.02-2.17-8.38,17.21-17.41-7.95-13.29,13.78-14.11-12.94-16.9,9-9.42-16.66-18.85,3.33-3.81-18.76-18.96-2.65,2.18-19.02-17.21-8.38,7.95-17.41-13.78-13.29,12.94-14.11-9-16.9,16.67-9.42-3.34-18.85,18.76-3.81,2.65-18.96,19.02,2.18,8.38-17.21,17.42,7.95,13.29-13.78,14.11,12.94,16.9-9,9.42,16.67,18.85-3.34,3.81,18.76,18.96,2.65-2.17,19.02,17.21,8.38-7.95,17.42,13.78,13.29-12.94,14.11,9,16.89Z"/></g></g><path class="cls-2" d="M219.69,212.61c-.46-.22-.89-.42-1.31-.61-.91-.41-1.74-.76-2.44-1.03,.08-.75,4.49-12.38,4.45-26.6-.02-6.63-1.16-16.54-3.87-25.98-.08-.29-.18-.58-.26-.87-.58-1.95-1.23-3.87-1.95-5.73l-.06-.15c-.48-1.22-.97-2.43-1.51-3.58,3.3-2.16,14.54-11.26,15.78-12.4,5.47-5.06-4.2-15.38-9.51-14.86-5.42,.53-18.06,13.46-18.31,13.53-4.54-3.3-11.6-7-16.02-7.27,.07-1.63,.37-1.59,1.87-2.24,1.09-.47,8.23-4.09,4.83-11.85-.59-1.35-13.01-20.84-14.8-20.84-2.51,0-13.94,22.04-14.03,22.28-2.43,6.8,4.39,10.68,5.47,10.92,2.2,.49,1.64,2.01,1.64,2.01,0,0-3.46,.99-4.64,1.61-2.71,1.42-8.13,5.1-9.48,6.18-1.87-1.4-9.36-8.33-12.56-11.25-1.87-1.71-4.49-3.98-7.37-4.01-3.55,0-9.97,4.95-10.03,9.83-.03,2.19,.74,3.68,1.68,4.8,3.38,4.03,14.22,13.86,15.56,15.22-.09,.25-.57,1.47-1.02,2.77-.08,.22-.15,.44-.23,.66-.23,.7-.44,1.39-.54,1.91-.32,1.12-.61,2.19-.88,3.23-.08,.29-.16,.59-.23,.88-3.41,13.2-3.58,21.35-3.19,28.9,.6,11.5,6.28,26.45,7.86,30.54,.19,.5,.32,.84,.38,.99-.03,.02-.2,.12-.49,.28-2.73,1.53-15.94,8.88-15.35,15.65,.25,2.84,5.01,10.4,10.25,10.37,3.83-.03,17.61-11.08,19.94-13.12,0,0,6.47,4.47,12.88,5.77,6.48,1.31,6.27,10.06,3.12,13.2-4.69,4.69-12.05,.49-5.49-5.59,1.29-1.2-5.7,1.46-5.54,6.08,.46,12.99,22.06,9.36,25.37-4.36,.91-3.75,.68-10.35,3.84-11.66,5.96-2.47,12.03-7.64,12.67-8.41,.98,.37,14.41,7.32,20.17,8.63,3.99,.91,10.2-6.62,9.85-10.99-.32-4.01-9.87-9.73-16.47-12.88Zm-42.94-110.93c3.44,.04,6.76,3.27,7.97,7.41l-15.62-.06c1.32-4.07,4.35-7.39,7.65-7.35Zm-8.33,11.98h4.27c-.04,.14-.43,5.02,4.29,5.02,4.24,0,4.2-4.85,4.19-4.96h4.01c-.26,5.21-1.99,9.66-8.21,9.58-6.09-.08-8.48-4.22-8.56-9.64Zm37.46,98.99c-6.28,11.63-16.59,17.79-25.08,17.69-10.84-.14-22.46-6.14-27.19-13.94-5.58-9.2-8.42-30.08-7.92-35.49,1.67-14.5,.16-24.19,9.05-35.83,1.36-1.78,13.88-12.09,23.27-11.78,6.86,.23,21.01,5.81,24.54,12.26,3.8,6.93,5.01,10.48,7.08,17.97,2.19,7.73,3.32,35.98-3.76,49.11Z"/><path class="cls-2" d="M205.33,178.88l.05-4.43h-3.42l.06-4.5-3.46,.31c-.38-3.57-.86-6.98-1.44-8.61-.71-2.02-1.6-6.46-5.8-9.6l.52-4.34-4.5-.07,.03-3.87-3.92-.31,.04-3.21-4.09-.05-3.57-.05v3.06l-4.43-.05v3.42l-4.5-.06,.5,5.65c-3.47,2.84-5.21,6.54-5.86,7.72-1.55,2.81-2.3,6.24-2.65,9.76l-2.25-.27-.07,4.5-3.87-.03-.31,3.92-3.21-.04-.05,4.09-.05,3.57h3.06l-.05,4.43h3.42l-.06,4.5,4.21-.37c1.39,6.9,4.07,12.17,4.07,12.17,.89,1.45,1.88,2.9,3.04,4.24l-.76,6.3,4.5,.07-.03,3.87,3.92,.31-.04,3.21,4.09,.05,3.57,.05v-3.06l4.43,.05v-3.42l4.5,.06-.4-4.53c4.45-2.92,6.7-7.66,6.96-12.42,.09-1.74,.35-3.96,.66-6.32l2.65,.32,.07-4.5,3.87,.03,.31-3.92,3.21,.04,.05-4.09,.05-3.57h-3.06Zm-14.5-20.81c2.27,.03,4.09,2.21,4.06,4.48-.03,2.27-2,3.98-4.27,3.96-2.27-.03-4.62-2.01-4.59-4.28,.03-2.27,2.53-4.19,4.8-4.16Zm-22.69,1.17c2.27,.03,4.09,2.21,4.06,4.48-.03,2.27-2,3.98-4.27,3.96-2.27-.03-4.62-2.01-4.59-4.28,.03-2.27,2.53-4.19,4.8-4.16Zm-.1,43.93c-2.27-.03-4.62-2.01-4.59-4.28,.03-2.27,2.53-4.19,4.8-4.16,2.27,.03,4.09,2.21,4.06,4.48-.03,2.27-2,3.98-4.27,3.96Zm22.73,.76c-2.27-.03-4.62-2.01-4.59-4.28,.03-2.27,2.53-4.19,4.8-4.16,2.27,.03,4.09,2.21,4.06,4.48-.03,2.27-2,3.98-4.27,3.96Zm-7.84-17.4c-.04,12.49,.28,22.28-4.11,22.05-5.22-.27-3.91-9.68-3.52-22.18-12.39-.1-18.92,.07-18.75-3.12,.24-4.65,6.29-3.54,18.85-3.22-.04-13.01-1.28-23.77,3.3-23.82,5.41-.06,4.58,10.82,4.31,23.91,11.57,.05,18.6-.1,18.39,2.94-.31,4.43-6.84,3.77-18.46,3.44Z"/></svg>