<?xml version="1.0" encoding="UTF-8"?><svg id="Layer_1" xmlns="http://www.w3.org/2000/svg" viewBox="0 0 360 360"><defs><style>.cls-1{fill:#c33;}.cls-2{fill:#231f20;}</style></defs><g><path class="cls-1" d="M113.18,146.47c-6.89,1.98-9.67-.24-13.49,2.4,1.11,6.04,11.21,.41,13.49-2.4Z"/><path class="cls-1" d="M256.27,147.79c-3.81-2.64-6.6-.42-13.49-2.4,2.28,2.81,12.37,8.44,13.49,2.4Z"/><path class="cls-1" d="M278.78,191.84l14.79-16.13-15.75-15.19,9.08-19.91-19.67-9.58,2.49-21.74-21.67-3.03-4.35-21.45-21.55,3.81-10.77-19.05-19.31,10.29-16.13-14.79-15.19,15.75-19.91-9.09-9.58,19.67-21.74-2.49-3.03,21.67-21.44,4.35,3.81,21.55-19.05,10.76,10.29,19.31-14.79,16.13,15.75,15.19-9.08,19.91,19.67,9.58-2.49,21.74,21.67,3.03,4.35,21.44,21.55-3.81,10.76,19.05,19.31-10.28,16.13,14.79,15.19-15.75,19.91,9.08,9.58-19.67,21.74,2.48,3.03-21.67,21.44-4.35-3.81-21.55,19.05-10.77-10.28-19.31Zm-151.01,25.69c-2.4-2.29-6.89-7.82-6.89-7.82l.73,7.11c-7.21-3.29-11.61-10.45-11.61-10.45l.58,5.03c-21.13-17.37-40.25-43.1-11.42-41.8,5.66,.26,9.49-.45,9.29-2.47-10.59-1.72-19.98-16.16-26.56-6.87,3.48-10.49,6.58-13.35,16.14-14.42h1.3c3.68-4.48,10.73-5.19,16.37-5.18,2.45-.06,8.77,1.01,11.47,.33-.84,1.06-7.05,5.4-8.07,5.91,.61,.26,8.13,.58,11.98,1.06-.75,1.54-5.9,3.37-6.93,3.39,.63,.88,2.64,2.08,4.86,3.3-.09,.34-.18,.68-.27,1.01-3.9,15.09-4.1,24.4-3.65,33.03,.68,13.14,6.58,28.66,8.38,33.35-2.05-1.55-4.59-3.46-5.72-4.53Zm48.36-127.48c3.94,.05,7.72,3.74,9.11,8.47l-17.85-.07c1.51-4.65,4.97-8.45,8.74-8.4Zm-4.64,13.71c-.04,.14-.49,5.72,4.91,5.72,4.85,0,4.81-5.54,4.79-5.67l4.58,.02c-.3,5.94-2.27,11.03-9.38,10.94-6.96-.09-9.69-4.82-9.78-11.02l4.88,.02Zm37.9,113.45c-7.17,13.3-18.96,20.34-28.67,20.22-12.39-.16-25.68-7.01-31.08-15.93-6.37-10.52-9.62-34.38-9.05-40.57,1.91-16.57,.19-27.65,10.35-40.95,1.55-2.03,15.87-13.82,26.6-13.46,7.84,.26,24.01,6.65,28.05,14.02,4.34,7.92,5.73,11.98,8.1,20.54,2.5,8.84,3.79,41.13-4.3,56.14Zm38.14-51.15c-.2,2.02,3.63,2.72,9.29,2.47,28.83-1.3,9.71,24.42-11.42,41.8l.58-5.03s-4.4,7.16-11.61,10.45l.73-7.11s-2.76,3.03-5.43,6.11c-1.04-.47-1.99-.87-2.79-1.18,.1-.86,4.52-12.83,4.46-29.09-.02-7.57-1.33-18.91-4.43-29.7-.1-.33-.2-.66-.3-.99,2.36-1.3,4.55-2.57,5.21-3.5-1.22-.02-5.76-2.16-7.45-3.06-.02-.06-.04-.11-.07-.17,3.54-.53,11.91-.95,12.57-1.22-1.02-.51-7.62-4.95-8.46-6.01,2.7,.67,9.41-.28,11.86-.23,5.65-.02,12.69,.69,16.37,5.18h1.3c9.57,1.06,12.66,3.93,16.14,14.42-6.58-9.29-15.97,5.15-26.56,6.87Z"/></g><g><path class="cls-2" d="M71.88,126.66c.32-.65,.66-1.3,.99-1.95-14.57,27.77-18.17,61.23-7.29,93.27,.04,.13,.09,.26,.14,.39-10.2-30.39-8.02-62.95,6.17-91.71Z"/><path class="cls-2" d="M294.29,141.22c-10.36-30.51-31.98-55.16-60.88-69.41-28.9-14.25-61.62-16.39-92.13-6.03-29.82,10.12-54.03,31.01-68.42,58.93-.33,.65-.67,1.29-.99,1.95-14.18,28.77-16.37,61.32-6.17,91.71,.05,.14,.09,.28,.13,.41,10.36,30.51,31.98,55.16,60.88,69.41,28.9,14.25,61.62,16.39,92.13,6.03,30.51-10.36,55.16-31.98,69.41-60.88,14.25-28.9,16.39-61.62,6.03-92.13Zm-5.26,69.9l-19.05,10.77,3.81,21.55-21.44,4.35-3.03,21.67-21.74-2.48-9.58,19.67-19.91-9.08-15.19,15.75-16.13-14.79-19.31,10.28-10.76-19.05-21.55,3.81-4.35-21.44-21.67-3.03,2.49-21.74-19.67-9.58,9.08-19.91-15.75-15.19,14.79-16.13-10.29-19.31,19.05-10.76-3.81-21.55,21.44-4.35,3.03-21.67,21.74,2.49,9.58-19.67,19.91,9.09,15.19-15.75,16.13,14.79,19.31-10.29,10.77,19.05,21.55-3.81,4.35,21.45,21.67,3.03-2.49,21.74,19.67,9.58-9.08,19.91,15.75,15.19-14.79,16.13,10.28,19.31Z"/></g><path class="cls-2" d="M225.25,216.75c-.52-.25-1.02-.48-1.5-.7-1.04-.47-1.99-.87-2.79-1.18,.1-.86,5.14-14.15,5.08-30.4-.02-7.57-1.33-18.91-4.43-29.7-.1-.33-.2-.66-.3-.99-.66-2.23-1.41-4.42-2.23-6.55-.02-.06-.04-.11-.07-.17-.54-1.4-1.11-2.77-1.73-4.1,3.77-2.47,16.62-12.87,18.03-14.17,6.25-5.78-4.8-17.58-10.87-16.99-6.2,.61-20.64,15.39-20.93,15.47-5.19-3.77-13.26-8-18.31-8.32,.08-1.86,.43-1.82,2.14-2.56,1.24-.54,9.4-4.67,5.52-13.54-.68-1.55-14.88-23.82-16.91-23.82-2.87,0-15.94,25.19-16.04,25.47-2.78,7.77,5.02,12.2,6.26,12.48,2.52,.56,1.88,2.3,1.88,2.3,0,0-3.95,1.13-5.3,1.84-3.1,1.63-9.3,5.82-10.84,7.06-2.13-1.6-10.69-9.52-14.36-12.86-2.14-1.95-5.13-4.55-8.42-4.58-4.06,0-11.4,5.66-11.47,11.24-.03,2.5,.84,4.21,1.92,5.49,3.86,4.6,16.25,15.85,17.79,17.4-.1,.29-.65,1.68-1.17,3.17-.09,.25-.18,.51-.26,.76-.27,.8-.5,1.58-.62,2.18-.37,1.28-.69,2.5-1.01,3.7-.09,.34-.18,.68-.27,1.01-3.9,15.09-4.1,24.4-3.65,33.03,.68,13.14,7.18,30.23,8.98,34.91,.22,.57,.37,.96,.43,1.14-.03,.03-.23,.14-.56,.32-3.13,1.74-18.22,10.15-17.55,17.89,.28,3.25,5.72,11.89,11.71,11.85,4.38-.03,20.13-12.66,22.8-15,0,0,7.39,5.11,14.72,6.59,7.4,1.5,7.17,11.49,3.57,15.09-5.36,5.36-13.77,.56-6.27-6.39,1.48-1.37-6.52,1.67-6.33,6.95,.53,14.84,25.22,10.7,29-4.98,1.03-4.29,.78-11.83,4.39-13.32,6.81-2.82,13.75-8.74,14.48-9.61,1.12,.42,16.47,8.37,23.06,9.86,4.56,1.03,11.66-7.57,11.26-12.56-.37-4.58-11.28-11.12-18.83-14.72Zm-49.09-126.8c3.94,.05,7.72,3.74,9.11,8.47l-17.85-.07c1.51-4.65,4.97-8.45,8.74-8.4Zm-9.53,13.69l4.88,.02c-.04,.14-.49,5.72,4.91,5.72,4.85,0,4.81-5.54,4.79-5.67l4.58,.02c-.3,5.94-2.27,11.03-9.38,10.94-6.96-.09-9.69-4.82-9.78-11.02Zm42.82,113.16c-7.17,13.3-18.96,20.34-28.67,20.22-12.39-.16-25.68-7.01-31.08-15.93-6.37-10.52-9.62-34.38-9.05-40.57,1.91-16.57,.19-27.65,10.35-40.95,1.55-2.03,15.87-13.82,26.6-13.46,7.84,.26,24.01,6.65,28.05,14.02,4.34,7.92,5.73,11.98,8.1,20.54,2.5,8.84,3.79,41.13-4.3,56.14Z"/><path class="cls-2" d="M208.84,178.19l.06-5.06h-3.91l.07-5.14-3.95,.35c-.43-4.08-.99-7.97-1.65-9.84-.81-2.31-1.83-7.39-6.63-10.97l.6-4.96-5.14-.08,.04-4.42-4.48-.36,.05-3.66-4.68-.05-4.08-.06v3.5l-5.07-.06v3.91l-5.14-.07,.57,6.46c-3.96,3.25-5.95,7.48-6.69,8.82-1.77,3.22-2.63,7.13-3.02,11.16l-2.57-.31-.08,5.14-4.42-.04-.36,4.48-3.66-.05-.05,4.68-.06,4.08h3.5l-.06,5.07h3.91l-.07,5.14,4.81-.43c1.59,7.89,4.65,13.91,4.65,13.91,1.02,1.66,2.15,3.32,3.48,4.84l-.87,7.2,5.14,.08-.04,4.42,4.48,.36-.05,3.67,4.68,.05,4.08,.06v-3.5l5.07,.06v-3.91l5.14,.07-.46-5.18c5.08-3.34,7.66-8.76,7.95-14.19,.11-1.99,.4-4.53,.75-7.23l3.03,.37,.08-5.14,4.42,.04,.36-4.48,3.66,.05,.05-4.68,.06-4.08h-3.5Zm-16.58-23.78c2.6,.03,4.67,2.53,4.64,5.13-.03,2.6-2.28,4.55-4.88,4.52-2.6-.03-5.28-2.29-5.25-4.89,.03-2.6,2.89-4.79,5.49-4.76Zm-25.94,1.34c2.6,.03,4.67,2.53,4.64,5.13-.03,2.6-2.28,4.55-4.88,4.52-2.6-.03-5.28-2.29-5.25-4.89,.03-2.6,2.89-4.79,5.49-4.76Zm-.12,50.22c-2.6-.03-5.28-2.29-5.25-4.89,.03-2.6,2.89-4.79,5.49-4.76,2.6,.03,4.67,2.53,4.64,5.12-.03,2.6-2.28,4.55-4.88,4.52Zm25.99,.87c-2.6-.03-5.28-2.29-5.25-4.89,.03-2.6,2.89-4.79,5.49-4.76,2.6,.03,4.67,2.53,4.64,5.13-.03,2.6-2.28,4.55-4.88,4.52Zm-8.96-19.89c-.05,14.27,.32,25.47-4.7,25.21-5.96-.31-4.47-11.07-4.02-25.35-14.16-.11-21.62,.08-21.44-3.56,.27-5.31,7.19-4.04,21.54-3.68-.04-14.87-1.47-27.17,3.77-27.23,6.18-.07,5.23,12.36,4.93,27.33,13.22,.05,21.26-.12,21.02,3.36-.35,5.06-7.82,4.3-21.11,3.93Z"/></svg>