<?xml version="1.0" encoding="UTF-8"?><svg id="Layer_1" xmlns="http://www.w3.org/2000/svg" viewBox="0 0 360 360"><defs><style>.cls-1{fill:#009864;}.cls-2{fill:#fff;}.cls-3{fill:#73cde1;}</style></defs><path class="cls-2" d="M158.21,171.44h-19.86c-1.34,0-2.42,1.08-2.42,2.42v10.74c-4.37-4.95-10.73-7.41-15.87-8.93l-5.18-1.55c-3.69-1.19-7.31-2.58-7.31-5.16s3.66-4.12,6.3-4.12c4.12,0,8.36,1.64,11.95,4.63,.44,.37,.99,.56,1.55,.56,.16,0,.32-.02,.48-.05,.72-.15,1.33-.61,1.67-1.27l8.1-15.78c.59-1.15,.17-2.57-.96-3.21-7.23-4.1-17.32-6.75-25.69-6.75-17.32,0-29.41,11.79-29.41,28.68,0,1.52,.08,2.96,.24,4.31-3.41,2.3-7.49,3.6-11.39,3.6-11.18,0-18.7-7.56-18.7-18.8s7.73-19.22,18.39-19.22c6.4,0,12.33,2.85,15.86,7.61,.46,.63,1.19,.98,1.94,.98,.25,0,.51-.04,.76-.12,.99-.33,1.66-1.25,1.66-2.3v-24.32c0-.98-.59-1.86-1.49-2.23-6.7-2.77-13.06-4.12-19.45-4.12-11.54,0-23.29,4.99-31.44,13.36-7.85,8.07-12.17,18.81-12.17,30.25,0,12.78,4.48,23.31,13.32,31.29,8.58,7.81,19.56,12.11,30.91,12.11,6.51,0,11.61-1.57,18.07-3.56l.23-.07c-.36,.22-.65,.54-.86,.92l-8.72,16.4c-.57,1.08-.25,2.41,.75,3.11,8.61,6.04,18.88,9.37,28.9,9.37,9.29,0,17.74-2.82,23.78-7.94,1.43-1.21,2.69-2.59,3.78-4.11v32.07c0,1.34,1.08,2.42,2.42,2.42h19.86c1.34,0,2.42-1.08,2.42-2.42v-76.39c0-1.34-1.08-2.42-2.42-2.42Zm-43.12,31.26c0,5.32-6.68,5.47-7.44,5.47-5.33,0-10.72-2.45-16.47-7.5-.44-.39-1.01-.6-1.59-.6-.14,0-.29,.01-.43,.04h-.02c.73-.42,1.19-1.21,1.19-2.08v-7.57c3.88,2.55,8.78,4.11,14.17,5.64l.65,.18c3.72,1.05,9.95,2.81,9.95,6.42Z"/><g><g><path class="cls-3" d="M113.62,135.27v-2.03c-.26,.66-.78,1.19-1.48,1.42-.25,.08-.5,.12-.76,.12-.75,0-1.48-.35-1.94-.98-3.53-4.77-9.46-7.61-15.86-7.61-10.65,0-18.39,8.08-18.39,19.22s7.51,18.8,18.7,18.8c3.9,0,7.98-1.3,11.39-3.6-.16-1.35-.24-2.79-.24-4.31,0-8.64,3.17-15.94,8.58-21.02Z"/><path class="cls-3" d="M113.06,184.71c.58,0,1.15,.21,1.59,.6,5.75,5.05,11.14,7.5,16.47,7.5,.76,0,7.44-.15,7.44-5.47,0-3.61-6.23-5.37-9.95-6.42l-.65-.18c-5.39-1.53-10.29-3.09-14.17-5.64v7.57c0,.87-.46,1.66-1.19,2.08h.02c.14-.03,.29-.04,.43-.04Z"/><path class="cls-3" d="M184.1,176.13v58.76c0,1.34-1.08,2.42-2.42,2.42h-19.86c-1.34,0-2.42-1.08-2.42-2.42v-32.07c-1.09,1.52-2.35,2.9-3.78,4.11-6.04,5.12-14.49,7.94-23.78,7.94-10.02,0-20.29-3.33-28.9-9.37-1-.7-1.32-2.04-.75-3.11l8.72-16.4c.2-.38,.5-.69,.86-.92l-.23,.07c-6.46,1.99-11.57,3.56-18.07,3.56-11.35,0-22.33-4.3-30.91-12.11-8.84-7.99-13.32-18.52-13.32-31.29,0-1.45,.07-2.89,.21-4.31-3.18,9-4.92,18.69-4.92,28.8,0,47.48,38.18,85.95,85.28,85.95s81.78-35.08,85.02-79.58l-30.72-.03Z"/></g><path class="cls-1" d="M161.83,158.64v18.72c-.74-1.54-1.52-2.5-1.81-2.84-3.17-6.13-9.55-9.5-17.16-11.75l-5.19-1.56c-3.53-1.14-9.03-2.91-9.03-7.47s4.98-6.54,8.72-6.54c4.98,0,9.76,2.08,13.5,5.19l8.1-15.78c-6.96-3.94-16.61-6.44-24.5-6.44-15.68,0-26.99,10.38-26.99,26.27,0,2,.15,3.78,.44,5.39-.03,.03-.06,.06-.09,.08l-.24,.17c-3.93,2.94-8.8,4.69-13.67,4.69-12.63,0-21.11-8.9-21.11-21.22s8.38-21.64,20.8-21.64c6.94,0,13.66,3,17.8,8.59v-24.33c-6-2.48-12.01-3.93-18.53-3.93-10.97,0-22.05,4.76-29.71,12.63-7.45,7.66-11.49,17.91-11.49,28.57,0,11.59,3.93,21.74,12.52,29.5,8.07,7.35,18.42,11.49,29.29,11.49,6.31,0,11.18-1.55,17.91-3.62v-11.69l.02-1.24c3.66,4.45,9.67,6.51,17.23,8.66,4.36,1.24,12.35,3.22,12.35,8.93s-5.09,7.89-9.86,7.89c-6.95,0-12.98-3.64-18.06-8.1l-8.72,16.4c7.99,5.61,17.65,8.93,27.51,8.93,7.89,0,16.09-2.18,22.22-7.37,2.75-2.34,4.65-5.21,5.92-8.35,.75-1.35,1.36-2.65,1.84-3.89v42.04h19.86v-76.39h-19.86Zm-.7-50.05v2.02c0,.2-.16,.36-.36,.36h-5.36v2.71h5.19c.2,0,.36,.16,.36,.36v2.02c0,.2-.16,.36-.36,.36h-5.19v4.05h5.36c.2,0,.36,.16,.36,.36v2.02c0,.2-.16,.36-.36,.36h-7.88c-.2,0-.36-.16-.36-.36v-14.27c0-.2,.16-.36,.36-.36h7.88c.2,0,.36,.16,.36,.36Zm-9.8,0v2.02c0,.2-.16,.36-.36,.36h-2.91v11.89c0,.2-.16,.36-.36,.36h-2.15c-.2,0-.36-.16-.36-.36v-11.89h-2.92c-.2,0-.36-.16-.36-.36v-2.02c0-.2,.16-.36,.36-.36h8.71c.2,0,.36,.16,.36,.36Zm21.99,24.94v2.02c0,.2-.16,.36-.36,.36h-2.91v11.89c0,.2-.16,.36-.36,.36h-2.15c-.2,0-.36-.16-.36-.36v-11.89h-2.92c-.2,0-.36-.16-.36-.36v-2.02c0-.2,.16-.36,.36-.36h8.71c.2,0,.36,.16,.36,.36Zm40.26-1.22l9.79,10.24v-9.02c0-.2,.16-.36,.36-.36h2.15c.2,0,.36,.16,.36,.36v15.14c0,.15-.09,.28-.23,.34-.04,.02-.09,.03-.13,.03-.1,0-.19-.04-.26-.11l-9.79-10.21v9.09c0,.2-.16,.36-.36,.36h-2.15c-.2,0-.36-.16-.36-.36v-15.24c0-.15,.09-.28,.23-.34,.04-.02,.09-.03,.13-.03,.1,0,.19,.04,.26,.11Zm-16.42-8.82c2.17,0,4.05-.76,5.59-2.26,1.53-1.49,2.31-3.34,2.31-5.48s-.77-3.98-2.3-5.5c-1.52-1.52-3.36-2.29-5.49-2.29s-4.01,.76-5.54,2.27c-1.54,1.51-2.32,3.33-2.32,5.43,0,2.38,.86,4.34,2.55,5.82,1.53,1.33,3.28,2,5.2,2Zm-4.85-7.8c0-1.41,.47-2.57,1.43-3.53,.96-.97,2.11-1.44,3.51-1.44s2.55,.47,3.49,1.44c.96,.97,1.42,2.14,1.42,3.57s-.47,2.59-1.44,3.57c-.97,.97-2.12,1.44-3.53,1.44-1.29,0-2.41-.47-3.4-1.42-1-.95-1.48-2.14-1.48-3.63Zm-11.82,7.18v-14.27c0-.2,.16-.36,.36-.36h7.13c.2,0,.36,.16,.36,.36v2.02c0,.2-.16,.36-.36,.36h-4.61v2.71h4.44c.2,0,.36,.16,.36,.36v2.02c0,.2-.16,.36-.36,.36h-4.44v6.43c0,.2-.16,.36-.36,.36h-2.15c-.2,0-.36-.16-.36-.36Zm24.65,13.05v2.71h5.19c.2,0,.36,.16,.36,.36v2.02c0,.2-.16,.36-.36,.36h-5.19v4.05h5.36c.2,0,.36,.16,.36,.36v2.02c0,.2-.16,.36-.36,.36h-7.88c-.2,0-.36-.16-.36-.36v-14.27c0-.2,.16-.36,.36-.36h7.88c.2,0,.36,.16,.36,.36v2.02c0,.2-.16,.36-.36,.36h-5.36Zm-79.81-27.32v2.02c0,.2-.16,.36-.36,.36h-5.36v2.71h5.19c.2,0,.36,.16,.36,.36v2.02c0,.2-.16,.36-.36,.36h-5.19v4.05h5.36c.2,0,.36,.16,.36,.36v2.02c0,.2-.16,.36-.36,.36h-7.88c-.2,0-.36-.16-.36-.36v-14.27c0-.2,.16-.36,.36-.36h7.88c.2,0,.36,.16,.36,.36Zm15.39,0v15.14c0,.15-.09,.28-.23,.34-.04,.02-.09,.03-.13,.03-.1,0-.19-.04-.26-.11l-9.79-10.21v9.09c0,.2-.16,.36-.36,.36h-2.15c-.2,0-.36-.16-.36-.36v-15.24c0-.15,.09-.28,.23-.34,.04-.02,.09-.03,.13-.03,.1,0,.19,.04,.26,.11l9.79,10.24v-9.02c0-.2,.16-.36,.36-.36h2.15c.2,0,.36,.16,.36,.36Zm66.69,14.63h2.15c.2,0,.36-.16,.36-.36v-5.25l3.81,5.45c.07,.1,.18,.15,.3,.15h2.63c.14,0,.26-.08,.32-.2,.06-.12,.05-.27-.03-.38l-4.11-5.66c.79-.27,1.46-.73,1.98-1.38,.63-.79,.95-1.74,.95-2.83,0-1.4-.51-2.54-1.51-3.4-.9-.76-2.36-1.15-4.32-1.15h-2.52c-.2,0-.36,.16-.36,.36v14.27c0,.2,.16,.36,.36,.36Zm2.52-8.44v-3.81h.41c2.34,0,2.61,1.04,2.61,1.83,0,.85-.28,1.98-2.7,1.98h-.32Zm-43.79,8.08v-5.25l3.81,5.46c.07,.1,.18,.15,.3,.15h2.63c.14,0,.26-.08,.32-.2,.06-.12,.05-.27-.03-.38l-4.11-5.66c.79-.27,1.46-.73,1.98-1.38,.63-.79,.95-1.74,.95-2.83,0-1.4-.51-2.54-1.51-3.4-.9-.76-2.36-1.15-4.32-1.15h-2.52c-.2,0-.36,.16-.36,.36v14.27c0,.2,.16,.36,.36,.36h2.15c.2,0,.36-.16,.36-.36Zm0-8.08v-3.81h.41c2.34,0,2.61,1.04,2.61,1.83,0,.85-.28,1.98-2.7,1.98h-.32Zm109.74,43.35l2.7,15.34c.02,.11-.01,.21-.08,.3-.07,.08-.17,.13-.28,.13h-2.21c-.18,0-.33-.13-.36-.3l-1.19-7.43-3.73,8.18c-.06,.13-.19,.21-.33,.21h0c-.14,0-.27-.09-.33-.22l-3.62-8.2-1.33,7.46c-.03,.17-.18,.3-.36,.3h-2.23c-.11,0-.21-.05-.28-.13s-.1-.19-.08-.3l3-15.34c.03-.16,.16-.27,.31-.29,.01,0,.03,0,.04,0,.14,0,.27,.08,.33,.22l4.57,10.36,4.74-10.36c.06-.13,.19-.21,.33-.21,.02,0,.03,0,.05,0,.16,.02,.28,.14,.31,.3Zm13.6,1.13v2.02c0,.2-.16,.36-.36,.36h-5.36v2.71h5.19c.2,0,.36,.16,.36,.36v2.02c0,.2-.16,.36-.36,.36h-5.19v4.05h5.36c.2,0,.36,.16,.36,.36v2.02c0,.2-.16,.36-.36,.36h-7.88c-.2,0-.36-.16-.36-.36v-14.27c0-.2,.16-.36,.36-.36h7.88c.2,0,.36,.16,.36,.36Zm-28.9,0v2.02c0,.2-.16,.36-.36,.36h-5.36v2.71h5.19c.2,0,.36,.16,.36,.36v2.02c0,.2-.16,.36-.36,.36h-5.19v4.05h5.36c.2,0,.36,.16,.36,.36v2.02c0,.2-.16,.36-.36,.36h-7.88c-.2,0-.36-.16-.36-.36v-14.27c0-.2,.16-.36,.36-.36h7.88c.2,0,.36,.16,.36,.36Zm44.29,0v15.14c0,.15-.09,.28-.23,.34-.04,.02-.09,.03-.13,.03-.1,0-.19-.04-.26-.11l-9.79-10.21v9.09c0,.2-.16,.36-.36,.36h-2.15c-.2,0-.36-.16-.36-.36v-15.24c0-.15,.09-.28,.23-.34,.04-.02,.09-.03,.13-.03,.1,0,.19,.04,.26,.11l9.78,10.24v-9.02c0-.2,.16-.36,.36-.36h2.15c.2,0,.36,.16,.36,.36Zm-119.04-25.74v9.19c0,1.59-.51,2.93-1.51,3.97-1.12,1.15-2.51,1.74-4.14,1.74s-3.02-.58-4.13-1.74c-1-1.04-1.51-2.37-1.51-3.97v-9.19c0-.2,.16-.36,.36-.36h2.15c.2,0,.36,.16,.36,.36v8.59c0,1.14,.18,1.98,.53,2.47,.53,.73,1.26,1.08,2.23,1.08s1.71-.35,2.24-1.08c.35-.48,.53-1.32,.53-2.47v-8.59c0-.2,.16-.36,.36-.36h2.15c.2,0,.36,.16,.36,.36Zm65.1,25.74c0,.06-.02,.13-.05,.18l-6.39,15.31c-.06,.13-.19,.22-.33,.22h0c-.15,0-.28-.09-.33-.23l-6.26-15.34c-.05-.11-.03-.24,.03-.34s.18-.16,.3-.16h2.36c.15,0,.28,.09,.34,.23l3.61,9.05,3.66-9.06c.06-.14,.19-.23,.34-.23h2.36c.2,0,.36,.16,.36,.36Zm64.57,0v2.02c0,.2-.16,.36-.36,.36h-2.91v11.89c0,.2-.16,.36-.36,.36h-2.15c-.2,0-.36-.16-.36-.36v-11.89h-2.92c-.2,0-.36-.16-.36-.36v-2.02c0-.2,.16-.36,.36-.36h8.71c.2,0,.36,.16,.36,.36Zm-100.91,.18l-6.39,15.31c-.06,.13-.19,.22-.33,.22h0c-.15,0-.28-.09-.33-.23l-6.26-15.34c-.05-.11-.03-.24,.03-.34s.18-.16,.3-.16h2.36c.15,0,.28,.09,.34,.23l3.61,9.05,3.66-9.06c.06-.14,.19-.23,.34-.23h2.36c.2,0,.36,.16,.36,.36,0,.06-.02,.13-.05,.18Zm-19.2-25.84c-.86-.29-2.04-.44-3.51-.44h-2.99c-.2,0-.36,.16-.36,.36v14.27c0,.2,.16,.36,.36,.36h2.96c1.48,0,2.65-.14,3.47-.42,.88-.28,1.74-.78,2.55-1.49,1.61-1.42,2.42-3.3,2.42-5.6s-.78-4.16-2.33-5.56c-.76-.7-1.63-1.2-2.57-1.49Zm2,7.06c0,1.46-.48,2.61-1.47,3.51-.48,.43-1.02,.75-1.61,.95-.6,.19-1.37,.29-2.3,.29h-.61v-9.5h.61c1.73,0,3.05,.41,3.92,1.21,.98,.91,1.45,2.07,1.45,3.54Zm41.66,30.85v2.02c0,.2-.16,.36-.36,.36h-6.35c-.2,0-.36-.16-.36-.36v-14.27c0-.2,.16-.36,.36-.36h2.15c.2,0,.36,.16,.36,.36v11.89h3.83c.2,0,.36,.16,.36,.36Zm-38.86-12.25v15.14c0,.15-.09,.28-.23,.34-.04,.02-.09,.03-.13,.03-.1,0-.19-.04-.26-.11l-9.79-10.21v9.09c0,.2-.16,.36-.36,.36h-2.15c-.2,0-.36-.16-.36-.36v-15.24c0-.15,.09-.28,.23-.34,.04-.02,.09-.03,.13-.03,.1,0,.19,.04,.26,.11l9.79,10.24v-9.02c0-.2,.16-.36,.36-.36h2.15c.2,0,.36,.16,.36,.36Zm22.02-.63c-2.15,0-4.01,.76-5.54,2.27-1.54,1.51-2.32,3.33-2.32,5.43,0,2.38,.86,4.34,2.55,5.82,1.53,1.33,3.28,2,5.2,2,2.17,0,4.05-.76,5.59-2.26,1.53-1.49,2.31-3.34,2.31-5.48s-.77-3.98-2.3-5.5c-1.52-1.52-3.36-2.29-5.49-2.29Zm4.89,7.76c0,1.42-.47,2.59-1.44,3.57-.97,.97-2.12,1.44-3.53,1.44-1.29,0-2.41-.47-3.4-1.42-1-.95-1.48-2.14-1.48-3.63s.47-2.57,1.43-3.53c.96-.97,2.11-1.45,3.51-1.45s2.55,.47,3.49,1.44c.96,.97,1.42,2.14,1.42,3.57Zm6.16-18.24h-2.15c-.2,0-.36-.16-.36-.36v-11.89h-2.92c-.2,0-.36-.16-.36-.36v-2.02c0-.2,.16-.36,.36-.36h8.71c.2,0,.36,.16,.36,.36v2.02c0,.2-.16,.36-.36,.36h-2.91v11.89c0,.2-.16,.36-.36,.36Z"/></g></svg>