<?xml version="1.0" encoding="UTF-8"?><svg id="Layer_1" xmlns="http://www.w3.org/2000/svg" viewBox="0 0 360 360"><defs><style>.cls-1{fill:#009864;}.cls-2{fill:#fff;}.cls-3{fill:#73cde1;}</style></defs><path class="cls-2" d="M261.09,144.82h-30.96c-2.08,0-3.77,1.69-3.77,3.77v16.74c-6.82-7.72-16.72-11.55-24.74-13.92l-8.08-2.42c-5.76-1.86-11.4-4.02-11.4-8.04s5.71-6.43,9.83-6.43c6.43,0,13.04,2.56,18.63,7.22,.68,.57,1.54,.87,2.41,.87,.25,0,.5-.02,.75-.08,1.12-.23,2.08-.95,2.6-1.97l12.63-24.6c.92-1.8,.26-4-1.49-5-11.27-6.39-27-10.53-40.06-10.53-27,0-45.85,18.39-45.85,44.72,0,2.37,.13,4.62,.38,6.73-5.32,3.59-11.68,5.61-17.76,5.61-17.44,0-29.15-11.78-29.15-29.31s12.06-29.96,28.67-29.96c9.98,0,19.22,4.44,24.73,11.87,.72,.98,1.86,1.53,3.03,1.53,.39,0,.79-.06,1.18-.19,1.54-.51,2.59-1.95,2.59-3.58v-37.92c0-1.53-.92-2.9-2.33-3.48-10.44-4.32-20.36-6.42-30.33-6.42-17.99,0-36.32,7.79-49.02,20.83-12.24,12.58-18.98,29.33-18.98,47.17,0,19.92,6.99,36.34,20.77,48.79,13.38,12.18,30.5,18.89,48.2,18.89,10.14,0,18.1-2.45,28.18-5.55l.36-.11c-.56,.35-1.02,.84-1.33,1.43l-13.6,25.58c-.89,1.68-.39,3.76,1.16,4.86,13.43,9.42,29.43,14.6,45.06,14.6,14.49,0,27.65-4.4,37.08-12.39,2.23-1.89,4.19-4.03,5.89-6.41v49.99c0,2.08,1.69,3.77,3.77,3.77h30.96c2.08,0,3.77-1.69,3.77-3.77v-119.1c0-2.08-1.69-3.77-3.77-3.77Zm-67.22,48.73c0,8.29-10.42,8.53-11.61,8.53-8.32,0-16.71-3.82-25.68-11.69-.69-.61-1.58-.94-2.49-.94-.23,0-.45,.02-.68,.06h-.02c1.13-.66,1.85-1.89,1.85-3.24v-11.81c6.05,3.98,13.69,6.4,22.1,8.79l1.01,.28c5.8,1.64,15.52,4.38,15.52,10.01Z"/><path class="cls-3" d="M154.96,112.15v-3.17c-.41,1.02-1.22,1.86-2.31,2.22-.39,.13-.79,.19-1.18,.19-1.17,0-2.3-.55-3.03-1.53-5.51-7.43-14.75-11.87-24.73-11.87-16.61,0-28.67,12.6-28.67,29.96s11.72,29.31,29.15,29.31c6.08,0,12.44-2.03,17.76-5.61-.25-2.1-.38-4.36-.38-6.73,0-13.47,4.95-24.86,13.38-32.77Z"/><path class="cls-3" d="M154.09,189.22c.91,0,1.79,.33,2.49,.94,8.96,7.87,17.36,11.69,25.68,11.69,1.19,0,11.61-.24,11.61-8.53,0-5.63-9.71-8.37-15.52-10.01l-1.01-.28c-8.4-2.39-16.05-4.81-22.1-8.79v11.81c0,1.36-.72,2.58-1.85,3.25h.02c.23-.05,.45-.07,.68-.07Z"/><path class="cls-3" d="M264.86,175.85v91.61c0,2.08-1.69,3.77-3.77,3.77h-30.96c-2.08,0-3.77-1.69-3.77-3.77v-49.99c-1.7,2.38-3.66,4.52-5.89,6.41-9.42,7.99-22.59,12.39-37.08,12.39-15.63,0-31.63-5.19-45.06-14.6-1.56-1.09-2.06-3.18-1.16-4.86l13.6-25.58c.31-.59,.78-1.08,1.33-1.43l-.36,.11c-10.08,3.1-18.03,5.55-28.18,5.55-17.7,0-34.82-6.71-48.2-18.89-13.78-12.45-20.77-28.87-20.77-48.79,0-2.26,.11-4.5,.32-6.72-4.95,14.04-7.67,29.14-7.67,44.9,0,74.02,59.52,134.01,132.96,134.01s127.51-54.7,132.55-124.08l-47.9-.05Z"/><path class="cls-1" d="M230.13,148.59v29.18c-1.16-2.4-2.37-3.9-2.82-4.43-4.94-9.56-14.9-14.81-26.76-18.32l-8.09-2.43c-5.5-1.78-14.08-4.53-14.08-11.65s7.77-10.2,13.6-10.2c7.77,0,15.21,3.24,21.04,8.09l12.63-24.6c-10.84-6.15-25.9-10.04-38.2-10.04-24.44,0-42.08,16.19-42.08,40.95,0,3.12,.24,5.89,.68,8.41-.05,.04-.09,.09-.14,.12l-.37,.26c-6.12,4.58-13.71,7.31-21.32,7.31-19.69,0-32.92-13.88-32.92-33.08s13.07-33.73,32.43-33.73c10.81,0,21.3,4.68,27.76,13.4v-37.93c-9.36-3.87-18.72-6.13-28.88-6.13-17.11,0-34.37,7.42-46.32,19.69-11.62,11.94-17.91,27.92-17.91,44.54,0,18.07,6.13,33.89,19.52,45.99,12.59,11.46,28.72,17.91,45.67,17.91,9.85,0,17.43-2.42,27.92-5.65v-18.22l.03-1.93c5.71,6.94,15.08,10.16,26.87,13.51,6.8,1.94,19.26,5.02,19.26,13.92s-7.93,12.3-15.38,12.3c-10.84,0-20.23-5.67-28.16-12.63l-13.59,25.58c12.46,8.74,27.52,13.92,42.89,13.92,12.3,0,25.09-3.4,34.64-11.49,4.29-3.65,7.25-8.12,9.22-13.02,1.17-2.11,2.12-4.13,2.87-6.06v65.54h30.96v-119.1h-30.96Z"/></svg>