<?xml version="1.0" encoding="UTF-8"?><svg id="Layer_1" xmlns="http://www.w3.org/2000/svg" viewBox="0 0 360 360"><defs><style>.cls-1{fill:#ec1c24;}.cls-2,.cls-3{fill:#fff;}.cls-4{fill:#4d4d4d;}.cls-4,.cls-5,.cls-3{fill-rule:evenodd;}.cls-5{fill:#6d6e70;}</style></defs><g><g><path class="cls-5" d="M256.84,181.12h2.61l.06-4.59c0-.89,.09-2.04,.23-2.87-.2,.83-.66,1.98-1,2.87l-1.89,4.59Z"/><path class="cls-5" d="M243.5,172.51h-1l-.95,4.5h1.12c1.92,0,2.81-1.06,2.81-2.81,0-1-.52-1.69-1.98-1.69Z"/><path class="cls-4" d="M302.8,157.34H171.21c-12.07,0-21.86,9.79-21.86,21.86h0v21.86h147.26c12.07,0,21.86-9.79,21.86-21.86h0v-21.86h-15.68Zm-139.17,31.61c-5.11,0-6.31-2.58-5.42-6.74l2.9-13.6h4.5l-2.87,13.51c-.29,1.32-.49,3.07,1.43,3.07,1.61,0,2.24-.86,2.7-2.98l2.9-13.6h4.47l-2.93,13.83c-.92,4.27-2.93,6.51-7.69,6.51Zm11.08-10.3h6.83l-.83,3.93h-6.83l.83-3.93Zm11.94,10.3c-2.93,0-4.91-.77-6.31-1.92l2.64-3.47c1.03,.92,2.44,1.55,4.19,1.55,1.49,0,3.1-.66,3.1-2.21,0-1.06-.8-1.43-1.84-1.95l-1.41-.69c-1.52-.75-3.24-1.92-3.24-4.96,0-4.1,3.53-7.03,7.89-7.03,2.75,0,4.73,.72,6.02,1.78l-2.61,3.27c-1-.69-2.21-1.29-3.53-1.29s-2.55,.69-2.55,1.92c0,1.03,.66,1.43,1.52,1.86l1.98,.98c1.78,.89,3.07,1.92,3.07,4.79,0,5.02-4.13,7.37-8.92,7.37Zm23.87-6.51c-.92,4.27-2.93,6.51-7.69,6.51-5.11,0-6.31-2.58-5.42-6.74l2.9-13.6h4.5l-2.87,13.51c-.29,1.32-.49,3.07,1.43,3.07,1.61,0,2.24-.86,2.7-2.98l2.9-13.6h4.47l-2.93,13.83Zm21.52,4.68c-1.66,.95-4.1,1.84-6.74,1.84-3.56,0-6.25-2.12-6.25-7.17,0-6.25,3.21-13.51,10.36-13.51,2.9,0,4.85,1,6.17,2.67l-3.16,2.98c-.75-1-1.95-1.63-3.36-1.63-3.59,0-5.02,6-5.02,9.18,0,2.32,.63,3.53,2.15,3.53,.72,0,1.38-.11,1.89-.34l.75-3.47h-2.01l.12-3.9h7.2l-2.09,9.84Zm13.61-7.37c.57,.2,1.12,1.12,1.32,2.15,.31,1.52,1,5.22,1.26,6.71h-4.93l-.72-5.57c-.26-2.07-.86-2.32-1.83-2.32l-1.66,7.89h-4.47l4.25-19.99h5.62c4.53,0,6.05,2.29,6.05,4.96,0,3.01-1.84,5.71-4.88,6.17Zm13.97,8.86l-.09-3.99h-4.3l-1.84,3.99h-4.88l9.84-19.99h4.88l1.06,19.99h-4.68Zm12.02-8.46l-1.81,8.46h-4.47l4.25-19.99h9.81l-1.29,3.96h-4.88l-.8,3.76h3.93l-.8,3.82h-3.93Zm11,0l-1.81,8.46h-4.47l4.25-19.99h9.81l-1.29,3.96h-4.88l-.8,3.76h3.93l-.8,3.82h-3.93Zm4.72,8.46l4.25-19.99h4.5l-4.25,19.99h-4.5Zm18.16-10.5l2.9,10.5h-5.31l-1-5.62-3.5,5.62h-5.79l7.63-10.56-2.84-9.44h5.42l.83,4.85,2.84-4.85h5.51l-6.68,9.5Z"/></g><g><polygon class="cls-3" points="296.11 168.61 291.6 168.61 287.36 188.6 291.86 188.6 296.11 168.61"/><path class="cls-3" d="M250.52,173.57c0-2.67-1.52-4.96-6.05-4.96h-5.62l-4.25,19.99h4.47l1.66-7.89c.98,0,1.58,.26,1.83,2.32l.72,5.57h4.93c-.26-1.49-.95-5.19-1.26-6.71-.2-1.03-.75-1.95-1.32-2.15,3.04-.46,4.88-3.16,4.88-6.17Zm-7.86,3.44h-1.12l.95-4.5h1c1.46,0,1.98,.69,1.98,1.69,0,1.75-.89,2.81-2.81,2.81Z"/><polygon class="cls-3" points="278.12 172.57 279.41 168.61 269.6 168.61 265.35 188.6 269.83 188.6 271.64 180.14 275.57 180.14 276.37 176.33 272.44 176.33 273.24 172.57 278.12 172.57"/><polygon class="cls-3" points="306.69 168.61 303.86 173.46 303.02 168.61 297.6 168.61 300.44 178.05 292.81 188.6 298.61 188.6 302.11 182.98 303.11 188.6 308.42 188.6 305.52 178.1 312.2 168.61 306.69 168.61"/><polygon class="cls-3" points="282.64 180.14 286.57 180.14 287.37 176.33 283.44 176.33 284.24 172.57 289.12 172.57 290.41 168.61 280.6 168.61 276.35 188.6 280.83 188.6 282.64 180.14"/><path class="cls-3" d="M229.05,172.28c1.41,0,2.61,.63,3.36,1.63l3.16-2.98c-1.32-1.66-3.27-2.67-6.17-2.67-7.14,0-10.36,7.26-10.36,13.51,0,5.05,2.7,7.17,6.25,7.17,2.64,0,5.08-.89,6.74-1.84l2.09-9.84h-7.2l-.12,3.9h2.01l-.75,3.47c-.52,.23-1.18,.34-1.89,.34-1.52,0-2.15-1.2-2.15-3.53,0-3.18,1.43-9.18,5.02-9.18Z"/><path class="cls-3" d="M191.55,172.02c1.32,0,2.52,.6,3.53,1.29l2.61-3.27c-1.29-1.06-3.27-1.78-6.02-1.78-4.36,0-7.89,2.93-7.89,7.03,0,3.04,1.72,4.22,3.24,4.96l1.41,.69c1.03,.52,1.84,.89,1.84,1.95,0,1.55-1.61,2.21-3.1,2.21-1.75,0-3.16-.63-4.19-1.55l-2.64,3.47c1.41,1.15,3.39,1.92,6.31,1.92,4.79,0,8.92-2.35,8.92-7.37,0-2.87-1.29-3.9-3.07-4.79l-1.98-.98c-.86-.43-1.52-.83-1.52-1.86,0-1.23,1.18-1.92,2.55-1.92Z"/><path class="cls-3" d="M165.61,168.61h-4.5l-2.9,13.6c-.89,4.16,.32,6.74,5.42,6.74,4.76,0,6.77-2.24,7.69-6.51l2.93-13.83h-4.47l-2.9,13.6c-.46,2.12-1.09,2.98-2.7,2.98-1.92,0-1.72-1.75-1.43-3.07l2.87-13.51Z"/><polygon class="cls-3" points="181.53 178.65 174.7 178.65 173.87 182.58 180.7 182.58 181.53 178.65"/><path class="cls-3" d="M202.83,188.95c4.76,0,6.77-2.24,7.69-6.51l2.93-13.83h-4.47l-2.9,13.6c-.46,2.12-1.09,2.98-2.7,2.98-1.92,0-1.72-1.75-1.43-3.07l2.87-13.51h-4.5l-2.9,13.6c-.89,4.16,.32,6.74,5.42,6.74Z"/><path class="cls-3" d="M255.23,184.62h4.3l.09,3.99h4.68l-1.06-19.99h-4.88l-9.84,19.99h4.88l1.84-3.99Zm3.5-8.09c.34-.89,.8-2.04,1-2.87-.14,.83-.23,1.98-.23,2.87l-.06,4.59h-2.61l1.89-4.59Z"/></g></g><path class="cls-2" d="M141.97,179.2c0-26.7-21.64-48.34-48.34-48.34s-48.34,21.64-48.34,48.34,21.64,48.34,48.34,48.34,48.34-21.64,48.34-48.34Z"/><path class="cls-4" d="M94.07,127.52h52.47v52.47h0s-.56-47.07,0,.01c.56,47.08-23.5,52.48-52.48,52.48H41.59v-52.47h0s-.14,47.37,0-.01c.14-47.38,23.5-52.48,52.48-52.48h.01Zm-.47,3.34c-26.7,0-48.34,21.64-48.34,48.34s21.64,48.34,48.34,48.34,48.34-21.64,48.34-48.34-21.64-48.34-48.34-48.34Z"/><path class="cls-1" d="M72.4,191.17c-.84-.12-1.48-.38-1.9-.8-.59-.59-.88-1.36-.88-2.3,0-1.18,.27-2.38,.83-3.6,.55-1.22,1.1-2.3,1.65-3.25,6.22,4.41,13.58,6.61,22.07,6.61s16.05-2.16,22.43-6.49c6.37-4.33,9.56-10.11,9.56-17.35,0-7.79-1.26-12.73-3.78-14.81-.62-.52-1.2-.98-1.74-1.39,1.94-1.21,3.47-3.29,4.56-5.16-3.92-3.4-8.39-6.17-13.27-8.17,1.38,3.17,.86,6.05,.05,8.06-1.03-.62-2.81-1.21-5.35-1.78-3.5-.79-7.57-1.18-12.22-1.18-8.81,0-16.33,1.85-22.54,5.54-6.22,3.69-9.33,9.98-9.33,18.85,0,1.73,.53,4.06,1.59,7.01,1.06,2.95,2.66,5.44,4.78,7.48-12.72,11.63-15.97,20.88-15.42,27.73,3.85,5.71,8.9,10.56,14.78,14.18l.03-.03c-.22-.12-.34-.19-.34-.19,0,0,17.8-21.79,68.61-18.84,1.64-3.19,2.95-6.57,3.86-10.12H72.4Zm12.56-41.94c0-1.73,.78-2.99,2.36-3.78,1.57-.79,3.62-1.18,6.14-1.18,2.91,0,5.61,.53,8.08,1.59,2.48,1.06,3.8,2.34,3.95,3.84v28.33c0,1.58-1.02,2.91-3.07,4.01-2.05,1.1-4.37,1.65-6.97,1.65s-5-.67-6.96-2.01c-1.97-1.34-3.15-3.42-3.54-6.26v-26.2Z"/></svg>