<?xml version="1.0" encoding="UTF-8"?><svg id="Layer_1" xmlns="http://www.w3.org/2000/svg" viewBox="0 0 360 360"><defs><style>.cls-1{fill:#ec1c24;}.cls-2{fill:#fff;}.cls-3{fill:#4d4d4d;fill-rule:evenodd;}</style></defs><path class="cls-2" d="M306.72,178.25c.21-70.58-56.84-127.96-127.41-128.16-70.58-.21-127.96,56.84-128.17,127.41-.21,70.57,56.84,127.95,127.42,128.16,70.57,.21,127.95-56.84,128.16-127.41Z"/><path class="cls-3" d="M180.1,41.26h138.71V179.97h0s-1.48-124.45,0,.03c1.48,124.48-62.13,138.74-138.74,138.74H41.33V180.03h0s-.37,125.23,0-.03c.36-125.25,62.13-138.74,138.73-138.74h.03Zm-1.25,8.83c-70.58,0-127.79,57.21-127.79,127.79s57.21,127.79,127.79,127.79,127.79-57.21,127.79-127.79-57.21-127.79-127.79-127.79Z"/><path class="cls-1" d="M122.79,209.52c-2.22-.32-3.91-1.01-5.02-2.13-1.56-1.56-2.34-3.59-2.34-6.08,0-3.12,.72-6.29,2.18-9.51,1.45-3.23,2.91-6.09,4.37-8.59,16.43,11.66,35.89,17.48,58.36,17.48s42.44-5.72,59.29-17.17c16.85-11.44,25.28-26.73,25.28-45.87,0-20.59-3.32-33.65-9.99-39.16-1.65-1.36-3.18-2.59-4.6-3.67,5.13-3.19,9.18-8.69,12.04-13.63-10.37-8.98-22.19-16.32-35.08-21.61,3.66,8.38,2.28,15.99,.12,21.31-2.72-1.63-7.42-3.2-14.15-4.71-9.26-2.08-20.03-3.12-32.3-3.12-23.3,0-43.17,4.88-59.6,14.64-16.44,9.76-24.65,26.38-24.65,49.84,0,4.57,1.4,10.75,4.21,18.53,2.81,7.79,7.02,14.39,12.64,19.78-33.62,30.74-42.22,55.2-40.77,73.32,10.19,15.11,23.53,27.91,39.07,37.48,.03-.03,.05-.06,.08-.08-.58-.32-.9-.5-.9-.5,0,0,47.05-57.61,181.39-49.8,4.34-8.42,7.8-17.37,10.2-26.75H122.79Zm33.21-110.87c0-4.57,2.07-7.9,6.24-9.99,4.16-2.08,9.57-3.12,16.23-3.12,7.69,0,14.82,1.4,21.37,4.21,6.55,2.81,10.03,6.19,10.45,10.15v74.89c0,4.17-2.7,7.7-8.11,10.61-5.41,2.91-11.54,4.37-18.42,4.37s-13.21-1.76-18.41-5.31c-5.2-3.53-8.32-9.04-9.36-16.54V98.65Z"/></svg>