<?xml version="1.0" encoding="UTF-8"?><svg id="Layer_1" xmlns="http://www.w3.org/2000/svg" xmlns:xlink="http://www.w3.org/1999/xlink" viewBox="0 0 360 360"><defs><style>.cls-1{fill:none;}.cls-2{fill:url(#Blended_Rainbow);}.cls-3{fill:#ea088b;}.cls-4{fill:#8866ac;}.cls-5{fill:#2babe2;}.cls-6{fill:url(#Blended_Rainbow-3);}.cls-7{fill:url(#Blended_Rainbow-2);}</style><linearGradient id="Blended_Rainbow" x1="114.03" y1="198.42" x2="259.94" y2="198.42" gradientTransform="matrix(1, 0, 0, 1, 0, 0)" gradientUnits="userSpaceOnUse"><stop offset="0" stop-color="#ec1c24"/><stop offset=".01" stop-color="#ed2e23"/><stop offset=".04" stop-color="#f05221"/><stop offset=".07" stop-color="#f26e1f"/><stop offset=".1" stop-color="#f4821e"/><stop offset=".13" stop-color="#f58e1e"/><stop offset=".16" stop-color="#f6921e"/><stop offset=".31" stop-color="#ffc10e"/><stop offset=".34" stop-color="#f0c114"/><stop offset=".4" stop-color="#c8c224"/><stop offset=".48" stop-color="#8bc53f"/><stop offset=".63" stop-color="#00adee"/><stop offset=".74" stop-color="#0083ca"/><stop offset=".81" stop-color="#0071bb"/><stop offset=".85" stop-color="#2259ac"/><stop offset=".92" stop-color="#46419c"/><stop offset=".97" stop-color="#5c3293"/><stop offset="1" stop-color="#652d90"/></linearGradient><linearGradient id="Blended_Rainbow-2" x1="115.55" y1="212.18" x2="259.81" y2="212.18" xlink:href="#Blended_Rainbow"/><linearGradient id="Blended_Rainbow-3" x1="117.16" y1="224.65" x2="259.88" y2="224.65" xlink:href="#Blended_Rainbow"/></defs><g><path class="cls-3" d="M123.33,118.07c-.64,.36-1.8,2.51-1.45,2.55l1.7-.56,2.63-.69,.27,.44,.07-1.02c.05-.63-1.87,.86-2.36,.95-.16,.13,.92-1.38,.57-1.15-.52,.11-1.17,.75-1.45,.73-.28,.36,.35-1.58,.02-1.26Z"/><path class="cls-3" d="M117.07,129.88c3.44,2,7.02,.41,10.93-2.03,1.68-1.1,2.21-4.77,1.67-6.45-1.66-2.01-5.03,.25-5.26,.13-3.16,1.04-1.46,2.91-3.57,1.91-.48-.41-1.83-1.3-1.95-1.56,0-.15,.24-.04,.32,0,.12,.02-.09-.14-.09-.14-.08,.05-.56-.88-.53-1.18-.03-.19,.45,.62,.39,.43,.07-.04,0-.44,.04-.75,0-.21,.21,.6,.21,.51,.06-.15,.06-1.24,.23-1.01l.27,.37,.14,.03,.12-.23c.3-.51,.74-.72,1.26-.97,0,0-.54-.36-.66-.35v-.45c.25-.16,.6-.3,.59,.35l.24-.22s-.06-.47-.07-.47c-.7-.31-1.36-.36-2.07-.35-.04,.17-.33-.02-.33-.02l-.31-.02-.1,.07h0l-.14,.13,.11-.1h0l.03-.03,.03-.08-.7,.11-.11,.13c-.12,.18-.21,.35-.49,.03l-.13,.03,.06,.06-.08-.05-.56,.16c-.41,.07-.68,.33-1,.57-2.32,1.44-2.89,4.65-1.68,7.38,.53,1.52,1.62,3.08,3.17,4.05Zm-.14-11.02c-.02,.45-.45,.51-1.25,.24-.2-.79,.54-.64,1.25-.24Z"/><path class="cls-3" d="M140.5,143.15c-.42,.18-2.02,1.28-1.53,1.49,.77,.26,1.38,.18,2.16,.14l2.15-1.03,.38,.26-.37-.75c-.13-.42-1.03,1.07-1.59,1.2-.12,.11,.38-1.1,.14-.87-.45,.24-.96,.7-1.27,.59-.27,.24,.17-1.23-.07-1.02Z"/><path class="cls-3" d="M127.22,134.66c.72,2.64,2.14,.99,2.47,2.78,.18,2.87,1.41-.05,1.82,.86,.03,.24,.7,1.1,.82,1.23,.15,1.09,.81,.97,1.95,2.4,.29,.3,1.11,.13,1.71,.16,.32,.12,.35,.62,.55,.79,.33,.27,.11-.09,.11-.09-.24-.15,1.08-1.03,1.34-1.08,.16-.08,.03,1.73,.03,1.73,0,0,1.11-1.04,1.14-.79l.11,.46,.16,.15,.21-.09,1.41-.46-.36-.76c.24-.09,.56,.19,.56,.19l.04-.4-1.61-1.3h-.1c-.13,0-.27,.01-.09-.3l-.04-.07-.03,.06,.02-.07-.17-.27-.32-.54c-.7-1.17-1.47-2.08-2.44-3.34-.46-.73-.89-1.5-1.53-2.32-1.2-1.82-3.29-1.29-5-3.3-.72-.65-2.19-.26-2.9-.15-.83,1.25,.15,4.33,.16,4.51Zm10.79,5.08c.62-.3,.36,.29,.01,.99-.33,.07-.35-.31-.01-.99Z"/><path class="cls-3" d="M143.51,176.93c-.18-.16,.8-.51,.43-.84-.65-.86-1.35-1.53-1.76-2.42-.41-.31,.34-1.41-.07-1.71-.73-.83-3.19-2.64-2.44-1.25,1.15,2.07,2.21,3.29,3.05,5.23l3.01,4.34,.41,1.37-.23-1.98c-.05-.96-1.69-1.5-2.41-2.74Z"/><path class="cls-3" d="M141.94,169.32l.19-.45c.51,.58,1.14,2.22,1.29,2.33,.01,.25,.03-.75,.03-.76l-2.58-5.44c-.19-.07-.39-.09-.4-.31l.03-.53-.34-.78-.82-1.94-.23-.33c-.28-.38-.61-.72-.45-1.14l-.16-.31-.02,.09v-.14l-.67-1.31-1.31-2.6c-2.15-4.65-7.39-13.53-7.94-13.5-.57-.89-1.13-1.76-1.71-2.69-3.12,.45-5.21,3.35-5.21,3.35h0c-.73,2.02-.23,4.48-1.23,6.21-.91,7.22,1.37,13.21,1.14,20.35-.03,2.75,1.65,7.41,2.39,9.75,2.07,2.87,4.62,.38,4.75,.17,2.01-2.7-1.66-9.87-.48-12.87,1.83-4.3-1.39-9.1-.94-13.65,.1-.74,.06-1.52,.02-2.33,.47,.67,.93,1.35,1.37,2.06,1.03,1.74,2.51,2.92,3.71,4.21,.75,1.02,1.12,2.35,1.63,3.23,.81,1.38,1.09,1.39,.18,.02-.6-.92,1.2,.2,1.76,.73,.3,.19-.16,1,.14,1.19,.33,.59,3.2,1.51,1.14,2.18,.58,.81,1.75,1.08,1.86,1.74l.29,1.36,.72,1.16c.96,.99,2.05,1.32,1.83,.95Zm-8.03-15.02c1.18,.59,1.3,1.73,1.22,2.84-.74-.58-1.23-1.67-1.22-2.84Z"/><path class="cls-3" d="M116.75,132.81c.85,.81-.36,1.76-1.27,.03-1.31-2.66-2.52-.24-3.75-.85-.31-.15-.61,0-.97-.01-1.85-.8-3.38,.47-5.08,.12-.45,0-.92,.66-1.33,.93-.29,.07-.53-.34-.74-.37-.34-.06-.05,.14-.05,.14,.25,0-.06,1.38-.28,1.55-.11,.15-.53-.2-.75-.03-.11,.14-.2-1.51-.25-1.44-.24,.08-.67,1.34-.75,1.09l-.35-.53-.77,.43-.95,.47c-.07,.36,.01,.89,.01,.89l1.88,.85,.09-.03h0l-.05,.05,.96,.43,1.12,.5c1.63,.73,3.27,.72,5.03,.99,.96,.16,1.93,.46,2.85,.78,1.89,.68,3.37-.48,5.33,1.14,.73,.57,1.86,.09,2.48-.05,.71-1.3,0-4.37-.07-4.54-.79-2.6-1.06-1.08-2.34-2.52Zm-13.17,2.67c.23-.17,.44,.08,.56,.69-.33,.45-.48-.07-.56-.69Z"/></g><g><path class="cls-5" d="M216.28,122.94c-.76,.25-2.42,2.31-2.05,2.43l1.93-.26,2.93-.21,.2,.52,.27-1.07c.18-.65-2.16,.55-2.69,.55-.2,.1,1.25-1.28,.83-1.11-.58,.02-1.4,.57-1.69,.5-.36,.32,.68-1.62,.28-1.33Z"/><path class="cls-5" d="M220.93,126.43c1.6-.52,.97-1.42,.34-2.08l-1.1,.35c.13,.37,.75,.44,1.23,.06-1.34,.86-1.55,1.46-1.31,2.24l.85-.57Z"/><path class="cls-5" d="M217.09,134.26c1.99-.26,4.06-3.35,4.3-5.1-.63-2.53-4.73-2.66-8.11-2.38,1.16,.23,.72,2.22-.75,.4-.25-.58-1.09-1.97-1.08-2.26,.06-.14,.15-1.07,.3-1.32,.05-.19,.57,1.42,.59,1.22,.08,0,.49-1.86,.54-1.58l.19,.54,.2-.16c.49-.33,1.61-.39,1.61-.39l.15,.05c.27-.33,.4-.97,.39-.98-.49-.58-1.08-.91-1.72-1.21-.11,.13-.21,.3-.24,.18l-.05-.35-.27-.16-.12,.02h0l-.18,.05,.14-.04h.04l.06-.07-.68-.21-.16,.07c-.18,.11-.34,.23-.45-.18l-.13-.02,.03,.08-.05-.08-.58-.1c-.4-.12-.75,.01-1.15,.09-2.71,.3-4.63,2.95-4.71,5.94-.18,1.6,.13,3.49,1.12,5.03,2.24,3.3,6.16,3.41,10.76,2.89Z"/><path class="cls-5" d="M188.7,142.27l-1.1,1.73-.38,2.28-.44,.14,.84,.18c.44,.15-.24-1.48-.05-1.97-.03-.16,.72,.96,.66,.64,.05-.5-.05-1.15,.19-1.32-.05-.33,.97,.78,.92,.45,.05-.5-.27-2.47-.64-2.12Z"/><path class="cls-5" d="M193.64,167.4c-.78,2.41-1.24,3.98-1.63,6.26l-.3,5.67-.53,1.42,1.06-1.81c.56-.83-.43-2.36-.23-3.9-.05-.26,.96,.13,.87-.4,.05-1.15-.19-2.25,.18-3.22-.05-.52,1.36-.81,1.31-1.32,.13-1.13-.15-4.28-.73-2.7Z"/><path class="cls-5" d="M216.7,146.44l-1.5-3.32-.83-1.61c1.03-.02-4.69,.06-7.69,.1,.2-.09,.39-.19,.54-.25,.43-1.39-.65-4.38-.74-4.54-1.12-2.5-1.15-.94-2.58-2.21,.92,.69-.04,1.81-1.22,.21-1.81-2.38-2.56,.23-3.99,.02-.37-.04-.64,.22-1.03,.32-2.3-.1-3.48,1.94-5.31,2.81-.47,.29-.51,1.12-.66,1.68-.2,.28-.68,.17-.9,.32-.34,.23-.49,.64-.58,1.1l.64-.96c.21-.19,.36,.9,.33,1.17,.03,.18-.53-.43-.51-.25-.14,.1-.09,.46-.12,.73,.03,.18-.38-.44-.36-.35-.11,.28,.27,1.17,.03,1.09l-.46-.09-.19,.08v.23l-.22,1.53,.04,.05c.13-.18,.33-.23,.75,.02-.17-.08,0,.45-.44,.11l.05,.27-.36-.4-.07,.12c.28,.26,.77,.5,.77,.5l1.24-.76c-.05-.14,.2-.09,.2-.09l.19-.08,.03-.09h0v.08l.46-.18,.46-.16h.01l.35-.12,.68-.23c1.52-.43,2.63-1.25,4.15-1.62,.81-.21,1.66-.25,2.53-.13,1.65,.18,2.67-1.14,4.63,.19,.5,.33,1.09,.15,1.58-.07h0l-.02,.05-.04,.08-.09,.16-.17,.31-.34,.62c-1.79,3.34-3.56,6.73-5.67,10.2-.96,1.93-1.2,3.94-1.67,5.72-.47,1.23-1.43,2.33-1.91,3.29-.74,1.51-1.21,2.9-1.39,4.34,.42-1.51,.81-2.58,1.47-4.18,.47-1.05,.5,1.13,.35,1.89,0,.36-.97,.47-.96,.83-.31,.64-.22,1.39-.33,2.18,.03,.37-.64,.03-.62,.22-.24,1.03,.33,2.14-.1,2.67l-.84,1.17-.36,.77-.04,.59-.58,4.46h.07c.25-.81,.62-1.55,1.37-2.2-.3,.29-.47,.18-.35-.24l.47-.18c-.09,.78-.18,1.54-.95,2.01,0,0,.03,.36,.05,.53-.19,.19-.4,.09-.6,.07l-.13,.49c.48-.21,1.34-1.07,1.34-1.07,.78-1.98,1.57-3.82,2.37-5.6-.08-.19-.19-.36-.04-.51l.42-.32,.36-.77,.07-.15,.83-1.76,.1-.4c.07-.48,.21-.93,.66-1.05l.18-.3-.09,.03,.12-.09,.75-1.27,1.48-2.53c2.72-4.84,5.36-9.29,8.41-13.97,.27,.45,.45,.86,.25,1.1l.28,4.73c-.36,6.28-.21,12.41-3.12,18.67-1.05,2.4-1.67,7.1-2.12,9.64,.5,3.58,3.98,2.49,4.18,2.37,3.08-1.49,1.94-3.36,4.35-7.25-1.44,2.68-1.29-2.41,.98-4.84,3.46-3.56,1.99-9.69,2.66-14.87,.14-1.33-.03-2.74-.04-4.34-.11-2.17-.33-4.34-.9-6.5Zm-17.67,17.18c-.16-2.92,2.41-5.79,2.95-6.06,.01,.67-1.66,5.4-2.95,6.06Z"/><path class="cls-5" d="M239.34,140.8c0,.16-.58-.87-.56-.56-.11,.48-.1,1.12-.4,1.23-.01,.3-.83-.76-.84-.47-.14,.43-.29,2.22,.17,1.94l1.51-1.53,.63-2.21,.44-.17-.8-.1c-.4-.11,.12,1.36-.14,1.86Z"/><path class="cls-5" d="M237.09,138.88l-1.46,.56c.02,.15,.05,.32-.03,.26l-.2-.2-.21,.05-.05,.09h0l.1,.3-.18-.15,.06-.11h0l.02-.03v-.08l-.49,.05-.08,.08c-.09,.12-.17,.25-.35-.08h-.09l.04,.06-.05-.06h-1.14c-1.63-.11-3.06,.13-4.74-.17-.91-.2-1.75-.46-2.6-.94-1.65-.9-3.28,.01-4.95-1.95-.66-.68-2.01-.38-2.69-.33-.95,1.19-.55,4.39-.52,4.57,.46,2.73,.93,1.24,1.94,2.87-.69-.93,.62-1.72,1.24,.17,.9,2.87,2.44,.71,3.77,1.46,.33,.19,.68,.07,1.08,.14,2.1,.98,4.13-.22,6.52-.35,.63-.08,1.07-.82,1.52-1.34,.35-.22,.84,.03,1.15-.05,.49-.13,.84-.49,1.13-.9l-1.14,.75c-.32,.13,0-.98,.14-1.23,.04-.18,.42,.57,.46,.39,.2-.05,.28-.42,.42-.67,.04-.18,.26,.53,.28,.43,.23-.28,.11-1.26,.35-1.15l.49,.15,.24-.06,.08-.24,.62-1.53-.04-.06c-.17,.16-.41,.19-.82-.12,.16,.11,.24,.3,.15,.38l-.24-.3c.1-.27,.18-.53,.59-.13v-.27l.31,.44,.1-.11c-.26-.28-.74-.59-.74-.59Zm-4.17,1c.08-.34,.26-.08,.46,.25-.08,.16-.27,.07-.46-.25Z"/></g><g><path class="cls-4" d="M168.49,106c-.42,.4-.89,2.31-.61,2.27l1.21-.78,1.89-1.07,.3,.28-.16-.8c-.09-.5-1.27,1.05-1.63,1.22-.1,.13,.43-1.25,.21-1-.38,.19-.75,.82-.97,.86-.14,.33-.06-1.3-.24-.98Z"/><path class="cls-4" d="M172.05,105.25c-.31,1.02-.16,1.41,.3,1.71l.8-.7c-.21,0-.62,.04-.62,.04,.59-.95-.12-1.14-.72-1.2l-.41,.65c.22,.13,.57-.1,.65-.5Z"/><path class="cls-4" d="M165.87,118.75c3.95,1.1,7.11-1.43,10.38-4.88,1.39-1.53,.97-5.33-.01-6.87-2.17-1.57-4.95,1.55-5.22,1.5-2.88,1.85-.91,7.65-4.12,3.16,1.06-.58-2.49-2.35-2.41-2.34,.12-.01,2.07-.04,1.62-.14,.02-.17-.95-2.01-.72-1.83l1.11,.75,.68-1.43,.15-.06c0-.43-.33-1.02-.34-1.02-.77-.13-2.36,0-4.1,.93l-.12,.07,.07,.04-.09-.03-.52,.31-.85,.83c-1.93,2.04-1.68,5.4,.25,7.81,.93,1.38,2.42,2.65,4.22,3.21Z"/><path class="cls-4" d="M198.56,118.02c0,.26-1.02-1.43-1.03-.91-.26,.81-.29,1.86-.82,2.18-.03,.53-1.51-1.13-1.52-.61-.26,.81-.48,4.02,.34,3.39,1.18-1.05,1.77-2.02,2.75-3.03l1.46-3.73,.87-.3-1.53-.13c-.78-.17,.04,2.29-.51,3.14Z"/><path class="cls-4" d="M194.01,118.51l-1.97,1.04-.25,.1-.06,.11h0v-.09l-.6,.15-.1,.1c-.1,.14-.21,.28-.44-.03h-.11l.04,.07-.06-.05-.48,.06-.95,.11c-2.1,.12-3.73,.96-5.89,1.02-1.17,.02-2.32-.07-3.46-.28-2.24-.43-3.97,.99-6.62-.42-1-.48-2.51,.22-3.31,.48-.79,1.47,.59,4.54,.68,4.71,1.33,2.58,1.46,.96,3.15,2.28-1.11-.72,.26-1.9,1.52-.21,1.84,2.6,3-.04,4.78,.34,.43,.1,.83-.12,1.31-.16,2.68,.43,4.65-1.14,7.4-1.92,.71-.24,1.1-1.12,1.54-1.68,.38-.26,1.19-1.34,1.34-1.62,.04-.19,.53,.54,.56,.34,.23-.08,.3-.46,.45-.74,.04-.19,.33,.51,.34,.4,.24-.34,.06-1.37,.34-1.29l.56,.07,.27-.11,.08-.27,.69-1.79-.04-.06,.11-.14c-.3-.27-.84-.51-.84-.51Z"/><path class="cls-4" d="M169.04,136.49c-.35-.38-.44-1.77-.66-1.91-.14-.15-.44-.38-.74-.55,0-.01,0-.02,0-.03,.04-.3,.21-.5,.39-.67l.99-.68c.36,.38,.89,1.04,.89,1.04l-1.53-6.06c-.12,.31-3.07,1.81-2.96,1.88,.06,.09,.16,.15,.25,.22l-.07,.07-1.36,1.43c-2.4,3.5-3.54,7.25-4.77,11.36-.58,2.23-1.4,4.38-2.06,6.5-1.41,4.25-.66,8.28-2.77,12.55-.75,1.66-.49,4.77-.45,6.33,1.21,2.16,4.53,1.18,4.72,1.08,2.85-1.21,1.31-2.31,3.05-4.91-1,1.78-1.75-1.4,.23-3.02,3.07-2.29,.85-5.89,1.97-8.76,.27-.71,.22-1.5,.37-2.38,1.55-4.33,1.1-8.65,2.85-12.7,.26-.57,.28-1.21,.27-1.85,.18,.33,1.17,.88,1.35,1.26,0,0,.25-.07,.03-.21Z"/><path class="cls-4" d="M143.54,116.81c.59-.08,1.29-.44,1.62-.27,.37-.22-.53,1.43-.16,1.22,.65-.15,2.76-1.51,2.21-1.73l-2.41-.42-2.77,.23-.29-.51,.03,1.09c-.04,.61,1.71-.73,2.32-.66,.18-.09-.91,1.2-.55,1.03Z"/><path class="cls-4" d="M160.43,128.09c.61,.75,1.89,.52,2.55,.52,1.03-1.16,1.01-4.48,.98-4.67-.21-2.85-2.59-1.4-3.12-3.38-.73-3.02-2.52-.83-3.65-1.74-.29-.23-.63-.14-.99-.24-1.71-1.25-3.57-.3-5.23-1.05-.46-.11-1.09,.46-1.58,.64-.32,0-.46-.47-.67-.55-.34-.14-.74-.01-1.18,.17l1.1-.04c.25,.06-.55,.83-.82,.96-.15,.13,.11-.69-.03-.56-.15-.06-.44,.19-.71,.31-.15,.12,.21-.55,.14-.5-.27,.03-.9,.78-.94,.51l-.1-.48-.14-.15-.21,.09-1.61,.46-.15-.02c-.15,.35-.19,.91-.19,.91l1.55,1.14,.18,.16h.1l-.06,.03,.43,.34h.13c.17-.05,.32-.1,.24,.27l.08,.06v.01l.35,.25,.68,.51c1.5,1.13,3.18,1.49,4.92,2.17l2.74,1.46c1.78,1.14,3.56,.28,5.19,2.39Z"/><path class="cls-4" d="M171.88,134.73c.51,.48,2.58,1.51,2.26,.65-.55-1.28-1.12-2.05-1.68-3.16l-2.42-2.39-.15-.82-.2,1.24c-.18,.6,1.63,.71,2.13,1.42,.17,.08-1.06,.42-.72,.59,.51,.48,1.2,.81,1.35,1.35,.34,.17-.91,.96-.57,1.12Z"/><path class="cls-4" d="M179.31,156.98c.08-.61-.17-1.19-.24-1.89,.28-3.74-1.57-6.81-2.18-10.59-.23-.99-1.09-1.7-1.67-2.45-.27-.58-.06-1.31-.18-1.81-.19-.78-.62-1.38-1.1-1.94,.31,.68,.63,1.15,.94,1.92,.17,.52-1.04-.14-1.34-.44-.2-.11,.57-.55,.36-.66-.08-.33-.49-.55-.78-.84-.2-.11,.55-.28,.45-.33-.29-.44-1.32-.56-1.2-.92l.16-.73-.06-.4-.26-.21s-1.55-.63-1.46-.44l-.32,.25c-.31-.29-.61-.57-.17-1.05,0,0-.21-.1-.31-.15l-.28,.42,.7,2.8c.16,.03,.07,.43,.07,.43,0,0,.58,1.96,.26,2.19l.02,.17,.06-.05-.06,.08,.07,.7,.13,1.39c.2,3.06,.88,5.77,1.14,8.93,.11,1.72,.12,3.38-.02,5.04-.29,3.31,1.26,5.99-.07,9.52-.45,1.33,.32,3.56,.61,4.73,1.54,1.36,4.63-.04,4.79-.15,2.59-1.47,.92-1.96,2.18-4.23-.68,1.52-1.95-.68-.3-2.3,2.55-2.37-.24-4.6,.06-7.02Z"/></g><g><path class="cls-2" d="M168.04,179.1c-28.14-1.03-57.09,8.25-80.43,28.62,2.63,3.35,5.2,6.75,7.82,10.09,19.58-20.14,45.65-31.19,72.61-32.24,25.74-1,52.23,7.17,73.95,25.17,.11-.13,.2-.26,.31-.38-20.47-19.57-46.97-30.26-74.27-31.26Z"/><path class="cls-7" d="M182.64,191.98c-29.21-1.07-59.31,8.95-83.08,30.97,2.18,2.61,4.43,5.16,6.83,7.59,.64,.65,1.28,1.29,1.91,1.92,19.75-21.28,46.59-32.93,74.33-34.01,19.64-.76,39.71,3.82,57.78,14.02,.44-.47,.88-.95,1.31-1.43-17.65-11.81-38.14-18.29-59.09-19.05Z"/><path class="cls-6" d="M198.67,204.85c-29.38-1.08-59.67,9.06-83.51,31.35,1.52,1.52,3.05,3.05,4.57,4.57,.83,.83,1.67,1.67,2.5,2.5,.93,.45,1.89,.87,2.89,1.24,19.68-20.75,46.16-32.13,73.54-33.2,12.81-.5,25.8,1.28,38.31,5.4,.28-.45,.58-.89,.91-1.33,.37-.51,.8-1.01,1.25-1.52-12.82-5.45-26.53-8.5-40.46-9.01Z"/></g><path class="cls-1" d="M160.6,257.16h0l.12,.31,.32-.37c-.16,.08-.34,.11-.46-.01h0l.03,.07h0Z"/><path class="cls-1" d="M160.07,264.09c.54-.39,.74-.87,.54-1.24-.56,.36-1.02,.76-.54,1.24Z"/><path class="cls-1" d="M160.79,257.76c-.01-.1-.03-.19-.06-.28-.01,.02,0,.05-.01,.07,.03,.07,.06,.14,.08,.21Z"/><path class="cls-4" d="M161.04,257.11l.16-.1c-.23-.01-.45-.03-.68-.06l.05,.13h0c.13,.13,.3,.1,.46,.02Z"/><path class="cls-4" d="M160.69,257.49s.01,.04,.02,.06c0-.02,0-.05,.01-.07l-.12-.31,.09,.32Z"/><polygon class="cls-4" points="160.6 257.16 160.6 257.16 160.6 257.17 160.6 257.16"/><path class="cls-4" d="M160.77,258.13c.04-.13,.04-.25,.02-.37-.02-.07-.05-.14-.08-.21-.06,.17-.06,.36,.06,.58Z"/><path class="cls-4" d="M160.77,258.13c-.12-.22-.12-.41-.06-.58,0-.02-.01-.04-.02-.06l-.09-.32h0l-.15,1.31c.41-.18,.42-.44,.34-.72,.02,.12,.02,.24-.02,.37Z"/><g><path class="cls-4" d="M265.77,64.12c-.67-.29-1.84-.31-1.89-.31h-.11l-.07,.08c-.96,1.03-2.01,2.01-3.2,3.01l-.14,.12-.29,.23-1.8,1.4s-.57,.76-.7,.69l-.83,.44h0l-2.29,1.67c-2.21,1.54-4.07,3.19-6.04,4.93-1.45,1.28-2.95,2.61-4.59,3.88-2.13,1.6-4.27,2.95-6.52,4.14-1.94,1.03-3.44,2.8-4.89,4.51-1.99,2.35-4.04,4.78-7.34,5.46-1.37,.34-2.65,1.58-3.54,2.56-3.32-2.54-6.81-4.8-11.98-7.75-6.66-3.56-13.76-5.57-21.06-7.48-1.9-.39-4.79-1.2-10.17-1.9l-.65,.34c.91,.31,6.56,1.12,7.51,1.39,1.64,.47,3.34,.95,5.08,1.7,1.5,.58,3.18,.96,5.12,1.4,2.7,.61,5.76,1.31,9.12,2.75,.27,.1,.33,.25,.44,.52,.16,.41,.38,.98,1.52,1.43,4.21,1.85,7.69,3.59,11.07,6.05,.93,.42,1.79,1.51,2.62,2.57l.13,.45c-.17,.21-.34,.41-.49,.59l-1.87-1.48-.36,.34c.37,.52,1.05,1.35,2.02,2.45,.56,3.2,4.92,5.78,4.96,5.79,.23,.12,.42,.2,.61,.28l.15,.06c7.74,7.84,13.73,16.91,17.85,27,.08,.12,.16,.22,.24,.33,.41,.55,.77,1.03,1.01,1.94l.61,2.68c.39,1,.65,2.05,.91,3.07,.14,.56,.29,1.13,.45,1.69l.3,.89-.06,.02c.84,2.66,1.26,5.44,1.67,8.14,.15,.99,.3,1.97,.47,2.98,.18,.75,.27,1.47,.34,2.12l.02,.19c.34,2.65,.68,5.39,.26,7.09l-.08,2.02h.04l-.06,.35c-.06,.92-.1,1.85-.13,2.76-.07,1.88-.13,3.83-.51,5.73-.73,5.76-2,11.27-3.78,16.4-5.43,16.12-15.39,30.08-28.81,40.36-13.56,10.4-29.68,16.27-46.64,16.98-.07-.09-6.74,.01-7.22,0-19.72-.92-38.89-9.29-52.6-22.96-13.15-12.84-21.84-29.77-24.48-47.67-2.73-18.52,1.36-36.82,11.53-51.57,6.73-12.06,26.64-30.07,40.32-33.9,6.99-3.03,10.22-5.44,9.87-7.37-.32-1.75-3.49-2.27-4.27-2.31h-.06c-12.8,0-22.62,4.52-40.44,18.59h0c-.62,.48-4.7,4.09-4.7,4.09,6.53-5.22,21.68-10.69,16.92-8.67-.61,.85-11.62,7.58-15.15,10.57-4.98,4.22-12.03,12.82-16.29,20.4-7.5,9.81-11.18,24.47-10.37,41.29,.78,16.22,5.81,32.7,13.78,45.21,4.01,7.4,10.2,13.97,15.72,19.41,15.84,15.84,37.43,24.69,60.83,24.94-.29,2.69-.42,5.26-.56,7.97-.13,2.5-.26,5.08-.52,7.75-.21,1.9-.53,3.93-.96,6.18-1.66-.28-3.29-.35-4.88-.42-3.41-.15-6.63-.3-10.12-2.28-.93-.48-2.24-.71-4.01-.71-1.2,0-2.45,.11-3.45,.19-.44,.04-.85,.07-1.2,.1h-.08l-.06,.05c-2.94,2.21-1.58,7.84-1.34,8.4,1.1,2.99,2.11,3.21,3.5,3.52,.83,.19,1.78,.4,3.03,1.29,.1,.08,.21,.17,.34,.26l.29-.41c-.11-.08-.22-.16-.32-.24-.15-.14-.39-.39-.3-.62,.08-.22,.48-.46,1.16-.46,.45,0,2.02,.13,3.24,1.85,1.26,1.87,2.79,2.71,4.96,2.71,.92,0,1.88-.15,2.81-.29,.93-.14,1.88-.29,2.8-.29,.69,0,1.3,.08,1.86,.26,.05,.02,.09,.03,.14,.04-.19,3.33-.64,6.17-2.18,9.16-1,2.11-.72,5.63-.52,8.2,.04,.49,.07,.94,.1,1.32v.07l.04,.06c.92,1.34,2.56,2.05,4.76,2.05,1.91,0,3.52-.51,3.65-.58,2.98-1.22,3.21-2.32,3.52-3.84,.19-.92,.4-1.97,1.3-3.35,.08-.11,.17-.23,.26-.38l-.42-.27c-.08,.12-.16,.24-.24,.36-.39,.49-.74,.44-.94-.14-.35-1.01-.04-3.05,1.73-4.43,2.9-2.15,2.89-4.84,2.53-7.65,.36-.03,.71-.07,1.07-.1,1.96-.19,3.99-.38,6.07-.38,.59,0,1.18,.02,1.75,.05,1.35,0,2.54-.65,3.7-1.27,.44-.24,.86-.46,1.22-.63,.55-.11,1.24,.04,1.86,.2,.44,.11,.86,.22,1.26,.22,1.54-.01,2.83-.55,3.89-1.07l-.16-.47c-.55,.1-1.04,.22-1.52,.34-.65,.16-1.33,.33-2.14,.44,.09-.33,.89-1.22,1.39-1.54,.06,.08,.15,.22,.2,.31,.19,.32,.36,.59,.62,.59,.06,0,.11-.01,.16-.04,.46-.03,.87-.33,1.27-.62,.13-.09,.26-.19,.39-.28,.02,.08,.03,.18,.04,.24,.05,.32,.09,.58,.35,.58h.13l.03-.05c.44-.18,.81-.62,1.14-1.01,.22-.26,.5-.62,.71-.6l1.17,.6,.9,.12,.55-.38c1.01-.68,2.24-1.35,3.66-2l.17-.08v-.08l.49-.12-.13-.28c-.32-.69-1.26-1.54-1.3-1.57l-.07-.06h-.1c-1.7,.05-3.33,0-5.16-.14h-.17l-.14,.27s-.02,.05-.03,.07l-.34-.4-2.68-.28-.42,.13c-.16,.07-.32,.14-.44,.14-.05,0-.16,0-.27-.29l-.05-.14-4.25-.57c-3.14-.48-6.08-.64-9.19-.81-1.72-.1-3.49-.19-5.3-.35,.63-3.74,.33-7.3,.02-11.06-.23-2.75-.47-5.6-.32-8.57-.01-1.48-.65-2.8-1.27-4.07-.11-.22-.21-.44-.31-.66,22.55-1.77,43.6-11.53,59.32-27.49,8.06-8.16,13.89-17.86,18.34-30.53,2.73-7.22,5.61-15.51,6.34-22.21,1.31-9.28,.87-18.24-1.35-27.41l-.49,.11c1.63,8.62,2.35,15.73,1.2,26.54-.05,.33-.09,.61-.12,.84-.04-.81-.06-1.91-.08-3-.05-2.47-.11-5.53-.34-7.35-.06-.81,.14-1.84,.35-2.94,.28-1.44,.57-2.94,.29-4.04-.16-4.26-1.18-8.03-2.37-12.38l-.06-.22c-.31-.96-.1-1.36,.1-1.71,.16-.29,.34-.61,.14-1.09-1.08-3.62-2.53-6.5-3.81-9.04-.88-1.75-1.64-3.26-2.15-4.73-.58-2.03-1.37-3.8-2.13-5.52-.34-.76-.67-1.51-.98-2.27l-.09-.19c-.67-1.45-1.36-2.94-2.38-4.32l-2.07-2.68c-2.96-3.77-6.34-7.5-9.81-10.8l.04-.02c.27-.15,.56-.32,.89-.47,1.39,1.05,1.63,1.14,1.79,1.14l.2-.02,.07-.15c.07-.17,.07-.32-.86-1.34,.23-.05,.85-2.63,2.51-2.63,.35,0,.72,.05,1.08,.14,.62,.17,1.21,.25,1.74,.25,2.41,0,3.56-1.66,4.68-3.27,.77-1.1,1.56-2.25,2.76-2.81,.57-.27,.99-.7,1.42-1.16,.25-.26,.51-.53,.76-.74,2.95-1.56,4.93-4.61,6.84-7.56,1.42-2.18,2.88-4.44,4.73-6.06,.82-.83,1.09-2.01,1.36-3.15,.1-.43,.19-.83,.29-1.15,.27-.43,.76-.7,1.24-.96,.35-.19,.68-.37,.93-.62,.94-.95,1.34-2.11,1.61-3.12,0,0-.27-.58-.15-.58h.12l.15-.19v-.05c.14-.4,.05-.93-.03-1.4-.04-.26-.12-.7-.04-.79l1.12-.29s1.14-3.43,1.53-4.7l.05-.17-.06-.05,.21-.38-.26-.11Zm-34.63,47.04,14.18,81.6c.48-1.64,1.1-3.1,1.69-4.44-.37,1.4-.95,2.92-1.69,4.44Zm-44.81,93.99c.1-.04,.2-.06,.29-.06,.15,0,.38,.05,.66,.48l.09,.14c-.37-.06-.7-.25-1.04-.56Zm-10.82,5.46h0l-.04-.24s.06,.05,.06,.08c0,0,.02-.03,.02-.05l-.03,.21Z"/><path class="cls-4" d="M275.22,119.49c-.56-.4-1.17-.84-1.54-1.27,.03,0,.06,0,.08-.01,.82-.1,1.41-.17,1.54-.63,.03-.1,.06-.35-.18-.58-.24-.35-.52-.68-.8-1.01-.55-.65-1.06-1.26-1.06-1.82v-.09c.17-.11,.46-.26,.65-.36,.65-.34,1.17-.6,1.21-1.06,.02-.18-.05-.36-.19-.5-.62-.86-3.03-2.97-4.19-2.97-.32,0-.51,.14-.61,.25-.17,.18-.24,.44-.2,.79,.24,1.52,.6,2.75,.94,3.93,.24,.81,.48,1.65,.69,2.57l3.36,5.6c.06,.34-.07,.7-.22,1.1l-.04,.1,.81,.39,1.2-2.02c.16-.21,.22-.45,.19-.7-.09-.62-.78-1.11-1.64-1.73Z"/><path class="cls-4" d="M287.43,48.45v-.08l-.06-.06c-1.05-1.19-9.28-1.38-9.51-1.29-3.39,1.07-3.65,2.05-4,3.4-.21,.81-.45,1.73-1.47,2.94-.1,.1-.19,.21-.29,.33,0,0-2.23,.51-3.59,.35l-.2-.02-.25-.04-2.07-.34-.8-.16-3.2-.66c-2.32-.55-4.49-.72-6.78-.91-1.68-.14-3.42-.28-5.22-.58-2.3-.43-4.44-1.07-6.56-1.93-1.72-.7-3.39-.81-5-.91-2.51-.16-4.88-.32-7.45-2.56-.71-.56-1.71-.84-3.05-.84-.91,0-3.56,.34-3.56,.34l-.07,.08c-2.29,2.65-1,9.42-.98,9.47,.78,3.23,1.47,3.62,2.63,4.01,.61,.21,2.29,.45,2.42,.2,.36-.71,2-.64,3.08,1.7,.93,2.12,2.12,3.11,3.76,3.11,.7,0,1.42-.17,2.12-.34,1.19-.28,2.45-.49,3.38-.05,.58,.28,1.12,.24,1.63,.22,.3,0,.6-.02,.92,.02,1.29,.52,2.67,.77,4.22,.77,1.44,0,2.9-.21,4.3-.42,1.87-.27,3.81-.55,5.78-.38,1.04-.01,1.94-.75,2.82-1.47,.32-.26,.62-.51,.91-.71,.37-.1,.84,.07,1.27,.24,.34,.13,.66,.26,.98,.26,1.14-.01,2.95-1.16,2.95-1.16l.56-.58,.04-.07c.14-.09,.27-.23,.41-.43,.09-.03,.15-.08,.18-.12,.07-.09,.07-.2,.06-.28,.06-.11,.12-.21,.18-.32,.12-.23,.3-.56,.41-.67l.85,.66,.74,.15c-1.15,1.45-1.06,4.68-1.06,4.68-.04,.04-.5,2.11-.5,2.11-.11-.02-.27-.07-.4-.11-.42-.13-.77-.21-.93-.02-.06,.06-.09,.14-.09,.23-.1,.62,.02,2.28,.43,2.77,.13,.15,.27,.19,.36,.19,.15,0,.28-.08,.41-.23,.51-.7,.86-1.33,1.2-1.94l.12-.21c.13,1.09-.4,5.86-.44,6.25-1.18,3.8-.78,7.36-.36,11.13,.27,2.43,.56,4.95,.38,7.58,.01,1.32,.75,2.49,1.46,3.62,.27,.43,.52,.83,.71,1.17,.14,.57-.05,1.19-.23,1.79-.13,.44-.26,.85-.25,1.24,.01,1.51,.92,.85,.79,.06h0c.4,.06,1.44,.88,1.82,1.36-.09,.06,1.02,4.74,1.01,4.89l-.68,1.14-.14,.9,.44,.54c.77,.98,1.54,2.17,2.29,3.56l.08,.15h.09l.14,.46,.26-.1c.78-.31,1.74-1.22,1.78-1.26l.08-.08v-.11c-.05-1.61,0-3.25,.15-5.02l.07-.64,.64-4.65h0l.52-3.26c.54-3.02,.72-5.85,.9-8.85,.14-2.21,.28-4.49,.58-6.86,.43-3.01,2.74-13.02,2.84-15.12,.16-3.3,.32-6.43,2.57-9.81,1.15-1.89,.51-8.1,.49-8.45Zm-21.98,12.3,11.37,50.45"/><path class="cls-4" d="M188.4,85.09c-2.97-1.06-4.92-.99-7.18-.91-.41,.02-.84,.03-1.28,.04l-.08,.68,16.2,4.01,.21-.65-7.87-3.17Z"/><path class="cls-4" d="M202.25,90.47l-.39,.68c4.06,2.66,8.44,5.08,13.37,7.41l.38-.69c-3.88-2.4-8-4.68-13.36-7.4Z"/><path class="cls-4" d="M145.41,85.26l4.05-.84s.08,.07,.12,.1c.38,.37,.78,.65,1.98,.65,.17,0,.36,0,.66-.03l2.65-.84c.57-.18,1.04-.33,1.21-.38,1.05,.09,2.13,.14,3.3,.14,2.7,0,5.46-.25,8.13-.49,2.4-.22,4.88-.44,7.35-.49l.1-.72-2.89-.93h-.06c-3.02,.06-3.34,.43-3.38,.71-6.86-.39-13.02,.1-18.99,1.49l-.2-.12-4.26,.99,.04,.72,.2,.02Z"/></g></svg>