<?xml version="1.0" encoding="UTF-8"?><svg id="Layer_1" xmlns="http://www.w3.org/2000/svg" xmlns:xlink="http://www.w3.org/1999/xlink" viewBox="0 0 360 360"><defs><style>.cls-1{fill:none;}.cls-2{fill:url(#Blended_Rainbow);}.cls-3{fill:#ea088b;}.cls-4{fill:#8866ac;}.cls-5{fill:#2babe2;}.cls-6{fill:#633393;}.cls-7{fill:url(#Blended_Rainbow-3);}.cls-8{fill:url(#Blended_Rainbow-2);}</style><linearGradient id="Blended_Rainbow" x1="146.51" y1="187.37" x2="237.25" y2="187.37" gradientTransform="matrix(1, 0, 0, 1, 0, 0)" gradientUnits="userSpaceOnUse"><stop offset="0" stop-color="#ec1c24"/><stop offset=".01" stop-color="#ed2e23"/><stop offset=".04" stop-color="#f05221"/><stop offset=".07" stop-color="#f26e1f"/><stop offset=".1" stop-color="#f4821e"/><stop offset=".13" stop-color="#f58e1e"/><stop offset=".16" stop-color="#f6921e"/><stop offset=".31" stop-color="#ffc10e"/><stop offset=".34" stop-color="#f0c114"/><stop offset=".4" stop-color="#c8c224"/><stop offset=".48" stop-color="#8bc53f"/><stop offset=".63" stop-color="#00adee"/><stop offset=".74" stop-color="#0083ca"/><stop offset=".81" stop-color="#0071bb"/><stop offset=".85" stop-color="#2259ac"/><stop offset=".92" stop-color="#46419c"/><stop offset=".97" stop-color="#5c3293"/><stop offset="1" stop-color="#652d90"/></linearGradient><linearGradient id="Blended_Rainbow-2" x1="147.46" y1="195.93" x2="237.17" y2="195.93" xlink:href="#Blended_Rainbow"/><linearGradient id="Blended_Rainbow-3" x1="148.46" y1="203.68" x2="237.21" y2="203.68" xlink:href="#Blended_Rainbow"/></defs><g><path class="cls-6" d="M41.14,260.7h4.68c1.55,0,2.54,1.08,2.54,2.39,0,1.02-.41,1.79-1.37,2.17v.02c.94,.24,1.2,1.15,1.26,2.03,.04,.55,.02,1.57,.36,2.05h-1.91c-.23-.55-.21-1.38-.3-2.08-.13-.91-.49-1.31-1.45-1.31h-1.91v3.39h-1.91v-8.67Zm1.91,3.92h2.09c.85,0,1.31-.36,1.31-1.24s-.46-1.2-1.31-1.2h-2.09v2.44Z"/><path class="cls-6" d="M61.12,260.7h6.49v1.6h-4.58v1.86h4.2v1.48h-4.2v2.13h4.68v1.6h-6.58v-8.67Z"/><path class="cls-6" d="M81.54,266.5c0,1.15,.9,1.6,1.92,1.6,.67,0,1.69-.19,1.69-1.08,0-.94-1.3-1.09-2.58-1.43-1.29-.34-2.59-.84-2.59-2.47,0-1.77,1.68-2.62,3.24-2.62,1.81,0,3.47,.79,3.47,2.79h-1.85c-.06-1.04-.8-1.31-1.71-1.31-.61,0-1.31,.26-1.31,.98,0,.67,.41,.75,2.59,1.31,.63,.16,2.58,.56,2.58,2.53,0,1.59-1.25,2.78-3.61,2.78-1.92,0-3.72-.95-3.69-3.08h1.85Z"/><path class="cls-6" d="M103.21,260.5c2.68,0,4.26,2,4.26,4.58s-1.58,4.51-4.26,4.51-4.26-2-4.26-4.51,1.58-4.58,4.26-4.58Zm0,7.48c1.71,0,2.36-1.46,2.36-2.9,0-1.52-.64-2.98-2.36-2.98s-2.36,1.46-2.36,2.98,.64,2.9,2.36,2.9Z"/><path class="cls-6" d="M127.32,266.1c0,2.34-1.38,3.49-3.7,3.49s-3.69-1.13-3.69-3.49v-5.39h1.91v5.39c0,.95,.24,1.88,1.79,1.88,1.36,0,1.8-.6,1.8-1.88v-5.39h1.91v5.39Z"/><path class="cls-6" d="M140.2,260.7h4.68c1.55,0,2.54,1.08,2.54,2.39,0,1.02-.41,1.79-1.37,2.17v.02c.94,.24,1.2,1.15,1.26,2.03,.04,.55,.02,1.57,.36,2.05h-1.91c-.23-.55-.21-1.38-.3-2.08-.13-.91-.49-1.31-1.45-1.31h-1.91v3.39h-1.91v-8.67Zm1.91,3.92h2.09c.85,0,1.31-.36,1.31-1.24s-.46-1.2-1.31-1.2h-2.09v2.44Z"/><path class="cls-6" d="M165.85,263.62c-.12-.86-.95-1.52-1.89-1.52-1.71,0-2.36,1.46-2.36,2.98s.64,2.9,2.36,2.9c1.17,0,1.82-.8,1.97-1.94h1.85c-.19,2.16-1.69,3.55-3.81,3.55-2.68,0-4.26-2-4.26-4.51s1.58-4.58,4.26-4.58c1.91,0,3.51,1.12,3.74,3.12h-1.85Z"/><path class="cls-6" d="M180.26,260.7h6.49v1.6h-4.58v1.86h4.2v1.48h-4.2v2.13h4.68v1.6h-6.58v-8.67Z"/><path class="cls-6" d="M219.65,263.62c-.12-.86-.95-1.52-1.89-1.52-1.71,0-2.36,1.46-2.36,2.98s.64,2.9,2.36,2.9c1.17,0,1.82-.8,1.97-1.94h1.85c-.19,2.16-1.69,3.55-3.81,3.55-2.68,0-4.26-2-4.26-4.51s1.58-4.58,4.26-4.58c1.91,0,3.51,1.12,3.74,3.12h-1.85Z"/><path class="cls-6" d="M234.06,260.7h6.49v1.6h-4.58v1.86h4.2v1.48h-4.2v2.13h4.68v1.6h-6.58v-8.67Z"/><path class="cls-6" d="M253.23,260.7h1.89l3.62,5.82h.02v-5.82h1.79v8.67h-1.91l-3.61-5.81h-.02v5.81h-1.79v-8.67Z"/><path class="cls-6" d="M275.29,262.31h-2.6v-1.6h7.11v1.6h-2.6v7.07h-1.91v-7.07Z"/><path class="cls-6" d="M291.93,260.7h6.49v1.6h-4.58v1.86h4.2v1.48h-4.2v2.13h4.68v1.6h-6.58v-8.67Z"/><path class="cls-6" d="M311.11,260.7h4.68c1.55,0,2.54,1.08,2.54,2.39,0,1.02-.41,1.79-1.37,2.17v.02c.93,.24,1.2,1.15,1.26,2.03,.04,.55,.02,1.57,.36,2.05h-1.91c-.23-.55-.21-1.38-.3-2.08-.13-.91-.49-1.31-1.45-1.31h-1.91v3.39h-1.91v-8.67Zm1.91,3.92h2.09c.85,0,1.31-.36,1.31-1.24s-.46-1.2-1.31-1.2h-2.09v2.44Z"/></g><g><path class="cls-3" d="M152.3,137.41c-.4,.22-1.12,1.56-.9,1.59l1.06-.35,1.63-.43,.17,.27,.04-.63c.03-.39-1.16,.54-1.46,.59-.1,.08,.57-.86,.35-.71-.33,.07-.73,.47-.9,.45-.17,.22,.21-.98,.01-.78Z"/><path class="cls-3" d="M148.41,144.75c2.14,1.24,4.36,.26,6.8-1.27,1.05-.68,1.38-2.97,1.04-4.01-1.03-1.25-3.13,.16-3.27,.08-1.96,.65-.91,1.81-2.22,1.19-.3-.25-1.14-.81-1.21-.97,0-.09,.15-.03,.2,0,.07,.01-.05-.08-.05-.08-.05,.03-.35-.55-.33-.73-.02-.12,.28,.39,.24,.27,.04-.03,0-.28,.02-.47,0-.13,.13,.37,.13,.32,.04-.09,.03-.77,.14-.63l.17,.23,.09,.02,.07-.14c.18-.32,.46-.45,.78-.6,0,0-.33-.22-.41-.22v-.28c.16-.1,.37-.19,.37,.22l.15-.14s-.04-.29-.04-.29c-.43-.19-.85-.22-1.29-.22-.03,.1-.21-.02-.21-.02h-.19l-.06,.03h0l-.09,.08,.07-.06h0l.02-.02,.02-.05-.43,.07-.07,.08c-.07,.11-.13,.22-.3,.02l-.08,.02,.04,.03-.05-.03-.35,.1c-.25,.04-.42,.21-.62,.36-1.44,.9-1.8,2.89-1.04,4.59,.33,.95,1.01,1.92,1.97,2.52Zm-.09-6.86c-.01,.28-.28,.32-.78,.15-.12-.49,.34-.4,.78-.15Z"/><path class="cls-3" d="M162.98,153c-.26,.11-1.26,.8-.95,.92,.48,.16,.86,.11,1.34,.08l1.33-.64,.24,.16-.23-.47c-.08-.26-.64,.66-.99,.75-.08,.07,.24-.69,.09-.54-.28,.15-.6,.43-.79,.37-.17,.15,.11-.76-.05-.63Z"/><path class="cls-3" d="M154.72,147.72c.45,1.64,1.33,.61,1.54,1.73,.11,1.78,.88-.03,1.13,.53,.02,.15,.44,.68,.51,.76,.09,.68,.5,.61,1.21,1.49,.18,.19,.69,.08,1.06,.1,.2,.08,.21,.39,.34,.49,.2,.17,.07-.06,.07-.06-.15-.09,.67-.64,.83-.67,.1-.05,.02,1.08,.02,1.08,0,0,.69-.65,.71-.49l.07,.29,.1,.09,.13-.05,.88-.29-.22-.47c.15-.06,.35,.12,.35,.12l.02-.25-1-.81h-.06c-.08,0-.17,0-.06-.19l-.02-.04-.02,.04v-.04l-.09-.17-.2-.34c-.43-.73-.91-1.29-1.52-2.07-.29-.46-.56-.93-.95-1.44-.75-1.13-2.05-.8-3.11-2.05-.45-.4-1.36-.16-1.8-.09-.51,.78,.09,2.69,.1,2.8Zm6.71,3.16c.38-.19,.23,.18,0,.61-.2,.04-.22-.19,0-.61Z"/><path class="cls-3" d="M164.85,174.01c-.11-.1,.5-.32,.27-.52-.41-.54-.84-.95-1.09-1.5-.26-.19,.21-.88-.04-1.07-.46-.52-1.98-1.64-1.51-.78,.72,1.29,1.37,2.05,1.9,3.25l1.87,2.7,.25,.85-.14-1.23c-.03-.6-1.05-.94-1.5-1.7Z"/><path class="cls-3" d="M163.87,169.28l.12-.28c.32,.36,.71,1.38,.8,1.45,0,.16,.02-.47,.02-.47l-1.6-3.39c-.12-.04-.24-.06-.25-.19l.02-.33-.21-.48-.51-1.2-.14-.21c-.17-.24-.38-.45-.28-.71l-.1-.19v.05l-.02-.09-.41-.81-.82-1.62c-1.34-2.89-4.6-8.42-4.94-8.4-.35-.55-.71-1.09-1.06-1.67-1.94,.28-3.24,2.08-3.24,2.08h0c-.45,1.26-.14,2.79-.76,3.86-.57,4.49,.85,8.22,.71,12.65-.02,1.71,1.02,4.61,1.49,6.06,1.29,1.78,2.88,.23,2.95,.11,1.25-1.68-1.03-6.14-.3-8,1.14-2.67-.86-5.66-.58-8.49,.06-.46,.04-.95,.01-1.45,.29,.42,.58,.84,.85,1.28,.64,1.08,1.56,1.82,2.3,2.62,.46,.63,.69,1.46,1.02,2.01,.5,.86,.68,.86,.11,.01-.37-.57,.75,.12,1.09,.45,.19,.12-.1,.62,.09,.74,.21,.37,1.99,.94,.71,1.35,.36,.5,1.09,.67,1.15,1.08l.18,.84,.45,.72c.6,.62,1.28,.82,1.14,.59Zm-4.99-9.34c.73,.36,.81,1.08,.76,1.77-.46-.36-.76-1.04-.76-1.77Z"/><path class="cls-3" d="M148.21,146.57c.53,.5-.23,1.1-.79,.02-.82-1.65-1.57-.15-2.33-.53-.19-.09-.38,0-.6,0-1.15-.5-2.1,.29-3.16,.08-.28,0-.57,.41-.83,.58-.18,.04-.33-.21-.46-.23-.21-.03-.03,.09-.03,.09,.15,0-.04,.86-.17,.96-.07,.09-.33-.13-.47-.02-.07,.09-.12-.94-.16-.9-.15,.05-.41,.83-.47,.68l-.22-.33-.48,.27-.59,.3c-.04,.22,0,.55,0,.55l1.17,.53,.06-.02h0l-.03,.03,.6,.27,.7,.31c1.01,.46,2.03,.44,3.13,.61,.6,.1,1.2,.29,1.77,.49,1.18,.42,2.09-.3,3.31,.71,.45,.35,1.16,.06,1.54-.03,.44-.81,0-2.72-.04-2.82-.49-1.62-.66-.67-1.45-1.57Zm-8.19,1.66c.14-.11,.28,.05,.35,.43-.21,.28-.3-.04-.35-.43Z"/></g><g><path class="cls-5" d="M210.1,140.43c-.47,.16-1.5,1.44-1.28,1.51l1.2-.16,1.82-.13,.13,.32,.17-.66c.11-.41-1.34,.34-1.67,.34-.12,.06,.78-.8,.52-.69-.36,.01-.87,.36-1.05,.31-.23,.2,.42-1.01,.17-.83Z"/><path class="cls-5" d="M212.99,142.61c1-.32,.61-.88,.21-1.29l-.69,.22c.08,.23,.47,.27,.77,.04-.84,.53-.96,.91-.82,1.39l.53-.35Z"/><path class="cls-5" d="M210.6,147.47c1.24-.16,2.52-2.08,2.67-3.17-.39-1.57-2.94-1.66-5.04-1.48,.72,.14,.45,1.38-.47,.25-.16-.36-.68-1.22-.67-1.4,.03-.08,.09-.66,.19-.82,.03-.12,.35,.88,.37,.76,.05,0,.3-1.16,.34-.98l.12,.33,.13-.1c.31-.21,1-.24,1-.24l.09,.03c.17-.2,.25-.6,.24-.61-.31-.36-.67-.57-1.07-.75-.07,.08-.13,.19-.15,.11l-.03-.22-.17-.1-.07,.02h0l-.11,.03,.09-.02h.03l.04-.04-.42-.13-.1,.04c-.11,.07-.21,.14-.28-.11l-.08-.02,.02,.05-.03-.05-.36-.06c-.25-.07-.47,0-.72,.05-1.69,.19-2.88,1.83-2.93,3.7-.11,1,.08,2.17,.69,3.13,1.39,2.05,3.83,2.12,6.69,1.8Z"/><path class="cls-5" d="M192.95,152.46l-.68,1.08-.24,1.42-.27,.09,.52,.11c.28,.09-.15-.92-.03-1.23-.02-.1,.45,.6,.41,.4,.03-.31-.03-.71,.12-.82-.03-.2,.61,.49,.57,.28,.03-.31-.17-1.54-.4-1.32Z"/><path class="cls-5" d="M196.02,168.08c-.48,1.5-.77,2.48-1.01,3.89l-.18,3.53-.33,.88,.66-1.13c.35-.51-.27-1.47-.14-2.42-.03-.16,.6,.08,.54-.25,.03-.72-.12-1.4,.11-2-.03-.33,.85-.5,.81-.82,.08-.7-.1-2.66-.45-1.68Z"/><path class="cls-5" d="M210.36,155.05l-.93-2.06-.52-1c.64,0-2.91,.04-4.78,.06,.13-.06,.25-.12,.34-.16,.27-.86-.4-2.73-.46-2.83-.7-1.56-.71-.59-1.6-1.37,.57,.43-.02,1.13-.76,.13-1.12-1.48-1.59,.15-2.48,.01-.23-.02-.4,.13-.64,.2-1.43-.06-2.17,1.21-3.3,1.75-.29,.18-.32,.7-.41,1.05-.12,.18-.42,.11-.56,.2-.21,.14-.3,.4-.36,.68l.4-.6c.13-.12,.23,.56,.2,.73,.02,.11-.33-.27-.32-.16-.09,.06-.06,.28-.07,.46,.02,.11-.24-.27-.23-.22-.07,.17,.17,.73,.02,.68l-.29-.06-.12,.05v.14l-.13,.95,.02,.03c.08-.11,.2-.14,.47,.01-.1-.05,0,.28-.27,.07l.03,.17-.22-.25-.04,.07c.17,.16,.48,.31,.48,.31l.77-.47c-.03-.09,.13-.06,.13-.06l.12-.05,.02-.06h0v.05l.28-.11,.29-.1h0l.22-.08,.43-.14c.95-.27,1.64-.78,2.58-1.01,.51-.13,1.03-.16,1.57-.08,1.02,.11,1.66-.71,2.88,.12,.31,.21,.68,.09,.98-.04h0v.03l-.04,.05-.05,.1-.11,.19-.21,.39c-1.11,2.08-2.21,4.19-3.53,6.34-.6,1.2-.75,2.45-1.04,3.55-.29,.77-.89,1.45-1.19,2.05-.46,.94-.75,1.8-.86,2.7,.26-.94,.51-1.6,.92-2.6,.29-.65,.31,.7,.22,1.17,0,.22-.6,.29-.6,.52-.19,.4-.14,.87-.2,1.35,.02,.23-.4,.02-.39,.14-.15,.64,.21,1.33-.06,1.66l-.52,.72-.22,.48-.03,.37-.36,2.77h.04c.15-.5,.39-.96,.85-1.37-.18,.18-.29,.11-.22-.15l.29-.11c-.06,.48-.11,.96-.59,1.25,0,0,.02,.22,.03,.33-.12,.12-.25,.06-.38,.05l-.08,.3c.3-.13,.83-.66,.83-.66,.48-1.23,.97-2.38,1.47-3.48-.05-.12-.12-.22-.02-.32l.26-.2,.22-.48,.04-.09,.52-1.1,.06-.25c.04-.3,.13-.58,.41-.65l.11-.19-.06,.02,.07-.05,.46-.79,.92-1.57c1.69-3.01,3.33-5.78,5.23-8.68,.17,.28,.28,.54,.16,.68l.17,2.94c-.22,3.9-.13,7.71-1.94,11.61-.65,1.49-1.04,4.42-1.32,5.99,.31,2.23,2.47,1.55,2.6,1.48,1.92-.93,1.21-2.09,2.71-4.51-.9,1.66-.8-1.5,.61-3.01,2.15-2.21,1.24-6.03,1.65-9.25,.09-.83-.02-1.71-.02-2.7-.07-1.35-.2-2.7-.56-4.04Zm-10.99,10.69c-.1-1.82,1.5-3.6,1.83-3.77,0,.42-1.03,3.36-1.83,3.77Z"/><path class="cls-5" d="M224.44,151.54c0,.1-.36-.54-.35-.35-.07,.3-.06,.69-.25,.77,0,.18-.52-.47-.52-.29-.09,.27-.18,1.38,.11,1.21l.94-.95,.39-1.37,.27-.1-.5-.06c-.25-.07,.07,.85-.09,1.16Z"/><path class="cls-5" d="M223.04,150.35l-.91,.35c.01,.09,.03,.2-.02,.16l-.12-.12-.13,.03-.03,.05h0l.06,.18-.11-.09,.04-.07h0v-.02l.02-.05-.31,.03-.05,.05c-.05,.08-.11,.15-.22-.05h-.06l.02,.04-.03-.04h-.71c-1.02-.07-1.9,.08-2.95-.11-.57-.12-1.09-.29-1.62-.59-1.03-.56-2.04,0-3.08-1.21-.41-.43-1.25-.24-1.67-.21-.59,.74-.34,2.73-.32,2.84,.29,1.7,.58,.77,1.21,1.79-.43-.58,.38-1.07,.77,.1,.56,1.78,1.52,.44,2.34,.91,.2,.12,.43,.05,.67,.09,1.31,.61,2.57-.14,4.05-.22,.39-.05,.66-.51,.94-.83,.22-.14,.52,.02,.72-.03,.3-.08,.52-.31,.71-.56l-.71,.47c-.2,.08,0-.61,.08-.76,.03-.11,.26,.35,.29,.24,.12-.03,.18-.26,.26-.42,.02-.11,.16,.33,.18,.27,.14-.18,.07-.79,.22-.71l.31,.1,.15-.04,.05-.15,.38-.95-.02-.03c-.11,.1-.26,.12-.51-.08,.1,.07,.15,.18,.09,.24l-.15-.18c.06-.17,.11-.33,.37-.08v-.17l.2,.28,.06-.07c-.16-.18-.46-.37-.46-.37Zm-2.6,.62c.05-.21,.16-.05,.29,.16-.05,.1-.17,.04-.29-.16Z"/></g><g><path class="cls-4" d="M180.38,129.9c-.26,.25-.55,1.43-.38,1.41l.75-.49,1.18-.66,.19,.18-.1-.5c-.05-.31-.79,.65-1.01,.76-.06,.08,.27-.78,.13-.62-.24,.12-.47,.51-.61,.54-.09,.21-.03-.81-.15-.61Z"/><path class="cls-4" d="M182.6,129.43c-.2,.63-.1,.88,.18,1.06l.5-.43c-.13,0-.38,.02-.38,.02,.37-.59-.07-.71-.45-.75l-.26,.4c.14,.08,.35-.06,.41-.31Z"/><path class="cls-4" d="M178.75,137.83c2.46,.69,4.42-.89,6.45-3.04,.86-.95,.6-3.31,0-4.27-1.35-.98-3.08,.97-3.24,.93-1.79,1.15-.56,4.76-2.56,1.97,.66-.36-1.55-1.46-1.5-1.45,.08,0,1.29-.02,1.01-.09,.01-.1-.59-1.25-.45-1.14l.69,.47,.43-.89,.1-.04c0-.27-.21-.64-.21-.64-.48-.08-1.47,0-2.55,.58l-.07,.04,.04,.03-.06-.02-.32,.19-.53,.52c-1.2,1.27-1.04,3.36,.16,4.86,.58,.86,1.51,1.65,2.63,2Z"/><path class="cls-4" d="M199.08,137.37c0,.16-.64-.89-.64-.57-.16,.5-.18,1.16-.51,1.36-.02,.33-.94-.7-.95-.38-.16,.5-.3,2.5,.21,2.11,.73-.65,1.1-1.25,1.71-1.89l.91-2.32,.54-.19-.95-.08c-.48-.1,.02,1.43-.32,1.95Z"/><path class="cls-4" d="M196.25,137.68l-1.22,.65-.16,.06-.04,.07h0v-.06l-.37,.09-.06,.06c-.06,.09-.13,.18-.27-.02h-.07l.03,.04-.04-.03-.3,.03-.59,.07c-1.31,.07-2.32,.59-3.67,.64-.73,.01-1.44-.04-2.15-.18-1.39-.27-2.47,.61-4.12-.26-.62-.3-1.56,.14-2.06,.3-.49,.91,.37,2.82,.42,2.93,.83,1.6,.91,.6,1.96,1.42-.69-.45,.16-1.18,.95-.13,1.14,1.62,1.86-.03,2.97,.21,.27,.06,.51-.07,.82-.1,1.67,.27,2.89-.71,4.6-1.2,.44-.15,.68-.7,.96-1.05,.24-.16,.74-.83,.84-1.01,.02-.12,.33,.34,.35,.21,.14-.05,.19-.29,.28-.46,.02-.12,.2,.32,.21,.25,.15-.21,.04-.85,.21-.8l.35,.05,.17-.07,.05-.17,.43-1.11-.03-.03,.07-.09c-.18-.17-.52-.32-.52-.32Z"/><path class="cls-4" d="M180.73,148.86c-.22-.24-.27-1.1-.41-1.19-.09-.1-.27-.23-.46-.34,0,0,0-.01,0-.02,.03-.19,.13-.31,.24-.41l.62-.43c.22,.24,.55,.65,.55,.65l-.95-3.77c-.07,.19-1.91,1.13-1.84,1.17,.04,.05,.1,.1,.15,.14l-.04,.04-.85,.89c-1.49,2.18-2.2,4.51-2.96,7.06-.36,1.39-.87,2.73-1.28,4.04-.87,2.65-.41,5.15-1.72,7.8-.46,1.03-.3,2.96-.28,3.94,.75,1.34,2.82,.74,2.93,.67,1.77-.75,.81-1.44,1.9-3.05-.62,1.1-1.09-.87,.14-1.88,1.91-1.42,.53-3.66,1.22-5.45,.17-.44,.13-.94,.23-1.48,.96-2.69,.69-5.38,1.77-7.9,.16-.36,.18-.75,.17-1.15,.11,.2,.73,.55,.84,.78,0,0,.15-.04,.02-.13Z"/><path class="cls-4" d="M164.87,136.62c.37-.05,.8-.27,1.01-.17,.23-.14-.33,.89-.1,.76,.4-.1,1.71-.94,1.38-1.08l-1.5-.26-1.72,.15-.18-.32,.02,.68c-.03,.38,1.06-.45,1.44-.41,.11-.06-.57,.75-.34,.64Z"/><path class="cls-4" d="M175.37,143.64c.38,.47,1.17,.33,1.59,.32,.64-.72,.63-2.78,.61-2.9-.13-1.77-1.61-.87-1.94-2.1-.46-1.88-1.57-.52-2.27-1.08-.18-.14-.39-.08-.61-.15-1.06-.77-2.22-.19-3.25-.65-.29-.07-.68,.29-.98,.4-.2,0-.29-.29-.42-.34-.21-.08-.46,0-.74,.1l.68-.02c.16,.03-.34,.52-.51,.59-.09,.08,.07-.43-.02-.35-.09-.04-.27,.12-.44,.19-.09,.08,.13-.34,.09-.31-.17,.02-.56,.49-.58,.32l-.06-.3-.09-.09-.13,.06-1,.28h-.09c-.1,.21-.12,.55-.12,.55l.97,.71,.11,.1h.06l-.04,.02,.27,.21h.08c.1-.03,.2-.06,.15,.17l.05,.04v0l.22,.16,.42,.31c.93,.7,1.98,.92,3.06,1.35l1.7,.91c1.11,.71,2.21,.18,3.23,1.49Z"/><path class="cls-4" d="M182.49,147.77c.32,.3,1.6,.94,1.4,.41-.34-.8-.7-1.27-1.05-1.97l-1.51-1.49-.09-.51-.12,.77c-.11,.37,1.01,.44,1.32,.89,.11,.05-.66,.26-.45,.37,.32,.3,.74,.51,.84,.84,.21,.11-.57,.59-.35,.7Z"/><path class="cls-4" d="M187.11,161.6c.05-.38-.1-.74-.15-1.17,.18-2.33-.98-4.23-1.35-6.58-.14-.62-.68-1.06-1.04-1.52-.17-.36-.04-.82-.11-1.12-.12-.48-.38-.86-.68-1.21,.19,.42,.39,.72,.58,1.2,.11,.32-.65-.09-.83-.27-.13-.07,.35-.34,.23-.41-.05-.2-.3-.34-.49-.52-.13-.07,.34-.17,.28-.21-.18-.27-.82-.35-.75-.57l.1-.45-.04-.25-.16-.13s-.97-.39-.91-.27l-.2,.16c-.19-.18-.38-.35-.1-.65,0,0-.13-.06-.19-.09l-.17,.26,.43,1.74c.1,.02,.04,.27,.04,.27,0,0,.36,1.22,.16,1.36v.1l.05-.03-.03,.05,.04,.44,.08,.87c.12,1.9,.55,3.59,.71,5.55,.07,1.07,.07,2.1-.01,3.14-.18,2.06,.78,3.73-.05,5.92-.28,.83,.2,2.21,.38,2.94,.96,.85,2.88-.03,2.98-.1,1.61-.91,.57-1.22,1.36-2.63-.42,.94-1.22-.42-.18-1.43,1.58-1.48-.15-2.86,.04-4.37Z"/></g><path class="cls-6" d="M49.67,250.09c.55,.45,.58,1.41,.52,1.52-.28,.63-1.02,1.16-2.21,1.6-.97,.35-7.21,.62-8.33,.25-1.95-.65-4.49-1.91-4.34-6.07,.05-1.45,.67-2.8,1.64-4.12,.78-1.06,4.72-5.51,15.91-10.07,1.94-.79,9.59-3.9,9.73-3.95,1.03-.33,1.42,3.17,.23,3.54-.51,.16-6.17,2.65-8.32,3.8-1.51,.8-10.51,5.04-12.89,6.81-4.48,3.34-3.79,6.16-2.11,6.64,1.56,.45,5.47,.18,6.46-.53-.56,.4-2.91-1.58-2.82-3.27,.02-.32,.11-.6,.32-.81,.22-.22,.57-.39,1.07-.52,1.06-.28,9.46-1.2,14.83-.36,.73,.11,2.01,1.65,1.44,2.42-.42,.57-10-.03-11.7,1.44,0,0-.48,.81,.55,1.67Z"/><path class="cls-6" d="M115.68,248.08c-.05-1.44,.35-1.97,1.04-3.05,.58-.87,5.67-6.86,5.67-10.06,0-2.12-1.1-8.87-3.54-7.73-1.91,.89-3.37,2.25-4.28,4.35-.63,1.45-1.08,3.53-1.36,6.23-.37,3.55-.61,5.55-.71,6-.61-.39-2.08-1.75-3.89-1.77-2.53-.03-4.76,.82-6.68,2.47-.53,.45-.98,.94-1.37,1.46-.55,.36-6.25,4.86-7.95-.77-.11-.38-.57-2.06-1.18-1.75-.8,.41-2.77,2.38-2.94,2.38-.28,.02-.61-1.49-.72-1.89-.36-1.26-1.96-.81-2.52-.5-2.68,1.45-7.9,6.87-8.13,7.1-3.23,3.3-8.8,.4-9.76-.01,.41-.52,.78-1.09,1.26-1.59,1.86-1.99,.99-4.74,.06-5.67-.52-.52-2.03-1.21-2.71-1.21-5.45,0-3.65,5.72-3.54,6.33,.02,.2,.1,.46,.24,.78,.14,.32,.21,.51,.21,.55,0,.2-3.23,2.83-4.9,.93-.42-.47,.12,2.16,.83,2.57,1.68,.96,5.74-.19,6.43-.59,.19-.11,.45,.14,.76,.32,2.27,1.27,7.63,1.88,10.07,1.18,2.29-.66,5.95-3.65,8.11-5.03-.07,.28-1.31,3.17-.4,4,.34,.31,.68,.61,1.33,.58,1.75-.08,4.93-4.91,4.93-4.91,0,0,1.74,3.51,4.22,3.51,2.15,0,3.9-1.44,5.01-3.02-.13,1.25,.1,2.23,.19,2.65,.51,2.33,2.88,2.69,3.86,2.44,5.41-1.38,8.47-4.3,10.12-5.51,.91,1.58,1.77,3.16,2.68,4.71,1.17,1.8,2.67,2.59,4.14,2.59-.13-.26-1-1.5-2.62-3.73-1.14-1.58-1.9-3.02-1.94-4.35Zm-49.89,.31l-.56,.02-.35,.35c-.15-.37-.59-1.6-.59-2.5,0-.59,.14-1.84,1.64-1.72,.53,.04,1.4,.28,1.55,1.17,.06,.34-.19,.85-.45,1.32-.41,.75-1.24,1.36-1.24,1.36Zm36.79,3.29c-.75,.13-1.52-.75-.65-2.57,.52-1.08,3.66-4.3,6.9-4.62,.51-.05,2.38,.1,2.43,1.33,.03,.65-4.19,5.09-8.68,5.85Zm12.39-11.37c0-1.12,.22-2.33,.65-3.63,.3-.91,.79-2.05,1.46-3.43,.43-.89,.79-1.5,1.07-1.85,.58-.76,1.17-1.08,1.75-.97,.58,.11,1.6,3.19-.26,7.51-.94,2.19-4.31,4.83-4.31,4.83-.24-.78-.36-1.6-.36-2.46Z"/><path class="cls-6" d="M156.43,252.01c-.19-.31-.34-.48-.44-.52-.1-.04-.19-.07-.27-.07-.19,.05-.37,.09-.52,.13-.15,.04-.35,.06-.58,.06-.63,0-1.12-.06-1.47-.19-.36-.13-.68-.41-.97-.83-.29-.42-.49-.82-.58-1.19-.1-.37-.15-.78-.15-1.24,0-.52,.12-1.3,.35-2.34,.23-1.04,.35-1.82,.35-2.34,0-.87-.24-1.47-.71-1.79-.32-.22-.88-.33-1.65-.33h-1.14c-.3,0-.84-.14-1.62-.42-.78-.28-1.18-.5-1.2-.66,.11,.46-.11,1.19-.65,2.21-.28,.52-.66,1.2-1.14,2.05-.35,.72-.83,1.46-1.46,2.24-.17,.22-.77,.86-1.72,1.98-1.98,2.33-5.45,2.95-6.16,2.95-1.3,0-2.44-.08-3.43-.23-.99-.16-2.04-.47-3.14-.93,.41-.52,.83-1.05,1.25-1.59,.77-1,1.16-1.89,1.16-2.69,0-.41-.1-.87-.29-1.36-.11-.28-.36-.65-.74-1.1-.39-.45-.73-.79-1.03-1.01-.06-.04-.37-.16-.9-.34-.54-.18-.82-.31-.84-.37-1.28,.35-2.21,.92-2.81,1.72-.59,.8-.89,1.81-.89,3.02,0,.45,.05,.98,.16,1.59,.02,.2,.1,.46,.24,.78,.14,.32,.21,.51,.21,.55,0,.2-.27,.47-.81,.81-.35,.19-.65,.33-.91,.41-.26,.08-.56,.11-.91,.11-.09,0-.41-.03-.98-.08-.56-.05-1.04-.08-1.43-.08,0,1.06,.32,1.83,.97,2.33,.56,.43,1.32,.65,2.27,.65,.56,0,1.07-.05,1.51-.16,.44-.11,.91-.31,1.41-.62,.5-.3,.91-.46,1.23-.46,.22,0,.47,.11,.76,.32,.29,.21,.51,.35,.67,.41,.89,.37,1.76,.63,2.61,.77,.85,.14,1.77,.21,2.74,.21-2.77,0,6.25,0,8.11-1.45,.32-.25,.92-.66,1.74-1.32,.81-.66,1.61-1.7,2.39-3.1,1.04-1.88,1.66-2.97,1.85-3.25,.43-.61,.8-.91,1.1-.91,.41,0,.68,.42,.81,1.27,.13,.85,.2,1.8,.2,2.87v.65c0,1.48,.44,2.72,1.31,3.73,.88,1.01,1.97,1.51,3.29,1.51,.58,0,1.14-.09,1.67-.28,.53-.19,.91-.37,1.13-.54,.23-.17,.34-.41,.34-.69,0-.26-.1-.55-.29-.85Zm-29.7-3.92l-.37,.33h-.35l-.35,.35c-.15-.37-.29-.78-.41-1.25-.12-.47-.18-.88-.18-1.25,0-.52,.12-.94,.37-1.25,.25-.31,.67-.47,1.27-.47,.54,0,.93,.11,1.18,.33,.25,.22,.37,.5,.37,.85,0,.43-.15,.87-.45,1.32-.3,.44-.66,.8-1.08,1.06Z"/><path class="cls-6" d="M222.43,231.14c.41,0,.83,.25,1.25,.76,.42,.51,.63,1.01,.63,1.51,0,.22-.04,.4-.13,.55-.52,.95-1.52,1.71-2.99,2.27-1.34,.43-2.68,.85-4.02,1.27-1.54,.54-2.61,1.25-3.21,2.11,1.11,.61,1.82,1.02,2.15,1.23,.82,.54,1.4,1.07,1.72,1.59,.44,.65,.74,1.48,.91,2.5,.46,2.73,.75,4.24,.88,4.54-.91,0-1.49,.06-1.74,.16-.25,.11-.73,.53-1.45,1.26-.56,.54-.91,.86-1.04,.97-.35,.28-.7,.54-1.07,.78-1.45,.82-2.54,1.38-3.28,1.68-1.28,.52-2.5,.78-3.67,.78h-.84c-1.19-.13-2.24-.47-3.15-1.01-1.08-.65-1.8-1.49-2.14-2.51-.19-.59-.29-1.13-.29-1.63,0-1.91,1.32-3.25,3.96-4.01,1.66-.48,3.86-.72,6.58-.72,.39,0,.82,.04,1.3,.13,1.3,.24,2.06,.36,2.27,.36,.45,0,.81-.09,1.05-.26,.25-.17,.37-.51,.37-1.01,0-.13-.02-.35-.06-.65-.19-.95-1-1.59-2.4-1.91-1.73-.39-2.81-.81-3.24-1.27-.69-.71-1.04-1.43-1.04-2.14,0-.65,.27-1.25,.81-1.82,.71-.76,1.85-1.43,3.4-2.01,1.86-.65,3.24-1.15,4.15-1.49,1.56-.61,2.87-1.29,3.96-2.04h.36Zm-18.71,20.11c.73,.48,1.37,.78,1.9,.9,.53,.12,1.31,.18,2.35,.18s2.22-.61,3.54-1.83c.89-.83,1.59-1.4,2.11-1.73-1.08-.52-2.26-.78-3.54-.78s-2.51,.27-3.65,.82c-1.14,.54-2.04,1.36-2.71,2.45Z"/><path class="cls-6" d="M228.8,242.79c.3,.22,.64,.55,1.03,1.01,.39,.45,.63,.82,.74,1.1,.19,.5,.29,.95,.29,1.36,0,.8-.39,1.7-1.16,2.69-.43,.54-.85,1.07-1.25,1.59,1.1,.47,2.15,.78,3.14,.93,1,.16,2.14,.23,3.44,.23,.73,0,1.68-.02,2.85-.05,1.17-.04,1.78-.05,1.85-.05v2.44c-.76,0-1.61,.03-2.56,.1-2.23,.15-3.58,.22-4.05,.22-.98,0-1.89-.07-2.74-.21-.85-.14-1.72-.4-2.61-.77-.15-.07-.38-.2-.67-.41-.29-.21-.54-.32-.76-.32-.33,0-.74,.15-1.23,.46-.5,.3-.97,.51-1.41,.62-.45,.11-.95,.16-1.51,.16-.95,0-1.71-.21-2.27-.65-.65-.5-.97-1.27-.97-2.33,.39,0,.87,.03,1.43,.08,.56,.05,.89,.08,.98,.08,.35,0,.65-.04,.91-.11,.26-.08,.56-.21,.91-.41,.54-.35,.81-.62,.81-.81,0-.04-.07-.23-.21-.55-.14-.33-.22-.59-.24-.78-.11-.61-.16-1.13-.16-1.59,0-1.21,.3-2.22,.89-3.02,.6-.8,1.53-1.37,2.81-1.72,.02,.07,.3,.19,.84,.37,.54,.18,.84,.3,.91,.34Zm-2.47,5.62h.35l.38-.33c.42-.26,.78-.61,1.08-1.06,.3-.44,.45-.88,.45-1.32,0-.35-.12-.63-.37-.85-.24-.22-.64-.33-1.18-.33-.6,0-1.03,.16-1.27,.47-.25,.31-.37,.73-.37,1.25,0,.37,.06,.78,.18,1.25,.12,.46,.26,.88,.41,1.25l.35-.35Z"/><path class="cls-6" d="M238.7,245.58c.31,.11,1.09,.56,2.37,1.36,.45,.28,.84,.42,1.17,.42,.48,0,1.06-.24,1.75-.71,.97-.88,1.73-1.54,2.29-1.96,.55-.42,1.01-.63,1.38-.63,.48,0,.79,.4,.94,1.2,.04,.3,.06,.51,.06,.62,0,.84-.46,1.65-1.39,2.43-.5,.39-.99,.78-1.49,1.17,.63,.52,1.37,1.03,2.23,1.52,.26,.15,1.04,.58,2.33,1.3h.35c.16,.2,.26,.38,.32,.56,.06,.17,.08,.41,.08,.72-.02,.35-.03,.62-.03,.81-.15,.02-.28,.03-.41,.03h-.24c-.71,0-1.47-.15-2.27-.45-.8-.3-1.59-.62-2.37-.94-.28-.11-.5-.19-.65-.26-.56-.26-.94-.41-1.13-.45-.52-.13-.89-.2-1.1-.2-.24,0-.53,.12-.88,.36-.35,.24-.63,.42-.84,.55-.69,.39-1.21,.58-1.56,.58-.5,0-.74-.35-.74-1.04,0-.37,.06-.78,.18-1.23,.12-.45,.2-.78,.24-.97,.04-.19,.07-.35,.07-.45,0-.35-.34-.84-1-1.49-.78-.71-1.17-1.31-1.17-1.78,0-.24,.07-.54,.19-.89s.23-.63,.29-.83c.08,.09,.18,.17,.29,.26,.35,.24,.59,.38,.74,.42Z"/><path class="cls-6" d="M257.87,243.82c.09,.63-.11,1.38-.59,2.25-.65,1.15-1.29,2.29-1.92,3.42,1.47-.43,2.99-1.18,4.55-2.24,.67-.45,1.98-1.47,3.93-3.05,.37,.48,.63,.9,.79,1.28,.16,.38,.24,.74,.24,1.09,0,.41-.23,1.09-.7,2.05-.46,.95-.7,1.83-.7,2.63,0,.37,.47,.98,1.41,1.83,.94,.85,1.41,1.46,1.41,1.8,0,.39-.35,.7-1.04,.94-.37,.11-.66,.16-.88,.16-1.1,0-2.11-.84-3.02-2.53-.02-.07-.37-.8-1.04-2.21-1.23,.54-2.25,.96-3.05,1.27-1.5,.58-2.69,.88-3.57,.88-.71,0-1.26-.18-1.64-.55-.38-.37-.57-1.01-.57-1.92,0-1.28,.31-2.55,.91-3.8,.21-.46,1.44-2.25,3.67-5.4,.2-.17,.53,.07,1.01,.73,.48,.66,.74,1.12,.78,1.38Z"/><path class="cls-6" d="M281.22,244.18c.24,.33,.36,.71,.36,1.17,0,.65-.42,1.69-1.26,3.11-.45,.78-.73,1.35-.84,1.7s-.19,.67-.26,.94c-.06,.27-.1,.5-.1,.7,0,.41,.12,.81,.36,1.2,.11,.2,.26,.34,.47,.43,.2,.09,.45,.13,.73,.13,.21,0,.95-.13,2.21-.38,.58-.12,1.05-.18,1.39-.18h.49c-.24,.84-.83,1.69-1.77,2.55-.94,.85-1.88,1.28-2.8,1.28-1.02,0-1.88-.79-2.6-2.36-.43-1.19-.87-2.38-1.3-3.56-.93,.73-1.9,1.36-2.92,1.87-1.28,.65-2.39,.97-3.34,.97-.67,0-1.26-.17-1.75-.5-.5-.34-.87-.85-1.1-1.56-.24-.7-.36-1.39-.36-2.06,0-1.99,.92-3.99,2.76-6,1.64-1.8,3.53-3.13,5.67-4.02,1.12,.17,2.25,.73,3.37,1.65,.93,.76,1.79,1.73,2.59,2.92Zm-11.97,6c.22,.33,.52,.49,.91,.49,.41,0,.9-.14,1.46-.42,.26-.13,.53-.27,.81-.42,1.34-.63,2.47-1.32,3.38-2.08,1.34-1.12,2.02-2.23,2.02-3.31,0-.17-.03-.38-.1-.62-.17-.71-.54-1.07-1.11-1.07-.3,0-.65,.1-1.04,.29-.13,.07-.72,.45-1.79,1.17-1.06,.71-2.14,1.81-3.25,3.28-.15,.2-.7,.97-1.66,2.34l.36,.36Z"/><path class="cls-6" d="M281.4,254.05c.26-.17,.54-.34,.84-.5,.3-.16,.61-.33,.91-.5,.8-.5,1.65-1.2,2.56-2.11,1.06-1.15,1.85-1.98,2.37-2.5,.35-.33,.69-.65,1.04-.98,.43-.43,.68-.81,.73-1.12,.05-.32,.08-.63,.08-.96,0-.45-.08-1.2-.23-2.24-.15-1.04-.22-1.83-.22-2.37,0-.35,.01-.61,.03-.78,.17-1.54,.53-3.03,1.07-4.48,.65-1.75,1.46-3.08,2.43-3.99,.82-.76,1.65-1.14,2.49-1.14,1.06,0,1.99,.52,2.8,1.56,.81,1.04,1.28,2.19,1.41,3.44,.02,.17,.04,.34,.05,.5,.01,.16,.02,.35,.02,.57,0,1.8-.55,3.63-1.65,5.52-.82,1.38-2.05,2.95-3.69,4.71-.28,.3-.55,.6-.81,.88-.45,.52-.68,.94-.68,1.27,0,.24,.09,.47,.28,.7,.18,.23,.49,.47,.92,.73,.43,.26,1.72,.62,3.86,1.07,1.58,.35,2.62,1.04,3.11,2.08-1.21,.26-2.23,.39-3.05,.39-1.06,0-2.27-.25-3.63-.74-.39-.15-.9-.52-1.54-1.1-.64-.58-1.09-.93-1.35-1.04-.26-.11-.5-.16-.71-.16-.37,0-.77,.23-1.2,.68-.78,.82-1.18,1.24-1.2,1.27-1.66,1.4-2.53,2.13-2.59,2.17-1.17,.86-2.14,1.3-2.92,1.3-.5,0-.93-.16-1.3-.49-.37-.33-.68-.87-.94-1.63l.72,.02Zm15.5-20.44c-.22-.06-.45-.06-.7,.02-.25,.08-.49,.19-.73,.34-.5,.28-.98,.73-1.45,1.36-.47,.63-.81,1.23-1.02,1.82-.39,1.15-.66,2.26-.81,3.33-.15,1.07-.23,2.31-.23,3.72,1.49-.93,2.77-2.26,3.84-3.98,1.07-1.72,1.61-3.44,1.61-5.15,0-.43-.05-.92-.16-1.46h-.35Z"/><path class="cls-6" d="M298.77,250.92c.37,.07,.76,.1,1.17,.1,.54,0,1.09-.04,1.66-.13,.56-.09,1.07-.21,1.53-.36,.45-.15,.98-.51,1.59-1.07,1.23-1.12,2.03-1.69,2.4-1.69,.28,0,.55,.1,.79,.31,.25,.2,.5,.56,.76,1.05,.39,.76,.92,1.31,1.59,1.65,.56,.28,1.25,.42,2.08,.42,.35,0,.67-.02,.97-.06,1.02-.15,1.55-.23,1.59-.23v.42c.35,.8,.5,1.24,.46,1.33-.22,.48-.57,.82-1.07,1.04-.63,.33-1.31,.49-2.04,.49-1.32,0-2.51-.51-3.57-1.52-.37-.41-.73-.82-1.07-1.23-.15-.15-.33-.23-.52-.23s-.6,.13-1.23,.39c-.33,.15-.95,.59-1.88,1.33-.65,.52-1.32,.78-2.01,.78-1.88,0-3.1-.15-3.66-.45-.84-.46-1.27-1.48-1.27-3.06,.15,.09,.3,.18,.45,.27,.63,.27,1.06,.42,1.3,.47Zm10.57-11.68l.72,.71c.07,.24,.1,.44,.1,.62,0,.37-.13,.71-.39,1.04-.07,.09-.33,.36-.78,.81-.17-.43-.33-.84-.46-1.23-.22-.63-.33-1.2-.33-1.72,0-.35,.03-.78,.1-1.3,0,.02,0,.03,.03,.03,.52,.48,.86,.82,1.01,1.04Z"/><path class="cls-6" d="M328.05,230.43c.15,.04,.35,.24,.6,.6,.25,.36,.41,.65,.47,.88,.06,.23,.1,.47,.1,.73,0,.5-.13,1.04-.39,1.62-.37,.67-.63,1.16-.78,1.46-1.54,2.84-3.06,5.66-4.57,8.48,.58,.13,1.25,.22,2.01,.27,.76,.06,1.49,.08,2.21,.08,.04,.09,.09,.17,.13,.26,.3,.15,.62,.3,.94,.45,.13,.24,.19,.45,.19,.65,0,.35-.18,.64-.53,.89-.36,.25-.74,.44-1.15,.58-.41,.14-1,.28-1.77,.41s-1.59,.24-2.45,.34c-.87,.1-1.7,.65-2.5,1.67-2.25,2.89-3.51,4.42-3.8,4.57-.04-.15-.08-.37-.11-.65-.03-.28-.05-.56-.05-.84,0-.35,.03-.86,.1-1.56,.06-.69,.1-1.2,.1-1.52,0-.3-.01-.53-.03-.68-.26,0-.77,.06-1.53,.17-.3,.05-.57,.07-.81,.07-.37,0-.66-.06-.89-.18-.23-.12-.44-.38-.65-.78-.21-.4-.31-.75-.31-1.05,0-.41,.22-.73,.68-.94,.45-.22,1.04-.37,1.75-.45,1.77-.24,3.12-.73,4.04-1.48,.92-.75,1.8-2.02,2.65-3.82,1.08-2.21,2-4,2.76-5.39,1-1.82,2.08-3.55,3.25-5.2l.36,.36Z"/><path class="cls-6" d="M330.58,243.1c.08,.33,.13,.66,.13,1.01,0,.5-.14,1.19-.42,2.09-.28,.89-.42,1.52-.42,1.89,1.54-.54,2.97-1.33,4.31-2.38,1.34-1.05,2.5-2.25,3.47-3.62h.33c.09,.02,.28,.3,.58,.83,.3,.53,.47,.84,.49,.92,.11,.69-.19,1.68-.91,2.95-.5,.89-.78,1.43-.84,1.62-.67,1.88-1.67,4.08-2.98,6.58-1.15,2.14-2.29,4.28-3.44,6.42-1.28,2.53-2.2,4.77-2.76,6.71-.52-.26-.89-.58-1.12-.96-.23-.38-.34-.84-.34-1.38,0-.8,.28-1.85,.84-3.14,.43-.99,.88-1.99,1.33-2.98,.28-.8,.83-1.97,1.66-3.5,1.47-2.74,2.21-4.73,2.21-5.96-.86,.59-1.57,1.03-2.11,1.33-1,.58-1.84,.87-2.53,.87s-1.23-.27-1.67-.83c-.45-.55-.67-1.2-.67-1.94,0-1.13,.51-2.56,1.53-4.3,.76-1.22,1.53-2.43,2.3-3.65,.13,.15,.27,.31,.42,.46,.35,.41,.55,.73,.62,.95Z"/><g><path class="cls-2" d="M180.1,175.36c-17.5-.64-35.5,5.13-50.01,17.8,1.63,2.08,3.23,4.19,4.86,6.28,12.17-12.52,28.39-19.4,45.15-20.05,16-.62,32.48,4.46,45.99,15.65,.07-.08,.13-.16,.19-.24-12.73-12.17-29.21-18.82-46.18-19.44Z"/><path class="cls-8" d="M189.18,183.37c-18.16-.67-36.88,5.56-51.66,19.26,1.35,1.63,2.75,3.21,4.25,4.72,.4,.4,.79,.8,1.19,1.19,12.28-13.23,28.97-20.48,46.22-21.15,12.21-.48,24.7,2.38,35.93,8.72,.27-.29,.55-.59,.81-.89-10.98-7.35-23.72-11.37-36.75-11.85Z"/><path class="cls-7" d="M199.15,191.37c-18.27-.67-37.11,5.63-51.93,19.5,.95,.95,1.9,1.9,2.84,2.84,.52,.52,1.04,1.04,1.56,1.55,.58,.28,1.18,.54,1.8,.77,12.24-12.9,28.7-19.98,45.73-20.64,7.96-.31,16.05,.8,23.82,3.36,.17-.28,.36-.55,.56-.83,.23-.32,.5-.63,.78-.95-7.97-3.39-16.5-5.29-25.16-5.61Z"/></g><path class="cls-1" d="M175.48,223.9h0l.08,.19,.2-.23c-.1,.05-.21,.07-.29,0h0l.02,.04h0Z"/><path class="cls-1" d="M175.14,228.21c.34-.24,.46-.54,.34-.77-.35,.22-.63,.47-.34,.77Z"/><path class="cls-1" d="M175.59,224.27c0-.06-.02-.12-.04-.17,0,.01,0,.03,0,.04,.02,.04,.03,.09,.05,.13Z"/><path class="cls-4" d="M175.75,223.87l.1-.06c-.14,0-.28-.02-.42-.03l.03,.08h0c.08,.08,.19,.06,.29,.01Z"/><path class="cls-4" d="M175.53,224.1v.03s.01-.03,.02-.04l-.08-.19,.05,.2Z"/><polygon class="cls-4" points="175.48 223.9 175.48 223.9 175.48 223.9 175.48 223.9"/><path class="cls-4" d="M175.58,224.5c.02-.08,.02-.16,.01-.23-.01-.04-.03-.09-.05-.13-.04,.11-.04,.22,.04,.36Z"/><path class="cls-4" d="M175.58,224.5c-.07-.14-.07-.26-.04-.36v-.03l-.07-.2h0l-.09,.81c.26-.11,.26-.27,.21-.45,.01,.07,.01,.15-.01,.23Z"/><g><path class="cls-4" d="M240.88,103.86c-.42-.18-1.14-.19-1.17-.2h-.07l-.05,.05c-.6,.64-1.25,1.25-1.99,1.87l-.09,.07-.18,.14-1.12,.87s-.35,.47-.44,.43l-.52,.27h0l-1.42,1.04c-1.37,.96-2.53,1.98-3.76,3.06-.9,.8-1.83,1.62-2.86,2.41-1.33,.99-2.65,1.84-4.05,2.58-1.21,.64-2.14,1.74-3.04,2.8-1.24,1.46-2.51,2.97-4.57,3.4-.85,.21-1.65,.98-2.2,1.59-2.06-1.58-4.23-2.98-7.45-4.82-4.14-2.22-8.56-3.46-13.1-4.65-1.18-.24-2.98-.75-6.33-1.18l-.4,.21c.56,.19,4.08,.69,4.67,.86,1.02,.29,2.08,.59,3.16,1.06,.93,.36,1.98,.6,3.19,.87,1.68,.38,3.58,.82,5.67,1.71,.17,.06,.2,.15,.27,.32,.1,.26,.24,.61,.94,.89,2.62,1.15,4.78,2.23,6.89,3.76,.58,.26,1.11,.94,1.63,1.6l.08,.28c-.11,.13-.21,.26-.3,.37l-1.16-.92-.22,.21c.23,.33,.65,.84,1.25,1.53,.35,1.99,3.06,3.59,3.08,3.6,.15,.08,.26,.12,.38,.17l.09,.04c4.81,4.87,8.54,10.51,11.1,16.79,.05,.07,.1,.14,.15,.21,.26,.34,.48,.64,.63,1.2l.38,1.66c.24,.62,.41,1.27,.57,1.91,.09,.35,.18,.7,.28,1.05l.19,.55h-.04c.52,1.67,.78,3.4,1.04,5.07,.09,.61,.19,1.23,.29,1.85,.11,.46,.17,.92,.21,1.32v.12c.22,1.65,.44,3.35,.17,4.41l-.05,1.25h.03l-.04,.22c-.04,.57-.06,1.15-.08,1.71-.04,1.17-.08,2.38-.31,3.56-.45,3.58-1.24,7.01-2.35,10.2-3.38,10.02-9.57,18.7-17.91,25.1-8.43,6.47-18.46,10.11-29,10.56-.05-.06-4.19,0-4.49,0-12.26-.57-24.18-5.77-32.71-14.28-8.18-7.99-13.58-18.51-15.22-29.64-1.7-11.51,.85-22.9,7.17-32.07,4.19-7.5,16.57-18.7,25.07-21.08,4.35-1.88,6.35-3.38,6.14-4.58-.2-1.09-2.17-1.41-2.65-1.44h-.04c-7.96,0-14.07,2.81-25.15,11.56h0c-.38,.3-2.92,2.54-2.92,2.54,4.06-3.25,13.48-6.65,10.52-5.39-.38,.53-7.23,4.71-9.42,6.57-3.1,2.62-7.48,7.97-10.13,12.69-4.66,6.1-6.95,15.22-6.45,25.68,.49,10.09,3.61,20.34,8.57,28.11,2.49,4.6,6.34,8.69,9.78,12.07,9.85,9.85,23.28,15.36,37.83,15.51-.18,1.67-.26,3.27-.35,4.96-.08,1.55-.16,3.16-.33,4.82-.13,1.18-.33,2.44-.6,3.85-1.03-.17-2.05-.22-3.04-.26-2.12-.1-4.12-.19-6.3-1.42-.58-.3-1.39-.44-2.49-.44-.75,0-1.52,.07-2.14,.12-.27,.02-.53,.05-.75,.06h-.05l-.04,.03c-1.83,1.38-.98,4.88-.83,5.22,.69,1.86,1.31,2,2.17,2.19,.52,.12,1.11,.25,1.88,.8,.06,.05,.13,.11,.21,.16l.18-.25c-.07-.05-.13-.1-.2-.15-.1-.08-.24-.24-.19-.38,.05-.14,.3-.28,.72-.28,.28,0,1.26,.08,2.01,1.15,.78,1.17,1.73,1.68,3.09,1.68,.57,0,1.17-.09,1.75-.18,.58-.09,1.17-.18,1.74-.18,.43,0,.81,.05,1.16,.16,.03,0,.06,.02,.09,.02-.12,2.07-.4,3.84-1.35,5.69-.62,1.32-.45,3.5-.32,5.1,.02,.3,.05,.58,.06,.82v.04l.03,.04c.57,.83,1.59,1.27,2.96,1.27,1.19,0,2.19-.32,2.27-.36,1.86-.76,1.99-1.44,2.19-2.39,.12-.57,.25-1.22,.81-2.09,.05-.07,.11-.14,.16-.23l-.26-.17c-.05,.08-.1,.15-.15,.22-.24,.3-.46,.27-.59-.09-.21-.63-.02-1.89,1.08-2.75,1.8-1.34,1.79-3.01,1.57-4.75,.22-.02,.44-.04,.66-.06,1.22-.12,2.48-.24,3.77-.24,.37,0,.73,.01,1.09,.03,.84,0,1.58-.41,2.3-.79,.27-.15,.53-.29,.76-.39,.34-.07,.77,.03,1.16,.13,.28,.07,.54,.14,.78,.14,.96,0,1.76-.34,2.42-.67l-.1-.29c-.34,.06-.65,.14-.94,.21-.41,.1-.83,.21-1.33,.27,.06-.2,.55-.76,.87-.96,.04,.05,.09,.14,.13,.19,.12,.2,.22,.37,.39,.37,.04,0,.07,0,.1-.03,.28-.02,.54-.21,.79-.38,.08-.06,.16-.12,.25-.17,.01,.05,.02,.11,.02,.15,.03,.2,.05,.36,.22,.36h.08l.02-.03c.27-.11,.5-.39,.71-.63,.14-.16,.31-.39,.44-.37l.73,.37,.56,.07,.34-.24c.63-.42,1.39-.84,2.28-1.25l.1-.05v-.05l.3-.07-.08-.17c-.2-.43-.79-.96-.81-.98l-.05-.04h-.06c-1.06,.03-2.07,0-3.21-.09h-.1l-.09,.17-.02,.04-.21-.25-1.67-.18-.26,.08c-.1,.04-.2,.09-.27,.09-.03,0-.1,0-.17-.18l-.03-.09-2.64-.36c-1.95-.3-3.78-.4-5.72-.51-1.07-.06-2.17-.12-3.3-.22,.39-2.33,.21-4.54,.01-6.88-.14-1.71-.29-3.48-.2-5.33,0-.92-.4-1.74-.79-2.53-.07-.14-.13-.27-.2-.41,14.02-1.1,27.11-7.17,36.89-17.09,5.01-5.07,8.64-11.11,11.41-18.98,1.7-4.49,3.49-9.64,3.94-13.81,.81-5.77,.54-11.34-.84-17.04l-.31,.07c1.01,5.36,1.46,9.78,.75,16.5-.03,.21-.05,.38-.08,.52-.02-.5-.04-1.19-.05-1.87-.03-1.53-.07-3.44-.21-4.57-.04-.5,.09-1.15,.22-1.83,.17-.9,.35-1.83,.18-2.51-.1-2.65-.74-4.99-1.47-7.7l-.04-.14c-.19-.6-.06-.84,.06-1.06,.1-.18,.21-.38,.09-.68-.67-2.25-1.57-4.04-2.37-5.62-.55-1.09-1.02-2.03-1.34-2.94-.36-1.26-.85-2.37-1.32-3.43-.21-.47-.42-.94-.61-1.41l-.05-.12c-.42-.9-.85-1.83-1.48-2.69l-1.29-1.67c-1.84-2.35-3.94-4.67-6.1-6.72h.02c.17-.11,.35-.21,.56-.3,.87,.65,1.01,.71,1.11,.71h.12l.04-.1c.05-.11,.04-.2-.54-.83,.14-.03,.53-1.63,1.56-1.63,.22,0,.45,.03,.67,.08,.39,.1,.75,.16,1.08,.16,1.5,0,2.21-1.03,2.91-2.03,.48-.69,.97-1.4,1.72-1.75,.36-.17,.61-.44,.89-.72,.15-.16,.31-.33,.47-.46,1.83-.97,3.06-2.87,4.26-4.7,.88-1.36,1.79-2.76,2.94-3.77,.51-.52,.68-1.25,.84-1.96,.06-.27,.12-.52,.18-.71,.17-.27,.47-.44,.77-.6,.22-.12,.43-.23,.58-.38,.58-.59,.83-1.31,1-1.94,0,0-.17-.36-.09-.36h.08l.1-.12v-.03c.08-.25,.03-.58-.02-.87-.03-.16-.07-.44-.02-.49l.7-.18s.71-2.13,.95-2.92l.03-.1-.04-.03,.13-.24-.16-.07Zm-21.54,29.25,8.82,50.74c.3-1.02,.68-1.93,1.05-2.76-.23,.87-.59,1.82-1.05,2.76Zm-27.86,58.45c.06-.02,.13-.04,.18-.04,.09,0,.24,.03,.41,.3l.05,.08c-.23-.04-.44-.15-.65-.35Zm-6.73,3.39h0l-.03-.15s.04,.03,.04,.05c0,0,.01-.02,.01-.03l-.02,.13Z"/><path class="cls-4" d="M246.76,138.29c-.35-.25-.73-.52-.96-.79h.05c.51-.07,.88-.11,.96-.4,.02-.06,.04-.22-.11-.36-.15-.22-.33-.43-.5-.63-.34-.4-.66-.79-.66-1.13v-.06c.1-.07,.28-.16,.4-.22,.4-.21,.73-.37,.75-.66,.01-.11-.03-.23-.12-.31-.39-.53-1.88-1.85-2.61-1.85-.2,0-.31,.08-.38,.16-.11,.11-.15,.28-.13,.49,.15,.95,.37,1.71,.59,2.44,.15,.51,.3,1.03,.43,1.6l2.09,3.48c.04,.21-.04,.43-.14,.69l-.02,.06,.51,.24,.75-1.26c.1-.13,.14-.28,.12-.43-.06-.39-.48-.69-1.02-1.07Z"/><path class="cls-4" d="M254.34,94.11v-.05l-.04-.04c-.66-.74-5.77-.86-5.91-.8-2.11,.67-2.27,1.27-2.49,2.12-.13,.5-.28,1.07-.91,1.83-.06,.06-.12,.13-.18,.21,0,0-1.39,.32-2.23,.22h-.13l-.15-.04-1.29-.21-.5-.1-1.99-.41c-1.44-.34-2.79-.45-4.22-.56-1.05-.09-2.13-.17-3.25-.36-1.43-.27-2.76-.66-4.08-1.2-1.07-.43-2.11-.5-3.11-.57-1.56-.1-3.03-.2-4.63-1.59-.44-.35-1.06-.52-1.9-.52-.56,0-2.22,.21-2.22,.21l-.04,.05c-1.43,1.65-.62,5.85-.61,5.89,.49,2.01,.91,2.25,1.63,2.49,.38,.13,1.42,.28,1.5,.12,.22-.44,1.24-.4,1.92,1.05,.58,1.32,1.32,1.93,2.34,1.93,.44,0,.88-.11,1.32-.21,.74-.17,1.52-.31,2.1-.03,.36,.17,.7,.15,1.01,.14,.18,0,.37-.01,.57,.01,.8,.32,1.66,.48,2.63,.48,.89,0,1.8-.13,2.68-.26,1.16-.17,2.37-.34,3.59-.23,.65,0,1.21-.47,1.75-.91,.2-.16,.38-.31,.57-.44,.23-.06,.52,.04,.79,.15,.21,.08,.41,.16,.61,.16,.71,0,1.84-.72,1.84-.72l.35-.36,.03-.04c.09-.05,.17-.14,.26-.27,.06-.02,.09-.05,.11-.08,.04-.06,.05-.12,.04-.17,.04-.07,.07-.13,.11-.2,.08-.14,.19-.35,.26-.41l.53,.41,.46,.1c-.71,.9-.66,2.91-.66,2.91-.02,.03-.31,1.31-.31,1.31-.07-.01-.17-.04-.25-.07-.26-.08-.48-.13-.58-.01-.04,.04-.05,.09-.05,.15-.06,.39,.01,1.42,.27,1.72,.08,.1,.17,.12,.22,.12,.09,0,.18-.05,.26-.15,.32-.43,.54-.83,.75-1.2l.07-.13c.08,.68-.25,3.64-.27,3.88-.73,2.36-.48,4.58-.22,6.92,.17,1.51,.35,3.08,.24,4.72,0,.82,.46,1.55,.91,2.25,.17,.27,.32,.52,.44,.73,.09,.36-.03,.74-.14,1.11-.08,.27-.16,.53-.16,.77,0,.94,.57,.53,.49,.04h0c.25,.04,.9,.55,1.13,.85-.06,.04,.63,2.95,.63,3.04l-.42,.71-.09,.56,.27,.34c.48,.61,.96,1.35,1.42,2.21l.05,.09h.05l.08,.29,.16-.06c.49-.19,1.08-.76,1.11-.78l.05-.05v-.07c-.03-1,0-2.02,.1-3.12l.04-.4,.4-2.89h0l.32-2.02c.34-1.88,.45-3.64,.56-5.5,.09-1.37,.17-2.79,.36-4.27,.27-1.87,1.7-8.1,1.77-9.4,.1-2.06,.2-4,1.6-6.1,.72-1.17,.32-5.04,.3-5.25Zm-13.67,7.65,7.07,31.37"/><path class="cls-4" d="M192.76,116.89c-1.85-.66-3.06-.62-4.47-.56-.26,0-.52,.02-.8,.03l-.05,.42,10.08,2.5,.13-.41-4.89-1.97Z"/><path class="cls-4" d="M201.37,120.24l-.24,.42c2.53,1.65,5.25,3.16,8.32,4.61l.23-.43c-2.41-1.49-4.98-2.91-8.31-4.6Z"/><path class="cls-4" d="M166.03,117l2.52-.52s.05,.04,.08,.07c.24,.23,.48,.41,1.23,.41,.11,0,.23,0,.41-.02l1.65-.52c.36-.11,.65-.21,.75-.24,.65,.06,1.32,.09,2.05,.09,1.68,0,3.39-.15,5.05-.3,1.49-.13,3.03-.27,4.57-.3l.06-.45-1.8-.58h-.04c-1.88,.04-2.08,.26-2.1,.44-4.26-.24-8.09,.06-11.81,.93l-.12-.07-2.65,.62,.03,.45h.12Z"/></g></svg>