<?xml version="1.0" encoding="UTF-8"?><svg id="Layer_1" xmlns="http://www.w3.org/2000/svg" viewBox="0 0 360 360"><defs><style>.cls-1{fill:#58595b;}</style></defs><g><path class="cls-1" d="M47.7,164.16c-.86-.83-1.11-1.34-1.31-2.32-1.08,1.5-2.39,2.26-4.33,2.26-1.18,0-2.1-.29-2.77-.89-1.08-.96-1.34-2.32-1.34-3.91v-11.62l2.42-.38v11.78c0,1.37,.19,2.07,.8,2.55,.41,.32,.89,.48,1.62,.48,1.46,0,2.42-.99,3.28-2.55v-11.84l2.42-.32v11.65c0,1.97,.29,2.74,.95,3.47l-1.75,1.66Z"/><path class="cls-1" d="M61.22,163.55v-10.85c0-1.59-.13-2.13-.51-2.64-.29-.38-.83-.64-1.43-.64-1.02,0-2.55,.76-3.56,1.94v12.19h-2.42v-12.16c0-2.2-.51-3.53-.51-3.53l2.36-.61s.48,.86,.48,2.07c1.46-1.46,2.83-2.04,4.33-2.04,1.15,0,2.16,.51,2.83,1.31,.67,.8,.89,1.81,.89,2.86v12.1h-2.45Z"/><path class="cls-1" d="M69.81,144.93c-1.08,0-1.94-.86-1.94-1.94s.89-1.94,1.97-1.94,1.94,.86,1.94,1.94-.89,1.94-1.97,1.94Zm-1.15,18.62v-15.91l2.55-.35v16.27h-2.55Z"/><path class="cls-1" d="M81.05,163.68h-2.51l-4.93-15.92,2.58-.51,2.96,10.5c.32,1.15,.73,3.09,.8,3.37,.03-.16,.32-1.85,.7-3.12l3.06-10.38h2.51l-5.16,16.04Z"/><path class="cls-1" d="M90.28,156.04v.35c0,1.4,.06,2.61,.61,3.63,.7,1.31,1.91,1.85,3.25,1.85s2.45-.57,3.41-1.5l.96,1.53c-1.31,1.31-2.96,2.01-4.77,2.01-3.91,0-6.21-3.15-6.21-8.43,0-2.71,.41-4.52,1.59-6.11,1.11-1.5,2.58-2.13,4.27-2.13,1.56,0,2.96,.67,3.88,1.78,1.18,1.4,1.59,2.86,1.59,6.59v.45h-8.56Zm5.41-5.57c-.45-.83-1.18-1.37-2.39-1.37-2.04,0-2.93,1.91-3.02,5.09h5.95c-.03-1.62-.16-2.99-.54-3.72Z"/><path class="cls-1" d="M108.58,150.02c-.1-.03-.41-.16-.73-.16-.7,0-1.53,.29-2.1,.92-.54,.64-.76,1.24-.76,2.23v10.54h-2.45v-12.16c0-2.26-.51-3.57-.51-3.57l2.42-.6s.51,1.05,.45,2.32c.95-1.66,2.1-2.39,3.82-2.39,.45,0,.86,.19,.86,.19l-.99,2.67Z"/><path class="cls-1" d="M115.58,164.03c-1.78,0-3.69-.64-5.16-1.66l.96-1.88c1.37,.99,2.86,1.53,4.36,1.53,1.59,0,2.64-1.15,2.64-2.71,0-1.4-1.15-2.1-2.48-2.58l-1.24-.45c-2.07-.73-3.69-2.07-3.69-4.3,0-2.93,2.07-4.93,5-4.93,1.56,0,3.12,.48,4.33,1.27l-.92,1.88c-1.21-.67-2.16-1.15-3.37-1.15-1.5,0-2.45,1.11-2.45,2.32,0,1.37,.64,2.1,2.26,2.67l1.27,.45c1.91,.67,3.85,2.01,3.85,4.39,0,3.15-2.16,5.12-5.35,5.12Z"/><path class="cls-1" d="M125.76,144.93c-1.08,0-1.94-.86-1.94-1.94s.89-1.94,1.97-1.94,1.94,.86,1.94,1.94-.89,1.94-1.97,1.94Zm-1.15,18.62v-15.91l2.55-.35v16.27h-2.55Z"/><path class="cls-1" d="M135.37,164.06c-.73,0-1.27-.19-1.85-.45-.95-.41-1.43-1.56-1.43-3.21v-10.76h-1.75v-2.01h1.75c0-1.53,.22-4.07,.22-4.07l2.48-.54s-.22,2.58-.22,4.62h3.37l-.57,2.01h-2.86v10.06c0,1.81,.45,2.42,1.78,2.42,.6,0,.83-.06,1.21-.29l.45,1.56c-.86,.45-1.59,.67-2.58,.67Z"/><path class="cls-1" d="M146,164.06c-.99,3.37-2.2,5.35-4.74,5.98l-.76-1.75c1.91-.64,2.64-1.59,3.41-4.74l-.95,.13c-.22-1.15-.86-3.98-1.34-5.54l-3.09-10.19,2.39-.76,2.83,10.09c.32,1.18,.8,4.07,.83,4.23,.03-.13,.61-2.51,.96-3.79l2.64-10.09h2.64l-4.81,16.42Z"/><path class="cls-1" d="M152.14,156.2v-2.36h5.54v2.36h-5.54Z"/><path class="cls-1" d="M165.6,164.03c-1.78,0-3.69-.64-5.16-1.66l.96-1.88c1.37,.99,2.86,1.53,4.36,1.53,1.59,0,2.64-1.15,2.64-2.71,0-1.4-1.15-2.1-2.48-2.58l-1.24-.45c-2.07-.73-3.69-2.07-3.69-4.3,0-2.93,2.07-4.93,5-4.93,1.56,0,3.12,.48,4.33,1.27l-.92,1.88c-1.21-.67-2.16-1.15-3.37-1.15-1.5,0-2.45,1.11-2.45,2.32,0,1.37,.64,2.1,2.26,2.67l1.27,.45c1.91,.67,3.85,2.01,3.85,4.39,0,3.15-2.16,5.12-5.35,5.12Z"/><path class="cls-1" d="M177.88,164.06c-.73,0-1.27-.19-1.85-.45-.95-.41-1.43-1.56-1.43-3.21v-10.76h-1.75v-2.01h1.75c0-1.53,.22-4.07,.22-4.07l2.48-.54s-.22,2.58-.22,4.62h3.37l-.57,2.01h-2.86v10.06c0,1.81,.45,2.42,1.78,2.42,.61,0,.83-.06,1.21-.29l.45,1.56c-.86,.45-1.59,.67-2.58,.67Z"/><path class="cls-1" d="M193,164.16c-.86-.83-1.11-1.34-1.31-2.32-1.08,1.5-2.39,2.26-4.33,2.26-1.18,0-2.1-.29-2.77-.89-1.08-.96-1.34-2.32-1.34-3.91v-11.62l2.42-.38v11.78c0,1.37,.19,2.07,.8,2.55,.41,.32,.89,.48,1.62,.48,1.46,0,2.42-.99,3.28-2.55v-11.84l2.42-.32v11.65c0,1.97,.29,2.74,.95,3.47l-1.75,1.66Z"/><path class="cls-1" d="M207.29,163.55s-.29-.8-.32-1.56c-.86,1.11-1.85,1.81-3.53,1.81-3.6,0-5.63-2.96-5.63-8.05,0-3.47,1.46-8.37,5.67-8.37,1.43,0,2.71,.7,3.47,1.75,0,0-.06-1.24-.06-2.39v-6.43l2.45,.41v17.82c0,2.58,.13,4.04,.41,5h-2.45Zm-.45-12.64c-.7-.92-1.56-1.46-3.06-1.46-2.99,0-3.28,4.04-3.28,6.21s-.03,6.05,3.12,6.05c1.31,0,2.67-.7,3.21-1.94v-8.85Z"/><path class="cls-1" d="M216.1,156.04v.35c0,1.4,.06,2.61,.61,3.63,.7,1.31,1.91,1.85,3.25,1.85s2.45-.57,3.41-1.5l.96,1.53c-1.31,1.31-2.96,2.01-4.77,2.01-3.92,0-6.21-3.15-6.21-8.43,0-2.71,.41-4.52,1.59-6.11,1.11-1.5,2.58-2.13,4.26-2.13,1.56,0,2.96,.67,3.88,1.78,1.18,1.4,1.59,2.86,1.59,6.59v.45h-8.56Zm5.41-5.57c-.45-.83-1.18-1.37-2.39-1.37-2.04,0-2.93,1.91-3.02,5.09h5.95c-.03-1.62-.16-2.99-.54-3.72Z"/><path class="cls-1" d="M236.28,163.55v-10.85c0-1.59-.13-2.13-.51-2.64-.29-.38-.83-.64-1.43-.64-1.02,0-2.55,.76-3.56,1.94v12.19h-2.42v-12.16c0-2.2-.51-3.53-.51-3.53l2.36-.61s.48,.86,.48,2.07c1.46-1.46,2.83-2.04,4.33-2.04,1.15,0,2.16,.51,2.83,1.31,.67,.8,.89,1.81,.89,2.86v12.1h-2.45Z"/><path class="cls-1" d="M246.98,164.06c-.73,0-1.27-.19-1.85-.45-.95-.41-1.43-1.56-1.43-3.21v-10.76h-1.75v-2.01h1.75c0-1.53,.22-4.07,.22-4.07l2.48-.54s-.22,2.58-.22,4.62h3.37l-.57,2.01h-2.86v10.06c0,1.81,.45,2.42,1.78,2.42,.61,0,.83-.06,1.21-.29l.45,1.56c-.86,.45-1.59,.67-2.58,.67Z"/><path class="cls-1" d="M268.33,164.16c-.86-.83-1.11-1.34-1.31-2.32-1.08,1.5-2.39,2.26-4.33,2.26-1.18,0-2.1-.29-2.77-.89-1.08-.96-1.34-2.32-1.34-3.91v-11.62l2.42-.38v11.78c0,1.37,.19,2.07,.8,2.55,.41,.32,.89,.48,1.62,.48,1.46,0,2.42-.99,3.28-2.55v-11.84l2.42-.32v11.65c0,1.97,.29,2.74,.95,3.47l-1.75,1.66Z"/><path class="cls-1" d="M281.86,163.55v-10.85c0-1.59-.13-2.13-.51-2.64-.29-.38-.83-.64-1.43-.64-1.02,0-2.55,.76-3.56,1.94v12.19h-2.42v-12.16c0-2.2-.51-3.53-.51-3.53l2.36-.61s.48,.86,.48,2.07c1.46-1.46,2.83-2.04,4.33-2.04,1.15,0,2.16,.51,2.83,1.31,.67,.8,.89,1.81,.89,2.86v12.1h-2.45Z"/><path class="cls-1" d="M290.45,144.93c-1.08,0-1.94-.86-1.94-1.94s.89-1.94,1.97-1.94,1.94,.86,1.94,1.94-.89,1.94-1.97,1.94Zm-1.15,18.62v-15.91l2.55-.35v16.27h-2.55Z"/><path class="cls-1" d="M301.56,163.97c-4.74,0-6.05-4.52-6.05-8.47s1.4-8.34,5.98-8.34,6.11,4.68,6.11,8.63-1.43,8.18-6.05,8.18Zm2.64-12.89c-.54-1.31-1.59-1.91-2.74-1.91s-2.2,.64-2.64,1.69c-.45,1.05-.64,2.61-.64,4.3,0,1.97,.25,4.2,.79,5.25,.48,.92,1.5,1.5,2.64,1.5,1.4,0,2.39-.86,2.8-2.36,.28-1.02,.38-2.23,.38-3.63,0-1.97-.16-3.76-.61-4.84Z"/><path class="cls-1" d="M319.22,163.55v-10.85c0-1.59-.13-2.13-.51-2.64-.29-.38-.83-.64-1.43-.64-1.02,0-2.55,.76-3.56,1.94v12.19h-2.42v-12.16c0-2.2-.51-3.53-.51-3.53l2.36-.61s.48,.86,.48,2.07c1.46-1.46,2.83-2.04,4.33-2.04,1.15,0,2.17,.51,2.83,1.31,.67,.8,.89,1.81,.89,2.86v12.1h-2.45Z"/></g><g><path class="cls-1" d="M63.91,198.65c0,4.85-.11,8.29-.34,10.31-.23,2.02-.94,3.86-2.15,5.53-1.2,1.67-2.83,2.95-4.88,3.85-2.05,.89-4.44,1.34-7.16,1.34s-4.91-.42-6.97-1.27c-2.06-.85-3.71-2.11-4.97-3.81-1.25-1.69-2-3.53-2.24-5.52-.24-1.99-.36-5.47-.36-10.44v-8.27c0-4.85,.11-8.29,.34-10.31,.23-2.02,.94-3.86,2.15-5.53,1.2-1.67,2.83-2.95,4.88-3.85,2.05-.9,4.44-1.34,7.16-1.34,2.59,0,4.91,.42,6.97,1.27,2.06,.85,3.71,2.11,4.97,3.8,1.25,1.69,2,3.53,2.24,5.52,.24,1.99,.36,5.47,.36,10.44v8.27Zm-12.56-15.87c0-2.25-.12-3.68-.37-4.31-.25-.63-.76-.94-1.54-.94-.66,0-1.16,.25-1.51,.76-.35,.51-.52,2-.52,4.49v22.56c0,2.8,.11,4.54,.34,5.19,.23,.66,.76,.98,1.6,.98s1.4-.38,1.64-1.13c.24-.76,.36-2.56,.36-5.4v-22.2Z"/><path class="cls-1" d="M68.6,170.36h12.65c3.42,0,6.05,.27,7.89,.81,1.84,.54,3.22,1.31,4.15,2.33,.93,1.01,1.55,2.24,1.88,3.69,.33,1.44,.49,3.68,.49,6.7v4.21c0,3.08-.32,5.33-.96,6.74-.64,1.41-1.81,2.5-3.51,3.25-1.7,.76-3.92,1.13-6.67,1.13h-3.37v19.45h-12.56v-48.31Zm12.56,8.27v12.29c.36,.02,.67,.03,.93,.03,1.15,0,1.95-.28,2.4-.85,.45-.57,.67-1.75,.67-3.54v-3.97c0-1.65-.26-2.73-.78-3.22-.52-.5-1.59-.75-3.22-.75Z"/><path class="cls-1" d="M99.27,170.36h20.95v9.67h-8.38v9.16h7.85v9.19h-7.85v10.62h9.22v9.67h-21.78v-48.31Z"/><path class="cls-1" d="M124.66,170.36h8.89c5.93,0,9.94,.23,12.04,.69,2.1,.46,3.81,1.63,5.13,3.51,1.32,1.88,1.98,4.88,1.98,9,0,3.76-.47,6.29-1.4,7.58-.93,1.29-2.77,2.07-5.52,2.33,2.49,.62,4.16,1.44,5.01,2.48,.85,1.03,1.39,1.98,1.6,2.85,.21,.86,.31,3.25,.31,7.15v12.74h-11.67v-16.05c0-2.59-.2-4.19-.61-4.8-.41-.62-1.48-.92-3.21-.92v21.78h-12.56v-48.31Zm12.56,8.27v10.74c1.41,0,2.4-.19,2.97-.58,.57-.39,.85-1.65,.85-3.77v-2.66c0-1.53-.27-2.54-.82-3.01-.55-.48-1.55-.72-3-.72Z"/><path class="cls-1" d="M179.29,170.36l7.18,48.31h-12.84l-.67-8.68h-4.49l-.76,8.68h-12.99l6.41-48.31h18.16Zm-6.66,31.06c-.64-5.47-1.27-12.23-1.91-20.29-1.28,9.25-2.08,16.01-2.41,20.29h4.32Z"/><path class="cls-1" d="M210.54,170.36v9.67h-7.46v38.64h-12.56v-38.64h-7.43v-9.67h27.45Z"/><path class="cls-1" d="M225.97,170.36v48.31h-12.56v-48.31h12.56Z"/><path class="cls-1" d="M259.71,198.65c0,4.85-.11,8.29-.34,10.31-.23,2.02-.94,3.86-2.15,5.53-1.2,1.67-2.83,2.95-4.88,3.85-2.05,.89-4.44,1.34-7.16,1.34s-4.91-.42-6.97-1.27c-2.06-.85-3.71-2.11-4.97-3.81-1.25-1.69-2-3.53-2.24-5.52-.24-1.99-.36-5.47-.36-10.44v-8.27c0-4.85,.11-8.29,.34-10.31,.23-2.02,.94-3.86,2.15-5.53,1.2-1.67,2.83-2.95,4.88-3.85,2.05-.9,4.44-1.34,7.16-1.34,2.59,0,4.91,.42,6.97,1.27,2.06,.85,3.71,2.11,4.97,3.8,1.25,1.69,2,3.53,2.24,5.52,.24,1.99,.36,5.47,.36,10.44v8.27Zm-12.56-15.87c0-2.25-.12-3.68-.37-4.31-.25-.63-.76-.94-1.54-.94-.66,0-1.16,.25-1.51,.76-.35,.51-.52,2-.52,4.49v22.56c0,2.8,.11,4.54,.34,5.19,.23,.66,.76,.98,1.6,.98s1.4-.38,1.64-1.13c.24-.76,.36-2.56,.36-5.4v-22.2Z"/><path class="cls-1" d="M292.45,170.36v48.31h-11.01l-6.53-21.96v21.96h-10.5v-48.31h10.5l7.04,21.75v-21.75h10.5Z"/><path class="cls-1" d="M324.11,184.98h-11.67v-3.58c0-1.67-.15-2.73-.45-3.19-.3-.46-.8-.69-1.49-.69-.76,0-1.33,.31-1.72,.93-.39,.62-.58,1.55-.58,2.81,0,1.61,.22,2.83,.65,3.64,.42,.82,1.6,1.8,3.55,2.95,5.59,3.32,9.11,6.04,10.57,8.17,1.45,2.13,2.18,5.56,2.18,10.29,0,3.44-.4,5.98-1.21,7.61-.81,1.63-2.36,3-4.67,4.1-2.31,1.1-4.99,1.66-8.06,1.66-3.36,0-6.23-.64-8.61-1.91-2.38-1.27-3.93-2.9-4.67-4.86-.74-1.97-1.1-4.76-1.1-8.38v-3.16h11.67v5.88c0,1.81,.16,2.97,.49,3.49,.33,.52,.91,.78,1.75,.78s1.46-.33,1.87-.98c.41-.66,.61-1.63,.61-2.92,0-2.84-.39-4.7-1.16-5.58-.8-.88-2.75-2.34-5.88-4.39-3.12-2.07-5.19-3.57-6.21-4.51-1.01-.93-1.86-2.23-2.52-3.88-.67-1.65-1-3.76-1-6.33,0-3.7,.47-6.41,1.42-8.12,.94-1.71,2.47-3.05,4.58-4.01,2.11-.96,4.66-1.45,7.64-1.45,3.26,0,6.04,.53,8.34,1.58,2.3,1.05,3.82,2.38,4.57,3.98,.75,1.6,1.12,4.32,1.12,8.16v1.91Z"/></g></svg>