<?xml version="1.0" encoding="UTF-8"?><svg id="Layer_1" xmlns="http://www.w3.org/2000/svg" viewBox="0 0 360 360"><defs><style>.cls-1{fill:#58595b;}</style></defs><g><path class="cls-1" d="M64.29,166.43c-.44-.43-.57-.69-.67-1.19-.56,.77-1.23,1.16-2.22,1.16-.6,0-1.08-.15-1.42-.46-.56-.49-.69-1.19-.69-2.01v-5.96l1.24-.2v6.05c0,.7,.1,1.06,.41,1.31,.21,.16,.46,.25,.83,.25,.75,0,1.24-.51,1.68-1.31v-6.08l1.24-.16v5.98c0,1.01,.15,1.41,.49,1.78l-.9,.85Z"/><path class="cls-1" d="M71.24,166.12v-5.57c0-.82-.07-1.09-.26-1.36-.15-.2-.42-.33-.74-.33-.52,0-1.31,.39-1.83,1v6.26h-1.24v-6.24c0-1.13-.26-1.81-.26-1.81l1.21-.31s.24,.44,.24,1.06c.75-.75,1.45-1.05,2.22-1.05,.59,0,1.11,.26,1.45,.67,.34,.41,.46,.93,.46,1.47v6.21h-1.26Z"/><path class="cls-1" d="M75.65,156.57c-.56,0-1-.44-1-1s.46-1,1.01-1,1,.44,1,1-.46,1-1.01,1Zm-.59,9.56v-8.17l1.31-.18v8.35h-1.31Z"/><path class="cls-1" d="M81.41,166.19h-1.29l-2.53-8.17,1.32-.26,1.52,5.39c.16,.59,.38,1.58,.41,1.73,.02-.08,.16-.95,.36-1.6l1.57-5.33h1.29l-2.65,8.24Z"/><path class="cls-1" d="M86.15,162.27v.18c0,.72,.03,1.34,.31,1.86,.36,.67,.98,.95,1.67,.95s1.26-.29,1.75-.77l.49,.78c-.67,.67-1.52,1.03-2.45,1.03-2.01,0-3.19-1.62-3.19-4.33,0-1.39,.21-2.32,.82-3.14,.57-.77,1.32-1.09,2.19-1.09,.8,0,1.52,.34,1.99,.91,.6,.72,.82,1.47,.82,3.38v.23h-4.4Zm2.78-2.86c-.23-.42-.6-.7-1.23-.7-1.05,0-1.5,.98-1.55,2.61h3.06c-.02-.83-.08-1.54-.28-1.91Z"/><path class="cls-1" d="M95.54,159.18s-.21-.08-.38-.08c-.36,0-.78,.15-1.08,.47-.28,.33-.39,.64-.39,1.14v5.41h-1.26v-6.24c0-1.16-.26-1.83-.26-1.83l1.24-.31s.26,.54,.23,1.19c.49-.85,1.08-1.23,1.96-1.23,.23,0,.44,.1,.44,.1l-.51,1.37Z"/><path class="cls-1" d="M99.14,166.37c-.91,0-1.9-.33-2.65-.85l.49-.96c.7,.51,1.47,.78,2.24,.78,.82,0,1.36-.59,1.36-1.39,0-.72-.59-1.08-1.27-1.32l-.64-.23c-1.06-.38-1.9-1.06-1.9-2.21,0-1.5,1.06-2.53,2.57-2.53,.8,0,1.6,.25,2.22,.65l-.47,.96c-.62-.34-1.11-.59-1.73-.59-.77,0-1.26,.57-1.26,1.19,0,.7,.33,1.08,1.16,1.37l.65,.23c.98,.34,1.98,1.03,1.98,2.25,0,1.62-1.11,2.63-2.75,2.63Z"/><path class="cls-1" d="M104.37,156.57c-.56,0-1-.44-1-1s.46-1,1.01-1,1,.44,1,1-.46,1-1.01,1Zm-.59,9.56v-8.17l1.31-.18v8.35h-1.31Z"/><path class="cls-1" d="M109.3,166.39c-.38,0-.65-.1-.95-.23-.49-.21-.74-.8-.74-1.65v-5.52h-.9v-1.03h.9c0-.78,.11-2.09,.11-2.09l1.27-.28s-.11,1.32-.11,2.37h1.73l-.29,1.03h-1.47v5.16c0,.93,.23,1.24,.92,1.24,.31,0,.42-.03,.62-.15l.23,.8c-.44,.23-.82,.34-1.32,.34Z"/><path class="cls-1" d="M114.76,166.39c-.51,1.73-1.13,2.75-2.43,3.07l-.39-.9c.98-.33,1.36-.82,1.75-2.43l-.49,.07c-.11-.59-.44-2.04-.69-2.84l-1.59-5.23,1.23-.39,1.45,5.18c.16,.6,.41,2.09,.42,2.17,.02-.07,.31-1.29,.49-1.94l1.36-5.18h1.36l-2.47,8.43Z"/><path class="cls-1" d="M117.91,162.35v-1.21h2.84v1.21h-2.84Z"/><path class="cls-1" d="M124.82,166.37c-.91,0-1.9-.33-2.65-.85l.49-.96c.7,.51,1.47,.78,2.24,.78,.82,0,1.36-.59,1.36-1.39,0-.72-.59-1.08-1.27-1.32l-.64-.23c-1.06-.38-1.9-1.06-1.9-2.21,0-1.5,1.06-2.53,2.57-2.53,.8,0,1.6,.25,2.22,.65l-.47,.96c-.62-.34-1.11-.59-1.73-.59-.77,0-1.26,.57-1.26,1.19,0,.7,.33,1.08,1.16,1.37l.65,.23c.98,.34,1.98,1.03,1.98,2.25,0,1.62-1.11,2.63-2.75,2.63Z"/><path class="cls-1" d="M131.12,166.39c-.38,0-.65-.1-.95-.23-.49-.21-.74-.8-.74-1.65v-5.52h-.9v-1.03h.9c0-.78,.11-2.09,.11-2.09l1.27-.28s-.11,1.32-.11,2.37h1.73l-.29,1.03h-1.47v5.16c0,.93,.23,1.24,.91,1.24,.31,0,.43-.03,.62-.15l.23,.8c-.44,.23-.82,.34-1.32,.34Z"/><path class="cls-1" d="M138.88,166.43c-.44-.43-.57-.69-.67-1.19-.56,.77-1.23,1.16-2.22,1.16-.6,0-1.08-.15-1.42-.46-.56-.49-.69-1.19-.69-2.01v-5.96l1.24-.2v6.05c0,.7,.1,1.06,.41,1.31,.21,.16,.46,.25,.83,.25,.75,0,1.24-.51,1.68-1.31v-6.08l1.24-.16v5.98c0,1.01,.15,1.41,.49,1.78l-.9,.85Z"/><path class="cls-1" d="M146.22,166.12s-.15-.41-.16-.8c-.44,.57-.95,.93-1.81,.93-1.85,0-2.89-1.52-2.89-4.13,0-1.78,.75-4.3,2.91-4.3,.74,0,1.39,.36,1.78,.9,0,0-.03-.64-.03-1.23v-3.3l1.26,.21v9.15c0,1.32,.07,2.08,.21,2.57h-1.26Zm-.23-6.49c-.36-.47-.8-.75-1.57-.75-1.54,0-1.68,2.08-1.68,3.19s-.02,3.1,1.6,3.1c.67,0,1.37-.36,1.65-1v-4.54Z"/><path class="cls-1" d="M150.74,162.27v.18c0,.72,.03,1.34,.31,1.86,.36,.67,.98,.95,1.67,.95s1.26-.29,1.75-.77l.49,.78c-.67,.67-1.52,1.03-2.45,1.03-2.01,0-3.19-1.62-3.19-4.33,0-1.39,.21-2.32,.82-3.14,.57-.77,1.32-1.09,2.19-1.09,.8,0,1.52,.34,1.99,.91,.6,.72,.82,1.47,.82,3.38v.23h-4.4Zm2.78-2.86c-.23-.42-.6-.7-1.23-.7-1.05,0-1.5,.98-1.55,2.61h3.06c-.02-.83-.08-1.54-.28-1.91Z"/><path class="cls-1" d="M161.1,166.12v-5.57c0-.82-.07-1.09-.26-1.36-.15-.2-.42-.33-.74-.33-.52,0-1.31,.39-1.83,1v6.26h-1.24v-6.24c0-1.13-.26-1.81-.26-1.81l1.21-.31s.25,.44,.25,1.06c.75-.75,1.45-1.05,2.22-1.05,.59,0,1.11,.26,1.45,.67,.34,.41,.46,.93,.46,1.47v6.21h-1.26Z"/><path class="cls-1" d="M166.59,166.39c-.38,0-.65-.1-.95-.23-.49-.21-.74-.8-.74-1.65v-5.52h-.9v-1.03h.9c0-.78,.11-2.09,.11-2.09l1.27-.28s-.11,1.32-.11,2.37h1.73l-.29,1.03h-1.47v5.16c0,.93,.23,1.24,.91,1.24,.31,0,.43-.03,.62-.15l.23,.8c-.44,.23-.82,.34-1.32,.34Z"/><path class="cls-1" d="M177.56,166.43c-.44-.43-.57-.69-.67-1.19-.56,.77-1.23,1.16-2.22,1.16-.6,0-1.08-.15-1.42-.46-.56-.49-.69-1.19-.69-2.01v-5.96l1.24-.2v6.05c0,.7,.1,1.06,.41,1.31,.21,.16,.46,.25,.83,.25,.75,0,1.24-.51,1.68-1.31v-6.08l1.24-.16v5.98c0,1.01,.15,1.41,.49,1.78l-.9,.85Z"/><path class="cls-1" d="M184.5,166.12v-5.57c0-.82-.06-1.09-.26-1.36-.15-.2-.42-.33-.74-.33-.52,0-1.31,.39-1.83,1v6.26h-1.24v-6.24c0-1.13-.26-1.81-.26-1.81l1.21-.31s.24,.44,.24,1.06c.75-.75,1.45-1.05,2.22-1.05,.59,0,1.11,.26,1.45,.67,.34,.41,.46,.93,.46,1.47v6.21h-1.26Z"/><path class="cls-1" d="M188.91,156.57c-.56,0-1-.44-1-1s.46-1,1.01-1,1,.44,1,1-.46,1-1.01,1Zm-.59,9.56v-8.17l1.31-.18v8.35h-1.31Z"/><path class="cls-1" d="M194.61,166.34c-2.43,0-3.1-2.32-3.1-4.35s.72-4.28,3.07-4.28,3.14,2.4,3.14,4.43-.74,4.2-3.1,4.2Zm1.36-6.62c-.28-.67-.82-.98-1.41-.98s-1.13,.33-1.36,.87c-.23,.54-.33,1.34-.33,2.21,0,1.01,.13,2.16,.41,2.7,.25,.47,.77,.77,1.36,.77,.72,0,1.23-.44,1.44-1.21,.15-.52,.2-1.14,.2-1.86,0-1.01-.08-1.93-.31-2.48Z"/><path class="cls-1" d="M203.68,166.12v-5.57c0-.82-.07-1.09-.26-1.36-.15-.2-.42-.33-.74-.33-.52,0-1.31,.39-1.83,1v6.26h-1.24v-6.24c0-1.13-.26-1.81-.26-1.81l1.21-.31s.25,.44,.25,1.06c.75-.75,1.45-1.05,2.22-1.05,.59,0,1.11,.26,1.45,.67,.34,.41,.46,.93,.46,1.47v6.21h-1.26Z"/></g><g><path class="cls-1" d="M72.62,184.14c0,2.49-.06,4.26-.18,5.29-.12,1.04-.48,1.98-1.1,2.84-.62,.86-1.45,1.52-2.5,1.98-1.05,.46-2.28,.69-3.68,.69s-2.52-.22-3.58-.65c-1.06-.43-1.91-1.09-2.55-1.95-.64-.87-1.03-1.81-1.15-2.83-.12-1.02-.18-2.81-.18-5.36v-4.24c0-2.49,.06-4.26,.18-5.29,.12-1.04,.48-1.98,1.1-2.84,.62-.86,1.45-1.52,2.5-1.98,1.05-.46,2.28-.69,3.68-.69,1.33,0,2.52,.22,3.58,.65,1.06,.43,1.91,1.09,2.55,1.95,.64,.87,1.03,1.81,1.15,2.83,.12,1.02,.18,2.81,.18,5.36v4.24Zm-6.45-8.15c0-1.15-.06-1.89-.19-2.21-.13-.32-.39-.48-.79-.48-.34,0-.6,.13-.77,.39-.18,.26-.27,1.03-.27,2.31v11.58c0,1.44,.06,2.33,.18,2.67,.12,.34,.39,.51,.82,.51s.72-.19,.84-.58c.12-.39,.18-1.31,.18-2.77v-11.4Z"/><path class="cls-1" d="M75.02,169.62h6.49c1.76,0,3.11,.14,4.05,.41,.94,.28,1.65,.67,2.13,1.19,.48,.52,.8,1.15,.97,1.89,.17,.74,.25,1.89,.25,3.44v2.16c0,1.58-.16,2.74-.49,3.46-.33,.73-.93,1.28-1.8,1.67-.87,.39-2.01,.58-3.42,.58h-1.73v9.99h-6.45v-24.8Zm6.45,4.24v6.31c.18,.01,.34,.02,.48,.02,.59,0,1-.15,1.23-.44,.23-.29,.34-.9,.34-1.82v-2.04c0-.85-.13-1.4-.4-1.65-.27-.26-.82-.38-1.65-.38Z"/><path class="cls-1" d="M90.77,169.62h10.75v4.96h-4.3v4.7h4.03v4.72h-4.03v5.45h4.73v4.96h-11.18v-24.8Z"/><path class="cls-1" d="M103.8,169.62h4.56c3.04,0,5.1,.12,6.18,.35,1.08,.24,1.96,.83,2.63,1.8,.68,.96,1.02,2.5,1.02,4.62,0,1.93-.24,3.23-.72,3.89-.48,.66-1.42,1.06-2.83,1.19,1.28,.32,2.13,.74,2.57,1.27,.44,.53,.71,1.02,.82,1.46,.11,.44,.16,1.67,.16,3.67v6.54h-5.99v-8.24c0-1.33-.1-2.15-.31-2.47-.21-.32-.76-.47-1.65-.47v11.18h-6.45v-24.8Zm6.45,4.24v5.51c.73,0,1.23-.1,1.52-.3,.29-.2,.44-.84,.44-1.94v-1.36c0-.79-.14-1.3-.42-1.55-.28-.25-.79-.37-1.54-.37Z"/><path class="cls-1" d="M131.85,169.62l3.69,24.8h-6.59l-.35-4.46h-2.31l-.39,4.46h-6.67l3.29-24.8h9.32Zm-3.42,15.95c-.33-2.81-.65-6.28-.98-10.42-.66,4.75-1.07,8.22-1.24,10.42h2.22Z"/><path class="cls-1" d="M147.89,169.62v4.96h-3.83v19.84h-6.45v-19.84h-3.81v-4.96h14.09Z"/><path class="cls-1" d="M155.81,169.62v24.8h-6.45v-24.8h6.45Z"/><path class="cls-1" d="M173.13,184.14c0,2.49-.06,4.26-.18,5.29-.12,1.04-.48,1.98-1.1,2.84-.62,.86-1.45,1.52-2.5,1.98-1.05,.46-2.28,.69-3.68,.69s-2.52-.22-3.58-.65c-1.06-.43-1.91-1.09-2.55-1.95-.64-.87-1.03-1.81-1.15-2.83-.12-1.02-.18-2.81-.18-5.36v-4.24c0-2.49,.06-4.26,.18-5.29,.12-1.04,.48-1.98,1.1-2.84,.62-.86,1.45-1.52,2.5-1.98,1.05-.46,2.28-.69,3.68-.69,1.33,0,2.52,.22,3.58,.65,1.06,.43,1.91,1.09,2.55,1.95,.64,.87,1.03,1.81,1.15,2.83,.12,1.02,.18,2.81,.18,5.36v4.24Zm-6.45-8.15c0-1.15-.06-1.89-.19-2.21-.13-.32-.39-.48-.79-.48-.34,0-.59,.13-.77,.39-.18,.26-.27,1.03-.27,2.31v11.58c0,1.44,.06,2.33,.18,2.67,.12,.34,.39,.51,.82,.51s.72-.19,.84-.58c.12-.39,.18-1.31,.18-2.77v-11.4Z"/><path class="cls-1" d="M189.93,169.62v24.8h-5.65l-3.35-11.27v11.27h-5.39v-24.8h5.39l3.61,11.17v-11.17h5.39Z"/><path class="cls-1" d="M206.19,177.12h-5.99v-1.84c0-.86-.08-1.4-.23-1.64-.15-.23-.41-.35-.77-.35-.39,0-.68,.16-.88,.48-.2,.32-.3,.8-.3,1.44,0,.83,.11,1.45,.34,1.87,.21,.42,.82,.92,1.82,1.52,2.87,1.7,4.68,3.1,5.42,4.19,.75,1.09,1.12,2.85,1.12,5.28,0,1.77-.21,3.07-.62,3.91-.41,.84-1.21,1.54-2.4,2.11-1.18,.57-2.56,.85-4.14,.85-1.73,0-3.2-.33-4.42-.98-1.22-.65-2.02-1.49-2.4-2.5-.38-1.01-.57-2.45-.57-4.3v-1.62h5.99v3.02c0,.93,.08,1.53,.25,1.79,.17,.27,.47,.4,.9,.4s.75-.17,.96-.51c.21-.34,.31-.84,.31-1.5,0-1.46-.2-2.42-.6-2.86-.41-.45-1.41-1.2-3.02-2.25-1.6-1.06-2.67-1.83-3.19-2.31-.52-.48-.95-1.14-1.29-1.99-.34-.85-.51-1.93-.51-3.25,0-1.9,.24-3.29,.73-4.17,.48-.88,1.27-1.56,2.35-2.06,1.08-.5,2.39-.74,3.92-.74,1.67,0,3.1,.27,4.28,.81,1.18,.54,1.96,1.22,2.34,2.04,.38,.82,.57,2.22,.57,4.19v.98Z"/><path class="cls-1" d="M242.1,172.18c-.61,1.61-1.92,2.42-3.95,2.42l.6-1.19c-.52-.15-1.12-.22-1.79-.22-1.02,0-2.69,.23-4.99,.69-2.43,.48-4,.92-4.74,1.32l-1.54,4.96c-.48,1.53-1.01,2.76-1.6,3.7-.59,.94-1.65,2.68-3.2,5.21-1.17,1.9-2.01,3.77-2.51,5.62l-2.38-.53c.17-.98,.97-2.57,2.42-4.77,1.99-3.05,3.27-5.14,3.86-6.27,1.34-2.66,2.01-5.09,2.01-7.31l-.16,.13-7.81,1.69c-1.23,.52-2.46,1.04-3.67,1.54-.46,0-.83-.2-1.11-.6-.28-.4-.39-.83-.33-1.29l.56-1.1c.61-.23,1.13-.35,1.57-.35,.19,0,.47,.02,.85,.05,.38,.03,.66,.05,.85,.05,2.53,0,5.38-.4,8.56-1.19,1.88-.5,4.69-1.24,8.44-2.23,3.18-.82,5.91-1.22,8.19-1.22,.54,0,.91,.04,1.1,.13,.19,.08,.45,.34,.78,.78Z"/><path class="cls-1" d="M256.19,175.5c-1,.44-2.21,.66-3.61,.66-.46,0-1.15-.03-2.07-.09-.92-.06-1.61-.09-2.07-.09-1.57,0-3.03,.73-4.39,2.2-.61,.65-1.59,2.06-2.95,4.23,.56,.06,1.58,.2,3.06,.41,1.47,.21,2.34,.58,2.59,1.1-.59,.25-2.04,.56-4.36,.94-2.03,.33-3.5,.79-4.42,1.38-1.34,.86-2.01,2.2-2.01,4.02,0,1.99,2.22,2.98,6.65,2.98,.42,0,.9-.03,1.44-.09,1.28-.15,2.08-.22,2.42-.22,1.17,0,1.95,.3,2.32,.91-.71,.33-3.32,.5-7.81,.5-1.74,0-3.26-.22-4.58-.66-1.97-.65-2.95-1.67-2.95-3.07,0-.4,.49-1.49,1.47-3.28,.98-1.79,1.53-3.08,1.63-3.87l3.48-2.73,2.76-4.77c.96-1.13,3.13-1.69,6.49-1.69,.77,0,1.64,.08,2.6,.25,.21,.04,1.64,.38,4.3,1Z"/><path class="cls-1" d="M274.23,169.76c-.31,1.9-1.17,4.38-2.57,7.43l-3.58,7.84c-1.21,2.66-1.82,4.79-1.82,6.4,0,.75,.41,1.65,1.22,2.7l1.13,1.41-.66,.09c-.08,.02-.21,.03-.38,.03-.9,0-1.66-.42-2.29-1.25-.56-.75-.85-1.6-.85-2.54,0-.29,.14-1.02,.41-2.2,.13-.54,.19-.97,.19-1.29,0-.08-.06-.27-.19-.57-.13-.29-.19-.47-.19-.53-.54-.29-1.51-.44-2.89-.44h-1.16c-1.82,0-3.23,.63-4.23,1.88-.48,.88-1.16,2.05-2.04,3.51-.75,1.25-1.82,1.88-3.2,1.88,.08-.69,.48-1.58,1.19-2.67,.19-.27,.78-1.09,1.79-2.45l-1.79-.6v-.31c0-.98,.51-1.55,1.54-1.69,1.32-.21,2.33-1.1,3.04-2.67,.75-1.69,1.5-2.54,2.23-2.54,.48,0,.89,.12,1.22,.35,.88-.48,2.24-1.79,4.08-3.92,2.68-3.1,4.22-4.86,4.64-5.3,1.74-1.78,3.16-2.67,4.27-2.67l.88,.09Zm-15.18,13.61v-.31l-.28-.28-.31,.28v.31l.31,.31,.28-.31Zm.72-1.1l-.06-.78-.31,.35c-.33,0-.49,.13-.47,.38,0,.19,.06,.45,.19,.78,.44-.38,.66-.62,.66-.72Zm11.76-10.1c-1.86,1.28-4.1,3.28-6.71,6.02-2.72,2.78-4.62,5.09-5.71,6.93,.61,.13,1.17,.26,1.69,.41,1.3,.36,2.27,.53,2.92,.53s1.2-.13,1.66-.38c.27-.15,1.14-1.6,2.6-4.36,1.38-2.64,2.23-4.3,2.54-4.99,.67-1.55,1-2.94,1-4.17Z"/><path class="cls-1" d="M302.3,174.25c-.17,.9-.64,2.29-1.41,4.17-.25,.63-1.04,2.42-2.35,5.36-.4,.88-1.01,2.33-1.85,4.36-.21,.71-.54,1.79-1,3.23-.59,1.78-1.05,2.74-1.4,2.89-.34,.15-.94,.28-1.77,.41l-.09-.97c0-1.07,.46-2.62,1.38-4.67l2.67-5.93c.9-2.01,1.35-3.64,1.35-4.89-.54,.27-1.76,1.32-3.64,3.14l-4.74,4.61c-1.63,1.59-2.79,2.38-3.48,2.38-.88,0-1.43-1.61-1.66-4.83-.15-2.01-.26-3.18-.34-3.51-.82,1.17-1.79,3.08-2.93,5.72-1.14,2.65-2.13,4.56-2.96,5.76-1.38,1.97-2.77,2.95-4.17,2.95l1.69-3.76c.56-1.23,1.65-3.61,3.26-7.12,1.15-2.53,1.8-3.9,1.94-4.11,.33-.5,1.09-1.06,2.26-1.66,.08-.15,.25-.63,.5-1.44,.15-.48,.48-.96,1-1.44,.82,.73,1.42,1.86,1.82,3.39,.1,.4,.39,2.69,.85,6.87h.28c.69,0,2.03-1.05,4.02-3.14l5.58-5.9c2.03-2.11,3.36-3.17,3.98-3.17,.27,.15,.55,.29,.85,.44l.38,.88Z"/></g><g><path class="cls-1" d="M161.43,198.03c-.28-.28-.62-.45-1.07-.45-1.46,0-2.3,2.49-2.3,3.9,0,.92,.41,1.68,1.27,1.68,.43,0,.8-.14,1.23-.4l.24,.56c-.49,.33-1,.5-1.64,.5-1.25,0-1.94-.9-1.94-2.36,0-1.96,1.23-4.55,3.2-4.55,.73,0,1.17,.25,1.5,.61l-.48,.52Z"/><path class="cls-1" d="M165.2,200.07l-.43,2c-.11,.49-.22,1.02,.08,1.47l-.67,.36c-.24-.27-.29-.51-.27-.85-.29,.43-.74,.76-1.29,.76-.71,0-1.16-.56-1.16-1.53,0-1.03,.34-2.11,.92-2.77,.51-.59,1.1-.79,1.75-.79,.57,0,1.01,.18,1.31,.33-.1,.32-.18,.7-.25,1.02Zm-1.2-.7c-.42,0-.9,.26-1.24,.83-.33,.58-.52,1.37-.52,2.06,0,.56,.17,.89,.58,.89,.45,0,.85-.42,1.18-.99l.58-2.68c-.11-.05-.31-.12-.57-.12Z"/><path class="cls-1" d="M167.88,198.18l-.94,4.48c-.03,.16-.06,.28-.06,.35,0,.16,.07,.21,.2,.21,.03,0,.15-.02,.16-.02l.04,.53c-.19,.09-.36,.11-.57,.11-.38,0-.61-.21-.61-.55,0-.12,.02-.29,.05-.45l.97-4.56c.12-.56,.13-1.16,.04-1.48l.77-.26c.1,.36,.1,.96-.05,1.65Z"/><path class="cls-1" d="M169.02,203.74h-.78l1.04-4.9,.8-.11-1.06,5.01Zm.92-5.77c-.3,0-.56-.25-.56-.56s.26-.55,.56-.55,.56,.24,.56,.55-.25,.56-.56,.56Z"/><path class="cls-1" d="M173.79,197.4c-.14-.11-.36-.17-.58-.17-.41,0-.68,.31-.78,.89l-.14,.73h1.15l-.29,.58h-.95l-.89,4.38c-.21,.99-.46,1.56-.84,1.99l-.55-.34c.25-.32,.49-.86,.65-1.65l.87-4.38h-.43l.12-.58h.42l.11-.63c.11-.65,.35-1.07,.69-1.32,.24-.19,.51-.28,.9-.28,.33,0,.64,.09,.85,.25l-.29,.54Z"/><path class="cls-1" d="M174.49,203.86c-1.05,0-1.52-.57-1.52-1.73,0-1.78,.95-3.44,2.42-3.44,.99,0,1.51,.59,1.51,1.63,0,1.64-.79,3.55-2.41,3.55Zm.82-4.56c-.87,0-1.54,1.4-1.54,2.87,0,.73,.22,1.06,.78,1.06,.9,0,1.52-1.62,1.52-3.03,0-.57-.25-.9-.76-.9Z"/><path class="cls-1" d="M180.31,199.6c-.07-.03-.21-.07-.32-.07-.45,0-.83,.54-1.18,1.16l-.65,3.05h-.76l.76-3.55c.11-.52,.1-.84,0-1.23l.73-.26c.1,.28,.16,.58,.07,.99,.3-.51,.74-.99,1.33-.99,.19,0,.29,.04,.34,.07l-.32,.82Z"/><path class="cls-1" d="M184.17,200.37l-.71,3.36h-.75l.71-3.34c.07-.32,.09-.5,.09-.64,0-.24-.12-.36-.36-.36-.38,0-.86,.26-1.43,1.01l-.71,3.33h-.74l.75-3.55c.11-.52,.11-.84,0-1.23l.7-.26c.09,.27,.15,.54,.09,.9,.49-.64,1.03-.88,1.57-.88s.89,.33,.89,.88c0,.22-.04,.44-.11,.76Z"/><path class="cls-1" d="M185.78,203.74h-.78l1.04-4.9,.8-.11-1.06,5.01Zm.92-5.77c-.3,0-.56-.25-.56-.56s.25-.55,.56-.55,.56,.24,.56,.55-.26,.56-.56,.56Z"/><path class="cls-1" d="M191.15,200.07l-.43,2c-.11,.49-.22,1.02,.08,1.47l-.67,.36c-.24-.27-.29-.51-.27-.85-.29,.43-.74,.76-1.29,.76-.71,0-1.16-.56-1.16-1.53,0-1.03,.34-2.11,.92-2.77,.51-.59,1.1-.79,1.76-.79,.57,0,1.01,.18,1.31,.33-.1,.32-.18,.7-.25,1.02Zm-1.2-.7c-.42,0-.9,.26-1.24,.83-.33,.58-.52,1.37-.52,2.06,0,.56,.17,.89,.58,.89,.45,0,.85-.42,1.18-.99l.58-2.68c-.11-.05-.31-.12-.57-.12Z"/><path class="cls-1" d="M198.2,198.02c-.38-.32-.75-.49-1.32-.49-.7,0-1.21,.54-1.21,1.18,0,.37,.11,.69,.59,.99l.69,.44c.65,.41,.94,.88,.94,1.58,0,1.4-1.01,2.15-2.4,2.15-.75,0-1.33-.19-1.77-.57l.45-.61c.34,.29,.76,.47,1.37,.47,.78,0,1.44-.43,1.44-1.27,0-.43-.13-.74-.56-1.02l-.62-.4c-.67-.43-1.02-.88-1.02-1.67,0-1.13,.91-1.94,2.09-1.94,.76,0,1.29,.17,1.75,.59l-.42,.58Z"/><path class="cls-1" d="M201.25,199.44h-.91l-.63,2.94c-.03,.15-.07,.45-.07,.55,0,.26,.16,.36,.41,.36,.18,0,.27-.02,.41-.09l.03,.48c-.24,.13-.51,.21-.81,.21-.44,0-.81-.22-.81-.73,0-.21,.03-.42,.1-.74l.63-2.99h-.54l.13-.61h.55c.1-.47,.32-1.22,.33-1.25l.76-.17c-.02,.06-.23,.79-.36,1.42h1.03l-.24,.61Z"/><path class="cls-1" d="M205.16,200.07l-.43,2c-.11,.49-.22,1.02,.08,1.47l-.67,.36c-.23-.27-.29-.51-.27-.85-.29,.43-.74,.76-1.29,.76-.71,0-1.16-.56-1.16-1.53,0-1.03,.34-2.11,.92-2.77,.51-.59,1.1-.79,1.75-.79,.57,0,1.01,.18,1.31,.33-.1,.32-.18,.7-.24,1.02Zm-1.2-.7c-.42,0-.9,.26-1.24,.83-.33,.58-.52,1.37-.52,2.06,0,.56,.17,.89,.58,.89,.45,0,.85-.42,1.18-.99l.58-2.68c-.11-.05-.31-.12-.57-.12Z"/><path class="cls-1" d="M208.47,199.44h-.91l-.63,2.94c-.03,.15-.07,.45-.07,.55,0,.26,.16,.36,.41,.36,.18,0,.27-.02,.41-.09l.03,.48c-.24,.13-.51,.21-.81,.21-.44,0-.81-.22-.81-.73,0-.21,.03-.42,.1-.74l.63-2.99h-.54l.13-.61h.55c.1-.47,.32-1.22,.33-1.25l.76-.17c-.02,.06-.23,.79-.36,1.42h1.03l-.25,.61Z"/><path class="cls-1" d="M211.96,200.93c-.32,.34-.85,.6-1.82,.6-.1,0-.33,0-.53-.02-.04,.18-.09,.43-.09,.61,0,.64,.24,1.1,.88,1.1,.43,0,.84-.19,1.18-.5l.28,.44c-.37,.39-.86,.69-1.59,.69-1.02,0-1.56-.55-1.56-1.74,0-.95,.35-2.08,.99-2.75,.43-.45,.87-.66,1.39-.66,.84,0,1.25,.5,1.25,1.17,0,.34-.13,.77-.39,1.06Zm-.92-1.66c-.57,0-1.06,.74-1.32,1.67,.16,0,.36,.02,.46,.02,.71,0,1.02-.19,1.23-.43,.15-.17,.24-.44,.24-.62,0-.31-.13-.64-.61-.64Z"/><path class="cls-1" d="M219.15,201.84c-.29,1.39-.74,2.01-2.27,2.01-1.38,0-1.93-.72-1.67-1.98l1.03-4.87h.77l-1.01,4.78c-.17,.78-.05,1.38,.93,1.38s1.27-.52,1.46-1.41l1.01-4.75h.78l-1.04,4.84Z"/><path class="cls-1" d="M224.13,200.37l-.71,3.36h-.76l.71-3.34c.07-.32,.09-.5,.09-.64,0-.24-.12-.36-.36-.36-.38,0-.86,.26-1.43,1.01l-.71,3.33h-.74l.76-3.55c.11-.52,.11-.84,0-1.23l.7-.26c.09,.27,.15,.54,.09,.9,.49-.64,1.03-.88,1.57-.88s.89,.33,.89,.88c0,.22-.04,.44-.11,.76Z"/><path class="cls-1" d="M225.74,203.74h-.78l1.04-4.9,.8-.11-1.06,5.01Zm.92-5.77c-.3,0-.56-.25-.56-.56s.25-.55,.56-.55,.56,.24,.56,.55-.26,.56-.56,.56Z"/><path class="cls-1" d="M228.76,203.77h-.76l-.48-4.93,.77-.13,.23,3.21c.03,.4,.03,.89,.03,1.01,.03-.12,.19-.52,.39-.91l1.64-3.19h.82l-2.64,4.94Z"/><path class="cls-1" d="M234.42,200.93c-.32,.34-.85,.6-1.82,.6-.1,0-.33,0-.53-.02-.04,.18-.09,.43-.09,.61,0,.64,.24,1.1,.88,1.1,.43,0,.84-.19,1.18-.5l.28,.44c-.37,.39-.86,.69-1.59,.69-1.02,0-1.56-.55-1.56-1.74,0-.95,.35-2.08,.99-2.75,.43-.45,.87-.66,1.39-.66,.84,0,1.25,.5,1.25,1.17,0,.34-.13,.77-.39,1.06Zm-.92-1.66c-.57,0-1.06,.74-1.32,1.67,.16,0,.36,.02,.46,.02,.71,0,1.02-.19,1.24-.43,.15-.17,.24-.44,.24-.62,0-.31-.13-.64-.61-.64Z"/><path class="cls-1" d="M238.07,199.6c-.07-.03-.21-.07-.32-.07-.45,0-.83,.54-1.18,1.16l-.65,3.05h-.75l.75-3.55c.11-.52,.1-.84,0-1.23l.73-.26c.1,.28,.16,.58,.07,.99,.3-.51,.74-.99,1.33-.99,.19,0,.29,.04,.34,.07l-.32,.82Z"/><path class="cls-1" d="M241.24,199.61c-.32-.21-.59-.34-1.01-.34-.53,0-.87,.32-.87,.78,0,.41,.19,.58,.45,.72l.42,.23c.46,.25,.91,.57,.91,1.27,0,1.02-.77,1.62-1.82,1.62-.66,0-1.24-.2-1.62-.51l.35-.57c.37,.3,.84,.47,1.3,.47,.56,0,.97-.38,.97-.8,0-.46-.24-.67-.55-.82l-.42-.22c-.49-.25-.83-.59-.83-1.23,0-.94,.75-1.55,1.72-1.55,.59,0,1.02,.15,1.34,.39l-.34,.56Z"/><path class="cls-1" d="M242.73,203.74h-.78l1.04-4.9,.8-.11-1.06,5.01Zm.92-5.77c-.3,0-.56-.25-.56-.56s.25-.55,.56-.55,.56,.24,.56,.55-.26,.56-.56,.56Z"/><path class="cls-1" d="M246.82,199.44h-.91l-.63,2.94c-.03,.15-.07,.45-.07,.55,0,.26,.16,.36,.41,.36,.18,0,.27-.02,.41-.09l.03,.48c-.25,.13-.51,.21-.81,.21-.44,0-.81-.22-.81-.73,0-.21,.03-.42,.1-.74l.63-2.99h-.54l.13-.61h.55c.1-.47,.32-1.22,.33-1.25l.76-.17c-.02,.06-.23,.79-.36,1.42h1.03l-.24,.61Z"/><path class="cls-1" d="M248.55,203.89c-.52,1.04-.98,1.62-1.88,1.83l-.12-.53c.58-.22,.92-.51,1.35-1.46l-.3,.04c0-.57,0-1.15-.05-1.71l-.27-3.19,.75-.18,.22,3.12c.03,.42,.04,.88,0,1.29,.04-.1,.34-.79,.54-1.19l1.47-3.09h.83l-2.52,5.06Z"/><path class="cls-1" d="M250.13,205.04l-.2-.4c.38-.19,.71-.46,.8-.83-.21-.03-.48-.16-.48-.6,0-.36,.25-.66,.68-.66,.35,0,.65,.25,.65,.73,0,.82-.68,1.43-1.45,1.76Z"/><path class="cls-1" d="M258,203.74h-2.95l1.43-6.73h.78l-1.27,6.02h2.27l-.26,.72Z"/><path class="cls-1" d="M260.26,203.86c-1.05,0-1.52-.57-1.52-1.73,0-1.78,.95-3.44,2.42-3.44,.99,0,1.51,.59,1.51,1.63,0,1.64-.79,3.55-2.41,3.55Zm.82-4.56c-.87,0-1.54,1.4-1.54,2.87,0,.73,.22,1.06,.78,1.06,.9,0,1.52-1.62,1.52-3.03,0-.57-.24-.9-.76-.9Z"/><path class="cls-1" d="M266.4,199.61c-.32-.21-.59-.34-1.01-.34-.53,0-.87,.32-.87,.78,0,.41,.19,.58,.45,.72l.42,.23c.46,.25,.91,.57,.91,1.27,0,1.02-.77,1.62-1.82,1.62-.66,0-1.24-.2-1.62-.51l.35-.57c.37,.3,.84,.47,1.3,.47,.56,0,.97-.38,.97-.8,0-.46-.24-.67-.55-.82l-.42-.22c-.49-.25-.83-.59-.83-1.23,0-.94,.75-1.55,1.72-1.55,.59,0,1.02,.15,1.34,.39l-.34,.56Z"/><path class="cls-1" d="M272.42,203.74l-.09-1.99h-2.11l-.97,1.99h-.87l3.34-6.73h1.07l.45,6.73h-.82Zm-.23-4.72c-.02-.4-.05-1.15-.06-1.34-.11,.24-.46,1.01-.62,1.33l-.97,2.04h1.75l-.1-2.03Z"/><path class="cls-1" d="M277.9,200.37l-.71,3.36h-.75l.71-3.34c.07-.32,.09-.5,.09-.64,0-.24-.12-.36-.36-.36-.38,0-.86,.26-1.43,1.01l-.71,3.33h-.74l.75-3.55c.11-.52,.11-.84,0-1.23l.7-.26c.09,.27,.15,.54,.09,.9,.49-.64,1.03-.88,1.57-.88s.89,.33,.89,.88c0,.22-.04,.44-.11,.76Z"/><path class="cls-1" d="M282.75,200.06l-.49,2.3c-.11,.5-.22,1.16-.29,1.46-.31,1.27-.87,1.93-2.11,1.93-.68,0-1.2-.24-1.62-.49l.26-.56c.36,.21,.85,.42,1.41,.42s1.1-.4,1.29-1.23l.2-.8c-.29,.43-.76,.72-1.32,.72-.75,0-1.23-.56-1.23-1.53,0-1.03,.35-2.1,.93-2.76,.51-.59,1.13-.81,1.83-.81,.57,0,1.04,.17,1.39,.34-.1,.32-.19,.69-.25,1.01Zm-1.22-.7c-.56,0-1.03,.27-1.37,.85-.33,.57-.54,1.36-.54,2.05,0,.56,.23,.92,.67,.92,.56,0,1-.51,1.28-1.05l.57-2.64c-.11-.05-.32-.14-.61-.14Z"/><path class="cls-1" d="M286.87,200.93c-.32,.34-.85,.6-1.82,.6-.1,0-.33,0-.53-.02-.04,.18-.09,.43-.09,.61,0,.64,.25,1.1,.88,1.1,.43,0,.84-.19,1.18-.5l.28,.44c-.37,.39-.86,.69-1.59,.69-1.02,0-1.56-.55-1.56-1.74,0-.95,.35-2.08,.99-2.75,.43-.45,.87-.66,1.39-.66,.84,0,1.25,.5,1.25,1.17,0,.34-.13,.77-.39,1.06Zm-.92-1.66c-.57,0-1.06,.74-1.32,1.67,.16,0,.36,.02,.46,.02,.71,0,1.02-.19,1.24-.43,.15-.17,.24-.44,.24-.62,0-.31-.13-.64-.61-.64Z"/><path class="cls-1" d="M289.5,198.18l-.94,4.48c-.03,.16-.06,.28-.06,.35,0,.16,.07,.21,.2,.21,.03,0,.15-.02,.16-.02l.04,.53c-.19,.09-.36,.11-.57,.11-.38,0-.61-.21-.61-.55,0-.12,.02-.29,.05-.45l.97-4.56c.12-.56,.13-1.16,.04-1.48l.77-.26c.1,.36,.1,.96-.05,1.65Z"/><path class="cls-1" d="M293.23,200.93c-.32,.34-.85,.6-1.82,.6-.1,0-.33,0-.53-.02-.04,.18-.09,.43-.09,.61,0,.64,.24,1.1,.88,1.1,.43,0,.84-.19,1.18-.5l.28,.44c-.37,.39-.86,.69-1.59,.69-1.02,0-1.56-.55-1.56-1.74,0-.95,.35-2.08,.99-2.75,.43-.45,.87-.66,1.39-.66,.84,0,1.25,.5,1.25,1.17,0,.34-.13,.77-.39,1.06Zm-.92-1.66c-.57,0-1.06,.74-1.32,1.67,.16,0,.36,.02,.46,.02,.71,0,1.02-.19,1.23-.43,.15-.17,.24-.44,.24-.62,0-.31-.13-.64-.61-.64Z"/><path class="cls-1" d="M297.14,199.61c-.32-.21-.59-.34-1.01-.34-.53,0-.87,.32-.87,.78,0,.41,.19,.58,.45,.72l.42,.23c.46,.25,.91,.57,.91,1.27,0,1.02-.77,1.62-1.82,1.62-.66,0-1.24-.2-1.62-.51l.35-.57c.37,.3,.84,.47,1.3,.47,.56,0,.97-.38,.97-.8,0-.46-.23-.67-.55-.82l-.42-.22c-.49-.25-.83-.59-.83-1.23,0-.94,.75-1.55,1.72-1.55,.59,0,1.02,.15,1.34,.39l-.34,.56Z"/></g></svg>