<?xml version="1.0" encoding="UTF-8"?><svg id="Layer_1" xmlns="http://www.w3.org/2000/svg" viewBox="0 0 360 360"><defs><style>.cls-1{fill:#f32735;stroke:#f32735;stroke-miterlimit:3.86;stroke-width:4.16px;}.cls-2{fill:#ec1c24;}.cls-3{fill:#ffcd00;}.cls-4{fill:#00a551;}.cls-5{fill:#231f20;}</style></defs><path class="cls-1" d="M74.07,137.97c2.98,2.45,10.66,4.58,10.66,8.53,0,.75-.85,.96-.85,1.71,0,3.62,5.12,7.78,8.1,9.81,6.61,4.48,4.53,4.02,11.46,8.18,4.65,2.2,5.87-2.2,8.8-.24l10.43-.26c5.97-.96,4.58-1.06,9.81-3.84,.96-.43,6.29-1.71,7.46-1.71,3.73,0,6.83,1.8,8.31,5.12,1.4,3.13,9.72,.93,11.68,3.13,0,2.45,1.75,3.15,1.75,5.6,0,3.73-2.34,8-2.34,11.73,0,8.1,3.72,7.48,8.41,13.98l3.1,10.75c.64,4.06-3.1,5.25-3.1,9.31,0,2.66,2.45,4.13,1.39,6.47-1.49,3.31-3.53,6.15-4.81,9.67-.96,2.88,0,6.7,0,9.79,0,7.78-2.97,3.57-.3,10.82,.74,2.03,3.84,5.87,3.84,8.1,0,7.03-.43,13.01-.43,20.03,0,.65,.43,1.07,.43,1.71,1.64,5.58,3.31,5.75,3.31,11.67,0,7.89,2.39,16.29,6.22,16.72,3.93,.43,11.6-3.41,15.54-3.41,2.64,0,10.17,3.07,15.19-2.94,2.92-3.5,11.66-14.01,15.38-21.61,2.31-4.72,11.03-6.88,13.59-12.42,2.56-13.22-1.17-9.16,2.12-15.07,6.24-10.85,.94-18.37,6.38-24.16,2.7-2.88,3.1-7.78,4.81-12.47,2.8-7.71,5.28-16.45,18.44-27.72,16.69-14.28,9.47-31.98,4.5-48.49-2.22-7.4-16.38-18.26-12.54-23.38-3.88-4.26-5.93-10.79-8.53-17.48-3.94-10.52-8.16-18.9-11.53-28.94-5.18-15.43-8.59-10.55-12.85-13.15-3.23-1.98-7.63-1.49-11.49-1.71-5.37-.32-7.69-5.56-13.21-6.11l-4.65,1.22-6.12,5.14c-1.3,2.81,1.7,7.68-1.99,7.74-6.59,.11-10.07-3.03-14.07-7.24-3.38-3.55-12.78,.81-15.49-2.7-2.3-2.99,4.15-11.98,.99-14.78-7.59-6.71-17.9,.85-21.24-.32-12.44-1.81-21.39,5.01-21.39,5.01-5.49-.74-5.31-2.87-14.92-1.71-9.23,6.17-12.37,13.64-11.51,15.77,.96,2.4-4.04,7.29-5.78,10.7-.24,6.36-4.72,10.22-7.34,9.79-3.52,3.86-5.43,4.21-7.34,7.33-1.63,2.67-1.49,6.13-2.14,9.27-1.12,5.44,3.84,4.81,3.84,12.37,0,5.92-2.56,9.81-1.45,14.96,1.24,5.79-1.83,5.17,1.45,9.77h0Z"/><path class="cls-5" d="M289.93,173.87c-.05-2.74-2.3-5.57-4.48-8.31-1.07-1.35-2.08-2.62-2.61-3.61l-.15-.25c-2.72-3.76-3.72-5.68-4.09-6.55l.18-.13-.21-1.3c-.66-4.05-3.44-9.37-5.68-13.63-1.02-1.93-2.27-4.33-2.46-5.1l.03-.3-4.18-11.69c.62-.41,1.51-1.2,1.51-3,0-3.32-2.21-5.04-3.99-6.43-1.1-.85-2.13-1.66-2.66-2.76-1.12-2.3-2.04-4.3-2.88-6.14-1.84-3.99-3.42-7.44-5.96-11.63-2.35-3.89-5.4-10-6.86-12.94l-.42-.84c-.51-1.03-.98-1.99-1.44-2.93-.98-2.02-1.93-3.96-3.17-6.28-.13-.26-.26-.58-.4-.92-.71-1.74-1.78-4.36-4.53-4.36h0c-11.65,.45-20.12,1.84-30.22,4.92-3.5,1.07-6.51,1.94-9.38,2.77-4.25,1.23-8.26,2.39-13.1,3.98-5.57,1.83-21.84,8.54-25.92,11.23-2.2,1.45-8.05,5.04-13.04,8-1.09,.65-2.36,1.34-3.65,2.04-2.5,1.36-5.09,2.76-7.03,4.23-1.58,1.2-4.23,3.21-2.32,7.04,.65,1.3,3.63,4.48,11.38,12.16,.88,.87,1.52,1.51,1.75,1.75,2.83,2.98,4.35,4.48,5.48,5.59,1.3,1.28,2.02,1.99,3.66,3.89,1.8,2.07,4.83,5.02,7.5,7.62,1.79,1.74,3.48,3.38,4.26,4.26,1.34,1.39,2.68,2.74,4.06,4.14,2.28,2.31,4.67,4.72,7.37,7.58,2.18,2.31,4.54,4.66,7.04,7.14,1.66,1.65,3.38,3.36,5.24,5.25,1.01,.89,2.29,2.28,3.65,3.75,1.56,1.7,3.32,3.61,5.13,5.26,4,3.65,11.44,10.43,16.24,14.39l.6,.47h.22c.67,.74,1.9,2.95,1.63,4.6-.83,4.99-2.81,10.41-5.43,14.87-3.42,5.74-6.69,10.26-9.49,14.03l-.17,.26c-2,3.78-6.09,8.49-8.54,11.29-.52,.6-2.11,2.42-8.34,16.7-1.06,2.45-1.78,4.74-2.47,6.96-.35,1.12-.7,2.24-1.14,3.54-.41,1.61-3.02,5.34-5.33,8.63-3.69,5.26-7.51,10.7-7.89,14.39l-.52,2.72,.63,.64c.32,.83,.57,3.76,.78,6.14,.49,5.64,1.1,12.65,3.47,17.04,1.3,2.41,4.48,3.73,8.96,3.73s9.58-1.39,12.43-3.46c.38-.28,.62-.31,.83-.31,.45,0,1.07,.21,1.78,.45,1.12,.37,2.51,.84,4.24,.84,4.03,0,8.3-2.61,13.41-8.21,4.11-3.52,7.44-10.03,9.43-13.93,.45-.88,.95-1.86,1.22-2.31,4.3-2.51,13.83-12.88,13.92-12.99,3.95-4.51,4.01-9.43,4.07-14.18,.02-1.2,.03-2.43,.11-3.68,.07-1.14,.28-1.33,.89-1.9,1.31-1.23,2.52-2.66,2.78-6.65,.06-.95-.04-2.78-.16-4.91-.1-1.8-.27-4.76-.21-5.47l4.09-7.5c1.8-1.63,2.24-3.86,2.74-6.43,.62-3.14,1.38-7.05,4.89-12.04,1.04-1.49,1.51-3.09,1.92-4.5,.7-2.4,1.09-3.75,3.56-4.42l7.36-.55c.96,.07,2.05,.13,3.19,.13,5.43,0,9.1-1.16,10.91-3.44,.82-1.03,1.66-2.8,1.05-5.44-.37-1.59-.73-2.59-.99-3.32-.2-.55-.29-.8-.3-1.01,.81-.5,1.31-1.36,1.54-2.66,.12-.7,.18-1.74-.25-2.74,.57-1.05,.68-2.32,.76-3.17l.08-.86-.19-.47c-.42-1.05-.66-1.77-.75-2.27,3.45-1.49,5.04-4.29,5.04-6.5Z"/><path class="cls-4" d="M222.24,160.46c1.13-.03,2.02-.95,2.02-2.08v-15.4c0-.61-.27-1.2-.74-1.59-.47-.39-1.09-.57-1.7-.46-6.58,1.15-18.61,1.76-34.8,1.76-8.54,0-15.77-.17-18.18-.24,.24,.25,.46,.48,.63,.67,1.13,1.16,2.31,2.36,3.52,3.58,1.61,.03,3.55,.06,5.7,.09l2.98,5.92c-1.21-.26-2.42-.54-3.62-.84,.91,.94,1.84,1.9,2.82,2.94,.76,.81,1.58,1.64,2.4,2.47,14.63,2.85,29.69,3.2,36.08,3.2,1.83,0,2.87-.03,2.87-.03Zm-36.99-7.03l-3.03-6.59c1.54,.01,3.14,.02,4.81,.02,.29,0,.61,0,.91,0l2.77,7.48c-1.81-.26-3.64-.57-5.46-.91Zm9.01,1.38l-2.38-7.98c2.22-.02,4.52-.05,6.85-.1v.03c.5,4.08,.89,6.89,1.11,8.66-1.81-.17-3.68-.37-5.58-.61Zm9.43,.92l-.34-9.14c2.41-.08,4.78-.19,7.07-.33l.51,9.88c-2.2-.09-4.65-.23-7.24-.42Zm11.72,.55l.09-10.39c1.63-.14,3.19-.3,4.6-.49v10.92c-1.17,0-2.77,0-4.69-.04Z"/><path class="cls-2" d="M269.44,148.59c-2.51,1.08-3.87,2.36-4.95,3.39-.49,.46-.91,.86-1.36,1.16l-.96,.65c-2.07,1.43-3.11,2.14-7.18,2.52-1.14,.1-1.99,1.12-1.88,2.26,.1,1.08,1,1.89,2.07,1.89,.06,0,.13,0,.19,0,4.92-.45,6.6-1.47,9.16-3.23l.91-.62c.74-.49,1.33-1.05,1.91-1.6,.98-.93,1.9-1.8,3.73-2.58,.96-.41,2.33-.7,3.43,.2,.2,.17,.43,.28,.67,.36-.6-1.62-1.4-3.38-2.24-5.09-1.13-.02-2.31,.2-3.49,.71Z"/><path class="cls-2" d="M263.99,127.19c.11-.03,.2-.1,.31-.14l-1.11-3.11,.47-.81c-.21-.02-.43-.03-.65,.02-10.48,2.56-21.88,12.67-22.63,15.13-.39,1.26,.16,2.64,1.17,5.14,1.9,4.73,3.54,9.49,1,11.37-3.07,1.89-5.14,2.51-8.8,3.5-.93,.26-1.81,.43-2.66,.58-1.83,.35-3.71,.72-5.44,1.84-2.97,1.56-5.01,5.01-7.16,8.68-2.59,4.43-5.53,9.44-10.37,11.5-.22,.09-.39,.23-.56,.38,1.06,.96,2.15,1.93,3.25,2.9,5.25-2.68,8.34-7.67,11.01-12.23,.04,.91,.04,1.79-.13,2.67-1.22,5.97-2.57,7.77-6.17,12.55l-.52,.69c.88,.76,1.74,1.49,2.51,2.13,.26,.1,.51,.26,.75,.44l.57-.76c3.79-5.03,5.52-7.33,6.93-14.24,.36-1.86,.23-3.59,.12-5.11-.18-2.35-.22-3.74,.84-5.03,1.23-1.52,2.61-1.84,5.14-2.32,.96-.18,1.96-.37,3-.66,3.84-1.04,6.38-1.8,9.99-4.04,9.87-6.13,15.55-9.71,24.88-16.63-.89-1.73-1.43-2.91-1.68-3.82-.13,.06-.27,.09-.39,.18-7.61,5.66-12.77,9.08-19.66,13.41-.1-3.34-1.54-6.93-2.59-9.53-.34-.85-.75-1.87-.92-2.45,1.71-2.09,10.83-10.11,19.51-12.23Z"/><path class="cls-2" d="M276.48,161.94c.16-1.34-.21-2.62-1.01-3.52-.57-.64-1.28-1-1.99-1-2.15,0-3.81,.85-5.28,1.6-.43,.22-.87,.44-1.32,.65-1.24,.56-4.82,1.35-6.97,1.83-.76,.17-1.43,.32-1.91,.43-1.04,.25-1.72,1.26-1.57,2.32s1.07,1.83,2.16,1.78l6.56-.34c.12,0,.24-.02,.35-.05,.81-.18,1.77,.09,2.91,.44,.86,.26,1.83,.55,2.89,.66l.21,.03c.29,.04,.58,.07,.88,.07h0c1.35,0,2.51-.62,3.44-1.84,.23-.3,.38-.66,.42-1.05l.21-2.01Z"/><path class="cls-4" d="M165.08,138.72c.7,.68,1.33,1.3,1.93,1.89,4.93-3.93,43.05-33.22,86.94-36.99-.64-1.32-1.3-2.63-2.05-3.98-2.13,.22-4.25,.47-6.35,.79l-2.86-9.1c1.42-.19,2.84-.35,4.26-.49-.72-1.38-1.42-2.72-2.04-3.95-47.63,5.29-89.94,39.52-90.96,40.36,1.04,1.02,1.78,1.76,2.89,3.01,.46-.37,1.49-1.18,3.02-2.33l6.35,8.02c-1.12,.85-1.87,1.45-2.21,1.73,.36,.35,.71,.7,1.06,1.04Zm71.12-46.31l2.89,9.2c-2.08,.43-4.14,.89-6.18,1.41l-3.41-9.17c2.21-.54,4.45-1.01,6.7-1.44Zm-12.84,3.09l3.43,9.22c-2.73,.82-5.41,1.7-8.03,2.64l-3.97-9.11c2.8-.99,5.67-1.91,8.58-2.76Zm-14.37,4.91l3.98,9.13c-2.31,.92-4.56,1.88-6.75,2.86l-4.54-8.93c2.38-1.05,4.82-2.08,7.31-3.06Zm-12.78,5.59l4.54,8.93c-2.76,1.33-5.4,2.69-7.91,4.04l-5.12-8.67c2.7-1.45,5.54-2.89,8.49-4.3Zm-13.65,7.16l5.12,8.68c-2.24,1.28-4.34,2.54-6.3,3.76l-5.71-8.36c2.15-1.32,4.46-2.7,6.89-4.08Zm-18.04,11.42c1.81-1.27,3.91-2.7,6.25-4.23l5.72,8.37c-2.93,1.93-5.41,3.67-7.38,5.1l1.67-1.32-6.26-7.92Z"/><path class="cls-3" d="M289.93,173.87c-.05-2.74-2.3-5.57-4.48-8.31-1.07-1.35-2.08-2.62-2.61-3.61l-.15-.25c-2.72-3.76-3.72-5.68-4.09-6.55l.18-.13-.21-1.3c-.66-4.05-3.44-9.37-5.68-13.63-1.02-1.93-2.27-4.33-2.46-5.1l.03-.3-4.18-11.69c.62-.41,1.51-1.2,1.51-3,0-3.32-2.21-5.04-3.99-6.43-1.1-.85-2.13-1.66-2.67-2.76-1.12-2.3-2.04-4.3-2.88-6.15-1.84-3.99-3.42-7.44-5.96-11.62-2.35-3.89-5.4-10.01-6.87-12.95l-.41-.83c-.51-1.03-.97-1.98-1.43-2.91-.99-2.03-1.93-3.97-3.18-6.3-.13-.26-.26-.58-.4-.92-.71-1.74-1.78-4.36-4.53-4.36h0c-11.65,.45-20.13,1.84-30.22,4.92-3.5,1.07-6.5,1.94-9.38,2.77-4.25,1.23-8.26,2.39-13.11,3.98-5.58,1.83-21.85,8.54-25.92,11.22-2.19,1.44-8.03,5.03-13.04,8-1.09,.65-2.36,1.33-3.65,2.03-2.5,1.36-5.09,2.76-7.03,4.24-1.58,1.2-4.23,3.21-2.32,7.04,.65,1.29,3.62,4.47,11.36,12.15,.89,.88,1.54,1.52,1.76,1.76,2.83,2.98,4.35,4.47,5.47,5.59,1.3,1.28,2.02,1.99,3.66,3.89,1.8,2.07,4.83,5.02,7.5,7.62,1.79,1.74,3.48,3.38,4.26,4.26,1.34,1.38,2.68,2.74,4.06,4.13,2.28,2.31,4.67,4.73,7.38,7.59,2.18,2.31,4.54,4.65,7.03,7.14,1.66,1.65,3.38,3.36,5.25,5.25,1.01,.89,2.29,2.28,3.65,3.75,1.56,1.69,3.32,3.61,5.13,5.26,4.01,3.65,11.47,10.46,16.24,14.39l.6,.47h.21c.67,.74,1.9,2.95,1.63,4.6-.83,4.99-2.81,10.41-5.43,14.87-3.42,5.74-6.69,10.25-9.49,14.03l-.17,.26c-2,3.78-6.09,8.49-8.54,11.29-.52,.6-2.11,2.42-8.34,16.7-1.06,2.45-1.78,4.74-2.47,6.96-.35,1.12-.7,2.24-1.14,3.54-.41,1.61-3.02,5.34-5.33,8.63-3.69,5.26-7.51,10.7-7.89,14.39l-.52,2.73,.63,.64c.32,.83,.57,3.76,.78,6.14,.49,5.64,1.1,12.65,3.47,17.04,1.3,2.41,4.48,3.74,8.96,3.74s9.58-1.39,12.43-3.46c.38-.28,.62-.31,.83-.31,.45,0,1.07,.21,1.78,.45,1.12,.37,2.51,.84,4.24,.84,4.03,0,8.3-2.61,13.41-8.21,4.11-3.52,7.43-10.03,9.43-13.93,.45-.88,.95-1.86,1.22-2.31,4.3-2.51,13.83-12.88,13.92-12.99,3.95-4.51,4.01-9.43,4.07-14.18,.02-1.2,.03-2.43,.11-3.68,.07-1.14,.28-1.33,.89-1.9,1.31-1.23,2.52-2.66,2.78-6.65,.06-.94-.04-2.78-.16-4.9-.1-1.8-.27-4.77-.21-5.48l4.09-7.5c1.8-1.63,2.24-3.86,2.74-6.43,.62-3.14,1.38-7.05,4.89-12.04,1.05-1.49,1.51-3.09,1.92-4.5,.7-2.4,1.09-3.75,3.56-4.42l7.36-.55c.96,.07,2.05,.13,3.2,.13,5.42,0,9.09-1.16,10.91-3.44,.82-1.03,1.66-2.8,1.05-5.44-.37-1.59-.73-2.59-.99-3.32-.2-.55-.29-.8-.3-1.01,.81-.5,1.31-1.37,1.54-2.66,.12-.7,.18-1.74-.25-2.74,.57-1.05,.68-2.32,.76-3.17l.08-.86-.19-.47c-.42-1.05-.66-1.77-.75-2.27,3.45-1.49,5.04-4.29,5.04-6.5Zm-7.55,3l-.99,.29-.37,.96c-.7,1.81-.21,3.55,.57,5.59-.04,.38-.09,.94-.18,1.25-1.13,.44-1.37,1.36-1.41,1.76l.09,1.56,1.09,.61c0,.06,0,.13-.02,.23-.67,.34-1.12,.89-1.34,1.67-.53,1.89-.18,2.89,.28,4.16,.24,.67,.54,1.51,.85,2.86,.26,1.11-.02,1.63-.25,1.92-.93,1.17-3.79,1.87-7.65,1.87-1.09,0-2.13-.05-3.03-.12h-.16l-7.87,.58-.35,.06c-4.94,1.24-5.92,4.62-6.71,7.34-.35,1.21-.68,2.35-1.33,3.27-4.02,5.71-4.91,10.29-5.57,13.63-.46,2.34-.74,3.59-1.59,4.26l-.34,.26-4.61,8.45-.14,.31c-.32,.92-.29,2.43-.03,7.15,.1,1.74,.21,3.7,.16,4.39-.18,2.68-.75,3.22-1.47,3.89-.85,.8-2.02,1.89-2.2,4.68-.08,1.32-.1,2.62-.12,3.89-.06,4.55-.1,8.13-3.04,11.49-1.91,2.17-10.42,10.91-13.05,12.23-.88,.44-1.26,1.17-2.66,3.92-1.87,3.66-5,9.78-8.51,12.74l-.2,.19c-4.25,4.68-7.66,6.95-10.43,6.95-1.05,0-1.96-.3-2.92-.63-.97-.33-1.97-.66-3.1-.66s-2.27,.37-3.28,1.11c-2.13,1.54-6.33,2.66-9.99,2.66-3.08,0-4.88-.78-5.3-1.55-1.96-3.63-2.55-10.45-2.99-15.43-.34-3.92-.55-6.12-1.12-7.46l.19-1,.03-.21c.21-2.57,4.06-8.06,7.16-12.47,2.88-4.1,5.36-7.65,5.91-9.82,.41-1.17,.77-2.33,1.13-3.5,.69-2.21,1.34-4.3,2.32-6.54,5.54-12.71,7.27-15.18,7.66-15.64,2.53-2.91,6.75-7.76,9-11.94,2.84-3.84,6.15-8.41,9.64-14.27,2.87-4.9,5.04-10.84,5.96-16.31,.48-2.84-.96-6.08-2.49-7.88-.56-.66-1.12-1.11-1.73-1.35-4.7-3.91-11.87-10.44-15.77-13.99-1.67-1.52-3.37-3.37-4.87-5-1.43-1.56-2.79-3.03-3.85-3.96-1.76-1.8-3.49-3.52-5.17-5.18-2.47-2.46-4.81-4.78-6.94-7.04-2.73-2.89-5.14-5.33-7.44-7.66-1.37-1.38-2.69-2.73-3.96-4.03-.82-.92-2.48-2.54-4.41-4.41-2.61-2.54-5.58-5.43-7.26-7.37-1.75-2.02-2.56-2.82-3.89-4.13-1.11-1.09-2.6-2.56-5.38-5.49-.24-.25-.92-.92-1.85-1.85-2.43-2.4-9.8-9.72-10.57-11.06-.24-.48-.22-.67-.22-.67,.06-.23,.85-.84,1.46-1.29,1.57-1.19,4.01-2.52,6.38-3.8,1.34-.73,2.65-1.44,3.79-2.11,5.13-3.05,10.93-6.61,13.2-8.11,3.68-2.43,19.81-9.06,24.94-10.75,4.77-1.57,8.75-2.72,12.96-3.93,2.89-.84,5.92-1.71,9.44-2.79,9.77-2.99,17.62-4.28,28.84-4.73,.28,.38,.64,1.26,.84,1.76,.18,.45,.36,.88,.56,1.26,1.24,2.33,2.17,4.23,3.13,6.21,.46,.94,.93,1.91,1.45,2.95l.41,.83c1.49,2.99,4.59,9.21,7.03,13.25,2.41,3.98,3.88,7.17,5.74,11.21,.86,1.87,1.79,3.89,2.92,6.22,.95,1.98,2.49,3.17,3.85,4.23,1.58,1.23,2.26,1.85,2.37,2.92-.43,.27-1.04,.74-1.54,1.61l-.49,.84,4.7,13.16c.14,1.3,1.05,3.08,2.92,6.66,1.87,3.56,4.38,8.35,5.13,11.72-.03,.1-.05,.2-.07,.3-.15,.87-.43,2.48,4.97,9.98,.71,1.3,1.8,2.67,2.96,4.13,1.5,1.88,3.55,4.47,3.58,5.76,0,.41-.58,2.13-3.4,2.96Z"/></svg>