<?xml version="1.0" encoding="UTF-8"?><svg id="Layer_1" xmlns="http://www.w3.org/2000/svg" viewBox="0 0 360 360"><defs><style>.cls-1{fill:#00ae42;}.cls-2,.cls-3,.cls-4{fill:#f32735;}.cls-5{fill:#ec1c24;}.cls-6{fill:#ffcd00;}.cls-7{fill:#00a551;}.cls-8{fill:#231f20;}.cls-3{stroke:#f32735;stroke-miterlimit:3.86;stroke-width:2.54px;}.cls-4{fill-rule:evenodd;}</style></defs><g><path class="cls-2" d="M162.17,254.72h1.62v5.93h-1.27l-1.29-3.71v4.8h2.89c.31,0,.49-.06,.71-.25,.17-.16,.25-.35,.25-.63v-6.5c0-.28-.06-.43-.25-.65-.18-.17-.37-.25-.69-.23h-1.62v-4.96h1.27l1.29,2.52v-3.61h-2.91c-.27,0-.49,.08-.67,.25-.19,.16-.27,.36-.27,.62v5.52c0,.28,.06,.45,.25,.64,.17,.18,.39,.27,.68,.24h0Z"/><path class="cls-2" d="M170.34,247.44h-1.31v4.77h-.74v1.07h.74v7.59c0,.27,.06,.46,.25,.63,.23,.19,.41,.25,.7,.25h1.58l-1.23-1.1v-7.38h1.23v-1.07h-1.23v-4.77h0Z"/><path class="cls-2" d="M179.04,252.21h-1.31v8.45h-1.25v-8.45h-2.03l.74,1.07v7.59c0,.27,.07,.46,.27,.63,.19,.19,.39,.25,.68,.25h3.65l-.76-1.1v-8.45h0Z"/><path class="cls-4" d="M186.27,260.66v-12.12l.74-1.09h-2.05v4.77h-1.58c-.31,0-.47,.04-.7,.23-.18,.18-.25,.37-.25,.64v7.79c0,.27,.07,.46,.25,.63,.23,.19,.39,.25,.7,.25h3.63l-.74-1.1h0Zm-1.31-7.38v7.38h-1.25v-7.38h1.25Z"/><path class="cls-4" d="M194.11,257.38v-4.3c0-.27-.08-.46-.25-.64-.23-.19-.41-.23-.71-.23h-1.93c-.29,0-.49,.04-.7,.23-.18,.18-.25,.37-.25,.64v7.79c0,.27,.07,.46,.25,.63,.21,.19,.41,.25,.7,.25h2.89v-3.26l-1.29,2.17h-1.27v-3.28h2.56Zm-1.29-4.1v3h-1.27v-3h1.27Z"/><path class="cls-2" d="M200.32,261.83h2.07l-.76-1.09v-7.63c0-.27-.08-.45-.28-.62-.21-.22-.41-.25-.7-.25h-3.65l.74,1.07v7.44l-.74,1.09h2.05v-8.53h1.26v8.53h0Z"/><path class="cls-2" d="M206.84,247.44h-1.31v4.77h-.74v1.07h.74v7.59c0,.27,.06,.46,.26,.63,.23,.19,.4,.25,.7,.25h1.59l-1.23-1.1v-7.38h1.23v-1.07h-1.23v-4.77h0Z"/><path class="cls-4" d="M220.09,253.49v-4.96h1.27v4.96h-1.27Zm2.57,7.16v-5.51c0-.27-.09-.48-.27-.64-.21-.2-.41-.23-.7-.23v-.37c.3,0,.49-.08,.7-.26,.18-.17,.27-.33,.27-.58v-4.75c0-.27-.07-.46-.27-.62-.21-.19-.39-.25-.68-.25h-3.63l.74,1.09v12.12l-.74,1.1h2.01v-7.03h1.27v7.03h2.06l-.76-1.1h0Z"/><path class="cls-4" d="M230.22,257.38v-4.3c0-.27-.08-.46-.25-.64-.23-.19-.41-.23-.7-.23h-1.93c-.29,0-.49,.04-.7,.23-.17,.18-.25,.37-.25,.64v7.79c0,.27,.08,.46,.25,.63,.22,.19,.41,.25,.7,.25h2.89v-3.26l-1.29,2.17h-1.26v-3.28h2.55Zm-1.29-4.1v3h-1.26v-3h1.26Z"/><path class="cls-2" d="M234.72,257.38h1.62v3.3h-1.25l-1.3-2.19v3.26h2.89c.31,0,.47-.06,.7-.24,.19-.18,.25-.37,.25-.64v-3.73c0-.25-.06-.43-.24-.61-.2-.19-.39-.27-.7-.25h-1.6v-2.99h1.25l1.29,1.76v-2.85h-2.91c-.27,0-.49,.06-.66,.25-.19,.17-.27,.35-.27,.62v3.42c0,.25,.06,.45,.27,.6,.16,.22,.37,.29,.66,.27h0Z"/><path class="cls-4" d="M245.24,260.95v-7.85c0-.27-.08-.45-.25-.62-.23-.22-.41-.25-.72-.25h-1.93c-.29,0-.49,.04-.7,.25-.19,.18-.27,.35-.27,.62v7.85c0,.26,.08,.46,.27,.61,.21,.21,.41,.27,.7,.27h1.93c.31,0,.49-.06,.72-.27,.17-.14,.25-.35,.25-.61h0Zm-1.31-.21h-1.27v-7.44h1.27v7.44h0Z"/><path class="cls-2" d="M252.78,252.21h-1.3v8.45h-1.25v-8.45h-2.03l.74,1.07v7.59c0,.27,.08,.46,.28,.63,.19,.19,.38,.25,.68,.25h3.65l-.77-1.1v-8.45h0Z"/><path class="cls-2" d="M258.79,261.75l-.74-1.1v-7.38h1.23l1.33,1.78v-1.98c0-.27-.08-.46-.27-.64-.22-.19-.39-.23-.68-.23h-3.65l.74,1.07v7.38l-.74,1.1h2.79Z"/><path class="cls-2" d="M267.76,255.06v-2.85h-2.91c-.27,0-.46,.04-.68,.23-.2,.18-.28,.37-.28,.64v7.79c0,.27,.08,.46,.28,.63,.22,.19,.41,.25,.68,.25h2.91v-3.26l-1.31,2.17h-1.23v-7.38h1.23l1.31,1.78h0Z"/><path class="cls-4" d="M275.38,257.38v-4.3c0-.27-.08-.46-.25-.64-.24-.19-.41-.23-.7-.23h-1.93c-.29,0-.49,.04-.7,.23-.18,.18-.25,.37-.25,.64v7.79c0,.27,.08,.46,.25,.63,.22,.19,.41,.25,.7,.25h2.89v-3.26l-1.29,2.17h-1.27v-3.28h2.55Zm-1.29-4.1v3h-1.27v-3h1.27Z"/><path class="cls-2" d="M289.93,247.44h-2.91c-.27,0-.47,.06-.66,.25-.19,.16-.28,.36-.28,.62v12.55c0,.27,.08,.46,.28,.63,.19,.19,.39,.25,.66,.25h2.91v-4.8l-1.29,3.69h-1.26v-12.12h1.26l1.29,2.53v-3.61h0Z"/><path class="cls-4" d="M297.58,257.38v-4.3c0-.27-.07-.46-.25-.64-.23-.19-.41-.23-.7-.23h-1.93c-.3,0-.49,.04-.7,.23-.17,.18-.25,.37-.25,.64v7.79c0,.27,.08,.46,.25,.63,.22,.19,.41,.25,.7,.25h2.89v-3.26l-1.28,2.17h-1.27v-3.28h2.56Zm-1.28-4.1v3h-1.27v-3h1.27Z"/><path class="cls-2" d="M303.8,261.83h2.07l-.77-1.09v-7.63c0-.27-.07-.45-.27-.62-.21-.22-.41-.25-.7-.25h-3.65l.74,1.07v7.44l-.74,1.09h2.05v-8.53h1.27v8.53h0Z"/><path class="cls-2" d="M310.3,247.44h-1.31v4.77h-.74v1.07h.74v7.59c0,.27,.06,.46,.25,.63,.24,.19,.41,.25,.7,.25h1.58l-1.23-1.1v-7.38h1.23v-1.07h-1.23v-4.77h0Z"/><path class="cls-4" d="M319.02,257.38v-4.3c0-.27-.08-.46-.25-.64-.24-.19-.42-.23-.71-.23h-1.93c-.29,0-.49,.04-.7,.23-.18,.18-.26,.37-.26,.64v7.79c0,.27,.08,.46,.26,.63,.21,.19,.41,.25,.7,.25h2.89v-3.26l-1.29,2.17h-1.26v-3.28h2.56Zm-1.29-4.1v3h-1.26v-3h1.26Z"/><path class="cls-2" d="M325,261.75l-.74-1.1v-7.38h1.23l1.33,1.78v-1.98c0-.27-.08-.46-.28-.64-.22-.19-.39-.23-.68-.23h-3.65l.74,1.07v7.38l-.74,1.1h2.79Z"/></g><rect class="cls-2" x="161.34" y="233.09" width="55.16" height="8.44"/><rect class="cls-6" x="216.49" y="233.09" width="55.17" height="8.44"/><rect class="cls-1" x="271.66" y="233.08" width="55.16" height="8.44"/><g><path class="cls-6" d="M178.25,198.55c0-3.34-1.02-5.71-3.04-7.02-1.93-1.26-4.12-1.9-6.5-1.9h-2.91c-2.13,0-2.76,.18-3.08,.33-.38,.18-.61,.44-.69,.76-.05,.2-.05,.52,.22,.87l.62,.76v32.08c0,.25-.09,.53-.26,.85-.28,.51-.41,.9-.41,1.22,0,.2,.1,.39,.26,.51,.11,.08,.24,.12,.38,.12,.06,0,.13,0,.19-.03,.47-.15,.96-.29,1.47-.44,.05-.01,.1-.04,.14-.06,1.24-.73,1.74-1.27,1.74-1.87v-10.76c0-.38,.37-1.54,3.76-4.29,2.67-2.16,4.69-3.95,5.99-5.33,1.4-1.48,2.11-3.43,2.11-5.8Zm-3.39,.17c0,1.54-1.21,3.36-3.6,5.41-2.69,2.31-4.12,2.98-4.88,3.1v-13.97c.06-.01,.13-.03,.22-.04,.48-.07,.94-.1,1.38-.1,1.8,0,3.44,.44,4.87,1.3,1.34,.81,2,2.22,2,4.3Z"/><path class="cls-6" d="M193.18,213.24l-.84-14.82c0-2.17-.59-4.22-1.75-6.06-1.22-1.93-2.77-2.9-4.62-2.9-1.29,0-2.58,.83-3.83,2.46-1.19,1.55-2.02,3.65-2.48,6.25l-.3,3.46-.3,3.48c-.25,2.86-.68,6.07-1.29,9.55-.75,4.26-1.27,5.73-1.58,6.2-.61,.94-.9,1.14-.98,1.18-.31,.16-.66,.35-1.04,.55-.07,.04-.14,.09-.19,.16-.62,.76-.33,2.11,.99,4.51,.05,.09,.12,.17,.2,.22l.49,.33,.57,.38c.11,.07,.23,.11,.35,.11,.05,0,.1,0,.16-.02,.17-.04,.32-.16,.4-.32,.59-1.12,1.17-2.41,1.73-3.82,.55-1.4,1.05-2.83,1.49-4.24,.45-1.45,.85-3.58,1.19-6.33,.44-3.59,1.04-3.92,1.07-3.93,.62-.23,1.65-.55,3.04-.96,1.41-.41,2.36-.72,2.82-.91,.46-.19,.69-.22,.79-.22,.22,0,.23,.05,.24,.07,.09,.26,.14,.62,.14,1.07v4.56s0,.19-.29,.71c-.3,.54-.46,1.22-.46,2.04,0,.17,.07,.33,.19,.45,.12,.12,.28,.18,.45,.18h0l3.84-.04c.35,0,.63-.29,.63-.63,0-.77-.18-1.43-.52-1.96-.29-.44-.32-.66-.32-.74Zm-4.13-12.04c0,.94-.14,2.14-.82,2.52-.72,.4-1.53,.74-2.39,1.01-.79,.24-1.86,.57-3.21,.98-.01-.24-.02-.59-.02-1.06,0-2.65,.34-5.32,1.01-7.94,.61-2.36,1.52-3.55,2.71-3.55,.31,0,1.25,0,1.93,2.27,.52,1.75,.79,3.69,.79,5.77Z"/><path class="cls-6" d="M211.61,190.24c-.02-.05-.04-.11-.08-.15-1.02-1.52-1.71-2.14-2.38-2.14-.18,0-.36,.05-.51,.14-1.16,.81-2.12,1.91-2.87,3.31-.75,1.4-1.13,2.93-1.13,4.53v7.86l-4.68-11.98c-.19-.43-.7-.74-1.76-1.08-.77-.25-1.53-.63-2.27-1.12-.11-.07-.23-.11-.35-.11-.1,0-.2,.02-.3,.07-.21,.11-.34,.33-.34,.56v.4c0,.08,.01,.15,.04,.22,.58,1.54,.62,1.95,.62,2.03v32.7c0,.07-.03,.3-.29,.82-.35,.7-.42,.99-.42,1.21,0,.2,.1,.39,.26,.51,.11,.08,.24,.12,.37,.12,.06,0,.13,0,.19-.03,.46-.15,.93-.29,1.42-.44,.05-.02,.1-.04,.15-.07,1.19-.72,1.69-1.28,1.69-1.87v-26.51c.16,.25,.36,.59,.61,1.06,.69,1.3,1.52,3.26,2.45,5.83,.95,2.59,1.64,4.63,2.06,6.09,.43,1.48,.76,2.52,.99,3.09,.41,1.01,1.06,1.22,1.54,1.22,.19,0,.83-.07,1.04-.98,.08-.38,.13-.84,.13-1.42v-18.19c0-.98,.48-1.99,1.43-3,.98-1.04,1.47-1.15,1.64-1.15,.04,0,.08,0,.11,.02,.09,.05,.19,.07,.28,.07,.15,0,.3-.05,.41-.15,.19-.17,.27-.44,.19-.68l-.27-.8Z"/><path class="cls-6" d="M236.2,213.24l-.84-14.82c0-2.17-.59-4.23-1.75-6.06-1.22-1.93-2.77-2.9-4.62-2.9-1.29,0-2.58,.83-3.83,2.46-1.19,1.55-2.03,3.65-2.48,6.25l-.6,6.93c-.24,2.82-.68,6.03-1.29,9.55-.74,4.26-1.27,5.72-1.58,6.2-.61,.94-.9,1.14-.98,1.18-.31,.16-.66,.35-1.04,.55-.07,.04-.14,.09-.19,.16-.62,.76-.33,2.11,.99,4.51,.05,.09,.12,.17,.2,.22l1.06,.71c.11,.07,.23,.11,.35,.11,.05,0,.1,0,.16-.02,.17-.04,.32-.16,.4-.32,.59-1.12,1.16-2.37,1.73-3.82,.56-1.42,1.06-2.85,1.49-4.25,.45-1.45,.85-3.58,1.19-6.33,.45-3.59,1.04-3.92,1.07-3.93,.63-.23,1.66-.56,3.04-.96,1.41-.41,2.36-.72,2.82-.91,.45-.19,.69-.22,.79-.22,.22,0,.23,.05,.24,.07,.09,.26,.14,.62,.14,1.07v4.56s0,.19-.29,.71c-.3,.53-.46,1.22-.46,2.04,0,.17,.07,.33,.19,.45,.12,.12,.28,.18,.45,.18h0l3.84-.04c.35,0,.63-.29,.63-.63,0-.77-.18-1.43-.52-1.96-.29-.44-.32-.66-.32-.74Zm-4.13-12.04c0,.94-.14,2.14-.82,2.52-.72,.41-1.53,.74-2.39,1.01-.79,.24-1.86,.57-3.21,.98-.01-.25-.02-.61-.02-1.06,0-2.65,.34-5.32,1.02-7.94,.61-2.36,1.52-3.55,2.72-3.55,.31,0,1.25,0,1.93,2.27,.52,1.75,.79,3.69,.79,5.77Z"/><path class="cls-6" d="M252.19,193.94c0-.22-.06-.56-.46-1.62-.28-.74-.61-1.52-.96-2.31-.1-.23-.33-.37-.57-.37l-12.17-.09h0c-.17,0-.33,.07-.45,.18-.12,.12-.19,.28-.19,.45,0,.22,.08,.48,.47,1.12,.13,.21,.28,.67,.28,1.62v27.79c0,.51-.09,.89-.26,1.14-.33,.46-.49,.96-.49,1.47,0,.13,.04,.25,.11,.36,.59,.86,1.21,1.7,1.83,2.49,.68,.86,1.27,1.26,1.84,1.26,.12,0,.23-.02,.34-.05,.74-.26,.85-.71,.85-.96,0-.19-.06-.41-.43-1.09-.24-.45-.28-.7-.28-.81v-14.51c0-.31,.08-.54,.25-.71,.16-.17,.55-.49,1.53-1.04,.82-.46,1.48-.81,1.98-1.04,.43-.2,.88-.3,1.35-.3,.55,0,.69,.2,.74,.26,.34,.48,.65,.8,1.07,.8,.18,0,.77-.07,.91-.96,.05-.32,.07-.76,.07-1.36,0-.05-.01-.34-.03-.86v-.29c-.05-.86-.03-1.16-.02-1.26,.05-.37-.09-.6-.21-.74-.13-.14-.36-.31-.78-.31-.35,0-.99,.13-3.09,1.1-1.35,.63-2.42,1.11-2.94,1.31-.36,.14-.55,.2-.65,.23-.06-.12-.18-.47-.18-1.39v-9.21c0-.57,.03-.86,.05-.99,.02,0,.04,0,.06,0h6.66c.47,0,.88,.08,1.22,.22,.35,.15,.63,.34,.84,.55,.41,.43,.58,.54,.74,.6,.07,.03,.19,.05,.27,.05,.34,0,.7-.26,.7-.74Z"/><path class="cls-6" d="M269.46,221.17c-1.16-2.9-2.34-5.89-3.55-8.97-1.09-2.78-2.13-5.06-3.11-6.79l3.22-1.72c.05-.03,.1-.06,.14-.11,1.33-1.3,2-3.04,2-5.18,0-2.94-1.28-5.17-3.79-6.64-2.41-1.41-5.05-2.12-7.86-2.12l-3.91-.09h-.01c-.17,0-.32,.06-.44,.18-.12,.12-.19,.28-.19,.45,0,.79,.16,1.45,.47,1.96,.18,.31,.28,.57,.28,.78v20.31s0,.19-.29,.71c-.3,.54-.46,1.22-.46,2.04,0,.17,.07,.33,.19,.45,.12,.12,.28,.18,.45,.18h0l3.92-.04c.35,0,.63-.29,.63-.63,0-.78-.2-1.44-.58-1.98-.32-.44-.35-.66-.35-.71v-7.14c.09,.05,.19,.07,.29,.07,.08,0,.16-.02,.24-.05,.42-.17,.82-.26,1.21-.26,.99,0,1.65,.5,2.05,1.58l4.9,12.4c.33,.86,.58,1.72,.74,2.56,.15,.82,.23,1.55,.23,2.17,0,.47,0,.87,4.66,3.3,.06,.03,.13,.05,.2,.07l.13,.02,1.06,.16s.06,0,.09,0c.23,0,.44-.12,.55-.32,.13-.23,.1-.51-.06-.71-.9-1.09-1.92-3.08-3.06-5.91Zm-13.17-19.54c.1,.39,.16,.81,.16,1.25,0,.58-.07,1.08-.21,1.51l-.02,.06v-11.23c.12,0,.28-.02,.51-.02,1.83,0,3.71,.45,5.57,1.35,1.73,.83,2.57,2.16,2.57,4.05,0,1.21-.33,2.12-1,2.76-.67,.65-1.81,.97-3.4,.97-.15,0-.61-.08-1.65-.85-1.43-1.05-1.58-1.1-1.83-1.1-.3,0-.56,.21-.62,.51l-.04,.17-.05,.27c-.02,.1-.02,.19,0,.29Z"/><path class="cls-6" d="M273.62,192.18c.35-.53,.52-1.19,.52-1.96,0-.35-.28-.63-.63-.63l-3.84-.04h0c-.17,0-.33,.07-.45,.18-.12,.12-.19,.28-.19,.45,0,.79,.16,1.45,.46,1.96,.23,.39,.28,.63,.28,.78v20.28s0,.19-.29,.7c-.3,.54-.46,1.22-.46,2.04,0,.17,.07,.33,.19,.45,.12,.12,.28,.18,.45,.18h0l3.84-.04c.35,0,.63-.29,.63-.63,0-.77-.18-1.43-.52-1.96-.28-.44-.31-.66-.31-.74v-20.28c0-.08,.03-.3,.32-.74Z"/><path class="cls-6" d="M288.42,196.71c.1,.23,.32,.37,.56,.37,.47,0,1-.34,1.67-1.06,.65-.7,.96-1.33,.96-1.9,0-1.02-.6-2.07-1.79-3.12-1.17-1.03-2.42-1.56-3.71-1.56-2.44,0-4.58,1.24-6.36,3.69-1.74,2.4-2.62,5.9-2.62,10.41,0,3.8,.94,7.01,2.8,9.53l.09,.12c1.74,2.35,2.2,2.99,5.76,6.54l.28,.28c.45,.45,.57,.57,1.16,1.03,.33,.26,.61,.49,.83,.67,.5,.42,.62,.52,.84,.52,.36,0,1.14-.55,1.44-1.29,.16-.41,.3-1.22-.58-2.05l-6.45-6.67c-2-2.41-2.97-5.25-2.97-8.68s.65-6.04,1.93-7.79c1.26-1.72,2.5-2.64,3.65-2.75,.65,0,1.22,.27,1.73,.84,.52,.58,.77,1.17,.77,1.83v.45c-.06,.17-.1,.4,0,.59Z"/><path class="cls-6" d="M308.66,213.24l-.84-14.82c0-2.17-.59-4.22-1.75-6.06-1.22-1.93-2.78-2.9-4.62-2.9-1.29,0-2.58,.83-3.83,2.46-1.19,1.55-2.02,3.65-2.48,6.25-.15,1.76-.35,4.06-.6,6.93-.25,2.83-.68,6.04-1.29,9.55-.75,4.26-1.27,5.72-1.58,6.2-.62,.96-.92,1.15-.98,1.18-.3,.16-.64,.34-1.01,.54-.07,.04-.17,.11-.22,.17-.62,.76-.33,2.11,.99,4.51,.05,.09,.12,.17,.21,.22l.69,.46,.36,.24c.11,.07,.23,.11,.35,.11,.05,0,.11,0,.16-.02,.17-.04,.32-.16,.4-.32,.59-1.12,1.17-2.41,1.73-3.82,.55-1.41,1.05-2.84,1.49-4.25,.45-1.44,.85-3.57,1.19-6.33,.44-3.58,1.04-3.92,1.07-3.93,.64-.23,1.66-.56,3.04-.96,1.42-.41,2.37-.72,2.82-.91,.45-.19,.69-.22,.79-.22,.22,0,.23,.05,.24,.07,.09,.26,.14,.62,.14,1.07v4.56s0,.2-.29,.71c-.3,.53-.46,1.22-.46,2.04,0,.17,.07,.33,.19,.45,.12,.12,.28,.18,.45,.18h0l3.84-.04c.35,0,.63-.29,.63-.63,0-.77-.18-1.43-.52-1.96-.28-.44-.32-.66-.32-.74Zm-4.13-12.04c0,.94-.14,2.14-.82,2.52-.72,.4-1.53,.74-2.39,1.01-.79,.24-1.86,.57-3.21,.98-.01-.21-.02-.55-.02-1.06,0-2.65,.34-5.32,1.02-7.94,.61-2.36,1.52-3.55,2.71-3.55,.31,0,1.24,0,1.93,2.27,.52,1.75,.79,3.69,.79,5.77Z"/><path class="cls-6" d="M326.97,191.04l-.07-.21-.19-.59c-.02-.06-.04-.11-.08-.16-1.02-1.52-1.71-2.14-2.38-2.14-.18,0-.36,.05-.51,.14-1.17,.81-2.12,1.92-2.87,3.31-.75,1.4-1.13,2.92-1.13,4.53v7.85l-4.68-11.98c-.19-.43-.7-.74-1.76-1.08-.77-.25-1.53-.63-2.26-1.12-.11-.07-.23-.11-.35-.11-.1,0-.2,.02-.3,.07-.21,.11-.34,.33-.34,.56v.4c0,.08,.01,.15,.04,.22,.58,1.54,.62,1.95,.62,2.04v32.7c0,.07-.03,.3-.29,.82-.37,.73-.42,1.02-.42,1.21s.1,.39,.26,.51c.11,.08,.24,.12,.37,.12,.07,0,.13-.01,.19-.03,.46-.15,.93-.29,1.42-.44,.05-.02,.1-.04,.15-.07,1.19-.72,1.69-1.28,1.69-1.87v-26.51c.16,.25,.36,.59,.61,1.06,.68,1.28,1.51,3.24,2.46,5.83,.95,2.58,1.64,4.63,2.06,6.09,.42,1.47,.76,2.51,.99,3.09,.43,1.06,1.15,1.22,1.54,1.22,.24,0,.83-.1,1.04-.98,.09-.38,.13-.84,.13-1.43v-18.19c0-.98,.48-1.99,1.44-3,.98-1.04,1.47-1.15,1.63-1.15,.04,0,.08,0,.11,.02,.09,.05,.19,.07,.28,.07,.15,0,.3-.05,.42-.15,.19-.17,.27-.44,.19-.68Z"/></g><path class="cls-3" d="M33.68,146.86c1.82,1.49,6.5,2.8,6.5,5.2,0,.46-.52,.58-.52,1.04,0,2.21,3.12,4.75,4.94,5.98,4.03,2.73,2.76,2.46,6.99,4.99,2.84,1.34,3.58-1.34,5.37-.15l6.37-.16c3.64-.58,2.8-.65,5.98-2.34,.59-.26,3.84-1.04,4.55-1.04,2.27,0,4.17,1.1,5.07,3.12,.86,1.91,5.93,.57,7.13,1.91,0,1.5,1.07,1.92,1.07,3.42,0,2.28-1.43,4.88-1.43,7.15,0,4.94,2.27,4.56,5.13,8.53l1.89,6.56c.39,2.47-1.89,3.21-1.89,5.68,0,1.63,1.5,2.52,.85,3.95-.91,2.02-2.16,3.75-2.93,5.9-.59,1.76,0,4.09,0,5.97,0,4.75-1.81,2.18-.19,6.6,.45,1.24,2.34,3.58,2.34,4.94,0,4.29-.26,7.94-.26,12.22,0,.39,.26,.65,.26,1.05,1,3.41,2.02,3.51,2.02,7.12,0,4.81,1.46,9.94,3.8,10.2,2.4,.27,7.08-2.08,9.48-2.08,1.61,0,6.21,1.88,9.27-1.8,1.78-2.14,7.11-8.55,9.38-13.18,1.41-2.88,6.73-4.2,8.29-7.58,1.56-8.06-.71-5.59,1.3-9.2,3.81-6.62,.58-11.21,3.89-14.74,1.65-1.76,1.89-4.74,2.93-7.61,1.71-4.7,3.22-10.04,11.25-16.91,10.18-8.72,5.78-19.51,2.75-29.59-1.36-4.51-9.99-11.14-7.65-14.26-2.37-2.6-3.62-6.58-5.2-10.66-2.4-6.42-4.98-11.53-7.03-17.66-3.16-9.41-5.24-6.44-7.84-8.02-1.97-1.21-4.66-.91-7.01-1.05-3.28-.19-4.69-3.39-8.06-3.73l-2.83,.75-3.73,3.13c-.79,1.71,1.04,4.69-1.21,4.72-4.02,.07-6.14-1.85-8.58-4.42-2.06-2.17-7.8,.5-9.45-1.65-1.41-1.82,2.53-7.31,.6-9.02-4.63-4.1-10.92,.52-12.96-.19-7.59-1.1-13.05,3.06-13.05,3.06-3.35-.45-3.24-1.75-9.1-1.04-5.63,3.76-7.55,8.32-7.02,9.62,.59,1.46-2.47,4.45-3.53,6.53-.15,3.88-2.88,6.24-4.48,5.97-2.15,2.35-3.31,2.57-4.48,4.47-.99,1.63-.91,3.74-1.31,5.66-.68,3.32,2.34,2.93,2.34,7.55,0,3.61-1.56,5.98-.89,9.13,.75,3.53-1.12,3.15,.89,5.96h0Z"/><path class="cls-8" d="M165.39,168.76c-.03-1.67-1.41-3.4-2.74-5.07-.65-.82-1.27-1.6-1.59-2.2l-.09-.15c-1.66-2.3-2.27-3.47-2.5-4l.11-.08-.13-.79c-.4-2.47-2.1-5.71-3.47-8.32-.62-1.18-1.39-2.64-1.5-3.11l.02-.18-2.55-7.13c.38-.25,.92-.73,.92-1.83,0-2.03-1.35-3.08-2.43-3.92-.67-.52-1.3-1.01-1.63-1.69-.68-1.4-1.24-2.62-1.76-3.75-1.12-2.44-2.09-4.54-3.63-7.1-1.43-2.37-3.29-6.1-4.19-7.89l-.26-.51c-.31-.63-.6-1.21-.88-1.79-.6-1.23-1.18-2.41-1.93-3.83-.08-.16-.16-.35-.24-.56-.43-1.06-1.09-2.66-2.76-2.66h0c-7.11,.28-12.28,1.12-18.44,3-2.13,.65-3.97,1.18-5.72,1.69-2.59,.75-5.04,1.46-7.99,2.43-3.4,1.12-13.33,5.21-15.82,6.85-1.34,.89-4.91,3.08-7.96,4.88-.67,.4-1.44,.82-2.23,1.24-1.53,.83-3.1,1.68-4.29,2.58-.97,.73-2.58,1.96-1.41,4.3,.4,.79,2.21,2.73,6.94,7.42,.54,.53,.93,.92,1.07,1.07,1.73,1.82,2.65,2.73,3.34,3.41,.79,.78,1.23,1.21,2.24,2.37,1.1,1.26,2.94,3.06,4.58,4.65,1.09,1.06,2.12,2.06,2.6,2.6,.82,.85,1.64,1.67,2.48,2.52,1.39,1.41,2.85,2.88,4.5,4.63,1.33,1.41,2.77,2.84,4.29,4.36,1.01,1.01,2.06,2.05,3.2,3.2,.62,.54,1.4,1.39,2.22,2.29,.95,1.03,2.03,2.21,3.13,3.21,2.44,2.22,6.98,6.37,9.91,8.78l.36,.29h.13c.41,.45,1.16,1.8,.99,2.81-.51,3.04-1.72,6.35-3.31,9.08-2.09,3.5-4.08,6.26-5.79,8.56l-.1,.16c-1.22,2.31-3.72,5.18-5.21,6.89-.32,.37-1.29,1.48-5.09,10.19-.65,1.49-1.09,2.89-1.51,4.25-.21,.68-.43,1.37-.7,2.16-.25,.98-1.85,3.26-3.25,5.26-2.25,3.21-4.58,6.53-4.81,8.78l-.32,1.66,.38,.39c.2,.51,.35,2.3,.48,3.74,.3,3.44,.67,7.72,2.12,10.4,.79,1.47,2.73,2.28,5.47,2.28s5.85-.85,7.59-2.11c.23-.17,.38-.19,.51-.19,.28,0,.65,.13,1.09,.27,.68,.23,1.53,.51,2.59,.51,2.46,0,5.06-1.59,8.18-5.01,2.51-2.15,4.54-6.12,5.75-8.5,.27-.54,.58-1.14,.75-1.41,2.62-1.53,8.44-7.86,8.49-7.92,2.41-2.75,2.45-5.75,2.48-8.65,0-.73,.02-1.48,.07-2.25,.04-.7,.17-.81,.54-1.16,.8-.75,1.54-1.62,1.7-4.06,.04-.58-.02-1.7-.1-3-.06-1.1-.16-2.91-.13-3.34l2.49-4.58c1.1-1,1.37-2.36,1.67-3.92,.38-1.92,.84-4.3,2.98-7.35,.64-.91,.92-1.88,1.17-2.75,.43-1.46,.66-2.29,2.18-2.7l4.49-.34c.58,.04,1.25,.08,1.95,.08,3.31,0,5.55-.71,6.66-2.1,.5-.63,1.01-1.71,.64-3.32-.22-.97-.44-1.58-.6-2.03-.12-.33-.17-.49-.18-.62,.49-.3,.8-.83,.94-1.62,.08-.43,.11-1.06-.16-1.67,.35-.64,.42-1.42,.46-1.93l.05-.52-.11-.29c-.25-.64-.4-1.08-.46-1.38,2.11-.91,3.07-2.62,3.07-3.97Z"/><g><path class="cls-7" d="M124.09,160.58c.69-.02,1.23-.58,1.23-1.27v-9.39c0-.37-.17-.73-.45-.97-.29-.24-.67-.35-1.03-.28-4.01,.7-11.35,1.07-21.23,1.07-5.21,0-9.62-.11-11.09-.15,.14,.15,.28,.29,.38,.41,.69,.71,1.41,1.44,2.15,2.19,.98,.02,2.17,.04,3.48,.05l1.82,3.61c-.74-.16-1.48-.33-2.21-.51,.55,.57,1.12,1.16,1.72,1.8,.47,.49,.97,1,1.46,1.51,8.93,1.74,18.11,1.95,22.02,1.95,1.12,0,1.75-.02,1.75-.02Zm-22.57-4.29l-1.85-4.02c.94,0,1.92,.01,2.93,.01,.18,0,.37,0,.55,0l1.69,4.57c-1.11-.16-2.22-.35-3.33-.55Zm5.5,.84l-1.45-4.87c1.36-.01,2.76-.03,4.18-.06v.02c.31,2.49,.54,4.2,.68,5.28-1.11-.1-2.25-.23-3.4-.37Zm5.75,.56l-.21-5.57c1.47-.05,2.92-.12,4.32-.2l.31,6.03c-1.34-.05-2.83-.14-4.42-.25Zm7.15,.34l.06-6.34c.99-.09,1.95-.18,2.81-.3v6.67c-.72,0-1.69,0-2.86-.02Z"/><path class="cls-5" d="M152.89,153.33c-1.53,.66-2.36,1.44-3.02,2.07-.3,.28-.55,.53-.83,.71l-.59,.4c-1.26,.87-1.9,1.31-4.38,1.54-.7,.06-1.21,.68-1.15,1.38,.06,.66,.61,1.15,1.26,1.15,.04,0,.08,0,.12,0,3-.27,4.03-.9,5.59-1.97l.55-.38c.45-.3,.81-.64,1.16-.98,.6-.57,1.16-1.1,2.28-1.58,.58-.25,1.42-.43,2.09,.12,.12,.1,.26,.17,.41,.22-.36-.99-.85-2.06-1.37-3.1-.69-.01-1.41,.12-2.13,.43Z"/><path class="cls-5" d="M149.56,140.28c.07-.02,.12-.06,.19-.09l-.68-1.9,.29-.49c-.13-.01-.26-.02-.4,.01-6.39,1.56-13.35,7.73-13.81,9.23-.24,.77,.1,1.61,.72,3.14,1.16,2.88,2.16,5.79,.61,6.94-1.87,1.15-3.14,1.53-5.37,2.14-.57,.16-1.11,.26-1.62,.36-1.12,.21-2.26,.44-3.32,1.12-1.81,.95-3.06,3.06-4.37,5.29-1.58,2.7-3.37,5.76-6.33,7.01-.13,.06-.24,.14-.34,.23,.65,.58,1.31,1.18,1.98,1.77,3.2-1.64,5.09-4.68,6.72-7.46,.03,.55,.02,1.09-.08,1.63-.74,3.64-1.57,4.74-3.76,7.66l-.31,.42c.54,.46,1.06,.91,1.53,1.3,.16,.06,.31,.16,.46,.27l.35-.46c2.31-3.07,3.37-4.47,4.23-8.69,.22-1.14,.14-2.19,.07-3.12-.11-1.43-.14-2.28,.51-3.07,.75-.93,1.59-1.12,3.13-1.42,.59-.11,1.2-.23,1.83-.4,2.34-.64,3.89-1.1,6.1-2.46,6.02-3.74,9.49-5.93,15.18-10.15-.54-1.06-.87-1.78-1.02-2.33-.08,.04-.16,.06-.24,.11-4.65,3.46-7.79,5.54-11.99,8.18-.06-2.04-.94-4.23-1.58-5.81-.21-.52-.46-1.14-.56-1.5,1.04-1.28,6.61-6.17,11.91-7.46Z"/><path class="cls-5" d="M157.18,161.48c.1-.82-.13-1.6-.62-2.15-.35-.39-.78-.61-1.21-.61-1.31,0-2.32,.52-3.22,.98-.26,.13-.53,.27-.81,.4-.76,.34-2.94,.82-4.25,1.11-.46,.1-.87,.19-1.16,.26-.64,.15-1.05,.77-.96,1.42s.65,1.11,1.32,1.08l4-.21c.07,0,.14-.01,.21-.03,.49-.11,1.08,.05,1.78,.27,.52,.16,1.12,.34,1.76,.4l.13,.02c.18,.02,.36,.04,.54,.04h0c.82,0,1.53-.38,2.1-1.12,.14-.19,.23-.41,.25-.64l.13-1.23Z"/><path class="cls-7" d="M89.21,147.31c.42,.41,.81,.79,1.18,1.15,3.01-2.4,26.27-20.27,53.05-22.57-.39-.81-.79-1.61-1.25-2.43-1.3,.13-2.59,.29-3.87,.48l-1.74-5.55c.86-.12,1.73-.21,2.6-.3-.44-.84-.86-1.66-1.24-2.41-29.06,3.23-54.87,24.11-55.5,24.62,.63,.63,1.09,1.08,1.77,1.84,.28-.23,.91-.72,1.84-1.42l3.87,4.9c-.68,.52-1.14,.89-1.35,1.05,.22,.21,.44,.42,.65,.63Zm43.39-28.25l1.76,5.61c-1.27,.26-2.53,.54-3.77,.86l-2.08-5.59c1.35-.33,2.71-.62,4.09-.88Zm-7.84,1.89l2.09,5.63c-1.67,.5-3.3,1.04-4.9,1.61l-2.42-5.56c1.71-.6,3.46-1.17,5.23-1.68Zm-8.77,3l2.43,5.57c-1.41,.56-2.78,1.15-4.12,1.74l-2.77-5.45c1.45-.64,2.94-1.27,4.46-1.87Zm-7.8,3.41l2.77,5.45c-1.68,.81-3.29,1.64-4.83,2.46l-3.12-5.29c1.65-.88,3.38-1.76,5.18-2.62Zm-8.33,4.37l3.12,5.29c-1.36,.78-2.65,1.55-3.85,2.3l-3.49-5.1c1.31-.81,2.72-1.64,4.21-2.49Zm-11.01,6.97c1.11-.78,2.38-1.65,3.82-2.58l3.49,5.11c-1.79,1.18-3.3,2.24-4.51,3.11l1.02-.81-3.82-4.83Z"/></g><path class="cls-6" d="M165.39,168.76c-.03-1.67-1.41-3.4-2.74-5.07-.65-.82-1.27-1.6-1.59-2.2l-.09-.15c-1.66-2.3-2.27-3.47-2.5-4l.11-.08-.13-.79c-.4-2.47-2.1-5.71-3.47-8.32-.62-1.18-1.39-2.64-1.5-3.11l.02-.18-2.55-7.13c.38-.25,.92-.73,.92-1.83,0-2.02-1.35-3.08-2.43-3.92-.67-.52-1.3-1.01-1.63-1.69-.68-1.41-1.24-2.63-1.76-3.75-1.12-2.44-2.09-4.54-3.63-7.09-1.44-2.38-3.3-6.11-4.19-7.9l-.25-.51c-.31-.63-.59-1.21-.87-1.78-.6-1.24-1.18-2.42-1.94-3.85-.08-.16-.16-.36-.24-.56-.43-1.06-1.09-2.66-2.76-2.66h0c-7.11,.28-12.28,1.12-18.44,3-2.13,.65-3.97,1.18-5.72,1.69-2.59,.75-5.04,1.46-8,2.43-3.4,1.12-13.33,5.21-15.82,6.85-1.33,.88-4.9,3.07-7.95,4.88-.67,.4-1.44,.81-2.22,1.24-1.53,.83-3.11,1.68-4.29,2.59-.97,.73-2.58,1.96-1.41,4.3,.4,.79,2.21,2.73,6.93,7.41,.54,.54,.94,.93,1.08,1.07,1.73,1.82,2.65,2.73,3.34,3.41,.79,.78,1.23,1.21,2.24,2.38,1.1,1.26,2.95,3.06,4.58,4.65,1.09,1.06,2.12,2.06,2.6,2.6,.82,.84,1.63,1.67,2.47,2.52,1.39,1.41,2.85,2.88,4.5,4.63,1.33,1.41,2.77,2.84,4.29,4.35,1.02,1.01,2.06,2.05,3.2,3.21,.62,.54,1.4,1.39,2.22,2.29,.95,1.03,2.03,2.2,3.13,3.21,2.45,2.23,7,6.38,9.91,8.78l.36,.29h.13c.41,.45,1.16,1.8,.99,2.81-.51,3.04-1.72,6.35-3.31,9.08-2.09,3.5-4.08,6.26-5.79,8.56l-.1,.16c-1.22,2.31-3.72,5.18-5.21,6.89-.32,.37-1.29,1.48-5.09,10.19-.65,1.49-1.09,2.89-1.51,4.25-.21,.69-.43,1.37-.7,2.16-.25,.98-1.85,3.26-3.25,5.27-2.25,3.21-4.58,6.53-4.81,8.78l-.31,1.66,.38,.39c.2,.51,.35,2.3,.48,3.74,.3,3.44,.67,7.72,2.12,10.4,.79,1.47,2.73,2.28,5.47,2.28s5.85-.85,7.59-2.11c.23-.17,.38-.19,.51-.19,.28,0,.65,.13,1.09,.27,.68,.23,1.53,.51,2.59,.51,2.46,0,5.06-1.59,8.18-5.01,2.51-2.15,4.54-6.12,5.75-8.5,.27-.54,.58-1.14,.75-1.41,2.62-1.53,8.44-7.86,8.49-7.92,2.41-2.75,2.45-5.75,2.48-8.65,0-.73,.02-1.48,.07-2.25,.04-.7,.17-.81,.54-1.16,.8-.75,1.54-1.62,1.7-4.06,.04-.58-.02-1.7-.1-2.99-.06-1.1-.16-2.91-.13-3.34l2.49-4.57c1.1-1,1.37-2.36,1.67-3.92,.38-1.92,.84-4.3,2.98-7.35,.64-.91,.92-1.88,1.17-2.75,.43-1.47,.66-2.29,2.18-2.7l4.49-.34c.58,.04,1.25,.08,1.95,.08,3.31,0,5.55-.71,6.66-2.1,.5-.63,1.01-1.71,.64-3.32-.22-.97-.44-1.58-.6-2.02-.12-.33-.18-.49-.19-.62,.49-.3,.8-.83,.94-1.62,.08-.43,.11-1.06-.16-1.67,.35-.64,.42-1.42,.46-1.93l.05-.52-.11-.29c-.25-.64-.4-1.08-.46-1.38,2.11-.91,3.07-2.62,3.07-3.97Zm-4.61,1.83l-.6,.18-.22,.59c-.42,1.11-.13,2.17,.35,3.41-.02,.23-.06,.57-.11,.76-.69,.27-.83,.83-.86,1.07l.05,.95,.66,.37s0,.08-.01,.14c-.41,.21-.68,.55-.82,1.02-.33,1.15-.11,1.76,.17,2.54,.15,.41,.33,.92,.52,1.74,.16,.68-.01,.99-.15,1.17-.57,.72-2.31,1.14-4.67,1.14-.66,0-1.3-.03-1.85-.08h-.1l-4.8,.35-.21,.03c-3.01,.75-3.61,2.82-4.09,4.48-.21,.74-.42,1.43-.81,2-2.45,3.49-3,6.28-3.4,8.32-.28,1.43-.45,2.19-.97,2.6l-.21,.16-2.81,5.16-.08,.19c-.2,.56-.18,1.48-.02,4.36,.06,1.06,.13,2.26,.1,2.68-.11,1.64-.46,1.96-.9,2.38-.52,.49-1.23,1.15-1.34,2.85-.05,.81-.06,1.6-.07,2.37-.04,2.77-.06,4.96-1.85,7.01-1.16,1.33-6.36,6.66-7.96,7.46-.54,.27-.77,.72-1.62,2.39-1.14,2.23-3.05,5.97-5.2,7.77l-.12,.12c-2.59,2.85-4.67,4.24-6.36,4.24-.64,0-1.19-.19-1.78-.38-.59-.2-1.2-.4-1.89-.4s-1.38,.23-2,.68c-1.3,.94-3.86,1.62-6.09,1.62-1.88,0-2.98-.48-3.23-.95-1.2-2.22-1.56-6.38-1.82-9.41-.21-2.39-.34-3.73-.68-4.55l.12-.61,.02-.13c.13-1.57,2.48-4.92,4.37-7.61,1.76-2.5,3.27-4.67,3.6-5.99,.25-.72,.47-1.42,.69-2.13,.42-1.35,.82-2.62,1.41-3.99,3.38-7.75,4.43-9.26,4.67-9.54,1.55-1.78,4.12-4.74,5.49-7.28,1.73-2.34,3.75-5.13,5.88-8.71,1.75-2.99,3.08-6.61,3.63-9.95,.29-1.73-.58-3.71-1.52-4.81-.34-.4-.68-.68-1.05-.82-2.87-2.38-7.24-6.37-9.62-8.54-1.02-.93-2.06-2.06-2.97-3.05-.87-.95-1.7-1.85-2.35-2.41-1.08-1.1-2.13-2.15-3.15-3.16-1.51-1.5-2.93-2.92-4.24-4.3-1.67-1.76-3.14-3.25-4.54-4.67-.83-.84-1.64-1.66-2.42-2.46-.5-.56-1.51-1.55-2.69-2.69-1.6-1.55-3.4-3.31-4.43-4.49-1.07-1.23-1.56-1.72-2.37-2.52-.68-.67-1.58-1.56-3.28-3.35-.14-.15-.56-.56-1.13-1.13-1.48-1.47-5.98-5.93-6.45-6.75-.15-.3-.13-.41-.13-.41,.04-.14,.52-.51,.89-.79,.96-.73,2.45-1.53,3.89-2.32,.82-.44,1.62-.88,2.31-1.29,3.13-1.86,6.67-4.03,8.05-4.95,2.25-1.48,12.08-5.53,15.21-6.56,2.91-.96,5.34-1.66,7.91-2.4,1.76-.51,3.61-1.04,5.76-1.7,5.96-1.82,10.75-2.61,17.6-2.89,.17,.23,.39,.77,.51,1.08,.11,.28,.22,.53,.34,.77,.76,1.42,1.32,2.58,1.91,3.79,.28,.58,.57,1.16,.88,1.8l.25,.5c.91,1.82,2.8,5.62,4.29,8.08,1.47,2.43,2.37,4.38,3.5,6.84,.52,1.14,1.09,2.37,1.78,3.79,.58,1.21,1.52,1.94,2.35,2.58,.96,.75,1.38,1.13,1.45,1.78-.26,.17-.63,.45-.94,.98l-.3,.51,2.87,8.03c.08,.79,.64,1.88,1.78,4.06,1.14,2.17,2.67,5.09,3.13,7.15-.02,.06-.03,.12-.04,.18-.09,.53-.26,1.51,3.03,6.09,.43,.79,1.1,1.63,1.81,2.52,.92,1.15,2.17,2.72,2.18,3.51,0,.25-.35,1.3-2.07,1.8Z"/></svg>