<?xml version="1.0" encoding="UTF-8"?><svg id="Layer_1" xmlns="http://www.w3.org/2000/svg" viewBox="0 0 360 360"><defs><style>.cls-1{fill:#ffcc04;}.cls-2{fill:#231f20;}</style></defs><g><g><g><path class="cls-2" d="M47.26,164.83l-.85,1.43-5.49-3.29,1.36-2.27c.37-.62,.81-.99,1.33-1.13,.52-.14,1.07-.03,1.65,.32,.58,.35,.94,.78,1.06,1.3,.12,.52,0,1.09-.37,1.7l-.51,.84,1.82,1.09Zm-2.97-1.78l.28-.47c.31-.52,.24-.92-.21-1.2-.46-.27-.84-.15-1.16,.38l-.28,.47,1.37,.82Z"/><path class="cls-2" d="M46,155.73l3.72,3.32,1.33-1.49,1.05,.94-2.44,2.73-4.77-4.26,1.11-1.24Z"/><path class="cls-2" d="M55.56,154.35l-1.92,1.4,.34,1.12-1.44,1.04-1.79-6.61,1.47-1.07,5.73,3.75-1.43,1.04-.96-.68Zm-1.1-.76l-1.86-1.28,.65,2.16,1.21-.88Z"/><path class="cls-2" d="M58.47,150.46l-3.48-2.1,1.82-.8,1.79,1.12,.37-2.08,1.82-.8-.8,3.99,1.24,2.81-1.52,.67-1.24-2.81Z"/></g><g><path class="cls-2" d="M85.04,146.45l-.89,4.18,3.09-3.07,1.18,.6-.66,4.3,2.86-3.18,1.55,.79-4.6,4.84-1.51-.77,.56-3.87-2.8,2.74-1.51-.77,1.2-6.57,1.55,.79Z"/><path class="cls-2" d="M95.75,155.29l-1.47-1.32-.71,.8,1.39,1.25-.94,1.05-1.39-1.25-.74,.82,1.47,1.32-.94,1.05-2.71-2.43,4.27-4.77,2.71,2.43-.94,1.05Z"/><path class="cls-2" d="M99.46,157.43l-3.92,3.09,1.24,1.57-1.11,.87-2.27-2.87,5.02-3.97,1.03,1.31Z"/><path class="cls-2" d="M102.67,162.31l-4.38,2.4,.96,1.75-1.24,.68-1.76-3.21,5.61-3.07,.8,1.46Z"/><path class="cls-2" d="M98.54,168.06l6.15-1.76,.46,1.6-2.92,4.03,3.76-1.08,.46,1.59-6.15,1.76-.46-1.59,2.92-4.03-3.76,1.08-.46-1.6Z"/><path class="cls-2" d="M105.56,179.13l-.1-1.98-1.07,.06,.1,1.86-1.41,.07-.1-1.86-1.1,.06,.1,1.97-1.41,.07-.19-3.64,6.39-.33,.19,3.64-1.41,.07Z"/><path class="cls-2" d="M104.77,184.95c.17-.16,.3-.32,.4-.49,.09-.17,.15-.34,.18-.51,.03-.21,0-.39-.08-.54-.08-.15-.2-.23-.37-.26-.11-.02-.21,0-.29,.06-.08,.06-.16,.14-.22,.24-.07,.1-.13,.22-.19,.35-.06,.13-.12,.26-.18,.39-.25,.51-.55,.87-.88,1.08-.33,.21-.74,.28-1.22,.21-.32-.04-.61-.14-.86-.28-.25-.15-.45-.34-.61-.57s-.27-.51-.33-.83-.07-.67-.01-1.06c.11-.8,.45-1.51,1.02-2.13l1.23,.89c-.25,.22-.45,.44-.59,.67s-.22,.46-.26,.69c-.04,.27,0,.48,.1,.63,.11,.15,.24,.23,.39,.26,.1,.01,.18,0,.26-.02,.07-.02,.15-.07,.22-.14,.07-.07,.14-.17,.21-.28,.07-.12,.14-.26,.23-.44,.1-.2,.2-.4,.31-.6,.11-.19,.24-.36,.4-.5s.34-.25,.56-.32c.22-.07,.48-.08,.8-.04,.31,.04,.59,.13,.83,.27,.24,.14,.44,.31,.6,.53,.16,.21,.27,.46,.33,.75,.06,.29,.07,.6,.03,.93-.04,.31-.13,.64-.26,.97-.13,.33-.31,.64-.52,.93l-1.2-.83Z"/><path class="cls-2" d="M102.94,191.35c.2-.12,.36-.26,.49-.41s.22-.3,.27-.46c.07-.2,.08-.39,.03-.55-.05-.16-.15-.27-.31-.32-.11-.04-.21-.04-.3,0-.09,.04-.18,.1-.27,.19s-.17,.19-.26,.31c-.08,.12-.17,.23-.26,.35-.35,.45-.71,.75-1.08,.89-.37,.14-.78,.13-1.24-.03-.31-.11-.57-.26-.79-.45-.21-.19-.38-.42-.49-.68-.11-.26-.16-.56-.16-.88,0-.33,.07-.67,.2-1.04,.27-.76,.74-1.39,1.42-1.89l1.03,1.12c-.29,.16-.53,.34-.71,.53-.18,.19-.31,.4-.39,.63-.09,.26-.1,.47-.02,.63,.07,.17,.18,.28,.33,.33,.09,.03,.18,.04,.25,.03,.08,0,.16-.04,.24-.1,.08-.06,.17-.13,.26-.24,.09-.1,.19-.23,.31-.38,.13-.18,.28-.35,.42-.52s.31-.31,.49-.41,.39-.17,.61-.2c.23-.03,.49,.01,.79,.12,.3,.1,.55,.25,.76,.43,.21,.18,.37,.4,.48,.64,.11,.24,.17,.51,.17,.8s-.05,.6-.16,.92c-.1,.3-.26,.6-.45,.89-.2,.3-.43,.57-.69,.81l-1.01-1.05Z"/></g><g><path class="cls-2" d="M42.51,189.02c.36-.49,.47-1.01,.33-1.56-.06-.24-.16-.45-.3-.64-.14-.18-.3-.33-.49-.44s-.4-.18-.63-.21c-.23-.03-.47-.02-.71,.04-.25,.06-.46,.16-.65,.3s-.34,.3-.45,.49c-.12,.19-.19,.4-.23,.62-.04,.23-.02,.46,.04,.69,.13,.51,.47,.92,1.01,1.22l-1.91,.49-.1-.15c-.15-.22-.27-.44-.37-.64-.1-.2-.17-.41-.22-.62-.11-.43-.13-.86-.07-1.29,.06-.43,.2-.84,.42-1.21,.22-.37,.5-.7,.86-.99,.36-.28,.77-.49,1.25-.61,.48-.12,.94-.14,1.38-.07s.85,.23,1.21,.45c.36,.23,.68,.52,.94,.87,.26,.35,.45,.75,.56,1.18,.06,.25,.1,.5,.11,.75,0,.25,0,.52-.05,.81l-1.92,.49Z"/><path class="cls-2" d="M41.89,190.72c.42-.22,.85-.35,1.3-.38,.44-.03,.88,.02,1.29,.15,.41,.13,.8,.35,1.15,.66,.35,.3,.65,.69,.89,1.15,.24,.46,.38,.92,.43,1.38,.05,.47,0,.91-.12,1.33-.13,.42-.33,.8-.61,1.15-.28,.34-.64,.63-1.06,.85-.42,.22-.85,.35-1.3,.38-.45,.03-.88-.02-1.29-.16-.42-.14-.8-.36-1.15-.67-.35-.31-.65-.69-.89-1.15-.24-.46-.38-.92-.43-1.39-.05-.46,0-.9,.12-1.32,.13-.42,.33-.8,.62-1.14,.28-.35,.64-.63,1.06-.85Zm.8,1.54c-.23,.12-.41,.27-.56,.45-.15,.18-.25,.39-.32,.6-.06,.22-.09,.44-.06,.68,.02,.23,.09,.46,.2,.67,.11,.22,.26,.4,.44,.55,.18,.15,.38,.27,.59,.34,.22,.07,.44,.11,.68,.09,.23-.01,.47-.08,.69-.2,.23-.12,.41-.27,.56-.45,.15-.18,.25-.39,.31-.61,.06-.22,.08-.45,.06-.68-.02-.23-.09-.46-.2-.67-.11-.22-.26-.4-.44-.55-.18-.15-.38-.27-.59-.34-.22-.07-.44-.1-.68-.09-.24,.01-.47,.08-.69,.2Z"/><path class="cls-2" d="M43.84,200.57l4.71-4.33,1.13,1.22-.8,4.91,2.88-2.65,1.12,1.22-4.71,4.34-1.12-1.22,.8-4.91-2.88,2.65-1.13-1.22Z"/><path class="cls-2" d="M50.37,207.11l3.43-5.4,1.4,.89,.5,4.95,2.1-3.3,1.4,.89-3.43,5.4-1.4-.89-.5-4.95-2.1,3.3-1.4-.89Z"/><path class="cls-2" d="M63.36,208.14l-1.86-.68-.37,1,1.75,.64-.49,1.32-1.75-.64-.38,1.04,1.86,.68-.49,1.32-3.42-1.25,2.2-6.01,3.42,1.25-.49,1.32Z"/><path class="cls-2" d="M69.2,210.04c-.3-.53-.73-.84-1.29-.93-.25-.04-.48-.04-.7,.02s-.43,.14-.6,.27-.33,.29-.45,.49c-.12,.2-.2,.42-.25,.66-.04,.25-.04,.49,.01,.72,.05,.23,.14,.43,.27,.61,.13,.18,.29,.34,.48,.46,.19,.12,.41,.21,.65,.25,.52,.09,1.03-.05,1.53-.43l-.33,1.94-.18,.03c-.27,.05-.51,.07-.74,.08-.22,0-.44-.01-.65-.05-.44-.07-.84-.23-1.21-.46-.37-.23-.68-.52-.93-.87s-.44-.75-.55-1.19-.13-.9-.05-1.39c.08-.49,.25-.91,.5-1.29,.25-.37,.55-.68,.91-.92,.35-.24,.75-.41,1.18-.5,.43-.1,.86-.11,1.31-.03,.25,.04,.49,.11,.73,.21,.23,.09,.47,.22,.72,.38l-.34,1.96Z"/><path class="cls-2" d="M73.1,209.33l.05,4.99-1.66,.02-.05-4.99h-1.37v-1.4l4.38-.04v1.41h-1.35Z"/><path class="cls-2" d="M76.98,207.51l.93,6.33-1.65,.24-.93-6.33,1.65-.24Z"/><path class="cls-2" d="M79.13,210.52c-.15-.45-.22-.9-.18-1.34,.03-.45,.15-.86,.34-1.25,.19-.39,.47-.74,.82-1.04,.35-.3,.78-.54,1.27-.71,.49-.17,.96-.24,1.43-.22,.47,.02,.9,.13,1.3,.31,.4,.19,.74,.45,1.04,.78,.3,.33,.53,.72,.68,1.17,.15,.45,.22,.9,.18,1.34-.03,.45-.15,.86-.34,1.25-.2,.39-.47,.74-.83,1.04-.36,.31-.78,.54-1.26,.71-.49,.17-.97,.24-1.44,.22-.47-.02-.9-.13-1.29-.32-.39-.19-.74-.45-1.04-.78-.3-.33-.53-.72-.68-1.17Zm1.64-.57c.08,.24,.2,.45,.37,.62,.16,.17,.34,.31,.55,.4,.21,.1,.43,.15,.66,.16,.23,.01,.47-.02,.7-.1,.23-.08,.43-.2,.61-.35,.18-.15,.32-.33,.43-.54,.11-.2,.17-.42,.19-.66,.02-.23-.01-.47-.09-.71-.08-.24-.2-.45-.37-.62-.16-.17-.35-.31-.56-.4-.21-.1-.43-.15-.67-.16-.23-.01-.47,.02-.7,.1-.23,.08-.43,.2-.61,.35-.18,.15-.32,.33-.42,.54-.1,.2-.17,.42-.19,.66-.02,.23,0,.47,.09,.71Z"/><path class="cls-2" d="M89.15,210.06l-3.59-5.3,1.38-.93,4.74,1.52-2.19-3.24,1.37-.93,3.59,5.3-1.37,.93-4.74-1.52,2.19,3.24-1.38,.93Z"/></g><circle cx="72.14" cy="147.93" r="1.43"/><circle cx="97.15" cy="198.34" r="1.43"/><circle cx="40.46" cy="175.38" r="1.43"/></g><g><path d="M93.47,167.95H45.6c3.35,.84,5.02,3.22,5.02,6.44l42.85,24.06v-30.5Z"/><g><path class="cls-1" d="M64.64,198.45h9.66v-23.1c-3.43,.94-6.69,1.66-9.66,2.2v20.89Z"/><path class="cls-1" d="M55.35,198.45h5.71v-20.29c-2.13,.32-4.05,.55-5.71,.71v19.58Z"/><path class="cls-1" d="M77.88,174.31v24.15h15.59v-30.5c-5.26,2.72-10.57,4.79-15.59,6.35Z"/></g></g></g><g><g><path d="M135.41,203.29h-7.69l-5.89-9.13v9.13h-6.17v-23.75h9.61c1.32,0,2.48,.19,3.46,.58,.99,.39,1.8,.92,2.44,1.59,.64,.67,1.12,1.45,1.45,2.33,.33,.88,.49,1.83,.49,2.84,0,1.81-.44,3.27-1.31,4.39-.87,1.12-2.16,1.88-3.86,2.28l7.47,9.73Zm-13.58-13.13h1.16c1.22,0,2.15-.25,2.8-.76,.65-.5,.98-1.23,.98-2.17s-.33-1.67-.98-2.17c-.65-.5-1.59-.76-2.8-.76h-1.16v5.86Z"/><path d="M151.5,184.77h-7.34v3.97h6.93v5.23h-6.93v4.09h7.34v5.23h-13.51v-23.75h13.51v5.23Z"/><path d="M173.05,187.47c-1.43-1.74-3.19-2.61-5.29-2.61-.92,0-1.78,.17-2.57,.5-.79,.34-1.46,.79-2.03,1.37-.57,.58-1.01,1.27-1.34,2.06-.33,.8-.49,1.66-.49,2.58s.16,1.82,.49,2.61c.33,.8,.78,1.49,1.35,2.08,.58,.59,1.25,1.05,2.03,1.39,.78,.34,1.62,.5,2.52,.5,1.97,0,3.75-.84,5.32-2.52v7.31l-.63,.22c-.94,.34-1.83,.58-2.65,.74-.82,.16-1.63,.24-2.43,.24-1.64,0-3.21-.31-4.71-.93-1.5-.62-2.82-1.49-3.97-2.61-1.14-1.12-2.06-2.46-2.76-4-.69-1.54-1.04-3.23-1.04-5.05s.34-3.5,1.02-5.02c.68-1.52,1.6-2.83,2.74-3.94s2.47-1.96,3.98-2.58c1.51-.62,3.1-.93,4.76-.93,.95,0,1.87,.1,2.79,.3,.91,.2,1.87,.51,2.88,.93v7.37Z"/><path d="M196.7,203.29h-7.69l-5.89-9.13v9.13h-6.17v-23.75h9.61c1.32,0,2.48,.19,3.46,.58,.99,.39,1.8,.92,2.44,1.59,.64,.67,1.12,1.45,1.45,2.33,.33,.88,.49,1.83,.49,2.84,0,1.81-.44,3.27-1.31,4.39-.87,1.12-2.16,1.88-3.86,2.28l7.47,9.73Zm-13.58-13.13h1.16c1.22,0,2.15-.25,2.8-.76,.65-.5,.98-1.23,.98-2.17s-.33-1.67-.98-2.17c-.65-.5-1.59-.76-2.8-.76h-1.16v5.86Z"/><path d="M212.79,184.77h-7.34v3.97h6.93v5.23h-6.93v4.09h7.34v5.23h-13.51v-23.75h13.51v5.23Z"/><path d="M231.79,199.16h-8.82l-1.42,4.13h-6.58l9.04-23.75h6.74l9.04,23.75h-6.58l-1.42-4.13Zm-1.64-4.69l-2.77-7.91-2.77,7.91h5.54Z"/><path d="M250.46,184.77v18.52h-6.17v-18.52h-5.07v-5.23h16.31v5.23h-5.07Z"/><path d="M264.45,179.54v23.75h-6.17v-23.75h6.17Z"/><path d="M268.35,191.41c0-1.76,.33-3.41,.98-4.93,.65-1.52,1.55-2.85,2.71-3.98,1.15-1.13,2.53-2.02,4.14-2.66,1.61-.64,3.37-.96,5.31-.96s3.67,.32,5.29,.96c1.62,.64,3.01,1.53,4.17,2.66,1.16,1.13,2.07,2.46,2.72,3.98,.65,1.52,.98,3.17,.98,4.93s-.33,3.41-.98,4.93c-.65,1.52-1.56,2.85-2.72,3.98-1.17,1.13-2.56,2.02-4.17,2.66-1.62,.64-3.38,.96-5.29,.96s-3.7-.32-5.31-.96c-1.61-.64-2.99-1.53-4.14-2.66-1.16-1.13-2.06-2.46-2.71-3.98-.65-1.52-.98-3.17-.98-4.93Zm6.46,0c0,.95,.18,1.82,.54,2.61,.36,.8,.84,1.49,1.45,2.08,.61,.59,1.32,1.04,2.13,1.37,.81,.33,1.66,.49,2.57,.49s1.76-.16,2.57-.49c.81-.33,1.52-.78,2.14-1.37s1.11-1.28,1.46-2.08c.36-.8,.53-1.67,.53-2.61s-.18-1.82-.53-2.61c-.36-.8-.85-1.49-1.46-2.08-.62-.59-1.33-1.04-2.14-1.37-.81-.33-1.66-.49-2.57-.49s-1.76,.16-2.57,.49c-.81,.33-1.52,.78-2.13,1.37-.61,.59-1.09,1.28-1.45,2.08-.36,.8-.54,1.67-.54,2.61Z"/><path d="M298.56,203.29v-23.75h6.17l11.4,14.52v-14.52h6.14v23.75h-6.14l-11.4-14.52v14.52h-6.17Z"/></g><path d="M214.4,170.67c-.14-.3-.35-.56-.62-.75-.27-.2-.59-.35-.96-.47s-.78-.21-1.24-.3c-.44-.09-.83-.18-1.15-.26-.32-.08-.59-.18-.78-.3-.2-.12-.35-.26-.45-.43-.09-.17-.14-.38-.14-.64,0-.5,.16-.87,.48-1.1,.32-.23,.88-.35,1.67-.35,.38,0,.72,.03,1.03,.09,.31,.06,.58,.14,.81,.25l.38,1.37h.92v-2.86l-.93,.4c-.35-.11-.71-.2-1.08-.27-.37-.07-.75-.1-1.14-.1-1.17,0-2.02,.24-2.58,.72-.55,.48-.83,1.14-.83,1.98,0,.46,.08,.83,.24,1.12,.16,.29,.38,.53,.66,.72,.28,.19,.61,.34,.99,.44s.78,.21,1.2,.3c.46,.1,.85,.19,1.16,.28s.56,.2,.75,.32c.19,.12,.32,.27,.41,.45,.08,.18,.12,.41,.12,.7,0,.54-.18,.93-.53,1.16-.35,.23-.93,.35-1.73,.35-.32,0-.65-.03-.98-.09-.32-.06-.62-.13-.87-.21l-.46-1.57h-.95l.24,2.49c.41,.15,.89,.27,1.42,.35,.53,.09,1.02,.14,1.47,.14,.65,0,1.21-.07,1.67-.2s.84-.31,1.14-.55c.29-.24,.51-.53,.64-.86,.14-.34,.21-.71,.21-1.14,0-.48-.07-.87-.21-1.17Zm.69-5.54l-.28,3h.87l.37-1.53c.02-.09,.05-.16,.08-.22,.04-.06,.11-.11,.21-.15,.11-.04,.27-.07,.47-.09s.48-.03,.84-.03h.89v7.16l-.03,.06h-1.36v1.06h4.1v-.8l-1.51-.39-.02-.06v-7.04h.83c.32,0,.59,0,.78,.02,.19,.01,.34,.04,.43,.07,.09,.04,.16,.07,.2,.12,.04,.05,.06,.11,.08,.18l.36,1.61h.83v-3h-8.14Zm14.96,0v.8l1.32,.39,.03,.06v4.09c0,.6-.04,1.1-.12,1.49-.08,.39-.22,.7-.42,.93-.2,.23-.46,.38-.78,.47-.32,.09-.73,.13-1.22,.13s-.94-.04-1.28-.12c-.34-.08-.6-.24-.8-.46-.2-.22-.34-.53-.42-.92-.08-.39-.12-.89-.12-1.51v-4.22l.03-.06h1.14v-1.07h-3.71v.8l1.32,.39,.03,.06v4.49c0,.69,.07,1.28,.21,1.75,.14,.48,.36,.86,.64,1.16,.29,.3,.67,.51,1.12,.64,.46,.13,1,.19,1.65,.19s1.22-.07,1.7-.2,.87-.35,1.19-.64c.31-.3,.54-.68,.69-1.16,.15-.47,.22-1.05,.22-1.73v-4.61l.02-.06h1.15v-1.07h-3.59Zm12.74,2.45c-.2-.57-.5-1.05-.91-1.42-.41-.37-.93-.64-1.57-.82-.64-.18-1.4-.26-2.31-.25h-.63c-.18,0-.39,0-.61,0-.22,0-.45,0-.69,0-.54,0-1.15,.02-1.84,.03v.8l1.32,.39,.03,.06v6.89l-.03,.06h-1.15v1.06h3.56c.92,0,1.7-.1,2.36-.3,.65-.2,1.18-.5,1.59-.91,.4-.4,.7-.9,.89-1.49,.19-.6,.28-1.29,.28-2.07s-.1-1.47-.29-2.05Zm-1.23,3.88c-.15,.44-.38,.8-.69,1.06-.31,.27-.69,.47-1.15,.6-.46,.13-1,.2-1.62,.21l-1.32-.27v-6.85c.16-.01,.31-.02,.44-.02h.53c.73,0,1.34,.05,1.85,.16,.51,.1,.92,.29,1.25,.56,.32,.27,.56,.64,.71,1.11,.15,.47,.22,1.07,.22,1.8,0,.64-.07,1.18-.23,1.62Zm8.71,.23l-.46,1.13c-.06,.12-.13,.21-.2,.28-.07,.07-.18,.12-.33,.16-.15,.04-.35,.05-.62,.07-.26,0-.61,.02-1.05,.02h-1.75v-3.2h.82c.25,0,.44,0,.58,0,.14,0,.24,.01,.3,.02,.06,.01,.11,.02,.12,.04,.02,.02,.03,.04,.03,.07l.18,.99h.73l.32-3.25h-.73l-.4,.98c-.04,.07-.07,.12-.1,.16-.03,.04-.08,.07-.16,.09-.07,.02-.18,.03-.32,.04-.14,0-.32,0-.56,0h-.82v-3.08h1.79c.47,0,.84,0,1.1,0,.26,0,.46,.02,.59,.04,.13,.02,.22,.05,.26,.09s.07,.1,.09,.18l.37,1.38h.85v-2.76h-7.59v.8l1.32,.39,.03,.06v6.89l-.03,.06h-1.15v1.06h7.32l.3-2.71h-.85Zm8.02-6.55v.8l1.28,.39,.03,.06v6.7h-.25l-4.32-7.95h-3.32v.8l1.33,.39,.03,.06v6.89l-.03,.06h-1.16v1.06h3.56v-.8l-1.28-.39-.03-.06v-6.7h.25l4.46,8.13h1.83v-8.32l.03-.06h1.2v-1.07h-3.6Zm4.26,0l-.28,3h.87l.37-1.53c.02-.09,.05-.16,.08-.22,.04-.06,.11-.11,.21-.15,.11-.04,.27-.07,.47-.09s.48-.03,.83-.03h.89v7.16l-.03,.06h-1.37v1.06h4.11v-.8l-1.51-.39-.02-.06v-7.04h.83c.33,0,.59,0,.78,.02,.19,.01,.34,.04,.43,.07s.16,.07,.19,.12c.04,.05,.06,.11,.08,.18l.35,1.61h.83v-3h-8.14Zm20.2,0v.8l1.32,.39,.03,.06v4.09c0,.6-.04,1.1-.12,1.49-.08,.39-.21,.7-.41,.93-.2,.23-.46,.38-.78,.47-.32,.09-.73,.13-1.23,.13s-.94-.04-1.28-.12c-.34-.08-.6-.24-.8-.46-.2-.22-.34-.53-.42-.92s-.12-.89-.12-1.51v-4.22l.03-.06h1.14v-1.07h-3.71v.8l1.32,.39,.03,.06v4.49c0,.69,.07,1.28,.21,1.75,.14,.48,.35,.86,.64,1.16,.29,.3,.66,.51,1.12,.64,.45,.13,1,.19,1.65,.19s1.22-.07,1.7-.2,.87-.35,1.19-.64c.31-.3,.54-.68,.69-1.16,.15-.47,.22-1.05,.22-1.73v-4.61l.02-.06h1.16v-1.07h-3.59Zm11.03,0v.8l1.28,.39,.03,.06v6.7h-.25l-4.32-7.95h-3.33v.8l1.33,.39,.03,.06v6.89l-.03,.06h-1.15v1.06h3.56v-.8l-1.28-.39-.03-.06v-6.7h.25l4.46,8.13h1.83v-8.32l.03-.06h1.2v-1.07h-3.6Zm7.19,8.08l-.03-.06v-6.89l.03-.06h1.33v-1.07h-4.08v.8l1.5,.39,.03,.06v6.89l-.03,.06h-1.33v1.06h4.08v-.8l-1.5-.39Zm10.56-5.82c-.14-.59-.38-1.06-.71-1.42-.32-.36-.75-.62-1.27-.79-.52-.16-1.15-.24-1.89-.24-.81,0-1.5,.1-2.07,.3-.57,.2-1.03,.5-1.38,.92-.36,.42-.61,.94-.77,1.58-.16,.64-.24,1.4-.24,2.27s.07,1.55,.21,2.13c.14,.58,.37,1.05,.69,1.42,.32,.36,.74,.63,1.25,.79,.51,.16,1.14,.25,1.88,.25,.82,0,1.51-.1,2.08-.3,.57-.2,1.03-.51,1.39-.92,.36-.41,.62-.94,.78-1.58,.16-.64,.25-1.4,.25-2.27s-.07-1.55-.21-2.13Zm-1.24,4.28c-.11,.46-.28,.82-.52,1.08-.24,.27-.54,.46-.91,.57-.37,.11-.82,.16-1.34,.16-.61,0-1.12-.05-1.51-.15-.39-.1-.7-.29-.92-.58-.22-.28-.37-.68-.46-1.19-.08-.51-.12-1.17-.12-2,0-.68,.05-1.24,.16-1.7,.11-.45,.28-.81,.51-1.07,.23-.27,.53-.46,.9-.57,.37-.11,.82-.16,1.34-.16,.62,0,1.13,.05,1.52,.15,.39,.1,.7,.29,.92,.57,.23,.28,.39,.67,.47,1.19,.09,.51,.12,1.17,.12,1.99,0,.68-.05,1.25-.16,1.7Zm8.38-6.54v.8l1.28,.39,.03,.06v6.7h-.25l-4.32-7.95h-3.32v.8l1.33,.39,.03,.06v6.89l-.03,.06h-1.16v1.06h3.56v-.8l-1.27-.39-.03-.06v-6.7h.25l4.45,8.13h1.83v-8.32l.03-.06h1.2v-1.07h-3.6Zm-195.66,.13v9.48h-4.14c-.72,0-1.33-.07-1.84-.22-.51-.14-.91-.36-1.22-.67-.23-.23-.42-.5-.56-.83-.05-.11-.09-.23-.12-.35-.14-.49-.21-1.07-.21-1.75v-4.16c0-.32-.09-.63-.26-.9-.17-.26-.41-.47-.71-.6h3.37v5.48c0,.44,.03,.81,.09,1.1,.06,.3,.16,.53,.31,.7,.15,.18,.33,.3,.58,.38,.21,.06,.47,.09,.78,.09,.04,0,1.65,0,1.65,0l.02-7.75h2.29Zm8.37,0h0c.6,.27,.98,.86,.98,1.52v5.46h-.23l-2.81-6.97h-4.47c.43,.28,.69,.75,.69,1.26v6c0,.91-.47,1.75-1.25,2.21h4.16c-.45-.28-.73-.77-.73-1.3v-5.87h.23l3.34,7.31h3.25v-7.66c0-.76,.35-1.48,.94-1.95h-4.12Zm8.57,7.39v-5.33c0-.82,.4-1.59,1.08-2.06h-4.61c.65,.27,1.07,.9,1.07,1.61l-.03,6.35c0,.65-.38,1.24-.98,1.52h4.56c-.68-.47-1.09-1.25-1.09-2.08Zm45.07,0v-5.33c0-.82,.4-1.59,1.08-2.06h-4.58c.63,.27,1.05,.89,1.04,1.58l-.03,6.38c0,.65-.38,1.24-.98,1.52h4.56c-.68-.47-1.09-1.25-1.09-2.08Zm-37.4-7.37h0c.75,.25,1.17,1.04,.95,1.79l-1.73,6.14-.23-.02-1.8-6.3c-.19-.67,.16-1.37,.8-1.62h-4.34c.42,.29,.73,.71,.89,1.19l2.65,8.37h3.64l2.72-8.43c.15-.45,.42-.85,.8-1.13h-4.35Zm8.27,1.59v2.5h2.06c.31,0,.61-.11,.85-.31h0v1.86h0c-.24-.2-.54-.31-.85-.31h-2.06v2.52h3.15c.49,0,.96-.15,1.36-.43l.05-.04v2.08h-7.95c.57-.27,.94-.85,.94-1.49v-6.47c0-.65-.38-1.24-.98-1.51h8v2.18h0c-.43-.38-.98-.58-1.55-.58h-3.01Zm14.44,7.17l-1.96-3.28c.63-.22,1.12-.56,1.48-1,.36-.45,.54-1.05,.54-1.82,0-.52-.07-.95-.21-1.3-.14-.35-.37-.63-.7-.83-.32-.2-.75-.35-1.3-.43-.54-.09-1.2-.13-1.99-.13h-4.52c.6,.27,.98,.86,.98,1.52v6.47c0,.64-.36,1.21-.94,1.49h4.23v-1.43l-.8-.3-.03-.06v-1.82l1.03-.15,1.12,2.12,.83,1.64h3.52l-1.29-.7Zm-3.04-4.74c-.28,.22-.7,.39-1.27,.51l-.91-.12v-2.82h.71c.39,0,.7,.02,.94,.06,.24,.04,.44,.11,.58,.22,.14,.11,.24,.25,.29,.42,.05,.17,.07,.39,.07,.65,0,.5-.14,.87-.42,1.08Zm12.73,1.24c-.15-.32-.37-.58-.68-.79-.31-.21-.71-.38-1.19-.51-.49-.13-1.07-.24-1.74-.33-.44-.06-.79-.12-1.05-.19-.26-.06-.47-.14-.62-.23-.15-.09-.24-.19-.29-.31-.05-.12-.07-.28-.07-.47,0-.69,.59-1.03,1.77-1.03,.3,0,.61,.03,.93,.08,.31,.06,.57,.14,.77,.25l.3,1.21h1.76v-2.97l-.15,.06c-.55,.23-1.17,.21-1.73,0-.25-.09-.48-.15-.69-.18-.43-.07-.87-.1-1.31-.1-.54,0-1.06,.06-1.55,.17-.49,.11-.92,.29-1.29,.54-.37,.25-.66,.57-.88,.97-.22,.4-.32,.88-.32,1.45,0,.45,.07,.84,.23,1.14s.38,.55,.69,.75c.31,.2,.69,.36,1.15,.48,.46,.12,.99,.22,1.6,.3,.4,.06,.74,.12,1.01,.18,.27,.06,.5,.14,.67,.23,.17,.09,.3,.2,.37,.34,.08,.14,.11,.31,.11,.52,0,.41-.13,.72-.39,.91-.26,.19-.7,.29-1.32,.29-.36,0-.69-.02-1.01-.07-.32-.04-.59-.09-.81-.14l-.35-1.4h-1.83l.21,2.73c.23,.07,.5,.14,.8,.21,.3,.07,.61,.13,.95,.17,.33,.05,.67,.08,1.01,.11,.34,.03,.68,.04,1.02,.04,1.34,0,2.37-.28,3.08-.83,.71-.55,1.06-1.36,1.06-2.43,0-.48-.07-.87-.22-1.18Zm24.56-5.28c-.63,.29-1.18,.75-1.58,1.32l-3.24,4.01v2.07c0,.83,.4,1.6,1.08,2.08h-4.55c.62-.27,1.01-.88,1.01-1.55v-2.62l-2.98-3.72h-2.11v5.82c0,.81,.39,1.58,1.04,2.05l.04,.03h-4.55c.62-.27,1.01-.88,1.01-1.55v-6.35h-.97c-.73,0-1.42,.34-1.88,.91v-2.49h9.1l2.75,3.63h.23l1.57-2.12c.32-.56,.06-1.28-.54-1.51h4.57Zm-2.13,3.88h4.2v1.53h-4.2v-1.53Z"/></g></svg>