<?xml version="1.0" encoding="UTF-8"?><svg id="Layer_1" xmlns="http://www.w3.org/2000/svg" viewBox="0 0 360 360"><defs><style>.cls-1{fill:#ffcc04;}</style></defs><g><g><g><path d="M148.21,188.04h-7l-5.37-8.32v8.32h-5.62v-21.63h8.75c1.2,0,2.26,.18,3.16,.53,.9,.35,1.64,.84,2.22,1.45,.58,.61,1.02,1.32,1.32,2.12,.3,.8,.44,1.66,.44,2.58,0,1.65-.4,2.98-1.19,4-.79,1.02-1.97,1.72-3.52,2.08l6.8,8.87Zm-12.37-11.96h1.06c1.11,0,1.96-.23,2.55-.69,.59-.46,.89-1.12,.89-1.98s-.3-1.52-.89-1.98c-.59-.46-1.44-.69-2.55-.69h-1.06v5.34Z"/><path d="M162.87,171.16h-6.69v3.62h6.31v4.76h-6.31v3.73h6.69v4.76h-12.31v-21.63h12.31v4.76Z"/><path d="M182.49,173.63c-1.3-1.59-2.91-2.38-4.82-2.38-.84,0-1.62,.15-2.34,.46-.72,.31-1.33,.72-1.85,1.25-.52,.53-.92,1.15-1.22,1.88-.3,.73-.45,1.51-.45,2.35s.15,1.65,.45,2.38c.3,.73,.71,1.36,1.23,1.89,.53,.54,1.14,.96,1.85,1.26,.71,.31,1.47,.46,2.3,.46,1.8,0,3.41-.76,4.85-2.3v6.66l-.57,.2c-.86,.31-1.66,.53-2.41,.67-.75,.14-1.48,.22-2.21,.22-1.49,0-2.92-.28-4.29-.85-1.37-.56-2.57-1.36-3.61-2.38-1.04-1.02-1.88-2.24-2.51-3.64-.63-1.41-.95-2.94-.95-4.6s.31-3.19,.93-4.58c.62-1.39,1.45-2.58,2.5-3.59,1.04-1,2.25-1.79,3.63-2.35,1.38-.56,2.82-.85,4.33-.85,.86,0,1.71,.09,2.54,.27s1.71,.46,2.63,.85v6.71Z"/><path d="M204.04,188.04h-7l-5.37-8.32v8.32h-5.62v-21.63h8.75c1.2,0,2.26,.18,3.16,.53,.9,.35,1.64,.84,2.22,1.45,.58,.61,1.02,1.32,1.32,2.12,.3,.8,.44,1.66,.44,2.58,0,1.65-.4,2.98-1.19,4-.79,1.02-1.97,1.72-3.52,2.08l6.8,8.87Zm-12.37-11.96h1.06c1.11,0,1.96-.23,2.55-.69,.59-.46,.89-1.12,.89-1.98s-.3-1.52-.89-1.98c-.59-.46-1.44-.69-2.55-.69h-1.06v5.34Z"/><path d="M218.7,171.16h-6.69v3.62h6.31v4.76h-6.31v3.73h6.69v4.76h-12.31v-21.63h12.31v4.76Z"/><path d="M236,184.28h-8.03l-1.29,3.76h-6l8.23-21.63h6.14l8.23,21.63h-6l-1.29-3.76Zm-1.49-4.27l-2.53-7.2-2.53,7.2h5.05Z"/><path d="M253.02,171.16v16.87h-5.62v-16.87h-4.62v-4.76h14.86v4.76h-4.62Z"/><path d="M265.76,166.4v21.63h-5.62v-21.63h5.62Z"/><path d="M269.31,177.22c0-1.61,.3-3.1,.89-4.49,.59-1.39,1.42-2.6,2.47-3.63,1.05-1.03,2.31-1.84,3.77-2.42,1.46-.58,3.07-.88,4.83-.88s3.35,.29,4.82,.88c1.47,.58,2.74,1.39,3.8,2.42,1.06,1.03,1.89,2.24,2.48,3.63,.59,1.39,.89,2.88,.89,4.49s-.3,3.1-.89,4.49c-.59,1.39-1.42,2.6-2.48,3.63-1.06,1.03-2.33,1.84-3.8,2.42-1.47,.58-3.08,.88-4.82,.88s-3.37-.29-4.83-.88c-1.46-.58-2.72-1.39-3.77-2.42-1.05-1.03-1.88-2.24-2.47-3.63-.59-1.39-.89-2.88-.89-4.49Zm5.88,0c0,.86,.16,1.65,.49,2.38,.32,.73,.76,1.36,1.32,1.89,.56,.54,1.2,.95,1.94,1.25,.74,.3,1.52,.45,2.34,.45s1.6-.15,2.34-.45c.74-.3,1.39-.71,1.95-1.25s1.01-1.17,1.33-1.89c.32-.73,.49-1.52,.49-2.38s-.16-1.65-.49-2.38c-.33-.73-.77-1.36-1.33-1.89-.56-.53-1.21-.95-1.95-1.25-.74-.3-1.52-.44-2.34-.44s-1.6,.15-2.34,.44c-.74,.3-1.38,.71-1.94,1.25-.55,.54-.99,1.17-1.32,1.89-.33,.73-.49,1.52-.49,2.38Z"/><path d="M296.83,188.04v-21.63h5.62l10.39,13.23v-13.23h5.59v21.63h-5.59l-10.39-13.23v13.23h-5.62Z"/></g><path d="M220.16,158.32c-.13-.28-.32-.51-.56-.69-.25-.18-.53-.32-.87-.43s-.71-.2-1.13-.28c-.41-.08-.75-.16-1.04-.24-.29-.07-.53-.17-.71-.27-.18-.11-.32-.24-.41-.39-.09-.15-.13-.34-.13-.58,0-.46,.15-.8,.44-1.01,.29-.21,.8-.32,1.52-.32,.34,0,.66,.02,.94,.08,.28,.06,.53,.13,.74,.23l.35,1.24h.84v-2.61l-.85,.37c-.32-.1-.64-.18-.98-.25-.34-.06-.68-.09-1.03-.09-1.06,0-1.84,.22-2.35,.65s-.76,1.04-.76,1.8c0,.42,.07,.76,.22,1.02,.15,.27,.34,.48,.6,.66,.26,.17,.56,.31,.9,.41s.71,.19,1.09,.27c.42,.09,.77,.17,1.06,.26s.51,.18,.68,.29c.17,.11,.29,.25,.37,.41,.07,.16,.11,.38,.11,.64,0,.49-.16,.85-.48,1.06-.32,.21-.85,.32-1.57,.32-.29,0-.59-.03-.89-.08-.29-.05-.56-.12-.8-.19l-.42-1.43h-.86l.22,2.27c.38,.14,.81,.25,1.29,.32,.48,.08,.93,.12,1.34,.12,.59,0,1.1-.06,1.52-.18s.77-.28,1.03-.5c.27-.22,.46-.48,.59-.79,.13-.31,.19-.65,.19-1.04,0-.43-.07-.79-.2-1.07Zm.63-5.05l-.26,2.73h.8l.34-1.39c.02-.08,.04-.15,.07-.2,.03-.05,.1-.1,.2-.13,.1-.04,.24-.06,.43-.08s.44-.03,.76-.03h.81v6.52l-.03,.06h-1.24v.97h3.74v-.73l-1.38-.35v-6.47h.74c.29,0,.53,0,.71,.02,.17,.01,.31,.04,.39,.07,.09,.03,.15,.07,.18,.11,.03,.05,.05,.1,.07,.16l.32,1.47h.76v-2.73h-7.42Zm13.63,0v.73l1.2,.35,.02,.05v3.73c0,.55-.04,1-.11,1.36-.07,.36-.2,.64-.38,.85-.18,.21-.42,.35-.71,.43-.29,.08-.66,.12-1.12,.12s-.86-.04-1.17-.11c-.31-.07-.55-.22-.73-.42-.18-.2-.31-.48-.38-.84-.07-.36-.11-.81-.11-1.37v-3.85l.03-.05h1.04v-.97h-3.38v.73l1.2,.35,.03,.05v4.09c0,.63,.06,1.16,.19,1.59,.13,.43,.32,.79,.59,1.06,.27,.27,.61,.46,1.02,.58,.42,.12,.91,.17,1.5,.17s1.11-.06,1.55-.18,.8-.32,1.08-.59c.28-.27,.49-.62,.63-1.06,.14-.43,.2-.96,.2-1.58v-4.25h1.07v-.97h-3.27Zm11.6,2.23c-.18-.52-.45-.95-.82-1.29-.37-.34-.85-.59-1.43-.75-.58-.16-1.28-.24-2.1-.23h-.57c-.17,0-.35,0-.55,0-.2,0-.41,0-.63,0-.49,0-1.05,.02-1.67,.02v.73l1.2,.35,.03,.05v6.28l-.03,.06h-1.05v.97h3.24c.84,0,1.55-.09,2.15-.28,.59-.18,1.08-.46,1.45-.82,.37-.36,.64-.82,.81-1.36,.17-.55,.26-1.17,.26-1.88s-.09-1.34-.26-1.87Zm-1.12,3.53c-.14,.4-.35,.72-.63,.97-.28,.25-.63,.43-1.05,.55-.42,.12-.91,.18-1.47,.19l-1.2-.25v-6.24c.14-.01,.28-.01,.41-.01h.49c.66,0,1.22,.05,1.69,.14,.47,.09,.84,.26,1.14,.51,.29,.25,.51,.59,.64,1.01,.14,.43,.2,.97,.2,1.64,0,.58-.07,1.08-.21,1.48Zm7.93,.21l-.42,1.03c-.06,.11-.12,.19-.18,.26-.07,.06-.17,.11-.3,.14-.13,.03-.32,.05-.56,.06-.24,0-.55,.01-.95,.01h-1.59v-2.92h.74c.22,0,.4,0,.53,0,.13,0,.22,.01,.28,.02,.06,.01,.1,.02,.11,.04,.02,.01,.03,.03,.03,.06l.16,.91h.66l.29-2.96h-.66l-.37,.89c-.04,.06-.07,.11-.09,.15-.03,.04-.07,.06-.14,.08-.07,.02-.16,.03-.29,.03-.12,0-.29,0-.51,0h-.74v-2.81h1.63c.43,0,.77,0,1.01,0,.24,0,.42,.01,.54,.03,.12,.02,.2,.05,.23,.08s.06,.09,.08,.16l.34,1.25h.77v-2.51h-6.92v.73l1.2,.35,.03,.05v6.28l-.03,.06h-1.05v.97h6.67l.27-2.47h-.77Zm7.31-5.97v.73l1.16,.35,.03,.05v6.11h-.23l-3.94-7.24h-3.03v.73l1.22,.35,.02,.05v6.28l-.02,.06h-1.06v.97h3.24v-.73l-1.16-.35-.02-.05v-6.11h.23l4.06,7.4h1.66v-7.58l.03-.05h1.09v-.97h-3.28Zm3.88,0l-.26,2.73h.8l.34-1.39c.02-.08,.04-.15,.07-.2,.03-.05,.1-.1,.2-.13,.1-.04,.24-.06,.43-.08s.44-.03,.76-.03h.81v6.52l-.02,.06h-1.24v.97h3.74v-.73l-1.38-.35v-6.47h.74c.3,0,.53,0,.71,.02,.17,.01,.31,.04,.39,.07s.14,.07,.17,.11c.03,.05,.06,.1,.07,.16l.32,1.47h.76v-2.73h-7.41Zm18.4,0v.73l1.2,.35,.03,.05v3.73c0,.55-.04,1-.11,1.36-.07,.36-.2,.64-.38,.85-.18,.21-.42,.35-.71,.43-.29,.08-.67,.12-1.12,.12s-.86-.04-1.17-.11c-.31-.07-.55-.22-.73-.42-.18-.2-.31-.48-.38-.84s-.11-.81-.11-1.37v-3.85l.03-.05h1.04v-.97h-3.38v.73l1.2,.35,.02,.05v4.09c0,.63,.06,1.16,.19,1.59,.12,.43,.32,.79,.59,1.06,.27,.27,.6,.46,1.02,.58,.41,.12,.91,.17,1.5,.17s1.11-.06,1.55-.18,.8-.32,1.08-.59c.28-.27,.49-.62,.63-1.06,.14-.43,.2-.96,.2-1.58v-4.25h1.07v-.97h-3.27Zm10.05,0v.73l1.16,.35,.03,.05v6.11h-.23l-3.94-7.24h-3.03v.73l1.22,.35,.03,.05v6.28l-.03,.06h-1.05v.97h3.24v-.73l-1.16-.35-.03-.05v-6.11h.23l4.06,7.4h1.66v-7.58l.03-.05h1.09v-.97h-3.28Zm6.55,7.36l-.02-.05v-6.28l.02-.05h1.22v-.97h-3.71v.73l1.36,.35,.03,.05v6.28l-.03,.06h-1.22v.97h3.71v-.73l-1.36-.35Zm9.62-5.31c-.13-.53-.34-.96-.64-1.29-.29-.33-.68-.57-1.15-.72-.47-.15-1.04-.22-1.72-.22-.74,0-1.36,.09-1.88,.27-.52,.18-.94,.46-1.26,.84-.33,.38-.56,.86-.7,1.44-.15,.58-.22,1.27-.22,2.07s.06,1.41,.19,1.94c.13,.53,.34,.96,.63,1.29,.29,.33,.67,.57,1.14,.72,.47,.15,1.04,.22,1.72,.22,.75,0,1.38-.09,1.9-.27,.52-.18,.94-.46,1.27-.84,.33-.38,.57-.86,.71-1.44,.15-.58,.22-1.27,.22-2.07s-.06-1.41-.2-1.94Zm-1.13,3.9c-.1,.42-.26,.74-.47,.98-.22,.25-.49,.42-.83,.52-.34,.1-.75,.15-1.22,.15-.56,0-1.02-.05-1.38-.13-.36-.09-.64-.27-.84-.53-.2-.26-.34-.62-.42-1.08-.07-.47-.11-1.07-.11-1.82,0-.62,.05-1.13,.15-1.55,.1-.41,.25-.74,.47-.98,.21-.25,.48-.42,.82-.52,.34-.1,.74-.15,1.22-.15,.57,0,1.03,.04,1.39,.14,.36,.09,.64,.26,.84,.52,.21,.26,.35,.61,.43,1.08,.08,.46,.11,1.07,.11,1.82,0,.62-.05,1.14-.15,1.55Zm7.64-5.96v.73l1.16,.35,.02,.05v6.11h-.23l-3.94-7.24h-3.03v.73l1.22,.35,.02,.05v6.28l-.02,.06h-1.06v.97h3.24v-.73l-1.16-.35-.03-.05v-6.11h.23l4.06,7.4h1.67v-7.58l.02-.05h1.09v-.97h-3.28Zm-178.24,.12v8.63h-3.77c-.65,0-1.22-.06-1.68-.2-.46-.13-.83-.33-1.11-.61-.21-.21-.38-.45-.51-.76-.04-.1-.08-.21-.11-.31-.13-.44-.19-.97-.19-1.59v-3.79c0-.3-.09-.57-.24-.82-.16-.23-.38-.43-.65-.55h3.07v4.99c0,.4,.03,.74,.08,1,.06,.27,.15,.48,.28,.64,.13,.16,.3,.28,.52,.34,.19,.05,.43,.08,.71,.09,.04,0,1.51,0,1.51,0l.02-7.06h2.09Zm7.63,0h0c.54,.25,.89,.79,.89,1.38v4.97h-.21l-2.56-6.35h-4.07c.39,.25,.63,.68,.63,1.15v5.47c0,.82-.43,1.59-1.14,2.02h3.79c-.41-.25-.66-.7-.66-1.19v-5.35h.21l3.05,6.66h2.96v-6.98c0-.69,.32-1.35,.86-1.78h-3.76Zm7.81,6.73v-4.86c0-.75,.37-1.45,.98-1.88h-4.2c.59,.24,.98,.82,.98,1.46l-.03,5.79c0,.59-.35,1.13-.89,1.38h4.16c-.62-.43-.99-1.14-.99-1.9Zm41.06,0v-4.86c0-.75,.37-1.45,.98-1.88h-4.17c.58,.25,.95,.81,.95,1.44l-.03,5.81c0,.59-.35,1.13-.89,1.38h4.16c-.62-.43-.99-1.14-.99-1.9Zm-34.07-6.71h0c.68,.23,1.06,.95,.87,1.63l-1.57,5.59h-.21l-1.64-5.75c-.17-.61,.14-1.25,.73-1.47h-3.95c.38,.26,.67,.64,.81,1.09l2.41,7.63h3.31l2.48-7.68c.13-.41,.39-.77,.73-1.03h-3.96Zm7.53,1.44v2.28h1.88c.28,0,.56-.1,.77-.28h0v1.7h0c-.22-.18-.49-.28-.77-.28h-1.88v2.29h2.87c.44,0,.88-.14,1.24-.39l.05-.04v1.89h-7.25c.52-.25,.85-.78,.85-1.36v-5.9c0-.59-.35-1.13-.89-1.37h7.29v1.99h0c-.39-.34-.89-.53-1.41-.53h-2.74Zm13.16,6.53l-1.78-2.98c.57-.2,1.02-.51,1.34-.91,.33-.41,.49-.96,.49-1.66,0-.47-.06-.87-.19-1.18-.13-.32-.34-.57-.64-.75-.29-.19-.69-.32-1.18-.39-.49-.08-1.1-.12-1.82-.12h-4.11c.54,.25,.89,.79,.89,1.38v5.9c0,.58-.33,1.11-.85,1.36h3.85v-1.3l-.73-.28-.03-.05v-1.66l.94-.14,1.02,1.93,.76,1.49h3.21l-1.17-.64Zm-2.77-4.32c-.25,.2-.64,.35-1.15,.46l-.83-.11v-2.57h.65c.35,0,.64,.02,.86,.05,.22,.04,.4,.1,.52,.2,.13,.1,.22,.23,.26,.38,.05,.16,.07,.36,.07,.59,0,.46-.13,.79-.38,.99Zm11.59,1.13c-.13-.29-.34-.53-.62-.72-.28-.19-.64-.35-1.09-.46-.44-.12-.97-.21-1.59-.3-.4-.05-.72-.11-.95-.17-.24-.06-.43-.13-.56-.21-.13-.08-.22-.17-.26-.28-.04-.11-.06-.25-.06-.43,0-.63,.54-.94,1.62-.94,.28,0,.56,.03,.84,.08,.28,.05,.52,.13,.7,.23l.28,1.1h1.6v-2.71l-.14,.06c-.5,.21-1.06,.19-1.58,0-.22-.08-.43-.13-.63-.16-.39-.06-.79-.09-1.2-.09-.5,0-.97,.05-1.42,.15-.45,.1-.84,.26-1.18,.49-.34,.23-.6,.52-.8,.88-.2,.36-.3,.8-.3,1.32,0,.41,.07,.76,.21,1.04s.35,.5,.63,.68c.28,.18,.63,.32,1.05,.44,.42,.11,.9,.2,1.46,.28,.37,.05,.68,.11,.92,.16,.25,.06,.45,.13,.61,.21,.16,.08,.27,.19,.34,.31,.07,.12,.1,.28,.1,.48,0,.38-.12,.65-.35,.83-.23,.17-.64,.26-1.21,.26-.32,0-.63-.02-.92-.06-.29-.04-.54-.08-.74-.13l-.32-1.27h-1.67l.19,2.49c.21,.06,.45,.13,.72,.19,.27,.06,.56,.12,.86,.16,.3,.04,.61,.08,.92,.1,.31,.03,.62,.04,.93,.04,1.22,0,2.16-.25,2.8-.75,.65-.5,.97-1.24,.97-2.22,0-.43-.06-.79-.2-1.08Zm22.38-4.81c-.58,.26-1.08,.68-1.44,1.2l-2.95,3.65v1.89c0,.75,.36,1.46,.99,1.89h-4.15c.56-.25,.92-.8,.92-1.41v-2.39l-2.72-3.39h-1.92v5.3c0,.74,.35,1.44,.95,1.87l.04,.03h-4.15c.56-.25,.92-.8,.92-1.41v-5.78h-.88c-.67,0-1.3,.31-1.71,.83v-2.27h8.29l2.5,3.31h.21l1.43-1.93c.29-.51,.06-1.17-.49-1.38h4.16Zm-1.94,3.54h3.83v1.39h-3.83v-1.39Z"/></g><g><path d="M131.09,206.93h-2.45v-11.38h2.45v.84c.52-.72,1.24-1.08,2.14-1.08,.5,0,.96,.11,1.39,.32,.43,.21,.8,.5,1.12,.87,.32,.37,.56,.79,.74,1.29s.26,1.02,.26,1.58-.09,1.08-.26,1.57-.42,.91-.73,1.27-.68,.65-1.1,.86c-.42,.21-.88,.31-1.38,.31-.87,0-1.59-.33-2.17-.98v4.53Zm3.09-7.56c0-.24-.04-.46-.12-.67s-.19-.4-.33-.55c-.14-.16-.31-.28-.51-.38-.19-.09-.4-.14-.63-.14s-.42,.04-.61,.13c-.19,.09-.35,.21-.49,.37-.14,.16-.25,.34-.34,.55s-.13,.44-.13,.67,.04,.46,.12,.67c.08,.21,.19,.39,.34,.54,.14,.15,.31,.28,.51,.37,.19,.09,.4,.14,.62,.14s.42-.04,.61-.13,.35-.21,.49-.37,.25-.34,.34-.55c.09-.21,.13-.42,.13-.65Z"/><path d="M140.58,190.86v12.28h-2.45v-12.28h2.45Z"/><path d="M147.62,195.55h2.46v7.59h-2.46v-.84c-.52,.72-1.23,1.08-2.13,1.08-.51,0-.97-.1-1.39-.3-.42-.2-.79-.49-1.11-.85-.32-.36-.56-.79-.74-1.29s-.26-1.03-.26-1.61c0-.54,.09-1.06,.26-1.55,.17-.49,.41-.91,.72-1.28,.31-.36,.67-.65,1.1-.87,.42-.21,.89-.32,1.41-.32,.87,0,1.58,.33,2.15,.99v-.75Zm-3.09,3.77c0,.25,.04,.48,.12,.69,.08,.21,.19,.4,.33,.56,.14,.16,.31,.28,.5,.37,.19,.09,.4,.13,.63,.13s.42-.04,.62-.13c.19-.09,.36-.21,.5-.37,.14-.16,.25-.34,.34-.55,.09-.21,.13-.43,.13-.67s-.04-.46-.13-.67-.2-.4-.34-.55c-.14-.16-.31-.28-.5-.37-.19-.09-.4-.13-.62-.13s-.44,.04-.63,.13c-.19,.09-.36,.21-.5,.37-.14,.16-.25,.34-.33,.54-.08,.2-.12,.42-.12,.66Z"/><path d="M154.41,202.11l-3.36-6.55h2.84l1.85,3.89,1.8-3.89h2.82l-5.58,11.38h-2.75l2.37-4.82Z"/><path d="M160.35,201.72c0-.24,.04-.46,.12-.67,.08-.21,.19-.4,.34-.56,.14-.16,.31-.28,.51-.37,.19-.09,.4-.13,.62-.13s.42,.04,.62,.13c.19,.09,.36,.21,.51,.37,.14,.16,.26,.34,.34,.56s.12,.44,.12,.67-.04,.46-.12,.67-.19,.4-.34,.55c-.14,.16-.31,.28-.51,.37-.19,.09-.4,.13-.62,.13s-.42-.04-.62-.13c-.19-.09-.36-.21-.51-.37-.14-.16-.26-.34-.34-.55-.08-.21-.12-.44-.12-.67Z"/><path d="M171.57,195.55l1.67,3.99,1.73-3.99h1.54l1.73,4.11,1.75-4.11h2.72l-3.63,7.59h-1.64l-1.73-4.16-1.65,4.16h-1.67l-3.56-7.59h2.73Z"/><path d="M185.43,199.8c0,1.15,.5,1.73,1.49,1.73,.53,0,.93-.24,1.21-.71h2.37c-.48,1.74-1.67,2.6-3.59,2.6-.59,0-1.12-.1-1.61-.29-.49-.19-.9-.47-1.25-.82s-.62-.78-.81-1.27c-.19-.49-.28-1.04-.28-1.66s.09-1.2,.27-1.71c.18-.51,.44-.94,.77-1.29,.33-.35,.74-.63,1.21-.82,.47-.19,1.01-.29,1.6-.29s1.11,.1,1.58,.29c.47,.19,.87,.47,1.19,.84,.33,.36,.57,.81,.74,1.34s.26,1.12,.26,1.78v.28h-5.16Zm2.87-1.55c-.08-.38-.25-.68-.5-.9-.25-.23-.56-.34-.92-.34-.38,0-.69,.11-.93,.33-.24,.22-.39,.52-.45,.92h2.8Z"/><path d="M194.44,190.86v12.28h-2.45v-12.28h2.45Z"/><path d="M198.57,190.86v12.28h-2.45v-12.28h2.45Z"/><path d="M200.24,195.55h2.45v.96c.33-.44,.67-.74,1.02-.9,.34-.15,.74-.23,1.2-.23,.49,0,.9,.09,1.25,.26,.35,.17,.64,.42,.89,.73,.2,.26,.33,.54,.41,.86,.07,.32,.11,.68,.11,1.08v4.82h-2.45v-3.83c0-.37-.02-.68-.07-.91-.05-.23-.14-.42-.26-.55-.11-.12-.23-.2-.37-.25-.14-.05-.28-.07-.43-.07-.42,0-.73,.14-.95,.41-.22,.27-.33,.66-.33,1.16v4.05h-2.45v-7.59Z"/><path d="M211.44,199.8c0,1.15,.5,1.73,1.49,1.73,.53,0,.93-.24,1.21-.71h2.37c-.48,1.74-1.67,2.6-3.59,2.6-.59,0-1.12-.1-1.61-.29-.49-.19-.9-.47-1.25-.82s-.62-.78-.81-1.27c-.19-.49-.28-1.04-.28-1.66s.09-1.2,.27-1.71c.18-.51,.44-.94,.77-1.29,.33-.35,.74-.63,1.21-.82,.47-.19,1.01-.29,1.6-.29s1.11,.1,1.58,.29c.47,.19,.87,.47,1.19,.84,.33,.36,.57,.81,.74,1.34s.26,1.12,.26,1.78v.28h-5.16Zm2.87-1.55c-.08-.38-.25-.68-.5-.9-.25-.23-.56-.34-.92-.34-.38,0-.69,.11-.93,.33-.24,.22-.39,.52-.45,.92h2.8Z"/><path d="M222.59,197.51c-.45-.26-.89-.38-1.33-.38-.23,0-.41,.05-.55,.15-.14,.1-.21,.23-.21,.4,0,.09,.01,.16,.03,.21,.02,.05,.07,.11,.15,.16s.19,.09,.34,.13c.15,.04,.34,.09,.59,.15,.68,.15,1.18,.41,1.52,.79,.33,.38,.5,.87,.5,1.46,0,.44-.08,.84-.24,1.2-.16,.35-.39,.65-.68,.9-.29,.24-.64,.43-1.04,.56-.41,.13-.85,.2-1.34,.2-.94,0-1.86-.29-2.78-.87l.89-1.89c.69,.51,1.34,.77,1.95,.77,.23,0,.41-.05,.55-.16s.22-.25,.22-.41c0-.1-.01-.18-.03-.24s-.07-.12-.14-.18c-.07-.05-.18-.1-.32-.15-.14-.04-.32-.09-.55-.14-.76-.17-1.29-.42-1.59-.75-.3-.33-.45-.79-.45-1.37,0-.42,.07-.81,.22-1.15,.14-.34,.35-.63,.62-.87,.27-.24,.6-.42,.98-.55,.38-.13,.81-.19,1.28-.19,.77,0,1.51,.16,2.23,.49l-.83,1.75Z"/><path d="M229.48,197.51c-.45-.26-.89-.38-1.33-.38-.23,0-.41,.05-.55,.15-.14,.1-.21,.23-.21,.4,0,.09,.01,.16,.03,.21,.02,.05,.07,.11,.15,.16s.19,.09,.34,.13c.15,.04,.34,.09,.59,.15,.68,.15,1.18,.41,1.52,.79,.33,.38,.5,.87,.5,1.46,0,.44-.08,.84-.24,1.2-.16,.35-.39,.65-.68,.9-.29,.24-.64,.43-1.04,.56-.41,.13-.85,.2-1.34,.2-.94,0-1.86-.29-2.78-.87l.89-1.89c.69,.51,1.34,.77,1.95,.77,.23,0,.41-.05,.55-.16s.22-.25,.22-.41c0-.1-.01-.18-.03-.24s-.07-.12-.14-.18c-.07-.05-.18-.1-.32-.15-.14-.04-.32-.09-.55-.14-.76-.17-1.29-.42-1.59-.75-.3-.33-.45-.79-.45-1.37,0-.42,.07-.81,.22-1.15,.14-.34,.35-.63,.62-.87,.27-.24,.6-.42,.98-.55,.38-.13,.81-.19,1.28-.19,.77,0,1.51,.16,2.23,.49l-.83,1.75Z"/><path d="M231.65,201.72c0-.24,.04-.46,.12-.67,.08-.21,.19-.4,.34-.56,.14-.16,.31-.28,.51-.37,.19-.09,.4-.13,.62-.13s.42,.04,.62,.13c.19,.09,.36,.21,.51,.37,.14,.16,.26,.34,.34,.56s.12,.44,.12,.67-.04,.46-.12,.67-.19,.4-.34,.55c-.14,.16-.31,.28-.51,.37-.19,.09-.4,.13-.62,.13s-.42-.04-.62-.13c-.19-.09-.36-.21-.51-.37-.14-.16-.26-.34-.34-.55-.08-.21-.12-.44-.12-.67Z"/><path d="M246.22,198.01c-.42-.32-.85-.47-1.29-.47-.23,0-.45,.04-.66,.13-.2,.09-.38,.21-.53,.38-.15,.16-.27,.35-.36,.58-.09,.22-.13,.47-.13,.75s.04,.51,.13,.73c.09,.22,.2,.41,.35,.58,.15,.16,.33,.29,.53,.38,.21,.09,.43,.13,.66,.13,.46,0,.89-.17,1.29-.52v2.28c-.61,.29-1.18,.43-1.72,.43-.51,0-.99-.09-1.44-.28-.46-.19-.86-.46-1.2-.81-.35-.35-.62-.77-.83-1.26-.21-.49-.31-1.03-.31-1.64s.1-1.15,.3-1.65,.47-.93,.81-1.29c.34-.36,.75-.64,1.23-.84,.47-.2,.98-.3,1.52-.3,.6,0,1.15,.14,1.65,.41v2.28Z"/><path d="M247.34,199.28c0-.56,.1-1.09,.31-1.58,.21-.49,.5-.91,.87-1.27,.37-.36,.81-.64,1.32-.85,.51-.21,1.07-.31,1.67-.31s1.15,.1,1.66,.3,.95,.48,1.33,.84,.67,.79,.87,1.29c.21,.5,.31,1.05,.31,1.65s-.11,1.15-.32,1.65-.5,.93-.87,1.29c-.37,.36-.81,.64-1.33,.84s-1.08,.3-1.68,.3-1.15-.1-1.65-.3c-.51-.2-.94-.48-1.31-.84-.37-.36-.65-.8-.86-1.31-.21-.51-.31-1.07-.31-1.69Zm2.59,.03c0,.26,.04,.49,.13,.7,.09,.21,.2,.4,.34,.56,.14,.16,.31,.28,.5,.37,.19,.09,.4,.13,.62,.13s.42-.04,.62-.13c.19-.09,.36-.21,.5-.37s.25-.34,.34-.56c.09-.21,.13-.44,.13-.69s-.04-.46-.13-.67c-.09-.21-.2-.4-.34-.55s-.31-.28-.5-.37c-.19-.09-.4-.13-.62-.13s-.42,.04-.62,.13c-.19,.09-.36,.21-.5,.37-.14,.16-.25,.34-.34,.55-.09,.21-.13,.43-.13,.67Z"/><path d="M257.09,195.55h2.45v.96c.33-.44,.67-.74,1.02-.9,.34-.15,.74-.23,1.2-.23,.49,0,.9,.09,1.25,.26,.35,.17,.64,.42,.89,.73,.2,.26,.33,.54,.41,.86,.07,.32,.11,.68,.11,1.08v4.82h-2.45v-3.83c0-.37-.02-.68-.07-.91-.05-.23-.14-.42-.26-.55-.11-.12-.23-.2-.37-.25-.14-.05-.28-.07-.43-.07-.42,0-.73,.14-.95,.41-.22,.27-.33,.66-.33,1.16v4.05h-2.45v-7.59Z"/><path d="M266.08,195.55h2.45v.96c.33-.44,.67-.74,1.02-.9,.34-.15,.74-.23,1.2-.23,.49,0,.9,.09,1.25,.26,.35,.17,.64,.42,.89,.73,.2,.26,.33,.54,.41,.86,.07,.32,.11,.68,.11,1.08v4.82h-2.45v-3.83c0-.37-.02-.68-.07-.91-.05-.23-.14-.42-.26-.55-.11-.12-.23-.2-.37-.25-.14-.05-.28-.07-.43-.07-.42,0-.73,.14-.95,.41-.22,.27-.33,.66-.33,1.16v4.05h-2.45v-7.59Z"/><path d="M277.27,199.8c0,1.15,.5,1.73,1.49,1.73,.53,0,.93-.24,1.21-.71h2.37c-.48,1.74-1.67,2.6-3.59,2.6-.59,0-1.12-.1-1.61-.29-.49-.19-.9-.47-1.25-.82s-.62-.78-.81-1.27c-.19-.49-.28-1.04-.28-1.66s.09-1.2,.27-1.71c.18-.51,.44-.94,.77-1.29,.33-.35,.74-.63,1.21-.82,.47-.19,1.01-.29,1.6-.29s1.11,.1,1.58,.29c.47,.19,.87,.47,1.19,.84,.33,.36,.57,.81,.74,1.34s.26,1.12,.26,1.78v.28h-5.16Zm2.87-1.55c-.08-.38-.25-.68-.5-.9-.25-.23-.56-.34-.92-.34-.38,0-.69,.11-.93,.33-.24,.22-.39,.52-.45,.92h2.8Z"/><path d="M289.06,198.01c-.42-.32-.85-.47-1.29-.47-.23,0-.45,.04-.66,.13-.2,.09-.38,.21-.53,.38-.15,.16-.27,.35-.36,.58-.09,.22-.13,.47-.13,.75s.04,.51,.13,.73c.09,.22,.2,.41,.35,.58,.15,.16,.33,.29,.53,.38,.21,.09,.43,.13,.66,.13,.46,0,.89-.17,1.29-.52v2.28c-.61,.29-1.18,.43-1.72,.43-.51,0-.99-.09-1.44-.28-.46-.19-.86-.46-1.2-.81-.35-.35-.62-.77-.83-1.26-.21-.49-.31-1.03-.31-1.64s.1-1.15,.3-1.65,.47-.93,.81-1.29c.34-.36,.75-.64,1.23-.84,.47-.2,.98-.3,1.52-.3,.6,0,1.15,.14,1.65,.41v2.28Z"/><path d="M293.19,197.79v5.36h-2.45v-5.36h-.81v-2.23h.81v-2.28h2.45v2.28h1.39v2.23h-1.39Z"/><path d="M295.53,192.64c0-.21,.04-.4,.11-.58,.07-.18,.17-.34,.3-.48,.13-.14,.27-.25,.44-.33s.35-.12,.53-.12,.37,.04,.53,.12,.31,.19,.44,.33c.13,.14,.23,.3,.3,.48,.07,.18,.11,.38,.11,.58s-.04,.4-.11,.58-.17,.34-.3,.48-.27,.25-.44,.33-.35,.12-.53,.12-.37-.04-.53-.12-.31-.19-.44-.33-.23-.3-.3-.48c-.07-.18-.11-.38-.11-.58Zm2.61,2.91v7.59h-2.45v-7.59h2.45Z"/><path d="M299.55,199.28c0-.56,.1-1.09,.31-1.58,.21-.49,.5-.91,.87-1.27,.37-.36,.81-.64,1.32-.85,.51-.21,1.07-.31,1.67-.31s1.15,.1,1.66,.3,.95,.48,1.33,.84,.67,.79,.87,1.29c.21,.5,.31,1.05,.31,1.65s-.11,1.15-.32,1.65-.5,.93-.87,1.29c-.37,.36-.81,.64-1.33,.84s-1.08,.3-1.68,.3-1.15-.1-1.65-.3c-.51-.2-.94-.48-1.31-.84-.37-.36-.65-.8-.86-1.31-.21-.51-.31-1.07-.31-1.69Zm2.59,.03c0,.26,.04,.49,.13,.7,.09,.21,.2,.4,.34,.56,.14,.16,.31,.28,.5,.37,.19,.09,.4,.13,.62,.13s.42-.04,.62-.13c.19-.09,.36-.21,.5-.37s.25-.34,.34-.56c.09-.21,.13-.44,.13-.69s-.04-.46-.13-.67c-.09-.21-.2-.4-.34-.55s-.31-.28-.5-.37c-.19-.09-.4-.13-.62-.13s-.42,.04-.62,.13c-.19,.09-.36,.21-.5,.37-.14,.16-.25,.34-.34,.55-.09,.21-.13,.43-.13,.67Z"/><path d="M309.3,195.55h2.45v.96c.33-.44,.67-.74,1.02-.9,.34-.15,.74-.23,1.2-.23,.49,0,.9,.09,1.25,.26,.35,.17,.64,.42,.89,.73,.2,.26,.33,.54,.41,.86,.07,.32,.11,.68,.11,1.08v4.82h-2.45v-3.83c0-.37-.02-.68-.07-.91-.05-.23-.14-.42-.26-.55-.11-.12-.23-.2-.37-.25-.14-.05-.28-.07-.43-.07-.42,0-.73,.14-.95,.41-.22,.27-.33,.66-.33,1.16v4.05h-2.45v-7.59Z"/><path d="M318.17,201.72c0-.24,.04-.46,.12-.67,.08-.21,.19-.4,.34-.56,.14-.16,.31-.28,.51-.37,.19-.09,.4-.13,.62-.13s.42,.04,.62,.13c.19,.09,.36,.21,.51,.37,.14,.16,.26,.34,.34,.56s.12,.44,.12,.67-.04,.46-.12,.67-.19,.4-.34,.55c-.14,.16-.31,.28-.51,.37-.19,.09-.4,.13-.62,.13s-.42-.04-.62-.13c-.19-.09-.36-.21-.51-.37-.14-.16-.26-.34-.34-.55-.08-.21-.12-.44-.12-.67Z"/></g></g><g><path d="M124.9,152.53H38.66c6.04,1.52,9.04,5.81,9.04,11.61l77.19,43.33v-54.94Z"/><g><path class="cls-1" d="M72.98,207.47h17.4v-41.6c-6.19,1.7-12.05,2.99-17.4,3.97v37.63Z"/><path class="cls-1" d="M56.24,207.47h10.29v-36.56c-3.84,.58-7.3,.99-10.29,1.28v35.27Z"/><path class="cls-1" d="M96.82,163.98v43.5h28.08v-54.94c-9.48,4.9-19.03,8.62-28.08,11.45Z"/></g></g></svg>