<svg width="22" height="22" viewBox="0 0 22 22" fill="none" xmlns="http://www.w3.org/2000/svg">
    <path
        d="M11.8711 5.32596C13.071 5.52705 14.1609 6.09377 15.0311 6.96214C15.9012 7.8305 16.4645 8.91824 16.6706 10.1157M12.0543 1.40002C14.1884 1.76108 16.1348 2.77113 17.6828 4.31133C19.2307 5.85611 20.2382 7.7985 20.6 9.92828M18.933 18.4017C18.933 18.4017 17.7743 19.5397 17.4904 19.8733C17.0278 20.3669 16.4828 20.6 15.7684 20.6C15.6997 20.6 15.6264 20.6 15.5577 20.5954C14.1976 20.5086 12.9336 19.9785 11.9856 19.526C9.39347 18.2737 7.11736 16.4959 5.22594 14.2427C3.66427 12.3643 2.6201 10.6275 1.92856 8.76284C1.50265 7.62482 1.34694 6.73818 1.41564 5.90181C1.46143 5.36708 1.66752 4.92375 2.04763 4.54442L3.60931 2.98593C3.83372 2.77569 4.07186 2.66144 4.30542 2.66144C4.59395 2.66144 4.82751 2.83511 4.97406 2.98136C4.97864 2.98593 4.98322 2.9905 4.9878 2.99507C5.26716 3.25558 5.53278 3.52523 5.81214 3.81316C5.95412 3.95941 6.10067 4.10566 6.24722 4.25648L7.49747 5.50419C7.98292 5.98864 7.98292 6.43654 7.49747 6.92099C7.36466 7.05353 7.23643 7.18607 7.10362 7.31404C6.71892 7.70709 7.02112 7.40551 6.62269 7.76199C6.61353 7.77113 6.60437 7.7757 6.59979 7.78485C6.20594 8.17789 6.27921 8.5618 6.36165 8.82231C6.36623 8.83602 6.37081 8.84973 6.37539 8.86345C6.70055 9.64954 7.15852 10.3899 7.85463 11.272L7.85921 11.2766C9.12321 12.8305 10.4559 14.0416 11.926 14.9694C12.1137 15.0882 12.3061 15.1842 12.4893 15.2756C12.6542 15.3579 12.8099 15.4356 12.9427 15.5179C12.961 15.527 12.9793 15.5407 12.9976 15.5499C13.1533 15.6275 13.2999 15.6641 13.451 15.6641C13.8311 15.6641 14.0693 15.4265 14.1471 15.3488L15.0448 14.4529C15.2005 14.2975 15.4478 14.1101 15.7363 14.1101C16.0203 14.1101 16.2539 14.2884 16.3958 14.4438C16.4004 14.4483 16.4004 14.4483 16.405 14.4529L18.9284 16.9712C19.4001 17.4373 18.933 18.4017 18.933 18.4017Z"
        stroke="black" stroke-width="2" stroke-linecap="round" stroke-linejoin="round" />
</svg>
    