<?xml version="1.0" encoding="UTF-8"?><svg id="Layer_1" xmlns="http://www.w3.org/2000/svg" viewBox="0 0 360 360"><defs><style>.cls-1{fill:#fff;}.cls-2{fill:#e41e2d;}.cls-3{fill:#231f20;}</style></defs><circle class="cls-1" cx="180.32" cy="180.31" r="137.79"/><path class="cls-3" d="M213.63,203.97c.88,2.41,1.7,4.6,2.72,7.13,.87,2.16,1.64,3.9,3.04,5.71,0,0,1.69-10.43,.47-13.76-.26,1.56-.6,2.31-2.43,2.62-2.12,.37-3.17-.62-3.81-1.7h.01Z"/><path class="cls-3" d="M204.67,209.73c.16-.5-1.12-.37-2.39-.97-1.38-.68-2.23-2.1-3.02-3.37-1.74,8.86,8.33,12.19,11.78,11.28,0,0-7.26-4.29-6.38-6.94h.01Z"/><path class="cls-3" d="M288.49,165.24c-3.67-26.28-16.72-50.29-36.78-67.62-19.87-17.17-45.21-26.62-71.33-26.62h0c-5.06,0-10.19,.35-15.22,1.06-59.69,8.32-101.49,63.64-93.17,123.34,3.67,26.28,16.73,50.31,36.79,67.62,19.87,17.17,45.21,26.61,71.34,26.61,5.06,0,10.17-.35,15.22-1.06,28.92-4.03,54.54-19.07,72.14-42.37s25.08-52.05,21.05-80.97h-.04Zm-48.71,33.87c-2.04-3.03-5.4-4.09-10.78-.97-.2-1.08-.23-5.11-1.3-5.69,10.21-3.56,12.08,6.67,12.08,6.67h0Zm-63.4-68.09c.04,.51,2.6,1.79,2.94,.74,.46-1.43,1.58-4.64,.69-4.96,3.71,1.35,2.14,3.8,3.41,4.46,1,.53,2.73-.54,4.34-1.31,2.41-1.15,3.31-2.15,4.95-3.92-.34,.81-.83,1.58-1.51,2.29-1.89,1.92-2.58,3.17-5,4.34-9.55,4.68-12.63-2.11-12.85-2.6h-.04c.68-1.33,1.51-3.41,.65-4.3,1.7,1.74,2.5,3.9,2.43,5.23v.03Zm-7.28-9.75c1.27,.26,2.98,.23,4.26-.26-1.41,2.12-2.02,4.57-2.11,5.8,0,0-3.52-4.14-4.29-7.09,.96-.07,1.08,1.33,2.12,1.54h.01Zm-2.42-1.5c-.87,1.2-.54,6.33-.61,6.09-1.6-1.42-2.53-4.6-2.99-7.39,.93,.78,2.54,1.41,3.58,1.3h.01Zm-2.23,16.11c.43,7.22-5.06,13.42-12.27,13.85s-13.42-5.06-13.85-12.27c-.43-7.21,5.06-13.41,12.27-13.85s13.42,5.06,13.85,12.27h0Zm-15.35-37.73c.87,6.41-6.2,10.46-5.33,16.85,.16,1.19,1.23,1.89,2.42,1.84,2.64-.12-1.97-12.12,10.01-15.58,0,0-7.37,13.65-1.54,19.26,2.03,2.61-13.68-4.83-17.77,11.04-.09,.37-2.58-7.79,.2-12.28,1.38-2.23-6.98-1.6-10.51-9.29-2.69-5.86,1.92-12.88,3.96-15.58-.35,1.87-.88,18.33,6.48,13.39,10.42-6.99,.88-7.44-1.34-13.32-1.85-4.94,1.73-8.77,6.98-12.07,0,0-4.4,6.25-2.03,9.1,2.99,3.61,7.79,1.8,8.44,6.6l.03,.04Zm66.73,181.52c-6.7,2.39-13.73,4.14-21.05,5.17-4.94,.69-9.85,1.03-14.69,1.03-51.81,0-96.99-38.17-104.35-90.94-7.14-51.24,23.82-99,71.26-114.68-22.35,9.94-40.45,36.1-35.51,62.82,5.65,30.58,35.01,50.9,65.7,46.23,21.71-3.3,57.43,3.06,66.97,43.49,7.53,31.98-27.45,46.55-28.33,46.91v-.03Zm38-88.37c-.62-.18-1.04-.07-1.65-.27-1.16-.39-1.74-.69-2.87-1.12-.58-.23-.99-.45-1.51-.81-1.07-.73-1.72-1.56-2.14-2.76,1.27,.73,3.29,.24,4.09-1.91,.45,1.65,1.22,2.54,2.37,3.9,1.08,1.26,2.94,3.07,2.88,3.1-.39,.14-.76,0-1.15-.12h-.01Zm9.23-15.85c-.58,2.72-1.14,4.52-3.22,6.33,.14-2.96,.42-5.8-1.26-8.08h0c2.2,.27,3.49-.99,3.67-2.19,.08,.12,.16,.26,.24,.38,.73,1.14,.85,2.2,.57,3.54h0Zm3.68-4.18c-.93-2.83-1.72-5.6-3.67-7.47,1.81-.03,2.46-3.11,2.11-4.73,.11,.08,.22,.16,.34,.26,1.27,.93,1.85,2.07,2.1,3.64,.5,3.23,.64,5.42-.88,8.31Zm3.9-13.53c-.54,1.29-.88,2.02-1.79,3.07-.32-2.19-.24-3.41-1.26-5.34-.39-.73-1.06-1.14-1.62-1.7,1.95-.61,2.96-2.29,2.94-3.64,.27,.2,.53,.41,.84,.72,.41,.42,.51,.76,.76,1.27,.54,1.14,.83,1.85,.8,3.11-.01,1-.28,1.57-.66,2.5h0Z"/><path class="cls-3" d="M165.83,109.73c-.35,.34-.81,1.69-.74,2.8,.01,.32,.09,.6,.2,.87,.61-.97,1-1.93,1.29-3.12-.14-.19-.49-.46-.73-.55h-.01Z"/><path class="cls-3" d="M165.37,109.38c-.19-.61-.55-1.37-1.18-1.16-.74,.23-.88,1-.97,1.77-.09,.74-.26,1.26-.03,1.99,.32,1.03,.87,1.51,1.66,2.26-.3-1.95,1.11-2.98,.53-4.84h-.01Z"/><path class="cls-3" d="M169.77,108.73c-1.47,.09-2.15,2.73-2.06,4.21,.09,1.51,.96,2.22,1.18,3.72,1.8-2.03,2.62-3.53,3.15-5.82,.18-1.01-1.46-2.16-2.26-2.11h-.01Z"/><path class="cls-3" d="M172.65,131.23v.04s.04-.08,.05-.12l-.05,.08Z"/><path class="cls-3" d="M172.7,131.15c.09-.16,.34-.55,.6-1.08-.24,.05-.45,.47-.6,1.08Z"/><path class="cls-3" d="M195.5,81.96c.27-.07,.55-.12,.84-.18"/><path class="cls-3" d="M166.68,119.74s.11,0,.16-.01c.05,0,.09,0,.14-.01-.01-.07-.04-.12-.05-.19-.09,.04-.18,.12-.24,.22h0Z"/><path class="cls-2" d="M278.09,81.91c-26.21-26.21-61.04-40.64-98.09-40.64s-71.89,14.43-98.09,40.64c-26.21,26.21-40.64,61.04-40.64,98.09s14.43,71.89,40.64,98.09c26.21,26.21,61.04,40.64,98.09,40.64s71.89-14.43,98.09-40.64c26.21-26.21,40.64-61.04,40.64-98.09s-14.43-71.89-40.64-98.09h0Zm18.38,28.3c.42,.82,.86,1.65,1.28,2.48,1.5,2.95,2.96,5.93,4.4,8.93,.4,.86,.79,1.72,1.18,2.58-1.19,.53-2.35,1.05-3.49,1.56-1.13,.5-2.23,1-3.32,1.48-1.07,.48-2.12,.95-3.16,1.41-1.02,.45-2.02,.9-3.01,1.34-1.18-2.63-2.4-5.23-3.65-7.8,1.08-.57,2.19-1.15,3.31-1.74,1.14-.6,2.31-1.21,3.5-1.84,.48,.97,.95,1.93,1.42,2.9-.74,.37-1.48,.73-2.21,1.1-.72,.36-1.43,.71-2.14,1.06,.36,.76,.72,1.53,1.08,2.3,1.15-.55,2.33-1.1,3.52-1.67,1.22-.58,2.46-1.17,3.73-1.77-1.24-2.61-2.52-5.2-3.81-7.77-1.03,.57-2.06,1.13-3.06,1.68-.99,.54-1.96,1.08-2.92,1.6-.95,.52-1.87,1.03-2.79,1.53-.9,.5-1.79,.98-2.66,1.46,.99,1.98,1.97,3.97,2.91,5.99s1.84,4.06,2.73,6.12c1.13-.48,2.29-.97,3.46-1.47,1.19-.51,2.42-1.03,3.66-1.56,1.27-.54,2.56-1.09,3.88-1.65,1.34-.57,2.72-1.16,4.13-1.75,.37,.87,.73,1.75,1.08,2.63,.99,2.51,1.95,5.03,2.84,7.56,.89,2.53,1.71,5.08,2.52,7.63,.28,.89,.55,1.79,.83,2.69-1.73,.45-3.43,.9-5.08,1.33-1.61,.42-3.19,.84-4.73,1.24-1.5,.39-2.98,.78-4.42,1.16-1.41,.37-2.79,.73-4.14,1.09-.73-2.15-1.44-4.29-2.18-6.44-.74-2.15-1.5-4.29-2.29-6.43,.94-.35,1.89-.71,2.86-1.08,.98-.37,1.98-.75,3-1.13,1.03-.39,2.08-.78,3.15-1.19,1.08-.41,2.19-.82,3.31-1.25,1.06,2.86,2.07,5.74,3.04,8.62-1.39,.42-2.76,.84-4.09,1.25-1.31,.4-2.6,.79-3.85,1.18-.32-.97-.65-1.93-.99-2.89,.8-.27,1.62-.54,2.44-.81,.83-.28,1.68-.56,2.53-.84-.28-.81-.57-1.62-.86-2.43-1.23,.43-2.43,.86-3.61,1.27-1.16,.41-2.3,.81-3.42,1.21,.88,2.48,1.72,4.97,2.56,7.46,.96-.28,1.94-.56,2.93-.84,1-.29,2.03-.58,3.07-.88,1.06-.3,2.13-.61,3.21-.92,1.11-.32,2.23-.64,3.38-.97-.75-2.32-1.51-4.63-2.32-6.94-.81-2.3-1.68-4.6-2.57-6.89-1.35,.54-2.68,1.07-3.98,1.59-1.27,.51-2.52,1.01-3.75,1.49-1.2,.48-2.38,.95-3.54,1.41-1.14,.45-2.26,.9-3.35,1.34-.61-1.47-1.22-2.94-1.85-4.4-.63-1.46-1.27-2.91-1.94-4.34-.67-1.44-1.36-2.86-2.06-4.27-.7-1.41-1.41-2.81-2.12-4.21,1.21-.7,2.44-1.41,3.7-2.14,1.29-.74,2.61-1.51,3.96-2.29,1.38-.8,2.79-1.61,4.23-2.45,1.48-.86,2.99-1.73,4.54-2.63h0Zm-3.63,69.8c0,30.13-11.74,58.47-33.05,79.78s-49.65,33.05-79.78,33.05-58.47-11.74-79.78-33.05-33.05-49.65-33.05-79.78,11.74-58.47,33.05-79.78c21.31-21.31,49.65-33.05,79.78-33.05s58.47,11.74,79.78,33.05c21.31,21.31,33.05,49.65,33.05,79.78Zm-38.03-101.02c.97-1.26,1.96-2.56,2.97-3.88,1.04-1.36,2.1-2.74,3.19-4.17,.71,.6,1.42,1.2,2.14,1.8,2.51,2.15,5,4.34,7.48,6.57,.7,.64,1.39,1.29,2.08,1.94-.89,.94-1.77,1.87-2.63,2.78-.85,.9-1.68,1.78-2.5,2.64-.8,.85-1.6,1.69-2.38,2.51-.77,.81-1.52,1.61-2.26,2.39-2.1-1.98-4.22-3.91-6.36-5.81,.78-.94,1.58-1.9,2.39-2.87,.82-.99,1.67-2,2.53-3.03,.81,.71,1.62,1.42,2.42,2.14-.54,.63-1.09,1.25-1.62,1.86s-1.05,1.21-1.57,1.8c.63,.57,1.25,1.13,1.88,1.71,.86-.95,1.73-1.91,2.62-2.89,.91-1,1.83-2.02,2.77-3.06-2.15-1.94-4.31-3.84-6.5-5.72-.74,.92-1.47,1.83-2.18,2.72-.71,.88-1.4,1.75-2.08,2.6-.67,.84-1.34,1.67-1.99,2.48-.64,.8-1.27,1.59-1.9,2.37,1.67,1.45,3.34,2.92,4.98,4.42,1.64,1.5,3.26,3.05,4.86,4.61,.86-.88,1.74-1.77,2.64-2.68,.91-.93,1.84-1.87,2.78-2.84,.97-.98,1.95-1.99,2.96-3.01,1.02-1.04,2.07-2.11,3.14-3.2,.67,.66,1.35,1.34,2.01,2.01,1.87,1.94,3.73,3.9,5.52,5.9,1.79,2,3.53,4.04,5.25,6.08,.6,.72,1.19,1.44,1.8,2.17-1.43,1.08-2.82,2.14-4.18,3.17-1.33,1.01-2.63,1.99-3.9,2.96-1.24,.94-2.45,1.86-3.64,2.76-1.16,.88-2.3,1.74-3.41,2.59-1.5-1.7-2.98-3.42-4.48-5.12-1.5-1.7-3.03-3.39-4.58-5.07,.73-.69,1.48-1.38,2.23-2.09,.77-.72,1.55-1.45,2.34-2.19,.8-.75,1.62-1.52,2.45-2.3,.84-.79,1.7-1.6,2.58-2.42,2.07,2.24,4.11,4.51,6.11,6.8-1.12,.92-2.23,1.83-3.3,2.72-1.06,.87-2.09,1.73-3.11,2.56-.67-.77-1.34-1.53-2.02-2.3,.64-.55,1.29-1.11,1.95-1.68s1.34-1.15,2.02-1.75c-.57-.64-1.15-1.28-1.72-1.92-.97,.87-1.92,1.72-2.85,2.56-.92,.82-1.82,1.63-2.7,2.42,1.76,1.96,3.49,3.93,5.21,5.91,.78-.62,1.58-1.26,2.39-1.9,.82-.65,1.65-1.31,2.5-1.99,.86-.68,1.73-1.38,2.62-2.08,.9-.72,1.82-1.45,2.75-2.19-1.58-1.86-3.16-3.7-4.8-5.52-1.63-1.82-3.32-3.61-5.01-5.38-1.04,1.02-2.07,2.01-3.07,2.99-.98,.96-1.95,1.89-2.89,2.82-.93,.9-1.84,1.79-2.73,2.66-.88,.85-1.74,1.69-2.59,2.52-1.12-1.13-2.26-2.25-3.39-3.36-1.14-1.11-2.29-2.2-3.46-3.27-1.17-1.07-2.35-2.12-3.54-3.16-1.18-1.04-2.38-2.06-3.57-3.08,.85-1.11,1.72-2.24,2.6-3.4,.91-1.18,1.83-2.39,2.78-3.63l-.03,.02Zm-45.46-16.54c.39-1.44,.78-2.91,1.18-4.41,.41-1.54,.83-3.11,1.26-4.72,.44-1.65,.89-3.34,1.35-5.07,.88,.28,1.77,.56,2.66,.85,3.14,1.03,6.28,2.1,9.43,3.21,.89,.32,1.78,.66,2.66,.99-.47,1.21-.92,2.4-1.37,3.57-.44,1.15-.87,2.28-1.3,3.39-.42,1.09-.83,2.17-1.23,3.23-.4,1.04-.79,2.07-1.17,3.07-2.69-1.02-5.4-2-8.1-2.93,.36-1.17,.73-2.36,1.11-3.57,.38-1.23,.77-2.49,1.17-3.77l3.06,1.05c-.26,.79-.53,1.57-.79,2.34-.26,.76-.51,1.52-.76,2.26,.79,.28,1.59,.57,2.39,.86,.43-1.2,.86-2.43,1.31-3.67,.45-1.27,.91-2.57,1.39-3.89-2.73-.97-5.46-1.9-8.19-2.8-.33,1.13-.66,2.25-.98,3.35-.32,1.08-.63,2.15-.93,3.2-.3,1.04-.6,2.05-.89,3.06-.29,.99-.57,1.96-.85,2.92,2.1,.7,4.2,1.42,6.29,2.18s4.18,1.57,6.25,2.4c.46-1.14,.93-2.3,1.41-3.49,.48-1.21,.98-2.44,1.49-3.69,.52-1.28,1.04-2.58,1.58-3.91,.55-1.35,1.11-2.74,1.68-4.16,.88,.36,1.76,.72,2.63,1.09,2.47,1.07,4.93,2.18,7.35,3.34,2.42,1.16,4.8,2.38,7.17,3.61,.83,.44,1.65,.88,2.49,1.32-.91,1.55-1.79,3.06-2.65,4.53-.84,1.44-1.66,2.85-2.47,4.22-.78,1.34-1.55,2.66-2.3,3.94-.73,1.26-1.46,2.49-2.16,3.7-2.03-1-4.06-2.02-6.1-3.02-2.04-1-4.1-1.97-6.17-2.93,.41-.91,.83-1.84,1.26-2.79,.43-.96,.87-1.93,1.32-2.92,.45-1,.92-2.03,1.39-3.06,.48-1.06,.96-2.13,1.46-3.22,2.77,1.28,5.52,2.6,8.25,3.94-.68,1.28-1.35,2.55-2.01,3.78-.64,1.21-1.27,2.4-1.89,3.56-.91-.45-1.83-.9-2.74-1.35l1.15-2.3c.39-.78,.79-1.58,1.2-2.39-.77-.38-1.55-.75-2.33-1.12-.56,1.17-1.12,2.33-1.66,3.45-.53,1.11-1.06,2.2-1.57,3.27,2.37,1.14,4.73,2.29,7.08,3.47,.49-.88,.98-1.76,1.48-2.67,.51-.91,1.02-1.85,1.55-2.79,.53-.96,1.07-1.93,1.62-2.92,.56-1.01,1.13-2.03,1.7-3.07-2.17-1.11-4.34-2.21-6.54-3.27s-4.45-2.06-6.69-3.05c-.58,1.34-1.14,2.65-1.69,3.94-.54,1.26-1.07,2.5-1.6,3.71-.51,1.19-1.01,2.36-1.51,3.5-.49,1.13-.96,2.23-1.43,3.32-1.47-.61-2.95-1.21-4.42-1.8-1.47-.59-2.96-1.16-4.45-1.7-1.49-.54-2.98-1.06-4.48-1.56-1.49-.5-2.98-.99-4.47-1.48,.36-1.35,.73-2.73,1.11-4.13h0Zm-46.29-17.11c3.3-.25,6.61-.47,9.93-.64,.95-.04,1.89-.07,2.84-.1,.03,1.3,.07,2.57,.1,3.82,.03,1.23,.07,2.44,.1,3.63,.03,1.17,.06,2.32,.09,3.46,.03,1.12,.06,2.21,.09,3.29-2.88,.09-5.75,.22-8.61,.39-.11-1.22-.22-2.46-.34-3.72-.12-1.28-.24-2.59-.36-3.93,1.07-.07,2.15-.14,3.23-.2,.06,.83,.11,1.65,.17,2.46,.06,.8,.11,1.6,.16,2.38,.84-.04,1.69-.08,2.53-.12-.07-1.28-.13-2.57-.2-3.9-.07-1.35-.14-2.72-.21-4.13-2.89,.15-5.77,.33-8.64,.55,.13,1.17,.26,2.33,.38,3.47,.12,1.12,.24,2.23,.36,3.31,.12,1.07,.23,2.13,.35,3.16,.11,1.02,.22,2.03,.33,3.02,2.21-.15,4.43-.3,6.65-.4,2.23-.1,4.46-.15,6.7-.18,0-1.23-.02-2.48-.03-3.76,0-1.3-.03-2.63-.04-3.98,0-1.38-.02-2.78-.04-4.22,0-1.46-.03-2.96-.04-4.48h2.84c2.69,.05,5.39,.12,8.07,.27s5.35,.36,8.01,.59c.93,.09,1.86,.18,2.81,.27-.25,1.78-.48,3.51-.71,5.2-.23,1.65-.45,3.27-.66,4.85-.21,1.54-.42,3.05-.62,4.52-.2,1.44-.39,2.86-.58,4.24-2.26-.15-4.52-.31-6.79-.45-2.26-.14-4.54-.26-6.82-.34,.03-1,.07-2.02,.1-3.06,.03-1.05,.07-2.12,.1-3.21,.03-1.1,.07-2.22,.11-3.36,.04-1.16,.08-2.34,.11-3.53,3.05,.12,6.09,.29,9.13,.49-.14,1.45-.28,2.87-.41,4.26-.13,1.37-.26,2.7-.39,4.01-1.02-.07-2.03-.13-3.05-.2,.06-.84,.12-1.7,.19-2.56,.06-.88,.13-1.76,.19-2.66-.86-.05-1.72-.1-2.58-.14-.07,1.3-.14,2.58-.21,3.83-.07,1.23-.13,2.44-.2,3.62,2.63,.14,5.25,.31,7.87,.49,.11-1,.23-2,.35-3.03,.12-1.04,.24-2.1,.36-3.17,.12-1.09,.25-2.2,.38-3.32,.13-1.15,.26-2.31,.4-3.49-2.43-.2-4.85-.38-7.3-.51-2.44-.13-4.9-.21-7.35-.26-.02,1.46-.04,2.89-.06,4.29-.02,1.37-.04,2.72-.05,4.04-.02,1.29-.03,2.57-.05,3.81-.02,1.23-.03,2.43-.05,3.61-1.59,0-3.19,0-4.77,.03-1.59,.02-3.18,.06-4.76,.13s-3.16,.16-4.73,.27c-1.57,.11-3.14,.22-4.7,.34-.18-1.38-.37-2.8-.56-4.24-.19-1.48-.39-2.99-.6-4.53-.21-1.58-.42-3.2-.64-4.85-.22-1.69-.45-3.43-.69-5.2,.92-.08,1.85-.16,2.79-.24h.02Zm-50.17,16.73c2.95-1.5,5.93-2.96,8.93-4.4,.86-.4,1.72-.79,2.58-1.18,.53,1.19,1.05,2.35,1.56,3.49,.5,1.13,1,2.23,1.48,3.32,.48,1.07,.95,2.12,1.41,3.16,.45,1.02,.9,2.02,1.34,3-2.63,1.18-5.23,2.4-7.8,3.65-.57-1.08-1.15-2.19-1.74-3.31-.6-1.14-1.21-2.31-1.84-3.5,.97-.48,1.93-.95,2.9-1.42,.37,.74,.74,1.48,1.1,2.21,.36,.72,.71,1.43,1.06,2.14,.76-.36,1.53-.72,2.3-1.08-.55-1.15-1.1-2.33-1.67-3.52-.58-1.22-1.17-2.46-1.77-3.73-2.61,1.24-5.2,2.52-7.77,3.81,.57,1.03,1.13,2.06,1.68,3.06,.54,.99,1.08,1.96,1.6,2.92,.52,.95,1.03,1.87,1.53,2.79,.5,.9,.98,1.79,1.46,2.66,1.98-.99,3.97-1.97,5.99-2.91s4.06-1.84,6.12-2.73c-.48-1.13-.97-2.29-1.47-3.46-.51-1.19-1.03-2.42-1.56-3.66-.54-1.27-1.09-2.56-1.65-3.88-.57-1.34-1.16-2.72-1.75-4.13,.87-.37,1.75-.73,2.63-1.08,2.51-.99,5.03-1.95,7.56-2.84s5.08-1.71,7.62-2.52c.89-.28,1.79-.55,2.69-.83,.45,1.73,.9,3.43,1.33,5.08,.42,1.61,.84,3.19,1.24,4.73,.39,1.5,.78,2.98,1.16,4.42,.37,1.41,.73,2.79,1.09,4.14-2.15,.73-4.29,1.44-6.44,2.18-2.15,.74-4.29,1.5-6.43,2.29-.35-.94-.71-1.89-1.08-2.86-.37-.98-.75-1.98-1.13-3-.39-1.03-.78-2.08-1.19-3.15-.41-1.08-.82-2.19-1.25-3.31,2.86-1.06,5.74-2.07,8.62-3.04,.42,1.39,.84,2.76,1.25,4.09,.4,1.31,.79,2.6,1.18,3.85-.96,.32-1.93,.65-2.89,.99-.27-.8-.54-1.62-.81-2.44-.28-.83-.56-1.68-.84-2.53-.81,.28-1.62,.57-2.43,.86,.43,1.23,.86,2.43,1.27,3.61,.41,1.16,.81,2.3,1.21,3.42,2.48-.88,4.97-1.72,7.46-2.56-.28-.96-.56-1.94-.84-2.93-.29-1-.58-2.03-.88-3.07-.3-1.06-.61-2.13-.92-3.21-.32-1.11-.64-2.23-.97-3.38-2.32,.75-4.63,1.5-6.94,2.32-2.3,.81-4.6,1.68-6.89,2.57,.54,1.35,1.07,2.68,1.59,3.98,.51,1.27,1.01,2.52,1.49,3.75,.48,1.2,.95,2.38,1.41,3.54,.45,1.14,.9,2.26,1.34,3.35-1.47,.61-2.94,1.22-4.4,1.85-1.46,.63-2.91,1.27-4.34,1.94-1.44,.67-2.86,1.36-4.27,2.06-1.41,.7-2.81,1.41-4.21,2.12-.7-1.21-1.41-2.44-2.14-3.7-.74-1.29-1.51-2.61-2.29-3.95-.8-1.38-1.61-2.79-2.45-4.23-.86-1.48-1.73-2.99-2.63-4.54,.82-.42,1.65-.85,2.48-1.28h.02Zm-39.95,34.66c2.15-2.51,4.34-5,6.57-7.48,.64-.7,1.29-1.39,1.94-2.08,.94,.9,1.87,1.77,2.78,2.63,.9,.85,1.78,1.68,2.64,2.5,.85,.8,1.69,1.6,2.51,2.38,.81,.77,1.61,1.52,2.39,2.26-1.98,2.1-3.91,4.22-5.81,6.36-.94-.78-1.9-1.58-2.87-2.39-.99-.82-2-1.67-3.03-2.53,.71-.81,1.42-1.62,2.14-2.42,.63,.54,1.25,1.09,1.86,1.62,.61,.53,1.21,1.05,1.8,1.57,.57-.63,1.13-1.25,1.71-1.88-.95-.86-1.91-1.73-2.89-2.62-1-.91-2.02-1.83-3.06-2.77-1.94,2.15-3.84,4.31-5.72,6.5,.92,.74,1.83,1.47,2.72,2.18,.88,.71,1.75,1.4,2.6,2.08,.84,.67,1.67,1.34,2.48,1.99,.8,.64,1.59,1.28,2.37,1.9,1.45-1.67,2.92-3.34,4.42-4.98,1.5-1.64,3.05-3.26,4.61-4.86-.88-.86-1.77-1.74-2.68-2.64-.93-.91-1.87-1.84-2.84-2.78-.98-.97-1.99-1.95-3.01-2.96-1.04-1.02-2.11-2.07-3.2-3.14,.66-.67,1.34-1.35,2.01-2.01,1.94-1.87,3.9-3.73,5.9-5.52,2-1.79,4.04-3.53,6.08-5.25,.72-.6,1.44-1.19,2.17-1.8,1.08,1.43,2.14,2.82,3.17,4.18,1.01,1.33,1.99,2.63,2.96,3.9,.94,1.24,1.86,2.45,2.76,3.64,.88,1.16,1.74,2.3,2.59,3.41-1.7,1.5-3.42,2.98-5.12,4.48-1.7,1.5-3.39,3.03-5.07,4.58-.69-.73-1.38-1.48-2.09-2.23-.72-.77-1.45-1.55-2.19-2.34-.75-.8-1.52-1.62-2.3-2.45-.79-.84-1.6-1.7-2.42-2.58,2.24-2.07,4.51-4.11,6.8-6.11,.92,1.12,1.83,2.22,2.72,3.3,.87,1.06,1.73,2.09,2.56,3.11-.77,.67-1.53,1.34-2.3,2.02-.55-.64-1.11-1.29-1.68-1.95-.57-.67-1.15-1.34-1.75-2.02-.64,.57-1.28,1.15-1.92,1.72,.87,.97,1.72,1.92,2.56,2.85,.82,.92,1.63,1.82,2.42,2.7,1.96-1.76,3.93-3.49,5.91-5.21-.62-.78-1.26-1.58-1.9-2.39-.65-.82-1.31-1.65-1.99-2.5-.68-.86-1.38-1.73-2.08-2.62-.72-.9-1.45-1.82-2.18-2.75-1.86,1.58-3.7,3.16-5.52,4.8-1.82,1.63-3.61,3.32-5.38,5.01,1.02,1.04,2.01,2.07,2.99,3.07,.96,.98,1.89,1.95,2.82,2.89,.9,.93,1.79,1.84,2.66,2.73,.85,.88,1.69,1.74,2.52,2.59-1.13,1.12-2.25,2.26-3.36,3.39-1.11,1.14-2.2,2.29-3.27,3.46s-2.12,2.35-3.16,3.54c-1.04,1.18-2.06,2.38-3.08,3.57-1.11-.85-2.24-1.72-3.4-2.6-1.18-.91-2.39-1.83-3.63-2.78-1.26-.97-2.56-1.96-3.88-2.97-1.36-1.04-2.74-2.1-4.17-3.19,.6-.71,1.2-1.42,1.8-2.14v.03Zm-23.64,47.3c1.03-3.14,2.1-6.29,3.21-9.43,.32-.89,.66-1.78,.99-2.66,1.21,.47,2.4,.92,3.57,1.37,1.15,.44,2.28,.87,3.39,1.3,1.09,.42,2.17,.83,3.23,1.23,1.04,.4,2.07,.79,3.07,1.17-1.02,2.69-2,5.4-2.93,8.1-1.17-.36-2.36-.73-3.57-1.11-1.23-.38-2.49-.77-3.77-1.17l1.05-3.06c.79,.26,1.57,.53,2.34,.79,.76,.26,1.52,.51,2.26,.76,.28-.79,.57-1.59,.86-2.39-1.2-.43-2.43-.86-3.67-1.31-1.27-.45-2.57-.91-3.89-1.39-.97,2.73-1.9,5.46-2.8,8.19,1.13,.33,2.25,.66,3.35,.98,1.08,.32,2.15,.63,3.2,.93,1.04,.3,2.05,.6,3.06,.89,.99,.29,1.96,.57,2.92,.85,.7-2.1,1.42-4.2,2.18-6.29s1.57-4.18,2.4-6.25c-1.14-.46-2.3-.93-3.49-1.41-1.21-.48-2.44-.98-3.69-1.49-1.28-.52-2.58-1.04-3.91-1.58-1.35-.55-2.74-1.11-4.16-1.68,.36-.88,.72-1.76,1.09-2.63,1.07-2.47,2.18-4.93,3.34-7.35s2.38-4.8,3.61-7.17c.44-.83,.88-1.65,1.32-2.49,1.55,.91,3.06,1.79,4.53,2.65,1.44,.84,2.85,1.66,4.22,2.47,1.34,.78,2.66,1.55,3.94,2.3,1.26,.74,2.49,1.46,3.7,2.16-1,2.03-2.02,4.06-3.02,6.1s-1.97,4.1-2.93,6.17c-.92-.41-1.84-.83-2.79-1.26-.96-.43-1.93-.87-2.92-1.32-1-.45-2.03-.92-3.06-1.39-1.06-.48-2.13-.96-3.22-1.46,1.28-2.77,2.6-5.52,3.94-8.25,1.28,.68,2.55,1.35,3.78,2.01,1.21,.64,2.4,1.27,3.56,1.89-.45,.91-.9,1.83-1.35,2.74l-2.3-1.15c-.78-.4-1.58-.79-2.39-1.2-.38,.77-.75,1.55-1.12,2.33,1.17,.56,2.33,1.12,3.45,1.66,1.11,.53,2.2,1.06,3.27,1.57,1.14-2.37,2.29-4.73,3.47-7.08-.88-.49-1.76-.98-2.67-1.48-.91-.51-1.85-1.02-2.79-1.55-.96-.53-1.93-1.07-2.92-1.62-1.01-.56-2.03-1.13-3.07-1.7-1.11,2.17-2.21,4.34-3.27,6.54-1.05,2.2-2.06,4.45-3.05,6.69,1.34,.58,2.65,1.14,3.94,1.69,1.26,.54,2.5,1.07,3.71,1.6,1.19,.51,2.36,1.01,3.5,1.51,1.13,.49,2.23,.96,3.32,1.43-.61,1.47-1.21,2.94-1.8,4.42-.59,1.47-1.16,2.96-1.7,4.45-.54,1.49-1.06,2.98-1.56,4.48-.5,1.49-.99,2.98-1.48,4.47-1.35-.36-2.73-.73-4.13-1.11-1.44-.39-2.91-.78-4.41-1.18-1.54-.41-3.11-.83-4.72-1.26-1.65-.44-3.34-.89-5.07-1.35,.28-.88,.56-1.77,.85-2.66h0Zm-3.75,52.74c-.25-3.3-.47-6.61-.64-9.93-.04-.95-.07-1.89-.1-2.84,1.3-.03,2.57-.07,3.82-.1,1.23-.03,2.44-.07,3.63-.1,1.17-.03,2.32-.06,3.46-.09,1.12-.03,2.21-.06,3.29-.09,.09,2.88,.22,5.75,.39,8.61-1.22,.11-2.46,.22-3.72,.34-1.28,.12-2.59,.24-3.93,.36-.07-1.07-.14-2.15-.2-3.23,.83-.06,1.65-.11,2.46-.17,.8-.06,1.6-.11,2.38-.16-.04-.84-.08-1.69-.12-2.53-1.28,.07-2.57,.13-3.9,.2-1.35,.07-2.72,.14-4.13,.21,.15,2.89,.33,5.77,.55,8.64,1.17-.13,2.33-.26,3.47-.38,1.12-.12,2.23-.24,3.31-.36,1.07-.12,2.13-.23,3.16-.35,1.02-.11,2.03-.22,3.02-.33-.15-2.21-.3-4.43-.4-6.65-.1-2.23-.15-4.46-.18-6.7-1.23,0-2.48,.02-3.76,.03-1.3,0-2.63,.03-3.98,.04-1.38,0-2.78,.02-4.22,.04-1.46,0-2.96,.03-4.48,.04v-2.84c.05-2.69,.12-5.39,.27-8.07s.36-5.35,.59-8.01c.09-.93,.18-1.86,.27-2.81,1.78,.24,3.51,.48,5.2,.71,1.65,.23,3.27,.45,4.85,.66,1.54,.21,3.05,.42,4.52,.62,1.44,.2,2.86,.39,4.24,.58-.15,2.26-.31,4.52-.45,6.79-.14,2.26-.25,4.54-.34,6.82-1-.03-2.02-.07-3.06-.1-1.05-.03-2.12-.07-3.21-.1-1.1-.03-2.22-.07-3.36-.11-1.16-.04-2.34-.08-3.53-.11,.12-3.05,.29-6.09,.49-9.13,1.45,.14,2.87,.28,4.26,.41,1.37,.13,2.7,.26,4.01,.39-.07,1.02-.13,2.03-.2,3.05-.84-.06-1.7-.12-2.56-.19-.88-.07-1.76-.13-2.66-.19-.05,.86-.1,1.72-.14,2.58,1.3,.07,2.58,.14,3.83,.21,1.23,.07,2.44,.13,3.62,.2,.14-2.63,.31-5.25,.49-7.87-1-.11-2-.23-3.03-.35-1.04-.12-2.1-.24-3.17-.36-1.09-.12-2.2-.25-3.32-.38-1.14-.13-2.31-.26-3.49-.4-.2,2.43-.38,4.85-.51,7.3-.13,2.44-.21,4.9-.26,7.35,1.46,.02,2.89,.04,4.29,.06,1.37,.02,2.72,.04,4.04,.05,1.29,.02,2.57,.03,3.81,.05,1.23,.02,2.43,.03,3.61,.05,0,1.59,0,3.19,.03,4.77,.02,1.59,.06,3.18,.13,4.76,.07,1.58,.16,3.16,.27,4.73,.11,1.57,.22,3.14,.34,4.7-1.38,.18-2.8,.37-4.24,.56-1.48,.19-2.99,.4-4.53,.6-1.58,.21-3.2,.42-4.85,.64-1.69,.22-3.43,.45-5.2,.69-.08-.92-.16-1.85-.24-2.79v-.02Zm18.01,52.66c-.42-.82-.85-1.65-1.28-2.48-1.5-2.95-2.96-5.93-4.4-8.93-.4-.86-.79-1.72-1.18-2.58,1.19-.53,2.35-1.05,3.49-1.56,1.13-.5,2.23-1,3.32-1.48,1.07-.48,2.12-.95,3.16-1.41,1.02-.45,2.02-.9,3.01-1.34,1.18,2.63,2.4,5.23,3.65,7.8-1.08,.57-2.19,1.15-3.31,1.74-1.14,.6-2.31,1.21-3.5,1.84-.48-.97-.95-1.93-1.42-2.9,.74-.37,1.48-.73,2.21-1.1,.72-.36,1.43-.71,2.14-1.06-.36-.76-.72-1.53-1.08-2.3-1.15,.55-2.33,1.1-3.52,1.67-1.22,.58-2.46,1.17-3.73,1.77,1.24,2.61,2.52,5.2,3.81,7.77,1.03-.57,2.06-1.13,3.06-1.68,.99-.54,1.96-1.08,2.92-1.6,.95-.52,1.87-1.03,2.79-1.53,.9-.5,1.79-.98,2.66-1.46-.99-1.98-1.97-3.97-2.91-5.99s-1.84-4.06-2.73-6.12c-1.13,.48-2.29,.97-3.46,1.47-1.19,.51-2.42,1.03-3.66,1.56-1.27,.54-2.56,1.09-3.88,1.65-1.34,.57-2.72,1.16-4.13,1.75-.37-.87-.73-1.75-1.08-2.63-.99-2.51-1.95-5.03-2.84-7.56s-1.71-5.08-2.52-7.63c-.28-.89-.55-1.79-.83-2.69,1.73-.45,3.43-.9,5.08-1.33,1.61-.42,3.19-.84,4.73-1.24,1.5-.39,2.98-.78,4.42-1.16,1.41-.37,2.79-.73,4.14-1.09,.73,2.15,1.44,4.29,2.18,6.44,.74,2.15,1.5,4.29,2.29,6.43-.94,.35-1.89,.71-2.86,1.08-.98,.37-1.98,.75-3,1.13-1.03,.39-2.08,.78-3.15,1.19-1.08,.41-2.19,.82-3.31,1.25-1.06-2.86-2.07-5.74-3.04-8.62,1.39-.42,2.76-.84,4.09-1.25,1.31-.4,2.6-.79,3.85-1.18,.32,.97,.65,1.93,.99,2.89-.8,.27-1.62,.54-2.44,.81-.83,.27-1.68,.55-2.53,.84,.28,.81,.57,1.62,.86,2.43,1.23-.43,2.43-.86,3.61-1.27,1.16-.41,2.3-.81,3.42-1.2-.88-2.48-1.72-4.97-2.56-7.46-.96,.28-1.94,.56-2.93,.84-1,.29-2.03,.58-3.07,.88-1.06,.3-2.13,.61-3.21,.92-1.11,.32-2.23,.64-3.38,.97,.75,2.32,1.51,4.63,2.32,6.94,.81,2.3,1.68,4.6,2.57,6.89,1.35-.54,2.68-1.07,3.98-1.59,1.27-.51,2.52-1.01,3.75-1.49,1.2-.48,2.38-.95,3.54-1.41,1.14-.45,2.26-.9,3.35-1.34,.61,1.47,1.22,2.94,1.85,4.4,.63,1.46,1.27,2.91,1.94,4.34,.67,1.44,1.36,2.86,2.06,4.27s1.41,2.81,2.12,4.21c-1.21,.7-2.44,1.41-3.7,2.14-1.29,.74-2.61,1.51-3.96,2.29-1.38,.8-2.79,1.61-4.23,2.45-1.48,.86-2.99,1.73-4.54,2.63v-.02Zm41.68,31.23c-.97,1.26-1.96,2.56-2.97,3.88-1.04,1.36-2.1,2.74-3.19,4.17-.71-.6-1.42-1.2-2.14-1.8-2.51-2.15-5-4.34-7.48-6.57-.7-.64-1.39-1.29-2.08-1.94,.89-.94,1.77-1.87,2.63-2.78,.85-.9,1.68-1.78,2.5-2.64,.81-.85,1.6-1.69,2.38-2.51,.77-.81,1.52-1.61,2.26-2.39,2.1,1.98,4.22,3.91,6.36,5.81-.78,.94-1.58,1.9-2.39,2.87-.82,.99-1.67,2-2.53,3.03-.81-.71-1.62-1.42-2.42-2.14,.54-.63,1.09-1.25,1.62-1.86,.53-.61,1.05-1.21,1.57-1.8-.63-.57-1.25-1.13-1.88-1.71-.86,.95-1.73,1.91-2.62,2.89-.91,1-1.83,2.02-2.77,3.06,2.15,1.94,4.31,3.84,6.5,5.72,.74-.92,1.47-1.83,2.18-2.72,.71-.88,1.4-1.75,2.08-2.6,.67-.84,1.34-1.67,1.99-2.48,.64-.8,1.28-1.59,1.9-2.37-1.67-1.45-3.34-2.92-4.98-4.42-1.64-1.5-3.26-3.05-4.86-4.61-.86,.88-1.74,1.77-2.64,2.68-.91,.93-1.84,1.87-2.78,2.84-.97,.98-1.95,1.99-2.96,3.01-1.02,1.04-2.07,2.11-3.14,3.2-.67-.66-1.35-1.34-2.01-2.01-1.87-1.94-3.73-3.9-5.52-5.9-1.79-2-3.53-4.04-5.25-6.08-.6-.72-1.19-1.44-1.8-2.17,1.43-1.08,2.82-2.14,4.18-3.17,1.33-1.01,2.63-1.99,3.9-2.96,1.24-.94,2.45-1.86,3.64-2.76,1.16-.88,2.3-1.74,3.41-2.59,1.49,1.7,2.98,3.42,4.48,5.12s3.03,3.39,4.58,5.07c-.73,.69-1.48,1.38-2.23,2.09-.77,.72-1.55,1.45-2.34,2.19-.8,.75-1.62,1.52-2.45,2.3-.84,.79-1.7,1.6-2.58,2.42-2.07-2.24-4.11-4.51-6.11-6.8,1.12-.92,2.23-1.83,3.3-2.72,1.06-.87,2.09-1.73,3.11-2.56,.67,.77,1.34,1.53,2.02,2.3-.64,.55-1.29,1.11-1.95,1.68-.66,.57-1.34,1.15-2.02,1.75,.57,.64,1.15,1.28,1.72,1.92,.97-.87,1.92-1.72,2.85-2.56,.92-.82,1.82-1.63,2.7-2.42-1.76-1.96-3.49-3.93-5.21-5.91-.78,.62-1.58,1.26-2.39,1.9-.82,.65-1.65,1.31-2.5,1.99-.86,.68-1.73,1.38-2.62,2.08-.9,.72-1.82,1.45-2.75,2.18,1.58,1.86,3.16,3.7,4.8,5.52,1.63,1.82,3.32,3.61,5.01,5.38,1.04-1.02,2.07-2.01,3.07-2.99,.98-.96,1.95-1.89,2.89-2.82,.93-.9,1.84-1.79,2.73-2.66,.88-.85,1.74-1.69,2.59-2.52,1.12,1.13,2.26,2.25,3.39,3.36,1.14,1.11,2.29,2.2,3.46,3.27,1.17,1.07,2.35,2.12,3.54,3.16,1.18,1.04,2.38,2.06,3.57,3.08-.85,1.11-1.72,2.24-2.6,3.4-.91,1.18-1.83,2.39-2.78,3.63h.03Zm45.46,16.53c-.39,1.44-.78,2.91-1.18,4.41-.41,1.54-.83,3.11-1.26,4.72-.44,1.65-.89,3.34-1.35,5.07-.88-.28-1.77-.56-2.66-.85-3.14-1.03-6.29-2.1-9.43-3.21-.89-.32-1.78-.66-2.66-.99,.47-1.21,.92-2.4,1.37-3.57,.44-1.15,.87-2.28,1.3-3.39,.42-1.09,.83-2.17,1.23-3.23,.4-1.04,.79-2.07,1.17-3.08,2.69,1.02,5.4,2,8.1,2.93-.36,1.17-.73,2.36-1.11,3.57-.38,1.23-.77,2.49-1.17,3.77-1.02-.35-2.04-.7-3.06-1.05,.26-.79,.53-1.57,.79-2.34,.26-.76,.51-1.52,.76-2.26-.79-.28-1.59-.57-2.39-.86-.43,1.2-.86,2.43-1.31,3.67-.45,1.27-.92,2.57-1.39,3.89,2.73,.97,5.46,1.9,8.19,2.8,.33-1.13,.66-2.25,.98-3.35,.32-1.08,.63-2.15,.93-3.2,.3-1.04,.6-2.05,.89-3.06,.29-.99,.57-1.96,.85-2.92-2.1-.7-4.2-1.42-6.29-2.18-2.09-.76-4.18-1.57-6.25-2.4-.46,1.14-.93,2.3-1.41,3.49-.48,1.21-.98,2.44-1.49,3.69-.52,1.28-1.04,2.58-1.58,3.91-.55,1.35-1.11,2.74-1.68,4.16-.88-.36-1.76-.72-2.63-1.09-2.47-1.07-4.93-2.18-7.35-3.34s-4.8-2.38-7.17-3.61c-.83-.44-1.65-.88-2.49-1.32,.91-1.55,1.79-3.06,2.65-4.53,.84-1.44,1.66-2.85,2.47-4.22,.78-1.34,1.55-2.66,2.3-3.94,.74-1.26,1.46-2.49,2.16-3.7,2.03,1,4.06,2.02,6.1,3.02s4.1,1.97,6.17,2.93c-.41,.92-.83,1.84-1.26,2.79-.43,.96-.87,1.93-1.32,2.92-.45,1-.92,2.03-1.39,3.06-.48,1.06-.96,2.13-1.46,3.22-2.77-1.28-5.52-2.6-8.25-3.94,.68-1.28,1.35-2.55,2.01-3.78,.64-1.21,1.27-2.4,1.89-3.56,.91,.45,1.83,.9,2.74,1.35-.38,.76-.76,1.52-1.15,2.3-.4,.78-.79,1.58-1.2,2.39,.77,.38,1.55,.75,2.33,1.12,.56-1.17,1.12-2.33,1.66-3.45,.53-1.11,1.06-2.2,1.57-3.27-2.37-1.14-4.73-2.29-7.08-3.46-.49,.88-.98,1.76-1.48,2.67-.51,.91-1.02,1.85-1.55,2.79-.53,.96-1.07,1.93-1.62,2.92-.56,1.01-1.13,2.03-1.7,3.07,2.17,1.11,4.34,2.21,6.54,3.27,2.2,1.05,4.45,2.06,6.69,3.05,.58-1.34,1.14-2.65,1.69-3.94,.54-1.26,1.07-2.5,1.6-3.71,.51-1.19,1.01-2.36,1.51-3.5,.49-1.13,.96-2.23,1.43-3.32,1.47,.61,2.94,1.21,4.42,1.8,1.47,.59,2.96,1.16,4.45,1.7,1.49,.54,2.98,1.06,4.48,1.56,1.49,.5,2.98,.99,4.47,1.48-.36,1.35-.73,2.73-1.11,4.13h-.01Zm46.29,17.11c-3.3,.25-6.61,.47-9.93,.64-.95,.04-1.89,.07-2.84,.1-.03-1.3-.07-2.57-.1-3.82-.03-1.23-.07-2.44-.1-3.63-.03-1.17-.06-2.32-.09-3.46-.03-1.12-.06-2.21-.09-3.29,2.88-.09,5.75-.22,8.61-.39,.11,1.22,.22,2.46,.34,3.72,.12,1.28,.24,2.59,.36,3.93-1.07,.07-2.15,.14-3.23,.2-.06-.83-.11-1.65-.17-2.46-.06-.8-.11-1.6-.16-2.38-.84,.04-1.69,.08-2.53,.12,.07,1.28,.13,2.57,.2,3.9,.07,1.35,.14,2.72,.21,4.13,2.89-.15,5.77-.33,8.64-.55-.13-1.17-.26-2.33-.38-3.47-.12-1.12-.24-2.23-.36-3.31-.12-1.07-.23-2.13-.35-3.16-.11-1.02-.22-2.03-.33-3.02-2.21,.15-4.43,.3-6.65,.4-2.23,.1-4.46,.15-6.7,.18,0,1.23,.02,2.49,.03,3.76,0,1.3,.03,2.63,.04,3.98,0,1.38,.02,2.78,.04,4.22,0,1.46,.03,2.96,.04,4.48h-2.84c-2.69-.05-5.39-.12-8.07-.27s-5.35-.36-8.01-.59c-.93-.09-1.86-.18-2.81-.27,.24-1.78,.48-3.51,.71-5.2,.23-1.65,.45-3.27,.66-4.85,.21-1.54,.42-3.05,.62-4.52,.2-1.44,.39-2.86,.58-4.24,2.26,.15,4.52,.31,6.79,.45,2.26,.14,4.54,.25,6.82,.34-.03,1-.07,2.02-.1,3.06-.03,1.05-.07,2.12-.1,3.21-.03,1.1-.07,2.22-.11,3.36-.04,1.16-.08,2.34-.11,3.53-3.05-.12-6.09-.29-9.13-.49,.14-1.45,.28-2.87,.41-4.26,.13-1.37,.26-2.7,.39-4.01,1.02,.07,2.03,.13,3.05,.2-.06,.84-.12,1.7-.19,2.57-.07,.88-.13,1.76-.19,2.66,.86,.05,1.72,.1,2.58,.14,.07-1.3,.14-2.58,.21-3.83,.07-1.23,.13-2.44,.2-3.62-2.63-.14-5.25-.31-7.87-.49-.11,1-.23,2-.35,3.03-.12,1.04-.24,2.1-.36,3.17-.12,1.09-.25,2.2-.38,3.32-.13,1.14-.26,2.31-.4,3.49,2.43,.2,4.85,.38,7.3,.51,2.44,.13,4.9,.21,7.35,.26,.02-1.46,.04-2.89,.06-4.29,.02-1.37,.04-2.72,.05-4.04,.02-1.29,.03-2.57,.05-3.81,.02-1.23,.03-2.43,.05-3.61,1.59,0,3.19,0,4.77-.03,1.59-.02,3.18-.06,4.76-.13s3.16-.16,4.73-.27c1.57-.11,3.14-.22,4.7-.34,.18,1.38,.37,2.8,.56,4.24,.19,1.48,.39,2.99,.6,4.53,.21,1.58,.42,3.2,.64,4.85,.22,1.69,.45,3.43,.69,5.2-.92,.08-1.85,.16-2.79,.24l-.02-.02Zm50.17-16.72c-2.95,1.5-5.93,2.96-8.93,4.4-.86,.4-1.72,.79-2.58,1.18-.53-1.19-1.05-2.35-1.56-3.49-.5-1.13-1-2.23-1.48-3.32-.48-1.07-.95-2.12-1.41-3.16-.46-1.02-.9-2.02-1.34-3,2.63-1.18,5.23-2.4,7.8-3.65,.57,1.08,1.15,2.19,1.74,3.31,.6,1.14,1.21,2.31,1.84,3.5-.97,.48-1.93,.95-2.9,1.42-.37-.74-.73-1.48-1.1-2.21-.36-.72-.71-1.43-1.06-2.14-.76,.36-1.53,.72-2.3,1.08,.55,1.15,1.1,2.33,1.67,3.52,.58,1.22,1.17,2.46,1.77,3.73,2.61-1.24,5.2-2.52,7.77-3.81-.57-1.03-1.13-2.06-1.68-3.06-.54-.99-1.08-1.96-1.6-2.92-.52-.95-1.03-1.87-1.53-2.79-.5-.9-.98-1.79-1.46-2.66-1.98,.99-3.97,1.97-5.99,2.91s-4.06,1.84-6.12,2.73c.48,1.13,.97,2.29,1.47,3.46,.51,1.19,1.03,2.42,1.56,3.66,.54,1.27,1.09,2.56,1.65,3.88,.57,1.34,1.16,2.72,1.75,4.13-.87,.37-1.75,.73-2.63,1.08-2.51,.99-5.03,1.95-7.56,2.84-2.53,.89-5.08,1.71-7.62,2.52-.89,.28-1.79,.55-2.69,.83-.45-1.73-.9-3.43-1.33-5.08-.42-1.61-.84-3.19-1.24-4.73-.39-1.5-.78-2.98-1.16-4.42-.37-1.41-.73-2.79-1.09-4.14,2.15-.73,4.29-1.44,6.44-2.18,2.15-.74,4.29-1.5,6.43-2.29,.35,.94,.71,1.89,1.08,2.86,.37,.98,.75,1.98,1.13,3,.39,1.03,.79,2.08,1.19,3.15,.41,1.08,.82,2.19,1.25,3.31-2.86,1.06-5.74,2.07-8.62,3.04-.42-1.39-.84-2.76-1.25-4.09-.4-1.31-.79-2.6-1.18-3.85,.97-.32,1.93-.65,2.89-.99,.27,.8,.54,1.62,.81,2.44,.28,.83,.56,1.68,.84,2.53,.81-.28,1.62-.57,2.43-.86-.43-1.23-.86-2.43-1.27-3.61-.41-1.16-.81-2.3-1.21-3.42-2.48,.88-4.97,1.72-7.46,2.56,.28,.96,.56,1.94,.84,2.93,.29,1,.58,2.03,.88,3.07,.3,1.06,.61,2.13,.92,3.21,.32,1.11,.64,2.23,.97,3.38,2.32-.75,4.63-1.51,6.94-2.32,2.3-.81,4.6-1.68,6.89-2.57-.54-1.35-1.07-2.68-1.59-3.98-.51-1.27-1.01-2.52-1.49-3.75-.48-1.2-.95-2.38-1.41-3.54-.45-1.14-.9-2.26-1.34-3.35,1.47-.61,2.94-1.22,4.4-1.85,1.46-.63,2.91-1.27,4.34-1.94,1.44-.67,2.86-1.36,4.27-2.06s2.81-1.41,4.21-2.12c.7,1.21,1.41,2.44,2.14,3.7,.74,1.29,1.51,2.61,2.29,3.96,.8,1.38,1.61,2.79,2.45,4.23,.86,1.48,1.73,2.99,2.63,4.54-.82,.42-1.65,.86-2.48,1.28l-.02-.02Zm39.95-34.65c-2.15,2.51-4.34,5-6.57,7.48-.64,.7-1.29,1.39-1.94,2.08-.94-.9-1.87-1.77-2.78-2.63-.9-.85-1.78-1.68-2.64-2.5-.85-.81-1.69-1.6-2.51-2.38-.81-.77-1.61-1.52-2.39-2.26,1.98-2.1,3.91-4.22,5.81-6.36,.94,.78,1.9,1.58,2.87,2.39,.99,.82,2,1.67,3.03,2.53-.71,.81-1.42,1.62-2.14,2.42-.63-.54-1.25-1.09-1.86-1.62s-1.21-1.05-1.8-1.57c-.57,.63-1.13,1.25-1.71,1.88,.95,.86,1.91,1.73,2.89,2.62,1,.91,2.02,1.83,3.06,2.77,1.94-2.15,3.84-4.31,5.72-6.5-.92-.74-1.83-1.47-2.72-2.18-.88-.71-1.75-1.4-2.6-2.08-.84-.67-1.67-1.34-2.48-1.99-.8-.64-1.59-1.27-2.37-1.9-1.45,1.67-2.92,3.34-4.42,4.98-1.5,1.64-3.05,3.26-4.61,4.86,.88,.86,1.77,1.74,2.68,2.64,.93,.91,1.87,1.84,2.84,2.78,.98,.97,1.99,1.95,3.01,2.96,1.04,1.02,2.11,2.07,3.2,3.14-.66,.67-1.34,1.35-2.01,2.01-1.94,1.87-3.9,3.73-5.9,5.52-2,1.79-4.04,3.53-6.08,5.25-.72,.6-1.44,1.19-2.17,1.8-1.08-1.43-2.14-2.82-3.17-4.18-1.01-1.33-1.99-2.63-2.96-3.9-.94-1.24-1.86-2.45-2.76-3.64-.88-1.16-1.74-2.3-2.59-3.41,1.7-1.5,3.42-2.98,5.12-4.48s3.39-3.03,5.07-4.58c.69,.73,1.38,1.48,2.09,2.23,.72,.77,1.45,1.55,2.19,2.34,.75,.8,1.52,1.62,2.3,2.45,.79,.84,1.6,1.7,2.42,2.58-2.24,2.07-4.51,4.11-6.8,6.11-.92-1.12-1.83-2.23-2.72-3.3-.87-1.06-1.73-2.09-2.56-3.11,.77-.67,1.53-1.34,2.3-2.02,.55,.64,1.11,1.29,1.68,1.95s1.15,1.34,1.75,2.02c.64-.57,1.28-1.15,1.92-1.72-.87-.97-1.72-1.92-2.56-2.85-.82-.92-1.63-1.82-2.42-2.7-1.96,1.76-3.93,3.49-5.91,5.21,.62,.78,1.26,1.58,1.9,2.39,.65,.82,1.31,1.65,1.99,2.5,.68,.86,1.38,1.73,2.08,2.62,.72,.9,1.45,1.82,2.18,2.75,1.86-1.58,3.7-3.16,5.52-4.8,1.82-1.63,3.61-3.32,5.38-5.01-1.02-1.04-2.01-2.07-2.99-3.07-.96-.98-1.89-1.95-2.82-2.89-.9-.93-1.79-1.84-2.66-2.73-.85-.88-1.69-1.74-2.52-2.59,1.13-1.12,2.25-2.26,3.36-3.39,1.11-1.14,2.2-2.29,3.27-3.46,1.07-1.17,2.12-2.35,3.16-3.54,1.04-1.18,2.06-2.38,3.08-3.57,1.11,.85,2.24,1.72,3.4,2.6,1.18,.91,2.39,1.83,3.63,2.78,1.26,.97,2.56,1.96,3.88,2.97,1.36,1.04,2.74,2.1,4.17,3.19-.6,.71-1.2,1.42-1.8,2.14v-.03Zm23.64-47.3c-1.03,3.14-2.1,6.29-3.21,9.43-.32,.89-.66,1.78-.99,2.66-1.21-.47-2.4-.92-3.57-1.37-1.15-.44-2.28-.87-3.39-1.3-1.09-.42-2.17-.83-3.23-1.23-1.04-.4-2.07-.79-3.07-1.17,1.02-2.69,2-5.4,2.93-8.1,1.17,.36,2.36,.73,3.57,1.11,1.23,.38,2.49,.77,3.77,1.17-.35,1.02-.7,2.04-1.05,3.06-.79-.26-1.57-.53-2.34-.79-.76-.26-1.52-.51-2.26-.76-.28,.79-.57,1.59-.86,2.39,1.2,.43,2.43,.86,3.67,1.31,1.27,.45,2.57,.91,3.89,1.39,.97-2.73,1.9-5.46,2.8-8.19-1.13-.33-2.25-.66-3.35-.98-1.08-.32-2.15-.63-3.2-.93-1.03-.3-2.05-.6-3.06-.89-.99-.29-1.96-.57-2.92-.85-.7,2.1-1.42,4.2-2.18,6.29-.76,2.09-1.57,4.18-2.4,6.25,1.14,.46,2.3,.93,3.49,1.41,1.21,.48,2.44,.98,3.69,1.49,1.28,.52,2.58,1.04,3.91,1.58,1.35,.55,2.74,1.11,4.16,1.68-.36,.88-.72,1.76-1.09,2.63-1.07,2.47-2.18,4.93-3.34,7.35-1.16,2.42-2.38,4.8-3.61,7.17-.44,.83-.88,1.65-1.32,2.49-1.55-.91-3.06-1.79-4.53-2.65-1.44-.84-2.85-1.66-4.22-2.47-1.34-.78-2.66-1.55-3.94-2.3-1.26-.74-2.49-1.46-3.7-2.16,1-2.03,2.02-4.06,3.02-6.1,1-2.04,1.97-4.1,2.93-6.17,.91,.41,1.84,.83,2.79,1.26,.96,.43,1.93,.87,2.92,1.32,1,.45,2.03,.92,3.06,1.39,1.06,.48,2.13,.96,3.22,1.46-1.28,2.77-2.6,5.52-3.94,8.25-1.28-.68-2.55-1.35-3.78-2.01-1.21-.64-2.4-1.27-3.56-1.89,.45-.91,.9-1.83,1.35-2.74l2.3,1.15c.78,.4,1.58,.79,2.39,1.2,.38-.77,.75-1.55,1.12-2.33-1.17-.56-2.33-1.12-3.45-1.66-1.11-.53-2.2-1.06-3.27-1.57-1.14,2.37-2.29,4.73-3.46,7.08,.88,.49,1.76,.98,2.67,1.48,.91,.51,1.85,1.02,2.79,1.55,.96,.53,1.93,1.07,2.92,1.62,1.01,.56,2.03,1.13,3.07,1.7,1.11-2.17,2.21-4.34,3.27-6.54s2.06-4.44,3.05-6.69c-1.34-.58-2.65-1.14-3.94-1.69-1.26-.54-2.5-1.07-3.71-1.6-1.19-.51-2.36-1.01-3.5-1.51-1.13-.49-2.23-.96-3.32-1.43,.61-1.47,1.21-2.94,1.8-4.42,.59-1.47,1.16-2.96,1.7-4.45,.54-1.49,1.06-2.98,1.56-4.48,.5-1.49,.99-2.98,1.48-4.47,1.35,.36,2.73,.73,4.13,1.11,1.44,.39,2.91,.78,4.41,1.18,1.54,.41,3.11,.83,4.72,1.26,1.65,.44,3.34,.89,5.07,1.35-.28,.88-.56,1.77-.85,2.66h-.01Zm4.28-26.3c-.15,2.68-.36,5.35-.59,8.01-.09,.93-.18,1.86-.27,2.81-1.78-.25-3.51-.48-5.2-.71-1.65-.23-3.27-.45-4.85-.66-1.54-.21-3.05-.42-4.52-.62-1.44-.2-2.86-.39-4.24-.58,.15-2.26,.31-4.52,.45-6.79,.14-2.26,.25-4.54,.34-6.82,1,.03,2.02,.07,3.06,.1,1.05,.03,2.12,.07,3.21,.1,1.1,.03,2.22,.07,3.36,.11,1.16,.04,2.34,.08,3.53,.11-.12,3.05-.29,6.09-.49,9.13-1.45-.14-2.87-.28-4.26-.41-1.37-.13-2.7-.26-4.01-.39,.07-1.02,.13-2.03,.2-3.05,.84,.06,1.7,.12,2.56,.19,.88,.07,1.76,.13,2.66,.19,.05-.86,.1-1.72,.14-2.58-1.3-.07-2.58-.14-3.83-.21-1.23-.07-2.44-.13-3.62-.2-.14,2.63-.31,5.25-.49,7.87,1,.11,2,.23,3.03,.35,1.04,.12,2.1,.24,3.17,.36,1.09,.12,2.2,.25,3.32,.38,1.15,.13,2.31,.26,3.49,.4,.2-2.43,.38-4.85,.51-7.3,.13-2.44,.21-4.9,.26-7.35-1.46-.02-2.89-.04-4.29-.06-1.37-.02-2.72-.04-4.04-.06-1.29-.02-2.57-.03-3.81-.05-1.23-.02-2.43-.03-3.61-.05,0-1.59,0-3.19-.03-4.77-.02-1.59-.06-3.18-.13-4.76s-.16-3.16-.27-4.73c-.11-1.57-.22-3.14-.34-4.7,1.38-.18,2.8-.37,4.24-.56,1.48-.19,2.99-.4,4.53-.6,1.58-.21,3.2-.42,4.85-.64,1.69-.22,3.43-.45,5.2-.69,.08,.92,.16,1.85,.24,2.79,.25,3.3,.47,6.61,.64,9.93,.04,.95,.07,1.89,.1,2.84-1.3,.03-2.57,.07-3.82,.1-1.23,.03-2.44,.07-3.63,.1-1.17,.03-2.32,.06-3.46,.09-1.12,.03-2.21,.06-3.29,.09-.09-2.88-.22-5.75-.39-8.61,1.22-.11,2.46-.22,3.72-.34,1.28-.12,2.59-.24,3.93-.36,.07,1.07,.14,2.15,.2,3.23-.83,.06-1.65,.11-2.46,.17-.8,.06-1.6,.11-2.38,.16,.04,.84,.08,1.69,.12,2.53,1.28-.07,2.57-.13,3.9-.2,1.35-.07,2.72-.14,4.13-.21-.15-2.89-.33-5.77-.55-8.64-1.17,.13-2.33,.26-3.47,.38-1.12,.12-2.23,.24-3.31,.36-1.07,.12-2.13,.23-3.16,.35-1.02,.11-2.03,.22-3.02,.33,.15,2.21,.3,4.43,.4,6.65,.1,2.23,.15,4.46,.18,6.7,1.23,0,2.49-.02,3.76-.03,1.3,0,2.63-.03,3.98-.04,1.38,0,2.78-.02,4.22-.04,1.46,0,2.96-.03,4.48-.04v2.84c-.05,2.69-.12,5.39-.27,8.07v.03Z"/><g><g><path class="cls-3" d="M129.35,218.13c-.5-.61-3.31,1.14-3.72,1.85-2.19,3.83,2.02,8.89,2.91,10.04-.11-4.14,1.56-6.49,3.22-7.87-.43-1.84-1.27-2.64-2.39-4.02h-.01Z"/><path class="cls-3" d="M146.31,227.3c-.28,1.12-1.37,2.68-2.08,3.92,.49-.24,4.25-1.34,5.86-5-1.08-.57-2.75-2.48-3.76-1.85,.19,.87,.3,1.7-.01,2.94h0Z"/><path class="cls-3" d="M126.04,209.04c-2.35,1.39-6.59,3.06-6.28,10.39,3.27-3.58,5.94-5.29,7.8-5.57,.2-1.53-.58-3.81-1.53-4.82Z"/><path class="cls-2" d="M151.21,221.26c-8.35-9.08-12.05-19.98-8.9-32.1,.64-2.43-4.37-4.03-8.13-3.95-8.1,.16,3.1,22.18,2.75,22.47-.78-1.04-1.89-1.39-3.84-1.24-.85,.07-7.41,1.76-7.37,2.71,.04,.04,.07,.08,.11,.11,.85,.91,1.57,2.98,1.38,4.36-.03,.24-.09,.47-.19,.66,.41-.15,3.31-1.15,6.2-1.43-1.97,2.25-5.17,3.86-5.17,5.21v.12c.15,.07,.58,.3,.72,.37,1.61,.81,1.99,2.2,2.43,4.07l.03,.11c.95-.11,6.86-5.63,9.92-5.15,1.84,.28,3.04,1.03,4.14,2.48,1.26,1.7,.87,3,.87,5.05,0-.26,1.08-.28,1.38-.2,.69,.2,1.51,1.01,2.26,1.43,.3,.16,.5,.23,.54,.07,.28-1.04,1.83-4.07,.88-5.1h.01Z"/></g><path class="cls-2" d="M236.9,131.52s18.96-2.94,17.17-11.88c.97,4.87-26.77,10.31-21.45-.76,3.25-6.74,15.6-6.47,17.9-2.39-5.92-10.48-26.08-2.22-23.24-7.58,1.68-3.17,19.3-3.12,20.72-1.24-9.86-13.01-35.24,3.17-35.82-7.83,0,0,6.15,.32,17.8-2.69,6.28-1.62,17.61,2.58,17.61,2.58-13.72-10.73-18.68-3.77-25.61-3.35-9.63,.58,2.12-2.88-14.27,1.8-2.27,.65-8.86,1.18-8.86,1.18,0,0,15.31-7.9,17.26-9.06,3.03-1.83,6.02-5.83,6.02-5.83-3.53-2.16-9.82,5.79-13.91,7.89-2.41,1.16-5.72,2.04-6.25,1.87,0,0,9.6-14.8,4.59-14.49-1.22,.08-3.76,15.92-13.73,20.47-.09-1.61-8.17,.85-10.98,7.7,0,0-.49-22.56,13.66-25.96-13.91,3.1-23.06,22.68-22.48,26.7-.64-4.4-4.73-2.83-5.59-1.77-.65,.83-.92,2.41-1.14,3.45,.16-.66-.12-4.75-1.12-4.5-1.83,.45-5.25,3.94-3.57,5.87,.28,.66,.93,4.69,.78,5.41-.08,.43,.22,.91,.72,1.33,.93,.78,2.54,1.41,3.58,1.3,.07-.09,.15-.18,.24-.22,.01,.05,.04,.12,.05,.19,.96-.07,1.08,1.33,2.12,1.54,1.27,.26,2.98,.23,4.26-.26,.23-.08,.46-.18,.66-.3,4.03-2.34,10.6-8.25,15.35-4.87,1.7,1.2,3.25,1.49,3.64,3.68,.39,2.27,.5,4.53-.32,6.52-.34,.81-.83,1.58-1.51,2.29-1.89,1.92-2.58,3.17-5,4.34-9.55,4.68-12.63-2.11-12.85-2.6h-.04c-.27,.53-.5,.93-.6,1.08,0,.04-.03,.08-.03,.12-.42,1.79-.39,4.98,.58,5.87,1.62,1.49,.54,7.94-1.04,10.33-4.45,6.72-9.82,7.4-9.18,7.53,1.91,.39,18-6.8,14.92-13.5,2.77,6.02,15.29-3.86,15.29-3.86,.77,.23,4.37,7.89,2,8.02,4.1-.23,6.38-14.14,6.38-14.14,.27,.15,3.3,15.53-2.94,17.94,8.7-3.37,11.73-17.98,11.73-17.96,.16,8.95,4.73,10.51,4.75,13.92,0,0,4.33-6.48,3.6-9.79-.03-.12,5.78-4.94,7.25-5.8,2.22-1.3-11.69-3.41-11.69-3.41,0,0,.76-2.12,6.75-5.76,4.75-2.88-11.8-1.34-11.8-1.34,0,0,6.75-5.95,7.4-6.75,1.38-1.68-5.74-4.83-8.25-6.6-2.88-2.03-16.69,2.89-17.79,7.59,1.03-6.17,10.85-13.54,18.59-10.1,3.06,1.37,9.18,6.44,13.55,6.71,1.66,.11-4.68,5.23-5.15,5.76,3.34-.49,14.5,2.14,10.67,4.13-4,2.08-5.71,3.18-6.49,3.96,2.1,.18,11.81,4.22,9.23,5.98-2.26,1.54-4.87,5.14-8.79,6.64,2.58,1.87,8.25,5.75,12.34,6.75,5.09,1.26,19.97,.37,23.59-5.48,0,0-20.4,1.96-21.26-6.41v.05Zm-72.07-17.31c-.8-.73-1.33-1.22-1.66-2.26-.23-.73-.07-1.24,.03-1.99,.09-.76,.23-1.53,.97-1.77,.61-.2,.97,.55,1.18,1.16,.58,1.87-.83,2.89-.53,4.84h.01Zm4.04,2.45c-.22-1.5-1.08-2.2-1.18-3.72-.09-1.47,.58-4.13,2.06-4.21,.8-.05,2.43,1.1,2.26,2.11-.51,2.29-1.34,3.79-3.15,5.82h.01Zm24.86-4.03s14.5-6.29,14.68-4.38c.11,1.26-.16,5.11-1.56,6.13-1.74,1.29-9.16,1.56-12.7-.66-.34-.22-.54-.92-.42-1.1h0Z"/><path class="cls-2" d="M265.97,149.78c-4.26,.58-10.25,1.41-11.65,5.84-.27,.85-3.25,4.72-3.25,4.72,.2,.83-1.5,11.32-6.48,15.06,0,0,1.99,1.91-.15,4.32-.78,.88,.28,4.03,.32,5.23,.04,.89,.49,1.53,1.11,1.89,1.27,.73,3.29,.24,4.09-1.91,.45-1.22,.5-2.96-.19-5.33-.7-2.35,.72-2.95,1.53-4.5,.45-.87,.64-1.23,1.47-1.61,2.18-1.03,4.73,.04,6.71,.28h0c2.22,.27,3.49-.99,3.67-2.19,.11-.76-.22-1.5-1.06-1.81-.55-.2-3.46-1.53-4.1-1.73-1.37-.43-2.34,.32-3.77,.27,3.33-1.72,4.99-5.37,8.48-4.26,.22,.07,.41,.09,.6,.09,1.81-.03,2.46-3.11,2.11-4.73-.11-.5-.32-.87-.62-.95-3.91-1.06-6.71-.28-11.36,5.22,0,0,3.58-8.86,11.62-9.31,.46-.03,.89-.11,1.29-.23,1.95-.61,2.96-2.29,2.94-3.64-.01-.93-2.27-.89-3.3-.76v.03Z"/><path class="cls-2" d="M221.99,164.75c5.82,4.63,18.1,4.67,22.56,4.33,1.85-2.54,2.22-3.58,3-7.51-3.69,2.03-18.99,2.06-23.21-3.75,3.96,3.71,19.1,1.16,23.81-2.26,.28-.91,.16-6.72-.07-8.13-.99,.16-7.48,.43-13.92-.95-4.52-.97-9.97-4.45-12.92-6.57l-2.2,5.53c2.77,7.05,1.57,12.24,.35,12.93,.07-2.45,.22-8.85-2.8-9.04-2.87-.18-5.33,2.07-6.53,4.69-.54,1.18-.99,4.56-1.37,5.94-1.72-1.5-3.67-7.82-3.76-7.45-3.21,12.05-7.76,0-8.86,3.23-3.76,11.08-10.16-.19-10.32,0-8.09,9.12-13.86,.6-14.64,1.2-7.07,9.31-9.28,4.06-9.94,3.6-7.82,8.32-8.89,20.4-8.6,24.36,1.04,14.84,15.12,34.52,39.62,40.15,0,0-40.99-3.8-44.96-39-9.31,13.95,5.1,34.99,14.8,40.09,9.98,5.25,26.32,10.13,37.33,14.53,14.43,5.82,13.28,15.53,12.95,18.56-1.53,13.7-22.17,16.92-30.48,16.31,0,0-21.3-2.37-19.14-18.8,.6-4.52,3.37-7.33,8.03-7.82-.04,.41,0,.95-.46,2.5-.49,3.21,1.01,8.78,2.54,10.6,1.5,1.8,5.41,2.45,6.68,2.11,0-.12-6.34-1.14-3.77-5.18,1.12-1.77,2.04-.47,3.84,.27,4,1.65,2.57,6.74,6.56,8.39,1.69,.69,3.12,.89,4.71,.09l.6-.81c-.91-.04-1.64,.12-2.53-.26-1.74-.72-3.53-2.31-2.8-4.06,.65-1.58,2.88-.92,4.46-.27,1.41,.58,1.92,1.58,3.33,2.16,3.38,1.39,6.02,.11,9.28-1.72l.83-.72c-1.54-.11-2.61,.24-4.07-.37-3.61-1.49,.03-4.87-3.57-6.36-1.69-.7-2.81-.23-4.49-.93-.68-.28-1.47-2.19-1.19-2.87,.95-2.31,4.06-2.02,6.37-1.07,1.12,.46,1.64,1.14,2.45,2.07-.09-2.81-2.54-4.94-5.33-5.63-4.79-1.19-5.42,3.57-10.16,1.61-.62-.26-.88-.76-1.39-1.11-2.46-2.34,3.12-4.38,7.78-2.85-.78-1.31-3.49-2.23-4.91-2.81-3.33-1.37-10.5,1.65-12.82,4.4l-.08,.09c-1.83-.39-3.45-.53-4.59-.27-9.37,2.1-10.24,11.39-8.54,17.65,4.82,17.72,22.48,20.51,29.19,20.79,18.19,.76,37.47-12.31,39.27-27.32,3.57-29.95-33.68-42.15-50.44-47.9-6.72-2.3-9.48-7.6-9.59-11.31-.12-4.21,1.62-10.79,4.55-10.62,9.52,.55,17.3-16.61,17.3-16.61-.07,.24,1.56,13.53-8.56,18.19,2-.19,3.44-.55,7.71-.37,8.6,.39,10.97-17.96,10.97-17.96,1.64,1.03,2.79,17.88-6.13,18.18,5.71,.65,9.48,1.6,9.48,1.6,1.76,0,3.72-4.18,4.36-6.4,1.08,3.95,2.64,8.56,3.96,10.86-.04,2.45-1.56,5.65-4,5.6-2.23-.04-3.37-1.12-5.6-1.26-2.85-.18-3.38,3.94-2.98,6.15,.49,2.66,4.49,5.03,5.64,4.96,1.34-.08-.68-6.64,1.19-5.42,1.27,.83,5,2.53,7.4-2.75-.04,2.66,1.49,5.25,4.26,4.91,2.54-.32,2.96-2.15,2.58-5.68,3.61,1.35,8.48-3.06,9.44-2.8,1.29,.34,2.88-.32,2.91-1.65,.01-.65-2.57-4.84-4.09-4.87-1.47-.03-4.5,4.82-7.85,3.45-1.93-.78-3.25-3.22-4.13-6.2,3.35-.09,14.38-2.77,16.08-4.76-14.97-1.76-11.82-14.47-11.82-14.47,1.15,6.59,9.71,11.09,17.1,10.23,.28-.39,3.1-2.57,4.64-6.47-5.6,.07-16.72-2.94-20.29-9h-.01Z"/></g></svg>